<?xml version="1.0" encoding="utf-8"?>
<!-- Generator: Adobe Illustrator 23.1.1, SVG Export Plug-In . SVG Version: 6.00 Build 0)  -->
<svg version="1.1" id="Layer_1" xmlns="http://www.w3.org/2000/svg" xmlns:xlink="http://www.w3.org/1999/xlink" x="0px" y="0px"
	 viewBox="0 0 81.6429825 25.8604164" style="enable-background:new 0 0 81.6429825 25.8604164;" xml:space="preserve">
<style type="text/css">
	.st0{fill:#001959;}
	.st1{fill:#0063FF;}
	.st2{enable-background:new    ;}
</style>
<g>
	<g>
		<g>
			<g>
				<g>
					<g>
						<path class="st0" d="M4.4300346,9.2937393v12.2259884c0,0.3114433,0.1664495,0.5513916,0.4364491,0.706625
							l5.9697304,3.5025291c0.2686043,0.1544304,0.5990543,0.1837749,0.8676586,0.0293427l5.9685555-3.5212326
							c0.2707272-0.155653,0.4376259-0.4049797,0.4376259-0.7172642V9.2829447l-6.8400097,4.0716314L4.4300346,9.2937393z"/>
						<path class="st0" d="M2.4081645,20.2408695V8.4388742c0-0.1803827,0.0455298-0.4082956,0.3982399-0.5828686
							l8.2151251-4.8894176c0.1540518-0.0877688,0.3429766-0.0877683,0.4970293,0.0000014l8.3685665,4.9799051
							c0.1567287,0.0892954,0.2477989,0.1477757,0.2446918,0.3531418l-0.000021,11.9412327
							c0,0.2476807,0.2734222,0.3643494,0.4900494,0.2442703l1.6821632-0.9990005
							c0.1596069-0.0884724,0.2359734-0.2217808,0.2359734-0.4042683V6.8658338c0-0.215241-0.0719662-0.2889171-0.226656-0.3787632
							l-10.791893-6.4191599c-0.1554966-0.0903152-0.3474245-0.0905626-0.5031538-0.0006485L0.2468872,6.4806433
							C0.0915659,6.5703216,0,6.7232985,0,6.9026499V19.081871c0,0.1760044,0.0741911,0.3073273,0.2249433,0.3981647
							l1.6986635,1.0084782C2.1403697,20.6191254,2.4081645,20.4939423,2.4081645,20.2408695z"/>
					</g>
				</g>
				<polygon class="st1" points="16.1446934,8.1477671 11.2700176,5.2537603 11.2700176,5.2536592 11.2700176,5.2537603 
					11.2700176,5.2536592 11.2700176,5.2537603 6.3952417,8.1477671 11.2700176,11.0417738 11.2700176,11.0417738 
					11.2700176,11.0417738 				"/>
			</g>
		</g>
	</g>
	<g>
		<g>
			<g>
				<g>
					<g>
						<polygon class="st0" points="62.3838463,13.46315 67.9759293,13.46315 67.9759293,12.034277 63.8238831,12.034277 
							63.8238831,9.1145134 67.9759293,9.1145134 67.9759293,7.6980433 63.8238831,7.6980433 63.8238831,5.4927168 
							68.0125198,5.4927168 68.0125198,4.0638433 62.3838463,4.0638433 						"/>
						<path class="st0" d="M73.6832047,8.2938671c0.5408401-0.4472942,0.8140488-1.0432734,0.8140488-1.7767859
							c0-0.7805967-0.2750702-1.3926835-0.8171463-1.8176746c-0.527832-0.4150791-1.2978973-0.6257162-2.2897491-0.6257162
							h-2.0239792V13.46315h2.712883c0.9230881,0,1.6844788-0.2676334,2.2637329-0.7942257
							c0.5842056-0.5315495,0.8803329-1.2105446,0.8803329-2.0171604c0-0.581111-0.1598358-1.0903568-0.4745483-1.5153484
							C74.4935379,8.7907228,74.1360703,8.5082216,73.6832047,8.2938671z M73.0339432,6.5170813
							c0,0.4336643-0.1505432,0.7397079-0.4584427,0.9342375c-0.3339233,0.2093978-0.8567963,0.3147163-1.5543823,0.3147163
							h-0.2285995v-2.277359h0.745285C72.8784409,5.4886761,73.0339432,6.0759821,73.0339432,6.5170813z M73.7476349,10.7124767
							c0,0.2230272-0.0762024,0.4485331-0.2261276,0.6690826c-0.1536407,0.2267447-0.3518906,0.3890591-0.606514,0.4980946
							c-0.2626724,0.1115141-0.7012939,0.1685104-1.3034668,0.1685104h-0.8190079V9.205802h0.2162094
							c0.7440491,0,1.259491,0.0359325,1.532074,0.1090355c0.2663956,0.0718641,0.4919052,0.178422,0.6709442,0.3171949
							c0.177803,0.138773,0.3134766,0.29737,0.4020691,0.4720745
							C73.7024078,10.2775736,73.7476349,10.4820147,73.7476349,10.7124767z"/>
						<path class="st0" d="M81.1395569,9.4392653c-0.3235931-0.453146-0.8376694-0.9394197-1.5268555-1.445807
							C78.9501419,7.507185,78.5230255,7.1546068,78.344368,6.946373c-0.1603165-0.1869373-0.2384033-0.3999043-0.2384033-0.6519146
							c0-0.2425451,0.0792694-0.4353981,0.2431335-0.5892072c0.1662369-0.1573586,0.3673706-0.2330804,0.615242-0.2330804
							c0.2585144,0,0.4774017,0.0615239,0.6690674,0.1869373c0.2005463,0.1325126,0.4543304,0.4046364,0.7536621,0.8092732
							l0.1112213,0.1490765l1.0944061-0.8554158l-0.0999756-0.1419778
							c-0.3549423-0.4992881-0.7258606-0.8849945-1.1038742-1.1441035
							c-0.3904343-0.2662082-0.8518677-0.4022703-1.3718567-0.4022703c-0.6738052,0-1.2328415,0.2176991-1.6617355,0.647182
							c-0.4288864,0.4282994-0.6465912,0.9595323-0.6465912,1.5795016c0,0.2875051,0.0550232,0.5785594,0.1644592,0.864881
							c0.1100311,0.2875051,0.2875061,0.560812,0.5259094,0.8116393c0.231308,0.2437286,0.6400833,0.5868416,1.25,1.0494518
							c0.5791473,0.4365816,0.991478,0.8092728,1.2239609,1.1062431c0.2165146,0.2744904,0.3259583,0.5667276,0.3259583,0.8684301
							c0,0.2934208-0.1224518,0.5454311-0.3744659,0.7690458c-0.2573318,0.2307138-0.5596313,0.3419304-0.9246292,0.3419304
							c-0.5596313,0-1.083168-0.4460468-1.5552444-1.3263092l-0.0887375-0.1644573l-1.1695404,0.6732111l0.0780869,0.1538095
							c0.6809006,1.336956,1.6404343,2.0149002,2.8525696,2.0149002c0.6956863,0,1.3132935-0.2520103,1.8356476-0.7501154
							c0.5247269-0.4992886,0.7903442-1.0991449,0.7903442-1.7818203
							C81.6429825,10.4082623,81.473793,9.9066076,81.1395569,9.4392653z"/>
						<path class="st0" d="M59.8218155,6.8243713c-0.4097481-0.2603679-0.8722916-0.3923516-1.3744278-0.3923516
							c-0.789505,0-1.4956169,0.291564-2.1039391,0.8650932V6.4320197L54.9864159,6.430275V13.46315h1.3570328v-2.5916796
							c0-0.8386965,0.0359955-1.4002266,0.1073837-1.668993c0.0689926-0.2603683,0.1961784-0.511137,0.3779564-0.7439079
							c0.1817741-0.2315722,0.401947-0.4151487,0.6539154-0.544733c0.5099373-0.2627673,1.0822678-0.2315712,1.4338226-0.0791903
							c0.1739807,0.0755906,0.3125648,0.185977,0.4247475,0.3395576c0.1163864,0.1583805,0.2069778,0.3575563,0.2687683,0.5927267
							c0.0629921,0.2423706,0.0953865,0.7187119,0.0953865,1.4134254v3.282794h1.3456345V9.9415855
							c0-0.9166861-0.0989876-1.5814047-0.3023605-2.0349483C60.5441284,7.4506936,60.2321663,7.0859389,59.8218155,6.8243713z"/>
						<path class="st0" d="M35.7202339,4.6814466c-0.7288208-0.409369-1.5375023-0.6176033-2.4041595-0.6176033
							c-0.82761,0-1.6114445,0.2106004-2.3290234,0.624702c-0.7187634,0.4141016-1.2931805,0.992661-1.7066917,1.7179303
							c-0.4135094,0.7252698-0.6229267,1.5227113-0.6229267,2.3698449c0,0.8483171,0.2094173,1.6410255,0.623518,2.3591967
							c0.4135113,0.7169867,0.993845,1.2896309,1.7250309,1.7013655c0.7294102,0.408186,1.5280342,0.6164198,2.3745766,0.6164198
							c0.8459511,0,1.6416168-0.2094164,2.364521-0.623518c0.7217178-0.4141016,1.2979126-0.9902945,1.7126045-1.7131977
							c0.4135094-0.7217207,0.6229286-1.5167952,0.6229286-2.3639297c0-0.8459501-0.2117844-1.6422086-0.6294365-2.3651114
							C37.032341,5.6646423,36.4502335,5.0908155,35.7202339,4.6814466z M36.6714821,8.7822361
							c0,0.9477015-0.3235893,1.7463255-0.9618988,2.373394c-0.6406746,0.6282511-1.4339752,0.9465179-2.3586044,0.9465179
							c-0.8932762,0-1.6723785-0.3253651-2.3154202-0.968998c-0.6430397-0.6424484-0.9695892-1.4398899-0.9695892-2.3686609
							c0-0.9299545,0.3170834-1.728579,0.9423771-2.3757606c0.6312103-0.6554637,1.3978882-0.9725475,2.3426323-0.9725475
							c0.9092484,0,1.69841,0.3253655,2.3455887,0.968998C36.34375,7.0288115,36.6714821,7.8345346,36.6714821,8.7822361z"/>
						<path class="st0" d="M42.6773148,6.4320197c-0.8197479,0-1.5363731,0.2866507-2.1358948,0.8506298V6.4320197h-1.3062401
							v9.0621166H40.54142v-2.9061232c0.6472969,0.5849533,1.3837318,0.8809261,2.1941605,0.8809261
							c0.9415169,0,1.7560234-0.3495741,2.4202156-1.0382338c0.6624413-0.6874952,0.9986153-1.5241423,0.9986153-2.4854698
							c0-0.9636583-0.3402519-1.7979746-1.0114326-2.4808083C44.4706306,6.7804284,43.6415558,6.4320197,42.6773148,6.4320197z
							 M41.1106453,8.3628321c0.4200706-0.4346366,0.9246216-0.645546,1.5439491-0.645546s1.1279564,0.2144051,1.5550194,0.6571989
							c0.4293938,0.4439583,0.6385574,0.9648237,0.6385574,1.5940561c0,0.628067-0.2126579,1.1477671-0.649044,1.5917253
							c-0.4352188,0.4439592-0.9327774,0.6583643-1.5218124,0.6583643c-0.6117516,0-1.1192169-0.2109098-1.5509415-0.6467113
							c-0.4323044-0.4358025-0.6426315-0.9601631-0.6426315-1.6033783
							C40.4837418,9.3229952,40.6888237,8.7974691,41.1106453,8.3628321z"/>
						<path class="st0" d="M53.9604912,10.0881729c-0.0238724-1.1226587-0.3645172-2.0216751-1.0120163-2.6726832
							c-0.6492538-0.6533337-1.4662056-0.9852581-2.4287262-0.9852581c-0.9642677,0-1.7841301,0.3506289-2.437458,1.0400567
							c-0.6504135,0.6858892-0.9799881,1.5209064-0.9799881,2.4828091c0,0.9596786,0.3278313,1.7934828,0.9747505,2.477047
							c0.64925,0.6847773,1.4830856,1.032979,2.4776344,1.032979c0.7191277,0,1.3474159-0.1711693,1.8668137-0.5088558
							c0.5170708-0.3354635,0.9695091-0.8571596,1.3439255-1.5512381c-0.5052681,0-1.0105362,0-1.5158005,0
							c-0.1271973,0.1564074-0.3648872,0.4055281-0.7381248,0.5883236c-0.092495,0.0452948-0.4857712,0.2222261-1.026104,0.2222261
							c-0.5502625,0-1.0108566-0.1886597-1.4073906-0.5788193c-0.359272-0.3528528-0.5665665-0.8000355-0.630619-1.3636904
							h5.5171814L53.9604912,10.0881729z M48.6197433,9.0680399c0.35112-0.9095335,0.9747505-1.3532376,1.9000053-1.3532376
							c0.4908714,0,0.9299164,0.1397495,1.3054924,0.4157538c0.3196754,0.2340794,0.536869,0.5426922,0.6608963,0.9374838
							H48.6197433z"/>
					</g>
				</g>
			</g>
		</g>
		<g class="st2">
			<g>
				<path class="st0" d="M31.4400558,18.0696526c-0.1982594-0.1846027-0.4359531-0.3211823-0.7064686-0.4066563
					c-0.2683125-0.0841503-0.6914883-0.1268864-1.257412-0.1268864H28.587307v4.09342h1.329668
					c0.5225258,0,0.9313831-0.0810661,1.2155571-0.2405567c0.2835121-0.1599293,0.5112915-0.4000454,0.6771698-0.7137375
					c0.1641159-0.3119297,0.247385-0.6485329,0.247385-1.0014362c0-0.3507004-0.0535316-0.6621895-0.1592693-0.926096
					C31.7918587,18.4820328,31.6378765,18.2542534,31.4400558,18.0696526z M31.5250874,19.6213703
					c0,0.2502499-0.0409737,0.4753857-0.1215992,0.6683598c-0.0801849,0.1916504-0.1984806,0.3564281-0.3513622,0.4903641
					c-0.1519985,0.1330547-0.3319759,0.2233734-0.5350819,0.2687531c-0.2092762,0.0462608-0.5538082,0.0696106-1.0243473,0.0696106
					h-0.3899117v-3.0607014h0.2134609c0.4678936,0,0.8258648,0.024231,1.0639973,0.0731354
					c0.231966,0.0467014,0.436615,0.1396637,0.6079998,0.2758026c0.1702824,0.1352577,0.3035583,0.3101673,0.3965206,0.5203247
					C31.4779453,19.1376152,31.5250874,19.3711224,31.5250874,19.6213703z"/>
				<rect x="32.6329231" y="17.5361099" class="st0" width="0.5319991" height="4.0934196"/>
				<path class="st0" d="M36.1875153,19.5054989c0.2544327-0.2053108,0.3835258-0.4912453,0.3835258-0.8489952
					c0-0.1784344-0.0356903-0.3436527-0.1057396-0.4916878c-0.070713-0.1493549-0.1694031-0.2727184-0.2929878-0.3661213
					c-0.1233597-0.0942822-0.2718353-0.1625729-0.4416771-0.2026653c-0.1689644-0.0400925-0.4698792-0.0599194-0.9194908-0.0599194
					h-0.8558235v4.09342h0.5322189v-1.8407383h0.1251259l1.4217453,1.8407383h0.661972l-1.4265938-1.8398571
					C35.6548538,19.7821827,35.9632607,19.6870174,36.1875153,19.5054989z M35.1378365,19.2671452
					c-0.0114555,0-0.0229111,0-0.0345879-0.0004406h-0.6157074v-1.2089481h0.6322327
					c0.3158951,0,0.549839,0.0497856,0.6954536,0.148035c0.1392212,0.0938416,0.2070694,0.2431984,0.2070694,0.4559975
					c0,0.2136822-0.0687294,0.3639183-0.2101555,0.4599648C35.6696129,19.2182407,35.4431572,19.2671452,35.1378365,19.2671452z"/>
				<polygon class="st0" points="37.2843361,21.62953 39.6738167,21.62953 39.6738167,21.1021576 37.816555,21.1021576 
					37.816555,19.6830521 39.6738167,19.6830521 39.6738167,19.1622868 37.816555,19.1622868 37.816555,18.0630436 
					39.6903381,18.0630436 39.6903381,17.5361099 37.2843361,17.5361099 				"/>
				<path class="st0" d="M43.6277924,20.5910854c-0.3559875,0.4159069-0.8078003,0.626503-1.3431053,0.626503
					c-0.4791298,0-0.8831406-0.1555252-1.2010155-0.4626083c-0.31744-0.3070831-0.4784698-0.6952324-0.4784698-1.1534348
					s0.1647758-0.8503189,0.4894829-1.166214c0.3249283-0.3163357,0.7179222-0.4767056,1.1681938-0.4767056
					c0.5531464,0,1.0117912,0.2211704,1.3635941,0.6577835l0.0414124,0.051548l0.413044-0.3176575L44.0430374,18.29743
					c-0.1978188-0.2766819-0.4551163-0.4916859-0.7646217-0.6388378c-0.3084068-0.1467133-0.6613121-0.2216129-1.0485802-0.2216129
					c-0.3881493,0-0.7562523,0.0938435-1.0937386,0.2780056c-0.3385849,0.1854839-0.6068954,0.4458675-0.7974472,0.7732162
					c-0.1907692,0.3264694-0.2874756,0.6873035-0.2874756,1.0728111c0,0.6216564,0.2088318,1.1441822,0.6209946,1.552599
					c0.4112816,0.4079762,0.9465828,0.6150494,1.5907097,0.6150494c0.3683243,0,0.7095528-0.0700531,1.0142136-0.2075138
					c0.3062019-0.1379013,0.5634995-0.342329,0.7648468-0.6075573l0.0405312-0.053751l-0.413044-0.3176575L43.6277924,20.5910854z"
					/>
				<polygon class="st0" points="44.3225861,18.0577564 45.2099113,18.0577564 45.2099113,21.62953 45.7476387,21.62953 
					45.7476387,18.0577564 46.6294594,18.0577564 46.6294594,17.5361099 44.3225861,17.5361099 				"/>
				<path class="st0" d="M50.119503,17.7185097c-0.3337364-0.1868057-0.6991959-0.2815304-1.085804-0.2815304
					c-0.3861694,0-0.7489853,0.0960464-1.0783195,0.2846146c-0.3284492,0.1885681-0.5910378,0.4533558-0.7800446,0.7859936
					c-0.1887894,0.331316-0.2843933,0.6987572-0.2843933,1.0917549c0,0.3815403,0.0967064,0.7414932,0.2874794,1.069725
					c0.1907692,0.329113,0.4562187,0.5903759,0.7888565,0.7776222c0.3328552,0.1868057,0.697216,0.281971,1.082943,0.281971
					c0.3859444,0,0.7496452-0.0960464,1.0805168-0.2854958c0.3313179-0.1890087,0.5947838-0.4524746,0.7833519-0.7824688
					c0.1887856-0.3304329,0.2843933-0.6939106,0.2843933-1.08074c0-0.3863869-0.0967064-0.7503052-0.2874794-1.0811806
					C50.719574,18.1674595,50.4532433,17.9048748,50.119503,17.7185097z M50.6497421,19.582159
					c0,0.4678955-0.1572876,0.8600101-0.4674568,1.1648903c-0.3106079,0.3053226-0.6923676,0.4599648-1.1349297,0.4599648
					c-0.4416809,0-0.8243217-0.1581669-1.1371346-0.4709778c-0.3123703-0.3119297-0.4707603-0.6991997-0.4707603-1.1507931
					c0-0.4511528,0.1539841-0.8397427,0.4577637-1.1543159c0.3031197-0.313694,0.6864204-0.4723015,1.1391182-0.4723015
					c0.4427795,0,0.8263054,0.1581669,1.1399956,0.4705391C50.4904709,18.7415352,50.6497421,19.1292439,50.6497421,19.582159z"/>
				<path class="st0" d="M53.1876945,19.7896729c0.3852882-0.0074902,0.6936951-0.1026554,0.9177284-0.284174
					c0.2544327-0.2053108,0.383522-0.4912453,0.383522-0.8489952c0-0.1784344-0.0356865-0.3436527-0.1057358-0.4916878
					c-0.0702744-0.1489143-0.1689644-0.2722778-0.2927666-0.3661213c-0.1235809-0.0942822-0.2722778-0.1625729-0.4419022-0.2026653
					c-0.1689606-0.0400925-0.4698753-0.0599194-0.919487-0.0599194h-0.8556061v4.09342h0.5322227v-1.8407383h0.1249008
					l1.4017029,1.8143044l0.0202675,0.0264339h0.661972L53.1876945,19.7896729z M53.0213776,19.2667046h-0.6157074v-1.2089481
					h0.6322289c0.3158951,0,0.5498428,0.0497856,0.6952324,0.148035c0.139225,0.0938416,0.2070732,0.2431984,0.2070732,0.4559975
					c0,0.2136822-0.0687294,0.3639183-0.2099342,0.4599648c-0.1425285,0.096487-0.3689842,0.1453915-0.6743088,0.1453915
					C53.0445099,19.2671452,53.0330544,19.2671452,53.0213776,19.2667046z"/>
			</g>
		</g>
	</g>
</g>
</svg>
