<?xml version="1.0" encoding="utf-8"?>
<!-- Generator: Adobe Illustrator 23.0.3, SVG Export Plug-In . SVG Version: 6.00 Build 0)  -->
<svg version="1.1" id="Layer_1" xmlns="http://www.w3.org/2000/svg" xmlns:xlink="http://www.w3.org/1999/xlink" x="0px" y="0px"
	 viewBox="0 0 8.8469553 16.0552387" style="enable-background:new 0 0 8.8469553 16.0552387;" xml:space="preserve">
<style type="text/css">
	.st0{fill:#001959;}
	.st1{fill:#0063FF;}
	.st2{enable-background:new    ;}
	.st3{fill:#9FB2DC;}
	.st4{fill:#8EA0C5;}
	.st5{fill:#636F89;}
	.st6{fill:#23232A;}
	.st7{fill:#FFFFFF;}
	.st8{fill:#14BBC4;}
	.st9{fill:#8AFFFF;}
	.st10{fill:#231F20;}
	.st11{fill:#1BE0E6;}
	.st12{fill:#262B3E;}
	.st13{fill:#F26D00;}
	.st14{fill:#744729;stroke:#FEFEFE;stroke-miterlimit:10;}
	.st15{fill:#2D1D0D;stroke:#FEFEFE;stroke-miterlimit:10;}
	.st16{fill:#060707;stroke:#FEFEFE;stroke-miterlimit:10;}
	.st17{fill:#FFFFFF;stroke:#FEFEFE;stroke-miterlimit:10;}
	.st18{fill:#4B3938;stroke:#FEFEFE;stroke-miterlimit:10;}
	.st19{fill:#C5875D;stroke:#FEFEFE;stroke-miterlimit:10;}
	.st20{fill:#663399;}
	.st21{fill:#F05A2B;}
	.st22{fill:#020202;}
	.st23{fill:#060707;}
	.st24{fill:#AF8070;}
	.st25{fill:#4B3938;}
	.st26{fill:#563A39;}
	.st27{opacity:0.27;fill:#F05A2B;enable-background:new    ;}
	.st28{fill:none;stroke:#262B3E;stroke-width:0.5;stroke-miterlimit:10;}
	.st29{fill:#6976F4;stroke:#6976F4;stroke-width:0.3;}
	.st30{fill:#6976F4;stroke:#6976F4;}
	.st31{fill:none;stroke:#FFFFFF;stroke-width:2;}
	.st32{fill:none;stroke:#6976F4;stroke-width:2;}
	.st33{fill:url(#Path_1_);}
	.st34{fill:#EFEDED;}
	.st35{fill:#6666FF;}
	.st36{clip-path:url(#Path_7_);}
	.st37{fill:#684FF1;}
	.st38{opacity:0.24;enable-background:new    ;}
	.st39{fill:#C48C62;}
	.st40{fill:#FEFEFE;}
	.st41{opacity:0.1;fill:#262B3E;}
	.st42{fill:#454745;}
	.st43{fill:#75451D;}
	.st44{fill:#684FF1;stroke:#21201F;stroke-width:0.75;}
	.st45{fill:#6466AD;}
	.st46{fill:#C5875D;}
	.st47{clip-path:url(#Path_8_);}
	.st48{fill:#6445FF;}
	.st49{fill:#744729;}
	.st50{fill:#7A5DFF;}
	.st51{fill:#F15A29;}
	.st52{fill:#348FC0;}
	.st53{fill:#51331A;}
	.st54{fill:#895F3D;}
	.st55{fill:#5333FF;}
	.st56{fill:#4C3520;}
	.st57{fill:#2D1D0D;}
	.st58{fill:#2B83FF;}
	.st59{fill:#212127;}
	.st60{fill:#579BFF;}
	.st61{fill:#626372;}
	.st62{fill:none;stroke:#F26D00;stroke-width:2;stroke-miterlimit:10;}
	.st63{opacity:0.4;fill:#F26D00;}
	.st64{fill:#744729;stroke:#FFFFFF;stroke-width:2;stroke-miterlimit:10;}
	.st65{fill:#C5875D;stroke:#FFFFFF;stroke-width:2;stroke-miterlimit:10;}
	.st66{fill:none;stroke:#5333FF;stroke-width:2;stroke-miterlimit:10;}
	.st67{fill:none;stroke:#262B3E;stroke-width:2;stroke-miterlimit:10;}
	.st68{fill:none;stroke:#FFFFFF;stroke-width:0.25;stroke-miterlimit:10;}
	.st69{fill:none;stroke:#262B3E;stroke-width:0.25;stroke-miterlimit:10;}
	.st70{stroke:#000000;}
	.st71{fill:#0063FF;stroke:#0063FF;stroke-miterlimit:10;}
	.st72{fill:#03A678;}
	.st73{fill:none;stroke:#000000;stroke-linecap:round;stroke-miterlimit:10;}
	.st74{fill:none;stroke:#23232A;stroke-width:1.3;stroke-linecap:round;stroke-miterlimit:10;}
	.st75{fill:none;stroke:#23232A;stroke-width:2;stroke-linecap:round;stroke-miterlimit:10;}
	.st76{fill:none;stroke:#FFFFFF;stroke-width:0.75;stroke-linecap:round;stroke-miterlimit:10;}
	.st77{fill:none;stroke:#FFFFFF;stroke-width:0.5;stroke-linecap:round;stroke-miterlimit:10;}
	.st78{fill:none;stroke:#23232A;stroke-width:0.5;stroke-linecap:round;stroke-miterlimit:10;}
	.st79{fill:#7D7E8D;}
	.st80{fill:#383842;}
	.st81{fill:#D1D2D9;}
	.st82{fill:url(#SVGID_1_);}
	.st83{fill:url(#SVGID_2_);}
	.st84{fill:url(#SVGID_3_);}
	.st85{fill:url(#SVGID_4_);}
	.st86{fill:url(#SVGID_5_);}
	.st87{fill:url(#SVGID_6_);}
	.st88{fill:url(#SVGID_7_);}
	.st89{fill:url(#SVGID_8_);}
	.st90{fill:url(#SVGID_9_);}
	.st91{fill:url(#SVGID_10_);}
	.st92{fill:url(#SVGID_11_);}
	.st93{fill:url(#SVGID_12_);}
	.st94{fill:url(#SVGID_13_);}
	.st95{fill:url(#SVGID_14_);}
	.st96{fill:url(#SVGID_15_);}
	.st97{fill:url(#SVGID_16_);}
	.st98{fill:url(#SVGID_17_);}
	.st99{fill:url(#SVGID_18_);}
	.st100{fill:url(#SVGID_19_);}
	.st101{fill:url(#SVGID_20_);}
	.st102{fill:url(#SVGID_21_);}
	.st103{fill:url(#SVGID_22_);}
	.st104{fill:url(#SVGID_23_);}
	.st105{fill:url(#SVGID_24_);}
	.st106{fill:url(#SVGID_25_);}
	.st107{fill:url(#SVGID_26_);}
	.st108{fill:url(#SVGID_27_);}
	.st109{fill:url(#SVGID_28_);}
	.st110{fill:url(#SVGID_29_);}
	.st111{fill:url(#SVGID_30_);}
	.st112{fill:url(#SVGID_31_);}
	.st113{fill:url(#SVGID_32_);}
	.st114{fill:url(#SVGID_33_);}
	.st115{fill:url(#SVGID_34_);}
	.st116{fill:url(#SVGID_35_);}
	.st117{fill:url(#SVGID_36_);}
	.st118{fill:url(#SVGID_37_);}
	.st119{stroke:#000000;stroke-miterlimit:10;}
	.st120{fill:#1BE0E6;stroke:#1BE0E6;stroke-width:0.5;stroke-miterlimit:10;}
	.st121{fill:#1BE0E6;stroke:#FFFFFF;stroke-linecap:round;stroke-linejoin:round;stroke-miterlimit:10;}
	.st122{fill:#1BE0E6;stroke:#23232A;stroke-linecap:round;stroke-linejoin:round;stroke-miterlimit:10;}
	.st123{fill:none;stroke:#23232A;stroke-width:2;stroke-miterlimit:10;}
	.st124{fill:none;stroke:#23232A;stroke-width:4;stroke-miterlimit:10;}
	.st125{fill:none;stroke:#FFFFFF;stroke-width:2;stroke-linecap:round;stroke-miterlimit:10;}
	.st126{fill:none;stroke:#FFFFFF;stroke-width:2;stroke-miterlimit:10;}
	.st127{fill:#FFFFFF;stroke:#FFFFFF;stroke-width:0.3;stroke-miterlimit:10;}
	.st128{fill:#23232A;stroke:#23232A;stroke-width:0.4;stroke-miterlimit:10;}
	.st129{fill:none;stroke:#FFFFFF;stroke-miterlimit:10;}
	.st130{fill:none;stroke:#23232A;stroke-miterlimit:10;}
	.st131{fill:none;stroke:#FFFFFF;stroke-width:0.75;stroke-miterlimit:10;}
	.st132{fill:none;stroke:#000000;stroke-width:0.05;stroke-miterlimit:10;}
	.st133{fill:none;stroke:#000000;stroke-width:3;stroke-miterlimit:10;}
	.st134{fill:none;stroke:#606060;stroke-width:3;stroke-miterlimit:10;}
	.st135{fill:none;stroke:#000000;stroke-miterlimit:10;}
	.st136{fill:#606060;}
	.st137{fill:#382F32;}
	.st138{fill:#544C4F;}
	.st139{fill:none;stroke:#000000;stroke-width:4;stroke-linecap:round;stroke-linejoin:round;stroke-miterlimit:10;}
	.st140{fill:none;stroke:#000000;stroke-width:3;stroke-linecap:round;stroke-linejoin:round;stroke-miterlimit:10;}
	.st141{fill:#BDBDBD;}
	.st142{fill:#6E6E6E;}
	.st143{fill:#4D4E5A;}
	.st144{fill:#B5B5C0;}
	.st145{fill:#E3147C;}
	.st146{fill:none;stroke:#E3147C;}
	.st147{fill:#001959;stroke:#001959;stroke-width:0.25;}
	.st148{fill:#23232A;stroke:#03A678;}
	.st149{fill-rule:evenodd;clip-rule:evenodd;fill:#23232A;}
	.st150{fill:#00ABFF;}
	.st151{fill:#003E31;}
	.st152{fill:#2EC396;}
	.st153{fill:#FFFFFF;stroke:#231F20;stroke-miterlimit:10;}
	.st154{fill:none;stroke:#FFFFFF;stroke-width:0.5;stroke-linecap:round;stroke-linejoin:round;stroke-miterlimit:10;}
	.st155{fill:none;stroke:#FFFFFF;stroke-width:4;stroke-miterlimit:10;}
	.st156{fill:#005183;}
	.st157{fill:none;stroke:#001959;stroke-miterlimit:10;}
</style>
<g>
	<g>
		<path class="st7" d="M3.064842,10.5110588c0,0,0.4942439,0.0775995,0.7431509-0.3645477
			c0,0,0.1298528-0.2456713,0.0682731-0.4649038c0,0-0.0730033-0.1626062-0.2247212-0.0357656
			c0,0-0.0774655,0.0895805-0.2100849,0.0651941C3.313838,9.6875868,3.2279835,9.5892153,3.2279835,9.4419813
			c0,0-0.0008924-0.1119814,0.1246767-0.1955824c0,0,0.1236947-0.1093712-0.0080323-0.2349176
			c0,0-0.0552433-0.0548859-0.195627-0.0479469c0,0-0.3557343-0.0151272-0.5868814,0.2543058
			c0,0-0.2728248,0.2537041-0.173851,0.7107325C2.4873314,10.385601,2.885993,10.504878,3.064842,10.5110588z"/>
		<path class="st7" d="M6.4930978,9.7203684c0.0069389-0.1403837-0.0479474-0.1956272-0.0479474-0.1956272
			C6.3196034,9.393014,6.2102327,9.5167084,6.2102327,9.5167084C6.1266317,9.642189,6.0146503,9.6413851,6.0146503,9.6413851
			c-0.1472335,0-0.245605-0.0859432-0.2690544-0.2134762C5.7212095,9.2952003,5.8107901,9.217824,5.8107901,9.217824
			c0.1268411-0.1517181-0.0357652-0.224721-0.0357652-0.224721C5.5557923,8.9314337,5.3101206,9.0613756,5.3101206,9.0613756
			c-0.4421468,0.2489071-0.3645473,0.743062-0.3645473,0.743062c0.0061803,0.1789379,0.1254573,0.5775995,0.5824857,0.6766624
			c0.4570284,0.0989742,0.7107325-0.173851,0.7107325-0.173851C6.508225,10.0761023,6.4930978,9.7203684,6.4930978,9.7203684z"/>
		<path class="st7" d="M8.623971,0.8770046c0,0-0.3447571-0.7071848-1.1241417-0.8542844
			c-0.3663545-0.0691656-0.738421,0.0192325-1.0142798,0.2700359c-0.2572069,0.2337574-0.5541282,0.657631-0.7315488,1.4213308
			c0,0-0.3221779,1.1864802-0.3653731,2.3175831c0,0-0.0080318,0.2607317-0.0290051,0.655355
			C5.1559634,4.7110991,5.0232549,4.8178148,4.9509654,4.9080648c-0.0776439-0.2579207-0.2536368-0.5020976-0.2622046-0.514235
			L4.512054,4.1507239l0.0794291,0.2898707c0.0899596,0.3284249-0.0315933,0.579206-0.1049533,0.6918344
			C4.3294568,4.8206038,4.327672,4.525557,4.327672,4.5225224l0.0001783-0.1535029L4.2305722,4.4875383
			C4.1025939,4.6433616,4.0410142,4.798471,4.0122766,4.922523c-0.1654618-0.3748331-0.3801875-0.4867477-0.390897-0.4921021
			L3.5066092,4.3725896L3.544271,4.4953918c0.0478358,0.156002,0.002142,0.3494868-0.0358768,0.4662209
			c-0.002588-0.0051317-0.0040162-0.0102634-0.006515-0.0154176c-0.024364-0.406939-0.0368586-0.7195897-0.0413208-0.8481483
			l0.0182061-0.082798L3.4587736,4.0452576C3.4585059,4.0389881,3.4583273,4.0316701,3.4583273,4.0316701
			c-0.043195-1.131103-0.3653729-2.3175831-0.3653729-2.3175831c-0.1774209-0.7636998-0.4743421-1.1875734-0.731549-1.4213308
			C2.0855463,0.0419527,1.71348-0.0464454,1.3471254,0.0227202C0.5677407,0.1698198,0.2229837,0.8770046,0.2229837,0.8770046
			C-0.135071,1.5908829,0.0455627,2.5860198,0.0455627,2.5860198c0.1110219,0.9354534,0.6689875,2.1807911,0.6689875,2.1807911
			C0.9873751,5.44807,1.6107579,6.5496325,1.6107579,6.5496325C1.6848321,6.681047,1.6019226,6.7408419,1.6019226,6.7408419
			c-0.324766,0.3100181-0.5309241,0.6763949-0.5309241,0.6763949C0.6415471,8.12257,0.7563174,9.2777243,0.8064736,9.6431646
			C0.8182541,9.7289076,0.8284281,9.8148508,0.8353,9.9011068l0.1588578,2.017271
			c0.0522981,1.0207281,0.492102,2.0624285,0.6452481,2.3975029c-0.0103525,0.3049536,0.0663098,0.6865015,0.404641,1.0237846
			c0.0142794,0.0164213,0.3616245,0.4044628,1.2681849,0.6220436c0.0055332,0.0008926,0.5513613,0.0935297,1.1112902,0.0935297
			c0.5597506,0,1.1055789-0.0926371,1.1146817-0.094243c0.9029903-0.2168674,1.2501569-0.6049089,1.2619376-0.618475
			c0.3395805-0.3387098,0.4174924-0.7215528,0.4074969-1.0269079c0.1532354-0.3353863,0.5928607-1.3767967,0.6451588-2.3972349
			l0.1588578-2.017271c0.0068722-0.086256,0.017046-0.1721992,0.0288267-0.2579422
			C8.0906372,9.2777243,8.2054081,8.12257,7.7759562,7.4172368c0,0-0.2061582-0.3663769-0.5309238-0.6763949
			c0,0-0.0829096-0.0597949-0.0088353-0.1912093c0,0,0.6233826-1.1015625,0.8962073-1.7828217
			c0,0,0.5579662-1.2453377,0.6689882-2.1807911C8.8013926,2.5860198,8.9820261,1.5908829,8.623971,0.8770046z M3.5694385,5.1110101
			c0.0055332-0.0123158,0.1161983-0.2589917,0.1040606-0.5022759c0.0922804,0.0901384,0.2275772,0.2664886,0.3187866,0.5811696
			L4.099381,5.1679492c-0.0003572-0.0026774-0.0249891-0.2327533,0.1315484-0.491745
			c0.0199909,0.1415439,0.0710397,0.3626952,0.2011604,0.585453l0.0378399,0.0647926l0.0501566-0.0556893
			C4.5306172,5.2589798,4.731956,5.0303321,4.733027,4.6754899c0.0597949,0.1119146,0.1208391,0.2513165,0.1390452,0.3800092
			l0.0278444,0.197412l0.07693-0.1838465c0.0012498-0.0028558,0.1126285-0.2598844,0.4189205-0.2807674
			c-0.0756807,0.117269-0.1715307,0.3398485-0.0708613,0.625257l0.0128517,0.0362334l0.038197,0.0003572
			c0.0003572,0,0.0005355,0,0.0007138,0c0.0123162,0,0.0962071-0.0033913,0.1788492-0.0921016
			c0.1058455-0.1135211,0.1613564-0.3100405,0.165997-0.5861673c0.1090589,0.2739849,0.2313256,0.7250338,0.030344,1.048461
			L5.7307963,5.8549643l0.0265956,0.0305223c0.0107093,0.0123158,0.2325749,0.2766623,0.0646138,0.841589
			c-0.0292726-0.1568942-0.0954928-0.348773-0.2454262-0.4517627L5.4573469,6.1935635l0.0349846,0.1404729
			C5.4932237,6.3377848,5.5699754,6.6656742,5.3099127,7.243988C5.3022375,6.9608998,5.2008543,6.5214529,4.7310634,6.130199
			L4.5552492,5.984014L4.645566,6.1942773c0.002142,0.0046411,0.1824188,0.445159-0.2686305,1.0920134
			c0.0019636-0.216332-0.0328422-0.5768857-0.2491746-0.848372L4.1116967,6.4175706L4.0858154,6.4172139
			C4.0718932,6.4206052,4.0206661,6.4191771,3.9558733,6.4839697C3.8455653,6.5948133,3.7193716,6.8766518,3.7020578,7.5825872
			c-0.0826416-0.275413-0.1726015-0.7093267-0.0956717-1.1359224l0.0267739-0.1481481L3.5174973,6.3947239
			C3.5082157,6.4022202,3.3191929,6.565362,3.3134811,7.0124841C3.1967475,6.8047194,3.043066,6.4423809,3.1664038,6.1330547
			l0.0149934-0.0381975l-0.03195-0.0253458C3.1216023,6.0475569,2.5188353,5.5527778,2.941504,4.3850837
			c0.0071397,0.1777782,0.0344491,0.4276667,0.112093,0.7344942l0.1220884,0.4819279L3.1615846,5.1045847
			c0-0.0032129-0.0055332-0.2673812,0.128871-0.5713525c0.0058904,0.1631413,0.045337,0.3810802,0.1834898,0.5858102
			l0.0547969,0.0810351L3.5694385,5.1110101z M0.8553804,3.5609868c0,0-0.6245431-1.618765-0.242035-2.3737187
			c0,0,0.3315486-0.6971446,0.9908084-0.6583673c0,0,0.0417671-0.0024096,0.1108434,0.0137662
			C1.9223155,0.5911945,2.3756847,0.8070804,2.685993,1.7577058c0,0,0.223918,0.6063145,0.2921913,1.5125848
			c0,0,0.0237393,0.2757921,0.0316823,0.6755471l-0.055511,0.1204598C2.5573895,4.9280562,2.6671622,5.4939647,2.8275371,5.817347
			C2.8065641,5.8870482,2.7846098,5.95608,2.7614057,6.0139337L2.6859038,6.1826754c0,0-0.0843375,0.2083669-0.2473006,0.0530567
			c0,0-0.2768409-0.2526999-0.4331996-0.47577C2.0054035,5.7599621,1.3171388,4.8552985,0.8553804,3.5609868z M1.5084821,9.578104
			C1.4357467,9.3526907,1.4896512,9.167305,1.4896512,9.167305c0.045337-0.1853418,0.1456493-0.3693666,0.1456493-0.3693666
			C1.8141494,8.4625969,2.031374,8.2781696,2.1788082,8.1835251c0.1014726-0.0651274,0.1698351-0.0877295,0.1698351-0.0877295
			C2.6884918,7.9340601,2.9513211,8.078928,2.9513211,8.078928c0.7357435,0.3370152,0.9355652,1.0727367,0.9355652,1.0727367
			c0.0883534,0.2227573,0.1151273,0.5463858,0.1151273,0.5463858c0.0441766,0.4226685-0.1998219,0.7486391-0.1998219,0.7486391
			c-0.1417224,0.1958284-0.5694783,0.1563148-0.5694783,0.1563148c-0.2541723-0.0033026-0.5862565-0.1046638-0.5862565-0.1046638
			c-0.3266401-0.0950022-0.5826867-0.2762384-0.6638112-0.3380184c-0.0176708-0.0134535-0.0270416-0.0212183-0.0270416-0.0212183
			C1.6691247,9.9141817,1.5700618,9.7191572,1.5700618,9.7191572C1.543288,9.671299,1.523297,9.6238651,1.5084821,9.578104z
			 M6.7201767,15.2673759c-0.0032125,0.0037489-0.3423471,0.379117-1.2041059,0.5861673
			c-0.0053549,0.0008926-0.5420799,0.0921021-1.0927272,0.0921021c-0.550112,0-1.087194-0.0912094-1.088979-0.0913877
			c-0.8653286-0.2077646-1.2046416-0.5831327-1.2103534-0.5895586c-0.6434631-0.6415005-0.2796967-1.4329329-0.262383-1.4697027
			c0.3053997-0.7742977,0.6932623-1.1798306,0.700402-1.1873274c0.5618031-0.6924591,1.3077207-0.8663998,1.6606884-0.9101524
			c0.1237841-0.0128736,0.200357-0.0116911,0.2008033-0.0116911c0.0005355,0,0.1243196-0.001339,0.3142352,0.0268402
			c0.3822403,0.0659981,1.040875,0.2711067,1.5502911,0.8985729c0.0037479,0.0039272,0.3916111,0.4094601,0.6970105,1.1837578
			l0.0016065,0.0033913C6.9904137,13.8065987,7.3675671,14.6217709,6.7201767,15.2673759z M7.2116542,8.7979383
			c0,0,0.1003127,0.1840248,0.1456494,0.3693666c0,0,0.0539045,0.1853857-0.0188308,0.410799
			C7.323658,9.6238651,7.3036671,9.671299,7.2768931,9.7191572c0,0-0.0990629,0.1950245-0.3855424,0.4199467
			c0,0-0.0093708,0.0077648-0.0270414,0.0212183c-0.0811248,0.06178-0.3371716,0.2430162-0.6638117,0.3380184
			c0,0-0.3320837,0.1013613-0.5862565,0.1046638c0,0-0.4277554,0.0395136-0.569478-0.1563148
			c0,0-0.2439985-0.3259706-0.1998219-0.7486391c0,0,0.0267739-0.3236284,0.1151276-0.5463858
			c0,0,0.1998215-0.7357216,0.935565-1.0727367c0,0,0.2628293-0.1448679,0.6026778,0.0168676
			c0,0,0.0683622,0.0226021,0.1698351,0.0877295C6.8155808,8.2781696,7.0328054,8.4625969,7.2116542,8.7979383z
			 M7.9915743,3.5609868c-0.4617581,1.2943118-1.150023,2.1989753-1.150023,2.1989753
			c-0.1563587,0.2230701-0.4331999,0.47577-0.4331999,0.47577C6.2453885,6.3910422,6.1610513,6.1826754,6.1610513,6.1826754
			L6.0855489,6.0139337C6.0329833,5.8828092,5.98247,5.6959057,5.9515018,5.5727463
			C5.9913945,5.327476,5.9405246,5.0723,5.8720727,4.8671904C5.8516355,4.5972662,5.8354821,4.3591356,5.8354821,4.3591356
			c-0.0081215-0.6110892,0.0332885-1.088845,0.0332885-1.088845c0.0682731-0.9062703,0.2921915-1.5125848,0.2921915-1.5125848
			c0.310308-0.9506254,0.7636771-1.1665113,0.9709954-1.2150388c0.0690765-0.0161758,0.1108437-0.0137662,0.1108437-0.0137662
			c0.6592598-0.0387774,0.990808,0.6583673,0.990808,0.6583673C8.6161175,1.9422218,7.9915743,3.5609868,7.9915743,3.5609868z"/>
		<path class="st7" d="M3.057256,14.0155458c0,0,0.2846947,0.1960287,0.6436417,0.3513165
			c0,0,0.1544847,0.0857878,0.2229364,0.0547523c0,0,0.07809-0.0241632,0.0833557-0.0959167
			c0,0-0.0025883-0.0373278-0.0269523-0.068943c0,0-0.3077199-0.3836012-0.3888445-0.7231817
			c0,0-0.033735-0.0761938-0.0404284-0.2543507c0,0,0.0058901-0.2823744-0.2185633-0.4175825
			c0,0-0.1319947-0.1002455-0.3357432-0.083869c0,0-0.4149935,0.0280457-0.458724,0.4678726
			c0,0-0.0043731,0.225502,0.1327085,0.4206161C2.8076351,13.8613958,3.057256,14.0155458,3.057256,14.0155458z"/>
		<path class="st7" d="M4.9229422,14.4216146c0.0684519,0.0310354,0.2229366-0.0547523,0.2229366-0.0547523
			c0.3589468-0.1552877,0.6436415-0.3513165,0.6436415-0.3513165s0.2495317-0.15415,0.3866134-0.3492861
			c0.1370816-0.1951141,0.1326194-0.4206161,0.1326194-0.4206161c-0.0436411-0.439827-0.4586349-0.4678726-0.4586349-0.4678726
			c-0.2037482-0.0163765-0.335743,0.083869-0.335743,0.083869c-0.2244534,0.1352081-0.2185636,0.4175825-0.2185636,0.4175825
			c-0.0067825,0.1781569-0.0405173,0.2543507-0.0405173,0.2543507c-0.0810356,0.3395805-0.3887553,0.7231817-0.3887553,0.7231817
			c-0.0244536,0.0316153-0.0269523,0.068943-0.0269523,0.068943C4.8447628,14.3974514,4.9229422,14.4216146,4.9229422,14.4216146z"
			/>
		<path class="st7" d="M2.4633243,14.6687145c0.7500229,1.0578537,1.9208405,1.0143242,1.9568064,1.0127182
			c0.0360556,0.001606,1.2132983,0.0451355,1.9633212-1.0127182c0,0-0.9719772,0.6621599-1.9635892,0.6635437
			C3.4284298,15.3306293,2.4633243,14.6687145,2.4633243,14.6687145z"/>
	</g>
</g>
</svg>
