<?xml version="1.0" encoding="utf-8"?>
<!-- Generator: Adobe Illustrator 23.0.3, SVG Export Plug-In . SVG Version: 6.00 Build 0)  -->
<svg version="1.1" id="Layer_1" xmlns="http://www.w3.org/2000/svg" xmlns:xlink="http://www.w3.org/1999/xlink" x="0px" y="0px"
	 viewBox="0 0 50 9.6496582" style="enable-background:new 0 0 50 9.6496582;" xml:space="preserve">
<style type="text/css">
	.st0{fill:#001959;}
	.st1{fill:#0063FF;}
	.st2{enable-background:new    ;}
	.st3{fill:#9FB2DC;}
	.st4{fill:#8EA0C5;}
	.st5{fill:#636F89;}
	.st6{fill:#23232A;}
	.st7{fill:#FFFFFF;}
	.st8{fill:#14BBC4;}
	.st9{fill:#8AFFFF;}
	.st10{fill:#231F20;}
	.st11{fill:#1BE0E6;}
	.st12{fill:#262B3E;}
	.st13{fill:#F26D00;}
	.st14{fill:#744729;stroke:#FEFEFE;stroke-miterlimit:10;}
	.st15{fill:#2D1D0D;stroke:#FEFEFE;stroke-miterlimit:10;}
	.st16{fill:#060707;stroke:#FEFEFE;stroke-miterlimit:10;}
	.st17{fill:#FFFFFF;stroke:#FEFEFE;stroke-miterlimit:10;}
	.st18{fill:#4B3938;stroke:#FEFEFE;stroke-miterlimit:10;}
	.st19{fill:#C5875D;stroke:#FEFEFE;stroke-miterlimit:10;}
	.st20{fill:#663399;}
	.st21{fill:#F05A2B;}
	.st22{fill:#020202;}
	.st23{fill:#060707;}
	.st24{fill:#AF8070;}
	.st25{fill:#4B3938;}
	.st26{fill:#563A39;}
	.st27{opacity:0.27;fill:#F05A2B;enable-background:new    ;}
	.st28{fill:none;stroke:#262B3E;stroke-width:0.5;stroke-miterlimit:10;}
	.st29{fill:#6976F4;stroke:#6976F4;stroke-width:0.3;}
	.st30{fill:#6976F4;stroke:#6976F4;}
	.st31{fill:none;stroke:#FFFFFF;stroke-width:2;}
	.st32{fill:none;stroke:#6976F4;stroke-width:2;}
	.st33{fill:url(#Path_1_);}
	.st34{fill:#EFEDED;}
	.st35{fill:#6666FF;}
	.st36{clip-path:url(#Path_7_);}
	.st37{fill:#684FF1;}
	.st38{opacity:0.24;enable-background:new    ;}
	.st39{fill:#C48C62;}
	.st40{fill:#FEFEFE;}
	.st41{opacity:0.1;fill:#262B3E;}
	.st42{fill:#454745;}
	.st43{fill:#75451D;}
	.st44{fill:#684FF1;stroke:#21201F;stroke-width:0.75;}
	.st45{fill:#6466AD;}
	.st46{fill:#C5875D;}
	.st47{clip-path:url(#Path_8_);}
	.st48{fill:#6445FF;}
	.st49{fill:#744729;}
	.st50{fill:#7A5DFF;}
	.st51{fill:#F15A29;}
	.st52{fill:#348FC0;}
	.st53{fill:#51331A;}
	.st54{fill:#895F3D;}
	.st55{fill:#5333FF;}
	.st56{fill:#4C3520;}
	.st57{fill:#2D1D0D;}
	.st58{fill:#2B83FF;}
	.st59{fill:#212127;}
	.st60{fill:#579BFF;}
	.st61{fill:#626372;}
	.st62{fill:none;stroke:#F26D00;stroke-width:2;stroke-miterlimit:10;}
	.st63{opacity:0.4;fill:#F26D00;}
	.st64{fill:#744729;stroke:#FFFFFF;stroke-width:2;stroke-miterlimit:10;}
	.st65{fill:#C5875D;stroke:#FFFFFF;stroke-width:2;stroke-miterlimit:10;}
	.st66{fill:none;stroke:#5333FF;stroke-width:2;stroke-miterlimit:10;}
	.st67{fill:none;stroke:#262B3E;stroke-width:2;stroke-miterlimit:10;}
	.st68{fill:none;stroke:#FFFFFF;stroke-width:0.25;stroke-miterlimit:10;}
	.st69{fill:none;stroke:#262B3E;stroke-width:0.25;stroke-miterlimit:10;}
	.st70{stroke:#000000;}
	.st71{fill:#0063FF;stroke:#0063FF;stroke-miterlimit:10;}
	.st72{fill:#03A678;}
	.st73{fill:none;stroke:#000000;stroke-linecap:round;stroke-miterlimit:10;}
	.st74{fill:none;stroke:#23232A;stroke-width:1.3;stroke-linecap:round;stroke-miterlimit:10;}
	.st75{fill:none;stroke:#23232A;stroke-width:2;stroke-linecap:round;stroke-miterlimit:10;}
	.st76{fill:none;stroke:#FFFFFF;stroke-width:0.75;stroke-linecap:round;stroke-miterlimit:10;}
	.st77{fill:none;stroke:#FFFFFF;stroke-width:0.5;stroke-linecap:round;stroke-miterlimit:10;}
	.st78{fill:none;stroke:#23232A;stroke-width:0.5;stroke-linecap:round;stroke-miterlimit:10;}
	.st79{fill:#7D7E8D;}
	.st80{fill:#383842;}
	.st81{fill:#D1D2D9;}
	.st82{fill:url(#SVGID_1_);}
	.st83{fill:url(#SVGID_2_);}
	.st84{fill:url(#SVGID_3_);}
	.st85{fill:url(#SVGID_4_);}
	.st86{fill:url(#SVGID_5_);}
	.st87{fill:url(#SVGID_6_);}
	.st88{fill:url(#SVGID_7_);}
	.st89{fill:url(#SVGID_8_);}
	.st90{fill:url(#SVGID_9_);}
	.st91{fill:url(#SVGID_10_);}
	.st92{fill:url(#SVGID_11_);}
	.st93{fill:url(#SVGID_12_);}
	.st94{fill:url(#SVGID_13_);}
	.st95{fill:url(#SVGID_14_);}
	.st96{fill:url(#SVGID_15_);}
	.st97{fill:url(#SVGID_16_);}
	.st98{fill:url(#SVGID_17_);}
	.st99{fill:url(#SVGID_18_);}
	.st100{fill:url(#SVGID_19_);}
	.st101{fill:url(#SVGID_20_);}
	.st102{fill:url(#SVGID_21_);}
	.st103{fill:url(#SVGID_22_);}
	.st104{fill:url(#SVGID_23_);}
	.st105{fill:url(#SVGID_24_);}
	.st106{fill:url(#SVGID_25_);}
	.st107{fill:url(#SVGID_26_);}
	.st108{fill:url(#SVGID_27_);}
	.st109{fill:url(#SVGID_28_);}
	.st110{fill:url(#SVGID_29_);}
	.st111{fill:url(#SVGID_30_);}
	.st112{fill:url(#SVGID_31_);}
	.st113{fill:url(#SVGID_32_);}
	.st114{fill:url(#SVGID_33_);}
	.st115{fill:url(#SVGID_34_);}
	.st116{fill:url(#SVGID_35_);}
	.st117{fill:url(#SVGID_36_);}
	.st118{fill:url(#SVGID_37_);}
	.st119{stroke:#000000;stroke-miterlimit:10;}
	.st120{fill:#1BE0E6;stroke:#1BE0E6;stroke-width:0.5;stroke-miterlimit:10;}
	.st121{fill:#1BE0E6;stroke:#FFFFFF;stroke-linecap:round;stroke-linejoin:round;stroke-miterlimit:10;}
	.st122{fill:#1BE0E6;stroke:#23232A;stroke-linecap:round;stroke-linejoin:round;stroke-miterlimit:10;}
	.st123{fill:none;stroke:#23232A;stroke-width:2;stroke-miterlimit:10;}
	.st124{fill:none;stroke:#23232A;stroke-width:4;stroke-miterlimit:10;}
	.st125{fill:none;stroke:#FFFFFF;stroke-width:2;stroke-linecap:round;stroke-miterlimit:10;}
	.st126{fill:none;stroke:#FFFFFF;stroke-width:2;stroke-miterlimit:10;}
	.st127{fill:#FFFFFF;stroke:#FFFFFF;stroke-width:0.3;stroke-miterlimit:10;}
	.st128{fill:#23232A;stroke:#23232A;stroke-width:0.4;stroke-miterlimit:10;}
	.st129{fill:none;stroke:#FFFFFF;stroke-miterlimit:10;}
	.st130{fill:none;stroke:#23232A;stroke-miterlimit:10;}
	.st131{fill:none;stroke:#FFFFFF;stroke-width:0.75;stroke-miterlimit:10;}
	.st132{fill:none;stroke:#000000;stroke-width:0.05;stroke-miterlimit:10;}
	.st133{fill:none;stroke:#000000;stroke-width:3;stroke-miterlimit:10;}
	.st134{fill:none;stroke:#606060;stroke-width:3;stroke-miterlimit:10;}
	.st135{fill:none;stroke:#000000;stroke-miterlimit:10;}
	.st136{fill:#606060;}
	.st137{fill:#382F32;}
	.st138{fill:#544C4F;}
	.st139{fill:none;stroke:#000000;stroke-width:4;stroke-linecap:round;stroke-linejoin:round;stroke-miterlimit:10;}
	.st140{fill:none;stroke:#000000;stroke-width:3;stroke-linecap:round;stroke-linejoin:round;stroke-miterlimit:10;}
	.st141{fill:#BDBDBD;}
	.st142{fill:#6E6E6E;}
	.st143{fill:#4D4E5A;}
	.st144{fill:#B5B5C0;}
	.st145{fill:#E3147C;}
	.st146{fill:none;stroke:#E3147C;}
	.st147{fill:#001959;stroke:#001959;stroke-width:0.25;}
	.st148{fill:#23232A;stroke:#03A678;}
	.st149{fill-rule:evenodd;clip-rule:evenodd;fill:#23232A;}
	.st150{fill:#00ABFF;}
	.st151{fill:#003E31;}
	.st152{fill:#2EC396;}
	.st153{fill:#FFFFFF;stroke:#231F20;stroke-miterlimit:10;}
	.st154{fill:none;stroke:#FFFFFF;stroke-width:0.5;stroke-linecap:round;stroke-linejoin:round;stroke-miterlimit:10;}
	.st155{fill:none;stroke:#FFFFFF;stroke-width:4;stroke-miterlimit:10;}
	.st156{fill:#005183;}
	.st157{fill:none;stroke:#001959;stroke-miterlimit:10;}
</style>
<g>
	<path class="st7" d="M6.0553603,0.0065918H3.688478H3.6819472H1.6682143c0,0-1.6699829-0.0756836-1.6682129,1.6367188v4.3842773
		c0,0,0.0250854,1.4941406,1.6945801,1.4881592l2.4351807,0.0008545l0.0002441-0.0008545h1.8990479
		c1.6694336,0.0059814,1.694519-1.3572998,1.694519-1.3572998V1.6433105
		C7.7253432-0.0690918,6.0553603,0.0065918,6.0553603,0.0065918z M6.7144179,1.9821777v3.7214355
		c0,0.9296875-0.835083,0.8540039-0.835083,0.8540039H4.1637588C4.1579604,6.5577393,4.1530166,6.5598145,4.1474013,6.5606689
		C4.1413589,6.5594482,4.1348891,6.5577393,4.1297622,6.5576172H1.8442397c0,0-0.835083,0.0756836-0.835083-0.8540039V1.9821777
		c0,0-0.1173096-1.0240479,1.0598145-1.0240479h1.6129761H3.688478h1.9661255
		C6.8317885,0.9581299,6.7144179,1.9821777,6.7144179,1.9821777z"/>
	<path class="st7" d="M12.50348,1.9869385H8.4945688c-0.0689087,0-0.1247559,0.0557861-0.1247559,0.1246338v7.4133301
		c0,0.0689697,0.0558472,0.1247559,0.1247559,0.1247559H9.22754c0.0688477,0,0.1246948-0.0557861,0.1246948-0.1247559V7.5157471
		h3.3596802c1.2964478,0,1.296814-1.3275146,1.296814-1.3275146s0-1.2868652,0-2.7116699
		C14.008729,2.0518799,12.50348,1.9869385,12.50348,1.9869385z M13.0290537,5.7741699
		c0,0.8450928-0.8271484,0.7834473-0.8271484,0.7834473h-1.6756592H9.3522348V3.0690918
		c0-0.0688477,0.0558472-0.1247559,0.1247559-0.1247559h2.6849365c0.8939819,0,0.8671265,0.6789551,0.8671265,0.6789551
		S13.0290537,4.8511963,13.0290537,5.7741699z"/>
	<path class="st7" d="M18.73456,1.9863281h-2.6178589c-1.4411631,0-1.4821177,1.4145508-1.4821177,1.4145508V6.215332
		c0,1.3391113,1.1627197,1.2998047,1.1627197,1.2998047h3.8383188c0.0689087,0,0.1247559-0.0559082,0.1247559-0.1247559V6.682373
		c0-0.0688477-0.0558472-0.1247559-0.1247559-0.1247559h-3.2265015c-0.8623667,0-0.8129282-0.7165527-0.8129282-0.7165527V5.2567139
		h4.5466928c0.0689087,0,0.1247559-0.0557861,0.1247559-0.1246338v-1.751709
		C20.2676411,1.9458008,18.73456,1.9863281,18.73456,1.9863281z M19.3009052,4.1697998
		c0,0.0689697-0.0407104,0.1248779-0.1247559,0.1248779h-3.579957V3.831543c0-0.979248,0.7241831-0.887207,0.7241831-0.887207
		h2.2095947c0.7740479,0,0.7709351,0.6789551,0.7709351,0.6789551V4.1697998z"/>
	<path class="st7" d="M25.1259785,1.9869385h-2.758728c0,0-1.473877-0.0321045-1.473877,1.5931396v3.8103027
		c0,0.0689697,0.0558472,0.1247559,0.1247559,0.1247559h0.725708c0.0689087,0,0.1247559-0.0557861,0.1247559-0.1247559V3.7261963
		c0,0-0.0289917-0.7818604,0.868042-0.7818604h2.0990601c0,0,0.8079834-0.0734863,0.8079834,0.8193359v3.626709
		c0,0.0688477,0.0558472,0.1247559,0.1246948,0.1247559h0.7229004c0.0688477,0,0.1246948-0.0559082,0.1246948-0.1247559V3.361084
		C26.6159687,3.361084,26.5338154,1.9869385,25.1259785,1.9869385z"/>
	<path class="st7" d="M34.2877808,0h-5.2408428c-1.8511353,0-1.8106689,1.5750732-1.8106689,1.5750732s0,2.696167,0,4.3572998
		c0,1.661377,1.6872559,1.5827637,1.6872559,1.5827637h5.3642559c0.0689087,0,0.1247559-0.0557861,0.1247559-0.1247559V6.6853027
		c0-0.0701904-0.0574341-0.1276855-0.1276855-0.1276855h-4.7727642C28.1519184,6.649292,28.251955,5.6484375,28.251955,5.6484375
		V4.0787354h5.0660381c0.0370483,0,0.0671387-0.0301514,0.0671387-0.0672607V3.2518311
		c0-0.0369873-0.0300903-0.0671387-0.0671387-0.0671387H28.251955V2.0473633c0-1.2270508,0.9753418-1.0891113,0.9753418-1.0891113
		h5.0604839c0.0689087,0,0.1247559-0.0559082,0.1247559-0.1247559V0.1247559C34.4125366,0.0559082,34.3566895,0,34.2877808,0z"/>
	<path class="st7" d="M48.5135498,3.1846924h-3.774353c-0.84729,0-0.8336792-0.7713623-0.8336792-0.7713623V1.8210449
		c0-0.93396,0.8220825-0.862793,0.8220825-0.862793h4.7347412c0.0692139,0,0.1253662-0.0561523,0.1253662-0.1254883V0.1254883
		C49.5877075,0.0561523,49.5315552,0,49.4623413,0h-5.0947266c-1.6486206,0-1.4777832,1.4378662-1.4777832,1.4378662v1.3122559
		c0,1.4066162,1.4661255,1.3286133,1.4661255,1.3286133h3.6697998c1.1032715,0,0.9755249,0.8895264,0.9755249,0.8895264v0.6154785
		c0,1.1264648-0.859375,0.973877-0.859375,0.973877h-5.2520752v0.9581299h5.6469116C49.9651489,7.5157471,50,6.0947266,50,6.0947266
		V4.5501709C50,3.1682129,48.5135498,3.1846924,48.5135498,3.1846924z"/>
	<path class="st7" d="M40.868042,0h-4.8251953h-1.0152588v7.2116699c0,0.1677246,0.1358643,0.3034668,0.3034668,0.3034668h0.5968628
		v0.0048828l4.9401245-0.0192871c1.47052,0,1.4241333-1.3615723,1.4241333-1.3615723V4.505127
		c0-0.8305664-0.6994629-0.8734131-0.6994629-0.8734131c0.7663574-0.1976318,0.6994629-0.8829346,0.6994629-0.8829346
		l0.019165-1.3752441C42.3113403,0.0258789,40.868042,0,40.868042,0z M41.2580566,5.8666992
		c0,0.6948242-0.6487427,0.690918-0.6487427,0.690918h-4.5664673V4.0787354h4.5528564
		c0.6812134,0,0.6623535,0.5898438,0.6623535,0.5898438V5.8666992z M41.2580566,2.5853271
		c0,0.5037842-0.6487427,0.5855713-0.6487427,0.5855713h-4.5664673V0.9377441h4.5392456
		c0.6127319,0,0.6759644,0.5855713,0.6759644,0.5855713V2.5853271z"/>
</g>
</svg>
