<?xml version="1.0" encoding="utf-8"?>
<!-- Generator: Adobe Illustrator 23.0.3, SVG Export Plug-In . SVG Version: 6.00 Build 0)  -->
<svg version="1.1" id="Layer_1" xmlns="http://www.w3.org/2000/svg" xmlns:xlink="http://www.w3.org/1999/xlink" x="0px" y="0px"
	 viewBox="0 0 26.9513893 24.0302219" style="enable-background:new 0 0 26.9513893 24.0302219;" xml:space="preserve">
<style type="text/css">
	.st0{fill:#001959;}
	.st1{fill:#0063FF;}
	.st2{enable-background:new    ;}
	.st3{fill:#9FB2DC;}
	.st4{fill:#8EA0C5;}
	.st5{fill:#636F89;}
	.st6{fill:#23232A;}
	.st7{fill:#FFFFFF;}
	.st8{fill:#14BBC4;}
	.st9{fill:#8AFFFF;}
	.st10{fill:#231F20;}
	.st11{fill:#1BE0E6;}
	.st12{fill:#262B3E;}
	.st13{fill:#F26D00;}
	.st14{fill:#744729;stroke:#FEFEFE;stroke-miterlimit:10;}
	.st15{fill:#2D1D0D;stroke:#FEFEFE;stroke-miterlimit:10;}
	.st16{fill:#060707;stroke:#FEFEFE;stroke-miterlimit:10;}
	.st17{fill:#FFFFFF;stroke:#FEFEFE;stroke-miterlimit:10;}
	.st18{fill:#4B3938;stroke:#FEFEFE;stroke-miterlimit:10;}
	.st19{fill:#C5875D;stroke:#FEFEFE;stroke-miterlimit:10;}
	.st20{fill:#663399;}
	.st21{fill:#F05A2B;}
	.st22{fill:#020202;}
	.st23{fill:#060707;}
	.st24{fill:#AF8070;}
	.st25{fill:#4B3938;}
	.st26{fill:#563A39;}
	.st27{opacity:0.27;fill:#F05A2B;enable-background:new    ;}
	.st28{fill:none;stroke:#262B3E;stroke-width:0.5;stroke-miterlimit:10;}
	.st29{fill:#6976F4;stroke:#6976F4;stroke-width:0.3;}
	.st30{fill:#6976F4;stroke:#6976F4;}
	.st31{fill:none;stroke:#FFFFFF;stroke-width:2;}
	.st32{fill:none;stroke:#6976F4;stroke-width:2;}
	.st33{fill:url(#Path_1_);}
	.st34{fill:#EFEDED;}
	.st35{fill:#6666FF;}
	.st36{clip-path:url(#Path_7_);}
	.st37{fill:#684FF1;}
	.st38{opacity:0.24;enable-background:new    ;}
	.st39{fill:#C48C62;}
	.st40{fill:#FEFEFE;}
	.st41{opacity:0.1;fill:#262B3E;}
	.st42{fill:#454745;}
	.st43{fill:#75451D;}
	.st44{fill:#684FF1;stroke:#21201F;stroke-width:0.75;}
	.st45{fill:#6466AD;}
	.st46{fill:#C5875D;}
	.st47{clip-path:url(#Path_8_);}
	.st48{fill:#6445FF;}
	.st49{fill:#744729;}
	.st50{fill:#7A5DFF;}
	.st51{fill:#F15A29;}
	.st52{fill:#348FC0;}
	.st53{fill:#51331A;}
	.st54{fill:#895F3D;}
	.st55{fill:#5333FF;}
	.st56{fill:#4C3520;}
	.st57{fill:#2D1D0D;}
	.st58{fill:#2B83FF;}
	.st59{fill:#212127;}
	.st60{fill:#579BFF;}
	.st61{fill:#626372;}
	.st62{fill:none;stroke:#F26D00;stroke-width:2;stroke-miterlimit:10;}
	.st63{opacity:0.4;fill:#F26D00;}
	.st64{fill:#744729;stroke:#FFFFFF;stroke-width:2;stroke-miterlimit:10;}
	.st65{fill:#C5875D;stroke:#FFFFFF;stroke-width:2;stroke-miterlimit:10;}
	.st66{fill:none;stroke:#5333FF;stroke-width:2;stroke-miterlimit:10;}
	.st67{fill:none;stroke:#262B3E;stroke-width:2;stroke-miterlimit:10;}
	.st68{fill:none;stroke:#FFFFFF;stroke-width:0.25;stroke-miterlimit:10;}
	.st69{fill:none;stroke:#262B3E;stroke-width:0.25;stroke-miterlimit:10;}
	.st70{stroke:#000000;}
	.st71{fill:#0063FF;stroke:#0063FF;stroke-miterlimit:10;}
	.st72{fill:#03A678;}
	.st73{fill:none;stroke:#000000;stroke-linecap:round;stroke-miterlimit:10;}
	.st74{fill:none;stroke:#23232A;stroke-width:1.3;stroke-linecap:round;stroke-miterlimit:10;}
	.st75{fill:none;stroke:#23232A;stroke-width:2;stroke-linecap:round;stroke-miterlimit:10;}
	.st76{fill:none;stroke:#FFFFFF;stroke-width:0.75;stroke-linecap:round;stroke-miterlimit:10;}
	.st77{fill:none;stroke:#FFFFFF;stroke-width:0.5;stroke-linecap:round;stroke-miterlimit:10;}
	.st78{fill:none;stroke:#23232A;stroke-width:0.5;stroke-linecap:round;stroke-miterlimit:10;}
	.st79{fill:#7D7E8D;}
	.st80{fill:#383842;}
	.st81{fill:#D1D2D9;}
	.st82{fill:url(#SVGID_1_);}
	.st83{fill:url(#SVGID_2_);}
	.st84{fill:url(#SVGID_3_);}
	.st85{fill:url(#SVGID_4_);}
	.st86{fill:url(#SVGID_5_);}
	.st87{fill:url(#SVGID_6_);}
	.st88{fill:url(#SVGID_7_);}
	.st89{fill:url(#SVGID_8_);}
	.st90{fill:url(#SVGID_9_);}
	.st91{fill:url(#SVGID_10_);}
	.st92{fill:url(#SVGID_11_);}
	.st93{fill:url(#SVGID_12_);}
	.st94{fill:url(#SVGID_13_);}
	.st95{fill:url(#SVGID_14_);}
	.st96{fill:url(#SVGID_15_);}
	.st97{fill:url(#SVGID_16_);}
	.st98{fill:url(#SVGID_17_);}
	.st99{fill:url(#SVGID_18_);}
	.st100{fill:url(#SVGID_19_);}
	.st101{fill:url(#SVGID_20_);}
	.st102{fill:url(#SVGID_21_);}
	.st103{fill:url(#SVGID_22_);}
	.st104{fill:url(#SVGID_23_);}
	.st105{fill:url(#SVGID_24_);}
	.st106{fill:url(#SVGID_25_);}
	.st107{fill:url(#SVGID_26_);}
	.st108{fill:url(#SVGID_27_);}
	.st109{fill:url(#SVGID_28_);}
	.st110{fill:url(#SVGID_29_);}
	.st111{fill:url(#SVGID_30_);}
	.st112{fill:url(#SVGID_31_);}
	.st113{fill:url(#SVGID_32_);}
	.st114{fill:url(#SVGID_33_);}
	.st115{fill:url(#SVGID_34_);}
	.st116{fill:url(#SVGID_35_);}
	.st117{fill:url(#SVGID_36_);}
	.st118{fill:url(#SVGID_37_);}
	.st119{stroke:#000000;stroke-miterlimit:10;}
	.st120{fill:#1BE0E6;stroke:#1BE0E6;stroke-width:0.5;stroke-miterlimit:10;}
	.st121{fill:#1BE0E6;stroke:#FFFFFF;stroke-linecap:round;stroke-linejoin:round;stroke-miterlimit:10;}
	.st122{fill:#1BE0E6;stroke:#23232A;stroke-linecap:round;stroke-linejoin:round;stroke-miterlimit:10;}
	.st123{fill:none;stroke:#23232A;stroke-width:2;stroke-miterlimit:10;}
	.st124{fill:none;stroke:#23232A;stroke-width:4;stroke-miterlimit:10;}
	.st125{fill:none;stroke:#FFFFFF;stroke-width:2;stroke-linecap:round;stroke-miterlimit:10;}
	.st126{fill:none;stroke:#FFFFFF;stroke-width:2;stroke-miterlimit:10;}
	.st127{fill:#FFFFFF;stroke:#FFFFFF;stroke-width:0.3;stroke-miterlimit:10;}
	.st128{fill:#23232A;stroke:#23232A;stroke-width:0.4;stroke-miterlimit:10;}
	.st129{fill:none;stroke:#FFFFFF;stroke-miterlimit:10;}
	.st130{fill:none;stroke:#23232A;stroke-miterlimit:10;}
	.st131{fill:none;stroke:#FFFFFF;stroke-width:0.75;stroke-miterlimit:10;}
	.st132{fill:none;stroke:#000000;stroke-width:0.05;stroke-miterlimit:10;}
	.st133{fill:none;stroke:#000000;stroke-width:3;stroke-miterlimit:10;}
	.st134{fill:none;stroke:#606060;stroke-width:3;stroke-miterlimit:10;}
	.st135{fill:none;stroke:#000000;stroke-miterlimit:10;}
	.st136{fill:#606060;}
	.st137{fill:#382F32;}
	.st138{fill:#544C4F;}
	.st139{fill:none;stroke:#000000;stroke-width:4;stroke-linecap:round;stroke-linejoin:round;stroke-miterlimit:10;}
	.st140{fill:none;stroke:#000000;stroke-width:3;stroke-linecap:round;stroke-linejoin:round;stroke-miterlimit:10;}
	.st141{fill:#BDBDBD;}
	.st142{fill:#6E6E6E;}
	.st143{fill:#4D4E5A;}
	.st144{fill:#B5B5C0;}
	.st145{fill:#E3147C;}
	.st146{fill:none;stroke:#E3147C;}
	.st147{fill:#001959;stroke:#001959;stroke-width:0.25;}
	.st148{fill:#23232A;stroke:#03A678;}
	.st149{fill-rule:evenodd;clip-rule:evenodd;fill:#23232A;}
	.st150{fill:#00ABFF;}
	.st151{fill:#003E31;}
	.st152{fill:#2EC396;}
	.st153{fill:#FFFFFF;stroke:#231F20;stroke-miterlimit:10;}
	.st154{fill:none;stroke:#FFFFFF;stroke-width:0.5;stroke-linecap:round;stroke-linejoin:round;stroke-miterlimit:10;}
	.st155{fill:none;stroke:#FFFFFF;stroke-width:4;stroke-miterlimit:10;}
	.st156{fill:#005183;}
	.st157{fill:none;stroke:#001959;stroke-miterlimit:10;}
</style>
<g>
	<g>
		<path class="st7" d="M12.1170597,10.5110588c0,0,0.4942436,0.0775995,0.7431507-0.3645477
			c0,0,0.1298523-0.2456713,0.0682726-0.4649038c0,0-0.0730028-0.1626062-0.224721-0.0357656
			c0,0-0.0774651,0.0895805-0.2100849,0.0651941c-0.1276217-0.0234489-0.2134762-0.1218204-0.2134762-0.2690544
			c0,0-0.0008926-0.1119814,0.1246767-0.1955824c0,0,0.1236944-0.1093712-0.0080318-0.2349176
			c0,0-0.0552435-0.0548859-0.1956272-0.0479469c0,0-0.3557348-0.0151272-0.5868816,0.2543058
			c0,0-0.2728252,0.2537041-0.173851,0.7107325C11.5395489,10.385601,11.9382105,10.504878,12.1170597,10.5110588z"/>
		<path class="st7" d="M15.5453148,9.7203684c0.0069389-0.1403837-0.0479469-0.1956272-0.0479469-0.1956272
			c-0.1255465-0.1317272-0.2349176-0.0080328-0.2349176-0.0080328c-0.083601,0.1254807-0.1955824,0.1246767-0.1955824,0.1246767
			c-0.147234,0-0.2456045-0.0859432-0.2690544-0.2134762C14.773427,9.2952003,14.8630075,9.217824,14.8630075,9.217824
			c0.1268406-0.1517181-0.0357656-0.224721-0.0357656-0.224721c-0.2192326-0.0616693-0.4649038,0.0682726-0.4649038,0.0682726
			c-0.4421473,0.2489071-0.3645477,0.743062-0.3645477,0.743062c0.0061808,0.1789379,0.1254578,0.5775995,0.5824862,0.6766624
			c0.4570284,0.0989742,0.7107325-0.173851,0.7107325-0.173851C15.560442,10.0761023,15.5453148,9.7203684,15.5453148,9.7203684z"/>
		<path class="st7" d="M17.6761894,0.8770046c0,0-0.3447571-0.7071848-1.1241417-0.8542844
			c-0.3663559-0.0691656-0.7384214,0.0192325-1.0142813,0.2700359c-0.2572069,0.2337574-0.5541277,0.657631-0.7315483,1.4213308
			c0,0-0.3221779,1.1864802-0.3653736,2.3175831c0,0-0.0080318,0.2607317-0.0290041,0.655355
			c-0.20366,0.0240741-0.3363686,0.1307898-0.4086571,0.2210398c-0.0776443-0.2579207-0.2536373-0.5020976-0.2622051-0.514235
			L13.564271,4.1507239l0.0794296,0.2898707c0.0899591,0.3284249-0.0315933,0.579206-0.1049538,0.6918344
			c-0.157073-0.3118253-0.1588573-0.6068721-0.1588573-0.6099067l0.0001783-0.1535029l-0.0972776,0.1185188
			c-0.1279793,0.1558232-0.189559,0.3109326-0.2182961,0.4349847c-0.1654615-0.3748331-0.380188-0.4867477-0.3908968-0.4921021
			l-0.1147709-0.0578313l0.0376625,0.1228023c0.0478354,0.156002,0.002141,0.3494868-0.0358772,0.4662209
			c-0.0025883-0.0051317-0.0040159-0.0102634-0.0065155-0.0154176c-0.0243635-0.406939-0.0368586-0.7195897-0.0413208-0.8481483
			l0.0182066-0.082798l-0.0199909,0.0300088c-0.000268-0.0062695-0.0004463-0.0135875-0.0004463-0.0135875
			c-0.0431948-1.131103-0.3653727-2.3175831-0.3653727-2.3175831c-0.1774216-0.7636998-0.4743423-1.1875734-0.7315493-1.4213308
			c-0.2758589-0.2508034-0.6479254-0.3392015-1.0142803-0.2700359C9.6199579,0.1698198,9.2752008,0.8770046,9.2752008,0.8770046
			C8.9171467,1.5908829,9.0977802,2.5860198,9.0977802,2.5860198c0.111022,0.9354534,0.6689873,2.1807911,0.6689873,2.1807911
			c0.2728252,0.6812592,0.8962078,1.7828217,0.8962078,1.7828217c0.0740738,0.1314144-0.0088358,0.1912093-0.0088358,0.1912093
			c-0.3247652,0.3100181-0.5309238,0.6763949-0.5309238,0.6763949C9.6937647,8.12257,9.8085346,9.2777243,9.8586912,9.6431646
			C9.870471,9.7289076,9.8806458,9.8148508,9.887517,9.9011068l0.1588583,2.017271
			c0.0522976,1.0207281,0.4921017,2.0624285,0.6452484,2.3975029c-0.0103531,0.3049536,0.066309,0.6865015,0.4046402,1.0237846
			c0.0142794,0.0164213,0.3616247,0.4044628,1.2681856,0.6220436c0.0055332,0.0008926,0.5513611,0.0935297,1.11129,0.0935297
			c0.5597506,0,1.1055784-0.0926371,1.1146812-0.094243c0.9029903-0.2168674,1.2501574-0.6049089,1.2619381-0.618475
			c0.3395815-0.3387098,0.4174929-0.7215528,0.4074965-1.0269079c0.1532364-0.3353863,0.5928612-1.3767967,0.6451588-2.3972349
			l0.1588573-2.017271c0.0068722-0.086256,0.017046-0.1721992,0.0288277-0.2579422
			c0.0501556-0.3654404,0.1649265-1.5205946-0.2645245-2.2259278c0,0-0.2061596-0.3663769-0.5309258-0.6763949
			c0,0-0.0829086-0.0597949-0.0088348-0.1912093c0,0,0.6233826-1.1015625,0.8962078-1.7828217
			c0,0,0.5579662-1.2453377,0.6689873-2.1807911C17.8536091,2.5860198,18.0342426,1.5908829,17.6761894,0.8770046z
			 M12.6216555,5.1110101c0.0055332-0.0123158,0.1161985-0.2589917,0.1040611-0.5022759
			c0.0922804,0.0901384,0.2275772,0.2664886,0.3187866,0.5811696l0.1070948-0.0219545
			c-0.0003567-0.0026774-0.0249882-0.2327533,0.1315489-0.491745c0.0199909,0.1415439,0.0710392,0.3626952,0.2011604,0.585453
			l0.0378399,0.0647926l0.0501566-0.0556893c0.0105305-0.0117807,0.2118692-0.2404284,0.2129402-0.5952706
			c0.0597954,0.1119146,0.1208391,0.2513165,0.1390457,0.3800092l0.0278444,0.197412l0.07693-0.1838465
			c0.0012493-0.0028558,0.112628-0.2598844,0.4189205-0.2807674c-0.0756807,0.117269-0.1715307,0.3398485-0.0708609,0.625257
			l0.0128508,0.0362334l0.0381975,0.0003572c0.0003567,0,0.000535,0,0.0007143,0
			c0.0123158,0,0.0962067-0.0033913,0.1788483-0.0921016c0.1058455-0.1135211,0.1613569-0.3100405,0.1659975-0.5861673
			c0.1090584,0.2739849,0.2313251,0.7250338,0.030344,1.048461l-0.0210619,0.0346274l0.0265951,0.0305223
			c0.0107088,0.0123158,0.2325745,0.2766623,0.0646143,0.841589c-0.029273-0.1568942-0.0954933-0.348773-0.2454271-0.4517627
			l-0.1192322-0.0817494l0.0349846,0.1404729c0.0008926,0.0037484,0.0776434,0.3316379-0.1824188,0.9099517
			c-0.0076752-0.2830882-0.1090584-0.7225351-0.5788488-1.1137891L13.6074667,5.984014l0.0903168,0.2102633
			c0.002142,0.0046411,0.1824188,0.445159-0.26863,1.0920134c0.0019627-0.216332-0.0328426-0.5768857-0.2491751-0.848372
			l-0.0160646-0.0203481l-0.0258808-0.0003567c-0.0139227,0.0033913-0.0651493,0.0019631-0.1299419,0.0667558
			c-0.1103086,0.1108437-0.2365017,0.3926821-0.2538157,1.0986176c-0.0826416-0.275413-0.1726017-0.7093267-0.0956717-1.1359224
			l0.0267735-0.1481481l-0.1156626,0.0962071c-0.0092812,0.0074964-0.1983042,0.1706381-0.2040157,0.6177602
			c-0.1167336-0.2077646-0.2704153-0.5701032-0.1470776-0.8794293l0.0149937-0.0381975l-0.03195-0.0253458
			c-0.0278454-0.0219545-0.6306124-0.5167336-0.2079439-1.6844277c0.0071402,0.1777782,0.0344496,0.4276667,0.112093,0.7344942
			l0.1220884,0.4819279l-0.0141001-0.4969211c0-0.0032129-0.0055332-0.2673812,0.128871-0.5713525
			c0.0058899,0.1631413,0.0453367,0.3810802,0.1834898,0.5858102l0.0547962,0.0810351L12.6216555,5.1110101z M9.9075975,3.5609868
			c0,0-0.6245432-1.618765-0.2420349-2.3737187c0,0,0.3315487-0.6971446,0.9908085-0.6583673
			c0,0,0.0417671-0.0024096,0.1108437,0.0137662c0.2073183,0.0485275,0.6606874,0.2644134,0.9709959,1.2150388
			c0,0,0.223918,0.6063145,0.2921906,1.5125848c0,0,0.0237398,0.2757921,0.031683,0.6755471l-0.0555115,0.1204598
			c-0.396966,0.8617587-0.2871933,1.4276671-0.1268187,1.7510495c-0.0209723,0.0697012-0.0429268,0.1387329-0.0661306,0.1965866
			L11.738121,6.1826754c0,0-0.0843372,0.2083669-0.2473001,0.0530567c0,0-0.2768412-0.2526999-0.4331999-0.47577
			C11.057621,5.7599621,10.3693562,4.8552985,9.9075975,3.5609868z M10.5606995,9.578104
			c-0.0727358-0.2254133-0.0188313-0.410799-0.0188313-0.410799c0.0453377-0.1853418,0.1456499-0.3693666,0.1456499-0.3693666
			c0.1788483-0.3353415,0.3960733-0.5197687,0.5435076-0.6144133c0.1014729-0.0651274,0.1698351-0.0877295,0.1698351-0.0877295
			c0.3398485-0.1617355,0.6026773-0.0168676,0.6026773-0.0168676c0.7357435,0.3370152,0.9355659,1.0727367,0.9355659,1.0727367
			c0.0883532,0.2227573,0.1151266,0.5463858,0.1151266,0.5463858c0.0441771,0.4226685-0.1998215,0.7486391-0.1998215,0.7486391
			c-0.1417227,0.1958284-0.569478,0.1563148-0.569478,0.1563148c-0.2541723-0.0033026-0.586257-0.1046638-0.586257-0.1046638
			c-0.3266401-0.0950022-0.5826864-0.2762384-0.6638107-0.3380184c-0.0176706-0.0134535-0.0270414-0.0212183-0.0270414-0.0212183
			c-0.2864799-0.2249222-0.3855429-0.4199467-0.3855429-0.4199467C10.5955057,9.671299,10.5755148,9.6238651,10.5606995,9.578104z
			 M15.7723942,15.2673759c-0.0032129,0.0037489-0.3423471,0.379117-1.2041063,0.5861673
			c-0.0053549,0.0008926-0.5420799,0.0921021-1.0927267,0.0921021c-0.5501118,0-1.0871944-0.0912094-1.0889788-0.0913877
			c-0.8653288-0.2077646-1.2046423-0.5831327-1.2103539-0.5895586c-0.6434631-0.6415005-0.2796965-1.4329329-0.2623825-1.4697027
			c0.3053989-0.7742977,0.6932621-1.1798306,0.7004013-1.1873274c0.5618038-0.6924591,1.3077211-0.8663998,1.6606884-0.9101524
			c0.1237841-0.0128736,0.2003574-0.0116911,0.2008038-0.0116911c0.000535,0,0.12432-0.001339,0.3142347,0.0268402
			c0.3822403,0.0659981,1.0408754,0.2711067,1.5502911,0.8985729c0.0037489,0.0039272,0.3916111,0.4094601,0.69701,1.1837578
			l0.0016079,0.0033913C16.0426311,13.8065987,16.4197845,14.6217709,15.7723942,15.2673759z M16.2638721,8.7979383
			c0,0,0.1003113,0.1840248,0.145649,0.3693666c0,0,0.0539036,0.1853857-0.0188313,0.410799
			c-0.0148144,0.0457611-0.0348053,0.093195-0.0615788,0.1410532c0,0-0.0990639,0.1950245-0.3855429,0.4199467
			c0,0-0.0093708,0.0077648-0.0270414,0.0212183c-0.0811253,0.06178-0.3371716,0.2430162-0.6638117,0.3380184
			c0,0-0.3320837,0.1013613-0.586256,0.1046638c0,0-0.4277563,0.0395136-0.569479-0.1563148
			c0,0-0.2439985-0.3259706-0.1998215-0.7486391c0,0,0.0267735-0.3236284,0.1151276-0.5463858
			c0,0,0.1998215-0.7357216,0.935565-1.0727367c0,0,0.2628288-0.1448679,0.6026773,0.0168676
			c0,0,0.0683632,0.0226021,0.1698351,0.0877295C15.8677979,8.2781696,16.085022,8.4625969,16.2638721,8.7979383z
			 M17.0437927,3.5609868c-0.4617596,1.2943118-1.1500235,2.1989753-1.1500235,2.1989753
			c-0.1563597,0.2230701-0.4331999,0.47577-0.4331999,0.47577c-0.1629639,0.1553102-0.2473011-0.0530567-0.2473011-0.0530567
			l-0.0755014-0.1687417c-0.0525665-0.1311245-0.1030798-0.318028-0.1340475-0.4411874
			C15.0436125,5.327476,14.9927416,5.0723,14.9242907,4.8671904c-0.0204382-0.2699242-0.0365915-0.5080547-0.0365915-0.5080547
			c-0.0081215-0.6110892,0.033289-1.088845,0.033289-1.088845c0.0682735-0.9062703,0.2921915-1.5125848,0.2921915-1.5125848
			c0.3103075-0.9506254,0.7636776-1.1665113,0.9709959-1.2150388c0.0690765-0.0161758,0.1108437-0.0137662,0.1108437-0.0137662
			c0.6592598-0.0387774,0.9908085,0.6583673,0.9908085,0.6583673C17.668335,1.9422218,17.0437927,3.5609868,17.0437927,3.5609868z"
			/>
		<path class="st7" d="M12.1094732,14.0155458c0,0,0.2846947,0.1960287,0.6436415,0.3513165
			c0,0,0.1544847,0.0857878,0.2229366,0.0547523c0,0,0.0780907-0.0241632,0.0833559-0.0959167
			c0,0-0.0025883-0.0373278-0.0269527-0.068943c0,0-0.3077192-0.3836012-0.3888445-0.7231817
			c0,0-0.0337343-0.0761938-0.0404282-0.2543507c0,0,0.0058899-0.2823744-0.2185631-0.4175825
			c0,0-0.1319952-0.1002455-0.335743-0.083869c0,0-0.4149942,0.0280457-0.458724,0.4678726
			c0,0-0.0043736,0.225502,0.1327085,0.4206161C11.8598528,13.8613958,12.1094732,14.0155458,12.1094732,14.0155458z"/>
		<path class="st7" d="M13.9751596,14.4216146c0.0684519,0.0310354,0.2229366-0.0547523,0.2229366-0.0547523
			c0.3589468-0.1552877,0.6436415-0.3513165,0.6436415-0.3513165s0.2495317-0.15415,0.3866129-0.3492861
			c0.1370821-0.1951141,0.1326199-0.4206161,0.1326199-0.4206161c-0.0436411-0.439827-0.4586344-0.4678726-0.4586344-0.4678726
			c-0.2037487-0.0163765-0.3357439,0.083869-0.3357439,0.083869c-0.224453,0.1352081-0.2185631,0.4175825-0.2185631,0.4175825
			c-0.0067825,0.1781569-0.0405178,0.2543507-0.0405178,0.2543507c-0.0810347,0.3395805-0.3887548,0.7231817-0.3887548,0.7231817
			c-0.0244532,0.0316153-0.0269527,0.068943-0.0269527,0.068943C13.8969803,14.3974514,13.9751596,14.4216146,13.9751596,14.4216146
			z"/>
		<path class="st7" d="M11.515542,14.6687145c0.7500229,1.0578537,1.9208403,1.0143242,1.9568062,1.0127182
			c0.0360556,0.001606,1.2132988,0.0451355,1.9633207-1.0127182c0,0-0.9719772,0.6621599-1.9635887,0.6635437
			C12.4806471,15.3306293,11.515542,14.6687145,11.515542,14.6687145z"/>
	</g>
	<g>
		<path class="st7" d="M3.2640073,18.8323421H1.9881921H1.9846718h-1.085458c0,0-0.9001672-0.0407963-0.8992131,0.8822365v2.3632469
			c0,0,0.0135218,0.8053837,0.9134257,0.8021603l1.3126301,0.0004597l0.0001316-0.0004597h1.0236394
			c0.8998711,0.0032234,0.9133928-0.7316227,0.9133928-0.7316227v-2.4337845
			C4.1641746,18.7915459,3.2640073,18.8323421,3.2640073,18.8323421z M3.6192577,19.8972378v2.0059566
			c0,0.5011272-0.4501328,0.4603329-0.4501328,0.4603329H2.2443817c-0.0031254,0.0000648-0.0057905,0.0011845-0.0088172,0.0016441
			c-0.003257-0.000658-0.0067444-0.0015793-0.0095079-0.0016441H0.9940964c0,0-0.4501329,0.0407944-0.4501329-0.4603329v-2.0059566
			c0,0-0.0632331-0.5519905,0.5712695-0.5519905h0.8694389h0.0035203h1.0597963
			C3.6825237,19.3452473,3.6192577,19.8972378,3.6192577,19.8972378z"/>
		<path class="st7" d="M6.7397232,19.8998032H4.5788088c-0.0371437,0-0.0672469,0.0300713-0.0672469,0.0671825v3.9959908
			c0,0.0371761,0.0301032,0.0672455,0.0672469,0.0672455h0.395092c0.0371108,0,0.067214-0.0300694,0.067214-0.0672455v-1.0829906
			h1.8109608c0.6988215,0,0.699019-0.7155685,0.699019-0.7155685s0-0.693655,0-1.4616642
			C7.5510945,19.9348087,6.7397232,19.8998032,6.7397232,19.8998032z M7.0230222,21.941227
			c0,0.4555283-0.4458561,0.4223003-0.4458561,0.4223003H5.6739392H5.0411148v-1.8804131
			c0-0.0371113,0.0301032-0.0672474,0.0672464-0.0672474h1.4472556c0.4818811,0,0.4674053,0.3659763,0.4674053,0.3659763
			S7.0230222,21.443718,7.0230222,21.941227z"/>
		<path class="st7" d="M10.0984478,19.8994751H8.6873493c-0.7768264,0-0.798902,0.7624817-0.798902,0.7624817v1.5170689
			c0,0.7218189,0.6267381,0.7006302,0.6267381,0.7006302h2.0689602c0.0371437,0,0.0672464-0.0301361,0.0672464-0.0672455v-0.3816376
			c0-0.0371094-0.0301027-0.0672455-0.0672464-0.0672455H8.8449717c-0.464839,0-0.4381905-0.3862419-0.4381905-0.3862419v-0.3149815
			h2.4507933c0.0371437,0,0.0672464-0.0300713,0.0672464-0.0671806v-0.9442196
			C10.9248209,19.8776302,10.0984478,19.8994751,10.0984478,19.8994751z M10.4037237,21.0764275
			c0,0.0371761-0.021944,0.0673122-0.0672464,0.0673122H8.4067812v-0.2496433c0-0.5278416,0.3903542-0.4782295,0.3903542-0.4782295
			h1.1910334c0.4172325,0,0.415555,0.3659763,0.415555,0.3659763V21.0764275z"/>
		<path class="st7" d="M13.5436001,19.8998032h-1.487031c0,0-0.7944603-0.0173054-0.7944603,0.8587475v2.0538597
			c0,0.0371761,0.0301027,0.0672455,0.0672464,0.0672455h0.3911772c0.0371437,0,0.0672464-0.0300694,0.0672464-0.0672455v-1.9750977
			c0,0-0.0156269-0.4214458,0.4678984-0.4214458h1.1314526c0,0,0.4355249-0.0396099,0.4355249,0.4416466v1.9548969
			c0,0.0371094,0.0301037,0.0672455,0.067214,0.0672455h0.3896637c0.0371103,0,0.067214-0.0301361,0.067214-0.0672455v-2.1719036
			C14.3467464,20.6405067,14.3024635,19.8998032,13.5436001,19.8998032z"/>
		<path class="st7" d="M18.4820671,18.8287888h-2.8249607c-0.9978132,0-0.9760008,0.8490086-0.9760008,0.8490086
			s0,1.4533081,0,2.3487053c0,0.8955288,0.9094772,0.8531532,0.9094772,0.8531532h2.8914843
			c0.0371437,0,0.0672474-0.0300694,0.0672474-0.0672455v-0.3800583c0-0.0378342-0.0309601-0.0688248-0.0688267-0.0688248
			h-2.5726538c-0.7331686,0.0494156-0.6792459-0.4900742-0.6792459-0.4900742v-0.8461132h2.7307358
			c0.0199699,0,0.03619-0.0162525,0.03619-0.0362549v-0.4094696c0-0.0199356-0.0162201-0.0361881-0.03619-0.0361881h-2.7307358
			V19.932375c0-0.6614151,0.5257368-0.5870609,0.5257368-0.5870609h2.7277422c0.0371437,0,0.0672474-0.0301361,0.0672474-0.0672474
			v-0.3820305C18.5493145,18.8589249,18.5192108,18.8287888,18.4820671,18.8287888z"/>
		<path class="st7" d="M26.1501522,20.5454273h-2.034481c-0.4567127,0-0.4493771-0.4157867-0.4493771-0.4157867v-0.3192577
			c0-0.5034313,0.4431248-0.4650688,0.4431248-0.4650688h2.5521584c0.0373077,0,0.0675755-0.0302677,0.0675755-0.0676422V18.896431
			c0-0.0373745-0.0302677-0.0676422-0.0675755-0.0676422h-2.7462006c-0.8886509,0-0.796566,0.7750492-0.796566,0.7750492v0.7073421
			c0,0.7582054,0.7902832,0.7161598,0.7902832,0.7161598h1.9781246c0.5946941,0,0.525835,0.4794807,0.525835,0.4794807v0.3317585
			c0,0.6071968-0.4632282,0.5249481-0.4632282,0.5249481h-2.8310146v0.5164585h3.0438423
			c0.7699509,0,0.7887363-0.7659702,0.7887363-0.7659702v-0.8325577
			C26.9513893,20.5365429,26.1501522,20.5454273,26.1501522,20.5454273z"/>
		<path class="st7" d="M22.0290108,18.8287888h-2.600914h-0.5472527v3.887291c0,0.0904083,0.0732346,0.1635761,0.1635761,0.1635761
			h0.3217258v0.0026321l2.6628647-0.0103951c0.7926502,0,0.7676468-0.7339268,0.7676468-0.7339268v-0.8807888
			c0-0.4476986-0.3770294-0.4707947-0.3770294-0.4707947c0.4130878-0.1065273,0.3770294-0.4759254,0.3770294-0.4759254
			l0.0103302-0.7412949C22.8069878,18.8427391,22.0290108,18.8287888,22.0290108,18.8287888z M22.2392387,21.9911022
			c0,0.3745308-0.3496895,0.3724251-0.3496895,0.3724251h-2.4614525v-1.3361874h2.4541149
			c0.3671932,0,0.3570271,0.3179436,0.3570271,0.3179436V21.9911022z M22.2392387,20.2223511
			c0,0.2715549-0.3496895,0.3156395-0.3496895,0.3156395h-2.4614525V19.334259h2.4467793
			c0.3302784,0,0.3643627,0.3156395,0.3643627,0.3156395V20.2223511z"/>
	</g>
</g>
</svg>
