<svg width="146" height="42" viewBox="0 0 146 42" fill="none" xmlns="http://www.w3.org/2000/svg">
<path d="M8.25586 15.0937V34.9499C8.25586 35.4557 8.56601 35.8454 9.06911 36.0975L20.1928 41.786C20.6933 42.0368 21.3091 42.0845 21.8096 41.8337L32.9311 36.1148C33.4356 35.862 33.7466 35.4571 33.7466 34.9499V15.0762L21.0012 21.6889L8.25586 15.0937Z" fill="#1263E4"/>
<path d="M4.48727 32.8732V13.7056C4.48727 13.4126 4.57211 13.0425 5.22933 12.7589L20.537 4.81803C20.8241 4.67549 21.1761 4.67549 21.4632 4.81804L37.0568 12.9059C37.3488 13.0509 37.5185 13.1459 37.5127 13.4794V32.8732C37.5127 33.2754 38.0222 33.4649 38.4258 33.2699L41.5603 31.6474C41.8577 31.5037 42 31.2872 42 30.9909V11.1508C42 10.8012 41.8659 10.6816 41.5777 10.5356L21.4685 0.110294C21.1788 -0.0363873 20.8212 -0.036789 20.531 0.10924L0.460039 10.5252C0.17062 10.6709 0 10.9193 0 11.2106V30.9909C0 31.2767 0.138245 31.49 0.419149 31.6375L3.58436 33.2754C3.98827 33.4875 4.48727 33.2842 4.48727 32.8732Z" fill="#1263E4"/>
<path d="M30.0847 13.2335L21.0013 8.5332L11.918 13.2335L21.0013 17.9337L30.0847 13.2335Z" fill="#1263E4"/>
<path d="M57.5113 19.6019H58.3337C58.6643 19.6019 58.9384 19.5575 59.156 19.4687C59.3736 19.3711 59.5607 19.2201 59.7173 19.016L64.9255 12.2916C65.1431 12.0076 65.3693 11.8123 65.6043 11.7057C65.848 11.5903 66.1525 11.5326 66.518 11.5326H69.5464L63.1894 19.5353C62.8152 20.0236 62.428 20.3698 62.0277 20.5739C62.3149 20.6804 62.5716 20.8313 62.7979 21.0266C63.0328 21.213 63.2547 21.4616 63.4636 21.7723L70.0163 30.787H66.9227C66.505 30.787 66.1917 30.7293 65.9828 30.6138C65.7827 30.4896 65.613 30.312 65.4738 30.0812L60.135 22.9707C59.9696 22.731 59.7782 22.5623 59.5607 22.4647C59.3431 22.3671 59.0298 22.3182 58.6208 22.3182H57.5113V30.787H54V11.5326H57.5113V19.6019ZM82.2643 17.1252V30.787H80.2932C79.8668 30.787 79.597 30.5872 79.4839 30.1878L79.262 29.0959C78.7138 29.664 78.1089 30.1256 77.4477 30.4807C76.7863 30.8269 76.0074 31 75.1111 31C74.3802 31 73.7318 30.8758 73.1662 30.6272C72.6092 30.3698 72.1393 30.0102 71.7565 29.5486C71.3735 29.087 71.082 28.541 70.8819 27.9108C70.6904 27.2716 70.5947 26.5703 70.5947 25.8069V17.1252H73.8189V25.8069C73.8189 26.6414 74.0059 27.2894 74.3801 27.751C74.763 28.2037 75.333 28.4301 76.0901 28.4301C76.647 28.4301 77.1691 28.3058 77.6565 28.0573C78.1438 27.7999 78.605 27.4491 79.0401 27.0053V17.1252H82.2643ZM88.6852 27.245C89.0506 27.6977 89.4466 28.0173 89.873 28.2037C90.3082 28.3901 90.765 28.4834 91.2436 28.4834C91.7396 28.4834 92.1834 28.3945 92.575 28.217C92.9753 28.0306 93.3147 27.7466 93.5932 27.3648C93.8717 26.9743 94.0848 26.4816 94.2327 25.8868C94.3808 25.2832 94.4547 24.5642 94.4547 23.7297C94.4547 22.2294 94.2111 21.1465 93.7237 20.4807C93.2364 19.806 92.5358 19.4687 91.6221 19.4687C91.0043 19.4687 90.4648 19.6152 90.0035 19.9081C89.5423 20.1922 89.1029 20.5961 88.6852 21.1198V27.245ZM88.6852 18.8029C89.2248 18.226 89.8208 17.7687 90.4734 17.4314C91.1348 17.0852 91.8876 16.9121 92.7316 16.9121C93.5062 16.9121 94.2023 17.0675 94.8201 17.3782C95.4467 17.6888 95.9776 18.1372 96.4126 18.723C96.8564 19.3 97.1958 20.0013 97.4308 20.8269C97.6657 21.6525 97.7832 22.5801 97.7832 23.6099C97.7832 24.7194 97.6484 25.727 97.3786 26.6325C97.1089 27.5379 96.7216 28.3147 96.2168 28.9627C95.7208 29.6019 95.1204 30.0989 94.4155 30.4541C93.7106 30.8092 92.9274 30.9867 92.0659 30.9867C91.6482 30.9867 91.2697 30.9423 90.9303 30.8535C90.5909 30.7736 90.2776 30.6582 89.9905 30.5073C89.7033 30.3564 89.4379 30.1744 89.1942 29.9614C88.9593 29.7394 88.733 29.4953 88.5154 29.229L88.3719 30.1478C88.3197 30.3786 88.2283 30.5429 88.0978 30.6405C87.976 30.7381 87.8063 30.787 87.5887 30.787H85.461V11H88.6852V18.8029ZM108.902 22.3848C108.902 21.9587 108.84 21.5593 108.719 21.1864C108.606 20.8047 108.432 20.4718 108.197 20.1877C107.962 19.9037 107.662 19.6818 107.296 19.522C106.939 19.3533 106.521 19.269 106.043 19.269C105.111 19.269 104.376 19.5397 103.837 20.0812C103.306 20.6228 102.967 21.3906 102.819 22.3848H108.902ZM102.754 24.3688C102.806 25.0702 102.927 25.6782 103.119 26.1931C103.31 26.6991 103.563 27.1208 103.876 27.4581C104.19 27.7865 104.559 28.035 104.986 28.2037C105.421 28.3635 105.899 28.4434 106.422 28.4434C106.944 28.4434 107.392 28.3812 107.766 28.257C108.149 28.1327 108.479 27.9951 108.758 27.8442C109.045 27.6933 109.293 27.5557 109.502 27.4314C109.719 27.3072 109.928 27.245 110.129 27.245C110.398 27.245 110.599 27.3471 110.729 27.5513L111.656 28.7497C111.298 29.1758 110.899 29.5353 110.455 29.8282C110.011 30.1123 109.545 30.3431 109.058 30.5206C108.579 30.6893 108.087 30.8092 107.583 30.8802C107.087 30.9511 106.604 30.9867 106.134 30.9867C105.203 30.9867 104.337 30.8313 103.537 30.5206C102.736 30.2011 102.04 29.735 101.448 29.1225C100.856 28.5011 100.391 27.7377 100.051 26.8322C99.7121 25.9179 99.5424 24.8615 99.5424 23.6631C99.5424 22.731 99.6903 21.8566 99.9862 21.0399C100.282 20.2144 100.704 19.4997 101.253 18.8961C101.809 18.2836 102.484 17.7999 103.276 17.4447C104.076 17.0896 104.977 16.9121 105.978 16.9121C106.821 16.9121 107.6 17.0497 108.314 17.3249C109.027 17.6001 109.641 18.004 110.155 18.5366C110.668 19.0603 111.069 19.7084 111.356 20.4807C111.651 21.2441 111.8 22.1185 111.8 23.1039C111.8 23.6009 111.747 23.9383 111.643 24.1158C111.538 24.2845 111.338 24.3688 111.042 24.3688H102.754ZM117.26 19.4953C117.677 18.6787 118.174 18.0395 118.748 17.5779C119.322 17.1074 120.001 16.8722 120.784 16.8722C121.403 16.8722 121.899 17.0097 122.272 17.285L122.063 19.7483C122.02 19.9081 121.955 20.0236 121.868 20.0945C121.789 20.1567 121.681 20.1877 121.541 20.1877C121.411 20.1877 121.215 20.1655 120.954 20.1212C120.702 20.0768 120.454 20.0546 120.21 20.0546C119.853 20.0546 119.536 20.1079 119.257 20.2144C118.979 20.3209 118.727 20.4763 118.5 20.6804C118.283 20.8758 118.087 21.1154 117.912 21.3995C117.748 21.6835 117.591 22.0076 117.443 22.3715V30.787H114.218V17.1252H116.111C116.442 17.1252 116.672 17.1873 116.803 17.3116C116.933 17.427 117.021 17.6401 117.064 17.9507L117.26 19.4953ZM130.854 24.9547C129.923 24.9991 129.14 25.0835 128.505 25.2077C127.869 25.3232 127.36 25.474 126.977 25.6605C126.595 25.8469 126.321 26.0643 126.155 26.3129C125.989 26.5615 125.907 26.8322 125.907 27.1252C125.907 27.7021 126.073 28.1149 126.403 28.3635C126.742 28.6121 127.182 28.7363 127.721 28.7363C128.383 28.7363 128.952 28.6165 129.431 28.3768C129.918 28.1282 130.393 27.7554 130.854 27.2583V24.9547ZM123.466 19.0293C125.006 17.5912 126.86 16.8722 129.027 16.8722C129.81 16.8722 130.511 17.0053 131.128 17.2716C131.746 17.529 132.268 17.8931 132.695 18.3635C133.121 18.8252 133.443 19.3799 133.661 20.028C133.887 20.676 134 21.3862 134 22.1585V30.787H132.538C132.234 30.787 131.999 30.7426 131.833 30.6538C131.667 30.5562 131.537 30.3653 131.442 30.0812L131.154 29.0959C130.815 29.4065 130.485 29.6818 130.162 29.9214C129.84 30.1522 129.506 30.3475 129.157 30.5073C128.809 30.6671 128.435 30.787 128.035 30.8668C127.643 30.9556 127.208 31 126.729 31C126.164 31 125.642 30.9245 125.163 30.7736C124.684 30.6138 124.271 30.3786 123.923 30.0679C123.575 29.7572 123.305 29.3711 123.114 28.9095C122.922 28.4478 122.826 27.9108 122.826 27.2983C122.826 26.9521 122.883 26.6103 122.996 26.273C123.11 25.9268 123.292 25.5983 123.544 25.2876C123.805 24.977 124.141 24.684 124.549 24.4088C124.958 24.1336 125.459 23.8939 126.051 23.6897C126.651 23.4856 127.347 23.3213 128.139 23.1971C128.931 23.0639 129.836 22.984 130.854 22.9574V22.1585C130.854 21.2441 130.662 20.5695 130.28 20.1345C129.897 19.6907 129.344 19.4687 128.622 19.4687C128.1 19.4687 127.665 19.5309 127.317 19.6551C126.977 19.7794 126.677 19.9214 126.416 20.0812C126.155 20.2321 125.916 20.3698 125.698 20.494C125.489 20.6183 125.254 20.6804 124.993 20.6804C124.767 20.6804 124.576 20.6228 124.419 20.5073C124.262 20.3831 124.136 20.241 124.04 20.0812L123.466 19.0293Z" fill="#1263E4"/>
</svg>
