<svg width="409px" height="121px" viewBox="0 0 409 121" version="1.1" xmlns="http://www.w3.org/2000/svg" xmlns:xlink="http://www.w3.org/1999/xlink">
    <g id="Logos" stroke="none" stroke-width="1" fill="none" fill-rule="evenodd">
        <g id="LITMUS-Logo-BLACK" transform="translate(-30.000000, -32.000000)">
            <g id="Logo-OL-10" transform="translate(30.000000, 32.000000)">
                <g id="Group" transform="translate(117.000000, 34.000000)">
                    <g transform="translate(182.047825, 1.094014)">
                        <path d="M42.5078306,21.9125359 C42.5078306,21.8469902 42.5078306,21.8142173 42.5078306,21.8142173 C42.5078306,21.8142173 42.5078306,21.8469902 42.5078306,21.9125359 C42.2302161,21.9125359 41.9526016,21.9125359 41.6724633,21.894889 C41.3948487,21.8772421 41.1172342,21.8444692 40.8370959,21.7789235 C40.7664304,21.7789235 40.6982887,21.7789235 40.6452895,21.7789235 C40.5922904,21.7789235 40.5594814,21.7789235 40.5594814,21.7789235 C40.4888159,21.7789235 40.3853414,21.7789235 40.2818669,21.7789235 C40.1783924,21.7789235 40.0723941,21.7789235 40.0042524,21.7789235 C39.7266379,21.7789235 39.4490233,21.7789235 39.168885,21.7789235 C38.8912705,21.7789235 38.613656,21.7789235 38.3335177,21.7789235 C37.7782887,21.7789235 37.2558686,21.7789235 36.7334486,21.7789235 C36.2110285,21.7789235 35.6911322,21.7789235 35.1333794,21.7789235 C35.0627139,21.7789235 34.7850994,21.8116963 34.5251513,21.8444692 C34.2652031,21.8772421 34.0203976,21.9100149 34.0203976,21.9100149 C33.8109248,21.9100149 33.568643,21.9427878 33.3263613,21.9932076 C33.0840795,22.0436274 32.839274,22.1091731 32.632325,22.1747188 C32.0770959,22.2402645 31.5546759,22.3385831 31.0322558,22.4369017 C30.5098358,22.5352203 29.9899395,22.6335389 29.4321867,22.6990846 C27.1380812,23.092359 24.7733103,23.4200876 22.4287295,23.4528605 C20.0816249,23.4856334 17.7521867,23.2234505 15.5287468,22.4369017 C15.5287468,22.5679932 15.5287468,22.7318575 15.5287468,22.8957218 C15.5287468,23.0595861 15.5287468,23.2234505 15.5287468,23.3545419 C15.5287468,26.5007368 15.5287468,29.6166798 15.5287468,32.7301019 C15.5287468,35.8435239 15.5287468,38.9594669 15.5287468,42.1056618 C15.3899395,42.6300277 15.4252723,43.1543935 15.5817459,43.6459864 C15.7382195,44.1375794 16.0158341,44.5963995 16.3641141,44.9896738 C16.7805359,45.4484939 17.3382887,45.8417683 17.9969922,46.1215981 C18.6582195,46.401428 19.4229213,46.5652923 20.2557649,46.5652923 C20.3945722,46.5652923 20.5333794,46.5652923 20.6721867,46.5652923 C20.8109939,46.5652923 20.9498012,46.5652923 21.0886085,46.5652923 C22.4085393,46.5652923 23.6956612,46.5652923 24.9827831,46.5652923 C26.2699049,46.5652923 27.554503,46.5652923 28.8769576,46.5652923 C30.1994123,46.5652923 31.4840104,46.5652923 32.7711322,46.5652923 C34.0582541,46.5652923 35.3428522,46.5652923 36.6653068,46.5652923 C36.8041141,46.5652923 36.9429213,46.5652923 37.0817286,46.5652923 C37.2205359,46.5652923 37.3593431,46.5652923 37.4981504,46.5652923 C38.3335177,46.5652923 39.0982195,46.401428 39.7569231,46.1215981 C40.4181504,45.8417683 40.9733794,45.4484939 41.3898012,44.9896738 C41.806223,44.5963995 42.0838375,44.1375794 42.2251685,43.6459864 C42.3639758,43.1543935 42.3639758,42.6300277 42.2251685,42.1056618 C42.2251685,38.9594669 42.2251685,35.8435239 42.2251685,32.7301019 C42.2251685,29.6166798 42.2251685,26.5007368 42.2251685,23.3545419 C42.3639758,23.0268133 42.4346413,22.7646304 42.4674503,22.5352203 C42.5078306,22.3058103 42.5078306,22.1091731 42.5078306,21.9125359 Z" id="Path" fill="#F05A2B"></path>
                        <g fill="#020202">
                            <path d="M46.818427,26.6343493 C46.818427,23.9469744 46.818427,21.2570786 46.818427,18.5873508 C46.818427,15.9176229 46.818427,13.2604999 46.818427,10.6386708 C46.818427,9.85212212 46.8537597,9.09834626 46.9749006,8.35969633 C47.0960415,7.62104641 47.3055143,6.90004341 47.6537943,6.17904041 C48.2796889,4.86812587 49.2538634,3.98325855 50.3643215,3.40847294 C51.4773034,2.83368734 52.7290925,2.57150443 53.9102161,2.5059587 C54.4654451,2.5059587 54.9525324,2.70259588 55.3184788,3.03032452 C55.6844252,3.35805315 55.926707,3.81687324 55.9973725,4.34123906 C56.068038,4.86560488 55.926707,5.35719783 55.6314261,5.75047219 C55.3361452,6.14374656 54.8843907,6.43870233 54.3266379,6.56979378 C54.1171651,6.63533951 53.8748833,6.66811237 53.6149352,6.6857593 C53.354987,6.70340623 53.0773725,6.70340623 52.7972342,6.70340623 C52.3808124,6.76895195 52.0678652,6.93281627 51.840726,7.16222632 C51.6135869,7.39163636 51.4747796,7.68659213 51.4066379,8.01432077 C51.3359723,8.3420494 51.3031634,8.66977804 51.285497,9.0151536 C51.2678306,9.36052916 51.2678306,9.72103066 51.2678306,10.114305 C51.2678306,15.4915756 51.2678306,20.8663253 51.2678306,26.2435959 C51.2678306,31.6208665 51.2678306,36.9956161 51.2678306,42.3728867 C51.2678306,43.0938897 51.2324978,43.8148927 51.1466897,44.5207698 C51.0608816,45.2266469 50.9195506,45.914877 50.7126016,46.5703343 C50.2255143,48.2745232 49.3926707,49.7165292 48.2620225,50.9316461 C47.1313742,52.1442421 45.7079689,53.127428 44.039758,53.9139767 C43.691478,54.1106139 43.3103889,54.2089325 42.9091098,54.2593523 C42.5103544,54.309772 42.0914088,54.309772 41.674987,54.309772 C38.754987,54.5064092 35.8703198,54.6375007 32.9856525,54.7030464 C30.1009853,54.7685921 27.2163181,54.7685921 24.2963181,54.7030464 C23.044529,54.7030464 21.7927398,54.6702735 20.5409507,54.6198538 C19.2891616,54.569434 18.0373725,54.5038882 16.7855834,54.4383425 C14.9078997,54.3727968 13.3103544,53.848431 11.9374244,52.9963365 C10.5644944,52.1442421 9.41617978,50.964419 8.44452895,49.5879587 C7.75049265,48.6047728 7.2280726,47.5232683 6.87979257,46.3762181 C6.53151253,45.2291678 6.35737252,44.0165719 6.35737252,42.7712031 C6.35737252,37.5905696 6.35737252,32.4124572 6.35737252,27.2318238 C6.35737252,22.0511903 6.35737252,16.8730779 6.35737252,11.6924445 C6.35737252,11.1680786 6.35737252,10.6437128 6.33970614,10.1344729 C6.32203976,9.62523306 6.286707,9.13364011 6.21856525,8.67482002 C6.07975799,8.01936275 5.87028522,7.56054266 5.52452895,7.23281402 C5.17624892,6.90508539 4.68916162,6.70844821 3.99512532,6.57735675 C3.92445981,6.57735675 3.85631806,6.57735675 3.78565255,6.57735675 C3.71498704,6.57735675 3.64684529,6.57735675 3.57617978,6.57735675 C2.88214347,6.4462653 2.35972342,6.15130952 2.02910977,5.74038824 C1.69849611,5.32946695 1.55968885,4.80510113 1.63035436,4.21518958 C1.76916162,3.62527804 2.11744166,3.16645795 2.58686258,2.88662812 C3.05628349,2.60679828 3.64684529,2.50847969 4.27273984,2.63957114 C4.96677615,2.70511687 5.62800346,2.83620833 6.25389801,3.05049243 C6.87979257,3.26477654 7.47035436,3.55973231 8.02558341,3.95300668 C8.86095073,4.54291822 9.45151253,5.29669408 9.85026793,6.14878853 C10.2490233,7.00088299 10.4584961,7.95129603 10.5291616,8.93448194 C10.6679689,10.4420337 10.7033016,11.9495854 10.7033016,13.4596581 C10.7033016,14.9697308 10.6679689,16.4747615 10.6679689,17.9848343 C10.6679689,21.9175779 10.6679689,25.8528425 10.6503025,29.7855861 C10.6326361,33.7183298 10.5973034,37.6535944 10.5291616,41.586338 C10.5291616,42.2417953 10.5644944,42.8972526 10.6326361,43.5527098 C10.7007779,44.2081671 10.8067761,44.8636244 10.9455834,45.5190816 C11.2938634,46.633359 11.8137597,47.583772 12.5279862,48.3879677 C13.2396889,49.1921633 14.1431979,49.8476206 15.2561798,50.3719864 C15.6726016,50.5686236 16.0915471,50.6669422 16.5079689,50.717362 C16.9243907,50.7677818 17.3433362,50.7677818 17.759758,50.7677818 C20.4021435,50.8988732 23.044529,50.9971918 25.6843907,51.0476116 C28.3242524,51.0980314 30.9691616,51.0980314 33.6090233,51.0299647 C34.7220052,50.964419 35.867796,50.9316461 37.0161106,50.8988732 C38.1644252,50.8661004 39.3102161,50.8333275 40.4231979,50.7677818 C41.5361798,50.7022361 42.4750216,50.3745074 43.2901988,49.8652675 C44.1078997,49.3560277 44.801936,48.6677975 45.4278306,47.8812488 C45.9149179,47.2257915 46.2631979,46.5375614 46.4878133,45.8165584 C46.7149525,45.0955554 46.818427,44.3417795 46.818427,43.5552308 C46.8890925,40.6712188 46.8890925,37.8502316 46.8714261,35.0468912 C46.8537597,32.2385089 46.818427,29.4528155 46.818427,26.6343493 Z" id="Path"></path>
                            <path d="M29.1596197,56.2685809 C28.3242524,56.2685809 27.5267416,56.2685809 26.726707,56.2685809 C25.9266724,56.2685809 25.1266379,56.2685809 24.2937943,56.2685809 C23.5290925,56.2685809 22.7643907,56.235808 21.9996889,56.2030352 C21.234987,56.1702623 20.4702852,56.1374894 19.7055834,56.1374894 C19.2184961,56.1374894 18.7314088,56.1047166 18.2468453,56.0719437 C17.759758,56.0391708 17.2726707,56.006398 16.7881072,56.006398 C14.8422818,55.9408523 13.0680726,55.4492593 11.4705272,54.5316191 C9.87045808,53.6139789 8.44705272,52.2702915 7.19526361,50.5005569 C6.4305618,49.4518253 5.84,48.2720022 5.43872083,46.9938605 C5.03996543,45.7157188 4.83049265,44.3392585 4.83049265,42.8972526 C4.83049265,39.423329 4.83049265,35.9468845 4.83049265,32.4729609 C4.83049265,28.9990374 4.83049265,25.5225929 4.83049265,22.0486693 L4.83049265,16.7369445 L4.83049265,11.4252196 C4.83049265,11.0319452 4.83049265,10.6386708 4.81282627,10.2453965 C4.7951599,9.85212212 4.75982714,9.45884776 4.69168539,9.06557339 C4.62101988,8.73784476 4.58821089,8.57398044 4.48221262,8.47566185 C4.37621435,8.37734326 4.2045981,8.34457039 3.85631806,8.27902467 C3.78565255,8.27902467 3.7175108,8.27902467 3.62917891,8.26137774 C3.54337079,8.24373081 3.43737252,8.21095795 3.29856525,8.14541222 C2.18558341,7.94877504 1.28207433,7.39163636 0.709178911,6.6378605 C0.136283492,5.88408464 -0.10852204,4.9311506 0.100950735,3.9479647 C0.310423509,2.96477879 0.86565255,2.1454572 1.66568712,1.62109138 C2.46572169,1.09672557 3.50803803,0.867315521 4.68916162,1.0639527 C5.24439067,1.12949843 5.97628349,1.26058988 6.75865169,1.50764686 C7.54101988,1.75470383 8.37386344,2.11520533 9.13856525,2.63957114 C10.0420743,3.29502842 10.7714434,4.11435 11.3115298,5.11518284 C11.8490925,6.11601567 12.1973725,7.29583876 12.3361798,8.67229903 C12.474987,9.78657639 12.5103198,10.9336266 12.5103198,12.0806768 C12.5103198,13.2277271 12.474987,14.3747773 12.474987,15.4890547 C12.474987,15.882329 12.474987,16.2756034 12.474987,16.6865247 C12.474987,17.097446 12.474987,17.5234932 12.474987,17.9823133 C12.474987,20.4075052 12.474987,22.8352181 12.474987,25.26041 C12.474987,27.6856019 12.474987,30.1133148 12.474987,32.5385067 L12.474987,37.0636828 L12.474987,41.588859 C12.474987,42.309862 12.5103198,42.9325464 12.5784615,43.4896851 C12.6491271,44.0468238 12.7526016,44.5384167 12.8914088,44.9972368 C13.1690233,45.8493313 13.5854451,46.6031071 14.1608643,47.2434385 C14.7337597,47.8837698 15.4656525,48.4081356 16.3691616,48.80141 C16.5786344,48.9325014 16.8209162,48.9980472 17.0985307,49.03082 C17.3761452,49.0635929 17.6890925,49.0635929 18.0373725,49.0635929 C21.028038,49.1946843 23.806707,49.2930029 26.4314261,49.3434227 C29.0561452,49.3938425 31.5243907,49.3938425 33.8866379,49.3257758 L34.6513397,49.3257758 L35.4160415,49.3257758 C36.2514088,49.3257758 37.1195851,49.2930029 37.9877615,49.2425831 C38.8559378,49.1921633 39.7266379,49.1266176 40.5594814,49.0610719 C41.3241832,48.9955262 41.9854105,48.798889 42.5936387,48.4207406 C43.2018669,48.0425921 43.7570959,47.4854535 44.3148487,46.6989047 C44.6631288,46.2400846 44.9407433,45.7157188 45.1325497,45.1409332 C45.3243561,44.5661476 45.4278306,43.9434632 45.4278306,43.2880059 C45.4278306,41.3216341 45.4278306,39.3880352 45.4278306,37.4519152 C45.4278306,35.5183163 45.4278306,33.5847173 45.4278306,31.6158245 L45.4278306,26.9595569 L45.4278306,22.3032893 C45.4278306,20.3369175 45.4278306,18.4033185 45.4278306,16.4671986 C45.4278306,14.5335996 45.4278306,12.6000007 45.4278306,10.6311079 C45.4278306,9.9756506 45.4631634,9.18910188 45.6019706,8.3193605 C45.7407779,7.44961912 45.9855834,6.49920608 46.4020052,5.51602017 C47.0278997,4.1395599 48.0348833,3.02528254 49.3396716,2.23873381 C50.641936,1.45218509 52.2420052,0.993364997 54.0490233,0.92781927 C55.0231979,0.92781927 55.926707,1.25554791 56.6030769,1.81268659 C57.2819706,2.36982527 57.7337252,3.15637399 57.8018669,4.07401417 C57.8725324,4.99165435 57.5923941,5.8437488 57.0724978,6.516853 C56.5500778,7.1899572 55.785376,7.68155015 54.8818669,7.87818734 C54.6723941,7.94373306 54.4654451,7.97650593 54.2736387,7.99415285 C54.0818323,8.01179978 53.9076923,8.01179978 53.768885,8.01179978 L53.5594123,8.01179978 L53.3499395,8.01179978 C53.3499395,8.01179978 53.3499395,8.01179978 53.3499395,8.02944671 C53.3499395,8.04709363 53.3499395,8.0798665 53.3499395,8.14541222 C53.279274,8.40759513 53.246465,8.7025509 53.2287986,8.99750668 C53.2111322,9.29246245 53.2111322,9.58741822 53.2111322,9.84960113 L53.2111322,25.978892 L53.2111322,42.1081828 C53.2111322,42.9602773 53.1404667,43.746826 53.0193258,44.5006019 C52.898185,45.2543777 52.7240449,45.9753807 52.5145722,46.6963837 C51.9593431,48.5972098 51.0205013,50.235853 49.7510458,51.6299602 C48.4815903,53.0240674 46.8840449,54.1711176 45.0063613,55.0887578 C44.519274,55.3509407 43.9993777,55.4820322 43.494624,55.5475779 C42.9898704,55.6131236 42.5027831,55.6131236 42.0863613,55.6131236 C39.8629213,55.8753065 37.7076232,56.0391708 35.5674676,56.1374894 C33.4348833,56.235808 31.3149179,56.2685809 29.1596197,56.2685809 Z M3.8537943,4.07905615 C3.71498704,4.07905615 3.57617978,4.11182901 3.4701815,4.17737474 C3.366707,4.24292047 3.29604149,4.34123906 3.29604149,4.47233051 C3.22537597,4.6689677 3.33137424,4.80005915 3.4701815,4.8832518 C3.60898876,4.96644446 3.78312878,4.99921732 3.8537943,4.99921732 L3.99260156,4.99921732 L4.13140882,4.99921732 C5.24439067,5.13030877 6.07723423,5.45803741 6.6854624,6.01517609 C7.29369058,6.57231477 7.67730337,7.3588635 7.88425238,8.40759513 C7.95491789,8.93196095 7.98772688,9.4235539 8.00539326,9.90002092 C8.02305964,10.3764879 8.02305964,10.835308 8.02305964,11.2941281 L8.02305964,16.605853 L8.02305964,21.9175779 C8.02305964,25.3915014 8.02305964,28.867946 8.02305964,32.3418695 C8.02305964,35.815793 8.02305964,39.2922376 8.02305964,42.7661611 C8.02305964,43.8804385 8.1618669,44.961943 8.4571478,45.9627758 C8.75242869,46.9636086 9.20418323,47.8812488 9.83007779,48.6677975 C10.8042524,50.0442578 11.8465687,51.0602166 12.9923596,51.7484467 C14.1406742,52.4366768 15.3899395,52.7971783 16.7805359,52.8627241 C17.2676232,52.8627241 17.7547105,52.8954969 18.2569404,52.9282698 C18.761694,52.9610427 19.2815903,52.9938155 19.8393431,52.9938155 C20.6040449,52.9938155 21.3687468,53.0265884 22.1334486,53.0593612 C22.8981504,53.0921341 23.6628522,53.124907 24.427554,53.124907 C27.4182195,53.1904527 30.3710285,53.1904527 33.2556958,53.124907 C36.140363,53.0593612 38.9568885,52.9282698 41.6674157,52.7316326 C42.0156958,52.7316326 42.328643,52.6988597 42.6062576,52.64844 C42.8838721,52.5980202 43.1286776,52.5324744 43.3356266,52.4669287 C44.8650303,51.7459257 46.1168194,50.8610584 47.0909939,49.7946798 C48.0651685,48.7283013 48.7592048,47.4829325 49.1756266,46.0409265 C49.3850994,45.4510149 49.5239067,44.8611034 49.6097148,44.238419 C49.6955229,43.6157346 49.7308557,42.9602773 49.7308557,42.2392743 L49.7308557,26.1099834 L49.7308557,9.98069258 C49.7308557,9.58741822 49.7308557,9.19414386 49.748522,8.80086949 C49.7661884,8.40759513 49.8015212,8.01432077 49.8696629,7.62104641 C50.0084702,6.90004341 50.3567502,6.31013186 50.8438375,5.86643771 C51.3309248,5.42274356 51.9568194,5.12778779 52.6508557,4.99669633 L52.9284702,4.99669633 L53.2060847,4.99669633 C53.344892,4.99669633 53.4836992,4.99669633 53.6225065,4.9790494 C53.7613137,4.96140248 53.900121,4.92862961 54.0389283,4.86308389 C54.1777355,4.86308389 54.28121,4.79753816 54.3518755,4.69921957 C54.4225411,4.60090098 54.45535,4.46980952 54.45535,4.33871807 C54.45535,4.20762662 54.3846845,4.10930803 54.2988764,4.0437623 C54.2130683,3.97821657 54.10707,3.94544371 54.0389283,3.94544371 C53.2035609,3.94544371 52.2672429,4.07653516 51.4142092,4.46980952 C50.5636992,4.86308389 49.7989974,5.51854116 49.3119101,6.56727279 C49.1024373,7.09163861 48.9282973,7.64877729 48.8071564,8.2714617 C48.6860156,8.89414611 48.61535,9.58237624 48.61535,10.368925 C48.61535,12.3352968 48.61535,14.2688957 48.61535,16.2050157 C48.61535,18.1386146 48.61535,20.0722136 48.61535,22.0411064 L48.61535,26.697374 L48.61535,31.3536416 C48.61535,33.3200134 48.61535,35.2863852 48.61535,37.2376311 C48.61535,39.188877 48.61535,41.1224759 48.61535,43.023302 C48.61535,44.0064879 48.4765428,44.9241281 48.1812619,45.7938695 C47.885981,46.6636109 47.4342264,47.4829325 46.8083319,48.2694812 C45.9729646,49.3837585 45.0366465,50.235853 43.9918064,50.8257645 C42.9494901,51.4156761 41.8011755,51.7434047 40.5493863,51.8089505 C39.6458773,51.8744962 38.7423682,51.907269 37.8565255,51.9400419 C36.9706828,51.9728148 36.0999827,52.0055876 35.2671392,52.0711334 L34.5024373,52.0711334 L33.7377355,52.0711334 C31.3048228,52.1366791 28.7659118,52.169452 26.1083838,52.1366791 C23.4483319,52.1039062 20.6671392,52.0055876 17.7471392,51.8089505 C17.2600519,51.8089505 16.7401556,51.7761776 16.2177355,51.677859 C15.6953155,51.5795404 15.1754192,51.4156761 14.6883319,51.1534932 C13.368401,50.4980359 12.2907519,49.7114872 11.4377182,48.7610741 C10.5872083,47.8106611 9.96131374,46.6963837 9.54236819,45.3854692 C9.33289542,44.5989205 9.19408816,43.8123717 9.10828003,43.0737218 C9.02247191,42.3350719 8.98713915,41.6468418 8.98713915,41.0569302 L8.98713915,36.5317541 L8.98713915,32.0065779 C8.98713915,29.581386 8.98713915,27.1536731 8.98713915,24.7284812 C8.98713915,22.3032893 8.98713915,19.8755764 8.98713915,17.4503845 C8.98713915,17.0571101 8.98713915,16.6310629 8.98713915,16.2050157 C8.98713915,15.7789684 8.98713915,15.3529212 8.98713915,14.9596469 C8.98713915,13.8453695 8.98713915,12.763865 8.96947277,11.6974864 C8.9518064,10.6311079 8.91647364,9.58237624 8.84833189,8.53364461 C8.77766638,7.61600443 8.57071737,6.86222856 8.24010372,6.23954416 C7.90949006,5.61685975 7.45773552,5.1252668 6.90250648,4.73199243 C6.55422645,4.46980952 6.13780467,4.27317234 5.65071737,4.10930803 C5.16363008,3.94544371 4.60840104,3.81435225 3.98250648,3.6832608 C3.98250648,3.87989798 3.94717373,3.97821657 3.91184097,4.02863636 C3.88912705,4.07905615 3.8537943,4.07905615 3.8537943,4.07905615 Z" id="Shape" fill-rule="nonzero"></path>
                        </g>
                    </g>
                    <g fill="#020202" id="Path">
                        <polygon points="6.95129934 1.24032684 6.95129934 25.9586289 6.95129934 50.676931 23.0100375 50.676931 39.0687756 50.676931 39.0687756 53.6920345 39.0687756 56.7071379 19.6710919 56.7071379 0.27340824 56.7071379 0.27340824 28.9737324 0.27340824 1.24032684 3.60983002 1.24032684"></polygon>
                        <polygon points="54.3653356 56.7071379 51.0289139 56.7071379 47.6924921 56.7071379 47.6924921 28.9737324 47.6924921 1.24032684 51.0289139 1.24032684 54.3653356 1.24032684 54.3653356 28.9737324"></polygon>
                        <polygon points="110.539372 7.27053373 100.249968 7.27053373 89.9605647 7.27053373 89.9605647 31.9888358 89.9605647 56.7071379 86.6241429 56.7071379 83.2877211 56.7071379 83.2877211 31.9888358 83.2877211 7.27053373 72.9983175 7.27053373 62.7089139 7.27053373 62.7089139 4.25543028 62.7089139 1.24032684 86.5560012 1.24032684 110.403088 1.24032684 110.403088 4.25543028 110.403088 7.27053373 110.473754 7.27053373"></polygon>
                        <polygon points="176.169968 1.24032684 176.169968 28.9737324 176.169968 56.7071379 172.833547 56.7071379 169.497125 56.7071379 169.497125 33.7585705 169.497125 10.810003 158.581827 23.9897361 147.666528 37.1694693 136.612423 23.9897361 125.558317 10.810003 125.558317 33.7585705 125.558317 56.7071379 122.221896 56.7071379 118.885474 56.7071379 118.885474 28.9737324 118.885474 1.24032684 122.779649 1.24032684 126.673823 1.24032684 137.240841 14.42006 147.807859 27.5997931 158.165405 14.42006 168.525474 1.24032684 172.348983 1.24032684"></polygon>
                        <path d="M254.172077,9.76379235 C253.616848,10.2226124 253.129761,10.7142054 252.746148,11.2234453 C252.362535,11.7326852 252.084921,12.257051 251.946114,12.7814168 C251.736641,13.3713283 251.597833,13.9612399 251.512025,14.5511514 C251.426217,15.141063 251.390884,15.7309745 251.390884,16.3208861 C251.390884,16.9763433 251.529692,17.5662549 251.807306,18.1410405 C252.084921,18.7158261 252.501343,19.2729648 253.059095,19.8628763 C253.614324,20.3872421 254.275552,20.8788351 255.040254,21.3225292 C255.804955,21.7662234 256.673132,22.1594978 257.647306,22.4872264 C258.621481,22.8805007 259.628464,23.2082294 260.706114,23.5208321 C261.783763,23.8334348 262.932077,24.1283906 264.181343,24.4561192 C265.362466,24.7183021 266.578923,25.0132579 267.813045,25.3082136 C269.047168,25.6031694 270.298957,25.8981252 271.550746,26.1603081 C272.802535,26.422491 274.054324,26.7502196 275.288447,27.0955952 C276.52257,27.4409708 277.739026,27.8014723 278.92015,28.1292009 C280.101273,28.5224753 281.249588,28.9485225 282.344903,29.4249895 C283.440219,29.9014565 284.482535,30.4258223 285.45671,31.0157339 C287.541343,32.2611027 289.106079,33.7358816 290.148395,35.4577174 C291.190712,37.1795532 291.713132,39.145925 291.713132,41.3744798 C291.713132,43.9963088 291.190712,46.2929303 290.166062,48.274428 C289.141412,50.2584468 287.612008,51.9298628 285.595517,53.3063231 C283.510884,54.6827834 281.042639,55.6987421 278.190781,56.3718463 C275.341446,57.0449505 272.108499,57.3726792 268.491939,57.3726792 C264.390815,57.3726792 260.774255,56.9794048 257.62964,56.1752091 C254.482501,55.3710135 251.807306,54.1584175 249.581343,52.5197744 C247.635517,51.0777684 246.138923,49.3080337 245.061273,47.2256964 C243.983624,45.1433591 243.322397,42.75094 243.044782,40.0635652 L246.520012,40.0635652 L249.995241,40.0635652 C250.134048,41.9643913 250.689277,43.6358073 251.663451,45.0803343 C252.637626,46.5223403 254.028222,47.7349363 255.835241,48.7181222 C257.43531,49.5702166 259.277661,50.2256739 261.37996,50.6693681 C263.482259,51.1130622 265.84703,51.3424723 268.489415,51.3424723 C273.981135,51.3424723 278.117591,50.5231507 280.881118,48.8845075 C283.644644,47.2458643 285.035241,44.7878996 285.035241,41.5080922 C285.035241,40.3938148 284.792959,39.4106289 284.305872,38.5408876 C283.818784,37.6711462 283.089415,36.9173703 282.115241,36.261913 C281.141066,35.6064558 280.030608,35.0165442 278.778819,34.4921784 C277.52703,33.9678126 276.136433,33.5089925 274.60703,33.1157181 C273.077626,32.7224438 271.51289,32.3291694 269.897678,31.9358951 C268.282466,31.5426207 266.611731,31.1493463 264.875379,30.756072 C263.139026,30.3627976 261.468292,29.9367504 259.85308,29.4779303 C258.237868,29.0191102 256.673132,28.5275172 255.143728,28.0031514 C253.614324,27.4132399 252.259061,26.7577826 251.024938,26.0040067 C249.790815,25.2502309 248.677833,24.3981364 247.635517,23.4149505 C246.661343,22.4973103 245.931973,21.383033 245.444886,20.1048913 C244.957799,18.8267496 244.715517,17.3847436 244.715517,15.8091252 C244.715517,13.5150247 245.167272,11.4478133 246.088447,9.61253298 C247.009623,7.77725262 248.400219,6.17138231 250.277903,4.79240105 C252.084921,3.35039505 254.379026,2.26889055 257.160219,1.54788756 C259.941412,0.826884558 263.209692,0.466383058 266.962535,0.466383058 C270.715379,0.466383058 274.018992,0.859657421 276.903659,1.66385307 C279.788326,2.46804873 282.256572,3.68064468 284.343728,5.31928786 C286.221412,6.76129385 287.644817,8.39993703 288.636658,10.2377384 C289.628499,12.0730187 290.183728,14.1049363 290.322535,16.336012 L286.915448,16.336012 L283.508361,16.336012 C283.230746,14.0419115 282.291904,12.1385645 280.709502,10.6158868 C279.127099,9.09068816 276.903659,7.94363793 274.051801,7.15708921 C273.077626,6.8949063 271.931835,6.69826912 270.66238,6.56717766 C269.392924,6.43608621 268.002328,6.37054048 266.54359,6.37054048 C265.014186,6.37054048 263.62359,6.43608621 262.371801,6.58482459 C261.120012,6.73356297 260.00703,6.96297301 259.035379,7.29070165 C257.922397,7.68397601 256.983555,8.07725037 256.186044,8.48817166 C255.388534,8.87640405 254.72983,9.30245127 254.172077,9.76379235 Z"></path>
                    </g>
                    <polygon id="Path" fill="#F05A2B" points="47.6924921 0.71344003 51.0112475 0.71344003 54.3300029 0.71344003 54.3300029 17.9570082 54.3300029 35.2005765 51.0112475 35.2005765 47.6924921 35.2005765 47.6924921 17.9570082"></polygon>
                </g>
                <g id="Group">
                    <g>
                        <path d="M34.5659532,33.4732629 C36.150284,33.4732629 37.5845737,34.1092749 38.6246881,35.1349384 C39.6622595,36.1606019 40.3056554,37.5809448 40.3056554,39.1470928 C40.3056554,40.7132409 39.6622595,42.1310699 38.6246881,43.1592473 C37.5871168,44.1849108 36.150284,44.8209228 34.5659532,44.8209228 C32.9816225,44.8209228 31.5473327,44.1849108 30.5072183,43.1592473 C29.469647,42.1335837 28.8262511,40.7132409 28.8262511,39.1470928 C28.8262511,37.5809448 29.469647,36.1631158 30.5072183,35.1349384 C31.5447897,34.1092749 32.9790794,33.4732629 34.5659532,33.4732629 Z" id="Path" fill="#F05A2B"></path>
                        <g>
                            <path d="M43.4768599,81.1012567 C43.100486,81.1012567 42.721569,81.1389649 42.3248506,81.1565621 C41.9281321,81.1741592 41.5136122,81.1741592 41.0609463,81.1012567 C40.4556963,81.0258402 39.9648844,80.839813 39.5503645,80.5406612 C39.1358446,80.2415093 38.7950736,79.8317466 38.4924486,79.3088593 C37.9634907,78.2630848 37.5871168,77.1821158 37.4167313,76.0609248 C37.2463458,74.9422477 37.2844918,73.7833484 37.5871168,72.5892548 C37.9634907,71.0205929 38.5305946,69.5273475 39.2858855,68.1472267 C40.0411764,66.7671059 40.9846543,65.4975959 42.1188622,64.3764049 C42.6478201,63.8535176 43.176778,63.4060467 43.7413389,63.0515894 C44.3084428,62.6971322 44.9111497,62.4356885 45.5926916,62.2873696 C46.4980235,61.9882177 47.3677524,61.8776069 48.1993353,61.9706205 C49.0309182,62.0636341 49.821812,62.362786 50.5771029,62.8856733 C51.9376438,63.7077124 53.1074546,64.7157788 54.0509324,65.8897614 C54.9944103,67.0662578 55.7115551,68.4086703 56.1642211,69.9019158 C56.540595,71.0960094 56.578741,72.2172004 56.2964606,73.2604611 C56.0141801,74.3062357 55.4089302,75.2765939 54.5035983,76.1715356 C53.2193495,77.516462 51.7469137,78.597431 50.1422385,79.4194701 C48.5375632,80.2415093 46.8006485,80.7995909 44.9874417,81.0987428 C44.8374008,81.0987428 44.6848167,81.136451 44.5347758,81.1741592 C44.3847348,81.2118674 44.2321508,81.2495757 44.0821099,81.2495757 C44.0821099,81.1741592 44.0058178,81.136451 43.8939229,81.1188538 C43.782028,81.1012567 43.6269009,81.1012567 43.4768599,81.1012567 Z M44.5322327,80.5054668 C44.7585657,80.5054668 44.9848986,80.5054668 45.2112316,80.4878696 C45.4375646,80.4702725 45.6638975,80.4325643 45.8902305,80.3571478 C46.8718543,80.1334124 47.6652912,79.7236498 48.3061441,79.1429432 C48.946997,78.5622366 49.4378089,77.8181278 49.8167259,76.9231861 C49.9667668,76.6240342 50.0812049,76.289688 50.1574969,75.9352307 C50.2337889,75.5807735 50.2719349,75.2062052 50.2719349,74.8341508 C50.1956429,74.3866799 50.0074559,74.0498198 49.7251755,73.8813898 C49.442895,73.7129597 49.0639781,73.7129597 48.6113121,73.9366952 C48.5350201,74.0121116 48.4612712,74.0498198 48.3646346,74.0850142 C48.2705412,74.1227224 48.1561032,74.1604306 48.0060622,74.2333331 C47.9297702,74.3087496 47.8178752,74.3464578 47.7034372,74.3816521 C47.5889992,74.4193604 47.4771043,74.4570686 47.4008123,74.5299711 C47.0244384,74.6782901 46.6455214,74.6782901 46.2869489,74.5475683 C45.9283765,74.4168465 45.5876055,74.1554028 45.2875236,73.7833484 C45.0611906,73.411294 44.9467526,73.0744339 44.9467526,72.7375738 C44.9467526,72.4007137 45.0611906,72.0663675 45.2875236,71.6917992 C45.3638156,71.6163828 45.4375646,71.505772 45.5342011,71.3926474 C45.6308376,71.2795227 45.7427326,71.1689119 45.8927735,71.0934955 C46.1953985,70.7214411 46.2691475,70.2714563 46.139451,69.8994019 C46.0072116,69.5273475 45.6664406,69.2281956 45.1400257,69.1527792 C44.6136109,69.0773628 44.1202559,69.0396545 43.6294439,69.0773628 C43.138632,69.115071 42.6478201,69.2256817 42.1188622,69.4494172 C41.2135303,69.8214716 40.4200934,70.2714563 39.797042,70.8672462 C39.1739906,71.4655499 38.7213247,72.2121726 38.4949917,73.1825308 C38.3449508,73.9291535 38.3068048,74.6757762 38.3627522,75.4022879 C38.4186997,76.1313135 38.5712837,76.840228 38.7976167,77.5114343 C39.1002416,78.1826406 39.4766156,78.7432361 39.9674275,79.1907069 C40.4582394,79.6381778 41.0634894,79.9750379 41.8187802,80.1987733 C42.4240302,80.3470923 42.9148421,80.460217 43.3471635,80.5155223 C43.7769418,80.5808833 44.1558588,80.5808833 44.5322327,80.5054668 Z" id="Shape" fill="#FFFFFF" fill-rule="nonzero"></path>
                            <path d="M25.9551284,81.1012567 C24.1419217,81.0258402 22.3668609,80.8021048 20.6680922,80.3169257 C18.9693235,79.8317466 17.3443037,79.0851239 15.8337219,77.9664468 C15.3047639,77.5943924 14.775806,77.1821158 14.2849941,76.734645 C13.7941822,76.2871741 13.3415162,75.801995 12.9625992,75.2791077 C12.2836004,74.384166 11.8665374,73.4490022 11.7164964,72.4610469 C11.5664555,71.4730916 11.6783504,70.427317 12.0572674,69.3061259 C12.4336413,68.4111842 12.8507043,67.5514368 13.3415162,66.7495087 C13.8323282,65.9475806 14.3994321,65.2009579 15.078431,64.5297516 C15.7574299,63.9314479 16.4389718,63.3733662 17.1739182,62.9057843 C17.9114076,62.4382024 18.7023014,62.066148 19.6101763,61.8424126 C20.2891752,61.6940936 20.9325712,61.6940936 21.5556226,61.8047044 C22.178674,61.917829 22.7839239,62.1415644 23.3866308,62.4382024 C25.1235455,63.4085606 26.5578353,64.6026542 27.6920432,66.0204832 C28.823708,67.4383122 29.6552909,69.0823905 30.1842488,70.9476904 C30.4105818,71.6943131 30.5987687,72.4786441 30.7132068,73.262975 C30.8276448,74.0473059 30.8632477,74.8316369 30.7894988,75.5782596 C30.7132068,76.2494659 30.5631658,76.9231861 30.3368328,77.5742813 C30.1104999,78.2253765 29.8078749,78.8613885 29.431501,79.4596922 C29.0551271,79.9825795 28.5999181,80.3546339 28.0913047,80.5984804 C27.5826913,80.8423269 27.0155874,80.9529377 26.4103374,80.9529377 C26.3340454,81.0283541 26.2602965,81.0660623 26.1840045,81.0836595 C26.1077125,81.1012567 26.0314204,81.1012567 25.9551284,81.1012567 Z M17.9495536,74.9799559 C17.9495536,75.0553723 17.9495536,75.1659831 17.9495536,75.2967049 C17.9495536,75.4274267 17.9495536,75.5757457 17.9495536,75.7265786 C17.9495536,75.801995 17.9495536,75.9126058 17.9673551,76.0257305 C17.9851565,76.1388551 18.0233025,76.2494659 18.0995945,76.3248823 C18.4022195,77.3706569 18.8167394,78.2278904 19.4219894,78.9016106 C20.0272393,79.5728169 20.8181331,80.057996 21.876049,80.3571478 C22.178674,80.4325643 22.4812989,80.4702725 22.7813809,80.4878696 C23.0840058,80.5054668 23.3866308,80.5054668 23.6867127,80.5054668 C24.2919626,80.5808833 24.8565235,80.543175 25.3854814,80.4124532 C25.9144394,80.2817314 26.4052513,80.057996 26.8579172,79.7588441 C27.6895001,79.1605404 28.368499,78.4893341 28.8033635,77.687406 C29.2382279,76.8854778 29.4264149,75.9528279 29.2763739,74.8316369 C29.2000819,74.384166 28.9737489,74.0095977 28.6533225,73.8436816 C28.3328961,73.6777654 27.9158331,73.7129597 27.4631672,74.087528 C27.3868751,74.1629445 27.3131262,74.235847 27.2368342,74.2936663 C27.1605422,74.3489717 27.0867932,74.3866799 27.0105012,74.3866799 C26.7078763,74.5349989 26.4052513,74.6104153 26.1051694,74.5928182 C25.8050875,74.575221 25.4999195,74.4620963 25.1998375,74.2383609 C24.6708796,73.7908901 24.3682546,73.305711 24.3301086,72.8205319 C24.2919626,72.3353528 24.5182956,71.8501737 25.0472535,71.4027029 C25.1235455,71.3272864 25.1616915,71.2895782 25.1972945,71.2543839 C25.2354405,71.2166757 25.2735865,71.1789675 25.3473354,71.1060649 C25.5736684,70.8823295 25.6881064,70.658594 25.7059079,70.4348586 C25.7237093,70.2111232 25.6499604,69.9873878 25.4973764,69.7636523 C25.3473354,69.6153333 25.1947514,69.4645005 25.0243659,69.3538897 C24.8539804,69.240765 24.6657935,69.1678625 24.4394605,69.1678625 C24.1368356,69.1678625 23.8342106,69.1678625 23.5341287,69.1678625 C23.2340468,69.1678625 22.9288787,69.1678625 22.6287968,69.1678625 C21.344548,69.3915979 20.1747372,70.1005124 19.3253528,71.1286898 C18.4785115,72.1442978 17.9495536,73.4867104 17.9495536,74.9799559 Z" id="Shape" fill="#FFFFFF" fill-rule="nonzero"></path>
                            <path d="M54.9537212,105.737293 C54.9537212,105.513557 54.9155752,105.289822 54.8596277,105.066086 C54.8036802,104.842351 54.7273882,104.618616 54.6510962,104.39488 C54.5748042,104.39488 54.5366582,104.357172 54.5188567,104.301867 C54.5010553,104.246561 54.5010553,104.171145 54.5010553,104.095728 C54.4247633,103.871993 54.3484712,103.685966 54.2747223,103.497425 C54.1984303,103.311397 54.1221383,103.12537 54.0483893,102.899121 C53.3668474,101.554194 52.5708674,100.211782 51.6782509,98.9246746 C50.7881775,97.6375674 49.8014675,96.4057656 48.7410086,95.2845746 C47.8305906,94.3142164 46.8845697,93.4192747 45.8800582,92.5972355 C44.8755468,91.7751964 43.8150878,91.0285736 42.6783369,90.3573673 C41.4652939,89.6107446 40.214105,88.9772466 38.9069686,88.4920675 C37.5998321,88.0068884 36.2342052,87.6700283 34.7948293,87.5217093 C33.8081193,87.4462929 32.8239523,87.4840011 31.8575869,87.634834 C30.8912214,87.7856669 29.9426575,88.0445966 29.0347825,88.4191649 C27.9743236,88.7912193 26.9876136,89.3141066 26.0593942,89.9300075 C25.1311747,90.5459084 24.2589028,91.2548229 23.4247768,92.0014457 C22.3643179,92.9718038 21.3394619,94.0175784 20.3730964,95.1362556 C19.406731,96.2549327 18.496313,97.4515402 17.662187,98.7185363 C16.9806451,99.7643109 16.4109981,100.84528 15.9176431,101.94636 C15.4242881,103.04744 15.0072251,104.166117 14.6283081,105.287308 C14.4757241,105.734779 14.3638292,106.219958 14.2493911,106.725248 C14.1349531,107.228024 14.0230582,107.750912 13.8704742,108.273799 C13.9467662,108.349215 13.9467662,108.422118 13.9264216,108.497534 C13.9060771,108.572951 13.8704742,108.645853 13.8704742,108.72127 C13.8704742,110.961138 14.4019752,112.901854 15.4446326,114.525821 C16.4872901,116.149789 18.041104,117.457007 20.0882729,118.427365 C21.0749829,118.874836 22.0591498,119.249404 23.0636613,119.546042 C24.0681727,119.845194 25.0904857,120.06893 26.1534877,120.217249 C27.3665306,120.440984 28.6177196,120.589303 29.8689085,120.702428 C31.1200975,120.815552 32.3712864,120.888455 33.5843294,120.963871 C33.5843294,120.963871 33.6224754,120.926163 33.6606214,120.908566 C33.6987674,120.890969 33.7369134,120.890969 33.7369134,120.963871 L35.9341233,120.963871 L38.1313331,120.963871 C38.2076251,120.963871 38.2457711,120.963871 38.2839171,120.963871 C38.3220632,120.963871 38.3602092,120.963871 38.4365012,120.963871 C39.4232112,120.888455 40.3692321,120.815552 41.2974515,120.68483 C42.225671,120.554109 43.1360889,120.368081 44.0465069,120.06893 C45.8647998,119.546042 47.5330517,118.761711 49.0309182,117.736048 C50.5287846,116.710384 51.8537225,115.440874 52.9930165,113.947629 C53.9034345,112.678119 54.5468305,111.370901 54.8876014,110.010891 C55.2207432,108.648367 55.2563462,107.230538 54.9537212,105.737293 Z M47.2227976,111.858593 C46.1623386,113.276423 44.9492957,114.470516 43.5658673,115.423277 C42.1824388,116.376038 40.6286249,117.084953 38.884081,117.532423 C37.444705,117.979894 35.9646401,118.165921 34.4871182,118.110616 C33.0095962,118.055311 31.5295313,117.756159 30.0901553,117.233272 C28.1955704,116.562065 26.4891725,115.702318 24.9531601,114.638946 C23.4171476,113.575574 22.0540637,112.306064 20.8410207,110.812819 C20.8410207,110.812819 20.8028747,110.775111 20.7647287,110.719805 C20.7265827,110.6645 20.6884367,110.589083 20.6884367,110.513667 C21.2936867,110.812819 21.8633337,111.111971 22.4126361,111.408609 C22.9619386,111.707761 23.4934396,112.006912 24.0223975,112.30355 C25.3117325,112.901854 26.6010675,113.459936 27.9260053,113.945115 C29.2509432,114.430294 30.6165702,114.840057 32.0584892,115.139208 C33.8030331,115.511263 35.506888,115.586679 37.1751399,115.400652 C38.8433919,115.214625 40.4734978,114.767154 42.0654577,114.093434 C43.1259167,113.645963 44.1507727,113.085368 45.1349396,112.469467 C46.1216496,111.853566 47.0676705,111.182359 47.9780885,110.508639 C48.0543805,110.508639 48.0925265,110.470931 48.1306725,110.433223 C48.1688185,110.395515 48.2069645,110.357806 48.2832565,110.357806 C48.1306725,110.656958 47.9806315,110.918402 47.810246,111.159735 C47.6398606,111.401067 47.4491305,111.634858 47.2227976,111.858593 Z" id="Shape" fill="#AF8070" fill-rule="nonzero"></path>
                            <path d="M49.2165621,101.408389 C49.2165621,102.378747 48.9902291,103.238495 48.5757092,104.002715 C48.1611893,104.766935 47.5559394,105.440655 46.8006485,106.036445 C45.7427326,106.858484 44.6110678,107.605106 43.4209124,108.276313 C42.2307571,108.947519 40.9846543,109.545823 39.7004055,110.06871 C39.5503645,110.144126 39.3596345,110.181835 39.1714475,110.181835 C38.9832606,110.181835 38.7950736,110.144126 38.6424896,110.06871 C38.4161566,109.920391 38.2661157,109.73185 38.2076251,109.528226 C38.1516777,109.322087 38.1898237,109.098352 38.3398646,108.874616 C38.6424896,108.502562 38.9069686,108.090286 39.1714475,107.680523 C39.4359265,107.27076 39.7004055,106.858484 40.0030304,106.486429 C40.4556963,105.739807 40.8346133,104.955476 41.1168938,104.13595 C41.3991742,103.316425 41.5899042,102.456678 41.6636532,101.559222 C41.6636532,101.111751 41.7399452,100.626572 41.9103307,100.15899 C42.0807161,99.6914083 42.3451951,99.2439375 42.721569,98.8718831 C43.326819,98.2735793 44.1177128,97.9392331 44.9314942,97.8839277 C45.7427326,97.8286224 46.5743155,98.0523578 47.2533144,98.5752451 C47.5559394,98.7989805 47.8585643,99.0604242 48.1408448,99.339465 C48.4231252,99.6185058 48.6876042,99.9176577 48.9139371,100.21681 C48.908851,100.252004 48.9902291,100.438031 49.0690642,100.671822 C49.1478993,100.903099 49.2241913,101.184654 49.2165621,101.408389 Z" id="Path" fill="#060707"></path>
                            <path d="M21.1487319,100.181615 C21.3750648,99.8824633 21.6395438,99.5833115 21.9218242,99.3042706 C22.2041046,99.0252298 22.5067296,98.7637862 22.8093546,98.5400507 C23.4883535,98.0171634 24.3199364,97.793428 25.1311747,97.8487334 C25.9424131,97.9040388 26.73585,98.2408989 27.3410999,98.8366887 C27.7174739,99.2087432 27.9819528,99.6587279 28.1523383,100.123796 C28.3227238,100.591378 28.3990158,101.076557 28.3990158,101.524028 C28.4753078,102.418969 28.6634948,103.278717 28.9457752,104.100756 C29.2280556,104.922795 29.6069726,105.704612 30.0596385,106.451235 C30.3622635,106.823289 30.6267425,107.235566 30.8912214,107.645329 C31.1557004,108.055091 31.4201794,108.467368 31.7228043,108.839422 C31.8728453,109.063158 31.9109913,109.286893 31.8550438,109.493031 C31.7990964,109.69917 31.6465123,109.885197 31.4201794,110.033516 C31.2701384,110.108932 31.0794084,110.14664 30.8912214,110.14664 C30.7030345,110.14664 30.5148475,110.108932 30.3622635,110.033516 C29.0780147,109.510628 27.8319119,108.914839 26.6417565,108.241118 C25.4516012,107.569912 24.3199364,106.823289 23.2620205,106.00125 C22.5067296,105.402946 21.9014797,104.73174 21.4869598,103.96752 C21.0724398,103.2033 20.8461069,102.343553 20.8461069,101.373195 C20.8359346,101.149459 20.9147697,100.867905 20.9936048,100.634114 C21.0724398,100.400323 21.153818,100.21681 21.1487319,100.181615 Z" id="Path" fill="#060707"></path>
                            <path d="M20.8206762,110.6645 C21.3496341,110.963652 21.8785921,111.262804 22.4253515,111.559442 C22.9721109,111.858593 23.5392148,112.157745 24.1444648,112.454383 C25.4287136,113.12559 26.7511084,113.723893 28.0913047,114.209072 C29.431501,114.694252 30.7920418,115.06882 32.1500396,115.292555 C33.8869543,115.591707 35.5857231,115.66461 37.2488889,115.498694 C38.9120547,115.332777 40.5345314,114.920501 42.1188622,114.249295 C43.176778,113.801824 44.1965479,113.241228 45.1781717,112.625327 C46.1597956,112.009426 47.1032734,111.33822 48.0111483,110.6645 C48.0874403,110.6645 48.1255864,110.626792 48.1611893,110.589083 C48.1993353,110.551375 48.2374813,110.513667 48.3112302,110.513667 C48.1611893,110.812819 48.0086053,111.074263 47.8585643,111.315595 C47.7085234,111.556928 47.5559394,111.783177 47.4058984,112.006912 C46.3479825,113.424741 45.1400257,114.618835 43.7616834,115.571596 C42.3833411,116.524357 40.8346133,117.233272 39.0976986,117.680742 C37.5871168,118.052797 36.114681,118.20363 34.6600467,118.148324 C33.2054124,118.093019 31.7711226,117.831575 30.3368328,117.384104 C28.5236261,116.785801 26.8248573,115.966275 25.2761296,114.902904 C23.7274018,113.839532 22.331258,112.532314 21.1233012,110.966166 C21.0470092,110.890749 20.9732602,110.853041 20.9147697,110.817847 C20.8588222,110.777625 20.8206762,110.739916 20.8206762,110.6645 Z" id="Path" fill="#FFFFFF"></path>
                            <path d="M33.9607033,27.3519621 C33.2817044,27.2036431 32.7527465,26.8290748 32.4119755,26.3262986 C32.0712045,25.8235223 31.9211636,25.1875104 31.9974556,24.5163041 C32.1474965,23.8450978 32.5264135,23.3222105 33.0350269,22.9853504 C33.5436403,22.6484903 34.1870362,22.5001714 34.8660351,22.5755878 C35.0923681,22.6510042 35.280555,22.7239068 35.4509405,22.7993232 C35.621326,22.8747397 35.771367,22.9476422 35.923951,23.0230587 C36.4529089,23.3951131 36.7555339,23.9557086 36.8292828,24.5540123 C36.9055748,25.1523161 36.7529908,25.7858141 36.3766169,26.3087014 C36.150284,26.5324368 35.923951,26.7561723 35.659472,26.9246023 C35.3949931,27.0930324 35.0923681,27.2036431 34.7159942,27.2036431 C34.6397022,27.3519621 34.5278072,27.3896703 34.3955677,27.3896703 C34.2633283,27.3896703 34.1107442,27.3519621 33.9607033,27.3519621 Z" id="Path" fill="#F05A2B"></path>
                            <path d="M33.9607033,27.3519621 C34.1107442,27.3519621 34.2251823,27.3519621 34.3370772,27.3519621 C34.4489721,27.3519621 34.5634102,27.3519621 34.7134511,27.3519621 C34.7134511,28.2469038 34.7134511,29.1066512 34.7134511,29.9638847 C34.7134511,30.8211182 34.7134511,31.6808656 34.7134511,32.5758073 C34.7134511,32.7241263 34.7134511,32.837251 34.7134511,32.9478617 C34.7134511,33.0609864 34.7134511,33.1715972 34.7134511,33.3199162 C34.5634102,33.3199162 34.4489721,33.3199162 34.3370772,33.3199162 C34.2251823,33.3199162 34.1107442,33.3199162 33.9607033,33.3199162 L33.9607033,30.3334253 L33.9607033,27.3519621 Z" id="Path" fill="#060707"></path>
                            <path d="M27.4657102,36.4597538 C27.3894182,36.3114348 27.3512722,36.1228937 27.3156693,35.9368665 C27.2800663,35.7508393 27.2393773,35.5648121 27.1656283,35.4139792 C27.0893363,35.0419248 27.0511903,34.6673565 27.0511903,34.3128992 C27.0511903,33.958442 27.0893363,33.6215819 27.1656283,33.3249439 L27.1656283,33.2495275 L27.1656283,33.174111 C27.2419203,33.6969983 27.2800663,34.2575939 27.3156693,34.8156755 C27.3538153,35.376271 27.3894182,35.9368665 27.4657102,36.4597538 Z" id="Path" fill="#4B3938"></path>
                            <path d="M44.5322327,80.5054668 C44.1558588,80.5054668 43.7769418,80.5054668 43.4005679,80.4677586 C43.024194,80.4300504 42.645277,80.3546339 42.2689031,80.2063149 C41.5136122,79.9825795 40.9083623,79.6457194 40.4175503,79.1982486 C39.9267384,78.7507777 39.5478214,78.1901822 39.2477395,77.5189759 C38.9451146,76.8477696 38.7569276,76.1388551 38.7009801,75.4098296 C38.6450327,74.680804 38.7187816,73.9341813 38.9476576,73.1900724 C39.1739906,72.2197143 39.6266565,71.4353833 40.2497079,70.8194824 C40.8727593,70.2035815 41.6661962,69.7561107 42.5715281,69.4569588 C43.024194,69.3086398 43.5150059,69.1955152 44.0261624,69.1402098 C44.5347758,69.0849044 45.0637337,69.0849044 45.5926916,69.1578069 C46.0453576,69.2332234 46.3861285,69.5298614 46.5361695,69.9044297 C46.6862104,70.2764841 46.6506075,70.7264688 46.3479825,71.0985233 C46.2716905,71.1739397 46.1597956,71.2845505 46.0453576,71.3976751 C45.9309196,71.5107998 45.8190246,71.6214106 45.7427326,71.696827 C45.4401076,72.0688814 45.2900667,72.4057415 45.2900667,72.7426016 C45.2900667,73.0794617 45.4401076,73.4138079 45.7427326,73.7883762 C46.0453576,74.1604306 46.3479825,74.4218742 46.6862104,74.5525961 C47.0269814,74.6833179 47.4033553,74.6833179 47.8560213,74.5349989 C48.0060622,74.4595825 48.1205002,74.4218742 48.2145937,74.3866799 C48.3086872,74.3514856 48.3849792,74.3112635 48.4612712,74.2383609 C48.5375632,74.1629445 48.6113121,74.1252363 48.7079487,74.0900419 C48.8045852,74.0548476 48.9164802,74.0146255 49.0665211,73.9417229 C49.442895,73.7934039 49.821812,73.8285983 50.124437,73.9970283 C50.427062,74.1654584 50.6533949,74.4646102 50.7296869,74.8366646 C50.8059789,75.2087191 50.7678329,75.5455792 50.6737395,75.8824392 C50.579646,76.2192993 50.427062,76.5536455 50.277021,76.9282138 C49.9006471,77.8231555 49.4072921,78.5697783 48.7664392,79.147971 C48.1255864,79.7261636 47.3321495,80.1359263 46.3505256,80.3621756 C45.8978597,80.437592 45.5570887,80.5104946 45.2748083,80.5482028 C44.9874417,80.5808833 44.7611087,80.5808833 44.5322327,80.5054668 Z" id="Path" fill="#060707"></path>
                            <path d="M17.9495536,74.9799559 C17.9495536,73.4867104 18.4403655,72.1442978 19.2897499,71.1161204 C20.1391343,70.0904569 21.3470911,69.3815424 22.7813809,69.1552931 C23.0840058,69.0798766 23.3866308,69.0421684 23.6867127,69.0421684 C23.9867946,69.0421684 24.2919626,69.0798766 24.5920445,69.1552931 C24.8183775,69.1552931 25.0065645,69.2307095 25.1769499,69.3413203 C25.3473354,69.4544449 25.4973764,69.6027639 25.6499604,69.7510829 C25.8000014,69.9748183 25.8762934,70.1985538 25.8584919,70.4222892 C25.8406904,70.6460246 25.7262524,70.8697601 25.4999195,71.0934955 C25.4236274,71.1689119 25.3854814,71.2066202 25.3498785,71.2418145 C25.3117325,71.2795227 25.2735865,71.3172309 25.1998375,71.3901335 C24.6708796,71.8376043 24.4445467,72.3604916 24.4826927,72.8657818 C24.5208387,73.3710719 24.8234636,73.8537371 25.3524216,74.2283054 C25.6550465,74.4520408 25.9576715,74.5651655 26.2577534,74.5827626 C26.5578353,74.6003598 26.8630034,74.5274573 27.1630853,74.3766244 C27.2393773,74.3012079 27.3131262,74.2634997 27.3894182,74.2283054 C27.4657102,74.193111 27.5394592,74.152889 27.6157512,74.0799864 C28.0684171,73.707932 28.4854801,73.6702238 28.8059065,73.8361399 C29.126333,74.0020561 29.3526659,74.3766244 29.4289579,74.8240952 C29.5052499,75.8698698 29.3145199,76.8025198 28.9,77.6245589 C28.4854801,78.4465981 27.8420841,79.1555126 27.0130443,79.7513024 C26.5603784,80.0504543 26.0695665,80.2741897 25.5406085,80.4049116 C25.0116506,80.5356334 24.4445467,80.5733416 23.8418398,80.4979252 C23.5392148,80.4979252 23.2365898,80.4979252 22.9365079,80.480328 C22.633883,80.4627308 22.331258,80.4250226 22.0311761,80.3496062 C20.9732602,80.0504543 20.1442204,79.527567 19.521169,78.8387636 C18.8981176,78.1474462 18.4835977,77.2902127 18.2572647,76.3198546 C18.2572647,76.2444381 18.2191187,76.1338274 18.1809727,76.0207027 C18.1428267,75.907578 18.1046807,75.7969673 18.1046807,75.7215508 C18.1046807,75.5732318 18.0665347,75.422399 18.0283887,75.2916771 C17.9902427,75.1609553 17.9495536,75.0553723 17.9495536,74.9799559 Z" id="Path" fill="#060707"></path>
                            <path d="M67.9437073,13.6161151 C67.8674153,11.7508152 67.5291874,9.99612613 66.8476454,8.37215885 C66.1686466,6.74819158 65.1488767,5.25494613 63.7145869,3.91253355 C62.8092551,3.09049439 61.8276312,2.38157989 60.7697154,1.84109542 C59.7117995,1.30061096 58.5801347,0.926042655 57.3721779,0.777723662 C55.8615961,0.553988233 54.4654523,0.62940467 53.199005,1.03916731 C51.9325576,1.44892995 50.8008928,2.19555268 49.819269,3.3167437 C48.8376451,4.36251829 48.0442082,5.48119544 47.3830108,6.67528902 C46.7218134,7.86938261 46.1928555,9.13889263 45.7401895,10.4838191 C45.1349396,12.2762164 44.5703787,14.1038081 44.0795668,15.9716218 C43.5887549,17.8369217 43.1742349,19.7424436 42.87161,21.68316 C42.645277,22.95267 42.4570901,24.1844718 42.304506,25.4162736 C42.1544651,26.6480754 42.0400271,27.8798772 41.9637351,29.1493872 C41.8136941,30.3434808 41.6992561,31.5752826 41.6051626,32.8070844 C41.5110691,34.0388862 41.4347771,35.270688 41.3584851,36.4647816 C41.4347771,36.4647816 41.4729231,36.4270734 41.5085261,36.3893651 C41.5466721,36.3516569 41.5848181,36.3139487 41.658567,36.3139487 L41.582275,36.3139487 L41.505983,36.3139487 L39.0137774,38.3300814 L36.5215717,40.3462142 L32.6688253,39.8233269 L28.8160788,39.3004396 L28.3634129,38.4054979 L27.9107469,37.5105562 C27.760706,36.540198 27.608122,35.4944234 27.496227,34.5994817 C27.381789,33.70454 27.3080401,32.9579173 27.3080401,32.583349 C27.2317481,31.5375744 27.1579991,30.4943137 27.0817071,29.4485391 C27.0054151,28.4027645 26.9316662,27.3595038 26.8553741,26.3137292 C26.7053332,25.0442192 26.5527492,23.8124174 26.3645622,22.5806156 C26.1763753,21.3488138 25.9500423,20.117012 25.6474173,18.8475019 C25.3447924,17.8017273 25.0803134,16.6830502 24.798033,15.544262 C24.5157525,14.4054738 24.2131276,13.2490884 23.8342106,12.1278974 C23.3815447,10.782971 22.8907327,9.47826659 22.3058273,8.22635374 C21.7209219,6.97695477 21.041923,5.78034731 20.2103401,4.66167016 C19.6813822,3.91504744 19.1142783,3.24384115 18.4556239,2.68324563 C17.7944265,2.12265012 17.0391356,1.67517926 16.1338038,1.37602739 C15.8311788,1.15229197 15.4929509,1.00397297 15.1343784,0.908445486 C14.775806,0.815431881 14.396889,0.777723662 14.0205151,0.777723662 L13.9442231,0.777723662 L13.8679311,0.777723662 L13.0363482,0.777723662 L12.2047653,0.777723662 C11.9784323,0.853140099 11.7139534,0.890848318 11.4494744,0.926042655 C11.1849954,0.963750873 10.9205165,1.00145909 10.6941835,1.07436165 C8.88097675,1.59724894 7.25850002,2.34387167 5.88015771,3.36953521 C4.50181541,4.39519875 3.37015061,5.70241699 2.53856771,7.34398143 C2.08590178,8.23892315 1.74513081,9.17408696 1.48065184,10.1243341 C1.21617288,11.0770951 1.02798592,12.0474532 0.875401902,13.0178114 C0.875401902,13.3169632 0.875401902,13.6161151 0.875401902,13.9127531 C0.875401902,14.2119049 0.875401902,14.5110568 0.875401902,14.8076948 L0.875401902,14.8831112 L0.875401902,14.9585277 L0.875401902,15.4059985 L0.875401902,15.8534694 C0.951693911,15.8534694 0.951693911,15.8911776 0.931349376,15.9288858 C0.913547907,15.966594 0.875401902,16.0043023 0.875401902,16.0043023 C0.875401902,17.0500769 0.951693911,18.0581432 1.08393339,19.0460985 C1.21617288,20.0340539 1.40435983,21.0069259 1.63069279,21.9772841 C2.15965073,24.7400395 2.91494162,27.3896703 3.82027346,29.9839958 C4.72560531,32.5783212 5.78352117,35.1173412 6.91772904,37.6538474 C7.82306089,39.7428827 8.80468474,41.7590154 9.84479913,43.757551 C10.8823705,45.7535727 11.9784323,47.7319972 13.1100971,49.74813 C13.1100971,49.8235464 13.1482431,49.8612546 13.1863891,49.896449 C13.2245351,49.9341572 13.2626812,49.9718654 13.2626812,50.044768 C13.4127221,50.2685034 13.4508681,50.4545306 13.4127221,50.6430717 C13.3745761,50.8290989 13.2626812,51.0151261 13.1100971,51.2413754 C12.8074722,51.5405273 12.5048472,51.8396792 12.2047653,52.1564282 C11.9046834,52.4731772 11.5995153,52.8100373 11.2994334,53.1820917 C10.2415176,54.4516018 9.33618574,55.7940143 8.59869631,57.2143572 C7.86120689,58.6321862 7.29664602,60.1254317 6.91772904,61.6940936 C6.69139608,62.5890353 6.57695807,63.4864909 6.52101059,64.3814326 C6.46506312,65.2763743 6.46506312,66.1738299 6.46506312,67.0687716 C6.54135513,67.8908108 6.61510407,68.7103361 6.69139608,69.5323753 C6.76768809,70.3544144 6.84143703,71.1739397 6.91772904,71.9959789 C6.99402105,72.8909206 7.06776999,73.7883762 7.144062,74.7009151 C7.22035401,75.6159678 7.29410295,76.5486178 7.37039496,77.5189759 C7.44668697,78.3410151 7.48483298,79.1228321 7.52043592,79.9071631 C7.55858192,80.691494 7.59672793,81.475825 7.67047687,82.2953502 C7.74676888,82.893654 7.82051782,83.4894438 7.89680983,84.0877476 C7.97310184,84.6860513 8.04685078,85.2818411 8.12314279,85.8801449 C8.1994348,86.5513512 8.2375808,87.2602657 8.27318374,87.9691802 C8.31132975,88.6780947 8.34947575,89.3870092 8.42322469,90.0582155 C8.4995167,91.1768926 8.57326564,92.2980837 8.68770366,93.4167608 C8.80214167,94.5354379 8.95218262,95.656629 9.17851559,96.7753061 C9.32855654,97.6702478 9.5930355,98.6054117 9.91600501,99.5380616 C10.2389745,100.470712 10.6153484,101.403361 10.9917223,102.300817 C11.4443883,103.419494 11.8970542,104.502977 12.3522632,105.58646 C12.8049291,106.669943 13.257595,107.750912 13.712804,108.872103 C13.712804,108.872103 13.712804,108.909811 13.7306055,108.965116 C13.7484069,109.020422 13.7865529,109.095838 13.862845,109.171254 C13.862845,109.022935 13.900991,108.872103 13.939137,108.741381 C13.977283,108.610659 14.015429,108.497534 14.015429,108.424632 C14.1654699,107.901744 14.2799079,107.378857 14.3918029,106.876081 C14.5062409,106.373305 14.6181359,105.888126 14.7681768,105.438141 C15.1445507,104.319464 15.5616137,103.198273 16.0524256,102.097193 C16.5432376,100.996113 17.1103415,99.9126299 17.7893404,98.8693692 C18.6209233,97.5998592 19.5262551,96.4057656 20.4900775,95.2870884 C21.4538999,94.1684113 22.4736697,93.1226367 23.5290425,92.1522785 C24.3606254,91.4056558 25.2278113,90.6967413 26.1534877,90.0808404 C27.079164,89.4649395 28.0607879,88.9420522 29.1187038,88.5699978 C30.0240356,88.1979434 30.9700565,87.9364997 31.9313358,87.7856669 C32.8951582,87.6373479 33.8767821,87.5996396 34.8584059,87.6725422 C36.2926957,87.8208612 37.6532365,88.1577213 38.9552868,88.6429003 C40.2573371,89.1280794 41.5034399,89.7615775 42.7113968,90.5082002 C43.8430616,91.1794065 44.9009774,91.9260292 45.9029458,92.7480684 C46.9023711,93.5701076 47.8483921,94.4650493 48.7537239,95.4354074 C49.8116398,96.5540846 50.7932636,97.7858864 51.680794,99.0755074 C52.5683244,100.362615 53.3617613,101.707541 54.0407601,103.049954 C54.1170522,103.273689 54.1908011,103.497425 54.2670931,103.703563 C54.3433851,103.909701 54.4171341,104.095728 54.4934261,104.244047 C54.4934261,104.319464 54.4934261,104.357172 54.5112275,104.392366 C54.529029,104.430074 54.567175,104.467783 54.643467,104.540685 C55.248717,103.122856 55.8132778,101.705027 56.3040898,100.267087 C56.7949017,98.8291471 57.2094216,97.3736099 57.5120466,95.8803644 C57.6620875,95.1337417 57.8146715,94.3494107 57.946911,93.5650798 C58.0791505,92.7807489 58.1935885,91.9964179 58.2673375,91.2497952 C58.4173784,90.131118 58.6081084,89.0476352 58.7962954,87.9641524 C58.9844824,86.8806696 59.1726693,85.7997007 59.3252533,84.6785097 C59.5515863,83.5598325 59.7397732,82.4009333 59.9101587,81.2445479 C60.0805442,80.0881625 60.2305852,78.9292633 60.3831692,77.8105861 C60.5332101,76.9156444 60.6476482,76.0181888 60.7595431,75.1232471 C60.8739811,74.2283054 60.9858761,73.3308498 61.135917,72.4359081 C61.212209,71.6892853 61.285958,70.9426626 61.3825945,70.2161509 C61.476688,69.4871254 61.591126,68.7782109 61.741167,68.1070046 C61.817459,67.4357983 61.8912079,66.7997864 61.9674999,66.1662883 C62.0437919,65.5327902 62.1175409,64.8967783 62.1938329,64.225572 C62.2701249,63.4035328 62.2701249,62.5462993 62.1938329,61.6865519 C62.1175409,60.8268046 61.9674999,59.9695711 61.741167,59.1475319 C61.514834,58.0288548 61.174063,56.9453719 60.7035956,55.9197084 C60.2305852,54.8940449 59.6278783,53.9236867 58.8725874,53.0262311 C58.4962135,52.5787603 58.1172965,52.1664837 57.7409226,51.7944293 C57.3645487,51.4223749 56.9856317,51.0855148 56.6092578,50.7863629 L56.5329658,50.7109465 L56.4566738,50.6355301 C56.1540488,50.4117946 56.0040079,50.2257674 55.9658618,50.002032 C55.9277158,49.7782966 56.0040079,49.5168529 56.1540488,49.1422846 C56.4566738,48.6948138 56.7211527,48.2473429 56.9652872,47.7973582 C57.2119647,47.3498873 57.4382976,46.9024164 57.6646306,46.4524317 C59.2515044,43.3905244 60.7620862,40.3311309 62.1404285,37.2139182 C63.5187708,34.0967055 64.7648736,30.9241874 65.8227895,27.6385446 C66.2754554,26.2936181 66.6162264,24.9512056 66.8985068,23.6062791 C67.1807872,22.2613526 67.4071202,20.9189401 67.6359962,19.5740136 C67.7122882,19.1265427 67.7504342,18.6790719 67.7682357,18.2290871 C67.7860372,17.7816163 67.7860372,17.3341454 67.7860372,16.8841607 L67.8623292,15.2425962 L67.9437073,13.6161151 Z M30.7894988,75.7265786 C30.7132068,76.3977849 30.5631658,77.0715051 30.3368328,77.7226003 C30.1104999,78.3736955 29.8078749,79.0097075 29.431501,79.6080112 C29.0551271,80.1308985 28.5999181,80.5029529 28.0913047,80.7467994 C27.5826913,80.9906459 27.0155874,81.1012567 26.4103374,81.1012567 C26.3340454,81.1012567 26.2602965,81.1012567 26.1840045,81.1012567 C26.1077125,81.1012567 26.0339635,81.1012567 25.9576715,81.1012567 C24.1444648,81.0258402 22.369404,80.8021048 20.6706353,80.3169257 C18.9718665,79.8317466 17.3468467,79.0851239 15.8362649,77.9664468 C15.307307,77.5943924 14.7783491,77.1821158 14.2875371,76.734645 C13.7967252,76.2871741 13.3440593,75.801995 12.9651423,75.2791077 C12.2861434,74.384166 11.8690804,73.4490022 11.7190395,72.4610469 C11.5689985,71.4730916 11.6808935,70.427317 12.0598105,69.3061259 C12.4361844,68.4111842 12.8532474,67.5514368 13.3440593,66.7495087 C13.8348712,65.9475806 14.4019752,65.2009579 15.080974,64.5297516 C15.7599729,63.8585453 16.4415149,63.2979498 17.1764612,62.8504789 C17.9114076,62.4030081 18.7048445,62.066148 19.6127194,61.8424126 C20.2917183,61.6940936 20.9351142,61.6940936 21.5581656,61.8047044 C22.181217,61.9153151 22.786467,62.1415644 23.3891739,62.4382024 C25.1260886,63.4085606 26.5222324,64.6026542 27.6360957,66.0204832 C28.749959,67.4383122 29.581542,69.0823905 30.1842488,70.9476904 C30.4105818,71.7697295 30.5987687,72.5515466 30.7132068,73.3358776 C30.8276448,74.1202085 30.8632477,74.9070533 30.7894988,75.7265786 Z M56.314262,69.7561107 C56.6906359,70.9502043 56.7287819,72.0713953 56.4465015,73.114656 C56.1642211,74.1604306 55.5589711,75.1307887 54.6536393,76.0257305 C53.3693905,77.3706569 51.8969547,78.4516259 50.2922794,79.273665 C48.6876042,80.0957042 46.9506894,80.6537858 45.1374827,80.9529377 C44.9874417,80.9529377 44.8348577,80.9906459 44.6848167,81.0283541 C44.5347758,81.0660623 44.3821918,81.1037705 44.2321508,81.1037705 C44.0821099,81.1037705 43.9295258,81.1037705 43.7794849,81.1037705 C43.6294439,81.1037705 43.4768599,81.1037705 43.326819,81.1037705 C42.9504451,81.1037705 42.5715281,81.1414788 42.1748096,81.1590759 C41.7780912,81.1766731 41.3635713,81.1766731 40.9109053,81.1037705 C40.3056554,81.0283541 39.8148435,80.8423269 39.4003236,80.543175 C38.9858036,80.2440232 38.6450327,79.8342605 38.3424077,79.3113732 C37.8134498,78.2655986 37.4370758,77.1846297 37.2666904,76.0634387 C37.0963049,74.9447615 37.1344509,73.7858623 37.4370758,72.5917687 C37.8134498,71.0231068 38.3805537,69.5298614 39.1358446,68.1497406 C39.8911355,66.7696198 40.8346133,65.5001098 41.9688212,64.3789187 C42.4977791,63.8560314 43.0267371,63.4085606 43.5912979,63.0541033 C44.1584019,62.6996461 44.7611087,62.4382024 45.4426507,62.2898834 C46.3479825,61.9907316 47.2177114,61.8801208 48.0492943,61.9731344 C48.8808772,62.066148 49.6717711,62.3652999 50.427062,62.8881872 C51.9376438,63.6348099 53.1837466,64.605168 54.1653704,65.7615534 C55.1444512,66.9179388 55.8615961,68.2628652 56.314262,69.7561107 Z" id="Shape" fill="#563A39" fill-rule="nonzero"></path>
                            <path d="M22.7839239,41.53528 C22.7076319,41.9827509 22.595737,42.4302217 22.4812989,42.8600954 C22.3668609,43.2899691 22.254966,43.6997318 22.178674,44.0743001 C22.028633,44.6726038 21.837903,45.3061019 21.5937686,45.9220028 C21.3496341,46.5379037 21.0470092,47.1362074 20.6680922,47.6565808 C20.3654672,48.1040517 20.1391343,48.3654953 19.8746553,48.4208007 C19.6101763,48.4761061 19.3075514,48.3277871 18.8548854,47.9532188 C18.0233025,47.2820125 17.3061576,46.5353898 16.6449602,45.7334617 C15.9837628,44.9315336 15.3810559,44.0717862 14.775806,43.1768445 C12.8888503,40.5649219 11.1875385,37.8021664 9.73544725,34.8910919 C8.28335601,31.9800175 7.07285613,28.9181101 6.16752428,25.7078838 C5.71485836,24.3629573 5.33594138,22.9828366 5.03585948,21.5826047 C4.73577757,20.1823729 4.50690155,18.7645438 4.35686059,17.3467148 C4.20681964,16.2280377 4.13052763,15.1068467 4.20681964,14.0057667 C4.28311165,12.9046867 4.50944461,11.8212039 4.96211054,10.7779432 C5.1884435,10.1067369 5.45292246,9.47072495 5.79369344,8.89253227 C6.13446441,8.31433958 6.54898433,7.79145229 7.07794226,7.34398143 C7.83323315,6.7456777 8.66481606,6.26049862 9.5701479,5.92615242 C10.4754797,5.58929233 11.4571036,5.40326512 12.5150195,5.40326512 C13.2703104,5.40326512 13.9493092,5.58929233 14.5927052,5.90604137 C15.2361011,6.2227904 15.838808,6.67026126 16.4440579,7.19314856 C17.0493079,7.71603585 17.5401198,8.3118257 17.9724412,8.94783765 C18.4073056,9.58133572 18.7836796,10.2550559 19.1625965,10.9262622 C19.9178874,12.3440912 20.5231374,13.8373366 21.0139493,15.3682903 C21.5047612,16.899244 21.8836782,18.465392 22.1837601,20.0340539 C22.4100931,21.4518829 22.636426,22.8697119 22.824613,24.2900548 C23.0127999,25.7078838 23.165384,27.1257128 23.2391329,28.5460557 C23.3154249,29.3680949 23.3535709,30.2253284 23.3713724,31.0850757 C23.3891739,31.9448231 23.3891739,32.8020566 23.3891739,33.6240958 C23.3891739,33.7724148 23.3891739,33.9232477 23.3891739,34.0715666 C23.3891739,34.2198856 23.3891739,34.3707185 23.3891739,34.5190375 C23.3891739,34.5944539 23.3891739,34.6321622 23.3891739,34.6673565 C23.3891739,34.7025508 23.3891739,34.7427729 23.3891739,34.8156755 C23.1628409,35.5622982 23.0127999,36.3466292 22.9161634,37.1485573 C22.8220699,37.9504854 22.7839239,38.7725245 22.7839239,39.5945637 C22.7076319,39.8937156 22.6694859,40.2280618 22.6694859,40.5649219 C22.6694859,40.9017819 22.7076319,41.238642 22.7839239,41.53528 Z" id="Path" fill="#F05A2B"></path>
                            <path d="M45.8927735,40.6403383 C45.8164815,40.3411864 45.7427326,39.3708283 45.6664406,38.4004701 C45.5901486,37.430112 45.5163996,36.4597538 45.4401076,36.1606019 C45.4401076,35.7885475 45.4019616,35.4516874 45.3638156,35.1148274 C45.3256696,34.7779673 45.2875236,34.4436211 45.2875236,34.0690528 C45.2875236,33.3978465 45.2875236,32.7241263 45.2875236,32.05292 C45.2875236,31.3817137 45.2875236,30.7079936 45.2875236,30.0367873 C45.2875236,29.5893164 45.3256696,29.1770399 45.3638156,28.7873883 C45.4019616,28.3952228 45.4401076,28.0231684 45.4401076,27.6486001 C45.5163996,26.7536584 45.5901486,25.8562028 45.6867851,24.9788582 C45.7808786,24.1015137 45.8953166,23.2442802 46.0453576,22.422241 C46.1953985,21.2281475 46.3861285,20.0717621 46.630263,18.9329739 C46.8769405,17.7941857 47.1770224,16.6755085 47.5559394,15.5543175 C47.9323133,14.4356404 48.3493762,13.3521576 48.8401882,12.2887858 C49.3310001,11.225414 49.898104,10.1796395 50.5771029,9.13386486 C50.8797279,8.68639401 51.2179558,8.27411748 51.5968728,7.88446589 C51.9732467,7.49230042 52.3903097,7.120246 52.8429756,6.7456777 C53.5982665,6.14737397 54.3917034,5.77531954 55.2207432,5.6068895 C56.0523261,5.43845946 56.919512,5.47616768 57.8273869,5.69990311 C58.6589698,5.92363854 59.4880096,6.2227904 60.2433005,6.63255304 C60.9985914,7.04231568 61.6775903,7.56520298 62.2065482,8.23640927 C62.8117982,8.98303199 63.2644641,9.76736293 63.5848905,10.6069993 C63.905317,11.4466356 64.0935039,12.3415773 64.1697959,13.3119355 C64.3198369,14.506029 64.3198369,15.6624144 64.2257434,16.8012026 C64.1316499,17.9399908 63.943463,19.058668 63.71713,20.179859 C63.2644641,22.6434626 62.6210681,25.1070662 61.8098298,27.5153644 C60.9985914,29.9236626 60.0169675,32.2741416 58.8827597,34.5140097 C57.9774278,36.3793096 56.995804,38.2094151 55.9175436,39.9817014 C54.8418262,41.7539877 53.6720154,43.4709686 52.3877666,45.1150469 C52.0113927,45.6379342 51.5561837,46.1608215 51.0857163,46.6635977 C50.6127059,47.166374 50.1218939,47.651553 49.669228,48.1015378 C49.2165621,48.4735922 48.8757911,48.6621333 48.5935107,48.6244251 C48.3112302,48.5867169 48.0848973,48.3252732 47.8560213,47.8023859 C47.4796473,47.0557632 47.1388764,46.3091405 46.8565959,45.5449206 C46.5743155,44.7807007 46.3479825,43.9963697 46.1953985,43.1743306 C46.2716905,43.1743306 46.2716905,42.9883034 46.2132,42.5760268 C46.1572525,42.171292 46.0428145,41.53528 45.8927735,40.6403383 Z" id="Path" fill="#F05A2B"></path>
                            <path d="M45.5901486,36.9072247 C45.7401895,37.3546955 45.8927735,37.8021664 46.025013,38.2697483 C46.1572525,38.7373302 46.2716905,39.2225093 46.3454395,39.7453966 C46.4217315,40.2682839 46.4954804,40.8288794 46.515825,41.386961 C46.5336264,41.9475565 46.4980235,42.5056382 46.3454395,43.0285255 C46.2691475,43.2522609 46.1953985,43.4759963 46.098762,43.6997318 C46.0046685,43.9234672 45.8902305,44.1472026 45.7401895,44.370938 C45.6638975,44.4463545 45.6257515,44.519257 45.6257515,44.5946735 C45.6257515,44.6700899 45.6638975,44.7429925 45.7401895,44.8184089 C45.9665225,45.1175608 46.1547094,45.4896152 46.2869489,45.8817807 C46.4191884,46.2739461 46.4954804,46.6837088 46.4954804,47.0582771 C46.5717724,47.9532188 46.5336264,48.8129662 46.4191884,49.6526025 C46.3047504,50.4922388 46.1165634,51.314278 45.8902305,52.1338033 C45.8139385,52.2821223 45.7757925,52.4329551 45.7401895,52.5812741 C45.7020435,52.7295931 45.6638975,52.880426 45.5901486,53.028745 C45.5138566,52.7295931 45.4757106,52.4304413 45.4401076,52.1338033 C45.4045047,51.8371653 45.3638156,51.5354995 45.2900667,51.2388616 C45.2137747,50.7913907 45.1400257,50.3439198 45.0077862,49.9140461 C44.8755468,49.4841725 44.6873598,49.0744098 44.3847348,48.6998415 C44.3084428,48.5515225 44.2346939,48.4383979 44.1380573,48.3453843 C44.0414208,48.2523707 43.9295258,48.1769542 43.7794849,48.1015378 C43.7794849,48.1769542 43.7794849,48.2498568 43.7794849,48.3252732 C43.7794849,48.4006896 43.7794849,48.4735922 43.7794849,48.5490086 C43.7794849,49.2202149 43.7413389,49.8939351 43.6472454,50.5651414 C43.5531519,51.2363477 43.4005679,51.9100678 43.1742349,52.5812741 C42.947902,53.3278969 42.721569,54.0368114 42.4570901,54.7281287 C42.1926111,55.419446 41.8899861,56.0906523 41.5136122,56.7618586 C41.5136122,56.8372751 41.4754662,56.8749833 41.4373202,56.9101776 C41.3991742,56.9478858 41.3610282,56.985594 41.3610282,57.0584966 C41.3610282,56.8347612 41.3991742,56.6110257 41.4373202,56.3671793 C41.4754662,56.1233328 41.5136122,55.864403 41.5136122,55.5652511 C41.5899042,55.1177803 41.5899042,54.7055038 41.5314137,54.2957411 C41.4754662,53.8859785 41.3610282,53.473702 41.2109872,53.0262311 C40.9846543,52.2041919 40.6820293,51.4575692 40.3056554,50.7687658 C39.9292815,50.0774484 39.4740725,49.4439504 38.9451146,48.8456466 C38.6424896,48.4735922 38.3398646,48.1367321 38.0397827,47.8199831 C37.7371577,47.5032341 37.4345328,47.2040822 37.1344509,46.9049303 C37.1344509,47.2040822 37.1725969,47.4655258 37.2107429,47.7269695 C37.2488889,47.9884131 37.2870349,48.2498568 37.2870349,48.5490086 C37.2870349,48.8481605 37.2870349,49.1473124 37.2692334,49.4439504 C37.251432,49.7431022 37.213286,50.0422541 37.1369939,50.3388921 C36.910661,51.4575692 36.531744,52.541052 36.0409321,53.5667156 C35.5501201,54.5923791 34.9448702,55.5627373 34.2658713,56.4601929 L34.1895793,56.5356093 L34.1132873,56.6110257 L34.1132873,56.5356093 L34.1132873,56.4601929 C34.2633283,55.9373056 34.3014743,55.4521265 34.2633283,54.9845446 C34.2251823,54.5169627 34.1132873,54.0694918 33.9607033,53.622021 C33.8106623,52.8753982 33.6199323,52.1664837 33.3935994,51.4751664 C33.1672664,50.7838491 32.9027874,50.1126428 32.6001625,49.4414365 C32.5238704,49.36602 32.4857244,49.3283118 32.4501215,49.3107147 C32.4119755,49.2931175 32.3738295,49.2931175 32.3000805,49.2931175 C31.9974556,49.4414365 31.7711226,49.6651719 31.5829357,49.9090184 C31.3947487,50.1528649 31.2421647,50.4117946 31.0921237,50.6380439 C30.8657908,51.1609312 30.7157498,51.7215268 30.6013118,52.2796084 C30.4868738,52.83769 30.4131249,53.3982855 30.3368328,53.9211728 C30.1867919,54.891531 30.1104999,55.8241809 30.0723539,56.7568309 C30.0342079,57.6894808 30.0342079,58.6221307 30.0342079,59.5924889 L30.0342079,59.6679053 L30.0342079,59.7433218 C29.355209,57.9509244 28.8643971,56.161041 28.5999181,54.3485326 C28.3354391,52.5385382 28.2972931,50.7084326 28.5236261,48.8431327 C28.2210011,49.2906036 27.9946682,49.7380745 27.8064812,50.2056564 C27.6182942,50.6732383 27.4657102,51.1584174 27.3156693,51.6813047 C27.1656283,52.2041919 27.0893363,52.689371 27.0689918,53.1745501 C27.0511903,53.6597292 27.0867932,54.1449083 27.1630853,54.6677956 C27.0130443,54.3686437 26.8604603,54.0694918 26.7104193,53.7728538 C26.5603784,53.473702 26.4077944,53.1745501 26.2577534,52.8779121 C26.0314204,52.3550248 25.8432335,51.8321375 25.6906495,51.3092502 C25.5406085,50.7863629 25.4261705,50.2634756 25.3498785,49.7405883 C25.2735865,49.217701 25.1616915,48.6948138 25.103201,48.1920375 C25.0472535,47.6892613 25.0472535,47.2040822 25.1972945,46.7540974 C25.1972945,46.678681 25.1972945,46.6409728 25.179493,46.6057785 C25.1616915,46.5680702 25.1235455,46.530362 25.0472535,46.4574595 C24.5182956,46.1583076 24.1419217,45.7108367 23.8392967,45.2080605 C23.5366717,44.7052842 23.3103388,44.1446887 23.0840058,43.6218014 C22.9339649,43.249747 22.8195269,42.8751787 22.7254334,42.5207215 C22.6313399,42.1662642 22.5550479,41.8294041 22.4787559,41.5327661 C22.4787559,41.2336143 22.4406099,40.8992681 22.4024639,40.562408 C22.3643179,40.2255479 22.3261719,39.8912017 22.3261719,39.5920498 C22.3261719,38.7700107 22.3643179,37.9504854 22.4584113,37.1460434 C22.5525048,36.3416014 22.7050888,35.5597843 22.9314218,34.8131616 C22.9314218,34.7377452 22.9314218,34.700037 22.9314218,34.6648426 C22.9314218,34.6296483 22.9314218,34.5894262 22.9314218,34.5165236 C23.0814628,33.9936363 23.2721928,33.470749 23.4781812,32.9478617 C23.6841696,32.4249744 23.9130457,31.9020871 24.1393786,31.3791999 C24.0630866,32.7241263 24.0630866,34.0288307 24.1775246,35.2983407 C24.2919626,36.5678507 24.5182956,37.7996525 24.8946695,38.9937461 C24.9709615,38.3954424 25.0828565,37.8373607 25.2150959,37.2943624 C25.3473354,36.7538779 25.4973764,36.2309906 25.6499604,35.7081033 C25.8000014,35.2606325 25.9525854,34.7754534 26.1229709,34.2902743 C26.2933563,33.8050952 26.4815433,33.3199162 26.7078763,32.8724453 C26.7078763,32.9478617 26.7078763,32.98557 26.7078763,33.0207643 C26.7078763,33.0559586 26.7078763,33.0961807 26.7078763,33.1690833 C26.7078763,33.1690833 26.7078763,33.1690833 26.7078763,33.1866805 C26.7078763,33.2042776 26.7078763,33.2419858 26.7078763,33.3174023 C26.6315843,33.6894567 26.5934383,34.064025 26.5934383,34.4184823 C26.5934383,34.7729395 26.6315843,35.1097996 26.7078763,35.4064376 C26.7078763,35.5547566 26.7460223,35.7432977 26.8019697,35.9293249 C26.8579172,36.1153521 26.9342092,36.3013793 27.0105012,36.4522122 C27.0867932,36.899683 27.2368342,37.3119596 27.4072197,37.7016111 C27.5776052,38.0937766 27.7657921,38.465831 27.9158331,38.8403993 C28.218458,38.0937766 28.482937,37.3471539 28.6151765,36.582934 C28.747416,35.8187141 28.747416,35.0343832 28.521083,34.212344 C28.747416,34.360663 28.9356029,34.5843984 29.126333,34.8106477 C29.3145199,35.0343832 29.5027069,35.2581186 29.7315829,35.4089515 C29.9579159,35.7081033 30.1842488,36.0424495 30.4105818,36.3793096 C30.6369147,36.7161697 30.8632477,37.0505159 31.0895807,37.3496678 C31.2396216,37.6488196 31.3922056,37.9831658 31.5422466,38.3200259 C31.6922875,38.656886 31.8448716,38.9912322 31.9949125,39.2903841 C32.1449535,38.4683449 32.3712864,37.6488196 32.6561099,36.8267805 C32.9383904,36.0047413 33.2791613,35.185216 33.6555352,34.3631769 C33.8055762,35.333535 33.9581602,36.266185 34.1844932,37.1636406 C34.4108261,38.0585823 34.7134511,38.9183297 35.166117,39.7403688 C35.316158,39.5920498 35.430596,39.441217 35.5246895,39.292898 C35.618783,39.144579 35.695075,38.9937461 35.771367,38.8454271 C36.1477409,38.1742208 36.4122199,37.5005006 36.5444593,36.8116972 C36.6766988,36.1203798 36.6766988,35.4114653 36.5266579,34.6648426 C36.5266579,34.5165236 36.4885119,34.3656908 36.4503659,34.2173718 C36.4122199,34.0690528 36.3740738,33.9182199 36.3740738,33.7699009 C36.8267398,34.5165236 37.2056568,35.2631464 37.5438847,36.0097691 C37.8846556,36.7563918 38.1847375,37.5030145 38.4873625,38.2496372 C38.5636545,38.1013183 38.6755495,37.9504854 38.7899875,37.8021664 C38.9044255,37.6538474 39.0163204,37.5030145 39.0926124,37.3546955 C39.3189454,37.1309601 39.5452784,36.9072247 39.7919559,36.7211975 C40.0386334,36.5351703 40.3005693,36.3843374 40.6031942,36.3114348 C40.9058192,36.1631158 41.2084442,36.0499912 41.5085261,35.9745747 C41.811151,35.8991583 42.113776,35.8614501 42.4138579,35.8614501 C42.4901499,35.8614501 42.5282959,35.8614501 42.5638989,35.8614501 C42.6020449,35.8614501 42.6401909,35.8614501 42.7139398,35.8614501 C42.7139398,35.9368665 42.7139398,35.9745747 42.6961384,35.9921719 C42.6783369,36.0097691 42.6401909,36.0097691 42.5638989,36.0097691 C42.3375659,36.3818235 42.111233,36.7941 41.923046,37.2239737 C41.734859,37.6538474 41.582275,38.1013183 41.5085261,38.5487891 C41.4322341,38.847941 41.3940881,39.1822872 41.4144326,39.5191473 C41.4322341,39.8560074 41.5085261,40.1903536 41.6611101,40.4895054 C41.7374021,40.6378244 41.7755481,40.7132409 41.8314956,40.7333519 C41.8874431,40.7509491 41.9637351,40.7157547 42.113776,40.6403383 C42.4901499,40.4920193 42.7927749,40.2682839 43.0394524,39.9867292 C43.2861299,39.7076884 43.4743169,39.3708283 43.6243578,38.9987739 C43.7743988,38.6267194 43.8888368,38.2144429 43.9651288,37.8046803 C44.0414208,37.3949176 44.0795668,36.9826411 44.0795668,36.6105867 C44.0795668,36.1631158 44.0795668,35.715645 44.0795668,35.2857713 C44.0795668,34.8558976 44.0795668,34.446135 44.0795668,34.0715666 C44.1558588,34.2198856 44.2296077,34.3707185 44.3058998,34.5190375 C44.3821918,34.6673565 44.4559407,34.8181894 44.5322327,34.9665084 C44.8348577,35.4139792 45.0230446,35.7885475 45.1730856,36.1052966 C45.3256696,36.4220456 45.4401076,36.6834892 45.5901486,36.9072247 Z" id="Path" fill="#060707"></path>
                        </g>
                    </g>
                    <g transform="translate(1.014925, 59.243059)">
                        <path d="M0.0181466816,7.37572752 C0.394520594,6.55368836 0.887875588,5.95789851 1.49058246,5.56573304 C2.0958324,5.17356757 2.81297729,4.98754036 3.64201713,4.98754036 C3.79205808,4.98754036 4.01839104,4.91212392 4.22692253,4.7814021 C4.43545402,4.65068027 4.62364098,4.46465306 4.69993299,4.24091763 C5.22889092,3.04682405 5.9078898,2.14936845 6.77761871,1.5535786 C7.64734762,0.955274867 8.70272041,0.658636882 9.98696924,0.658636882 C17.3135452,0.658636882 24.6375781,0.658636882 31.9641541,0.658636882 C39.29073,0.658636882 46.6147629,0.658636882 53.9413389,0.658636882 C54.6203378,0.658636882 55.3018797,0.658636882 55.9808786,0.6963451 C56.6598775,0.734053319 57.3414194,0.809469755 58.0204183,0.957788748 C58.8520012,1.10610774 59.5691461,1.48067604 60.1540515,2.02116051 C60.7389569,2.56164497 61.1916228,3.27055948 61.4942478,4.09259864 C61.6442888,4.46465306 61.7968728,4.72609671 62.0028612,4.87692958 C62.2113927,5.02524858 62.4758717,5.06295679 62.8522456,4.99005424 C63.7575774,4.9146378 64.5510143,5.06547067 65.1944103,5.4375251 C65.8352631,5.80957952 66.3260751,6.40788325 66.6287,7.22992241 C66.6287,8.275697 66.6287,9.28376338 66.6287,10.2918297 C66.6287,11.2998961 66.6287,12.3079625 66.6287,13.3537371 C66.1760341,14.4724142 65.4970352,15.1084262 64.6654523,15.4427724 C63.8338694,15.7796325 62.8522456,15.8148268 61.7968728,15.7419243 C61.7205808,16.340228 61.6468318,16.9360178 61.5705398,17.5343216 C61.4942478,18.1326253 61.4204989,18.7284151 61.3442069,19.3267189 C60.7389569,21.9386415 59.7217301,24.2162179 58.2111483,26.0639206 C56.7005666,27.9116233 54.6991728,29.3294523 52.1306752,30.2269079 C49.4121366,31.1218496 46.617306,30.9735306 44.0869543,29.9654642 C41.5566027,28.9573979 39.29073,27.092098 37.6301073,24.553078 C37.1774414,23.8818717 36.7247754,23.2081515 36.2339635,22.5570563 C35.7431516,21.9034471 35.2141937,21.2699491 34.6114868,20.6716453 C34.0062368,20.0004391 33.5154249,19.663579 33.024613,19.663579 C32.5338011,19.663579 32.0429891,20.0004391 31.4377392,20.6716453 C30.9087813,21.2699491 30.4179693,21.8657389 29.9449589,22.4816398 C29.4719484,23.0975407 29.0192825,23.7310388 28.5666166,24.404759 C27.4349518,26.0463234 26.1507029,27.4666663 24.6579226,28.5476352 C23.1651423,29.631118 21.4663736,30.3777408 19.5031259,30.6743787 C16.9346282,31.0464332 14.6687555,30.712087 12.6673618,29.779437 C10.6659681,28.8467871 8.92905337,27.3158334 7.41847159,25.2997007 C6.36055572,23.9547742 5.64341084,22.4640427 5.17294345,20.8576726 C4.69993299,19.2538163 4.47360003,17.5368354 4.39985108,15.7444381 C3.41822723,15.8198546 2.51289539,15.7444381 1.75760449,15.407578 C1.0023136,15.070718 0.397063661,14.4749281 0.0206897485,13.50457 C0.0206897485,12.4587954 0.0206897485,11.4155347 0.0206897485,10.3873572 C0.0181466816,9.35415205 0.0181466816,8.34608568 0.0181466816,7.37572752 Z M33.2484029,2.74767218 C32.493112,2.74767218 31.6996751,2.74767218 30.9062382,2.74767218 C30.1128013,2.74767218 29.3193644,2.74767218 28.5640735,2.74767218 C25.4666179,2.74767218 22.3717054,2.74767218 19.2742498,2.74767218 C16.1767943,2.74767218 13.0818817,2.74767218 9.98442617,2.74767218 C8.85276136,2.74767218 7.98303246,3.04682405 7.39812705,3.62501673 C6.81322165,4.20320941 6.51059668,5.06295679 6.51059668,6.18163394 C6.51059668,7.5265604 6.51059668,8.86897297 6.51059668,10.2138994 C6.51059668,11.5588259 6.51059668,12.9012385 6.51059668,14.2461649 C6.51059668,15.1411066 6.54874268,16.0385622 6.62503469,16.9159068 C6.7013267,17.7932513 6.81322165,18.6504848 6.96580567,19.472524 C7.57105561,22.159863 9.00534538,24.4374394 10.9304471,26.0412956 C12.8555488,27.6451519 15.2740055,28.5803157 17.8399601,28.5803157 C19.8032078,28.5803157 21.5019765,28.0574284 22.9947568,27.1247785 C24.4875371,26.1921285 25.7692429,24.8472021 26.9034508,23.2056376 C27.5087007,22.3835985 28.1114076,21.5640732 28.7548035,20.7596312 C29.3956564,19.9577031 30.0771984,19.1733721 30.8324893,18.4267494 C31.5877801,17.6801267 32.381217,17.3080723 33.1746539,17.3080723 C33.9680908,17.3080723 34.7615277,17.6801267 35.5168186,18.4267494 C36.2721095,19.1733721 36.9892544,19.9577031 37.6682533,20.7772284 C38.3472522,21.5992675 38.9906481,22.456501 39.593355,23.3539566 C40.8776038,25.2192565 42.5382266,26.6747937 44.3895793,27.5521383 C46.2409321,28.4294828 48.2779287,28.7286347 50.3174684,28.2811638 C52.7333821,27.833693 54.9229627,26.4887665 56.565784,24.5857584 C58.2086053,22.6827503 59.3021241,20.2191467 59.5310001,17.5318077 C59.6810411,15.7394104 59.7191871,13.9118187 59.7191871,12.0817132 C59.7191871,10.2516076 59.6810411,8.424016 59.6810411,6.63161868 C59.6810411,5.21378967 59.4165621,4.20572329 58.7935107,3.55211418 C58.1704593,2.89850506 57.1888354,2.59935319 55.7545456,2.59935319 C52.0543832,2.67476963 48.3160747,2.71247785 44.5599648,2.73007501 C40.7987687,2.74767218 37.0248573,2.74767218 33.2484029,2.74767218 Z" id="Shape" fill="#000000" fill-rule="nonzero"></path>
                        <path d="M33.2484029,2.74767218 C37.0248573,2.74767218 40.8013118,2.74767218 44.5752232,2.74767218 C48.3516777,2.74767218 52.1281321,2.74767218 55.9020435,2.74767218 C57.3363333,2.74767218 58.3179572,3.00911583 58.9410086,3.6426139 C59.56406,4.27611197 59.8285389,5.28417834 59.8285389,6.77742379 C59.8285389,8.56982111 59.8666849,10.3974128 59.8666849,12.2275183 C59.8666849,14.0576238 59.8285389,15.8852155 59.678498,17.6776128 C59.452165,20.4403683 58.3561032,22.9039719 56.7132819,24.7893828 C55.0704606,26.6747937 52.88088,27.982012 50.4649663,28.4294828 C48.4254266,28.8015372 46.3858869,28.5048992 44.5370772,27.6451519 C42.6857244,26.7854045 41.0251017,25.3675755 39.7408529,23.5022756 C39.1356029,22.6073339 38.4947501,21.7475865 37.8157512,20.9255473 C37.1367523,20.1035082 36.4196074,19.3216911 35.6643165,18.5750684 C34.9090256,17.8284457 34.1155887,17.4563912 33.3221518,17.4563912 C32.5287149,17.4563912 31.735278,17.8284457 30.9799871,18.5750684 C30.2246962,19.2462747 29.5456974,19.9928974 28.9023014,20.7948255 C28.2589055,21.5967536 27.6561986,22.456501 27.0509487,23.3514427 C25.9192839,24.9201046 24.673181,26.224809 23.1982022,27.1599728 C21.7232233,28.0951366 20.0269977,28.6532182 17.9874579,28.7286347 C15.4952523,28.7286347 13.1174847,27.7959847 11.1898399,26.1896146 C9.26473821,24.5857584 7.79230243,22.308182 7.11076048,19.620843 C6.88442752,18.7988038 6.76998951,17.9415703 6.71404203,17.0642258 C6.65809456,16.1868812 6.65809456,15.2919395 6.65809456,14.3944839 C6.58180255,13.0495575 6.58180255,11.7071449 6.60214709,10.3622184 C6.61994856,9.01729197 6.65809456,7.67487939 6.65809456,6.32995293 C6.65809456,5.21127579 6.96071953,4.35152841 7.54562494,3.77333572 C8.13053034,3.19514304 9.00025925,2.89599117 10.1319241,2.89599117 C13.2293796,2.89599117 16.3242921,2.89599117 19.4217477,2.89599117 C22.5192033,2.89599117 25.6141158,2.89599117 28.7115714,2.89599117 C29.3905703,2.82057474 30.1458612,2.78286652 30.9214966,2.76526935 C31.6996751,2.74767218 32.493112,2.74767218 33.2484029,2.74767218 Z" id="Path" fill="#F05A2B" opacity="0.27"></path>
                    </g>
                </g>
            </g>
        </g>
    </g>
</svg>
