<svg width="100px" height="64px" viewBox="0 0 100 64" version="1.1" xmlns="http://www.w3.org/2000/svg" xmlns:xlink="http://www.w3.org/1999/xlink">
    <g id="UX-1" stroke="none" stroke-width="1" fill="none" fill-rule="evenodd">
        <g id="Login-" transform="translate(-59.000000, -38.000000)">
            <g id="Group-72" transform="translate(58.526626, 38.498161)">
                <polygon id="Shape" stroke="#6976F4" stroke-width="0.3" fill="#6976F4" fill-rule="nonzero" points="23.1746516 50.5875482 28.2387216 62.7323833 26.9441732 62.7323833 23.1746516 53.5069699 19.367115 62.7323833 18.0725666 62.7323833"></polygon>
                <path d="M31.552609,57.010276 L30.7910547,55.8425073 L33.0756393,52.2224181 L34.4462962,52.2224181 L31.552609,57.010276 Z M31.2860337,57.4384625 L31.2860337,62.7323833 L30.0295787,62.7323833 L30.0295787,57.4384625 L25.8793582,50.5875482 L27.3262018,50.5875482 L31.2860337,57.4384625 Z" id="Shape" stroke="#6976F4" stroke-width="0.3" fill="#6976F4" fill-rule="nonzero"></path>
                <polygon id="Shape" stroke="#6976F4" stroke-width="0.3" fill="#6976F4" fill-rule="nonzero" points="38.1770986 50.5875482 43.2411686 62.7323833 41.9466202 62.7323833 38.1770986 53.5069699 34.3314686 62.7323833 33.0750136 62.7323833"></polygon>
                <polygon id="Shape" stroke="#6976F4" stroke-width="0.3" fill="#6976F4" fill-rule="nonzero" points="33.9864382 50.5875482 33.3011489 51.8331619 34.7479925 51.8331619 35.4714534 50.5875482"></polygon>
                <path d="M17.7675068,56.4653924 C17.6913201,55.9593608 17.5771183,55.492244 17.4248231,55.0251349 C17.0440459,53.8962965 16.3967717,52.8453032 15.5210156,52.0278604 C14.9879433,51.5218288 14.3787624,51.0936501 13.6933949,50.7433164 C13.6172864,50.7043939 13.5410997,50.7043939 13.4649129,50.7433164 L12.7034369,51.0936501 C12.2084579,51.3272007 11.7134789,51.5996817 11.2565933,51.9110851 C10.723521,52.2614188 10.228542,52.650675 9.73356298,53.0399313 L9.31469249,53.3513425 C9.238584,53.4291875 9.16239728,53.4291875 9.08628879,53.3513425 C8.89590022,53.1956369 8.74360501,53.0788616 8.55321644,52.923156 C7.63939826,52.183566 6.64943246,51.5607592 5.62139678,51.0157973 L4.97412258,50.7043939 C4.89796715,50.6654714 4.82181173,50.6654714 4.74566412,50.7043939 C4.70758641,50.7433164 4.6695087,50.7433164 4.63143098,50.7822467 C4.36490263,50.9379445 4.09837428,51.0547198 3.86992365,51.2493479 C3.41301455,51.5607592 2.99419099,51.9110851 2.61343732,52.3392716 C2.15652823,52.8453032 1.73769685,53.390265 1.43309079,54.0130719 C0.938111018,55.0251427 0.671582511,56.1539889 0.671582511,57.3217576 C0.671582511,57.6720679 0.67158478,58.0613711 0.709660381,58.4116422 C0.747735748,58.723116 0.785806422,59.0733872 0.823881788,59.3847828 C0.938108671,60.0465278 1.16656869,60.6304434 1.50924621,61.214359 C1.81385228,61.7203671 2.11845052,62.2263752 2.42305658,62.7323833 L4.59336109,62.7323833 L4.47912795,62.3431583 C4.2125996,61.603584 3.98415679,60.8640097 3.79377604,60.0854816 C3.67955072,59.6573028 3.6033953,59.2291241 3.52723987,58.7619916 C3.48916998,58.4895498 3.45110009,58.2170298 3.45110009,57.9445879 C3.45110009,57.788851 3.45110009,57.6720679 3.45110009,57.5163857 C3.45110009,57.2439048 3.48916998,56.9714239 3.52723987,56.698943 C3.52723987,56.426462 3.56532541,56.1150586 3.64148083,55.8425777 C3.75570615,55.414399 4.02222668,55.0251427 4.32683274,54.7137393 C4.70758641,54.3634056 5.1644955,54.1687775 5.6975522,54.0909247 C6.07830587,54.0520022 6.45905172,54.1687775 6.72558007,54.4023281 C6.95403852,54.5969562 7.14441927,54.8305146 7.25864459,55.1029956 C7.44902533,55.4922518 7.56325065,55.881508 7.63940608,56.2707642 C7.7536314,56.8157261 7.829779,57.3996026 7.829779,57.9445879 C7.829779,58.3338129 7.829779,58.723116 7.829779,59.1512948 C7.829779,59.5405197 7.829779,59.9686984 7.829779,60.3968772 C7.829779,60.8250559 7.829779,62.265329 7.75362357,62.6545539 C7.75362357,62.7323833 7.7536314,62.7323833 7.829779,62.7323833 L10.7616143,62.7323833 C10.7996295,62.7323833 10.7996295,62.7324615 10.7996295,62.6935077 L10.7996295,62.6545539 C10.7616143,62.4209877 10.7616143,61.1364515 10.7616143,60.9028852 C10.723521,60.4747065 10.723521,60.0465278 10.6854276,59.6183491 C10.6854276,59.0733872 10.6854276,58.5284253 10.6854276,57.9834635 C10.6854276,57.4774554 10.723521,56.9325014 10.7996295,56.426462 C10.8758162,56.0761361 10.9520029,55.6868799 11.0662047,55.3754765 C11.1804066,55.0251427 11.3707952,54.7526618 11.5992771,54.4801809 C11.8657741,54.2077 12.2465513,54.0519943 12.6272502,54.0519943 C12.8557321,54.0519943 13.0461207,54.0909247 13.2746026,54.1687775 C13.7314882,54.3244753 14.1502805,54.5969562 14.4549491,54.9862124 C14.7595396,55.3754765 14.9499281,55.8425777 14.9879433,56.3096867 C15.0260366,56.6600205 15.06413,57.0492767 15.1022233,57.4385329 C15.1022233,57.5942386 15.1022233,57.7499755 15.1022233,57.9056342 C15.1022233,58.2559835 15.0260366,58.6063329 14.9879433,58.9566041 C14.8737414,59.6183491 14.6833528,60.280094 14.4929643,60.9028852 C14.3025757,61.5257546 14.074172,62.1485458 13.8837834,62.771337 L16.0159946,62.771337 C16.2825699,62.3431583 16.5490669,61.8760258 16.815564,61.4478471 C17.1963411,60.8250559 17.4248231,60.1633109 17.5771183,59.4626904 C17.6913201,58.9177285 17.7294135,58.3727667 17.7675068,57.8278048 C17.805522,57.3606801 17.805522,56.8935711 17.7675068,56.4653924 Z" id="Shape" stroke="#6976F4" stroke-width="0.3" fill="#6976F4" fill-rule="nonzero"></path>
                <path d="M49.9407498,51.3661232 C49.4076775,51.4050457 48.9126985,51.5607513 48.4558129,51.7553795 C47.8846472,52.0278604 47.351653,52.4171166 46.9327825,52.8842178 C46.5139903,53.3513269 46.1712283,53.8962965 45.9428246,54.5191034 C45.7143426,55.1419102 45.5620474,55.8036474 45.6001408,56.4653845 C45.6001408,57.1271217 45.7143426,57.788851 45.9428246,58.4116422 C46.1712283,58.9955579 46.5139903,59.5405197 46.9327825,60.0076522 C47.351653,60.4747065 47.8846472,60.8640097 48.4558129,61.1364515 C48.9507918,61.3700177 49.4457708,61.4868009 49.9788432,61.5257546 L49.9788432,62.5767246 C49.331569,62.5377708 48.6842948,62.3821121 48.0750357,62.1095921 C47.351653,61.7981965 46.7043006,61.3700177 46.1332131,60.7861021 C45.6001408,60.2411402 45.1432552,59.5794735 44.8385865,58.8398209 C44.5339961,58.0613711 44.3436075,57.243897 44.3436075,56.3875317 C44.3436075,55.5700889 44.495981,54.7137315 44.8385865,53.9741415 C45.4478456,52.4949694 46.6281921,51.2882704 48.0750357,50.6654558 C48.6842948,50.3929803 49.331569,50.2372786 49.9788432,50.198353 L49.9788432,51.3661232 L49.9407498,51.3661232 Z M50.5916709,61.5257546 C51.2008517,61.5257546 51.8481259,61.3700177 52.4192916,61.1364515 C52.9904573,60.9029634 53.5234514,60.5136603 53.9423219,60.0465278 C54.3611142,59.5794735 54.703798,59.0345116 54.9322799,58.450596 C55.1607618,57.8278048 55.2749637,57.1660677 55.2749637,56.465408 C55.2749637,55.7647484 55.1607618,55.1030112 54.9322799,54.441274 C54.703798,53.8184672 54.3992075,53.2734975 53.9423219,52.8063885 C53.5234514,52.3392873 52.9904573,51.9889614 52.4192916,51.7164804 C51.8481259,51.482922 51.2008517,51.3272242 50.5916709,51.3272242 L50.5916709,50.2373021 C51.3531469,50.2373021 52.1147012,50.393003 52.8381621,50.7044095 C53.5615448,51.015813 54.208819,51.4439917 54.7799847,52.027876 C55.313057,52.5728379 55.7699426,53.2734975 56.0364397,53.974165 C56.3410301,54.7526775 56.4934036,55.5701124 56.4934036,56.4264777 C56.4934036,57.282843 56.3410301,58.1002466 56.0364397,58.8787747 C55.7318493,59.6183491 55.313057,60.280094 54.7418913,60.8250559 C54.208819,61.3700177 53.5235296,61.8371502 52.8381621,62.1095921 C52.1147012,62.3821121 51.3912403,62.5377708 50.5916709,62.5767246 L50.5916709,61.5257546 Z" id="Shape" stroke="#6976F4" stroke-width="0.3" fill="#6976F4" fill-rule="nonzero"></path>
                <polygon id="Shape" stroke="#6976F4" stroke-width="0.3" fill="#6976F4" fill-rule="nonzero" points="57.787825 50.2762676 66.4689648 59.9298229 66.4689648 50.6655262 67.6874047 50.6655262 67.6874047 63.1606402 59.0061867 53.4681726 59.0061867 62.7324615 57.787825 62.7324615"></polygon>
                <polygon id="Shape" stroke="#6976F4" stroke-width="0.3" fill="#6976F4" fill-rule="nonzero" points="69.4353188 50.6654636 70.6537587 50.6654636 70.6537587 61.6424595 75.9462324 61.6424595 75.9462324 62.6935077 69.4353188 62.6935077"></polygon>
                <polygon id="Shape" stroke="#6976F4" stroke-width="0.3" fill="#6976F4" fill-rule="nonzero" points="77.7340389 50.7044174 78.9904157 50.7044174 78.9904157 62.7324615 77.7340389 62.7324615"></polygon>
                <polygon id="Shape" stroke="#6976F4" stroke-width="0.3" fill="#6976F4" fill-rule="nonzero" points="80.7433359 50.3152253 89.4250233 59.9687767 89.4250233 50.7044799 90.6429156 50.7044799 90.6429156 63.1607184 81.9620105 53.468196 81.9620105 62.7325397 80.7433359 62.7325397"></polygon>
                <path d="M92.4341639,61.6424595 L99.7063188,61.6424595 L99.7063188,62.6935077 L92.4717097,62.6935077 L92.4341639,61.6424595 Z M92.4341639,50.6654636 L99.6679908,50.6654636 L99.6679908,51.7164491 L92.4341639,51.7164491 L92.4341639,50.6654636 Z M92.4341639,55.9982755 L99.4020412,55.9982755 L99.4020412,57.0881914 L92.4717097,57.0881914 L92.4341639,55.9982755 Z" id="Shape" stroke="#6976F4" stroke-width="0.3" fill="#6976F4" fill-rule="nonzero"></path>
                <circle id="Oval-4" stroke="#6976F4" fill="#6976F4" cx="47.9322044" cy="18.0556392" r="17.9809496"></circle>
                <path d="M55.8136711,33.13784 C56.5213259,32.7334331 56.025956,31.5204415 56.1169189,30.7117423 C56.2988448,29.0438216 55.8440302,27.5376636 54.5197981,26.4257165 C54.3276762,26.2640683 54.3175946,26.1224686 54.4288352,25.9001021 C55.0656901,24.6062291 55.7428712,23.3224377 56.2988448,21.988124 C57.2085885,19.8350296 57.865721,17.6314129 57.7544805,15.2356744 C57.6735991,13.5677536 56.5718481,12.0312365 55.035331,11.6269442 C53.9233838,11.3337778 53.0035586,11.6168627 52.3059853,12.5569655 C52.0431781,12.9107356 51.8107301,13.2847834 51.6388858,13.6890757 C51.0728307,14.9525895 50.7998274,16.2970993 50.5168571,17.651576 C50.1023687,19.6631853 49.9406059,21.6848761 50.0013242,23.7369261 C50.0114058,24.1816591 50.0013242,24.6365883 50.0013242,25.0510767 C49.3240286,25.0004399 48.6366514,24.9195585 47.9492742,24.9195585 C47.2518155,24.9195585 46.5543568,25.0105215 45.846702,25.0611582 C45.846702,24.9903584 45.8366205,24.909477 45.846702,24.8285956 C46.0893462,21.4524281 45.6647762,18.1469458 44.7246734,14.9121488 C44.4719477,14.0428458 44.1282591,13.203902 43.5419264,12.4962472 C43.1072749,11.9706328 42.6019381,11.596585 41.9145609,11.5460628 C39.9837986,11.3944961 38.2552283,13.0421392 38.1541381,15.1244338 C38.0934885,16.5396289 38.2350309,17.9143832 38.6292532,19.279056 C39.3065259,21.5838317 40.2668033,23.7672853 41.4292726,25.8596614 C41.5405132,26.0618648 41.6314761,26.2337091 41.399028,26.4257165 C40.0747615,27.5275821 39.660296,29.0033809 39.7613748,30.6713016 C39.81192,31.5406046 39.9332191,32.4100222 40.0646342,33.2793252 C40.0747386,33.2591621 47.7875115,37.6764769 55.8136711,33.13784 Z" id="Shape" fill="#FFFFFF" fill-rule="nonzero"></path>
                <path d="M47.9098646,35.2400686 C57.4004813,35.2400686 65.094294,27.5463704 65.094294,18.0556392 C65.094294,8.56494238 57.4004813,0.87120987 47.9098646,0.87120987 C38.4191334,0.87120987 30.7254009,8.56494238 30.7254009,18.0556392 C30.7254009,27.5463704 38.4191334,35.2400686 47.9098646,35.2400686 Z" id="Shape" stroke="#FFFFFF" stroke-width="2"></path>
            </g>
        </g>
    </g>
</svg>
