<?xml version="1.0" encoding="UTF-8"?>
<svg width="101px" height="65px" viewBox="0 0 101 65" version="1.1" xmlns="http://www.w3.org/2000/svg" xmlns:xlink="http://www.w3.org/1999/xlink">
    <g id="UX-1" stroke="none" stroke-width="1" fill="none" fill-rule="evenodd">
        <g id="Group-28" transform="translate(0.000000, 1.000000)">
            <polygon id="Shape" fill="#FFFFFF" fill-rule="nonzero" points="22.1370039 51.7647059 27.2941176 64 25.9757841 64 22.1370039 54.7058725 18.25951 64 16.9411765 64"></polygon>
            <path d="M31.0212102,58.2352724 L30.2682209,57.0588058 L32.5271114,53.4117529 L33.8823529,53.4117529 L31.0212102,58.2352724 Z M30.757633,58.6666483 L30.757633,64 L29.5153089,64 L29.5153089,58.6666483 L25.4117647,51.7647059 L26.8423361,51.7647059 L30.757633,58.6666483 Z" id="Shape" fill="#FFFFFF" fill-rule="nonzero"></path>
            <polygon id="Shape" fill="#FFFFFF" fill-rule="nonzero" points="38.1370039 51.7647059 43.2941176 64 41.9757841 64 38.1370039 54.7058725 34.2207168 64 32.9411765 64"></polygon>
            <polygon id="Shape" fill="#FFFFFF" fill-rule="nonzero" points="33.535543 51.7647059 32.9411765 52.7058824 34.1960558 52.7058824 34.8235294 51.7647059"></polygon>
            <path d="M16.9129702,57.621509 C16.8375988,57.1096559 16.7246191,56.6371651 16.5739537,56.1646823 C16.1972515,55.0228573 15.5569042,53.9597728 14.6905201,53.1329258 C14.1631525,52.6210727 13.5604909,52.187968 12.8824579,51.8336039 C12.8071639,51.7942336 12.7317925,51.7942336 12.6564211,51.8336039 L11.9030941,52.187968 C11.4134121,52.4242055 10.9237302,52.6998211 10.471734,53.0148071 C9.94436642,53.3691712 9.45468451,53.7629056 8.9650026,54.15664 L8.5506147,54.4716338 C8.47532069,54.5503744 8.3999493,54.5503744 8.32465529,54.4716338 C8.13630419,54.3141369 7.98563878,54.1960182 7.79728768,54.0385213 C6.89324883,53.2904227 5.91387727,52.6604509 4.89684323,52.1092195 L4.25649592,51.7942336 C4.18115548,51.7548633 4.10581504,51.7548633 4.03048234,51.7942336 C3.99281212,51.8336039 3.9551419,51.8336039 3.91747168,51.8729821 C3.65379561,52.0304711 3.39011955,52.1485898 3.1641137,52.345457 C2.71209428,52.6604509 2.29775281,53.0148071 1.92107382,53.4479197 C1.46905439,53.9597728 1.05470519,54.5110041 0.753358902,55.140976 C0.263676219,56.1646902 0,57.3065231 0,58.4877263 C0,58.8420667 2.24411747e-06,59.2358486 0.0376703749,59.5901494 C0.0753382736,59.9052065 0.113001529,60.2595074 0.150669428,60.5744854 C0.263673898,61.2438434 0.489689028,61.8344766 0.828699343,62.4251099 C1.13004563,62.9369393 1.43138417,63.4487687 1.73273046,63.9605981 L3.8798092,63.9605981 L3.76679853,63.5668953 C3.50312247,62.8188126 3.27712436,62.0707299 3.088781,61.2832453 C2.97577808,60.8501406 2.90043764,60.4170359 2.8250972,59.9445293 C2.78743472,59.6689532 2.74977223,59.393298 2.74977223,59.1177219 C2.74977223,58.9601933 2.74977223,58.8420667 2.74977223,58.6845935 C2.74977223,58.4089778 2.78743472,58.1333622 2.8250972,57.8577465 C2.8250972,57.5821309 2.86277516,57.2671449 2.9381156,56.9915293 C3.05111852,56.5584246 3.31478685,56.1646902 3.61613313,55.8497042 C3.99281212,55.4953401 4.44483154,55.2984729 4.97218367,55.2197245 C5.34886266,55.1803542 5.72553391,55.2984729 5.98920997,55.5347104 C6.21522356,55.7315776 6.40356692,55.967823 6.51656984,56.2434386 C6.7049132,56.637173 6.81791613,57.0309074 6.89325657,57.4246418 C7.00625949,57.9758732 7.08159219,58.5664669 7.08159219,59.1177219 C7.08159219,59.5114247 7.08159219,59.9052065 7.08159219,60.3383112 C7.08159219,60.732014 7.08159219,61.1651186 7.08159219,61.5982233 C7.08159219,62.031328 7.08159219,63.4881706 7.00625175,63.8818734 C7.00625175,63.9605981 7.00625949,63.9605981 7.08159219,63.9605981 L9.98205212,63.9605981 C10.0196604,63.9605981 10.0196604,63.9606772 10.0196604,63.9212753 L10.0196604,63.8818734 C9.98205212,63.6456201 9.98205212,62.346306 9.98205212,62.1100527 C9.94436642,61.676948 9.94436642,61.2438434 9.90668072,60.8107387 C9.90668072,60.2595074 9.90668072,59.708276 9.90668072,59.1570447 C9.90668072,58.6452153 9.94436642,58.0939919 10.0196604,57.5821309 C10.0950318,57.2277746 10.1704032,56.8340402 10.2833829,56.5190543 C10.3963626,56.1646902 10.5847137,55.8890745 10.8107505,55.6134589 C11.0743956,55.3378432 11.4510978,55.1803463 11.8277227,55.1803463 C12.0537595,55.1803463 12.2421106,55.2197245 12.4681474,55.2984729 C12.9201436,55.4559619 13.3344541,55.7315776 13.6358623,56.125312 C13.9371931,56.5190543 14.1255442,56.9915293 14.1631525,57.4640121 C14.2008382,57.8183762 14.2385239,58.2121106 14.2762096,58.605845 C14.2762096,58.763342 14.2762096,58.9208705 14.2762096,59.07832 C14.2762096,59.4326999 14.2008382,59.7870799 14.1631525,60.1413807 C14.0501728,60.8107387 13.8618217,61.4800967 13.6734706,62.1100527 C13.4851195,62.7400879 13.2591601,63.3700439 13.070809,64 L15.180202,64 C15.4439245,63.5668953 15.7075696,63.0943887 15.9712147,62.661284 C16.3479169,62.031328 16.5739537,61.36197 16.7246191,60.6532892 C16.8375988,60.1020579 16.8752845,59.5508266 16.9129702,58.9995953 C16.9505785,58.5270966 16.9505785,58.0546137 16.9129702,57.621509 Z" id="Shape" fill="#FFFFFF" fill-rule="nonzero"></path>
            <path d="M49.8735158,52.9117661 C49.3365311,52.9499983 48.8379193,53.1029425 48.3776804,53.294119 C47.8023227,53.5617676 47.2654167,53.9441204 46.843472,54.4029378 C46.4216061,54.8617628 46.0763284,55.3970676 45.8462484,56.0088291 C45.6160895,56.6205907 45.4626766,57.2705922 45.5010495,57.9205936 C45.5010495,58.5705951 45.6160895,59.2205888 45.8462484,59.832335 C46.0763284,60.4058951 46.4216061,60.9411922 46.843472,61.4000403 C47.2654167,61.8588115 47.8023227,62.2412105 48.3776804,62.5088206 C48.8762922,62.7382447 49.374904,62.8529567 49.9118888,62.8912196 L49.9118888,63.9235509 C49.259864,63.885288 48.6078392,63.7323899 47.9941086,63.4647029 C47.2654167,63.1588298 46.6133132,62.7382447 46.0380343,62.1646846 C45.5010495,61.6293875 45.0408106,60.9794552 44.7339059,60.2529201 C44.42708,59.4882758 44.2352941,58.6852994 44.2352941,57.8441215 C44.2352941,57.0411758 44.3887859,56.2000056 44.7339059,55.473532 C45.3476366,54.0205926 46.5366461,52.835294 47.9941086,52.2235247 C48.6078392,51.9558816 49.259864,51.8029412 49.9118888,51.7647059 L49.9118888,52.9117661 L49.8735158,52.9117661 Z M50.5255406,62.9676687 C51.1391924,62.9676687 51.7912172,62.8146937 52.3665749,62.5852697 C52.9419326,62.3559225 53.4788386,61.9735235 53.9007833,61.5146755 C54.3226492,61.0559042 54.6678481,60.5206071 54.8980069,59.947047 C55.1281658,59.3353009 55.2432058,58.6852994 55.2432058,57.9970657 C55.2432058,57.3088321 55.1281658,56.6588306 54.8980069,56.0088291 C54.6678481,55.3970676 54.3610222,54.8617628 53.9007833,54.4029378 C53.4788386,53.9441204 52.9419326,53.6000075 52.3665749,53.3323589 C51.7912172,53.1029425 51.1391924,52.950006 50.5255406,52.950006 L50.5255406,51.8794133 C51.2926054,51.8794133 52.059749,52.0323529 52.7885196,52.3382368 C53.5172115,52.6441175 54.1692363,53.0647026 54.744594,53.638232 C55.2815787,54.1735291 55.7418176,54.8617628 56.0102706,55.5500041 C56.3170965,56.3147099 56.4705882,57.1176479 56.4705882,57.9588258 C56.4705882,58.8000037 56.3170965,59.602911 56.0102706,60.3676321 C55.7034446,61.0940904 55.2815787,61.7440995 54.706221,62.2793966 C54.1692363,62.8146937 53.4789173,63.2735418 52.7885196,63.5411519 C52.059749,63.8088389 51.3309783,63.9617371 50.5255406,64 L50.5255406,62.9676687 Z" id="Shape" fill="#FFFFFF" fill-rule="nonzero"></path>
            <polygon id="Shape" fill="#FFFFFF" fill-rule="nonzero" points="57.4117647 50.8235294 66.4904663 60.6959377 66.4904663 51.2216128 67.7647059 51.2216128 67.7647059 64 58.6859225 54.0877972 58.6859225 63.5621142 57.4117647 63.5621142"></polygon>
            <polygon id="Shape" fill="#FFFFFF" fill-rule="nonzero" points="69.6470588 51.7647059 70.8799686 51.7647059 70.8799686 62.9308417 76.2352941 62.9308417 76.2352941 64 69.6470588 64"></polygon>
            <polygon id="Shape" fill="#FFFFFF" fill-rule="nonzero" points="78.1176471 51.7647059 79.0588235 51.7647059 79.0588235 64 78.1176471 64"></polygon>
            <polygon id="Shape" fill="#FFFFFF" fill-rule="nonzero" points="80.9411765 50.8235294 90.0204507 60.7258145 90.0204507 51.2228136 91.2941176 51.2228136 91.2941176 64 82.2156615 54.0577397 82.2156615 63.5607888 80.9411765 63.5607888"></polygon>
            <path d="M93.1764706,62.9308417 L100.705882,62.9308417 L100.705882,64 L93.2153446,64 L93.1764706,62.9308417 Z M93.1764706,51.7647059 L100.666198,51.7647059 L100.666198,52.8338005 L93.1764706,52.8338005 L93.1764706,51.7647059 Z M93.1764706,57.1894052 L100.390841,57.1894052 L100.390841,58.2981009 L93.2153446,58.2981009 L93.1764706,57.1894052 Z" id="Shape" fill="#FFFFFF" fill-rule="nonzero"></path>
            <g id="Group-10-Copy" transform="translate(32.000000, 0.000000)">
                <circle id="Oval-4" stroke="#6976F4" fill="#6976F4" cx="18.441073" cy="18.7566422" r="18.4130412"></circle>
                <path d="M26.5119355,34.2012763 C27.2365956,33.7871513 26.7293218,32.5450109 26.8224706,31.7168782 C27.0087682,30.0088764 26.5430242,28.4665247 25.1869701,27.3278569 C24.9902314,27.1623242 24.9799076,27.0173218 25.0938213,26.7896117 C25.7459802,25.4646463 26.4394343,24.1500047 27.0087682,22.7836267 C27.9403735,20.5787923 28.6132973,18.3222216 28.4993836,15.8689121 C28.4165586,14.1609104 27.2883319,12.58747 25.7148915,12.1734623 C24.5762237,11.873251 23.6342946,12.1631385 22.9199582,13.1258325 C22.6508356,13.4881039 22.4128017,13.8711402 22.2368279,14.2851479 C21.6571702,15.5790246 21.3776065,16.9558437 21.0878363,18.3428692 C20.6633875,20.4028185 20.4977375,22.4730916 20.5599149,24.5744535 C20.5702387,25.0298737 20.5599149,25.495735 20.5599149,25.9201838 C19.8663435,25.8683302 19.1624483,25.7855052 18.4585531,25.7855052 C17.7443341,25.7855052 17.0301151,25.878654 16.305455,25.9305076 C16.305455,25.8580064 16.2951312,25.7751814 16.305455,25.6923564 C16.55393,22.2350577 16.1191574,18.850143 15.1564633,15.5376121 C14.8976645,14.6474193 14.5457169,13.7883152 13.9452943,13.0636551 C13.5001979,12.5254099 12.9827176,12.1423736 12.2788224,12.0906373 C10.3016629,11.9354284 8.53155414,13.6226652 8.42803462,15.7549984 C8.3659276,17.2042014 8.51087135,18.6119918 8.91456699,20.0094584 C9.60811494,22.369619 10.5914683,24.6055422 11.7818724,26.7481992 C11.8957861,26.9552617 11.9889349,27.1312355 11.750901,27.3278569 C10.3948117,28.4562009 9.97038634,29.9674639 10.0738941,31.6754657 C10.1256539,32.5656585 10.2498679,33.4559686 10.384441,34.3461614 C10.3947882,34.3255138 18.2929031,38.848979 26.5119355,34.2012763 Z" id="Shape" fill="#FFFFFF" fill-rule="nonzero"></path>
                <path d="M18.4181964,36.3540225 C28.1368776,36.3540225 36.0155767,28.4754407 36.0155767,18.7566422 C36.0155767,9.03787896 28.1368776,1.159262 18.4181964,1.159262 C8.69939795,1.159262 0.820780993,9.03787896 0.820780993,18.7566422 C0.820780993,28.4754407 8.69939795,36.3540225 18.4181964,36.3540225 Z" id="Shape" stroke="#FFFFFF" stroke-width="2"></path>
            </g>
        </g>
    </g>
</svg>
