
<svg width="458px" height="108px" viewBox="0 0 458 108" version="1.1" xmlns="http://www.w3.org/2000/svg" xmlns:xlink="http://www.w3.org/1999/xlink">
    <g id="Logos" stroke="none" stroke-width="1" fill="none" fill-rule="evenodd">
        <g id="OPENEBS-Logo-ORANGE-Mule" transform="translate(-21.000000, -35.000000)">
            <g id="Group-2" transform="translate(21.000000, 35.000000)">
                <g id="Group-Copy" transform="translate(91.000000, 30.000000)" fill="#F05A2B">
                    <path d="M301.919024,25.84381 C303.091954,26.1305851 304.181484,26.5213161 305.180516,27.0643964 C306.179547,27.6074766 307.086306,28.3029062 307.893694,29.1972859 C308.559123,29.9088465 309.077271,30.7351171 309.428618,31.6277045 C309.779965,32.5202919 309.968059,33.479196 309.971608,34.4578159 C309.991128,36.4240174 310,38.3902189 310,40.3564204 C310,42.3226219 309.991128,44.2906158 309.971608,46.2568173 C309.946766,48.6944053 309.201485,50.7538087 307.815617,52.3364486 C306.431523,53.9190885 304.408618,55.0213801 301.8303,55.5429522 C301.113411,55.6845474 300.392972,55.7902957 299.667211,55.8601972 C298.941449,55.9300986 298.213913,55.9641531 297.482827,55.9623608 C290.603174,55.9784919 283.72352,55.9784919 276.843866,55.9784919 C269.964212,55.9784919 263.084558,55.9802842 256.204904,56 C255.741765,56 255.438329,55.9408526 255.253784,55.7616182 C255.067463,55.5823838 254.998259,55.2830623 255.000033,54.8027141 C255.014229,45.8714633 255.021327,36.9384202 255.021327,28.0071694 C255.021327,19.0759186 255.014229,10.1428754 255.000033,1.20983229 C255.000033,0.738445782 255.06214,0.435539624 255.243137,0.250928178 C255.424134,0.0663167328 255.722246,0 256.192483,0 C262.845003,0.014338753 269.497524,0.0179234413 276.150045,0.0179234413 C282.802565,0.0197157854 289.455086,0.0197157854 296.107606,0.0286775061 C297.296507,0.0286775061 298.474761,0.102163615 299.631721,0.29932147 C300.790456,0.496479324 301.929671,0.815516579 303.03872,1.31020356 C304.7227,2.05940341 306.067755,3.07028549 307.010003,4.35718858 C307.952252,5.64409167 308.493468,7.21060044 308.571545,9.06746895 C308.653171,10.8669825 308.685111,12.6700807 308.663818,14.4695942 C308.642524,16.2709 308.56977,18.0704135 308.445557,19.8681347 C308.312471,21.630009 307.895468,22.9007809 306.994033,23.8220458 C306.092598,24.7433107 304.704956,25.3150685 302.627041,25.6807067 C302.508151,25.7004225 302.391035,25.7291 302.272145,25.7577775 C302.156804,25.786455 302.037914,25.8169248 301.919024,25.84381 Z M280.071643,49.2231468 C282.616245,49.2231468 285.162622,49.2339009 287.707224,49.2356933 C290.251827,49.2374856 292.798204,49.2303162 295.342806,49.192677 C296.038402,49.1801306 296.730448,49.1209832 297.415397,49.0134426 C298.100346,48.9059019 298.778197,48.7517603 299.443626,48.5492255 C300.277631,48.2965049 300.941286,47.8448342 301.402651,47.2354372 C301.864015,46.6260402 302.123089,45.8589169 302.147932,44.9717066 C302.192294,43.3352964 302.227783,41.6970938 302.240205,40.0588913 C302.252626,38.4206888 302.243754,36.7824862 302.195843,35.146076 C302.158579,33.8806811 301.839173,32.921777 301.218105,32.2048393 C300.597037,31.4879017 299.674309,31.0147228 298.432173,30.7225707 C298.038239,30.6239918 297.640756,30.5487134 297.239724,30.494943 C296.838692,30.4411727 296.435885,30.4107029 296.029529,30.4035335 C290.606722,30.3927794 285.189239,30.3927794 279.771756,30.3927794 C274.354272,30.3927794 268.938563,30.3891947 263.52108,30.3730636 C263.104077,30.3730636 262.845003,30.4483421 262.690624,30.6221995 C262.536244,30.7960568 262.486559,31.0667008 262.490108,31.4574318 C262.502529,34.2266035 262.511401,36.9957752 262.513176,39.7649469 C262.51495,42.5341186 262.507852,45.3032902 262.490108,48.0706696 C262.490108,48.5653565 262.575283,48.8628857 262.77225,49.0331584 C262.969217,49.2034311 263.277976,49.2518244 263.726919,49.2482397 C266.447195,49.2267315 269.169245,49.2195622 271.89307,49.2177698 C274.616895,49.2159775 277.346043,49.2231468 280.071643,49.2231468 Z M279.560593,23.7109205 L279.560593,23.6679042 L279.560593,23.624888 C282.216987,23.624888 284.876931,23.6392267 287.536874,23.6446038 C290.196818,23.6499808 292.858536,23.6428114 295.518479,23.6033798 C297.2344,23.578287 298.583004,23.0907694 299.505733,22.2304442 C300.428462,21.3683267 300.92709,20.1316093 300.943061,18.6045321 C300.955482,17.5076175 300.964355,16.4089105 300.966129,15.3102036 C300.967903,14.2114966 300.960806,13.114582 300.943061,12.0176674 C300.921767,10.8024581 300.620106,9.79695301 300.038077,9.00652925 C299.456048,8.21610549 298.591877,7.64434771 297.443789,7.29484061 C296.932739,7.13890667 296.412817,7.01881961 295.885797,6.93637178 C295.358776,6.85392395 294.828207,6.80911535 294.294089,6.80194597 C289.185365,6.78402253 284.074866,6.78402253 278.966142,6.78402253 C273.857418,6.78402253 268.74692,6.78223019 263.638195,6.7625144 C263.18038,6.7625144 262.892914,6.83779286 262.719015,7.02419665 C262.546891,7.21060044 262.488333,7.50633722 262.491882,7.94725387 C262.509627,10.354372 262.513176,12.7632826 262.513176,15.1721931 C262.513176,17.5811036 262.507852,19.9900141 262.509627,22.3989246 C262.509627,23.0513379 262.509627,23.3775445 262.671105,23.5424401 C262.832582,23.7073358 263.155537,23.7091282 263.799673,23.7109205 L271.680133,23.7127128 L279.560593,23.7109205 Z" id="Shape" fill-rule="nonzero"></path>
                    <path d="M203.60922,30.5526715 L203.60922,31.1473533 L203.60922,31.7420351 C203.60922,33.4615968 203.6056,35.1829498 203.60379,36.9025115 C203.60198,38.6220733 203.60198,40.3434262 203.60922,42.062988 C203.62008,44.228561 204.311473,45.9911118 205.547656,47.2145084 C206.783839,48.4379049 208.56662,49.120356 210.758446,49.1221472 C216.999087,49.129312 223.239729,49.1328944 229.482179,49.1328944 C235.72463,49.1328944 241.965272,49.129312 248.207722,49.1221472 C249.195945,49.1221472 249.628518,49.0684109 249.816751,49.2582791 C250.004984,49.4481474 249.947066,49.8816203 249.956116,50.8524562 C249.956116,51.5223688 249.943446,52.1922814 249.939826,52.8639852 C249.936206,53.5338978 249.941636,54.2038104 249.977835,54.8755142 C250.003174,55.3215255 249.928967,55.5955807 249.746164,55.7567896 C249.561551,55.9179985 249.268342,55.9663612 248.850248,55.9609875 C246.797786,55.9412842 244.743515,55.9377018 242.691054,55.9377018 C240.638592,55.9377018 238.584321,55.9430754 236.53186,55.9430754 C231.963594,55.9430754 227.39171,55.90546 222.821635,55.8929215 C218.25156,55.8803831 213.681484,55.8947128 209.116839,55.9968117 C205.842675,56.0702513 202.762173,54.8701405 200.412883,52.896227 C198.063592,50.9223134 196.443705,48.1710146 196.094388,45.140287 C196.061809,44.8483198 196.03647,44.5545613 196.021991,44.2608028 C196.005701,43.9670444 195.998462,43.6732859 196.000271,43.3777362 C196.000271,38.2656225 196.000271,33.1535087 196.000271,28.0413949 C196.000271,22.9292811 196.000271,17.8171674 196.000271,12.7050536 C196.000271,9.09576515 197.379439,5.92711439 199.672621,3.65944234 C201.965803,1.39177029 205.16938,0.0268681523 208.821821,0.0250769421 C215.480556,0.0179121015 222.135671,0.0179121015 228.790786,0.0161208914 C235.444091,0.0143296812 242.097396,0.0125384711 248.754322,0 C249.221284,0 249.543451,0.0519450944 249.742544,0.227483689 C249.941636,0.403022284 250.019463,0.698571959 249.995934,1.18936354 C249.956116,2.00794658 249.945256,2.82652962 249.948876,3.64690387 C249.952496,4.46727812 249.968785,5.28586115 249.983265,6.10444419 C249.983265,6.39641145 249.934396,6.61135667 249.811321,6.74748864 C249.688246,6.88362061 249.487344,6.94273054 249.183275,6.92123602 C249.034861,6.91227997 248.886447,6.91227997 248.736222,6.91407118 C248.585998,6.91586239 248.433964,6.92123602 248.28012,6.92123602 C242.00509,6.92123602 235.72825,6.92123602 229.453221,6.92123602 C223.178191,6.92123602 216.903161,6.92123602 210.629941,6.92123602 C208.816391,6.92123602 207.285189,7.40128034 206.112354,8.30405026 C204.939519,9.20682017 204.12324,10.5287333 203.741345,12.214262 C203.688857,12.5044381 203.650849,12.7964053 203.630939,13.0883726 C203.60922,13.382131 203.60379,13.6758895 203.61465,13.969648 C203.60741,15.3775391 203.61646,16.7872215 203.61827,18.1969039 C203.62008,19.6065863 203.61646,21.0144775 203.585691,22.4241599 C203.574831,22.9059954 203.650849,23.2069187 203.844511,23.3842485 C204.038174,23.5615783 204.353102,23.6206883 204.823684,23.618897 C210.832654,23.6045674 216.843433,23.5956113 222.852403,23.5938201 C228.861373,23.5902377 234.872153,23.5938201 240.882933,23.6009849 C241.529078,23.6009849 241.853056,23.6009849 242.01595,23.7604026 C242.178843,23.9198204 242.178843,24.2368645 242.178843,24.8727442 C242.178843,25.6268436 242.166174,26.3809431 242.162554,27.1350426 C242.158934,27.889142 242.164364,28.6432415 242.200563,29.3937586 C242.222282,29.8397699 242.166174,30.1299459 241.986991,30.309067 C241.807808,30.488188 241.507359,30.5526715 241.040397,30.5508803 C235.378934,30.5347594 229.71747,30.5258034 224.054197,30.522221 C218.392734,30.5186385 212.729461,30.522221 207.067998,30.531177 L205.343134,30.5419243 L203.60922,30.5526715 Z" id="Path"></path>
                    <path d="M313.966123,49.200152 L314.658905,49.200152 L315.351687,49.200152 C321.526021,49.200152 327.700354,49.200152 333.874687,49.200152 C340.04902,49.200152 346.221568,49.200152 352.395901,49.200152 C354.492103,49.200152 356.216917,48.5673162 357.445356,47.4110014 C358.673794,46.2546866 359.404073,44.5731002 359.509418,42.4738062 C359.554056,41.4913868 359.570126,40.5071747 359.559413,39.5229626 C359.5487,38.5387505 359.511204,37.5563311 359.44514,36.5739118 C359.343365,34.8708125 358.584518,33.3577432 357.425715,32.2749306 C356.266911,31.192118 354.709937,30.5413548 353.01012,30.5610749 C348.323127,30.5521112 343.634347,30.5521112 338.947353,30.553904 C334.258574,30.5556967 329.57158,30.5610749 324.884586,30.5610749 C323.809703,30.5610749 322.750888,30.4660599 321.724214,30.2383824 C320.697539,30.0107049 319.703003,29.650365 318.754891,29.1215078 C316.887236,28.0781354 315.321334,26.7927437 314.183956,25.2205141 C313.046579,23.6482846 312.337727,21.79101 312.182387,19.6038719 C312.071685,18.0101296 311.994907,16.3948743 312.000264,14.7849973 C312.007406,13.1751203 312.098467,11.5670361 312.321658,9.98942831 C312.721614,7.17124718 314.225023,4.69189317 316.356936,2.91170623 C318.488849,1.13331203 321.247479,0.0540849075 324.16145,0.0379502827 C330.498266,0.00388829701 336.835082,-0.00148991126 343.171897,0.000302824832 C349.508713,0.00209556092 355.845528,0.00926650527 362.182344,0.000302824832 C362.548376,0.000302824832 362.791207,0.0612558518 362.942976,0.211845683 C363.094745,0.362435515 363.151882,0.604454886 363.142955,0.966587576 C363.123314,1.75001325 363.110815,2.53702439 363.10903,3.32582827 C363.107244,4.11463215 363.116172,4.90343603 363.142955,5.69044717 C363.159024,6.12249656 363.094745,6.40037066 362.919764,6.56888785 C362.744783,6.73740504 362.4591,6.79835807 362.028789,6.79835807 C356.100858,6.78401618 350.171141,6.7750525 344.24321,6.77325976 C338.315279,6.77146703 332.385562,6.7750525 326.455845,6.78580892 C325.218479,6.78580892 324.091815,7.02424282 323.09728,7.52441619 C322.102744,8.02458955 321.242123,8.78829513 320.533271,9.84063121 C319.761925,10.9826041 319.386966,13.0926545 319.406607,15.1937412 C319.424462,17.2966206 319.836917,19.3941218 320.640402,20.5127891 C321.35104,21.5005867 322.195591,22.2230594 323.166915,22.6999272 C324.138239,23.176795 325.236334,23.4062652 326.450489,23.4044725 C331.073204,23.3973015 335.694133,23.3973015 340.315063,23.3973015 C344.935992,23.3973015 349.558707,23.3973015 354.183208,23.3919233 C355.317014,23.3919233 356.422252,23.4905238 357.488208,23.7343359 C358.554164,23.9799407 359.582625,24.3707572 360.564662,24.9569819 C362.616226,26.1867989 364.198198,27.6998681 365.278438,29.5087388 C366.356893,31.3194023 366.933617,33.4258672 366.974684,35.8442682 C366.99611,37.1386236 367.001466,38.4347718 366.999681,39.7291273 C366.99611,41.0252755 366.985397,42.3196309 366.974684,43.6157791 C366.955043,46.9950866 365.590904,50.0750072 363.392928,52.3159273 C361.194951,54.5550547 358.16135,55.9551816 354.799213,55.9677308 C348.151716,55.9964145 341.50422,55.9982073 334.856724,55.9982073 C328.209227,55.9964145 321.561731,55.9910363 314.914235,56 C314.569629,56 314.321442,55.9641453 314.158959,55.8314828 C313.998262,55.6988203 313.925056,55.4693501 313.935769,55.0803264 C313.962552,54.131969 313.969694,53.1836116 313.969694,52.2119486 C313.971479,51.238493 313.966123,50.2435244 313.966123,49.200152 Z" id="Path"></path>
                    <path d="M70.0797266,71.9977114 C68.9506821,71.9977114 67.853097,72.0012874 66.7712416,71.9994994 C65.6893862,71.9977114 64.6232606,71.9923474 63.5571349,71.9744674 C63.4679998,71.9744674 63.3578918,71.8993716 63.2635134,71.7956679 C63.1673873,71.6937522 63.0852432,71.5632285 63.0502883,71.4559488 C63.0048469,71.3236372 62.9961081,71.1788096 63.0013514,71.028618 C63.0065946,70.8784264 63.0205766,70.7264468 63.0205766,70.5780432 C63.0205766,61.5540313 63.0205766,52.5300195 63.0205766,43.5042197 C63.0205766,34.4784198 63.0205766,25.456196 63.0205766,16.4321842 C63.0205766,15.7169861 63.0205766,15.359387 63.1953513,15.1805875 C63.370126,15.001788 63.7214231,15 64.4222697,15 C69.0240875,15 73.6259053,15 78.227723,15 C82.8295408,15 87.4313586,15 92.0349242,15 C93.7791757,15 95.4028326,15.2914432 96.9023995,15.9011496 C98.4019664,16.510856 99.7774433,17.4352495 101.025335,18.7047261 C102.02155,19.7167314 102.755604,20.8395924 103.243226,22.0625811 C103.730847,23.2855698 103.970288,24.6086863 103.977279,26.0229905 C103.993009,29.194894 104,32.3667975 104,35.538701 C104,38.7106045 103.993009,41.882508 103.977279,45.0526235 C103.96155,48.0117556 102.745118,50.7312963 100.777155,52.730275 C98.8091915,54.7292536 96.0879494,56.0058822 93.0608517,56.07919 C90.2015376,56.1489218 87.3422235,56.1596498 84.4811617,56.1524978 C81.6200999,56.1453458 78.7607859,56.1238899 75.8997241,56.1274659 C75.1010037,56.1274659 74.3005356,56.1364058 73.5018152,56.1399818 C72.7030948,56.1435578 71.9026267,56.1435578 71.1039064,56.1274659 C70.7036723,56.1149499 70.4415103,56.1828937 70.2807175,56.3563293 C70.1199248,56.5297648 70.0605014,56.8051161 70.0622492,57.209203 C70.0779789,59.4656529 70.0814744,61.7203149 70.0814744,63.9767648 C70.0814744,66.2332148 70.0779789,68.4878768 70.0779789,70.7443267 L70.0797266,71.370125 L70.0797266,71.9977114 Z M70.0797266,35.4600292 C70.0797266,37.6503233 70.0797266,39.8406175 70.0797266,42.0291236 C70.0797266,44.2176298 70.0797266,46.4097119 70.0797266,48.598218 C70.0797266,48.9325731 70.0937086,49.2115004 70.2143031,49.4063919 C70.3348977,49.6012833 70.5603571,49.713927 70.9815641,49.713927 C74.3686977,49.713927 77.7558314,49.726443 81.142965,49.733595 C84.5300987,49.740747 87.9154846,49.740747 91.3026182,49.713927 C92.7899509,49.7014111 94.1689232,49.0398528 95.1773733,48.0010276 C96.1858233,46.9622024 96.8289941,45.5514742 96.8429761,44.0370422 C96.8726878,41.2120098 96.8866698,38.3869774 96.884922,35.5583689 C96.8831743,32.7315485 96.8639491,29.9029401 96.8307419,27.0725437 C96.8080212,26.6344848 96.7346158,26.20179 96.6105258,25.7851871 C96.4864357,25.3685842 96.3134088,24.9662853 96.0949404,24.5908063 C95.441283,23.4160935 94.5639141,22.6365276 93.5397343,22.1466169 C92.5155546,21.6567062 91.3410686,21.4582387 90.0931773,21.4475107 C86.9472327,21.4332068 83.7995404,21.4332068 80.6518481,21.4332068 C77.5041558,21.4332068 74.3564635,21.4332068 71.2087712,21.4206908 C70.7735822,21.4206908 70.4869517,21.4939986 70.3104292,21.6799501 C70.1339068,21.8659016 70.0674924,22.1644968 70.0709879,22.6114956 C70.0814744,24.7517259 70.0832221,26.8937441 70.0832221,29.0339744 C70.0814744,31.1759927 70.0797266,33.3180109 70.0797266,35.4600292 Z" id="Shape" fill-rule="nonzero"></path>
                    <path d="M130.08399,39.6427068 C127.445679,39.6427068 124.807367,39.6479284 122.169056,39.6479284 C119.530744,39.6479284 116.892433,39.6444474 114.255869,39.6253018 C113.780309,39.6253018 113.456858,39.6897004 113.255794,39.8776748 C113.05473,40.0656491 112.977801,40.3754587 112.998781,40.8662805 C113.035497,41.7730827 113.038994,42.6798848 113.035497,43.5866869 C113.032001,44.493489 113.018014,45.4020317 113.02151,46.3070933 C113.02151,47.4662684 113.348458,48.3800325 113.972631,49.0031326 C114.596804,49.6262327 115.516454,49.9638903 116.70011,49.9708523 C118.747468,49.9812954 120.793077,49.9812954 122.840435,49.9795549 C124.887793,49.9760738 126.933402,49.9708523 128.98076,49.9708523 C131.202956,49.9708523 133.425152,49.9760738 135.649096,49.9760738 C137.871293,49.9760738 140.095237,49.9725928 142.317433,49.9551878 C142.717813,49.9551878 142.983567,50.0143649 143.14267,50.1727507 C143.301773,50.3311365 143.35947,50.5869904 143.343735,50.9803441 C143.31576,51.6800264 143.307018,52.3814492 143.310515,53.0811314 C143.312264,53.7825542 143.326251,54.4822364 143.343735,55.1819187 C143.350728,55.4952092 143.291283,55.6988481 143.154909,55.8259048 C143.018535,55.9529615 142.803484,56.0016956 142.495768,55.9999551 C137.890525,55.9912526 133.28703,55.9982146 128.681786,55.9982146 C124.076543,55.9982146 119.471299,55.9912526 114.866055,55.954702 C112.836182,55.9390375 110.928695,55.2654628 109.411097,54.1619838 C107.8935,53.0585049 106.767541,51.5251216 106.304219,49.7915805 C106.204561,49.3912648 106.131129,48.9874681 106.082174,48.5784498 C106.034968,48.1694316 106.012239,47.7586729 106.015735,47.3479141 C106.003497,43.9730786 106,40.5982431 106,37.225148 C106,33.852053 106.001748,30.4772174 106.003497,27.1023819 C105.996503,24.2549188 107.08225,21.6424236 108.883085,19.6791361 C110.683921,17.7158486 113.198097,16.4000282 116.047963,16.1476553 C116.888936,16.0728137 117.735154,16.0345226 118.58312,16.0171176 C119.431086,15.9997125 120.279052,16.001453 121.12527,16.004934 C123.742601,16.0153771 126.365177,15.994491 128.989502,16.001453 C131.612078,16.008415 134.236402,16.0432251 136.853733,16.1650603 C139.252516,16.2729715 141.502686,17.2667988 143.272051,18.79322 C145.041415,20.3179008 146.328226,22.3751754 146.80029,24.6099814 C146.86498,24.9685251 146.912186,25.3288092 146.94016,25.6908339 C146.968135,26.0528585 146.978625,26.4166237 146.969883,26.7803888 C146.978625,28.7227903 146.971631,30.6634513 146.969883,32.6058528 C146.968135,34.5482542 146.971631,36.4889152 146.999606,38.4313167 C147.006599,38.9343221 146.920928,39.2406506 146.716367,39.4199225 C146.511806,39.5991943 146.190104,39.6514094 145.726782,39.6479284 C143.119941,39.6357448 140.513101,39.6340043 137.90626,39.6357448 C135.295923,39.6392258 132.690831,39.6427068 130.08399,39.6427068 Z M126.445603,33.3612311 C128.506948,33.3612311 130.570041,33.3560096 132.631386,33.3560096 C134.694479,33.3560096 136.755823,33.3594906 138.817168,33.3786361 C139.228039,33.3786361 139.514773,33.329902 139.693109,33.1715163 C139.871444,33.014871 139.943128,32.748574 139.922147,32.3169292 C139.890676,31.6503165 139.890676,30.9819633 139.895921,30.3136102 C139.901166,29.645257 139.913405,28.9751633 139.904663,28.3068101 C139.892424,26.7107687 139.296225,25.2487461 138.303143,24.1783367 C137.310061,23.1079273 135.920096,22.4273905 134.322073,22.39084 C131.716981,22.3334034 129.111889,22.3055553 126.506796,22.3055553 C123.901704,22.3055553 121.294864,22.3334034 118.688023,22.39084 C117.088252,22.4273905 115.691293,23.0974842 114.684223,24.1557101 C113.677154,25.213936 113.059975,26.6620346 113.018014,28.2528545 C113.00053,28.9368722 113.007523,29.6208899 113.014517,30.3066481 C113.02151,30.9924064 113.023259,31.6764241 112.998781,32.3587013 C112.983046,32.765979 113.056478,33.0200925 113.229568,33.1715163 C113.402658,33.32294 113.677154,33.3734146 114.065296,33.3699336 C116.130137,33.3577501 118.191482,33.3560096 120.254575,33.3560096 C122.319417,33.3577501 124.38251,33.3612311 126.445603,33.3612311 Z" id="Shape" fill-rule="nonzero"></path>
                    <path d="M193.982348,40.2760049 C193.982348,42.7069615 193.977052,45.1396557 193.977052,47.5706123 C193.977052,50.0015689 193.980583,52.4342631 194,54.8652197 C194,55.2926788 193.945278,55.5863397 193.775818,55.7670542 C193.608123,55.9477686 193.325689,56.0172741 192.872029,55.9964225 C192.04944,55.9616697 191.223321,55.9460309 190.398967,55.9460309 C189.574613,55.9460309 188.750258,55.9634073 187.9312,55.9964225 C187.498723,56.0137989 187.22688,55.9512439 187.062715,55.7809553 C186.898551,55.6106667 186.845594,55.3309068 186.84736,54.9121359 C186.859716,50.573252 186.868542,46.2343681 186.870307,41.8954842 C186.872073,37.5566003 186.870307,33.2177164 186.861481,28.8788325 C186.861481,26.9587417 186.347804,25.37054 185.35046,24.2445501 C184.353115,23.1185602 182.870336,22.4530445 180.932133,22.3765884 C178.257836,22.2688548 175.578244,22.2202009 172.896886,22.2254139 C170.215529,22.2306268 167.535937,22.2914441 164.859875,22.3991777 C163.052297,22.4721586 161.629536,23.1307236 160.656904,24.2167478 C159.684272,25.302772 159.163534,26.817993 159.156474,28.6060233 C159.145882,32.2620151 159.145882,35.918007 159.147647,39.5739989 C159.151178,43.2299908 159.156474,46.884245 159.156474,50.5402369 C159.156474,51.2874215 159.151178,52.0346062 159.149413,52.7817908 C159.147647,53.5289755 159.147647,54.2761601 159.156474,55.0216071 C159.163534,55.3534961 159.122935,55.5985032 158.987013,55.7601036 C158.851092,55.9199664 158.618084,55.9964225 158.238563,55.9859966 C157.334774,55.9634073 156.430986,55.9547191 155.525432,55.9547191 C154.621643,55.9564568 153.716089,55.9668826 152.8123,55.9859966 C152.482206,55.9929472 152.279206,55.9338675 152.157407,55.8000693 C152.037372,55.6645335 151.998538,55.4525415 152.000303,55.1501924 C152.007364,50.366473 152.000303,45.5827536 152.000303,40.7990342 C151.998538,36.0153148 152.003833,31.2315954 152.033842,26.447876 C152.049729,23.936988 153.110621,21.5703241 154.826408,19.7353776 C156.542194,17.9004311 158.912874,16.597202 161.546571,16.2131839 C161.913735,16.1558418 162.282665,16.1106632 162.651594,16.0776481 C163.020523,16.0446329 163.392983,16.0255189 163.763678,16.020306 C166.863391,16.0133554 169.963104,16.0046672 173.062816,16.001192 C176.162529,15.9977167 179.262242,16.001192 182.36019,16.020306 C184.476679,16.0342071 186.374283,16.4859932 188.047704,17.3565502 C189.721125,18.2288448 191.170365,19.521648 192.388361,21.2210587 C192.891447,21.9143765 193.279793,22.6754623 193.541045,23.4765137 C193.804061,24.2775652 193.941748,25.1185823 193.943513,25.9700253 C193.9594,28.3540656 193.961165,30.738106 193.961165,33.1221463 C193.961165,35.5061866 193.95587,37.890227 193.95587,40.2742673 L193.966461,40.2742673 L193.982348,40.2742673 L193.982348,40.2760049 Z" id="Path"></path>
                    <path d="M56.9844324,28.1631607 C56.9844324,30.7317124 56.9950827,33.3020553 56.9986328,35.870607 C57.0021828,38.4391588 57.0004078,41.0095017 56.9737821,43.5780534 C56.9542567,46.4833469 55.9353816,49.1862372 54.2153643,51.3123675 C52.495347,53.4384978 50.0777375,54.9896595 47.2607432,55.5914959 C46.8365077,55.682846 46.4087222,55.752702 45.9791616,55.7974815 C45.547826,55.842261 45.1164904,55.8637552 44.6816047,55.861964 C44.3798473,55.861964 44.0798649,55.861964 43.7781075,55.8637552 C43.4763501,55.8655464 43.1763677,55.8691287 42.8746103,55.8762934 C39.0973173,55.981973 35.3200244,55.9909289 31.5409564,55.9801819 C27.7618884,55.9694348 23.9845955,55.9389847 20.2055275,55.9658524 C19.1121006,55.9730171 18.0186737,55.9694348 16.9252468,55.9676436 C15.8318199,55.9676436 14.738393,55.9694348 13.6449661,55.9927201 C12.8887975,56.0088407 12.136179,56.001676 11.3906606,55.9354024 C10.6451423,55.8691287 9.90849916,55.7455373 9.1825063,55.5252222 C6.94950136,54.8481563 5.09635576,53.7824043 3.63726986,52.3172193 C2.17995901,50.8520343 1.11670785,48.9892074 0.465266819,46.7179915 C0.323263325,46.2092964 0.218535749,45.6916455 0.147534002,45.168621 C0.0783072986,44.6455965 0.0445814688,44.1189897 0.0463565124,43.5905917 C0.0463565124,42.9780082 0.0445814688,42.3654247 0.0428064251,41.7546325 C0.0410313814,41.1438402 0.0374812941,40.5294655 0.0321561631,39.9186732 C0.026831032,35.8634423 0.021505901,31.8064202 0.01618077,27.7511893 C0.010855639,23.6941672 0.00730555165,19.6389363 0.0037554643,15.5819143 C0.0037554643,14.9209689 -0.00334471039,14.2600236 0.00198042063,13.5990783 C0.00730555165,12.938133 0.0232809447,12.2771877 0.0676570365,11.6198247 C0.142208871,10.4734697 0.378289679,9.35039998 0.7652492,8.28285686 C1.15220872,7.21531374 1.69004695,6.20150601 2.36456355,5.27725727 C3.31243687,3.92670776 4.51414144,2.79826453 5.88270011,1.94745415 C7.25125878,1.09664378 8.79022164,0.51988391 10.4126116,0.272701108 C11.0196765,0.170603863 11.6285165,0.147318527 12.2373565,0.140153808 C12.8461964,0.132989089 13.4568115,0.143736167 14.0656514,0.113286112 C16.119377,0.00760650774 18.1731025,-0.00672293009 20.2286031,0.00223296855 C22.2823286,0.0111888672 24.3378292,0.0416389226 26.3915547,0.0273094848 C28.4452802,0.0129800469 30.5043309,0.0111888672 32.5651566,0.0147712267 C34.6259823,0.0183535861 36.686808,0.0273094848 38.7458587,0.0273094848 C39.7718339,0.0273094848 40.7995842,0.0147712267 41.8273345,0.00760650774 C42.8550848,0.000441788825 43.88106,0.000441788825 44.9088103,0.0273094848 C46.4104972,0.052386001 47.8820085,0.360468914 49.2505671,0.92110817 C50.6191258,1.48174742 51.886507,2.29494302 52.9817089,3.33382726 C53.9810585,4.23299949 54.815329,5.29158671 55.4525697,6.45764471 C56.0898104,7.62370272 56.5353464,8.89902268 56.7572268,10.2316604 C56.8282286,10.6400494 56.8814799,11.0502295 56.9187558,11.4639921 C56.9560317,11.8759634 56.9755572,12.2897259 56.9791073,12.7052796 C56.9879825,15.2827872 56.9879825,17.862086 56.9862075,20.4395937 C56.9844324,23.0171013 56.9791073,25.5946089 56.9791073,28.1721166 L56.9791073,28.1631607 L56.9844324,28.1631607 Z M28.7665631,49.2292255 C30.914366,49.2292255 33.0603938,49.2292255 35.2081966,49.2292255 C37.3559995,49.2292255 39.5020273,49.2292255 41.6498301,49.2292255 C42.091816,49.2310166 42.5338019,49.2184784 42.9740127,49.1898195 C43.4142235,49.1611606 43.8544344,49.1199635 44.2928701,49.0608546 C45.1661916,48.9605485 46.0004622,48.6811245 46.7477555,48.2512413 C47.4950489,47.8213582 48.1571402,47.2374336 48.6878783,46.5299176 C49.0570874,46.0731668 49.3517446,45.5644717 49.5629748,45.0235355 C49.7759801,44.4825992 49.9055582,43.9094217 49.9463842,43.3219147 C49.9623596,43.0066671 49.9623596,42.6914195 49.9588095,42.3743806 C49.9552595,42.0573418 49.9463842,41.7420942 49.9463842,41.4250554 C49.9392841,40.6745511 49.9304089,39.9240468 49.9215336,39.1735425 C49.9126584,38.4230382 49.9037832,37.6725339 49.8931329,36.9238207 C49.8860328,36.3757197 49.8771575,35.8258276 49.8682823,35.2777266 C49.8594071,34.7278344 49.8505319,34.1797334 49.8416567,33.6316324 L49.8168061,31.704323 L49.7919554,29.7770136 L49.7706549,28.0592722 L49.7493544,26.3415309 L49.7227287,24.4948246 L49.6961031,22.6481183 C49.6872279,22.0624025 49.6783526,21.4784779 49.6694774,20.8927622 C49.6606022,20.3070464 49.651727,19.7231218 49.6446268,19.137406 C49.6339766,18.3170457 49.6286514,17.4948942 49.6197762,16.6727427 C49.610901,15.8505912 49.6002507,15.0302309 49.5825003,14.2080794 C49.5789502,13.8731288 49.5629748,13.5399694 49.5363492,13.2068099 C49.5097235,12.8736505 49.4688975,12.5422823 49.4191963,12.210914 C49.3144687,11.503398 49.0925882,10.8227497 48.7677552,10.1958368 C48.4429223,9.5689239 48.0169118,8.99753757 47.5021491,8.50675432 C46.8702336,7.90850029 46.1708664,7.4750348 45.4146977,7.18128132 C44.6603042,6.88752785 43.8491092,6.73348639 42.9953132,6.69049808 C42.8763853,6.69049808 42.7556823,6.71199223 42.6349794,6.73527757 C42.5142764,6.75856291 42.3935734,6.78184824 42.2710954,6.7854306 C42.0687404,6.7854306 41.8646104,6.78005706 41.6622554,6.77468352 C41.4581254,6.76930999 41.2557704,6.76214527 41.0516404,6.76214527 C40.2333453,6.76214527 39.4150501,6.75677173 38.596755,6.75139819 C37.7784599,6.74602465 36.9583897,6.74065111 36.1400946,6.74065111 C32.6290582,6.74065111 29.1180218,6.74065111 25.6069854,6.74065111 C22.095949,6.74065111 18.5849126,6.74065111 15.0738762,6.74065111 C14.697567,6.74244229 14.3230328,6.75498055 13.9484986,6.78005706 C13.5739643,6.80513358 13.1994301,6.84453953 12.826671,6.89469257 C12.0474268,6.97887801 11.2948083,7.20277548 10.6043163,7.55205553 C9.91382429,7.90133557 9.28545883,8.37420702 8.75294573,8.95454926 C8.22930784,9.52951795 7.80507241,10.147475 7.50864011,10.8227497 C7.21398286,11.4980245 7.04712876,12.2270346 7.04357867,13.0205272 C7.04357867,13.6689343 7.05067885,14.3155502 7.05955406,14.9621661 C7.06842928,15.6087819 7.08085459,16.257189 7.08972981,16.9038049 L7.11635546,18.698567 L7.14298112,20.4933291 L7.16960677,22.4081002 L7.19623243,24.3228713 L7.21930799,26.0907657 L7.24238356,27.8586601 L7.26900922,29.721487 L7.29563487,31.584314 L7.32226053,33.3110112 L7.34888618,35.0377085 C7.3577614,35.6628302 7.36663662,36.2879519 7.37551184,36.9130736 C7.38438706,37.5381954 7.39326227,38.1633171 7.40036245,38.7884388 C7.40036245,39.3025074 7.39681236,39.816576 7.39858741,40.3288534 C7.40036245,40.842922 7.40923767,41.3551994 7.43408828,41.869268 C7.4429635,42.2740746 7.4713642,42.6788812 7.51929038,43.0801055 C7.56721655,43.4813297 7.63289317,43.8807628 7.71809527,44.2766135 C8.13345549,45.9818166 9.01920228,47.2159395 10.1783058,48.0380909 C11.3374093,48.8602424 12.7663195,49.2668402 14.2697815,49.3205756 C14.3248078,49.3205756 14.3798342,49.2919168 14.4366356,49.2632579 C14.493437,49.234599 14.5484633,49.2059401 14.6052647,49.2059401 C14.9460731,49.2059401 15.2868815,49.2113137 15.6276899,49.2166872 C15.9684983,49.2220607 16.3093066,49.2292255 16.650115,49.2292255 L22.7101141,49.2292255 L28.7665631,49.2292255 Z" id="Shape" fill-rule="nonzero"></path>
                </g>
                <g id="Group-Copy-2">
                    <polygon id="Path" fill="#FFFFFF" points="11.5543166 38.8569737 23.5857378 37.9310201 35.6171591 37.0067378 37.3841055 32.3335132 39.1527379 27.6586173 40.1828946 20.4064279 41.2147373 13.1525672 44.2107905 8.57628358 47.2051577 4 50.1034218 4 53 4 50.9380005 26.9298884 48.8760011 49.8581054 50.9380005 55.8951895 53 61.9306022 51.0357896 77.1202535 49.0715791 92.3082334 48.776526 93.5734805 48.483159 94.840399 40.9685788 97.4193638 33.4556846 100 27.2680002 98.1982346 21.0803157 96.3981406 17.3491589 96.7391055 13.6163161 97.0800703 12.8306319 96.7391055 12.0449477 96.3981406 10.5224738 82.6208193 9 68.8434981 9 59.6424604 9 50.4430942 12.3888953 47.6669046 15.7777906 44.8923864 13.6652106 41.8738444"></polygon>
                    <polygon id="Path" fill="#FFFFFF" points="24 35 23.2162439 28.5008454 22.4324878 22 19.7153472 24.7575758 17 27.5151515 19.1414297 30.6666667 21.2828593 33.8181818 22.6423264 34.4099363"></polygon>
                    <g id="Group">
                        <path d="M10.9210217,0.128470004 C11.3415575,0.182784615 11.3323587,0.199934491 11.5925219,0.240828784 C11.8526852,0.281723077 11.9814758,0.302185059 12.2998199,0.397460938 C12.4050446,0.436401367 12.455719,0.436401367 12.6618652,0.513839722 C13.0603333,0.612076923 13.1909189,0.692569231 13.5092973,0.778092308 C13.8276757,0.863615385 14.1443784,0.960876923 14.4862162,1.05813846 C15.2670811,1.3516 15.9256216,1.7658 16.5121081,2.2672 C17.0985946,2.7686 17.6096757,3.35384615 18.098973,3.9894 C18.8798378,4.96704615 19.5149189,6.0168 20.0394054,7.11518462 C20.5638919,8.21356923 20.9794595,9.36226154 21.3212973,10.5344308 C21.6631351,11.5607077 21.9563784,12.6104615 22.2127568,13.6602154 C22.4691351,14.7099692 22.6886486,15.7597231 22.883027,16.786 C23.1276757,17.8609077 23.3220541,18.9592923 23.492973,20.0576769 C23.6638919,21.1560615 23.8096757,22.2561231 23.9571351,23.3293538 C24.0543243,24.2566923 24.1280541,25.1605538 24.2017838,26.0644154 C24.2755135,26.9682769 24.3475676,27.8721385 24.4464324,28.7994769 C24.2017838,29.1902 24.0308649,29.5809231 23.8850811,29.9833846 C23.7392973,30.3858462 23.616973,30.8017231 23.4695135,31.2410769 C23.3237297,31.7290615 23.1762703,32.2187231 23.0539459,32.7067077 C22.9316216,33.1946923 22.8344324,33.6843538 22.7858378,34.1723385 C22.444,33.0974308 22.2496216,31.9990462 22.1507568,30.8755077 C22.0535676,29.7519692 22.0535676,28.6049538 22.1021622,27.4327846 C21.8575135,27.8721385 21.6631351,28.3366462 21.4922162,28.8011538 C21.3212973,29.2656615 21.1755135,29.7284923 21.0280541,30.1695231 C21.0280541,30.0236308 21.0280541,29.9012154 21.0280541,29.7905385 C21.0280541,29.6798615 21.0280541,29.5826 21.0280541,29.4853385 C21.0280541,28.7525231 21.0280541,28.0197077 21.0163243,27.2751538 C21.0045946,26.5306 20.9794595,25.7726308 20.9308649,24.9911846 C20.8822703,23.7217538 20.7599459,22.4758 20.589027,21.2432615 C20.4181081,20.0107231 20.1985946,18.7882462 19.9539459,17.5674462 C19.7092973,16.1504462 19.3674595,14.7837538 18.9167027,13.4405385 C18.4659459,12.0973231 17.9045946,10.7792615 17.2209189,9.45952308 C16.8790811,8.8726 16.5372432,8.28735385 16.1468108,7.73732308 C15.7563784,7.18729231 15.3173514,6.67583077 14.7794595,6.2348 C14.2918378,5.79544615 13.7539459,5.40472308 13.1691351,5.123 C12.5826486,4.84295385 11.9492432,4.67190769 11.2655676,4.67190769 C10.2886486,4.62327692 9.38713514,4.76916923 8.54427027,5.07436923 C7.70308108,5.37956923 6.92221622,5.84407692 6.18994595,6.42932308 C5.70232432,6.82004615 5.33535135,7.28455385 5.03037838,7.79769231 C4.72540541,8.31083077 4.48075676,8.8726 4.23778378,9.45784615 C3.89594595,10.3851846 3.72502703,11.3376769 3.6647027,12.3035846 C3.60437838,13.2678154 3.65297297,14.2454615 3.75016216,15.2214308 C3.89594595,16.4908615 4.11545946,17.7368154 4.39697297,18.9576154 C4.67681081,20.1784154 5.01864865,21.3757385 5.40908108,22.5479077 C6.28713514,25.3316 7.40983784,28.0180308 8.72859459,30.6189385 C10.0456757,33.2198462 11.5588108,35.7352308 13.2194054,38.1768308 C13.7556216,38.9582769 14.316973,39.6910923 14.9269189,40.3870154 C15.5368649,41.0829385 16.1954054,41.7419692 16.9276757,42.3775231 C17.2695135,42.7196154 17.5627568,42.8655077 17.8191351,42.8168769 C18.0755135,42.7682462 18.295027,42.5234154 18.4894054,42.0840615 C18.7826486,41.5474462 19.0256216,41.0091538 19.2334054,40.4725385 C19.4411892,39.9359231 19.6121081,39.3976308 19.7578919,38.8610154 C19.8550811,38.4702923 19.9539459,38.0795692 20.0377297,37.6888462 C20.1231892,37.2981231 20.1969189,36.9074 20.2455135,36.5166769 C20.3427027,36.8587692 20.4164324,37.1757077 20.5018919,37.4943231 C20.5873514,37.8112615 20.6845405,38.1298769 20.832,38.4719692 C21.0280541,38.9113231 21.1972973,39.3993077 21.4536757,39.8403385 C21.7100541,40.2796923 22.0518919,40.6704154 22.5881081,40.9152462 C22.6367027,40.9638769 22.6618378,40.9890308 22.6735676,41.0259231 C22.6852973,41.0628154 22.6852973,41.1114462 22.6852973,41.2087077 C22.5395135,41.6480615 22.5143784,42.0874154 22.5512432,42.5401846 C22.5881081,42.9912769 22.6852973,43.4557846 22.7824865,43.9437692 C22.8796757,44.4317538 23.002,44.8962615 23.1477838,45.3473538 C23.2935676,45.7984462 23.4644865,46.2394769 23.6605405,46.6788308 C23.7577297,46.9722923 23.8800541,47.2406 24.0023784,47.4971692 C24.1247027,47.7537385 24.247027,47.9985692 24.3442162,48.2417231 C24.247027,47.8023692 24.2218919,47.3630154 24.247027,46.9236615 C24.2721622,46.4843077 24.3442162,46.0449538 24.4430811,45.6056 C24.5419459,45.1662462 24.6625946,44.7268923 24.8335135,44.2992769 C25.0044324,43.8716615 25.2239459,43.4574615 25.5171892,43.0667385 C25.3211351,44.6782615 25.3714054,46.2897846 25.6143784,47.8895692 C25.859027,49.4893538 26.2980541,51.0757231 26.8828649,52.6402923 C26.9314595,52.5916615 26.9565946,52.5665077 26.9683243,52.5547692 C26.9800541,52.5430308 26.9800541,52.5430308 26.9800541,52.5430308 C26.9800541,51.7129538 26.9800541,50.8828769 27.0051892,50.0528 C27.0303243,49.2227231 27.0789189,48.3926462 27.1761081,47.5625692 C27.2247027,47.0259538 27.2984324,46.5362923 27.4073514,46.0600462 C27.5162703,45.5838 27.6637297,45.1192923 27.8581081,44.6313077 C28.0038919,44.3864769 28.1262162,44.1433231 28.2854054,43.9353846 C28.4445946,43.7274462 28.638973,43.5564 28.9322162,43.4591385 C28.9808108,43.4105077 29.0545405,43.3853538 29.1148649,43.3987692 C29.1751892,43.4121846 29.2254595,43.4591385 29.2254595,43.5580769 C29.4701081,44.145 29.7130811,44.7554 29.9325946,45.3775385 C30.1521081,45.9996769 30.3481622,46.6352308 30.4939459,47.2707846 C30.5911351,47.7101385 30.6648649,48.1260154 30.69,48.5402154 C30.7151351,48.9544154 30.69,49.3702923 30.5928108,49.8096462 C30.5928108,49.8582769 30.5676757,49.8834308 30.5559459,49.8951692 C30.5442162,49.9069077 30.5442162,49.9069077 30.5928108,49.9069077 C30.6414054,49.9069077 30.6665405,49.8817538 30.69,49.8582769 C30.7151351,49.8331231 30.7385946,49.8096462 30.7871892,49.8096462 C31.4222703,49.0282 31.9584865,48.1729692 32.3975135,47.2691077 C32.8365405,46.3652462 33.1783784,45.4127538 33.423027,44.4367846 C33.4716216,44.1919538 33.4967568,43.9236462 33.5084865,43.6553385 C33.5202162,43.3870308 33.5202162,43.1187231 33.5202162,42.8738923 C33.5202162,42.6290615 33.4950811,42.3859077 33.4598919,42.1410769 C33.423027,41.8962462 33.3744324,41.6530923 33.3258378,41.4082615 C33.6190811,41.6530923 33.9123243,41.9214 34.1804324,42.2014462 C34.4485405,42.4814923 34.6931892,42.7749538 34.8875676,43.0684154 C35.3751892,43.6553385 35.7907568,44.2405846 36.1191892,44.8509846 C36.4492973,45.4613846 36.6922703,46.0969385 36.8397297,46.7794462 C36.9369189,47.1215385 37.0106486,47.4636308 37.0475135,47.8174615 C37.0843784,48.1712923 37.0843784,48.5385385 37.0357838,48.9292615 C36.9871892,49.1740923 36.9385946,49.3937692 36.9017297,49.6000308 C36.8648649,49.8062923 36.8414054,50.0024923 36.8414054,50.1986923 C36.8414054,50.1986923 36.8414054,50.2238462 36.8296757,50.2473231 C36.8179459,50.2724769 36.7928108,50.2959538 36.7442162,50.2959538 L36.7442162,50.2473231 L36.7442162,50.1986923 C36.7928108,50.1500615 36.8179459,50.1249077 36.8296757,50.0880154 C36.8414054,50.0511231 36.8414054,50.0024923 36.8414054,49.9052308 C37.1346486,49.3183077 37.4027568,48.7079077 37.6474054,48.0857692 C37.8920541,47.4636308 38.1115676,46.8280769 38.3059459,46.1925231 C38.4517297,45.6056 38.5740541,45.0203538 38.6595135,44.4334308 C38.744973,43.8465077 38.7935676,43.2612615 38.7935676,42.6743385 C38.7935676,42.6257077 38.7935676,42.5519231 38.7818378,42.4664 C38.7701081,42.3808769 38.744973,42.2836154 38.6963784,42.1863538 C38.8421622,42.2349846 38.941027,42.3087692 39.0130811,42.3942923 C39.0851351,42.4798154 39.1354054,42.5770769 39.184,42.6743385 C39.4286486,43.0164308 39.5995676,43.3585231 39.7336216,43.7240923 C39.8676757,44.0896615 39.9648649,44.4803846 40.0637297,44.9214154 C40.1123243,45.1662462 40.1609189,45.4345538 40.2095135,45.7028615 C40.2581081,45.9711692 40.3067027,46.2394769 40.3552973,46.4843077 C40.4038919,46.3384154 40.4524865,46.216 40.5010811,46.1053231 C40.5496757,45.9946462 40.5982703,45.8973846 40.6468649,45.8001231 C40.8915135,45.0673077 41.0624324,44.3344923 41.1478919,43.5899385 C41.2333514,42.8453846 41.2333514,42.0874154 41.1361622,41.3059692 C41.0875676,40.9638769 41.0138378,40.6217846 40.9049189,40.2931077 C40.7943243,39.9627538 40.6485405,39.6458154 40.4541622,39.3523538 C40.4055676,39.3037231 40.3804324,39.2299385 40.3804324,39.1561538 C40.3804324,39.0823692 40.4055676,39.0102615 40.4541622,38.9599538 C40.5513514,38.7637538 40.6502162,38.5943846 40.734,38.4099231 C40.8194595,38.2271385 40.8931892,38.0309385 40.9417838,37.7877846 C40.9417838,37.8364154 40.9417838,37.8615692 40.9535135,37.8733077 C40.9652432,37.8850462 40.9903784,37.8850462 41.038973,37.8850462 C41.1847568,38.5692308 41.3808108,39.2534154 41.6254595,39.9241846 C41.8701081,40.5949538 42.1616757,41.2556615 42.5035135,41.8895385 C42.7481622,42.3288923 42.9911351,42.5737231 43.2726486,42.6223538 C43.5524865,42.6709846 43.8708649,42.5250923 44.2612973,42.183 C44.7489189,41.7922769 45.1879459,41.3764 45.6035135,40.9370462 C46.0190811,40.4976923 46.4095135,40.0331846 46.7999459,39.5452 C47.9712432,38.0795692 49.0202162,36.5653077 49.9837297,34.9906769 C50.9472432,33.4160462 51.826973,31.7793692 52.6564324,30.0705846 C53.6333514,28.0683385 54.4862703,25.9923077 55.2068108,23.8793846 C55.9273514,21.7664615 56.5121622,19.6183231 56.9511892,17.4685077 C57.1472432,16.4908615 57.3164865,15.4897385 57.4019459,14.4768769 C57.4874054,13.4640154 57.4874054,12.4377385 57.3416216,11.4114615 C57.2444324,10.5813846 57.0483784,9.79993846 56.7434054,9.05538462 C56.4384324,8.31083077 56.0228649,7.60149231 55.4866486,6.91898462 C54.999027,6.33206154 54.3890811,5.86923077 53.7054054,5.50198462 C53.0217297,5.13641538 52.266,4.86643077 51.4851351,4.67190769 C50.6556757,4.47570769 49.8496757,4.45223077 49.0822162,4.59812308 C48.3130811,4.74401538 47.5808108,5.06263077 46.8988108,5.55061538 C46.5083784,5.84407692 46.1430811,6.16101538 45.8012432,6.50310769 C45.4594054,6.8452 45.1427027,7.21076923 44.8494595,7.60149231 C44.262973,8.4802 43.7518919,9.38406154 43.2994595,10.3130769 C42.8487027,11.2404154 42.4582703,12.1929077 42.1164324,13.1705538 C41.7745946,14.1482 41.4813514,15.1493231 41.2501081,16.1621846 C41.0188649,17.1750462 40.8479459,18.2013231 40.7490811,19.2276 C40.6518919,20.0090462 40.553027,20.7904923 40.4692432,21.5602 C40.3837838,22.3299077 40.3100541,23.0862 40.2614595,23.8190154 C40.2128649,24.1611077 40.1877297,24.5266769 40.176,24.8939231 C40.1642703,25.2594923 40.1642703,25.6267385 40.1642703,25.9688308 C40.1156757,26.5557538 40.0905405,27.141 40.0905405,27.7396615 C40.0905405,28.3383231 40.1156757,28.9487231 40.1642703,29.5842769 C40.1642703,30.0236308 40.1894054,30.4629846 40.2128649,30.8906 C40.238,31.3182154 40.2614595,31.7324154 40.2614595,32.1231385 C40.1642703,31.8783077 40.0905405,31.6586308 40.0168108,31.4389538 C39.9430811,31.2192769 39.871027,30.9996 39.7721622,30.7547692 C39.7235676,30.6088769 39.6498378,30.4613077 39.5895135,30.3154154 C39.5291892,30.1695231 39.4789189,30.0219538 39.4789189,29.8760615 C39.5275135,30.2667846 39.5275135,30.6575077 39.5157838,31.0482308 C39.5040541,31.4389538 39.4789189,31.8296769 39.4789189,32.2204 C39.4789189,32.6111231 39.4537838,32.9766923 39.3934595,33.3322 C39.3331351,33.6877077 39.2342703,34.0281231 39.0884865,34.3702154 C38.9427027,34.7123077 38.7952432,35.0057692 38.5874595,35.2371846 C38.3796757,35.4686 38.1115676,35.6396462 37.7211351,35.7385846 C37.6239459,35.7872154 37.5502162,35.8123692 37.4898919,35.7872154 C37.4295676,35.7620615 37.3792973,35.6899538 37.3307027,35.5423846 C37.2335135,35.2489231 37.1849189,34.9806154 37.1715135,34.7123077 C37.1581081,34.444 37.1832432,34.1756923 37.2318378,33.8822308 C37.2804324,33.4428769 37.4027568,33.0521538 37.5736757,32.6849077 C37.7445946,32.3193385 37.9641081,31.9772462 38.2087568,31.6351538 C38.2573514,31.5865231 38.2824865,31.5613692 38.2942162,31.5378923 C38.3059459,31.5144154 38.3059459,31.4892615 38.3059459,31.4406308 C38.2573514,31.392 38.2322162,31.3668462 38.2087568,31.3551077 C38.1836216,31.3433692 38.1601622,31.3433692 38.1115676,31.3433692 C37.8183243,31.3433692 37.5250811,31.392 37.2452432,31.4657846 C36.9654054,31.5395692 36.6956216,31.6368308 36.4526486,31.7340923 C36.5498378,30.6591846 36.6235676,29.5608 36.6972973,28.4741538 C36.771027,27.3875077 36.8430811,26.3126 36.9419459,25.288 C37.0391351,24.2130923 37.1614595,23.1147077 37.3072432,22.0029077 C37.453027,20.8911077 37.6239459,19.7675692 37.82,18.6457077 C38.0646486,16.9855538 38.4064865,15.3237231 38.8321081,13.6887231 C39.2577297,12.0537231 39.7721622,10.4405231 40.356973,8.87763077 C40.796,7.70546154 41.2836216,6.58192308 41.8701081,5.53216923 C42.4565946,4.48241538 43.1385946,3.50476923 43.9680541,2.62606154 C44.8947027,1.64841538 45.9453514,0.989384615 47.0915135,0.612076923 C48.2376757,0.233092308 49.4827027,0.135830769 50.8014595,0.281723077 C51.8755676,0.427615385 52.8994054,0.746230769 53.8645946,1.20906154 C54.8281081,1.67356923 55.7312973,2.28396923 56.5607568,3.01678462 C57.8778378,4.18895385 58.781027,5.50701538 59.3792432,6.94916923 C59.9774595,8.38964615 60.2707027,9.95253846 60.3678919,11.6143692 C60.3678919,12.0537231 60.3678919,12.4696 60.3678919,12.8838 C60.3678919,13.298 60.3678919,13.7138769 60.3678919,14.1532308 C60.3678919,14.5439538 60.3427568,14.9346769 60.3075676,15.3254 C60.2723784,15.7161231 60.2221081,16.1068462 60.1735135,16.4975692 C60.0277297,17.7183692 59.8082162,18.9156923 59.5384324,20.0996 C59.2703243,21.2835077 58.9519459,22.4556769 58.6117838,23.6278462 C57.6851351,26.5088 56.5858919,29.3428 55.3542703,32.1147538 C54.1226486,34.8867077 52.7552973,37.5966154 51.2907568,40.2344154 C51.0461081,40.6737692 50.8031351,41.0644923 50.5702162,41.4434769 C50.3372973,41.8224615 50.1194595,42.1880308 49.9234054,42.5787538 C49.7776216,42.8722154 49.7038919,43.0918923 49.7273514,43.2864154 C49.7524865,43.4826154 49.8731351,43.6519846 50.1177838,43.8481846 C50.1663784,43.8968154 50.1915135,43.9219692 50.214973,43.9337077 C50.2401081,43.9454462 50.2635676,43.9454462 50.3121622,43.9454462 C50.7025946,44.2389077 51.0678919,44.5558462 51.4097297,44.8862 C51.7515676,45.2165538 52.0682703,45.5569692 52.3615135,45.8990615 C52.9965946,46.6805077 53.5076757,47.5357385 53.9232432,48.4396 C54.3388108,49.3434615 54.6555135,50.2959538 54.9001622,51.2719231 C55.0459459,52.0047385 55.1682703,52.7610308 55.242,53.519 C55.3157297,54.2752923 55.3391892,55.0332615 55.2905946,55.7660769 C55.242,56.353 55.1934054,56.9382462 55.1448108,57.5117538 C55.0962162,58.0852615 55.0476216,58.6470308 54.999027,59.1853231 C54.9504324,59.8208769 54.8767027,60.4547538 54.7912432,61.0903077 C54.7057838,61.7258615 54.6085946,62.3597385 54.5114054,62.9952923 C54.4142162,63.7767385 54.2918919,64.5581846 54.1695676,65.3513692 C54.0472432,66.1445538 53.9249189,66.9511538 53.8277297,67.7812308 C53.6819459,68.8075077 53.511027,69.8086308 53.3401081,70.8097538 C53.1691892,71.8108769 52.9982703,72.812 52.8524865,73.8382769 C52.7067027,74.8159231 52.5357838,75.7667385 52.3648649,76.7192308 C52.1939459,77.6717231 52.023027,78.6242154 51.8772432,79.6001846 C51.7314595,80.2843692 51.6325946,80.9685538 51.5354054,81.6510615 C51.4382162,82.3352462 51.3393514,83.0194308 51.1935676,83.7019385 C50.9003243,85.02 50.5098919,86.3145846 50.0591351,87.5974308 C49.6083784,88.8802769 49.0956216,90.1497077 48.5577297,91.4191385 C48.5091351,91.3705077 48.484,91.3453538 48.4722703,91.3084615 C48.4605405,91.2715692 48.4605405,91.2229385 48.4605405,91.1256769 C48.4119459,90.9294769 48.3382162,90.7601077 48.2527568,90.5890615 C48.1672973,90.4180154 48.0701081,90.2469692 47.9729189,90.0524462 C47.3378378,88.7830154 46.6307027,87.5856923 45.8381081,86.4621538 C45.0455135,85.3386154 44.1657838,84.2888615 43.1905405,83.3112154 C42.4096757,82.4811385 41.5550811,81.6996923 40.6401622,80.9786154 C39.7252432,80.2575385 38.7483243,79.5985077 37.7244865,79.0132615 C36.6503784,78.3777077 35.5276757,77.8159385 34.3563784,77.3765846 C33.1850811,76.9372308 31.9651892,76.6202923 30.6967027,76.4727231 C29.8186486,76.3754615 28.9389189,76.3989385 28.0725946,76.5330923 C27.2062703,76.6672462 26.3516757,76.9120769 25.5222162,77.2541692 C24.5452973,77.6448923 23.6672432,78.1094 22.8377838,78.6460154 C22.0083243,79.1826308 21.2274595,79.7930308 20.4465946,80.4772154 C19.4696757,81.3559231 18.543027,82.2849385 17.6767027,83.2726462 C16.8103784,84.2603538 16.0043784,85.3117846 15.2737838,86.4353231 C14.6872973,87.3140308 14.1510811,88.2430462 13.6869189,89.1955385 C13.2227568,90.1480308 12.8323243,91.124 12.5407568,92.1016462 C12.394973,92.541 12.2961081,92.9803538 12.2106486,93.4331231 C12.1251892,93.8842154 12.0514595,94.3487231 11.9542703,94.8367077 C11.9056757,94.9339692 11.8805405,95.0329077 11.8570811,95.1419077 C11.8336216,95.2509077 11.8084865,95.3733231 11.7598919,95.5208923 C11.7112973,95.4722615 11.6861622,95.4471077 11.6744324,95.4236308 C11.6627027,95.3984769 11.6627027,95.375 11.6627027,95.3263692 C11.2236757,94.3487231 10.7846486,93.3979077 10.3690811,92.4454154 C9.95351351,91.4929231 9.56308108,90.5404308 9.22291892,89.5644615 C8.88108108,88.7830154 8.56437838,87.9764154 8.28286486,87.1463385 C8.00302703,86.3162615 7.75837838,85.4610308 7.56232432,84.5823231 C7.31767568,83.6046769 7.19702703,82.6035538 7.11156757,81.6024308 C7.02610811,80.6013077 6.97751351,79.6001846 6.88032432,78.6225385 C6.83172973,78.0356154 6.78313514,77.4017385 6.73454054,76.7661846 C6.68594595,76.1306308 6.63735135,75.4967538 6.58875676,74.9098308 C6.54016216,74.3732154 6.46643243,73.8349231 6.40610811,73.3100462 C6.34578378,72.7851692 6.29551351,72.2720308 6.29551351,71.7840462 C6.24691892,71.0998615 6.19832432,70.4156769 6.14972973,69.7197538 C6.10113514,69.0238308 6.05254054,68.3161692 6.00394595,67.5833538 C5.95535135,66.8019077 5.88162162,65.9953077 5.80789189,65.1903846 C5.73416216,64.3837846 5.66210811,63.5788615 5.61183784,62.7974154 C5.56324324,62.0646 5.48951351,61.3317846 5.41578378,60.5989692 C5.34205405,59.8661538 5.27,59.1333385 5.21972973,58.4005231 C5.17113514,57.6190769 5.146,56.8376308 5.18286486,56.0561846 C5.21972973,55.2747385 5.31691892,54.4932923 5.51297297,53.7118462 C5.85481081,52.2948462 6.34243243,50.9767846 6.98924324,49.7308308 C7.63605405,48.4848769 8.44205405,47.3127077 9.4172973,46.1891692 C9.66194595,45.8957077 9.93005405,45.6022462 10.2098919,45.3222 C10.4897297,45.0421538 10.782973,44.7721692 11.0762162,44.5290154 C11.2722703,44.3831231 11.3694595,44.2355538 11.3929189,44.0645077 C11.4180541,43.8934615 11.3677838,43.6989385 11.2705946,43.4541077 C11.222,43.4054769 11.1968649,43.3803231 11.1851351,43.3434308 C11.1734054,43.3065385 11.1734054,43.2579077 11.1734054,43.1606462 C10.1478919,41.4518615 9.17264865,39.6927692 8.24432432,37.9219385 C7.31767568,36.1511077 6.43794595,34.3685385 5.60848649,32.6111231 C4.58297297,30.3640462 3.63118919,28.0934923 2.81513514,25.7860462 C1.99740541,23.4786 1.31372973,21.1342615 0.826108108,18.7412923 C0.680324324,17.8625846 0.532864865,16.9822 0.410540541,16.1034923 C0.288216216,15.2247846 0.191027027,14.3444 0.142432432,13.4656923 C0.142432432,13.4170615 0.142432432,13.3927396 0.142432432,13.3692627 C0.142432432,13.3457858 0.130702703,13.2387695 0.130702703,12.8838 C0.130702703,12.5288305 0.142432432,12.5569098 0.142432432,12.4746857 C0.142432432,12.3924615 0.142432432,12.3924615 0.142432432,12.3924615 C0.142432432,12.099 0.167567568,11.8306923 0.191027027,11.5623846 C0.216162162,11.2940769 0.239621622,11.0257692 0.239621622,10.7323077 C0.336810811,9.8536 0.50772973,8.99836923 0.752378378,8.16829231 C0.997027027,7.33821538 1.31372973,6.53161538 1.70416216,5.75016923 C2.48502703,4.28453846 3.51054054,3.11236923 4.75389189,2.19676923 C5.99724324,1.28116923 7.46345946,0.622138462 9.12237838,0.182784615 C9.57863809,0.112734517 9.79618567,0.071411606 10.0826334,0.071411606 C10.3690811,0.071411606 10.5310815,0.071411606 10.9210217,0.128470004 Z M39.0834595,71.3933231 C39.2292432,71.3933231 39.3515676,71.3933231 39.4621622,71.3933231 C39.5727568,71.3933231 39.6699459,71.3933231 39.7671351,71.3933231 C39.9129189,71.3933231 40.0352432,71.3681692 40.1458378,71.3446923 C40.2564324,71.3212154 40.3536216,71.2960615 40.4508108,71.2960615 C42.1583243,71.0512308 43.7200541,70.5632462 45.1477297,69.8421692 C46.5754054,69.1210923 47.869027,68.1686 49.0403243,66.9964308 C49.8211892,66.2149846 50.3574054,65.3597538 50.6137838,64.4324154 C50.8701622,63.5050769 50.845027,62.5039538 50.5031892,61.4290462 C50.0641622,60.0606769 49.4056216,58.8650308 48.551027,57.8270154 C47.6964324,56.789 46.6474595,55.9102923 45.4275676,55.1774769 C44.7438919,54.7381231 43.9881622,54.4932923 43.219027,54.4211846 C42.4498919,54.3474 41.669027,54.4463385 40.9367568,54.6894923 C40.3502703,54.8856923 39.7905946,55.154 39.2644324,55.4826769 C38.7399459,55.8130308 38.2523243,56.2037538 37.8116216,56.6431077 C36.7375135,57.6693846 35.8845946,58.7929231 35.2126486,60.0137231 C34.5407027,61.2345231 34.0530811,62.5542615 33.7112432,63.9695846 C33.4665946,64.9958615 33.4431351,65.9969846 33.6006486,66.9729538 C33.7598378,67.9506 34.1016757,68.9014154 34.5892973,69.8304308 C34.8339459,70.2697846 35.1255135,70.6118769 35.4924865,70.8684462 C35.8577838,71.1250154 36.2984865,71.2960615 36.8347027,71.3933231 C37.2251351,71.4419538 37.5904324,71.4184769 37.9574054,71.3933231 C38.3243784,71.3681692 38.693027,71.3430154 39.0834595,71.3933231 Z M23.1729189,71.4905846 C23.2701081,71.4905846 23.3438378,71.4905846 23.4175676,71.4905846 C23.4912973,71.4905846 23.5633514,71.4905846 23.6622162,71.4905846 C24.2487027,71.4905846 24.7849189,71.4168 25.2608108,71.2105385 C25.7367027,71.0042769 26.1522703,70.6605077 26.4924324,70.1238923 C26.8342703,69.5872769 27.1023784,69.0255077 27.2984324,68.4503231 C27.4944865,67.8768154 27.6151351,67.2898923 27.6637297,66.7046462 C27.7123243,66.0204615 27.6637297,65.3362769 27.5531351,64.6537692 C27.4425405,63.9695846 27.2732973,63.2854 27.0772432,62.6028923 C26.5896216,60.9913692 25.8573514,59.5257385 24.8435676,58.2563077 C23.8314595,56.9868769 22.5378378,55.9119692 20.9275135,55.0818923 C20.3912973,54.7884308 19.8534054,54.5687538 19.2920541,54.4597538 C18.7307027,54.3490769 18.1458919,54.3490769 17.5108108,54.4966462 C16.6813514,54.6928462 15.9490811,55.0097846 15.2771351,55.4122462 C14.6068649,55.8147077 13.9952432,56.3043692 13.4104324,56.8409846 C12.7753514,57.4279077 12.2391351,58.0869385 11.7883784,58.7946 C11.3376216,59.5022615 10.9706486,60.2602308 10.6774054,61.0416769 C10.3355676,61.9690154 10.2132432,62.8728769 10.3355676,63.7398462 C10.4578919,64.6068154 10.8231892,65.4368923 11.4582703,66.2183385 C11.8001081,66.7063231 12.214,67.1456769 12.6664324,67.5364 C13.1171892,67.9271231 13.6064865,68.2692154 14.0941081,68.5626769 C15.4614595,69.5889538 16.9243243,70.2714615 18.4508649,70.7242308 C19.9774054,71.177 21.5625946,71.3933231 23.1729189,71.4905846 Z" id="Shape" fill="#563C39" fill-rule="nonzero"></path>
                        <path d="M48.5527027,92.5896308 C48.6012973,92.7858308 48.6498919,93.0055077 48.6984865,93.2117692 C48.7470811,93.4197077 48.7956757,93.6142308 48.8442703,93.7618 C49.0889189,95.0798615 49.0637838,96.3509692 48.7705405,97.5600308 C48.4772973,98.7690923 47.9159459,99.9161077 47.0864865,100.991015 C46.060973,102.359385 44.8896757,103.457769 43.5725946,104.348215 C42.2555135,105.238662 40.790973,105.922846 39.1806486,106.461138 C38.3511892,106.705969 37.5451892,106.877015 36.7274595,106.997754 C35.9097297,107.120169 35.0802703,107.193954 34.2022162,107.242585 C34.1536216,107.242585 34.105027,107.217431 34.0564324,107.217431 C34.0078378,107.217431 33.9592432,107.242585 33.9106486,107.339846 C33.2755676,107.339846 32.6421622,107.339846 32.0070811,107.339846 C31.372,107.339846 30.7385946,107.339846 30.1035135,107.339846 C30.0549189,107.291215 30.0297838,107.266062 30.0063243,107.254323 C29.9811892,107.242585 29.9577297,107.242585 29.9091351,107.242585 C28.7864324,107.193954 27.6888649,107.145323 26.603027,107.0598 C25.5171892,106.974277 24.4430811,106.851862 23.368973,106.657338 C22.4423243,106.511446 21.5391351,106.315246 20.6476757,106.058677 C19.7562162,105.802108 18.8781622,105.485169 18.0001081,105.094446 C16.1937297,104.215738 14.8280541,103.067046 13.9131351,101.638308 C12.9982162,100.209569 12.5340541,98.5007846 12.5340541,96.4968615 C12.5340541,96.4482308 12.5591892,96.3744462 12.5591892,96.3006615 C12.5591892,96.2268769 12.5340541,96.1547692 12.4368649,96.1044615 C12.5340541,95.6651077 12.6077838,95.2257538 12.6932432,94.7729846 C12.7787027,94.3218923 12.8758919,93.8573846 13.0233514,93.3694 C13.3165946,92.3431231 13.6818919,91.342 14.1209189,90.3895077 C14.5599459,89.4370154 15.0727027,88.5331538 15.6575135,87.7030769 C16.3897838,86.6281692 17.1941081,85.5784154 18.0487027,84.5772923 C18.9032973,83.5761692 19.8064865,82.6236769 20.7331351,81.7449692 C21.4654054,81.0607846 22.2211351,80.4503846 23.0388649,79.9137692 C23.8565946,79.3771538 24.7346486,78.9126462 25.7115676,78.5219231 C26.541027,78.1798308 27.3704865,77.9601538 28.2133514,77.8377385 C29.0545405,77.7153231 29.9091351,77.6918462 30.7871892,77.7404769 C32.0556757,77.8863692 33.2521081,78.1798308 34.3982703,78.6074462 C35.5444324,79.0350615 36.6436757,79.5968308 37.7177838,80.2810154 C38.6947027,80.8679385 39.6448108,81.5269692 40.548,82.2463692 C41.4511892,82.9674462 42.3057838,83.7488923 43.0866486,84.5789692 C44.0132973,85.6052462 44.893027,86.655 45.6856216,87.7651231 C46.4782162,88.8769231 47.187027,90.0490923 47.7718378,91.3185231 C47.869027,91.4644154 47.9427568,91.6354615 48.0164865,91.8199231 C48.0902162,92.0043846 48.1622703,92.1989077 48.2611351,92.3934308 C48.3097297,92.3934308 48.3348649,92.4185846 48.3717297,92.4538 C48.4052432,92.4923692 48.4538378,92.541 48.5527027,92.5896308 Z M42.8905946,97.7679692 C42.842,97.7679692 42.8168649,97.7931231 42.78,97.8166 C42.7431351,97.8417538 42.6945405,97.8652308 42.5973514,97.8652308 C41.7678919,98.4521538 40.9384324,99.0374 40.0838378,99.5740154 C39.2292432,100.110631 38.3511892,100.600292 37.4245405,100.991015 C36.0085946,101.577938 34.5691892,101.968662 33.0929189,102.138031 C31.6166486,102.309077 30.1035135,102.260446 28.5417838,101.966985 C27.2732973,101.722154 26.0534054,101.380062 24.8687027,100.954123 C23.6856757,100.526508 22.5378378,100.013369 21.4151351,99.4281231 C20.9275135,99.1832923 20.4382162,98.9149846 19.9505946,98.6466769 C19.462973,98.3783692 18.9736757,98.1100615 18.4860541,97.8652308 C18.4860541,97.9138615 18.5111892,97.9624923 18.5463784,98.0111231 C18.5832432,98.0597538 18.6318378,98.1083846 18.6804324,98.1570154 C19.7545405,99.4750769 20.9744324,100.623769 22.3401081,101.576262 C23.7074595,102.528754 25.2189189,103.285046 26.8795135,103.823338 C28.148,104.262692 29.4416216,104.531 30.746973,104.593046 C32.0523243,104.653415 33.3710811,104.507523 34.6881622,104.1168 C36.2012973,103.677446 37.5435135,103.041892 38.7516757,102.211815 C39.9598378,101.381738 41.0339459,100.355462 42.0091892,99.1346615 C42.154973,98.9384615 42.3258919,98.7439385 42.4850811,98.5242615 C42.6459459,98.3045846 42.7934054,98.0614308 42.8905946,97.7679692 Z M43.6714595,89.8545692 C43.7200541,89.6583692 43.6965946,89.489 43.6345946,89.3179538 C43.5742703,89.1469077 43.4754054,88.9758615 43.3782162,88.7813385 C43.1821622,88.4878769 42.9391892,88.2195692 42.6710811,87.9881538 C42.402973,87.7567385 42.1097297,87.5605385 41.8164865,87.4146462 C41.1814054,86.9752923 40.4256757,86.8042462 39.7051351,86.8646154 C38.9845946,86.9249846 38.3025946,87.2184462 37.8132973,87.7064308 C37.4714595,88.0485231 37.2519459,88.4140923 37.1178919,88.8048154 C36.9838378,89.1955385 36.9352432,89.6114154 36.9352432,90.0507692 C36.8866486,90.8322154 36.7391892,91.5885077 36.4962162,92.3095846 C36.2532432,93.0306615 35.9097297,93.7131692 35.4707027,94.3487231 C35.2260541,94.6908154 35.0065405,95.0329077 34.7752973,95.3867385 C34.5440541,95.7405692 34.2994054,96.1078154 34.0061622,96.4985385 C33.8603784,96.6947385 33.8101081,96.8892615 33.8603784,97.0720462 C33.9106486,97.2548308 34.0564324,97.4258769 34.2994054,97.5734462 C34.4451892,97.6707077 34.6161081,97.6958615 34.787027,97.6841231 C34.9579459,97.6723846 35.1288649,97.6237538 35.2746486,97.5734462 C36.3973514,97.0854615 37.4949189,96.5723231 38.5438919,95.9988154 C39.5928649,95.4253077 40.5932432,94.7897538 41.5215676,94.0569385 C42.2052432,93.4700154 42.7414595,92.8596154 43.1084324,92.1771077 C43.4770811,91.4912462 43.6714595,90.7349538 43.6714595,89.8545692 Z M18.6821081,90.4414923 C18.6821081,90.7349538 18.7072432,91.0032615 18.7792973,91.2598308 C18.853027,91.5164 18.9753514,91.7612308 19.1697297,92.0043846 C19.5115676,92.5913077 19.9254595,93.0792923 20.3896216,93.5186462 C20.8537838,93.958 21.3665405,94.3487231 21.9027568,94.7394462 C22.635027,95.2274308 23.3907568,95.6667846 24.1598919,96.0826615 C24.929027,96.4985385 25.7098919,96.8892615 26.4907568,97.2799846 C26.6365405,97.3286154 26.8074595,97.4024 26.9783784,97.4627692 C27.1492973,97.5231385 27.3202162,97.5734462 27.466,97.5734462 C27.6620541,97.6220769 27.8312973,97.5986 27.9787568,97.5365538 C28.1245405,97.4761846 28.2468649,97.3772462 28.3440541,97.2799846 C28.4412432,97.2313538 28.514973,97.1575692 28.5401081,97.0603077 C28.5652432,96.9630462 28.5401081,96.8406308 28.4429189,96.6947385 C28.3943243,96.5488462 28.3205946,96.4264308 28.2351351,96.3157538 C28.1496757,96.2050769 28.0524865,96.1078154 27.9552973,96.0105538 C27.9067027,95.9619231 27.8581081,95.9132923 27.8212432,95.8646615 C27.7843784,95.8160308 27.7609189,95.7674 27.7609189,95.7187692 C27.7609189,95.6215077 27.7357838,95.5477231 27.7005946,95.4739385 C27.6637297,95.4001538 27.6151351,95.3280462 27.5665405,95.2291077 C27.5179459,95.1804769 27.4693514,95.1066923 27.4207568,95.0329077 C27.3721622,94.9591231 27.3235676,94.8870154 27.274973,94.8367077 C26.6884865,94.0552615 26.2745946,93.2251846 25.9813514,92.3582154 C25.6881081,91.4912462 25.5171892,90.5873846 25.42,89.6600462 C25.3714054,88.6824 24.9323784,87.8523231 24.2738378,87.3039692 C23.6152973,86.7539385 22.7372432,86.4856308 21.8089189,86.6332 C20.9308649,86.8780308 20.15,87.3894923 19.5886486,88.0619385 C19.0239459,88.7310308 18.6821081,89.5627846 18.6821081,90.4414923 Z" id="Shape" fill="#AD8070" fill-rule="nonzero"></path>
                        <path d="M20.6342703,36.5183538 C20.5370811,36.9090769 20.4382162,37.2998 20.341027,37.6905231 C20.2438378,38.0812462 20.144973,38.4719692 20.0477838,38.8626923 C19.8517297,39.3993077 19.6573514,39.9376 19.4378378,40.4742154 C19.2183243,41.0108308 18.9736757,41.5491231 18.6821081,42.0857385 C18.4374595,42.5250923 18.2179459,42.7447692 17.9615676,42.7816615 C17.7051892,42.8185538 17.4119459,42.6709846 17.0215135,42.3792 C16.2406486,41.7922769 15.5335135,41.1332462 14.8867027,40.4255846 C14.2398919,39.7179231 13.6550811,38.9599538 13.1171892,38.1785077 C11.3108108,35.7855385 9.72562162,33.2936308 8.34654054,30.7061385 C6.96745946,28.1169692 5.79616216,25.4305385 4.82091892,22.6468462 C4.43048649,21.4746769 4.08864865,20.2773538 3.79540541,19.0565538 C3.50216216,17.8357538 3.25918919,16.5898 3.06313514,15.3203692 C2.91735135,14.3427231 2.86708108,13.3667538 2.94081081,12.4025231 C3.01454054,11.4382923 3.20891892,10.4858 3.55075676,9.55678462 C3.74681081,8.96986154 3.98978378,8.43324615 4.31989189,7.93352308 C4.65,7.43212308 5.06389189,6.96929231 5.60178378,6.52993846 C6.38264865,5.94301538 7.21210811,5.48018462 8.10356757,5.17498462 C8.99502703,4.86978462 9.94681081,4.72389231 10.9706486,4.77252308 C11.7029189,4.82115385 12.3614595,4.9922 12.9714054,5.26050769 C13.5813514,5.52881538 14.1427027,5.89606154 14.6789189,6.33541538 C15.2151351,6.77476923 15.6792973,7.28790769 16.1065946,7.83793846 C16.5338919,8.38796923 16.9243243,8.97321538 17.3147568,9.56013846 C17.9984324,10.8295692 18.5832432,12.1493077 19.0591351,13.5042615 C19.535027,14.8592154 19.9003243,16.2510615 20.144973,17.6680615 C20.3896216,18.9374923 20.584,20.1582923 20.7431892,21.3807692 C20.9023784,22.6032462 21.023027,23.8223692 21.1218919,25.0934769 C21.1704865,25.8262923 21.1956216,26.5591077 21.2073514,27.3036615 C21.2190811,28.0482154 21.2190811,28.8061846 21.2190811,29.5876308 C21.2190811,29.7335231 21.1939459,29.8559385 21.1822162,29.9666154 C21.1704865,30.0772923 21.1704865,30.1745538 21.2190811,30.2718154 C21.2190811,30.3204462 21.1939459,30.3690769 21.1704865,30.4177077 C21.1453514,30.4663385 21.1218919,30.5149692 21.1218919,30.5636 C20.9258378,31.2477846 20.7800541,31.9554462 20.6828649,32.6631077 C20.5856757,33.3707692 20.5370811,34.0801077 20.5370811,34.7626154 C20.5370811,35.0560769 20.5622162,35.3495385 20.5856757,35.6413231 C20.6108108,35.9331077 20.6342703,36.2265692 20.6342703,36.5183538 Z" id="Path" fill="#348DBE"></path>
                        <path d="M40.2547568,32.4166 C40.2547568,31.9772462 40.2296216,31.5378923 40.2061622,31.1102769 C40.181027,30.6826615 40.1575676,30.2684615 40.1575676,29.8777385 C40.108973,29.2908154 40.0838378,28.7055692 40.0838378,28.1069077 C40.0838378,27.5082462 40.108973,26.8978462 40.1575676,26.2622923 C40.1575676,25.9202 40.1827027,25.5546308 40.2061622,25.1873846 C40.2312973,24.8218154 40.2547568,24.4545692 40.2547568,24.1124769 C40.3033514,23.3310308 40.3770811,22.5747385 40.4742703,21.8167692 C40.5714595,21.0604769 40.6937838,20.3025077 40.8395676,19.5210615 C40.9853514,18.4947846 41.1814054,17.4701846 41.4260541,16.4556462 C41.6707027,15.4427846 41.9622703,14.4416615 42.3041081,13.4640154 C42.6459459,12.4863692 43.0363784,11.5355538 43.4871351,10.6065385 C43.9378919,9.6792 44.4506486,8.77533846 45.0371351,7.89495385 C45.3303784,7.50423077 45.6470811,7.13866154 45.9889189,6.79656923 C46.3307568,6.45447692 46.6960541,6.13753846 47.0864865,5.84407692 C47.8187568,5.35609231 48.551027,5.03747692 49.3201622,4.89158462 C50.0892973,4.74569231 50.8936216,4.76916923 51.7733514,4.96536923 C52.5542162,5.16156923 53.2864865,5.40472308 53.9701622,5.75855385 C54.6538378,6.11238462 55.2872432,6.57689231 55.8737297,7.21244615 C56.4099459,7.848 56.8255135,8.55566154 57.1304865,9.31195385 C57.4354595,10.0682462 57.6315135,10.8748462 57.7287027,11.7049231 C57.8744865,12.7312 57.8744865,13.7323231 57.789027,14.7334462 C57.7035676,15.7345692 57.5326486,16.7356923 57.3382703,17.7619692 C56.8992432,19.9604154 56.3127568,22.1085538 55.5804865,24.2097385 C54.8482162,26.3092462 53.9701622,28.3618 52.9446486,30.3640462 C52.1151892,32.0242 51.212,33.6357231 50.2233514,35.1986154 C49.2347027,36.7615077 48.1605946,38.2757692 46.9892973,39.7414 C46.5988649,40.2293846 46.1832973,40.6687385 45.7576757,41.0963538 C45.3303784,41.5239692 44.8913514,41.9381692 44.4523243,42.3792 C44.0618919,42.7212923 43.7686486,42.8923385 43.5005405,42.8554462 C43.2324324,42.8185538 42.9877838,42.5754 42.6945405,42.0857385 C42.3041081,41.4501846 42.0108649,40.7911538 41.7796216,40.1203846 C41.5483784,39.4496154 41.3774595,38.7654308 41.23,38.0812462 C41.23,38.0326154 41.23,38.0074615 41.2182703,37.9957231 C41.2065405,37.9839846 41.1814054,37.9839846 41.1328108,37.9839846 C41.2785946,37.496 41.3288649,37.0063385 41.3154595,36.5183538 C41.3037297,36.0303692 41.23,35.5407077 41.1328108,35.0527231 C40.987027,34.5647385 40.8395676,34.1002308 40.6937838,33.6608769 C40.548,33.2215231 40.4022162,32.8073231 40.2547568,32.4166 Z" id="Path" fill="#348DBE"></path>
                        <path d="M40.6451892,32.4166 C40.790973,32.8559538 40.9132973,33.2718308 41.0238919,33.6860308 C41.1344865,34.1019077 41.2316757,34.5161077 41.3288649,34.9554615 C41.4260541,35.4434462 41.4997838,35.9565846 41.5115135,36.4697231 C41.5232432,36.9828615 41.4746486,37.496 41.3288649,37.9839846 C41.2802703,38.1801846 41.2065405,38.3747077 41.1210811,38.5709077 C41.0356216,38.7671077 40.9384324,38.9616308 40.8412432,39.1578308 C40.7926486,39.2064615 40.7675135,39.2550923 40.7675135,39.3171385 C40.7675135,39.3791846 40.7926486,39.4512923 40.8412432,39.5485538 C41.0372973,39.8420154 41.2065405,40.1589538 41.3288649,40.4893077 C41.4511892,40.8196615 41.5249189,41.1600769 41.5249189,41.5021692 C41.6221081,42.2836154 41.5986486,43.0650615 41.4997838,43.8347692 C41.4025946,44.6044769 41.2316757,45.3607692 41.0356216,46.0935846 C40.987027,46.2394769 40.9384324,46.3618923 40.8898378,46.4725692 C40.8412432,46.5832462 40.7926486,46.6805077 40.7440541,46.7777692 C40.6954595,46.5329385 40.6468649,46.2646308 40.5982703,45.9845846 C40.5496757,45.7045385 40.5010811,45.4110769 40.4524865,45.1176154 C40.4038919,44.7268923 40.3301622,44.3361692 40.1961081,43.9454462 C40.0620541,43.5547231 39.866,43.164 39.5744324,42.7732769 C39.5258378,42.6760154 39.4521081,42.5770769 39.3666486,42.4932308 C39.2811892,42.4093846 39.184,42.3339231 39.0868108,42.2852923 C39.0868108,42.3825538 39.0868108,42.4563385 39.0985405,42.5301231 C39.1102703,42.6039077 39.1354054,42.6760154 39.184,42.7749538 C39.184,43.4105077 39.1354054,44.0209077 39.0499459,44.6195692 C38.9644865,45.2182308 38.8421622,45.8034769 38.6963784,46.3904 C38.5003243,47.0745846 38.2808108,47.7084615 38.0378378,48.3322769 C37.7948649,48.9560923 37.5250811,49.5648154 37.2318378,50.2003692 C37.1832432,50.249 37.1581081,50.2741538 37.1463784,50.3110462 C37.1346486,50.3479385 37.1346486,50.3965692 37.1346486,50.4938308 C37.1346486,50.249 37.1597838,50.0293231 37.194973,49.8096462 C37.2318378,49.5899692 37.2804324,49.3702923 37.329027,49.1254615 C37.3776216,48.7347385 37.3776216,48.3440154 37.3407568,47.9650308 C37.3038919,47.5860462 37.2301622,47.2204769 37.132973,46.8783846 C36.9871892,46.1455692 36.6939459,45.4613846 36.3403784,44.8275077 C35.9868108,44.1919538 35.5712432,43.6067077 35.1808108,43.0684154 C34.9361622,42.7749538 34.6680541,42.4814923 34.3999459,42.1897077 C34.1318378,41.8962462 33.8637297,41.6027846 33.6190811,41.311 C33.6676757,41.5558308 33.7162703,41.7989846 33.7531351,42.0555538 C33.79,42.3121231 33.8134595,42.5804308 33.8134595,42.8738923 C33.8134595,43.1673538 33.8134595,43.4356615 33.8017297,43.6922308 C33.79,43.9488 33.7648649,44.1936308 33.7162703,44.4367846 C33.5704865,45.4630615 33.2286486,46.4390308 32.7762162,47.3680462 C32.3254595,48.2953846 31.7641081,49.1757692 31.1776216,50.0058462 C31.129027,50.0544769 31.1038919,50.0796308 31.0804324,50.0913692 C31.0552973,50.1031077 31.0318378,50.1031077 30.9832432,50.1031077 C30.9346486,50.1031077 30.9095135,50.0779538 30.9095135,50.0544769 C30.9095135,50.0293231 30.9346486,50.0058462 30.9832432,50.0058462 C31.0804324,49.5664923 31.1055676,49.1271385 31.0804324,48.6877846 C31.0552973,48.2484308 30.9832432,47.8090769 30.8843784,47.3697231 C30.7385946,46.6855385 30.5676757,46.0516615 30.3598919,45.4278462 C30.1521081,44.8057077 29.9091351,44.1953077 29.6158919,43.5597538 C29.5672973,43.4624923 29.5187027,43.4138615 29.4701081,43.4004462 C29.4215135,43.3887077 29.3729189,43.4121846 29.3243243,43.4608154 C29.0796757,43.6067077 28.8601622,43.7777538 28.6775135,43.9856923 C28.4948649,44.1936308 28.3474054,44.4367846 28.2502162,44.7302462 C28.0541622,45.2182308 27.9083784,45.7078923 27.7994595,46.2076154 C27.6888649,46.7090154 27.6168108,47.2204769 27.5682162,47.7587692 C27.471027,48.6374769 27.3972973,49.4927077 27.3604324,50.3479385 C27.3235676,51.2031692 27.3235676,52.0567231 27.3721622,52.9371077 C27.3721622,52.9371077 27.3721622,52.9622615 27.3604324,52.9857385 C27.3487027,53.0092154 27.3235676,53.0343692 27.274973,53.0343692 C26.6884865,51.4228462 26.2494595,49.8113231 26.0064865,48.1746462 C25.7635135,46.5379692 25.7132432,44.8778154 25.9092973,43.1690308 C25.6646486,43.5597538 25.4451351,43.9756308 25.2624865,44.4015692 C25.0798378,44.8275077 24.9323784,45.2685385 24.8351892,45.7078923 C24.738,46.1472462 24.6642703,46.5866 24.6391351,47.0393692 C24.614,47.4921385 24.6391351,47.9549692 24.7363243,48.4429538 C24.5905405,48.1981231 24.4682162,47.9298154 24.3576216,47.6497692 C24.247027,47.3697231 24.1498378,47.0762615 24.0526486,46.7828 C23.9068649,46.3434462 23.7359459,45.8789385 23.5767568,45.4144308 C23.4175676,44.9499231 23.2717838,44.4870923 23.1745946,44.0460615 C23.0774054,43.6067077 23.0036757,43.1422 22.9785405,42.6776923 C22.9534054,42.2131846 22.9785405,41.7503538 23.0757297,41.3093231 C23.0757297,41.2606923 23.0757297,41.2120615 23.064,41.1634308 C23.0522703,41.1148 23.0271351,41.0661692 22.9785405,41.0175385 C22.4909189,40.7727077 22.1490811,40.3819846 21.880973,39.9308923 C21.6128649,39.4798 21.4168108,38.9666615 21.2224324,38.477 C21.0766486,38.1835385 20.9777838,37.8414462 20.8923243,37.4993538 C20.8068649,37.1572615 20.7331351,36.8151692 20.6359459,36.5217077 C20.5873514,36.2282462 20.5622162,35.9347846 20.5504865,35.643 C20.5387568,35.3495385 20.5387568,35.0560769 20.5387568,34.7642923 C20.5387568,34.0314769 20.5873514,33.2986615 20.6845405,32.5658462 C20.7817297,31.8330308 20.9291892,31.1002154 21.1235676,30.3674 C21.1235676,30.3187692 21.1487027,30.2701385 21.1721622,30.2215077 C21.1972973,30.1728769 21.2207568,30.1242462 21.2207568,30.0756154 C21.3665405,29.6362615 21.514,29.1717538 21.6849189,28.6955077 C21.8558378,28.2192615 22.0502162,27.7312769 22.2948649,27.2416154 C22.2462703,28.4137846 22.2462703,29.5859538 22.3434595,30.7463846 C22.4406486,31.9068154 22.6367027,33.0538308 22.9785405,34.1773692 C23.0271351,33.6407538 23.1243243,33.1276154 23.2466486,32.6262154 C23.368973,32.1248154 23.5147568,31.6368308 23.6622162,31.1488462 C23.808,30.7094923 23.9554595,30.2701385 24.112973,29.8425231 C24.2721622,29.4149077 24.4430811,29.0007077 24.6374595,28.6099846 C24.6374595,28.6586154 24.6374595,28.6837692 24.6374595,28.7072462 C24.6374595,28.7324 24.6374595,28.7558769 24.6374595,28.8045077 L24.5888649,28.8531385 L24.5402703,28.9017692 C24.4916757,29.2438615 24.4665405,29.5859538 24.4665405,29.9146308 C24.4665405,30.2433077 24.4916757,30.5619231 24.5402703,30.8553846 C24.5888649,31.0012769 24.614,31.1723231 24.6508649,31.3433692 C24.6877297,31.5144154 24.7363243,31.6854615 24.8335135,31.8313538 C24.8821081,32.1734462 25.0044324,32.5390154 25.1636216,32.9062615 C25.3228108,33.2718308 25.5171892,33.6390769 25.7132432,33.9811692 C25.9578919,33.2969846 26.2008649,32.6128 26.3231892,31.9168769 C26.4455135,31.2209538 26.4455135,30.5132923 26.2008649,29.7804769 C26.3969189,29.9263692 26.5661622,30.0974154 26.7370811,30.2818769 C26.908,30.4646615 27.0789189,30.6608615 27.2732973,30.8553846 C27.4693514,31.1488462 27.6888649,31.4423077 27.894973,31.7475077 C28.1027568,32.0527077 28.2971351,32.3696462 28.4445946,32.7117385 C28.5903784,33.0052 28.7127027,33.2986615 28.835027,33.5904462 C28.9573514,33.8839077 29.0796757,34.1773692 29.2254595,34.4691538 C29.3712432,33.6877077 29.5672973,32.9548923 29.8236757,32.2338154 C30.0800541,31.5127385 30.3967568,30.8050769 30.7871892,30.0722615 C30.8843784,30.9509692 31.0318378,31.7810462 31.2513514,32.5759077 C31.4708649,33.3690923 31.7641081,34.1270615 32.1545405,34.8598769 C32.2517297,34.7139846 32.3505946,34.5915692 32.4343784,34.4691538 C32.5198378,34.3467385 32.5935676,34.2243231 32.6421622,34.0784308 C32.984,33.4915077 33.2286486,32.8811077 33.3492973,32.2472308 C33.4716216,31.6116769 33.4716216,30.9526462 33.3241622,30.2684615 C33.2755676,30.1225692 33.226973,30.0001538 33.1901081,29.8777385 C33.1532432,29.7553231 33.1297838,29.6329077 33.1297838,29.4870154 L33.1783784,29.4870154 L33.226973,29.4870154 C33.6174054,30.1225692 33.9592432,30.7816 34.2642162,31.4657846 C34.5691892,32.1499692 34.8372973,32.8576308 35.0819459,33.5904462 C35.1305405,33.4445538 35.2042703,33.3221385 35.2897297,33.1997231 C35.3751892,33.0773077 35.4723784,32.9548923 35.5695676,32.809 C35.7656216,32.6128 35.9851351,32.4182769 36.2163784,32.2472308 C36.4476216,32.0761846 36.6922703,31.9302923 36.9369189,31.8313538 C37.1815676,31.7324154 37.4496757,31.6351538 37.7295135,31.5630462 C38.0093514,31.4909385 38.3025946,31.4406308 38.5958378,31.4406308 C38.6444324,31.4406308 38.693027,31.4154769 38.7298919,31.4154769 C38.7667568,31.4154769 38.7902162,31.4406308 38.7902162,31.5378923 C38.7902162,31.5865231 38.7650811,31.6116769 38.7416216,31.6351538 C38.7164865,31.6603077 38.693027,31.6837846 38.693027,31.7324154 C38.4483784,32.0745077 38.2288649,32.4400769 38.0579459,32.8308 C37.887027,33.2215231 37.7647027,33.6374 37.7161081,34.0767538 C37.6675135,34.3702154 37.6423784,34.6636769 37.6557838,34.9554615 C37.6675135,35.2489231 37.7161081,35.5423846 37.814973,35.8341692 C37.8635676,35.9800615 37.9121622,36.0538462 37.9741622,36.079 C38.0361622,36.1041538 38.1082162,36.079 38.2054054,36.0303692 C38.5472432,35.8844769 38.8153514,35.6882769 39.0348649,35.4434462 C39.2543784,35.1986154 39.4252973,34.9068308 39.5710811,34.5647385 C39.7168649,34.2226462 39.8157297,33.8570769 39.8760541,33.4780923 C39.9363784,33.0991077 39.9615135,32.7083846 39.9615135,32.3176615 C39.9615135,31.9269385 39.9615135,31.5362154 39.9615135,31.1454923 C39.9615135,30.7547692 39.9615135,30.3640462 39.9615135,29.9733231 C40.0101081,30.1192154 40.0838378,30.2667846 40.1441622,30.4126769 C40.2044865,30.5585692 40.2547568,30.7061385 40.2547568,30.8520308 C40.2547568,31.1941231 40.3033514,31.4875846 40.3770811,31.7441538 C40.4508108,32.0007231 40.548,32.2204 40.6451892,32.4166 Z" id="Path" fill="#080909"></path>
                        <path d="M39.2795135,72.2720308 C38.9376757,72.2720308 38.5958378,72.2971846 38.254,72.3089231 C37.9121622,72.3206615 37.5703243,72.3206615 37.2284865,72.2720308 C36.6922703,72.2234 36.2515676,72.0523538 35.8862703,71.7840462 C35.520973,71.5157385 35.2277297,71.1484923 34.9830811,70.7091385 C34.4954595,69.7818 34.1770811,68.8293077 34.0312973,67.8516615 C33.8855135,66.8740154 33.908973,65.8728923 34.105027,64.8482923 C34.4468649,63.4312923 34.9344865,62.1367077 35.593027,60.9410615 C36.2515676,59.7454154 37.081027,58.6453538 38.1065405,57.6190769 C38.5455676,57.2283538 39.0097297,56.8376308 39.5090811,56.4955385 C40.0101081,56.1534462 40.5463243,55.8599846 41.1311351,55.6654615 C41.912,55.4206308 42.6677297,55.3233692 43.4,55.3971538 C44.1322703,55.4709385 44.8394054,55.7140923 45.5230811,56.1534462 C46.742973,56.8862615 47.7684865,57.7649692 48.5862162,58.7912462 C49.4039459,59.8175231 50.0138919,60.9896923 50.4043243,62.3077538 C50.7461622,63.3340308 50.7696216,64.31 50.5149189,65.2390154 C50.2602162,66.1680308 49.7223243,67.0467385 48.9414595,67.8768154 C47.7701622,69.0489846 46.5016757,69.9763231 45.1108649,70.6856615 C43.7200541,71.3933231 42.2069189,71.8829846 40.548,72.1747692 C40.4022162,72.2234 40.2798919,72.2485538 40.1692973,72.2602923 C40.0587027,72.2720308 39.9615135,72.2720308 39.8643243,72.2720308 C39.7671351,72.2720308 39.6682703,72.2720308 39.5710811,72.2720308 C39.4738919,72.2720308 39.3767027,72.2720308 39.2795135,72.2720308 Z M40.1575676,71.7840462 C40.4022162,71.7840462 40.6217297,71.7840462 40.8278378,71.7723077 C41.0356216,71.7605692 41.23,71.7354154 41.4260541,71.6867846 C42.2555135,71.4905846 42.9626486,71.1250154 43.5374054,70.6118769 C44.1104865,70.0987385 44.5495135,69.4397077 44.8427568,68.6582615 C44.9885405,68.3648 45.1108649,68.0713385 45.1845946,67.7795538 C45.2583243,67.4860923 45.2817838,67.1926308 45.2331892,66.9008462 C45.1845946,66.5101231 45.0136757,66.2166615 44.7572973,66.0707692 C44.5009189,65.9248769 44.1590811,65.9248769 43.7686486,66.1194 C43.6714595,66.1680308 43.5977297,66.1931846 43.524,66.2300769 C43.4502703,66.2669692 43.3782162,66.3156 43.2793514,66.4128615 C43.1821622,66.4614923 43.0832973,66.5101231 42.9861081,66.5587538 C42.8889189,66.6073846 42.7900541,66.6560154 42.6928649,66.7046462 C42.351027,66.8019077 42.0091892,66.7784308 41.6924865,66.6560154 C41.3757838,66.5336 41.0825405,66.3139231 40.8378919,66.0204615 C40.5932432,65.6783692 40.4725946,65.3849077 40.4843243,65.1048615 C40.4960541,64.8248154 40.6435135,64.5548308 40.9350811,64.2630462 C40.9836757,64.1657846 41.0574054,64.092 41.1428649,64.0182154 C41.2283243,63.9444308 41.3255135,63.8723231 41.4227027,63.7733846 C41.7159459,63.4312923 41.788,63.0405692 41.6790811,62.7118923 C41.5701622,62.3832154 41.2769189,62.1132308 40.8378919,62.0159692 C40.3988649,61.9187077 39.9598378,61.8935538 39.5208108,61.9304462 C39.0817838,61.9673385 38.6427568,62.0646 38.2037297,62.2104923 C37.4228649,62.5039538 36.7391892,62.9181538 36.202973,63.4564462 C35.6667568,63.9947385 35.2763243,64.6537692 35.0802703,65.4352154 C34.9344865,66.0707692 34.9093514,66.7046462 34.9696757,67.3284615 C35.03,67.9522769 35.1774595,68.561 35.3718378,69.1479231 C35.6164865,69.7348462 35.9583243,70.2463077 36.3973514,70.6621846 C36.8363784,71.0780615 37.3742703,71.395 38.0076757,71.5895231 C38.3981081,71.6381538 38.7634054,71.6867846 39.1186486,71.7236769 C39.4738919,71.7605692 39.8157297,71.7840462 40.1575676,71.7840462 Z" id="Shape" fill="#FFFFFF" fill-rule="nonzero"></path>
                        <path d="M22.5881081,72.1747692 C21.0263784,72.1261385 19.4646486,71.9299385 17.9632432,71.504 C16.4618378,71.0763846 15.0224324,70.4173538 13.7053514,69.4397077 C13.2177297,69.0976154 12.7535676,68.7320462 12.3262703,68.3413231 C11.898973,67.9506 11.5085405,67.5347231 11.1667027,67.0953692 C10.5316216,66.3139231 10.1663243,65.4838462 10.044,64.6168769 C9.92167568,63.7499077 10.044,62.8460462 10.3858378,61.9187077 C10.6790811,61.1372615 11.0443784,60.4044462 11.4834054,59.7085231 C11.9224324,59.0126 12.4351892,58.3535692 13.02,57.7180154 C13.6064865,57.1310923 14.1912973,56.6196308 14.8381081,56.2154923 C15.4849189,55.8130308 16.1920541,55.5195692 17.0215135,55.3736769 C17.608,55.2277846 18.1676757,55.2277846 18.7172973,55.3367846 C19.2669189,55.4457846 19.8031351,55.6671385 20.3393514,55.9589231 C21.8524865,56.789 23.0975135,57.8387538 24.0844865,59.0847077 C25.0731351,60.3306615 25.8054054,61.7711385 26.293027,63.3826615 C26.4890811,64.0668462 26.6583243,64.7258769 26.7689189,65.3966462 C26.8795135,66.0674154 26.9281081,66.7516 26.8795135,67.4844154 C26.8309189,68.0713385 26.7085946,68.6817385 26.5142162,69.2669846 C26.3181622,69.8539077 26.0500541,70.414 25.7082162,70.9036615 C25.414973,71.3916462 25.0245405,71.7102615 24.5620541,71.9165231 C24.0978919,72.1244615 23.5616757,72.2217231 22.9751892,72.2703538 C22.9751892,72.2217231 22.9265946,72.1965692 22.8528649,72.1848308 C22.7824865,72.1747692 22.6852973,72.1747692 22.5881081,72.1747692 Z M15.7547027,66.8019077 C15.7547027,66.8505385 15.7547027,66.9478 15.7664324,67.0584769 C15.7781622,67.1691538 15.8032973,67.2898923 15.8518919,67.3888308 C15.8518919,67.4860923 15.877027,67.5850308 15.9004865,67.6688769 C15.9256216,67.7544 15.9490811,67.8281846 15.9490811,67.8768154 C16.1937297,68.7555231 16.5841622,69.5134923 17.1321081,70.1121538 C17.6800541,70.7108154 18.3888649,71.1501692 19.2669189,71.395 C19.5115676,71.4436308 19.7796757,71.4687846 20.0595135,71.4922615 C20.3393514,71.5157385 20.6325946,71.5408923 20.9258378,71.5895231 C21.4620541,71.6381538 21.9513514,71.6146769 22.4021081,71.504 C22.8528649,71.3933231 23.2684324,71.1988 23.6588649,70.9053385 C24.4397297,70.4173538 25.0262162,69.8069538 25.4032432,69.0976154 C25.7819459,68.3899538 25.9528649,67.5833538 25.9042703,66.7046462 C25.8556757,66.3139231 25.6847568,65.9718308 25.4166486,65.8125231 C25.1485405,65.6532154 24.7815676,65.6783692 24.3425405,66.0204615 C24.2939459,66.0690923 24.2202162,66.1177231 24.1347568,66.1663538 C24.0492973,66.2149846 23.9521081,66.2636154 23.8549189,66.3122462 C23.5616757,66.4581385 23.2935676,66.5319231 23.0254595,66.5201846 C22.7573514,66.5084462 22.4892432,66.4095077 22.196,66.2149846 C21.7083784,65.8242615 21.4402703,65.3849077 21.4151351,64.9455538 C21.39,64.5062 21.6111892,64.0668462 22.0988108,63.6761231 C22.1474054,63.6274923 22.196,63.6023385 22.2445946,63.5654462 C22.2931892,63.5285538 22.3417838,63.4799231 22.3903784,63.3826615 C22.5361622,63.1864615 22.635027,62.9919385 22.6584865,62.7957385 C22.6836216,62.5995385 22.6333514,62.4050154 22.4875676,62.2088154 C22.3903784,62.0629231 22.2680541,61.9405077 22.1222703,61.8549846 C21.9764865,61.7694615 21.8055676,61.7208308 21.6095135,61.7208308 C21.3648649,61.6722 21.0967568,61.6470462 20.8286486,61.6604615 C20.5605405,61.6722 20.2924324,61.7208308 20.0477838,61.8197692 C18.7307027,62.0159692 17.6314595,62.6263692 16.8757297,63.5050769 C16.12,64.3837846 15.7061081,65.5308 15.7547027,66.8019077 Z" id="Shape" fill="#FFFFFF" fill-rule="nonzero"></path>
                        <path d="M43.7686486,89.4638462 C43.7200541,90.3911846 43.5005405,91.1726308 43.1218378,91.8685538 C42.7431351,92.5644769 42.2069189,93.1748769 41.5232432,93.7618 C40.5965946,94.5432462 39.5962162,95.2274308 38.5455676,95.8378308 C37.4949189,96.4482308 36.3973514,96.9848462 35.2763243,97.4745077 C35.1305405,97.5231385 34.9596216,97.5717692 34.7887027,97.5851846 C34.6177838,97.5969231 34.4468649,97.5734462 34.3010811,97.4745077 C34.0564324,97.3286154 33.9357838,97.1810462 33.8989189,97.01 C33.8620541,96.8389538 33.9106486,96.6444308 34.0095135,96.3996 C34.2541622,96.0088769 34.4971351,95.6433077 34.7417838,95.2760615 C34.9864324,94.9104923 35.2294054,94.5432462 35.4740541,94.1525231 C35.9130811,93.4683385 36.2297838,92.7355231 36.4627027,91.9792308 C36.6939459,91.2229385 36.8414054,90.4414923 36.9385946,89.6600462 C36.9871892,89.2206923 37.0609189,88.7813385 37.194973,88.3654615 C37.329027,87.9495846 37.5250811,87.5588615 37.8166486,87.2184462 C38.3528649,86.6818308 39.0616757,86.3632154 39.7805405,86.3028462 C40.4994054,86.2424769 41.2333514,86.437 41.8181622,86.9249846 C42.1114054,87.1211846 42.3795135,87.3408615 42.6358919,87.5840154 C42.8922703,87.8288462 43.1369189,88.0971538 43.3798919,88.3906154 C43.5256757,88.5868154 43.648,88.7561846 43.7217297,88.9272308 C43.7954595,89.0982769 43.8172432,89.2693231 43.7686486,89.4638462 Z" id="Path" fill="#080909"></path>
                        <path d="M18.4877297,90.0507692 C18.4877297,89.1720615 18.853027,88.3168308 19.4395135,87.6460615 C20.026,86.9752923 20.8303243,86.4856308 21.7083784,86.3397385 C22.635027,86.1938462 23.4896216,86.4621538 24.1364324,87.0239231 C24.7832432,87.5856923 25.2222703,88.4409231 25.3194595,89.4655231 C25.3680541,90.4431692 25.538973,91.3705077 25.8439459,92.2609538 C26.1489189,93.1530769 26.5879459,94.0066308 27.1744324,94.8367077 C27.223027,94.8853385 27.2716216,94.9591231 27.3202162,95.0329077 C27.3688108,95.1066923 27.4174054,95.1788 27.466,95.2291077 C27.5145946,95.2777385 27.5631892,95.3515231 27.6000541,95.4370462 C27.6369189,95.5225692 27.6603784,95.6198308 27.6603784,95.7170923 C27.6603784,95.7657231 27.6855135,95.8395077 27.7207027,95.8998769 C27.7575676,95.9602462 27.8061622,96.0105538 27.8547568,96.0105538 C27.9519459,96.1078154 28.0256757,96.2302308 28.0994054,96.3526462 C28.1731351,96.4750615 28.2451892,96.5974769 28.3440541,96.6947385 C28.4429189,96.792 28.4663784,96.8909385 28.4412432,96.9882 C28.4161081,97.0854615 28.3440541,97.1844 28.2451892,97.2816615 C28.0994054,97.3789231 27.9770811,97.4527077 27.843027,97.5013385 C27.708973,97.5499692 27.5631892,97.5751231 27.3671351,97.5751231 C27.2213514,97.5264923 27.0504324,97.4778615 26.8795135,97.4292308 C26.7085946,97.3806 26.5376757,97.3319692 26.3918919,97.2833385 C25.611027,96.8926154 24.8301622,96.5018923 24.061027,96.0742769 C23.2918919,95.6466615 22.5361622,95.1821538 21.8038919,94.6455385 C21.2676757,94.2548154 20.7549189,93.8389385 20.2907568,93.3761077 C19.8265946,92.9116 19.4127027,92.3984615 19.0708649,91.8132154 C18.8748108,91.5197538 18.729027,91.2262923 18.6318378,90.9345077 C18.5346486,90.6427231 18.4877297,90.3442308 18.4877297,90.0507692 Z" id="Path" fill="#080909"></path>
                        <path d="M18.0001081,97.7679692 C18.4877297,98.0128 18.977027,98.3045846 19.4763784,98.5863077 C19.9757297,98.8680308 20.4884865,99.1363385 21.0263784,99.3308615 C22.1976757,99.9177846 23.3941081,100.4544 24.6257297,100.905492 C25.8573514,101.356585 27.1275135,101.723831 28.4445946,101.966985 C30.0063243,102.260446 31.5680541,102.332554 33.1063243,102.174923 C34.6429189,102.015615 36.1560541,101.624892 37.6205946,100.991015 C38.5975135,100.551662 39.5241622,100.063677 40.4139459,99.5253846 C41.3037297,98.9870923 42.1583243,98.4018462 42.9877838,97.7662923 C43.0363784,97.7176615 43.0615135,97.6925077 43.0983784,97.6807692 C43.1352432,97.6690308 43.1838378,97.6690308 43.281027,97.6690308 C43.1838378,97.9138615 43.0363784,98.1570154 42.8788649,98.3901077 C42.7196757,98.6215231 42.5487568,98.8412 42.402973,99.0374 C41.4260541,100.306831 40.3284865,101.406892 39.0834595,102.2856 C37.8384324,103.164308 36.4476216,103.823338 34.8858919,104.214062 C33.5185405,104.556154 32.1763243,104.702046 30.8357838,104.653415 C29.4935676,104.604785 28.1513514,104.359954 26.7856757,103.9206 C25.0781622,103.333677 23.5164324,102.577385 22.1122162,101.613154 C20.7096757,100.648923 19.4646486,99.4767538 18.3905405,98.0597538 C18.2933514,98.0111231 18.1944865,97.9624923 18.1224324,97.9138615 C18.0487027,97.8652308 18.0001081,97.8166 18.0001081,97.7679692 Z" id="Path" fill="#FFFFFF"></path>
                        <path d="M33.0325946,29.4853385 C33.0325946,29.6312308 33.0577297,29.7788 33.0929189,29.9246923 C33.1297838,30.0705846 33.1783784,30.2181538 33.226973,30.3640462 C33.3241622,31.0968615 33.3007027,31.8045231 33.1666486,32.5004462 C33.0325946,33.1963692 32.7879459,33.8805538 32.4461081,34.5647385 C32.3975135,34.7106308 32.3003243,34.8582 32.1897297,35.0040923 C32.0791351,35.1499846 31.9584865,35.2975538 31.8596216,35.4434462 C31.4205946,34.6133692 31.1038919,33.7581385 30.870973,32.8794308 C30.6380541,32.0007231 30.4922703,31.0968615 30.3950811,30.1678462 C30.0046486,30.9492923 29.6628108,31.7558923 29.382973,32.5725538 C29.1031351,33.3892154 28.8819459,34.2209692 28.7361622,35.0510462 C28.638973,34.7089538 28.5166486,34.3920154 28.3708649,34.0734 C28.2250811,33.7564615 28.0541622,33.4378462 27.8581081,33.0957538 C27.6620541,32.7536615 27.4425405,32.4115692 27.223027,32.0694769 C27.0035135,31.7273846 26.784,31.3852923 26.5879459,31.0432 C27.026973,30.4076462 27.5397297,29.9196615 28.1128108,29.5658308 C28.6858919,29.212 29.320973,28.9923231 30.0046486,28.8950615 C30.0532432,28.8950615 30.0783784,28.8950615 30.1018378,28.8833231 C30.126973,28.8715846 30.1504324,28.8464308 30.199027,28.7978 C30.3448108,28.7978 30.4671351,28.7978 30.5894595,28.7978 C30.7117838,28.7978 30.8341081,28.7978 30.9798919,28.7978 C31.3217297,28.8464308 31.614973,28.8950615 31.8948108,28.9688462 C32.1746486,29.0426308 32.4444324,29.1398923 32.736,29.2857846 C32.8331892,29.2857846 32.8817838,29.3109385 32.9186486,29.3461538 C32.9588649,29.3880769 32.9823243,29.4367077 33.0325946,29.4853385 Z" id="Path" fill="#348DBE"></path>
                        <path d="M30.0063243,24.4059385 C29.2254595,24.2600462 28.6641081,23.7217538 28.4328649,23.0627231 C28.2016216,22.4036923 28.2988108,21.6222462 28.835027,20.9866923 C29.1768649,20.5473385 29.6896216,20.3025077 30.2258378,20.2538769 C30.7620541,20.2052462 31.3234054,20.3511385 31.7624324,20.6932308 C32.2014595,21.0353231 32.4695676,21.5484615 32.5315676,22.0850769 C32.5935676,22.6216923 32.4461081,23.1834615 32.0556757,23.6228154 C31.8596216,23.8676462 31.6401081,24.0386923 31.4088649,24.1594308 C31.1776216,24.2801692 30.932973,24.3556308 30.6883243,24.4042615 C30.5911351,24.4528923 30.4688108,24.4528923 30.3464865,24.4411538 C30.2241622,24.4294154 30.1035135,24.4059385 30.0063243,24.4059385 Z" id="Path" fill="#348DBE"></path>
                        <path d="M29.8102703,24.4059385 C30.0063243,24.4059385 30.2258378,24.4310923 30.4453514,24.4428308 C30.6648649,24.4545692 30.8843784,24.4545692 31.0804324,24.4059385 C31.0804324,25.2360154 31.0804324,26.0660923 31.0804324,26.8961692 C31.0804324,27.7262462 31.0804324,28.5563231 31.0804324,29.3864 C31.0804324,29.4836615 31.0804324,29.6060769 31.0804324,29.7284923 C31.0804324,29.8509077 31.0804324,29.9733231 31.0804324,30.0705846 C30.8357838,30.0705846 30.6162703,30.0705846 30.3967568,30.0705846 C30.1772432,30.0705846 29.9577297,30.0705846 29.7130811,30.0705846 C29.7616757,29.1432462 29.7868108,28.1907538 29.7985405,27.2382615 C29.8102703,26.2874462 29.8102703,25.3349538 29.8102703,24.4059385 Z" id="Path" fill="#080909"></path>
                        <path d="M35.2763243,33.0018462 C35.1305405,33.1477385 34.9830811,33.2953077 34.849027,33.4529385 C34.714973,33.6122462 34.5926486,33.7832923 34.4954595,33.9778154 C34.1536216,33.0991077 33.7631892,32.2187231 33.3241622,31.3651692 C32.8851351,30.5099385 32.3975135,29.6798615 31.8596216,28.8984154 C32.2986486,29.0443077 32.6404865,29.2405077 32.9454595,29.4719231 C33.2504324,29.7033385 33.5185405,29.9733231 33.8117838,30.2651077 C34.2022162,30.6558308 34.4954595,31.0717077 34.714973,31.4976462 C34.9344865,31.9252615 35.0802703,32.3646154 35.1791351,32.8039692 C35.2277297,32.8526 35.2528649,32.8777538 35.2645946,32.9012308 C35.2763243,32.9297385 35.2763243,32.9532154 35.2763243,33.0018462 Z" id="Path" fill="#348DBE"></path>
                        <path d="M39.6699459,70.9036615 C39.2795135,70.9036615 38.9142162,70.8785077 38.5472432,70.8298769 C38.1819459,70.7812462 37.814973,70.7074615 37.4245405,70.6102 C36.6922703,70.414 36.1074595,70.1222154 35.6315676,69.7314923 C35.1556757,69.3407692 34.7903784,68.8527846 34.4971351,68.2658615 C34.2038919,67.6789385 34.032973,67.0450615 33.9726486,66.4095077 C33.9123243,65.7739538 33.9609189,65.1400769 34.1067027,64.5531538 C34.3027568,63.7230769 34.7417838,63.0640462 35.3383243,62.5391692 C35.9365405,62.0142923 36.6922703,61.6235692 37.5217297,61.3301077 C37.9607568,61.1842154 38.4483784,61.0852769 38.9376757,61.0500615 C39.4252973,61.0131692 39.9145946,61.0383231 40.3536216,61.1355846 C40.7926486,61.1842154 41.1093514,61.4290462 41.2450811,61.7459846 C41.3791351,62.0629231 41.3305405,62.4536462 41.0372973,62.7957385 C40.9887027,62.893 40.8915135,62.9667846 40.7809189,63.0405692 C40.6703243,63.1143538 40.5496757,63.1864615 40.4508108,63.2854 C40.2061622,63.5788615 40.0603784,63.8723231 40.0352432,64.1641077 C40.0101081,64.4575692 40.108973,64.7510308 40.3519459,65.0428154 C40.5965946,65.3849077 40.8881622,65.6045846 41.2182703,65.7135846 C41.5483784,65.8242615 41.9136757,65.8242615 42.3041081,65.7253231 C42.4012973,65.6766923 42.5001622,65.6515385 42.6090811,65.6146462 C42.7196757,65.5777538 42.8403243,65.5291231 42.9877838,65.4318615 C43.0363784,65.3832308 43.1335676,65.3346 43.2441622,65.2859692 C43.3547568,65.2373385 43.4754054,65.1887077 43.5742703,65.1400769 C43.9647027,64.9941846 44.33,65.0176615 44.6115135,65.1652308 C44.8913514,65.3111231 45.0874054,65.5811077 45.136,65.9215231 C45.1845946,66.2149846 45.1611351,66.5084462 45.0874054,66.8002308 C45.0136757,67.0936923 44.8913514,67.3871538 44.7455676,67.6789385 C44.4037297,68.4117538 43.9161081,69.0473077 43.281027,69.5470308 C42.6459459,70.0484308 41.8650811,70.414 40.9384324,70.6085231 C40.7926486,70.7544154 40.5965946,70.8282 40.3770811,70.8650923 C40.1575676,70.9036615 39.9129189,70.9036615 39.6699459,70.9036615 Z" id="Path" fill="#080909"></path>
                        <path d="M15.6575135,66.1177231 C15.6575135,64.8482923 16.1451351,63.7247538 16.9745946,62.8577846 C17.8040541,61.9908154 18.9753514,61.3804154 20.3427027,61.1355846 C20.6359459,61.0869538 20.9291892,61.0618 21.2207568,61.0500615 C21.514,61.0383231 21.8072432,61.0383231 22.0988108,61.0383231 C22.2948649,61.0869538 22.4892432,61.1355846 22.6601622,61.2093692 C22.8310811,61.2831538 22.9768649,61.3804154 23.0757297,61.5263077 C23.2215135,61.7225077 23.2952432,61.9170308 23.2835135,62.1132308 C23.2717838,62.3094308 23.1729189,62.5039538 22.9785405,62.7001538 C22.9299459,62.7487846 22.8813514,62.7974154 22.8327568,62.8460462 C22.7841622,62.8946769 22.7355676,62.9433077 22.686973,62.9919385 C22.1993514,63.3826615 21.9547027,63.8220154 21.9664324,64.2496308 C21.9781622,64.6772462 22.2462703,65.0914462 22.7841622,65.4335385 C23.0774054,65.6297385 23.3706486,65.727 23.6622162,65.7387385 C23.9554595,65.7504769 24.2487027,65.6783692 24.5402703,65.5308 C24.6374595,65.4821692 24.7363243,65.4335385 24.8201081,65.3849077 C24.9055676,65.3362769 24.9792973,65.2876462 25.0278919,65.2390154 C25.5155135,64.9455538 25.9310811,64.9220769 26.2360541,65.0679692 C26.541027,65.2138615 26.7370811,65.5324769 26.7856757,65.9232 C26.8828649,66.8019077 26.7119459,67.5833538 26.2980541,68.2792769 C25.8841622,68.9752 25.2239459,69.5856 24.3458919,70.1238923 C23.8582703,70.4173538 23.368973,70.6118769 22.8696216,70.7225538 C22.3685946,70.8332308 21.8575135,70.8567077 21.3196216,70.8080769 C20.9777838,70.7594462 20.6845405,70.7594462 20.392973,70.7477077 C20.0997297,70.7359692 19.8064865,70.7108154 19.4663243,70.6135538 C18.4894054,70.3687231 17.7085405,69.9293692 17.0985946,69.3307077 C16.4886486,68.7320462 16.0496216,67.9757538 15.7563784,67.0953692 C15.7077838,66.9981077 15.6826486,66.9243231 15.6709189,66.8505385 C15.6591892,66.7767538 15.6591892,66.7046462 15.6591892,66.6057077 C15.6591892,66.5570769 15.6591892,66.4832923 15.6591892,66.3977692 C15.6575135,66.3122462 15.6575135,66.2149846 15.6575135,66.1177231 Z" id="Path" fill="#080909"></path>
                    </g>
                </g>
            </g>
        </g>
    </g>
</svg>
