<?xml version="1.0" encoding="utf-8"?>
<!-- Generator: Adobe Illustrator 23.1.1, SVG Export Plug-In . SVG Version: 6.00 Build 0)  -->
<svg version="1.1" id="Layer_1" xmlns="http://www.w3.org/2000/svg" xmlns:xlink="http://www.w3.org/1999/xlink" x="0px" y="0px"
	 viewBox="0 0 81.6429825 25.8604164" style="enable-background:new 0 0 81.6429825 25.8604164;" xml:space="preserve">
<style type="text/css">
	.st0{fill:#FFFFFF;}
	.st1{fill:#D1D2D9;stroke:#000000;stroke-width:0.5;stroke-miterlimit:10;}
	.st2{fill:none;stroke:#FFFFFF;stroke-miterlimit:10;}
	.st3{fill:#EFEFF2;}
	.st4{fill:#0063FF;}
	.st5{opacity:0.6;clip-path:url(#SVGID_2_);}
	.st6{fill:none;stroke:#000000;stroke-width:13;stroke-miterlimit:10;}
	.st7{fill:#008CD6;}
	.st8{fill:#003659;}
	.st9{fill:#B8F3FF;}
	.st10{fill:none;stroke:#000000;stroke-width:3;stroke-miterlimit:10;}
	.st11{fill:#626372;}
	.st12{fill:#4D4E5A;}
	.st13{fill:#001959;}
	.st14{fill:#004ED6;}
	.st15{fill:#D1D2D9;}
	.st16{enable-background:new    ;}
	.st17{fill:#23232A;}
	.st18{fill:none;stroke:#96A3A2;stroke-width:0.3;stroke-miterlimit:10;}
	.st19{fill:#00EFE8;}
	.st20{clip-path:url(#SVGID_4_);}
	.st21{clip-path:url(#SVGID_6_);}
	.st22{opacity:0.6;clip-path:url(#SVGID_8_);}
	.st23{fill:#090A0A;}
	.st24{fill:#191B1B;}
	.st25{fill:#242021;}
	.st26{fill:#E0E1E2;}
	.st27{fill:#DEE0E1;}
	.st28{fill:none;stroke:#FFFFFF;stroke-width:2;stroke-linecap:round;stroke-miterlimit:10;}
	.st29{fill:#454345;}
	.st30{fill:#444243;}
	.st31{fill:#433F41;}
	.st32{fill:#484546;}
	.st33{fill:#434142;}
	.st34{fill:#413E3F;}
	.st35{fill:#413F40;}
	.st36{fill:#454142;}
	.st37{fill:#4A4748;}
	.st38{fill:#423F41;}
	.st39{fill:#494647;}
	.st40{fill:#3F3A3C;}
	.st41{fill:#464343;}
	.st42{fill:#474445;}
	.st43{fill:#201D1C;}
	.st44{fill:#4B4849;}
	.st45{fill:#443D3F;}
	.st46{fill:#413D3E;}
	.st47{fill:#4E494A;}
	.st48{fill:#423C3E;}
	.st49{fill:#413C3E;}
	.st50{fill:#444142;}
	.st51{fill:#4C4647;}
	.st52{fill:#433D41;}
	.st53{fill:#3E3B3B;}
	.st54{fill:#474242;}
	.st55{fill:#4A4747;}
	.st56{fill:#4C494A;}
	.st57{fill:#504C4C;}
	.st58{fill:#3F3938;}
	.st59{fill:#494547;}
	.st60{fill:#5F5857;}
	.st61{fill:#4D4341;}
	.st62{fill:#4B4748;}
	.st63{fill:#534D4D;}
	.st64{fill:#474343;}
	.st65{fill:#544E4D;}
	.st66{fill:#433F3F;}
	.st67{fill:#3D3A3C;}
	.st68{fill:#413E3E;}
	.st69{fill:#4B4646;}
	.st70{fill:#494443;}
	.st71{fill:#4F4B4C;}
	.st72{fill:#4F4C4C;}
	.st73{fill:#464142;}
	.st74{fill:#524945;}
	.st75{fill:#464040;}
	.st76{fill:#565353;}
	.st77{fill:#3C3230;}
	.st78{fill:#5C5653;}
	.st79{fill:#514E4E;}
	.st80{fill:#4F4A4C;}
	.st81{fill:#444040;}
	.st82{fill:#534F4F;}
	.st83{fill:#433D3D;}
	.st84{fill:#5C5452;}
	.st85{fill:#443A37;}
	.st86{fill:#3E393A;}
	.st87{fill:#413D3C;}
	.st88{fill:#61544D;}
	.st89{fill:#433F3E;}
	.st90{fill:#4C4949;}
	.st91{fill:#474446;}
	.st92{fill:#3A3533;}
	.st93{fill:#423C3D;}
	.st94{fill:#454242;}
	.st95{fill:#453F41;}
	.st96{fill:#464244;}
	.st97{fill:#212029;}
	.st98{fill:#3E3A3B;}
	.st99{fill:#423E3F;}
	.st100{fill:#504C4D;}
	.st101{fill:#413F41;}
	.st102{fill:#464141;}
	.st103{fill:#4E4B4C;}
	.st104{fill:#424041;}
	.st105{fill:#423E40;}
	.st106{fill:#423F3F;}
	.st107{fill:#423D3E;}
	.st108{fill:#474141;}
	.st109{fill:#3F3C3E;}
	.st110{fill:#443D3C;}
	.st111{fill:#4F4C4D;}
	.st112{fill:#393434;}
	.st113{fill:#515050;}
	.st114{fill:#403C3C;}
	.st115{fill:#3F3837;}
	.st116{fill:#393232;}
	.st117{fill:#4A4746;}
	.st118{fill:#474547;}
	.st119{fill:#575454;}
	.st120{fill:#474647;}
	.st121{fill:#3F3D3E;}
	.st122{fill:#4C494B;}
	.st123{fill:#464445;}
	.st124{fill:#3E3C3D;}
	.st125{fill:#4A4849;}
	.st126{fill:#3D3B3C;}
	.st127{fill:#4D4B4C;}
	.st128{fill:#525152;}
	.st129{fill:#3C3B3C;}
	.st130{fill:#4E4D4D;}
	.st131{fill:#403D3F;}
	.st132{fill:#4F4D4E;}
	.st133{fill:#4C4A4B;}
	.st134{fill:#3C3A3B;}
	.st135{fill:#3F3D3F;}
	.st136{fill:#3B393A;}
	.st137{fill:#4F4E4E;}
	.st138{fill:#535051;}
	.st139{fill:#3D3B3D;}
	.st140{fill:#504E4E;}
	.st141{fill:#514E4F;}
	.st142{fill:#545152;}
	.st143{fill:#393839;}
	.st144{fill:#3C393A;}
	.st145{fill:#403E3F;}
	.st146{fill:#383537;}
	.st147{fill:#545153;}
	.st148{fill:#4C4C4D;}
	.st149{fill:#4D4C4D;}
	.st150{fill:#514D4F;}
	.st151{fill:#525052;}
	.st152{fill:#565455;}
	.st153{fill:#3B3839;}
	.st154{fill:#524F50;}
	.st155{fill:#353234;}
	.st156{fill:#373435;}
	.st157{fill:#504B4C;}
	.st158{fill:#524D4E;}
	.st159{fill:#3A363A;}
	.st160{fill:#565152;}
	.st161{fill:#525151;}
	.st162{fill:#393738;}
	.st163{fill:#393737;}
	.st164{fill:#393637;}
	.st165{fill:#494648;}
	.st166{fill:#464345;}
	.st167{fill:#3D393B;}
	.st168{fill:#4D494A;}
	.st169{fill:#4F4C4E;}
	.st170{fill:#4E4B4D;}
	.st171{fill:#4D4A4B;}
	.st172{fill:#3B3739;}
	.st173{fill:#4D4A4C;}
	.st174{fill:#3A3638;}
	.st175{fill:#525051;}
	.st176{fill:#5A5658;}
	.st177{fill:#585455;}
	.st178{fill:#424142;}
	.st179{fill:#4B494A;}
	.st180{fill:#4E4A4B;}
	.st181{fill:#423F40;}
	.st182{fill:#403F40;}
	.st183{fill:#403E40;}
	.st184{fill:#3D3A3B;}
	.st185{fill:#3C3939;}
	.st186{fill:#504D50;}
	.st187{fill:#3C393B;}
	.st188{fill:#3A383B;}
	.st189{fill:#383536;}
	.st190{fill:#545252;}
	.st191{fill:#575355;}
	.st192{fill:#494749;}
	.st193{fill:#4F4D4F;}
	.st194{fill:#52504F;}
	.st195{fill:#393537;}
	.st196{fill:#4A4749;}
	.st197{fill:#4A494B;}
	.st198{fill:#3A383A;}
	.st199{fill:#4D4849;}
	.st200{fill:#504D4E;}
	.st201{fill:#3F3C3C;}
	.st202{fill:#4E4A4C;}
	.st203{fill:#504D4D;}
	.st204{fill:#514F4F;}
	.st205{fill:#3F3C3D;}
	.st206{fill:#545050;}
	.st207{fill:#2D2A2B;}
	.st208{fill:#434041;}
	.st209{fill:#535151;}
	.st210{fill:#595656;}
	.st211{fill:#524E4F;}
	.st212{fill:#3B383A;}
	.st213{fill:#2E2A2B;}
	.st214{fill:#494548;}
	.st215{fill:#5A5757;}
	.st216{fill:#514E4D;}
	.st217{fill:#565252;}
	.st218{fill:#3B3939;}
	.st219{fill:#5C5656;}
	.st220{fill:#585656;}
	.st221{fill:#434042;}
	.st222{fill:#1D1B1C;}
	.st223{fill:#2B2929;}
	.st224{fill:#4C494C;}
	.st225{fill:#555354;}
	.st226{fill:#4D484B;}
	.st227{fill:#5A585A;}
	.st228{fill:#4B484A;}
	.st229{fill:#504E50;}
	.st230{fill:#373236;}
	.st231{fill:#474143;}
	.st232{fill:#2B2D3A;}
	.st233{fill:#524C4E;}
	.st234{fill:#3D383C;}
	.st235{fill:#211E21;}
	.st236{fill:#3E3A3C;}
	.st237{fill:#373234;}
	.st238{fill:#464344;}
	.st239{fill:#575353;}
	.st240{fill:#575352;}
	.st241{fill:#605D5F;}
	.st242{fill:#393638;}
	.st243{fill:#3A3536;}
	.st244{fill:#5F5B5C;}
	.st245{fill:#484647;}
	.st246{fill:#454244;}
	.st247{fill:#514D4D;}
	.st248{fill:#595556;}
	.st249{fill:#555150;}
	.st250{fill:#675D5A;}
	.st251{fill:#474243;}
	.st252{fill:#514D4E;}
	.st253{fill:#5B5757;}
	.st254{fill:#524F4F;}
	.st255{fill:#474344;}
	.st256{fill:#454141;}
	.st257{fill:#494345;}
	.st258{fill:#555151;}
	.st259{fill:#3C3738;}
	.st260{fill:#4C4849;}
	.st261{fill:#4B4647;}
	.st262{fill:#E3E2E3;}
	.st263{fill:#434143;}
	.st264{fill:#292B36;}
	.st265{fill:#3E3B3E;}
	.st266{fill:#413E40;}
	.st267{fill:#373436;}
	.st268{fill:#3C383B;}
	.st269{fill:#535050;}
	.st270{fill:#3B3A3C;}
	.st271{fill:#3A393A;}
	.st272{fill:#514E50;}
	.st273{fill:#504D4F;}
	.st274{fill:#4E4C4E;}
	.st275{fill:#585355;}
	.st276{fill:#3D3A3D;}
	.st277{fill:#3B373A;}
	.st278{fill:#403D3E;}
	.st279{fill:#454040;}
	.st280{fill:#53504F;}
	.st281{fill:#585454;}
	.st282{fill:#2C2829;}
	.st283{fill:#4E4C4D;}
	.st284{fill:#4C4A4C;}
	.st285{fill:#4F4E50;}
	.st286{fill:#424042;}
	.st287{fill:#3E3B3D;}
	.st288{fill:#504E4F;}
	.st289{fill:#514F51;}
	.st290{fill:#383638;}
	.st291{fill:#41414B;}
	.st292{fill:#4E4D4F;}
	.st293{fill:#3A393B;}
	.st294{fill:#464243;}
	.st295{fill:#383436;}
	.st296{fill:#525050;}
	.st297{fill:#575555;}
	.st298{fill:#545151;}
	.st299{fill:#444244;}
	.st300{fill:#494849;}
	.st301{fill:#414041;}
	.st302{fill:#555252;}
	.st303{fill:#4D4B4D;}
	.st304{fill:#3D3C3E;}
	.st305{fill:#555455;}
	.st306{fill:#413D40;}
	.st307{fill:#575557;}
	.st308{fill:#3E3D3E;}
	.st309{fill:#4F4E4F;}
	.st310{fill:#525153;}
	.st311{fill:#575757;}
	.st312{fill:#515051;}
	.st313{fill:#3F3E3F;}
	.st314{fill:#515150;}
	.st315{fill:#5B5A5A;}
	.st316{fill:#373536;}
	.st317{fill:#393939;}
	.st318{fill:#3C3A3A;}
	.st319{fill:#5D5B5E;}
	.st320{fill:#393334;}
	.st321{fill:#444344;}
	.st322{fill:#514F50;}
	.st323{fill:#3A373A;}
	.st324{fill:#504F4F;}
	.st325{fill:#484648;}
	.st326{fill:#565454;}
	.st327{fill:#4E4D4E;}
	.st328{fill:#545353;}
	.st329{fill:#373537;}
	.st330{fill:#363537;}
	.st331{fill:#464446;}
	.st332{fill:#3E3C3E;}
	.st333{fill:#3A3739;}
	.st334{fill:#363336;}
	.st335{fill:#565153;}
	.st336{fill:#353436;}
	.st337{fill:#525150;}
	.st338{fill:#413D3F;}
	.st339{fill:#3F3B3D;}
	.st340{fill:#5C5759;}
	.st341{fill:#575455;}
	.st342{fill:#4F4D50;}
	.st343{fill:#5A5657;}
	.st344{fill:#444143;}
	.st345{fill:#403C3D;}
	.st346{fill:#2C292A;}
	.st347{fill:#332E30;}
	.st348{fill:#585556;}
	.st349{fill:#524E50;}
	.st350{fill:#3E3D3D;}
	.st351{fill:#393739;}
	.st352{fill:#39383A;}
	.st353{fill:#656265;}
	.st354{fill:#454344;}
	.st355{fill:#504C4E;}
	.st356{fill:#545254;}
	.st357{fill:#5B5959;}
	.st358{fill:#464546;}
	.st359{fill:#474546;}
	.st360{fill:#2B2A2A;}
	.st361{fill:#2E2C2C;}
	.st362{fill:#5A5858;}
	.st363{fill:#353335;}
	.st364{fill:#484547;}
	.st365{fill:#424141;}
	.st366{fill:#575656;}
	.st367{fill:#403F3F;}
	.st368{fill:#595555;}
	.st369{fill:#605E5E;}
	.st370{fill:#626162;}
	.st371{fill:#636060;}
	.st372{fill:#555353;}
	.st373{fill:#555355;}
	.st374{fill:#5F5C5D;}
	.st375{fill:#5B5556;}
	.st376{fill:#595657;}
	.st377{fill:#5D5B5B;}
	.st378{fill:#403B3C;}
	.st379{fill:#565354;}
	.st380{fill:#3C393C;}
	.st381{fill:#3F3C3F;}
	.st382{fill:#504C4F;}
	.st383{fill:#3E3A3D;}
	.st384{fill:#3A3738;}
	.st385{fill:#524F51;}
	.st386{fill:#5A595A;}
	.st387{fill:#535053;}
	.st388{fill:#555253;}
	.st389{fill:#605E60;}
	.st390{fill:#2B292A;}
	.st391{fill:#403D40;}
	.st392{fill:#504F50;}
	.st393{fill:#474548;}
	.st394{fill:#545354;}
	.st395{fill:#2A2F40;}
	.st396{fill:#595658;}
	.st397{fill:#5B5758;}
	.st398{fill:#545253;}
	.st399{fill:#2B3144;}
	.st400{fill:#37353D;}
	.st401{fill:#2E3447;}
	.st402{fill:#353A4E;}
	.st403{fill:#2F303B;}
	.st404{fill:#393536;}
	.st405{fill:#211F20;}
	.st406{fill:#484748;}
	.st407{fill:#4C4848;}
	.st408{fill:#433E3E;}
	.st409{fill:#2B2B37;}
	.st410{fill:#CCCBCC;}
	.st411{fill:#4A4646;}
	.st412{fill:#48423F;}
	.st413{fill:#3F3B3B;}
	.st414{fill:#3C3735;}
	.st415{fill:#403D3D;}
	.st416{fill:#3D393A;}
	.st417{fill:#393535;}
	.st418{fill:#393332;}
	.st419{fill:#3E3938;}
	.st420{fill:#383637;}
	.st421{fill:#5B5250;}
	.st422{fill:#383434;}
	.st423{fill:#E4E3E4;}
	.st424{fill:#CAC9CB;}
	.st425{fill:#363335;}
	.st426{fill:#524E4E;}
	.st427{fill:#595758;}
	.st428{fill:#4F4B4D;}
	.st429{fill:#5D595A;}
	.st430{fill:#5B595A;}
	.st431{fill:#5A5758;}
	.st432{fill:#3C3A3C;}
	.st433{fill:#514F4E;}
	.st434{fill:#565355;}
	.st435{fill:#383435;}
	.st436{fill:#4E4B4B;}
	.st437{fill:#484545;}
	.st438{fill:#555352;}
	.st439{fill:#555454;}
	.st440{fill:#383738;}
	.st441{fill:#484446;}
	.st442{fill:#4E4E4F;}
	.st443{fill:#454243;}
	.st444{fill:#565456;}
	.st445{fill:#3E3B3C;}
	.st446{fill:#5A5959;}
	.st447{fill:#5D5A5A;}
	.st448{fill:#403C3E;}
	.st449{fill:#444042;}
	.st450{fill:#444242;}
	.st451{fill:#545051;}
	.st452{fill:#413F3F;}
	.st453{fill:#3F3D3D;}
	.st454{fill:#574E4F;}
	.st455{fill:#444141;}
	.st456{fill:#343133;}
	.st457{fill:#555051;}
	.st458{fill:#383739;}
	.st459{fill:#3F3838;}
	.st460{fill:#575357;}
	.st461{fill:#5D5D5B;}
	.st462{fill:#3F3B3E;}
	.st463{fill:#423D3D;}
	.st464{fill:#3E3D3F;}
	.st465{fill:#4C4B4D;}
	.st466{fill:#3D3C3D;}
	.st467{fill:#3E3E3F;}
	.st468{fill:#433F42;}
	.st469{fill:#3D3B3E;}
	.st470{fill:#3B393B;}
	.st471{fill:#505050;}
	.st472{fill:#383538;}
	.st473{fill:#4F4B4B;}
	.st474{fill:#3E3A3A;}
	.st475{fill:#575253;}
	.st476{fill:#3A3737;}
	.st477{fill:#272424;}
	.st478{fill:#363333;}
	.st479{fill:#585256;}
	.st480{fill:#555456;}
	.st481{fill:#5D5B5C;}
	.st482{fill:#3E393B;}
	.st483{fill:#363334;}
	.st484{fill:#4C4A4D;}
	.st485{fill:#4B4A4B;}
	.st486{fill:#595757;}
	.st487{fill:#535252;}
	.st488{fill:#4D4C4E;}
	.st489{fill:#575657;}
	.st490{fill:#535353;}
	.st491{fill:#565554;}
	.st492{fill:#3A3839;}
	.st493{fill:#4A484A;}
	.st494{fill:#373538;}
	.st495{fill:#3F3B3A;}
	.st496{fill:#424040;}
	.st497{fill:#322F2F;}
	.st498{fill:#434244;}
	.st499{fill:#434043;}
	.st500{fill:#585655;}
	.st501{fill:#414042;}
	.st502{fill:#3E3C3C;}
	.st503{fill:#3C3C3D;}
	.st504{fill:#373638;}
	.st505{fill:#595453;}
	.st506{fill:#443D3B;}
	.st507{fill:#5B5858;}
	.st508{fill:#525252;}
	.st509{fill:#5C5A5B;}
	.st510{fill:#535253;}
	.st511{fill:#616060;}
	.st512{fill:#565556;}
	.st513{fill:#5C5858;}
	.st514{fill:#4B4749;}
	.st515{fill:#4D4C4F;}
	.st516{fill:#595858;}
	.st517{fill:#2B2829;}
	.st518{fill:#2D292A;}
	.st519{fill:#4C4A4A;}
	.st520{fill:#545554;}
	.st521{fill:#373535;}
	.st522{fill:#515151;}
	.st523{fill:#504E51;}
	.st524{fill:#555453;}
	.st525{fill:#535052;}
	.st526{fill:#575354;}
	.st527{fill:#595A5B;}
	.st528{fill:#575252;}
	.st529{fill:#3B3738;}
	.st530{fill:#585758;}
	.st531{fill:#585658;}
	.st532{fill:#252323;}
	.st533{fill:#595558;}
	.st534{fill:#504E4D;}
	.st535{fill:#3B383B;}
	.st536{fill:#565555;}
	.st537{fill:#545454;}
	.st538{fill:#3D383A;}
	.st539{fill:#5E5B5B;}
	.st540{fill:#626163;}
	.st541{fill:#403E3E;}
	.st542{fill:#5E5E5E;}
	.st543{fill:#403E41;}
	.st544{fill:#403F41;}
	.st545{fill:#2E2B2D;}
	.st546{fill:#312F30;}
	.st547{fill:#353236;}
	.st548{fill:#3C3945;}
	.st549{fill:#48434F;}
	.st550{fill:#49454F;}
	.st551{fill:#32394D;}
	.st552{fill:#4C4A4E;}
	.st553{fill:#545052;}
	.st554{fill:#59575A;}
	.st555{fill:#5E5A5A;}
	.st556{fill:#585657;}
	.st557{fill:#575556;}
	.st558{fill:#5A5A5A;}
	.st559{fill:#4C4B4C;}
	.st560{fill:#4B494B;}
	.st561{fill:#2C2A2A;}
	.st562{fill:#363435;}
	.st563{fill:#373637;}
	.st564{fill:#3B3A3A;}
	.st565{fill:#444446;}
	.st566{fill:#2F2C2D;}
	.st567{fill:#252222;}
	.st568{fill:#343131;}
	.st569{fill:#555152;}
	.st570{fill:#5B5658;}
	.st571{fill:#5C595B;}
	.st572{fill:#5E5B5D;}
	.st573{fill:#5A575A;}
	.st574{fill:#585859;}
	.st575{fill:#3F3A3F;}
	.st576{fill:#4A4647;}
	.st577{fill:#534F50;}
	.st578{fill:#3A3635;}
	.st579{fill:#524D4D;}
	.st580{fill:#595958;}
	.st581{fill:#3D3C3C;}
	.st582{fill:#3D3B3B;}
	.st583{fill:#383535;}
	.st584{fill:#535153;}
	.st585{fill:#5B595B;}
	.st586{fill:#535152;}
	.st587{fill:#5C5B5B;}
	.st588{fill:#434242;}
	.st589{fill:#565254;}
	.st590{fill:#434343;}
	.st591{fill:#584F4A;}
	.st592{fill:#5B5859;}
	.st593{fill:#272833;}
	.st594{fill:#434551;}
	.st595{fill:#2F313E;}
	.st596{fill:#30333E;}
	.st597{fill:#3B3C4B;}
	.st598{fill:#504C4B;}
	.st599{fill:#434243;}
	.st600{fill:#4E4C4F;}
	.st601{fill:#4C484A;}
	.st602{fill:#5B585A;}
	.st603{fill:#575554;}
	.st604{fill:#565253;}
	.st605{fill:#3C3B3B;}
	.st606{fill:#433D40;}
	.st607{fill:#585555;}
	.st608{fill:#5E5C5D;}
	.st609{fill:#585354;}
	.st610{fill:#545453;}
	.st611{fill:#5D5A5B;}
	.st612{fill:#555254;}
	.st613{fill:#504F4E;}
	.st614{fill:#363436;}
	.st615{fill:#5A595B;}
	.st616{fill:#595959;}
	.st617{fill:#3C3B3A;}
	.st618{fill:#4C4B4B;}
	.st619{fill:#595557;}
	.st620{fill:#4A474A;}
	.st621{fill:#3B3A3B;}
	.st622{fill:#383437;}
	.st623{fill:#585659;}
	.st624{fill:#535254;}
	.st625{fill:#58575A;}
	.st626{fill:#433F40;}
	.st627{fill:#534E4F;}
	.st628{fill:#3B3737;}
	.st629{fill:#5D5859;}
	.st630{fill:#605C5C;}
	.st631{fill:#2E2C2D;}
	.st632{fill:#322F30;}
	.st633{fill:#535355;}
	.st634{fill:#545455;}
	.st635{fill:#4D4D4E;}
	.st636{fill:#373739;}
	.st637{fill:#3D3D3F;}
	.st638{fill:#555556;}
	.st639{fill:#363434;}
	.st640{fill:#383939;}
	.st641{fill:#3F3E40;}
	.st642{fill:#585858;}
	.st643{fill:#5A5A5B;}
	.st644{fill:#353334;}
	.st645{fill:#444445;}
	.st646{fill:#3D3D3E;}
	.st647{fill:#565757;}
	.st648{fill:#585759;}
	.st649{fill:#5A5859;}
	.st650{fill:#575758;}
	.st651{fill:#555655;}
	.st652{fill:#5D5B5D;}
	.st653{fill:#484646;}
	.st654{fill:#585757;}
	.st655{fill:#615D5E;}
	.st656{fill:#494748;}
	.st657{fill:#4F5050;}
	.st658{fill:#534E50;}
	.st659{fill:#515152;}
	.st660{fill:#575558;}
	.st661{fill:#615E5F;}
	.st662{fill:#383737;}
	.st663{fill:#3A3639;}
	.st664{fill:#2E2A2C;}
	.st665{fill:#575153;}
	.st666{fill:#4E4E4E;}
	.st667{fill:#333132;}
	.st668{fill:#5C5B5D;}
	.st669{fill:#423E41;}
	.st670{fill:#565356;}
	.st671{fill:#5B585B;}
	.st672{fill:#5C595C;}
	.st673{fill:#373437;}
	.st674{fill:#555555;}
	.st675{fill:#4D4A55;}
	.st676{fill:#47464A;}
	.st677{fill:#575456;}
	.st678{fill:#454546;}
	.st679{fill:#5D5C5D;}
	.st680{fill:#666466;}
	.st681{fill:#5E5E5F;}
	.st682{fill:#5B5C5C;}
	.st683{fill:#424144;}
	.st684{fill:#5C5B5C;}
	.st685{fill:#545456;}
	.st686{fill:#5E5C5E;}
	.st687{fill:#5A585B;}
	.st688{fill:#515052;}
	.st689{fill:#454346;}
	.st690{fill:#5A5759;}
	.st691{fill:#595A5A;}
	.st692{fill:#433E40;}
	.st693{fill:#505051;}
	.st694{fill:#3C3A3D;}
	.st695{fill:#595859;}
	.st696{fill:#383639;}
	.st697{fill:#4E4949;}
	.st698{fill:#484344;}
	.st699{fill:#484342;}
	.st700{fill:#383336;}
	.st701{fill:#363234;}
	.st702{fill:#545251;}
	.st703{fill:#534E4E;}
	.st704{fill:#4F4949;}
	.st705{fill:#403B39;}
	.st706{fill:#413937;}
	.st707{fill:#3D3939;}
	.st708{fill:#494546;}
	.st709{fill:#413E3D;}
	.st710{fill:#504B4B;}
	.st711{fill:#565656;}
	.st712{fill:#565657;}
	.st713{fill:#5A5354;}
	.st714{fill:#463D3A;}
	.st715{fill:#5F5A5A;}
	.st716{fill:#5E5E5D;}
	.st717{fill:#3B3638;}
	.st718{fill:#3C3B3D;}
	.st719{fill:#4F4D4D;}
	.st720{fill:#4B4649;}
	.st721{fill:#5E5B5C;}
	.st722{fill:#5D585A;}
	.st723{fill:#3E3E3E;}
	.st724{fill:#3A3939;}
	.st725{fill:#3F3F40;}
	.st726{fill:#5D5A5C;}
	.st727{fill:#605E5F;}
	.st728{fill:#5C595A;}
	.st729{fill:#5C5A5A;}
	.st730{fill:#5B5B5B;}
	.st731{fill:#585756;}
	.st732{fill:#575658;}
	.st733{fill:#413E41;}
	.st734{fill:#514E52;}
	.st735{fill:#38373A;}
	.st736{fill:#424143;}
	.st737{fill:#646265;}
	.st738{fill:#39373A;}
	.st739{fill:#5A5555;}
	.st740{fill:#444343;}
	.st741{fill:#5C5C5E;}
	.st742{fill:#3A3A3A;}
	.st743{fill:#5B5A5C;}
	.st744{fill:#2D2B2C;}
	.st745{fill:#555154;}
	.st746{fill:#565557;}
	.st747{fill:#545154;}
	.st748{fill:#545556;}
	.st749{fill:#615D5F;}
	.st750{fill:#5B5A5B;}
	.st751{fill:#555255;}
	.st752{fill:#444345;}
	.st753{fill:#606060;}
	.st754{fill:#575457;}
	.st755{fill:#575756;}
	.st756{fill:#2C2A2B;}
	.st757{fill:#292727;}
	.st758{fill:#504F51;}
	.st759{fill:#545553;}
	.st760{fill:#5F5F5E;}
	.st761{fill:#585557;}
	.st762{fill:#393538;}
	.st763{fill:#5E595C;}
	.st764{fill:#39383B;}
	.st765{fill:#616260;}
	.st766{fill:#545457;}
	.st767{fill:#474648;}
	.st768{fill:#5D5659;}
	.st769{fill:#464547;}
	.st770{fill:#5F5E60;}
	.st771{fill:#403C3F;}
	.st772{fill:#5C5A5C;}
	.st773{fill:#5A5958;}
	.st774{fill:#696667;}
	.st775{fill:#4B4B4C;}
	.st776{fill:#4A4649;}
	.st777{fill:#5F5D5D;}
	.st778{fill:#5B5759;}
	.st779{fill:#4D4B4B;}
	.st780{fill:#4F4D4C;}
	.st781{fill:#605A5B;}
	.st782{fill:#464342;}
	.st783{fill:#5C5958;}
	.st784{fill:#565452;}
	.st785{fill:#3C3839;}
	.st786{fill:#3C383A;}
	.st787{fill:#575453;}
	.st788{fill:#544F4F;}
	.st789{fill:#605B5B;}
	.st790{fill:#5C5C5D;}
	.st791{fill:#373738;}
	.st792{fill:#535354;}
	.st793{fill:#605D5E;}
	.st794{fill:#3D3A3A;}
	.st795{fill:#5D5D5E;}
	.st796{fill:#3A3537;}
	.st797{fill:#363536;}
	.st798{fill:#5A5556;}
	.st799{fill:#414142;}
	.st800{fill:#474345;}
	.st801{fill:#5F5D5F;}
	.st802{fill:#535251;}
	.st803{fill:#454446;}
	.st804{fill:#626363;}
	.st805{fill:#59585A;}
	.st806{fill:#5E5A5D;}
	.st807{fill:#39393A;}
	.st808{fill:#393639;}
	.st809{fill:#363235;}
	.st810{fill:#3A3838;}
	.st811{fill:#4A4A4B;}
	.st812{fill:#484749;}
	.st813{fill:#454445;}
	.st814{fill:#3F3E3E;}
	.st815{fill:#595659;}
	.st816{fill:#535454;}
	.st817{fill:#5E5D5E;}
	.st818{fill:#5E5A5C;}
	.st819{fill:#59595C;}
	.st820{fill:#585554;}
	.st821{fill:#5E5D60;}
	.st822{fill:#353435;}
	.st823{fill:#525253;}
	.st824{fill:#535054;}
	.st825{fill:#5B5B5A;}
	.st826{fill:#525254;}
	.st827{fill:#525259;}
	.st828{fill:#5E5C5F;}
	.st829{fill:#37363A;}
	.st830{fill:#3B393D;}
	.st831{fill:#525251;}
	.st832{fill:#3C3B3E;}
	.st833{fill:#595A59;}
	.st834{fill:#353133;}
	.st835{fill:#5B5657;}
	.st836{fill:#615D5D;}
	.st837{fill:#595456;}
	.st838{fill:#5E5B5A;}
	.st839{fill:#413B3D;}
	.st840{fill:#444041;}
	.st841{fill:#5F5E5E;}
	.st842{fill:#504D4C;}
	.st843{fill:#535352;}
	.st844{fill:#5E5D5D;}
	.st845{fill:#393838;}
	.st846{fill:#635D5E;}
	.st847{fill:#424043;}
	.st848{fill:#5D5C5C;}
	.st849{fill:#59585B;}
	.st850{fill:#434144;}
	.st851{fill:#4A484B;}
	.st852{fill:#575559;}
	.st853{fill:#444144;}
	.st854{fill:#565458;}
	.st855{fill:#434344;}
	.st856{fill:#3B3A3D;}
	.st857{fill:#5C585B;}
	.st858{fill:#413F42;}
	.st859{fill:#373639;}
	.st860{fill:#585456;}
	.st861{fill:#615E5E;}
	.st862{fill:#58585A;}
	.st863{fill:#616161;}
	.st864{fill:#5A5C5D;}
	.st865{fill:#575759;}
	.st866{fill:#3B3B3B;}
	.st867{fill:#5C585A;}
	.st868{fill:#414040;}
	.st869{fill:#3E3E40;}
	.st870{fill:#3F3D40;}
	.st871{fill:#626264;}
	.st872{fill:#555357;}
	.st873{fill:#6D6A6C;}
	.st874{fill:#535154;}
	.st875{fill:#59595A;}
	.st876{fill:#565756;}
	.st877{fill:#524F52;}
	.st878{fill:#565655;}
	.st879{fill:#3A3B3B;}
	.st880{fill:#5E5D5F;}
	.st881{fill:#514F52;}
	.st882{fill:#525355;}
	.st883{fill:#4F4F51;}
	.st884{fill:#56565C;}
	.st885{fill:#535258;}
	.st886{fill:#515155;}
	.st887{fill:#5C5757;}
	.st888{fill:#404040;}
	.st889{fill:#4B4848;}
	.st890{fill:#504B4D;}
	.st891{fill:#565453;}
	.st892{fill:#595756;}
	.st893{fill:#525453;}
	.st894{fill:#5C5B5E;}
	.st895{fill:#615F60;}
	.st896{fill:#605D5D;}
	.st897{fill:#565658;}
	.st898{fill:#595759;}
	.st899{fill:#363637;}
	.st900{fill:#535255;}
	.st901{fill:#605F61;}
	.st902{fill:#454143;}
	.st903{fill:#444043;}
	.st904{fill:#464447;}
	.st905{fill:#5A5B5A;}
	.st906{fill:#565255;}
	.st907{fill:#3D383B;}
	.st908{fill:#3E393C;}
	.st909{fill:#5B5B5D;}
	.st910{fill:#645F60;}
	.st911{fill:#353535;}
	.st912{fill:#5C5758;}
	.st913{fill:#5C5859;}
	.st914{fill:#343334;}
	.st915{fill:#4F4E4D;}
	.st916{fill:#403B3D;}
	.st917{fill:#3E3C3F;}
	.st918{fill:#5C5A5F;}
	.st919{fill:#3B393C;}
	.st920{fill:#555457;}
	.st921{fill:#585558;}
	.st922{fill:#3F3F41;}
	.st923{fill:#545352;}
	.st924{fill:#555557;}
	.st925{fill:#565457;}
	.st926{fill:#605F60;}
	.st927{fill:#4C494D;}
	.st928{fill:#383736;}
	.st929{fill:#625D60;}
	.st930{fill:#5F5A5C;}
	.st931{fill:#3A373B;}
	.st932{fill:#5C5C5C;}
	.st933{fill:#4E4E50;}
	.st934{fill:#3A3637;}
	.st935{fill:#595857;}
	.st936{fill:#605E5D;}
	.st937{fill:#555657;}
	.st938{fill:#626061;}
	.st939{fill:#5B595C;}
	.st940{fill:#3D393C;}
	.st941{fill:#3B3C3C;}
	.st942{fill:#636061;}
	.st943{fill:#50504F;}
	.st944{fill:#5C5A59;}
	.st945{fill:#555654;}
	.st946{fill:#454245;}
	.st947{fill:#5C5E5F;}
	.st948{fill:#313131;}
	.st949{fill:#1BE0E6;}
	.st950{fill:none;stroke:#000000;stroke-miterlimit:10;}
	.st951{fill:#FFFFFF;stroke:#000000;stroke-miterlimit:10;}
	.st952{fill:none;stroke:#06C6BC;stroke-width:0.2;stroke-miterlimit:10;}
	.st953{fill:#3F5070;}
</style>
<g>
	<g>
		<g>
			<g>
				<g>
					<g>
						<polygon class="st0" points="62.3838463,13.46315 67.9759293,13.46315 67.9759293,12.034277 63.8238831,12.034277 
							63.8238831,9.1145134 67.9759293,9.1145134 67.9759293,7.6980433 63.8238831,7.6980433 63.8238831,5.4927168 
							68.0125198,5.4927168 68.0125198,4.0638433 62.3838463,4.0638433 						"/>
						<path class="st0" d="M73.6832047,8.2938671c0.5408401-0.4472942,0.8140488-1.0432734,0.8140488-1.7767859
							c0-0.7805967-0.2750702-1.3926835-0.8171463-1.8176746c-0.527832-0.4150791-1.2978973-0.6257162-2.2897491-0.6257162
							h-2.0239792V13.46315h2.712883c0.9230881,0,1.6844788-0.2676334,2.2637329-0.7942257
							c0.5842056-0.5315495,0.8803329-1.2105446,0.8803329-2.0171604c0-0.581111-0.1598358-1.0903568-0.4745483-1.5153484
							C74.4935379,8.7907228,74.1360703,8.5082216,73.6832047,8.2938671z M73.0339432,6.5170813
							c0,0.4336643-0.1505432,0.7397079-0.4584427,0.9342375c-0.3339233,0.2093978-0.8567963,0.3147163-1.5543823,0.3147163
							h-0.2285995v-2.277359h0.745285C72.8784409,5.4886761,73.0339432,6.0759821,73.0339432,6.5170813z M73.7476349,10.7124767
							c0,0.2230272-0.0762024,0.4485331-0.2261276,0.6690826c-0.1536407,0.2267447-0.3518906,0.3890591-0.606514,0.4980946
							c-0.2626724,0.1115141-0.7012939,0.1685104-1.3034668,0.1685104h-0.8190079V9.205802h0.2162094
							c0.7440491,0,1.259491,0.0359325,1.532074,0.1090355c0.2663956,0.0718641,0.4919052,0.178422,0.6709442,0.3171949
							c0.177803,0.138773,0.3134766,0.29737,0.4020691,0.4720745
							C73.7024078,10.2775736,73.7476349,10.4820147,73.7476349,10.7124767z"/>
						<path class="st0" d="M81.1395569,9.4392653c-0.3235931-0.453146-0.8376694-0.9394197-1.5268555-1.445807
							C78.9501419,7.507185,78.5230255,7.1546068,78.344368,6.946373c-0.1603165-0.1869373-0.2384033-0.3999043-0.2384033-0.6519146
							c0-0.2425451,0.0792694-0.4353981,0.2431335-0.5892072c0.1662369-0.1573586,0.3673706-0.2330804,0.615242-0.2330804
							c0.2585144,0,0.4774017,0.0615239,0.6690674,0.1869373c0.2005463,0.1325126,0.4543304,0.4046364,0.7536621,0.8092732
							l0.1112213,0.1490765l1.0944061-0.8554158l-0.0999756-0.1419778
							c-0.3549423-0.4992881-0.7258606-0.8849945-1.1038742-1.1441035
							c-0.3904343-0.2662082-0.8518677-0.4022703-1.3718567-0.4022703c-0.6738052,0-1.2328415,0.2176991-1.6617355,0.647182
							c-0.4288864,0.4282994-0.6465912,0.9595323-0.6465912,1.5795016c0,0.2875051,0.0550232,0.5785594,0.1644592,0.864881
							c0.1100311,0.2875051,0.2875061,0.560812,0.5259094,0.8116393c0.231308,0.2437286,0.6400833,0.5868416,1.25,1.0494518
							c0.5791473,0.4365816,0.991478,0.8092728,1.2239609,1.1062431c0.2165146,0.2744904,0.3259583,0.5667276,0.3259583,0.8684301
							c0,0.2934208-0.1224518,0.5454311-0.3744659,0.7690458c-0.2573318,0.2307138-0.5596313,0.3419304-0.9246292,0.3419304
							c-0.5596313,0-1.083168-0.4460468-1.5552444-1.3263092l-0.0887375-0.1644573l-1.1695404,0.6732111l0.0780869,0.1538095
							c0.6809006,1.336956,1.6404343,2.0149002,2.8525696,2.0149002c0.6956863,0,1.3132935-0.2520103,1.8356476-0.7501154
							c0.5247269-0.4992886,0.7903442-1.0991449,0.7903442-1.7818203
							C81.6429825,10.4082623,81.473793,9.9066076,81.1395569,9.4392653z"/>
						<path class="st0" d="M59.8218155,6.8243713c-0.4097481-0.2603679-0.8722916-0.3923516-1.3744278-0.3923516
							c-0.789505,0-1.4956169,0.291564-2.1039391,0.8650932V6.4320197L54.9864159,6.430275V13.46315h1.3570328v-2.5916796
							c0-0.8386965,0.0359955-1.4002266,0.1073837-1.668993c0.0689926-0.2603683,0.1961784-0.511137,0.3779564-0.7439079
							c0.1817741-0.2315722,0.401947-0.4151487,0.6539154-0.544733c0.5099373-0.2627673,1.0822678-0.2315712,1.4338226-0.0791903
							c0.1739807,0.0755906,0.3125648,0.185977,0.4247475,0.3395576c0.1163864,0.1583805,0.2069778,0.3575563,0.2687683,0.5927267
							c0.0629921,0.2423706,0.0953865,0.7187119,0.0953865,1.4134254v3.282794h1.3456345V9.9415855
							c0-0.9166861-0.0989876-1.5814047-0.3023605-2.0349483C60.5441284,7.4506936,60.2321663,7.0859389,59.8218155,6.8243713z"/>
						<path class="st0" d="M35.7202339,4.6814466c-0.7288208-0.409369-1.5375023-0.6176033-2.4041595-0.6176033
							c-0.82761,0-1.6114445,0.2106004-2.3290234,0.624702c-0.7187634,0.4141016-1.2931805,0.992661-1.7066917,1.7179303
							c-0.4135094,0.7252698-0.6229267,1.5227113-0.6229267,2.3698449c0,0.8483171,0.2094173,1.6410255,0.623518,2.3591967
							c0.4135113,0.7169867,0.993845,1.2896309,1.7250309,1.7013655c0.7294102,0.408186,1.5280342,0.6164198,2.3745766,0.6164198
							c0.8459511,0,1.6416168-0.2094164,2.364521-0.623518c0.7217178-0.4141016,1.2979126-0.9902945,1.7126045-1.7131977
							c0.4135094-0.7217207,0.6229286-1.5167952,0.6229286-2.3639297c0-0.8459501-0.2117844-1.6422086-0.6294365-2.3651114
							C37.032341,5.6646423,36.4502335,5.0908155,35.7202339,4.6814466z M36.6714821,8.7822361
							c0,0.9477015-0.3235893,1.7463255-0.9618988,2.373394c-0.6406746,0.6282511-1.4339752,0.9465179-2.3586044,0.9465179
							c-0.8932762,0-1.6723785-0.3253651-2.3154202-0.968998c-0.6430397-0.6424484-0.9695892-1.4398899-0.9695892-2.3686609
							c0-0.9299545,0.3170834-1.728579,0.9423771-2.3757606c0.6312103-0.6554637,1.3978882-0.9725475,2.3426323-0.9725475
							c0.9092484,0,1.69841,0.3253655,2.3455887,0.968998C36.34375,7.0288115,36.6714821,7.8345346,36.6714821,8.7822361z"/>
						<path class="st0" d="M42.6773148,6.4320197c-0.8197479,0-1.5363731,0.2866507-2.1358948,0.8506298V6.4320197h-1.3062401
							v9.0621166H40.54142v-2.9061232c0.6472969,0.5849533,1.3837318,0.8809261,2.1941605,0.8809261
							c0.9415169,0,1.7560234-0.3495741,2.4202156-1.0382338c0.6624413-0.6874952,0.9986153-1.5241423,0.9986153-2.4854698
							c0-0.9636583-0.3402519-1.7979746-1.0114326-2.4808083C44.4706306,6.7804284,43.6415558,6.4320197,42.6773148,6.4320197z
							 M41.1106453,8.3628321c0.4200706-0.4346366,0.9246216-0.645546,1.5439491-0.645546s1.1279564,0.2144051,1.5550194,0.6571989
							c0.4293938,0.4439583,0.6385574,0.9648237,0.6385574,1.5940561c0,0.628067-0.2126579,1.1477671-0.649044,1.5917253
							c-0.4352188,0.4439592-0.9327774,0.6583643-1.5218124,0.6583643c-0.6117516,0-1.1192169-0.2109098-1.5509415-0.6467113
							c-0.4323044-0.4358025-0.6426315-0.9601631-0.6426315-1.6033783
							C40.4837418,9.3229952,40.6888237,8.7974691,41.1106453,8.3628321z"/>
						<path class="st0" d="M53.9604912,10.0881729c-0.0238724-1.1226587-0.3645172-2.0216751-1.0120163-2.6726832
							c-0.6492538-0.6533337-1.4662056-0.9852581-2.4287262-0.9852581c-0.9642677,0-1.7841301,0.3506289-2.437458,1.0400567
							c-0.6504135,0.6858892-0.9799881,1.5209064-0.9799881,2.4828091c0,0.9596786,0.3278313,1.7934828,0.9747505,2.477047
							c0.64925,0.6847773,1.4830856,1.032979,2.4776344,1.032979c0.7191277,0,1.3474159-0.1711693,1.8668137-0.5088558
							c0.5170708-0.3354635,0.9695091-0.8571596,1.3439255-1.5512381c-0.5052681,0-1.0105362,0-1.5158005,0
							c-0.1271973,0.1564074-0.3648872,0.4055281-0.7381248,0.5883236c-0.092495,0.0452948-0.4857712,0.2222261-1.026104,0.2222261
							c-0.5502625,0-1.0108566-0.1886597-1.4073906-0.5788193c-0.359272-0.3528528-0.5665665-0.8000355-0.630619-1.3636904
							h5.5171814L53.9604912,10.0881729z M48.6197433,9.0680399c0.35112-0.9095335,0.9747505-1.3532376,1.9000053-1.3532376
							c0.4908714,0,0.9299164,0.1397495,1.3054924,0.4157538c0.3196754,0.2340794,0.536869,0.5426922,0.6608963,0.9374838
							H48.6197433z"/>
					</g>
				</g>
			</g>
		</g>
		<g>
			<g>
				<g id="Artboard_131_">
					<g class="st16">
						<path class="st0" d="M59.7026825,17.6208401h0.8115196c0.4802628,0,0.7943039,0.0189972,0.9417267,0.0565948
							c0.1476212,0.0379944,0.2827759,0.1040878,0.4056587,0.1986752c0.1228867,0.0945873,0.2184639,0.2125263,0.2865372,0.3546066
							c0.0680695,0.1416836,0.102108,0.2995949,0.102108,0.473732c0,0.279808-0.075592,0.5085602-0.2269745,0.6862602
							c-0.1511803,0.1780949-0.3413467,0.2904911-0.5700989,0.3375874c-0.2289505,0.047493-0.5797997,0.0712395-1.0525436,0.0712395
							h-0.2893028v1.894928h-0.4086304V17.6208401z M60.1113129,18.0177937v1.3899326h0.6864548
							c0.4121933,0.0079155,0.6864586-0.0593643,0.8227997-0.2010498c0.1361427-0.1420803,0.204216-0.3094883,0.204216-0.5022278
							c0-0.457901-0.3310585-0.686655-0.9929771-0.686655H60.1113129z"/>
						<path class="st0" d="M62.9424286,17.5187321h0.3858719v4.1757317h-0.3858719V17.5187321z"/>
						<path class="st0" d="M67.135376,18.6814957v3.0129681h-0.3801346V21.17799
							c-0.3443146,0.4123878-0.737709,0.6185818-1.1801758,0.6185818c-0.4426651,0-0.8162689-0.1579094-1.1206131-0.473732
							c-0.3045425-0.3158207-0.4567146-0.6921959-0.4567146-1.1291218s0.1531639-0.8113213,0.4594841-1.1235809
							c0.3065186-0.3118629,0.6732025-0.4677963,1.1008224-0.4677963c0.4915466,0,0.8906784,0.2097569,1.197197,0.6296654
							v-0.5505104H67.135376z M66.7778015,20.2020302c0-0.3439217-0.1153717-0.6344147-0.3460999-0.8706875
							s-0.513504-0.3546066-0.8481293-0.3546066c-0.334816,0-0.6175919,0.1218967-0.84832,0.3660851
							c-0.2307358,0.2437916-0.3460999,0.5323048-0.3460999,0.8651447s0.1173401,0.6213531,0.3518372,0.8651447
							c0.2344894,0.2437935,0.5152893,0.3660851,0.8425827,0.3660851c0.3271027,0,0.6079025-0.1171474,0.8425903-0.3518372
							C66.6606522,20.8526688,66.7778015,20.5578232,66.7778015,20.2020302z"/>
						<path class="st0" d="M68.7409973,21.2179623c0,0.102108,0.0132599,0.1626587,0.0395813,0.1812611
							c0.0265121,0.0189972,0.0945816,0.0284939,0.2044067,0.0284939h0.2325134v0.3292789
							c-0.1588974,0.026516-0.2835617,0.0395756-0.3743896,0.0395756c-0.1701813,0-0.2950439-0.0415554-0.3743973-0.125061
							c-0.0795517-0.0831108-0.1193237-0.2133179-0.1193237-0.3914127v-2.2693253h-0.5332947v-0.329277h0.5332947v-1.1627636
							h0.3916092v1.1627636h0.612648v0.329277h-0.612648V21.2179623z"/>
						<path class="st0" d="M71.1749649,17.597887v0.380331c-0.1474228-0.0645103-0.2790146-0.0965672-0.3941879-0.0965672
							c-0.1155624,0-0.1901627,0.0368061-0.2241974,0.110815c-0.0340347,0.0736122-0.0510559,0.1935291-0.0510559,0.3601475
							v0.3288822h0.6298599v0.329277h-0.6298599v2.683691h-0.3914108v-2.683691H69.722496v-0.329277h0.3916168V18.290081
							c0-0.2647667,0.0490723-0.4594841,0.1474228-0.5841503c0.0983429-0.1250629,0.2515106-0.1871986,0.4594803-0.1871986
							C70.8421249,17.5187321,70.9934998,17.5452499,71.1749649,17.597887z"/>
						<path class="st0" d="M71.572113,20.2079659c0-0.4424667,0.1521759-0.8208199,0.4567184-1.1346626
							c0.3045425-0.3142376,0.6751709-0.4709625,1.1120987-0.4709625s0.8075638,0.1567249,1.1121063,0.4709625
							c0.3043442,0.3138428,0.4567108,0.6902161,0.4567108,1.128727c0,0.4389038-0.1503906,0.8144875-0.4511719,1.1263504
							c-0.3005829,0.3122597-0.6722107,0.4681911-1.1148758,0.4681911c-0.4424667,0-0.8150787-0.1559315-1.1176453-0.4681911
							C71.7234955,21.0165176,71.572113,20.6429138,71.572113,20.2079659z M74.3183365,20.2135067
							c0-0.33284-0.1163559-0.6213531-0.3490677-0.8651447c-0.2325134-0.2441883-0.5087585-0.3660851-0.8283386-0.3660851
							s-0.5948334,0.1218967-0.8255692,0.3660851c-0.2307281,0.2437916-0.3460922,0.5342846-0.3460922,0.8706856
							c0,0.3367977,0.1116028,0.6225395,0.334816,0.8568344c0.2232132,0.2346897,0.5002518,0.3518353,0.8311081,0.3518353
							c0.3310623,0,0.6108627-0.1183338,0.8398132-0.3546066C74.2037659,20.8368397,74.3183365,20.5503044,74.3183365,20.2135067z"
							/>
						<path class="st0" d="M75.2828217,18.6814957h0.3971481v0.4369259c0.1058731-0.1777,0.2089691-0.3083019,0.3090973-0.3914127
							c0.1003265-0.0831127,0.2119293-0.1246681,0.334816-0.1246681s0.2467575,0.0340366,0.3716278,0.102108l-0.204216,0.3288822
							c-0.0567932-0.0340366-0.1155624-0.051054-0.1759186-0.051054c-0.1173477,0-0.2279663,0.0605526-0.3318481,0.1816578
							c-0.1040878,0.1211033-0.1806717,0.2770367-0.2299423,0.4681911c-0.0490799,0.1907597-0.073616,0.5378456-0.073616,1.0408649
							v1.0214729h-0.3971481V18.6814957z"/>
						<path class="st0" d="M77.1379776,18.6814957h0.3858719v0.5220146c0.2685242-0.4009113,0.612648-0.6011696,1.0325546-0.6011696
							c0.2232132,0,0.4226761,0.063324,0.5985947,0.1899681c0.1759186,0.126646,0.2940521,0.3055325,0.3546066,0.5362644
							c0.1248627-0.2346897,0.2837677-0.4143677,0.4765015-0.5390339c0.1929398-0.1250629,0.4151611-0.1871986,0.6666718-0.1871986
							s0.4794693,0.0973587,0.6836853,0.2920761c0.2044144,0.1947174,0.3065186,0.5797977,0.3065186,1.1544514v1.6455956h-0.3971481
							v-1.6455956c0-0.2758503-0.0170212-0.4792728-0.0510559-0.6098766
							c-0.0340347-0.1302071-0.1078491-0.2402306-0.2214279-0.3288822
							c-0.1133881-0.0890465-0.2637787-0.1333733-0.4509811-0.1333733c-0.1871948,0-0.3623199,0.0625324-0.5247803,0.1871986
							c-0.1626663,0.1246662-0.2742691,0.2837639-0.3348236,0.4765015
							c-0.0605469,0.1931343-0.0908279,0.4844189-0.0908279,0.8738537v1.1801739H79.191803v-1.5434875
							c0-0.3213634-0.0170135-0.5509071-0.0510483-0.6890297c-0.0340424-0.1381226-0.1096344-0.2536869-0.2269745-0.3462963
							c-0.1171494-0.0926094-0.2610092-0.1389141-0.4311905-0.1389141s-0.3300705,0.0502625-0.4792709,0.1503925
							c-0.1495972,0.1001282-0.2667465,0.2374592-0.3518372,0.4111996c-0.0850906,0.174139-0.1276321,0.4674015-0.1276321,0.8793945
							v1.276741h-0.3858719V18.6814957z"/>
					</g>
				</g>
			</g>
			<g>
				<polygon class="st0" points="28.595295,21.6406116 30.9839134,21.6406116 30.9839134,21.1137333 29.1276932,21.1137333 
					29.1276932,19.696064 30.9839134,19.696064 30.9839134,19.1749268 29.1276932,19.1749268 29.1276932,18.0765629 
					31.0004749,18.0765629 31.0004749,17.5496845 28.595295,17.5496845 				"/>
				<polygon class="st0" points="34.2633247,20.464962 31.734705,17.5496845 31.5478897,17.5496845 31.5478897,21.6406116 
					32.0911102,21.6406116 32.0911102,18.7624321 34.5830727,21.6172047 34.6031685,21.6406116 34.7899818,21.6406116 
					34.7899818,17.5496845 34.2633247,17.5496845 				"/>
				<polygon class="st0" points="35.2274284,18.0712624 36.1142464,18.0712624 36.1142464,21.6406116 36.6519432,21.6406116 
					36.6519432,18.0712624 37.5332413,18.0712624 37.5332413,17.5496845 35.2274284,17.5496845 				"/>
				<polygon class="st0" points="37.9704666,21.6406116 40.3588638,21.6406116 40.3588638,21.1137333 38.5026436,21.1137333 
					38.5026436,19.696064 40.3588638,19.696064 40.3588638,19.1749268 38.5026436,19.1749268 38.5026436,18.0765629 
					40.3754272,18.0765629 40.3754272,17.5496845 37.9704666,17.5496845 				"/>
				<path class="st0" d="M43.1703568,19.5185242c0.2543869-0.2053642,0.3833466-0.491106,0.3833466-0.8488369
					c0-0.1784229-0.035553-0.344038-0.1057739-0.4915466c-0.0702209-0.1488342-0.1687088-0.2720509-0.2925873-0.3661213
					c-0.1223373-0.0936279-0.2707291-0.1620827-0.4416428-0.2022724c-0.1687088-0.0401878-0.4692459-0.0600624-0.9188347-0.0600624
					h-0.8554611v4.0909271h0.532177v-1.8394375h0.1245461l1.4008865,1.8129406l0.0203171,0.0264969h0.6620178l-1.4258385-1.8385544
					C42.6386223,19.7945499,42.9464455,19.6991558,43.1703568,19.5185242z M42.0867882,19.2791538h-0.6152077v-1.2078915h0.6317711
					c0.314888,0,0.5485191,0.0499058,0.6944809,0.1479511c0.1393394,0.0940704,0.2071304,0.2433453,0.2071304,0.4562149
					c0,0.2128716-0.068676,0.3630314-0.2100029,0.4588661c-0.1417656,0.0962791-0.3681068,0.1452999-0.6735039,0.1452999
					C42.1099739,19.2795944,42.0984917,19.2795944,42.0867882,19.2791538z"/>
				<path class="st0" d="M46.465889,17.8120193c-0.1265297-0.0971603-0.2674141-0.1660576-0.418457-0.2049217
					c-0.1506004-0.0384235-0.4551125-0.0574131-0.9309807-0.0574131h-0.8556824v4.0909271h0.532402v-1.8394375h0.2128716
					c0.4685822,0,0.8075409-0.023407,1.0356483-0.071104c0.2364998-0.0481396,0.4356804-0.1660576,0.5913582-0.349781
					c0.1570053-0.1846066,0.2364998-0.4235344,0.2364998-0.7106018c0-0.1784229-0.035553-0.3431549-0.1057739-0.4888973
					C46.6933327,18.0337238,46.5930824,17.9096222,46.465889,17.8120193z M46.3210297,18.6696873
					c0,0.1709156-0.0587387,0.3148918-0.1795273,0.4407597c-0.1183586,0.122776-0.3714218,0.1823978-0.7496872,0.1740055h-0.5986443
					v-1.2131901h0.631546C46.0277786,18.0712624,46.3210297,18.2669106,46.3210297,18.6696873z"/>
				<path class="st0" d="M49.7748909,19.5185242c0.2543831-0.2053642,0.3833427-0.491106,0.3833427-0.8488369
					c0-0.1779804-0.035553-0.3435974-0.1057739-0.4915466c-0.0702209-0.1483917-0.168705-0.2716103-0.2925873-0.3661213
					c-0.1223335-0.0936279-0.2709465-0.1620827-0.4416389-0.2022724c-0.1689301-0.0401878-0.4696884-0.0600624-0.9190598-0.0600624
					h-0.8554573v4.0909271h0.5323982v-1.8394375h0.1245422l1.4008865,1.8129406l0.0203171,0.0264969h0.6620216l-1.4258423-1.8385544
					C49.2429314,19.7945499,49.5509758,19.6991558,49.7748909,19.5185242z M48.6913223,19.2791538h-0.6152077v-1.2078915h0.6317673
					c0.3148918,0,0.5485191,0.0499058,0.6944809,0.1479511c0.1393394,0.0940704,0.2071304,0.2433453,0.2071304,0.4562149
					c0,0.2128716-0.0686722,0.3630314-0.2099991,0.4588661c-0.1417656,0.0962791-0.3681068,0.1452999-0.6735039,0.1452999
					C48.7145081,19.2795944,48.7030258,19.2795944,48.6913223,19.2791538z"/>
				<rect x="50.8100967" y="17.5496845" class="st0" width="0.5321784" height="4.0909281"/>
				<path class="st0" d="M53.2179298,19.2765045c-0.3115807-0.2305374-0.5131874-0.4001274-0.5995293-0.5039139
					c-0.0803795-0.0967197-0.1194649-0.207571-0.1194649-0.3396225c0-0.1285172,0.0426178-0.2314205,0.1305046-0.3140068
					c0.0887718-0.0843544,0.2013893-0.1249847,0.3444824-0.1249847c0.1441956,0,0.2623329,0.0397472,0.3612633,0.1218929
					c0.1057739,0.0883274,0.2095566,0.2009468,0.3084869,0.3352051l0.0412941,0.0560894l0.4257393-0.330349l-0.0375366-0.0529957
					c-0.1556816-0.2194958-0.3193092-0.3877621-0.486248-0.4994984c-0.1726837-0.1148262-0.3760605-0.1735649-0.6048279-0.1735649
					c-0.2930298,0-0.5396881,0.0967197-0.7333488,0.2866268c-0.1943207,0.1903477-0.2928085,0.4261837-0.2928085,0.7013264
					c0,0.1289597,0.0245132,0.2588024,0.0730934,0.3851109c0.0490227,0.1267529,0.1258659,0.2468777,0.2283287,0.3572884
					c0.0998116,0.1077614,0.2881699,0.2654266,0.5765648,0.4822731c0.2749214,0.2062473,0.4736595,0.3864365,0.5904732,0.5352707
					c0.1110725,0.141325,0.1673813,0.2813263,0.1673813,0.4155846c0,0.1722412-0.0629311,0.3126831-0.1923332,0.4288349
					c-0.1313896,0.117918-0.2857437,0.1748886-0.4723358,0.1748886c-0.2839775,0-0.5401306-0.2062454-0.7611694-0.6138821
					l-0.0335655-0.0618286L51.6803513,20.809l0.0295906,0.0569725c0.3012009,0.5798759,0.7291527,0.8740101,1.2721519,0.8740101
					c0.3098106,0,0.5858383-0.1130619,0.8207893-0.3356495c0.2349548-0.2239113,0.3541985-0.4919872,0.3541985-0.7958374
					c0-0.2336292-0.0775108-0.4584236-0.2307587-0.6677628C53.7774887,19.7375774,53.5390015,19.5136662,53.2179298,19.2765045z"/>
				<polygon class="st0" points="57.263588,18.0765629 57.263588,17.5496845 54.8586273,17.5496845 54.8586273,21.6406116 
					57.2470284,21.6406116 57.2470284,21.1137333 55.3908081,21.1137333 55.3908081,19.696064 57.2470284,19.696064 
					57.2470284,19.1749268 55.3908081,19.1749268 55.3908081,18.0765629 				"/>
			</g>
		</g>
	</g>
	<g>
		<g>
			<g>
				<g>
					<g>
						<path class="st0" d="M4.4300346,9.2937393v12.2259884c0,0.3114433,0.1664495,0.5513916,0.4364491,0.706625
							l5.9697304,3.5025291c0.2686043,0.1544304,0.5990543,0.1837749,0.8676586,0.0293427l5.9685555-3.5212326
							c0.2707272-0.155653,0.4376259-0.4049797,0.4376259-0.7172642V9.2829447l-6.8400097,4.0716314L4.4300346,9.2937393z"/>
						<path class="st0" d="M2.4081645,20.2408695V8.4388742c0-0.1803827,0.0455298-0.4082956,0.3982399-0.5828686
							l8.2151251-4.8894176c0.1540518-0.0877688,0.3429766-0.0877683,0.4970293,0.0000014l8.3685665,4.9799051
							c0.1567287,0.0892954,0.2477989,0.1477757,0.2446918,0.3531418l-0.000021,11.9412327
							c0,0.2476807,0.2734222,0.3643494,0.4900494,0.2442703l1.6821632-0.9990005
							c0.1596069-0.0884724,0.2359734-0.2217808,0.2359734-0.4042683V6.8658338c0-0.215241-0.0719662-0.2889171-0.226656-0.3787632
							l-10.791893-6.4191599c-0.1554966-0.0903152-0.3474245-0.0905626-0.5031538-0.0006485L0.2468872,6.4806433
							C0.0915659,6.5703216,0,6.7232985,0,6.9026499V19.081871c0,0.1760044,0.0741911,0.3073273,0.2249433,0.3981647
							l1.6986635,1.0084782C2.1403697,20.6191254,2.4081645,20.4939423,2.4081645,20.2408695z"/>
					</g>
				</g>
				<polygon class="st0" points="16.1446934,8.1477671 11.2700176,5.2537603 11.2700176,5.2536592 11.2700176,5.2537603 
					11.2700176,5.2536592 11.2700176,5.2537603 6.3952417,8.1477671 11.2700176,11.0417738 11.2700176,11.0417738 
					11.2700176,11.0417738 				"/>
			</g>
		</g>
	</g>
</g>
</svg>
