<?xml version="1.0" encoding="utf-8"?>
<!-- Generator: Adobe Illustrator 23.0.4, SVG Export Plug-In . SVG Version: 6.00 Build 0)  -->
<svg version="1.1" id="Layer_1" xmlns="http://www.w3.org/2000/svg" xmlns:xlink="http://www.w3.org/1999/xlink" x="0px" y="0px"
	 viewBox="0 0 128.1725922 42.8454094" style="enable-background:new 0 0 128.1725922 42.8454094;" xml:space="preserve">
<style type="text/css">
	.st0{fill:#FFFFFF;}
	.st1{fill:#D1D2D9;stroke:#000000;stroke-width:0.5;stroke-miterlimit:10;}
	.st2{fill:none;stroke:#FFFFFF;stroke-miterlimit:10;}
	.st3{fill:#EFEFF2;}
	.st4{fill:#0063FF;}
	.st5{opacity:0.6;clip-path:url(#SVGID_2_);}
	.st6{fill:none;stroke:#000000;stroke-width:13;stroke-miterlimit:10;}
	.st7{fill:#008CD6;}
	.st8{fill:#003659;}
	.st9{fill:#B8F3FF;}
	.st10{fill:none;stroke:#000000;stroke-width:3;stroke-miterlimit:10;}
	.st11{fill:#626372;}
	.st12{fill:#4D4E5A;}
	.st13{fill:#001959;}
	.st14{fill:#004ED6;}
	.st15{fill:#D1D2D9;}
	.st16{enable-background:new    ;}
	.st17{fill:#23232A;}
	.st18{fill:none;stroke:#96A3A2;stroke-width:0.3;stroke-miterlimit:10;}
	.st19{fill:#00EFE8;}
	.st20{clip-path:url(#SVGID_4_);}
	.st21{clip-path:url(#SVGID_6_);}
	.st22{opacity:0.6;clip-path:url(#SVGID_8_);}
	.st23{fill:#090A0A;}
	.st24{fill:#191B1B;}
	.st25{fill:#242021;}
	.st26{fill:#E0E1E2;}
	.st27{fill:#DEE0E1;}
	.st28{fill:none;stroke:#FFFFFF;stroke-width:2;stroke-linecap:round;stroke-miterlimit:10;}
	.st29{fill:#454345;}
	.st30{fill:#444243;}
	.st31{fill:#433F41;}
	.st32{fill:#484546;}
	.st33{fill:#434142;}
	.st34{fill:#413E3F;}
	.st35{fill:#413F40;}
	.st36{fill:#454142;}
	.st37{fill:#4A4748;}
	.st38{fill:#423F41;}
	.st39{fill:#494647;}
	.st40{fill:#3F3A3C;}
	.st41{fill:#464343;}
	.st42{fill:#474445;}
	.st43{fill:#201D1C;}
	.st44{fill:#4B4849;}
	.st45{fill:#443D3F;}
	.st46{fill:#413D3E;}
	.st47{fill:#4E494A;}
	.st48{fill:#423C3E;}
	.st49{fill:#413C3E;}
	.st50{fill:#444142;}
	.st51{fill:#4C4647;}
	.st52{fill:#433D41;}
	.st53{fill:#3E3B3B;}
	.st54{fill:#474242;}
	.st55{fill:#4A4747;}
	.st56{fill:#4C494A;}
	.st57{fill:#504C4C;}
	.st58{fill:#3F3938;}
	.st59{fill:#494547;}
	.st60{fill:#5F5857;}
	.st61{fill:#4D4341;}
	.st62{fill:#4B4748;}
	.st63{fill:#534D4D;}
	.st64{fill:#474343;}
	.st65{fill:#544E4D;}
	.st66{fill:#433F3F;}
	.st67{fill:#3D3A3C;}
	.st68{fill:#413E3E;}
	.st69{fill:#4B4646;}
	.st70{fill:#494443;}
	.st71{fill:#4F4B4C;}
	.st72{fill:#4F4C4C;}
	.st73{fill:#464142;}
	.st74{fill:#524945;}
	.st75{fill:#464040;}
	.st76{fill:#565353;}
	.st77{fill:#3C3230;}
	.st78{fill:#5C5653;}
	.st79{fill:#514E4E;}
	.st80{fill:#4F4A4C;}
	.st81{fill:#444040;}
	.st82{fill:#534F4F;}
	.st83{fill:#433D3D;}
	.st84{fill:#5C5452;}
	.st85{fill:#443A37;}
	.st86{fill:#3E393A;}
	.st87{fill:#413D3C;}
	.st88{fill:#61544D;}
	.st89{fill:#433F3E;}
	.st90{fill:#4C4949;}
	.st91{fill:#474446;}
	.st92{fill:#3A3533;}
	.st93{fill:#423C3D;}
	.st94{fill:#454242;}
	.st95{fill:#453F41;}
	.st96{fill:#464244;}
	.st97{fill:#212029;}
	.st98{fill:#3E3A3B;}
	.st99{fill:#423E3F;}
	.st100{fill:#504C4D;}
	.st101{fill:#413F41;}
	.st102{fill:#464141;}
	.st103{fill:#4E4B4C;}
	.st104{fill:#424041;}
	.st105{fill:#423E40;}
	.st106{fill:#423F3F;}
	.st107{fill:#423D3E;}
	.st108{fill:#474141;}
	.st109{fill:#3F3C3E;}
	.st110{fill:#443D3C;}
	.st111{fill:#4F4C4D;}
	.st112{fill:#393434;}
	.st113{fill:#515050;}
	.st114{fill:#403C3C;}
	.st115{fill:#3F3837;}
	.st116{fill:#393232;}
	.st117{fill:#4A4746;}
	.st118{fill:#474547;}
	.st119{fill:#575454;}
	.st120{fill:#474647;}
	.st121{fill:#3F3D3E;}
	.st122{fill:#4C494B;}
	.st123{fill:#464445;}
	.st124{fill:#3E3C3D;}
	.st125{fill:#4A4849;}
	.st126{fill:#3D3B3C;}
	.st127{fill:#4D4B4C;}
	.st128{fill:#525152;}
	.st129{fill:#3C3B3C;}
	.st130{fill:#4E4D4D;}
	.st131{fill:#403D3F;}
	.st132{fill:#4F4D4E;}
	.st133{fill:#4C4A4B;}
	.st134{fill:#3C3A3B;}
	.st135{fill:#3F3D3F;}
	.st136{fill:#3B393A;}
	.st137{fill:#4F4E4E;}
	.st138{fill:#535051;}
	.st139{fill:#3D3B3D;}
	.st140{fill:#504E4E;}
	.st141{fill:#514E4F;}
	.st142{fill:#545152;}
	.st143{fill:#393839;}
	.st144{fill:#3C393A;}
	.st145{fill:#403E3F;}
	.st146{fill:#383537;}
	.st147{fill:#545153;}
	.st148{fill:#4C4C4D;}
	.st149{fill:#4D4C4D;}
	.st150{fill:#514D4F;}
	.st151{fill:#525052;}
	.st152{fill:#565455;}
	.st153{fill:#3B3839;}
	.st154{fill:#524F50;}
	.st155{fill:#353234;}
	.st156{fill:#373435;}
	.st157{fill:#504B4C;}
	.st158{fill:#524D4E;}
	.st159{fill:#3A363A;}
	.st160{fill:#565152;}
	.st161{fill:#525151;}
	.st162{fill:#393738;}
	.st163{fill:#393737;}
	.st164{fill:#393637;}
	.st165{fill:#494648;}
	.st166{fill:#464345;}
	.st167{fill:#3D393B;}
	.st168{fill:#4D494A;}
	.st169{fill:#4F4C4E;}
	.st170{fill:#4E4B4D;}
	.st171{fill:#4D4A4B;}
	.st172{fill:#3B3739;}
	.st173{fill:#4D4A4C;}
	.st174{fill:#3A3638;}
	.st175{fill:#525051;}
	.st176{fill:#5A5658;}
	.st177{fill:#585455;}
	.st178{fill:#424142;}
	.st179{fill:#4B494A;}
	.st180{fill:#4E4A4B;}
	.st181{fill:#423F40;}
	.st182{fill:#403F40;}
	.st183{fill:#403E40;}
	.st184{fill:#3D3A3B;}
	.st185{fill:#3C3939;}
	.st186{fill:#504D50;}
	.st187{fill:#3C393B;}
	.st188{fill:#3A383B;}
	.st189{fill:#383536;}
	.st190{fill:#545252;}
	.st191{fill:#575355;}
	.st192{fill:#494749;}
	.st193{fill:#4F4D4F;}
	.st194{fill:#52504F;}
	.st195{fill:#393537;}
	.st196{fill:#4A4749;}
	.st197{fill:#4A494B;}
	.st198{fill:#3A383A;}
	.st199{fill:#4D4849;}
	.st200{fill:#504D4E;}
	.st201{fill:#3F3C3C;}
	.st202{fill:#4E4A4C;}
	.st203{fill:#504D4D;}
	.st204{fill:#514F4F;}
	.st205{fill:#3F3C3D;}
	.st206{fill:#545050;}
	.st207{fill:#2D2A2B;}
	.st208{fill:#434041;}
	.st209{fill:#535151;}
	.st210{fill:#595656;}
	.st211{fill:#524E4F;}
	.st212{fill:#3B383A;}
	.st213{fill:#2E2A2B;}
	.st214{fill:#494548;}
	.st215{fill:#5A5757;}
	.st216{fill:#514E4D;}
	.st217{fill:#565252;}
	.st218{fill:#3B3939;}
	.st219{fill:#5C5656;}
	.st220{fill:#585656;}
	.st221{fill:#434042;}
	.st222{fill:#1D1B1C;}
	.st223{fill:#2B2929;}
	.st224{fill:#4C494C;}
	.st225{fill:#555354;}
	.st226{fill:#4D484B;}
	.st227{fill:#5A585A;}
	.st228{fill:#4B484A;}
	.st229{fill:#504E50;}
	.st230{fill:#373236;}
	.st231{fill:#474143;}
	.st232{fill:#2B2D3A;}
	.st233{fill:#524C4E;}
	.st234{fill:#3D383C;}
	.st235{fill:#211E21;}
	.st236{fill:#3E3A3C;}
	.st237{fill:#373234;}
	.st238{fill:#464344;}
	.st239{fill:#575353;}
	.st240{fill:#575352;}
	.st241{fill:#605D5F;}
	.st242{fill:#393638;}
	.st243{fill:#3A3536;}
	.st244{fill:#5F5B5C;}
	.st245{fill:#484647;}
	.st246{fill:#454244;}
	.st247{fill:#514D4D;}
	.st248{fill:#595556;}
	.st249{fill:#555150;}
	.st250{fill:#675D5A;}
	.st251{fill:#474243;}
	.st252{fill:#514D4E;}
	.st253{fill:#5B5757;}
	.st254{fill:#524F4F;}
	.st255{fill:#474344;}
	.st256{fill:#454141;}
	.st257{fill:#494345;}
	.st258{fill:#555151;}
	.st259{fill:#3C3738;}
	.st260{fill:#4C4849;}
	.st261{fill:#4B4647;}
	.st262{fill:#E3E2E3;}
	.st263{fill:#434143;}
	.st264{fill:#292B36;}
	.st265{fill:#3E3B3E;}
	.st266{fill:#413E40;}
	.st267{fill:#373436;}
	.st268{fill:#3C383B;}
	.st269{fill:#535050;}
	.st270{fill:#3B3A3C;}
	.st271{fill:#3A393A;}
	.st272{fill:#514E50;}
	.st273{fill:#504D4F;}
	.st274{fill:#4E4C4E;}
	.st275{fill:#585355;}
	.st276{fill:#3D3A3D;}
	.st277{fill:#3B373A;}
	.st278{fill:#403D3E;}
	.st279{fill:#454040;}
	.st280{fill:#53504F;}
	.st281{fill:#585454;}
	.st282{fill:#2C2829;}
	.st283{fill:#4E4C4D;}
	.st284{fill:#4C4A4C;}
	.st285{fill:#4F4E50;}
	.st286{fill:#424042;}
	.st287{fill:#3E3B3D;}
	.st288{fill:#504E4F;}
	.st289{fill:#514F51;}
	.st290{fill:#383638;}
	.st291{fill:#41414B;}
	.st292{fill:#4E4D4F;}
	.st293{fill:#3A393B;}
	.st294{fill:#464243;}
	.st295{fill:#383436;}
	.st296{fill:#525050;}
	.st297{fill:#575555;}
	.st298{fill:#545151;}
	.st299{fill:#444244;}
	.st300{fill:#494849;}
	.st301{fill:#414041;}
	.st302{fill:#555252;}
	.st303{fill:#4D4B4D;}
	.st304{fill:#3D3C3E;}
	.st305{fill:#555455;}
	.st306{fill:#413D40;}
	.st307{fill:#575557;}
	.st308{fill:#3E3D3E;}
	.st309{fill:#4F4E4F;}
	.st310{fill:#525153;}
	.st311{fill:#575757;}
	.st312{fill:#515051;}
	.st313{fill:#3F3E3F;}
	.st314{fill:#515150;}
	.st315{fill:#5B5A5A;}
	.st316{fill:#373536;}
	.st317{fill:#393939;}
	.st318{fill:#3C3A3A;}
	.st319{fill:#5D5B5E;}
	.st320{fill:#393334;}
	.st321{fill:#444344;}
	.st322{fill:#514F50;}
	.st323{fill:#3A373A;}
	.st324{fill:#504F4F;}
	.st325{fill:#484648;}
	.st326{fill:#565454;}
	.st327{fill:#4E4D4E;}
	.st328{fill:#545353;}
	.st329{fill:#373537;}
	.st330{fill:#363537;}
	.st331{fill:#464446;}
	.st332{fill:#3E3C3E;}
	.st333{fill:#3A3739;}
	.st334{fill:#363336;}
	.st335{fill:#565153;}
	.st336{fill:#353436;}
	.st337{fill:#525150;}
	.st338{fill:#413D3F;}
	.st339{fill:#3F3B3D;}
	.st340{fill:#5C5759;}
	.st341{fill:#575455;}
	.st342{fill:#4F4D50;}
	.st343{fill:#5A5657;}
	.st344{fill:#444143;}
	.st345{fill:#403C3D;}
	.st346{fill:#2C292A;}
	.st347{fill:#332E30;}
	.st348{fill:#585556;}
	.st349{fill:#524E50;}
	.st350{fill:#3E3D3D;}
	.st351{fill:#393739;}
	.st352{fill:#39383A;}
	.st353{fill:#656265;}
	.st354{fill:#454344;}
	.st355{fill:#504C4E;}
	.st356{fill:#545254;}
	.st357{fill:#5B5959;}
	.st358{fill:#464546;}
	.st359{fill:#474546;}
	.st360{fill:#2B2A2A;}
	.st361{fill:#2E2C2C;}
	.st362{fill:#5A5858;}
	.st363{fill:#353335;}
	.st364{fill:#484547;}
	.st365{fill:#424141;}
	.st366{fill:#575656;}
	.st367{fill:#403F3F;}
	.st368{fill:#595555;}
	.st369{fill:#605E5E;}
	.st370{fill:#626162;}
	.st371{fill:#636060;}
	.st372{fill:#555353;}
	.st373{fill:#555355;}
	.st374{fill:#5F5C5D;}
	.st375{fill:#5B5556;}
	.st376{fill:#595657;}
	.st377{fill:#5D5B5B;}
	.st378{fill:#403B3C;}
	.st379{fill:#565354;}
	.st380{fill:#3C393C;}
	.st381{fill:#3F3C3F;}
	.st382{fill:#504C4F;}
	.st383{fill:#3E3A3D;}
	.st384{fill:#3A3738;}
	.st385{fill:#524F51;}
	.st386{fill:#5A595A;}
	.st387{fill:#535053;}
	.st388{fill:#555253;}
	.st389{fill:#605E60;}
	.st390{fill:#2B292A;}
	.st391{fill:#403D40;}
	.st392{fill:#504F50;}
	.st393{fill:#474548;}
	.st394{fill:#545354;}
	.st395{fill:#2A2F40;}
	.st396{fill:#595658;}
	.st397{fill:#5B5758;}
	.st398{fill:#545253;}
	.st399{fill:#2B3144;}
	.st400{fill:#37353D;}
	.st401{fill:#2E3447;}
	.st402{fill:#353A4E;}
	.st403{fill:#2F303B;}
	.st404{fill:#393536;}
	.st405{fill:#211F20;}
	.st406{fill:#484748;}
	.st407{fill:#4C4848;}
	.st408{fill:#433E3E;}
	.st409{fill:#2B2B37;}
	.st410{fill:#CCCBCC;}
	.st411{fill:#4A4646;}
	.st412{fill:#48423F;}
	.st413{fill:#3F3B3B;}
	.st414{fill:#3C3735;}
	.st415{fill:#403D3D;}
	.st416{fill:#3D393A;}
	.st417{fill:#393535;}
	.st418{fill:#393332;}
	.st419{fill:#3E3938;}
	.st420{fill:#383637;}
	.st421{fill:#5B5250;}
	.st422{fill:#383434;}
	.st423{fill:#E4E3E4;}
	.st424{fill:#CAC9CB;}
	.st425{fill:#363335;}
	.st426{fill:#524E4E;}
	.st427{fill:#595758;}
	.st428{fill:#4F4B4D;}
	.st429{fill:#5D595A;}
	.st430{fill:#5B595A;}
	.st431{fill:#5A5758;}
	.st432{fill:#3C3A3C;}
	.st433{fill:#514F4E;}
	.st434{fill:#565355;}
	.st435{fill:#383435;}
	.st436{fill:#4E4B4B;}
	.st437{fill:#484545;}
	.st438{fill:#555352;}
	.st439{fill:#555454;}
	.st440{fill:#383738;}
	.st441{fill:#484446;}
	.st442{fill:#4E4E4F;}
	.st443{fill:#454243;}
	.st444{fill:#565456;}
	.st445{fill:#3E3B3C;}
	.st446{fill:#5A5959;}
	.st447{fill:#5D5A5A;}
	.st448{fill:#403C3E;}
	.st449{fill:#444042;}
	.st450{fill:#444242;}
	.st451{fill:#545051;}
	.st452{fill:#413F3F;}
	.st453{fill:#3F3D3D;}
	.st454{fill:#574E4F;}
	.st455{fill:#444141;}
	.st456{fill:#343133;}
	.st457{fill:#555051;}
	.st458{fill:#383739;}
	.st459{fill:#3F3838;}
	.st460{fill:#575357;}
	.st461{fill:#5D5D5B;}
	.st462{fill:#3F3B3E;}
	.st463{fill:#423D3D;}
	.st464{fill:#3E3D3F;}
	.st465{fill:#4C4B4D;}
	.st466{fill:#3D3C3D;}
	.st467{fill:#3E3E3F;}
	.st468{fill:#433F42;}
	.st469{fill:#3D3B3E;}
	.st470{fill:#3B393B;}
	.st471{fill:#505050;}
	.st472{fill:#383538;}
	.st473{fill:#4F4B4B;}
	.st474{fill:#3E3A3A;}
	.st475{fill:#575253;}
	.st476{fill:#3A3737;}
	.st477{fill:#272424;}
	.st478{fill:#363333;}
	.st479{fill:#585256;}
	.st480{fill:#555456;}
	.st481{fill:#5D5B5C;}
	.st482{fill:#3E393B;}
	.st483{fill:#363334;}
	.st484{fill:#4C4A4D;}
	.st485{fill:#4B4A4B;}
	.st486{fill:#595757;}
	.st487{fill:#535252;}
	.st488{fill:#4D4C4E;}
	.st489{fill:#575657;}
	.st490{fill:#535353;}
	.st491{fill:#565554;}
	.st492{fill:#3A3839;}
	.st493{fill:#4A484A;}
	.st494{fill:#373538;}
	.st495{fill:#3F3B3A;}
	.st496{fill:#424040;}
	.st497{fill:#322F2F;}
	.st498{fill:#434244;}
	.st499{fill:#434043;}
	.st500{fill:#585655;}
	.st501{fill:#414042;}
	.st502{fill:#3E3C3C;}
	.st503{fill:#3C3C3D;}
	.st504{fill:#373638;}
	.st505{fill:#595453;}
	.st506{fill:#443D3B;}
	.st507{fill:#5B5858;}
	.st508{fill:#525252;}
	.st509{fill:#5C5A5B;}
	.st510{fill:#535253;}
	.st511{fill:#616060;}
	.st512{fill:#565556;}
	.st513{fill:#5C5858;}
	.st514{fill:#4B4749;}
	.st515{fill:#4D4C4F;}
	.st516{fill:#595858;}
	.st517{fill:#2B2829;}
	.st518{fill:#2D292A;}
	.st519{fill:#4C4A4A;}
	.st520{fill:#545554;}
	.st521{fill:#373535;}
	.st522{fill:#515151;}
	.st523{fill:#504E51;}
	.st524{fill:#555453;}
	.st525{fill:#535052;}
	.st526{fill:#575354;}
	.st527{fill:#595A5B;}
	.st528{fill:#575252;}
	.st529{fill:#3B3738;}
	.st530{fill:#585758;}
	.st531{fill:#585658;}
	.st532{fill:#252323;}
	.st533{fill:#595558;}
	.st534{fill:#504E4D;}
	.st535{fill:#3B383B;}
	.st536{fill:#565555;}
	.st537{fill:#545454;}
	.st538{fill:#3D383A;}
	.st539{fill:#5E5B5B;}
	.st540{fill:#626163;}
	.st541{fill:#403E3E;}
	.st542{fill:#5E5E5E;}
	.st543{fill:#403E41;}
	.st544{fill:#403F41;}
	.st545{fill:#2E2B2D;}
	.st546{fill:#312F30;}
	.st547{fill:#353236;}
	.st548{fill:#3C3945;}
	.st549{fill:#48434F;}
	.st550{fill:#49454F;}
	.st551{fill:#32394D;}
	.st552{fill:#4C4A4E;}
	.st553{fill:#545052;}
	.st554{fill:#59575A;}
	.st555{fill:#5E5A5A;}
	.st556{fill:#585657;}
	.st557{fill:#575556;}
	.st558{fill:#5A5A5A;}
	.st559{fill:#4C4B4C;}
	.st560{fill:#4B494B;}
	.st561{fill:#2C2A2A;}
	.st562{fill:#363435;}
	.st563{fill:#373637;}
	.st564{fill:#3B3A3A;}
	.st565{fill:#444446;}
	.st566{fill:#2F2C2D;}
	.st567{fill:#252222;}
	.st568{fill:#343131;}
	.st569{fill:#555152;}
	.st570{fill:#5B5658;}
	.st571{fill:#5C595B;}
	.st572{fill:#5E5B5D;}
	.st573{fill:#5A575A;}
	.st574{fill:#585859;}
	.st575{fill:#3F3A3F;}
	.st576{fill:#4A4647;}
	.st577{fill:#534F50;}
	.st578{fill:#3A3635;}
	.st579{fill:#524D4D;}
	.st580{fill:#595958;}
	.st581{fill:#3D3C3C;}
	.st582{fill:#3D3B3B;}
	.st583{fill:#383535;}
	.st584{fill:#535153;}
	.st585{fill:#5B595B;}
	.st586{fill:#535152;}
	.st587{fill:#5C5B5B;}
	.st588{fill:#434242;}
	.st589{fill:#565254;}
	.st590{fill:#434343;}
	.st591{fill:#584F4A;}
	.st592{fill:#5B5859;}
	.st593{fill:#272833;}
	.st594{fill:#434551;}
	.st595{fill:#2F313E;}
	.st596{fill:#30333E;}
	.st597{fill:#3B3C4B;}
	.st598{fill:#504C4B;}
	.st599{fill:#434243;}
	.st600{fill:#4E4C4F;}
	.st601{fill:#4C484A;}
	.st602{fill:#5B585A;}
	.st603{fill:#575554;}
	.st604{fill:#565253;}
	.st605{fill:#3C3B3B;}
	.st606{fill:#433D40;}
	.st607{fill:#585555;}
	.st608{fill:#5E5C5D;}
	.st609{fill:#585354;}
	.st610{fill:#545453;}
	.st611{fill:#5D5A5B;}
	.st612{fill:#555254;}
	.st613{fill:#504F4E;}
	.st614{fill:#363436;}
	.st615{fill:#5A595B;}
	.st616{fill:#595959;}
	.st617{fill:#3C3B3A;}
	.st618{fill:#4C4B4B;}
	.st619{fill:#595557;}
	.st620{fill:#4A474A;}
	.st621{fill:#3B3A3B;}
	.st622{fill:#383437;}
	.st623{fill:#585659;}
	.st624{fill:#535254;}
	.st625{fill:#58575A;}
	.st626{fill:#433F40;}
	.st627{fill:#534E4F;}
	.st628{fill:#3B3737;}
	.st629{fill:#5D5859;}
	.st630{fill:#605C5C;}
	.st631{fill:#2E2C2D;}
	.st632{fill:#322F30;}
	.st633{fill:#535355;}
	.st634{fill:#545455;}
	.st635{fill:#4D4D4E;}
	.st636{fill:#373739;}
	.st637{fill:#3D3D3F;}
	.st638{fill:#555556;}
	.st639{fill:#363434;}
	.st640{fill:#383939;}
	.st641{fill:#3F3E40;}
	.st642{fill:#585858;}
	.st643{fill:#5A5A5B;}
	.st644{fill:#353334;}
	.st645{fill:#444445;}
	.st646{fill:#3D3D3E;}
	.st647{fill:#565757;}
	.st648{fill:#585759;}
	.st649{fill:#5A5859;}
	.st650{fill:#575758;}
	.st651{fill:#555655;}
	.st652{fill:#5D5B5D;}
	.st653{fill:#484646;}
	.st654{fill:#585757;}
	.st655{fill:#615D5E;}
	.st656{fill:#494748;}
	.st657{fill:#4F5050;}
	.st658{fill:#534E50;}
	.st659{fill:#515152;}
	.st660{fill:#575558;}
	.st661{fill:#615E5F;}
	.st662{fill:#383737;}
	.st663{fill:#3A3639;}
	.st664{fill:#2E2A2C;}
	.st665{fill:#575153;}
	.st666{fill:#4E4E4E;}
	.st667{fill:#333132;}
	.st668{fill:#5C5B5D;}
	.st669{fill:#423E41;}
	.st670{fill:#565356;}
	.st671{fill:#5B585B;}
	.st672{fill:#5C595C;}
	.st673{fill:#373437;}
	.st674{fill:#555555;}
	.st675{fill:#4D4A55;}
	.st676{fill:#47464A;}
	.st677{fill:#575456;}
	.st678{fill:#454546;}
	.st679{fill:#5D5C5D;}
	.st680{fill:#666466;}
	.st681{fill:#5E5E5F;}
	.st682{fill:#5B5C5C;}
	.st683{fill:#424144;}
	.st684{fill:#5C5B5C;}
	.st685{fill:#545456;}
	.st686{fill:#5E5C5E;}
	.st687{fill:#5A585B;}
	.st688{fill:#515052;}
	.st689{fill:#454346;}
	.st690{fill:#5A5759;}
	.st691{fill:#595A5A;}
	.st692{fill:#433E40;}
	.st693{fill:#505051;}
	.st694{fill:#3C3A3D;}
	.st695{fill:#595859;}
	.st696{fill:#383639;}
	.st697{fill:#4E4949;}
	.st698{fill:#484344;}
	.st699{fill:#484342;}
	.st700{fill:#383336;}
	.st701{fill:#363234;}
	.st702{fill:#545251;}
	.st703{fill:#534E4E;}
	.st704{fill:#4F4949;}
	.st705{fill:#403B39;}
	.st706{fill:#413937;}
	.st707{fill:#3D3939;}
	.st708{fill:#494546;}
	.st709{fill:#413E3D;}
	.st710{fill:#504B4B;}
	.st711{fill:#565656;}
	.st712{fill:#565657;}
	.st713{fill:#5A5354;}
	.st714{fill:#463D3A;}
	.st715{fill:#5F5A5A;}
	.st716{fill:#5E5E5D;}
	.st717{fill:#3B3638;}
	.st718{fill:#3C3B3D;}
	.st719{fill:#4F4D4D;}
	.st720{fill:#4B4649;}
	.st721{fill:#5E5B5C;}
	.st722{fill:#5D585A;}
	.st723{fill:#3E3E3E;}
	.st724{fill:#3A3939;}
	.st725{fill:#3F3F40;}
	.st726{fill:#5D5A5C;}
	.st727{fill:#605E5F;}
	.st728{fill:#5C595A;}
	.st729{fill:#5C5A5A;}
	.st730{fill:#5B5B5B;}
	.st731{fill:#585756;}
	.st732{fill:#575658;}
	.st733{fill:#413E41;}
	.st734{fill:#514E52;}
	.st735{fill:#38373A;}
	.st736{fill:#424143;}
	.st737{fill:#646265;}
	.st738{fill:#39373A;}
	.st739{fill:#5A5555;}
	.st740{fill:#444343;}
	.st741{fill:#5C5C5E;}
	.st742{fill:#3A3A3A;}
	.st743{fill:#5B5A5C;}
	.st744{fill:#2D2B2C;}
	.st745{fill:#555154;}
	.st746{fill:#565557;}
	.st747{fill:#545154;}
	.st748{fill:#545556;}
	.st749{fill:#615D5F;}
	.st750{fill:#5B5A5B;}
	.st751{fill:#555255;}
	.st752{fill:#444345;}
	.st753{fill:#606060;}
	.st754{fill:#575457;}
	.st755{fill:#575756;}
	.st756{fill:#2C2A2B;}
	.st757{fill:#292727;}
	.st758{fill:#504F51;}
	.st759{fill:#545553;}
	.st760{fill:#5F5F5E;}
	.st761{fill:#585557;}
	.st762{fill:#393538;}
	.st763{fill:#5E595C;}
	.st764{fill:#39383B;}
	.st765{fill:#616260;}
	.st766{fill:#545457;}
	.st767{fill:#474648;}
	.st768{fill:#5D5659;}
	.st769{fill:#464547;}
	.st770{fill:#5F5E60;}
	.st771{fill:#403C3F;}
	.st772{fill:#5C5A5C;}
	.st773{fill:#5A5958;}
	.st774{fill:#696667;}
	.st775{fill:#4B4B4C;}
	.st776{fill:#4A4649;}
	.st777{fill:#5F5D5D;}
	.st778{fill:#5B5759;}
	.st779{fill:#4D4B4B;}
	.st780{fill:#4F4D4C;}
	.st781{fill:#605A5B;}
	.st782{fill:#464342;}
	.st783{fill:#5C5958;}
	.st784{fill:#565452;}
	.st785{fill:#3C3839;}
	.st786{fill:#3C383A;}
	.st787{fill:#575453;}
	.st788{fill:#544F4F;}
	.st789{fill:#605B5B;}
	.st790{fill:#5C5C5D;}
	.st791{fill:#373738;}
	.st792{fill:#535354;}
	.st793{fill:#605D5E;}
	.st794{fill:#3D3A3A;}
	.st795{fill:#5D5D5E;}
	.st796{fill:#3A3537;}
	.st797{fill:#363536;}
	.st798{fill:#5A5556;}
	.st799{fill:#414142;}
	.st800{fill:#474345;}
	.st801{fill:#5F5D5F;}
	.st802{fill:#535251;}
	.st803{fill:#454446;}
	.st804{fill:#626363;}
	.st805{fill:#59585A;}
	.st806{fill:#5E5A5D;}
	.st807{fill:#39393A;}
	.st808{fill:#393639;}
	.st809{fill:#363235;}
	.st810{fill:#3A3838;}
	.st811{fill:#4A4A4B;}
	.st812{fill:#484749;}
	.st813{fill:#454445;}
	.st814{fill:#3F3E3E;}
	.st815{fill:#595659;}
	.st816{fill:#535454;}
	.st817{fill:#5E5D5E;}
	.st818{fill:#5E5A5C;}
	.st819{fill:#59595C;}
	.st820{fill:#585554;}
	.st821{fill:#5E5D60;}
	.st822{fill:#353435;}
	.st823{fill:#525253;}
	.st824{fill:#535054;}
	.st825{fill:#5B5B5A;}
	.st826{fill:#525254;}
	.st827{fill:#525259;}
	.st828{fill:#5E5C5F;}
	.st829{fill:#37363A;}
	.st830{fill:#3B393D;}
	.st831{fill:#525251;}
	.st832{fill:#3C3B3E;}
	.st833{fill:#595A59;}
	.st834{fill:#353133;}
	.st835{fill:#5B5657;}
	.st836{fill:#615D5D;}
	.st837{fill:#595456;}
	.st838{fill:#5E5B5A;}
	.st839{fill:#413B3D;}
	.st840{fill:#444041;}
	.st841{fill:#5F5E5E;}
	.st842{fill:#504D4C;}
	.st843{fill:#535352;}
	.st844{fill:#5E5D5D;}
	.st845{fill:#393838;}
	.st846{fill:#635D5E;}
	.st847{fill:#424043;}
	.st848{fill:#5D5C5C;}
	.st849{fill:#59585B;}
	.st850{fill:#434144;}
	.st851{fill:#4A484B;}
	.st852{fill:#575559;}
	.st853{fill:#444144;}
	.st854{fill:#565458;}
	.st855{fill:#434344;}
	.st856{fill:#3B3A3D;}
	.st857{fill:#5C585B;}
	.st858{fill:#413F42;}
	.st859{fill:#373639;}
	.st860{fill:#585456;}
	.st861{fill:#615E5E;}
	.st862{fill:#58585A;}
	.st863{fill:#616161;}
	.st864{fill:#5A5C5D;}
	.st865{fill:#575759;}
	.st866{fill:#3B3B3B;}
	.st867{fill:#5C585A;}
	.st868{fill:#414040;}
	.st869{fill:#3E3E40;}
	.st870{fill:#3F3D40;}
	.st871{fill:#626264;}
	.st872{fill:#555357;}
	.st873{fill:#6D6A6C;}
	.st874{fill:#535154;}
	.st875{fill:#59595A;}
	.st876{fill:#565756;}
	.st877{fill:#524F52;}
	.st878{fill:#565655;}
	.st879{fill:#3A3B3B;}
	.st880{fill:#5E5D5F;}
	.st881{fill:#514F52;}
	.st882{fill:#525355;}
	.st883{fill:#4F4F51;}
	.st884{fill:#56565C;}
	.st885{fill:#535258;}
	.st886{fill:#515155;}
	.st887{fill:#5C5757;}
	.st888{fill:#404040;}
	.st889{fill:#4B4848;}
	.st890{fill:#504B4D;}
	.st891{fill:#565453;}
	.st892{fill:#595756;}
	.st893{fill:#525453;}
	.st894{fill:#5C5B5E;}
	.st895{fill:#615F60;}
	.st896{fill:#605D5D;}
	.st897{fill:#565658;}
	.st898{fill:#595759;}
	.st899{fill:#363637;}
	.st900{fill:#535255;}
	.st901{fill:#605F61;}
	.st902{fill:#454143;}
	.st903{fill:#444043;}
	.st904{fill:#464447;}
	.st905{fill:#5A5B5A;}
	.st906{fill:#565255;}
	.st907{fill:#3D383B;}
	.st908{fill:#3E393C;}
	.st909{fill:#5B5B5D;}
	.st910{fill:#645F60;}
	.st911{fill:#353535;}
	.st912{fill:#5C5758;}
	.st913{fill:#5C5859;}
	.st914{fill:#343334;}
	.st915{fill:#4F4E4D;}
	.st916{fill:#403B3D;}
	.st917{fill:#3E3C3F;}
	.st918{fill:#5C5A5F;}
	.st919{fill:#3B393C;}
	.st920{fill:#555457;}
	.st921{fill:#585558;}
	.st922{fill:#3F3F41;}
	.st923{fill:#545352;}
	.st924{fill:#555557;}
	.st925{fill:#565457;}
	.st926{fill:#605F60;}
	.st927{fill:#4C494D;}
	.st928{fill:#383736;}
	.st929{fill:#625D60;}
	.st930{fill:#5F5A5C;}
	.st931{fill:#3A373B;}
	.st932{fill:#5C5C5C;}
	.st933{fill:#4E4E50;}
	.st934{fill:#3A3637;}
	.st935{fill:#595857;}
	.st936{fill:#605E5D;}
	.st937{fill:#555657;}
	.st938{fill:#626061;}
	.st939{fill:#5B595C;}
	.st940{fill:#3D393C;}
	.st941{fill:#3B3C3C;}
	.st942{fill:#636061;}
	.st943{fill:#50504F;}
	.st944{fill:#5C5A59;}
	.st945{fill:#555654;}
	.st946{fill:#454245;}
	.st947{fill:#5C5E5F;}
	.st948{fill:#313131;}
	.st949{fill:#1BE0E6;}
	.st950{fill:none;stroke:#000000;stroke-miterlimit:10;}
	.st951{fill:#FFFFFF;stroke:#000000;stroke-miterlimit:10;}
	.st952{fill:#663399;}
	.st953{fill:#262B3E;}
</style>
<g>
	<g>
		<g>
			<g>
				<g>
					<g>
						<polygon class="st11" points="81.639122,22.7103863 95.1505661,22.7103863 95.1505661,19.2579746 85.1184998,19.2579746 
							85.1184998,12.203311 95.1505661,12.203311 95.1505661,8.7808695 85.1184998,8.7808695 85.1184998,3.4524102 
							95.2389755,3.4524102 95.2389755,0 81.639122,0 						"/>
						<path class="st11" d="M108.9403534,10.2204847c1.3067703-1.0807419,1.9668961-2.5207324,1.9668961-4.2930293
							c0-1.8860588-0.6646118-3.3649683-1.9743805-4.3918228c-1.2753296-1.0029043-3.1359406-1.5118408-5.5324326-1.5118408
							h-4.8902817v22.686594h6.5548019c2.2303391,0,4.0699921-0.6466484,5.4695663-1.9189911
							c1.4115524-1.2843151,2.1270599-2.9248867,2.1270599-4.8738155c0-1.4040651-0.3861923-2.6344948-1.1466064-3.6613483
							C110.898262,11.4209766,110.0345688,10.7384024,108.9403534,10.2204847z M107.3716354,5.9274554
							c0,1.0478106-0.363739,1.7872653-1.1076889,2.2572837c-0.8068085,0.5059423-2.0701675,0.7604103-3.7556458,0.7604103
							h-0.5523529V3.4426479h1.8007431C106.9959183,3.4426479,107.3716354,4.8616829,107.3716354,5.9274554z
							 M109.0960312,16.0642738c0,0.5388737-0.1841125,1.0837345-0.5463562,1.616621
							c-0.3712234,0.5478554-0.8502274,0.9400368-1.4654388,1.2034855c-0.6346741,0.2694378-1.694458,0.4071503-3.1494217,0.4071503
							h-1.9788666v-6.86765h0.5224152c1.7977371,0,3.0431366,0.0868187,3.7017593,0.2634497
							c0.6436539,0.1736374,1.1885223,0.4310989,1.6211166,0.7663984c0.4296036,0.3352995,0.7574158,0.7184982,0.9714661,1.1406164
							C108.986763,15.0134697,109.0960312,15.5074368,109.0960312,16.0642738z"/>
						<path class="st11" d="M126.9562225,12.9879684c-0.7818527-1.0948801-2.0239563-2.269803-3.6891403-3.4933243
							c-1.6008682-1.1749229-2.6328583-2.0268135-3.0645218-2.5299435c-0.387352-0.451674-0.5760269-0.9662385-0.5760269-1.5751405
							c0-0.5860324,0.1915283-1.0519991,0.5874634-1.4236295c0.4016418-0.3802063,0.887619-0.5631626,1.4865189-0.5631626
							c0.6246262,0,1.1534805,0.1486521,1.6165924,0.4516735c0.4845428,0.3201737,1.0977402,0.9776731,1.8209839,1.9553466
							l0.2687225,0.3601952l2.6442871-2.0668354l-0.2415619-0.3430433c-0.857605-1.2063687-1.7538071-2.1383028-2.66716-2.7643566
							c-0.943367-0.6432061-2.0582581-0.9719559-3.3146515-0.9719559c-1.6280289,0-2.9787598,0.5259997-4.0150375,1.5637054
							c-1.0362778,1.0348473-1.5622787,2.3184006-1.5622787,3.8163564c0,0.6946626,0.1329346,1.3979011,0.3973618,2.089705
							c0.2658615,0.6946621,0.694664,1.3550205,1.2706909,1.9610634c0.558876,0.588891,1.5465546,1.4179125,3.0202103,2.5356617
							c1.3993301,1.0548582,2.3955841,1.9553471,2.9573135,2.6728792c0.5231476,0.6632166,0.7875748,1.3693132,0.7875748,2.0982809
							c0,0.7089558-0.2958755,1.3178577-0.9047775,1.8581505c-0.6217651,0.5574455-1.3521652,0.8261623-2.2340698,0.8261623
							c-1.3521652,0-2.6171341-1.0777264-3.7577515-3.2045956l-0.2144012-0.3973579l-2.8258209,1.6265965l0.1886749,0.3716297
							c1.6451797,3.2303238,3.9635773,4.8683567,6.8923111,4.8683567c1.6809082,0,3.1731491-0.608902,4.4352646-1.8124123
							c1.2678299-1.2063694,1.9095993-2.6557274,1.9095993-4.3051929
							C128.1725922,15.3292389,127.7638016,14.1171522,126.9562225,12.9879684z"/>
						<path class="st11" d="M75.4487991,6.6699233c-0.9900284-0.6290946-2.1076126-0.9479904-3.3208694-0.9479904
							c-1.9075775,0-3.6136703,0.7044702-5.0834885,2.0902176V5.7219329l-3.2788277-0.0042157v16.9926682h3.2788277V16.448431
							c0-2.0264387,0.0869751-3.3831959,0.2594681-4.0325842c0.1666946-0.6290941,0.4739914-1.2349968,0.9132004-1.7974129
							c0.439209-0.5595169,0.9711838-1.0030727,1.5799866-1.3161697c1.2320938-0.6348934,2.6149445-0.5595179,3.4643631-0.1913376
							c0.4203644,0.1826401,0.7552032,0.4493532,1.026268,0.8204317c0.2812119,0.3826752,0.5000839,0.8639183,0.6493912,1.4321327
							c0.1521988,0.5856085,0.2304688,1.7365322,0.2304688,3.4150848v7.9318104h3.2512894V14.201664
							c0-2.2148771-0.2391663-3.8209524-0.7305603-4.9167948C77.1940308,8.1832294,76.4402771,7.3019171,75.4487991,6.6699233z"/>
						<path class="st11" d="M17.2151089,1.4922382C15.454154,0.5031301,13.5002375,0,11.4062443,0
							C9.4065876,0,7.5127029,0.5088475,5.7789054,1.5093904C4.0422487,2.5099332,2.6543529,3.9078343,1.6552396,5.6602135
							s-1.5051023,3.6791391-1.5051023,5.7259636c0,2.0496836,0.5059888,3.9650087,1.5065316,5.7002354
							c0.9991136,1.7323685,2.4013026,3.1159763,4.1679754,4.1108017c1.7623844,0.9862499,3.6920028,1.4893799,5.7373986,1.4893799
							c2.0439653,0,3.9664373-0.5059891,5.7130995-1.5065327c1.743803-1.0005417,3.1359863-2.3927269,4.1379585-4.1393871
							c0.9991131-1.743804,1.5051022-3.6648464,1.5051022-5.7116709c0-2.0439663-0.5117054-3.9678669-1.5208244-5.7145286
							C20.3854008,3.8678126,18.9789238,2.4813461,17.2151089,1.4922382z M19.5135002,11.4004707
							c0,2.289814-0.7818527,4.2194319-2.3241196,5.734539c-1.5479822,1.5179672-3.464736,2.2869549-5.6988049,2.2869549
							c-2.1583138,0-4.0407639-0.7861404-5.5944638-2.3412685c-1.5537004-1.5522718-2.3426998-3.4790316-2.3426998-5.7231054
							c0-2.2469339,0.7661297-4.1765518,2.2769496-5.7402573C7.3554749,4.033617,9.2079086,3.267487,11.4905758,3.267487
							c2.1969061,0,4.1036549,0.7861409,5.6673603,2.34127S19.5135002,9.1106567,19.5135002,11.4004707z"/>
						<path class="st11" d="M34.0246544,5.7219329c-1.9806595,0-3.7121563,0.6925983-5.1606998,2.0552711V5.7219329h-3.1561089
							V27.617609h3.1561089v-7.0217075c1.5639763,1.4133511,3.3433361,2.1284733,5.3014736,2.1284733
							c2.2748756,0,4.2428665-0.8446312,5.8476677-2.5085564c1.6005783-1.6611099,2.4128342-3.6825962,2.4128342-6.0053339
							c0-2.3283691-0.8221092-4.344224-2.4438019-5.994072C38.3576164,6.5637493,36.3544312,5.7219329,34.0246544,5.7219329z
							 M30.239296,10.3871174c1.014967-1.0501595,2.2340508-1.5597544,3.7304573-1.5597544s2.7253456,0.5180416,3.757206,1.5879087
							c1.0374908,1.0726824,1.5428619,2.3311844,1.5428619,3.8515215c0,1.5175219-0.5138168,2.7732077-1.5681992,3.845891
							c-1.0515671,1.0726833-2.2537613,1.590723-3.6769676,1.590723c-1.4781036,0-2.7042294-0.509594-3.7473488-1.5625687
							c-1.044529-1.0529747-1.5527153-2.3199224-1.5527153-3.8740454
							C28.7245903,12.7070398,29.220108,11.4372759,30.239296,10.3871174z"/>
						<path class="st11" d="M61.2868042,14.5558434c-0.057682-2.7125406-0.8807411-4.8847227-2.4452171-6.4576731
							c-1.5687065-1.5785699-3.5426064-2.3805575-5.8682289-2.3805575c-2.3298378,0-4.3107758,0.8471804-5.8893318,2.51296
							c-1.5715141,1.6572294-2.3678207,3.6747789-2.3678207,5.9989061c0,2.3187542,0.7920914,4.3333721,2.3551636,5.9849834
							c1.5687103,1.654541,3.5834045,2.4958591,5.9864044,2.4958591c1.7375374,0,3.2556-0.4135742,4.5105553-1.2294865
							c1.2493324-0.8105373,2.3425102-2.0710487,3.2471581-3.748064c-1.2208138,0-2.4416275,0-3.6624451,0
							c-0.3073235,0.3779087-0.8816223,0.979826-1.783432,1.4214935c-0.2234879,0.1094398-1.1737137,0.5369377-2.479248,0.5369377
							c-1.3295364,0-2.4424057-0.4558353-3.4005089-1.398531c-0.8680649-0.8525543-1.368927-1.9330273-1.5236816-3.2949162
							h13.3304787L61.2868042,14.5558434z M48.3826141,12.0910234c0.8483658-2.1975946,2.3551674-3.2696609,4.5907478-3.2696609
							c1.1860275,0,2.2468376,0.3376589,3.1542931,1.0045338c0.7723961,0.5655785,1.2971725,1.3112411,1.5968437,2.2651272
							H48.3826141z"/>
					</g>
				</g>
			</g>
		</g>
		<g>
			<g>
				<g id="Artboard_132_">
					<g class="st16">
						<path class="st11" d="M75.1609497,32.7561035h1.9607773c1.1603928,0,1.9191742,0.0458984,2.2753754,0.1367416
							c0.3566742,0.0917969,0.6832352,0.2514915,0.9801483,0.4800339s0.5278397,0.5135002,0.6923141,0.8567924
							c0.1644745,0.3423347,0.2467117,0.7238731,0.2467117,1.144619c0,0.6760635-0.1826401,1.2287712-0.5484009,1.658123
							c-0.3652878,0.4303093-0.8247604,0.7018814-1.3774719,0.8156738
							c-0.5531845,0.1147499-1.4008942,0.1721268-2.5431213,0.1721268h-0.6990128v4.5784836h-0.9873199V32.7561035z
							 M76.1482697,33.7152138v3.3583183h1.6585999c0.9959259,0.0191269,1.6585999-0.1434364,1.9880295-0.4857712
							c0.328949-0.3432884,0.4934158-0.7477798,0.4934158-1.2134705c0-1.106369-0.7998962-1.6590767-2.3992081-1.6590767H76.1482697
							z"/>
						<path class="st11" d="M82.9887466,32.5093918h0.9323349v10.0893059h-0.9323349V32.5093918z"/>
						<path class="st11" d="M93.1196442,35.3188286v7.2798691h-0.9184647v-1.2478943
							c-0.8319321,0.9964027-1.7824402,1.494606-2.8515167,1.494606c-1.0695572,0-1.9722443-0.3815422-2.7075958-1.1446228
							c-0.7358322-0.7630806-1.1035004-1.6724663-1.1035004-2.728157s0.3700638-1.9602966,1.1101913-2.7147713
							c0.7406082-0.7535172,1.6265717-1.1302757,2.65979-1.1302757c1.1876526,0,2.1520233,0.5068054,2.8926315,1.5213776v-1.3301315
							H93.1196442z M92.2556839,38.9927101c0-0.8309746-0.2787476-1.532856-0.836235-2.1037331
							c-0.5574875-0.5708733-1.2407227-0.8567924-2.0492249-0.8567924c-0.8089828,0-1.492218,0.2945251-2.0497055,0.8845253
							c-0.5574875,0.5890427-0.836235,1.2861443-0.836235,2.0903435s0.2835312,1.5013008,0.8500977,2.0903435
							c0.5665741,0.5890465,1.2450333,0.8845253,2.0358429,0.8845253c0.7903366,0,1.4687881-0.2830467,2.0358353-0.8500977
							C91.9726334,40.5647697,92.2556839,39.8523712,92.2556839,38.9927101z"/>
						<path class="st11" d="M96.9991226,41.4473839c0,0.2467079,0.0320282,0.393013,0.0956192,0.4379578
							c0.0640717,0.0458984,0.2285461,0.0688477,0.4939041,0.0688477h0.5617905v0.7955933
							c-0.383934,0.0640678-0.6851501,0.0956268-0.9046097,0.0956268c-0.4111786,0-0.7128754-0.1004066-0.9046021-0.3021736
							c-0.1922073-0.2008095-0.2883072-0.5154152-0.2883072-0.9457245v-5.4830894h-1.2885361v-0.7955933h1.2885361v-2.8094368
							h0.9462051v2.8094368h1.4802551v0.7955933h-1.4802551V41.4473839z"/>
						<path class="st11" d="M102.8800049,32.7006416v0.9189453c-0.3562012-0.1558647-0.6741486-0.2333221-0.9524155-0.2333221
							c-0.2792206,0-0.4594727,0.088932-0.5417099,0.2677498c-0.0822372,0.1778603-0.1233597,0.4676018-0.1233597,0.8701782
							v0.7946358h1.5218582v0.7955933h-1.5218582v6.4842758h-0.9457169v-6.4842758h-0.9462051v-0.7955933h0.9462051v-0.9457207
							c0-0.6397285,0.1185684-1.110199,0.3561935-1.4114151c0.2376328-0.3021698,0.6076965-0.452301,1.110199-0.452301
							C102.0758057,32.5093918,102.4415665,32.5734596,102.8800049,32.7006416z"/>
						<path class="st11" d="M103.839592,39.0070534c0-1.0690765,0.3676758-1.9832458,1.103508-2.7415428
							c0.7358246-0.7592583,1.6313477-1.137928,2.6870346-1.137928c1.0556946,0,1.95121,0.3786697,2.6870422,1.137928
							c0.7353516,0.758297,1.1035004,1.6676826,1.1035004,2.7271996c0,1.0604706-0.3633728,1.9679451-1.0901184,2.7214622
							c-0.726265,0.7544746-1.624176,1.131237-2.6937256,1.131237c-1.0690842,0-1.9693832-0.3767624-2.7004318-1.131237
							C104.2053528,40.9606552,103.839592,40.0579643,103.839592,39.0070534z M110.4749527,39.020443
							c0-0.8041992-0.2811356-1.5013008-0.843399-2.0903473c-0.5617981-0.5900002-1.2292557-0.8845215-2.0014191-0.8845215
							s-1.437233,0.2945213-1.9947205,0.8845215c-0.5574875,0.5890465-0.836235,1.2909279-0.836235,2.1037331
							c0,0.8137627,0.2696609,1.5041695,0.8089828,2.0702629c0.5393219,0.5670509,1.2086868,0.8500977,2.00811,0.8500977
							c0.7998962,0,1.4759598-0.2859154,2.0291443-0.8567924C110.1981201,40.5265236,110.4749527,39.8342018,110.4749527,39.020443z
							"/>
						<path class="st11" d="M112.8053131,35.3188286h0.9595947v1.0556908
							c0.2557907-0.4293518,0.5048904-0.7449112,0.7468185-0.9457207c0.2424088-0.2008133,0.5120697-0.3012161,0.8089828-0.3012161
							s0.5962143,0.0822372,0.8979111,0.2467079l-0.4934235,0.7946396
							c-0.1372147-0.0822372-0.2792206-0.1233559-0.4250488-0.1233559c-0.2835236,0-0.5507965,0.1463051-0.8018036,0.4389153
							c-0.2514954,0.2926102-0.4365234,0.6693687-0.5555801,1.1312332c-0.118576,0.460907-0.1778564,1.2995338-0.1778564,2.5149155
							v2.4680595h-0.9595947V35.3188286z"/>
						<path class="st11" d="M117.2876968,35.3188286h0.9323349v1.2612839
							c0.6488113-0.9686737,1.4802628-1.4525299,2.4948349-1.4525299c0.5393219,0,1.0212708,0.1529961,1.4463196,0.4589958
							c0.4250488,0.3059959,0.7104874,0.7382164,0.8567886,1.2957077c0.3016968-0.5670509,0.6856308-1.0011864,1.1513138-1.3024025
							c0.4661713-0.3021736,1.0030975-0.452301,1.6107941-0.452301c0.6076889,0,1.1584854,0.2352333,1.6519089,0.7057037
							c0.4938965,0.4704742,0.7406006,1.4008942,0.7406006,2.78936v3.9760513h-0.9595795v-3.9760513
							c0-0.6665039-0.0411224-1.1580086-0.1233597-1.4735718c-0.0822372-0.3146019-0.2605743-0.5804367-0.5350189-0.7946358
							c-0.2739639-0.2151527-0.6373291-0.3222542-1.0896378-0.3222542c-0.452301,0-0.8754349,0.1510887-1.2679749,0.4523048
							c-0.393013,0.3012161-0.662674,0.6856232-0.8089828,1.1513138c-0.1463013,0.4666443-0.2194519,1.1704407-0.2194519,2.1113815
							v2.8515129h-0.9184723v-3.7293434c0-0.7764664-0.0411148-1.331089-0.1233521-1.6648178
							c-0.0822372-0.333725-0.2648849-0.6129494-0.5484085-0.8367081c-0.2830429-0.2237625-0.6306381-0.3356438-1.0418243-0.3356438
							s-0.7975082,0.1214447-1.1580048,0.3633728c-0.3614655,0.2419281-0.6445084,0.5737457-0.8501053,0.9935341
							c-0.2055893,0.4207497-0.3083878,1.1293221-0.3083878,2.1247711v3.0848351h-0.9323349V35.3188286z"/>
					</g>
				</g>
			</g>
			<g>
				<polygon class="st11" points="0,42.4685822 5.7713275,42.4685822 5.7713275,41.195549 1.2863706,41.195549 
					1.2863706,37.7702065 5.7713275,37.7702065 5.7713275,36.5110474 1.2863706,36.5110474 1.2863706,33.8572083 
					5.8113432,33.8572083 5.8113432,32.5841751 0,32.5841751 				"/>
				<polygon class="st11" points="13.6949644,39.6280022 7.5853715,32.5841751 7.1339946,32.5841751 7.1339946,42.4685822 
					8.4465084,42.4685822 8.4465084,35.514389 14.4675341,42.4120255 14.5160866,42.4685822 14.9674635,42.4685822 
					14.9674635,32.5841751 13.6949644,32.5841751 				"/>
				<polygon class="st11" points="16.0244102,33.8444023 18.1671162,33.8444023 18.1671162,42.4685822 19.4662914,42.4685822 
					19.4662914,33.8444023 21.5956593,33.8444023 21.5956593,32.5841751 16.0244102,32.5841751 				"/>
				<polygon class="st11" points="22.6520729,42.4685822 28.4228668,42.4685822 28.4228668,41.195549 23.9379101,41.195549 
					23.9379101,37.7702065 28.4228668,37.7702065 28.4228668,36.5110474 23.9379101,36.5110474 23.9379101,33.8572083 
					28.462883,33.8572083 28.462883,32.5841751 22.6520729,32.5841751 				"/>
				<path class="st11" d="M35.2159271,37.3412399c0.6146431-0.4961967,0.9262314-1.1865997,0.9262314-2.0509377
					c0-0.4311028-0.0858994-0.8312607-0.2555656-1.187664c-0.1696663-0.3596077-0.4076271-0.6573257-0.7069435-0.884613
					c-0.2955856-0.226223-0.6541252-0.3916206-1.0670853-0.4887276c-0.4076271-0.0971031-1.1337776-0.1451225-2.2200699-0.1451225
					h-2.0669441v9.884407h1.2858372v-4.4444084h0.3009186l3.3847904,4.3803825l0.0490875,0.0640259h1.5995598l-3.4450836-4.442276
					C33.93116,38.0081673,34.6749153,37.7776756,35.2159271,37.3412399z M32.5978355,36.7628784h-1.4864483v-2.9184761h1.5264645
					c0.7608299,0,1.3253212,0.1205826,1.67799,0.3574753c0.3366661,0.2272873,0.5004654,0.5879631,0.5004654,1.1022987
					c0,0.5143318-0.1659317,0.87714-0.5074005,1.1086998c-0.3425331,0.2326241-0.8894157,0.3510704-1.6273041,0.3510704
					C32.6538582,36.7639465,32.6261139,36.7639465,32.5978355,36.7628784z"/>
				<path class="st11" d="M43.1785164,33.2180252c-0.3057213-0.2347603-0.646122-0.401226-1.0110664-0.4951286
					c-0.3638725-0.0928345-1.0996284-0.1387215-2.2494125-0.1387215h-2.0674782v9.884407h1.2863731v-4.4444084h0.5143356
					c1.1321754,0,1.9511642-0.0565567,2.5023117-0.1718025c0.5714226-0.1163101,1.052681-0.4012222,1.4288254-0.8451309
					c0.3793488-0.4460411,0.5714264-1.0233345,0.5714264-1.716938c0-0.4311028-0.0859032-0.8291245-0.2555695-1.181263
					C43.7280617,33.7537003,43.485836,33.4538498,43.1785164,33.2180252z M42.8285103,35.2903023
					c0,0.4129601-0.141922,0.7608299-0.4337692,1.064949c-0.2859802,0.2966499-0.897419,0.4407082-1.8113747,0.420433h-1.446434
					v-2.931282h1.5259285C42.1199684,33.8444023,42.8285103,34.3171196,42.8285103,35.2903023z"/>
				<path class="st11" d="M51.173645,37.3412399c0.6146431-0.4961967,0.9262314-1.1865997,0.9262314-2.0509377
					c0-0.4300346-0.0858994-0.8301926-0.2555656-1.187664c-0.1696663-0.3585434-0.4076271-0.6562576-0.7069435-0.884613
					c-0.2955856-0.226223-0.6546593-0.3916206-1.0670853-0.4887276c-0.4081612-0.0971031-1.1348457-0.1451225-2.2206039-0.1451225
					h-2.0669441v9.884407h1.2863731v-4.4444084h0.3009148l3.3847923,4.3803825l0.0490875,0.0640259h1.5995598l-3.4450836-4.442276
					C49.8883438,38.0081673,50.6326332,37.7776756,51.173645,37.3412399z M48.5555534,36.7628784h-1.4864464v-2.9184761h1.5264626
					c0.7608299,0,1.3253212,0.1205826,1.67799,0.3574753c0.3366661,0.2272873,0.5004654,0.5879631,0.5004654,1.1022987
					c0,0.5143318-0.1659317,0.87714-0.5074005,1.1086998c-0.3425331,0.2326241-0.8894157,0.3510704-1.6273041,0.3510704
					C48.6115761,36.7639465,48.5838318,36.7639465,48.5555534,36.7628784z"/>
				<rect x="53.6748924" y="32.5841751" class="st11" width="1.2858371" height="9.8844051"/>
				<path class="st11" d="M59.4926376,36.7564774c-0.7528267-0.5570183-1.2399521-0.9667778-1.4485664-1.2175446
					c-0.1942101-0.2336922-0.2886467-0.5015297-0.2886467-0.8205872c0-0.310524,0.1029739-0.5591545,0.3153229-0.7586975
					c0.2144852-0.2038155,0.4865913-0.3019867,0.8323288-0.3019867c0.3484001,0,0.6338463,0.0960388,0.8728752,0.2945175
					c0.2555656,0.2134171,0.5063286,0.4855232,0.7453575,0.8099174l0.0997734,0.1355171l1.0286674-0.7981758l-0.0907021-0.1280518
					c-0.3761482-0.5303421-0.7715034-0.9369011-1.1748581-1.2068748c-0.4172325-0.2774391-0.9086227-0.4193611-1.4613724-0.4193611
					c-0.7080116,0-1.303978,0.2336884-1.7718964,0.6925354c-0.4695168,0.4599152-0.7074776,1.0297394-0.7074776,1.6945305
					c0,0.3115883,0.0592232,0.6253128,0.1766052,0.9305c0.1184464,0.3062515,0.3041191,0.5965004,0.5516815,0.8632698
					c0.2411613,0.2603683,0.6962738,0.6413193,1.3930779,1.1652565c0.6642609,0.4983292,1.1444473,0.9337006,1.426693,1.2933083
					c0.2683716,0.341465,0.4044266,0.6797333,0.4044266,1.0041275c0,0.4161606-0.1520615,0.7554932-0.4647179,1.0361366
					c-0.3174553,0.2849121-0.690403,0.4225655-1.1412468,0.4225655c-0.6861343,0-1.3050423-0.4983292-1.839119-1.4832458
					l-0.0811005-0.1493912l-1.0921593,0.644516l0.0714951,0.1376572c0.7277489,1.4010811,1.7617569,2.1117592,3.0737381,2.1117592
					c0.748558,0,1.4154854-0.2731743,1.9831734-0.8109856c0.5676918-0.5410118,0.8558044-1.1887321,0.8558044-1.9228859
					c0-0.5644875-0.1872749-1.1076355-0.5575523-1.61343C60.844635,37.8705139,60.2684097,37.3295021,59.4926376,36.7564774z"/>
				<polygon class="st11" points="69.2676697,33.8572083 69.2676697,32.5841751 63.4568596,32.5841751 63.4568596,42.4685822 
					69.2276535,42.4685822 69.2276535,41.195549 64.7426987,41.195549 64.7426987,37.7702065 69.2276535,37.7702065 
					69.2276535,36.5110474 64.7426987,36.5110474 64.7426987,33.8572083 				"/>
			</g>
		</g>
	</g>
</g>
</svg>
