<svg width="332" height="196" viewBox="0 0 332 196" fill="none" xmlns="http://www.w3.org/2000/svg">
<g clip-path="url(#clip0)">
<path d="M49.3615 61.25C49.2515 65.96 43.2315 78 43.2315 78C43.2315 78 36.5515 65.66 36.6615 60.95C36.7715 56.24 44.0615 43 44.0615 43C44.0615 43 49.4315 56.55 49.3615 61.25Z" fill="#FFC1C1"/>
<path d="M15.45 70.0122C18.62 73.4822 22.61 86.3422 22.61 86.3422C22.61 86.3422 9.25001 82.0522 6.07001 78.5722C2.89001 75.0922 -1 60.4922 -1 60.4922C-1 60.4922 12.28 66.5322 15.45 70.0122Z" fill="#FFC1C1"/>
<path d="M69.621 70.0122C66.441 73.4822 62.4609 86.3422 62.4609 86.3422C62.4609 86.3422 75.821 82.0522 78.991 78.5722C82.161 75.0922 86.071 60.4922 86.071 60.4922C86.071 60.4922 72.791 66.5322 69.621 70.0122Z" fill="#FFC1C1"/>
<path d="M43.3609 59.1484H42.9609V169.168H43.3609V59.1484Z" fill="#03053F"/>
<path d="M34.8722 168.202C34.8722 167.732 32.9922 121.322 30.3522 105.452C27.1622 86.3419 8.93219 72.3919 8.74219 72.2519L8.99219 71.9219C9.17219 72.0619 27.5322 86.1119 30.7422 105.382C33.3922 121.282 35.2622 167.722 35.2822 168.182L34.8722 168.202Z" fill="#03053F"/>
<path d="M50.9703 168.198H50.5703C50.5703 167.738 52.4503 121.298 55.1003 105.398C58.3103 86.1275 76.6703 72.0775 76.8603 71.9375L77.1003 72.2675C76.9203 72.4075 58.6803 86.3575 55.5003 105.468C52.8503 121.328 50.9903 167.728 50.9703 168.198Z" fill="#03053F"/>
<path d="M50.3613 163.109H33.3613C33.3613 163.109 29.6113 164.869 29.1713 170.569C28.3613 180.969 34.8713 199.259 34.8713 199.259H50.8713C50.8713 199.259 56.2013 177.429 55.0213 170.569C54.1313 165.069 50.3613 163.109 50.3613 163.109Z" fill="#A4B8EA"/>
<path d="M10.3594 72.5312C10.3594 72.729 10.3007 72.9224 10.1909 73.0868C10.081 73.2513 9.92479 73.3794 9.74206 73.4551C9.55933 73.5308 9.35828 73.5506 9.1643 73.512C8.97032 73.4734 8.79213 73.3782 8.65228 73.2383C8.51242 73.0985 8.41718 72.9203 8.3786 72.7263C8.34001 72.5323 8.35979 72.3313 8.43548 72.1486C8.51117 71.9658 8.63938 71.8096 8.80383 71.6998C8.96828 71.5899 9.16159 71.5312 9.35937 71.5312C9.62459 71.5312 9.87893 71.6366 10.0665 71.8241C10.254 72.0117 10.3594 72.266 10.3594 72.5312Z" fill="#03053F"/>
<path d="M44.2422 58.9375C44.2422 59.1353 44.1835 59.3286 44.0737 59.4931C43.9638 59.6575 43.8076 59.7857 43.6249 59.8614C43.4421 59.9371 43.2411 59.9569 43.0471 59.9183C42.8531 59.8797 42.6749 59.7845 42.5351 59.6446C42.3952 59.5048 42.3 59.3266 42.2614 59.1326C42.2228 58.9386 42.2426 58.7376 42.3183 58.5548C42.394 58.3721 42.5221 58.2159 42.6866 58.106C42.851 57.9962 43.0444 57.9375 43.2422 57.9375C43.5074 57.9375 43.7617 58.0429 43.9493 58.2304C44.1368 58.4179 44.2422 58.6723 44.2422 58.9375Z" fill="#03053F"/>
<path d="M77.5508 72.3281C77.5508 72.5259 77.4921 72.7192 77.3823 72.8837C77.2724 73.0481 77.1162 73.1763 76.9335 73.252C76.7507 73.3277 76.5497 73.3475 76.3557 73.3089C76.1617 73.2703 75.9835 73.1751 75.8437 73.0352C75.7038 72.8954 75.6086 72.7172 75.57 72.5232C75.5314 72.3292 75.5512 72.1282 75.6269 71.9454C75.7026 71.7627 75.8307 71.6065 75.9952 71.4966C76.1596 71.3868 76.353 71.3281 76.5508 71.3281C76.816 71.3281 77.0703 71.4335 77.2579 71.621C77.4454 71.8086 77.5508 72.0629 77.5508 72.3281Z" fill="#03053F"/>
<path d="M318.153 53L317 61C317 61 331.455 58.4194 332.607 56.329C332.965 55.8136 333.084 55.1988 332.941 54.6095C332.799 54.0201 332.405 53.5001 331.839 53.1548L318.153 53Z" fill="#FFB3B6"/>
<g clip-path="url(#clip1)">
<path d="M201.057 72.0469H120.887V179.092H201.057V72.0469Z" fill="#03053F"/>
<path d="M196.825 89.6406H109.18V111.388H196.825V89.6406Z" fill="#BDCFFA"/>
<path d="M130.32 94.1211H113.066V96.7784H130.32V94.1211Z" fill="#0E24A5"/>
<path d="M130.32 98.6875H113.066V101.345H130.32V98.6875Z" fill="#0E24A5"/>
<path d="M130.32 103.41H113.066V106.067H130.32V103.41Z" fill="#0E24A5"/>
<path d="M196.825 116.477H109.18V138.224H196.825V116.477Z" fill="#BDCFFA"/>
<path d="M130.32 120.957H113.066V123.614H130.32V120.957Z" fill="#0E24A5"/>
<path d="M130.32 125.52H113.066V128.177H130.32V125.52Z" fill="#0E24A5"/>
<path d="M130.32 130.246H113.066V132.903H130.32V130.246Z" fill="#0E24A5"/>
<path d="M196.825 143.305H109.18V165.052H196.825V143.305Z" fill="#BDCFFA"/>
<path d="M130.32 147.785H113.066V150.442H130.32V147.785Z" fill="#0E24A5"/>
<path d="M130.32 152.355H113.066V155.013H130.32V152.355Z" fill="#0E24A5"/>
<path d="M130.32 157.082H113.066V159.739H130.32V157.082Z" fill="#0E24A5"/>
<path d="M210.002 111.349L196.828 111.387V89.6392L210.002 89.6016V111.349Z" fill="#425AC2"/>
<path d="M210.002 138.014L196.828 138.051V116.304L210.002 116.273V138.014Z" fill="#425AC2"/>
<path d="M210.002 165.018L196.828 165.055V143.307L210.002 143.277V165.018Z" fill="#425AC2"/>
<path d="M130.957 76.7695H113.703V79.4268H130.957V76.7695Z" fill="#263238"/>
<path d="M210.002 84.9133L196.828 84.9434V63.0376L210.002 63V84.9133Z" fill="#425AC2"/>
<path d="M197.459 63H109.813V84.7477H197.459V63Z" fill="#BDCFFA"/>
<path d="M130.957 67.4805H113.703V70.1378H130.957V67.4805Z" fill="#0E24A5"/>
<path d="M130.957 72.0469H113.703V74.7042H130.957V72.0469Z" fill="#0E24A5"/>
<path d="M209.185 192.221L196.012 192.258V170.511L209.185 170.48V192.221Z" fill="#425AC2"/>
<path d="M196.646 170.512H109V192.259H196.646V170.512Z" fill="#BDCFFA"/>
<path d="M130.144 174.992H112.891V177.649H130.144V174.992Z" fill="#0E24A5"/>
<path d="M130.144 179.559H112.891V182.216H130.144V179.559Z" fill="#0E24A5"/>
</g>
<path d="M161.006 44.4297L162.065 53.0644C162.065 53.0644 148.444 50.279 147.386 48.0229C147.041 47.4759 146.921 46.8171 147.051 46.1839C147.181 45.5507 147.55 44.9921 148.082 44.6247L161.006 44.4297Z" fill="#FFB3B6"/>
<path d="M226.492 35.1289C217.022 35.1289 194.516 50.5322 194.516 50.5322L160.951 44.2372L158.695 52.2591L196.967 63.1222C196.967 63.1222 220.615 55.5738 226.018 48.8888C231.422 42.2038 231.979 35.1289 226.492 35.1289Z" fill="#A4B8EA"/>
<path d="M251.645 42.6211C259.528 42.6211 283.176 58.8878 283.176 58.8878L318.773 52.565L321.002 60.6148L282.675 71.4779C282.675 71.4779 258.999 63.9294 253.595 57.2445C248.191 50.5595 246.158 42.6211 251.645 42.6211Z" fill="#A4B8EA"/>
<path d="M242.894 98.7721H204.316L215.987 44.986C216.879 40.7243 223.953 34.0672 228.104 35.3485L255.958 43.5376C256.946 43.8348 257.863 44.3345 258.648 45.0051C259.433 45.6757 260.069 46.5023 260.517 47.4325C260.966 48.3626 261.215 49.3759 261.25 50.4077C261.285 51.4396 261.105 52.4674 260.721 53.4258L242.894 98.7721Z" fill="#A4B8EA"/>
<path d="M244.653 43.1758L239.806 41.6438C239.047 41.3618 238.429 40.7902 238.09 40.0541C237.751 39.318 237.717 38.4774 237.996 37.7164L239.806 31.7C239.992 30.9173 240.48 30.2401 241.164 29.8171C241.848 29.3941 242.672 29.2598 243.455 29.4438L248.33 30.92C249.085 31.2081 249.698 31.7804 250.036 32.5145C250.374 33.2486 250.412 34.0861 250.14 34.8475L248.33 40.8639C248.241 41.2576 248.075 41.6299 247.842 41.9594C247.609 42.2888 247.313 42.569 246.972 42.7839C246.63 42.9987 246.25 43.1439 245.852 43.2112C245.454 43.2784 245.046 43.2664 244.653 43.1758Z" fill="#E98896"/>
<path d="M234.234 26.686C234.234 33.9281 240.028 34.5687 247.214 34.6244C250.686 34.6429 254.024 33.2813 256.492 30.8393C258.96 28.3972 260.357 25.0747 260.375 21.6026C260.394 18.1306 259.032 14.7934 256.59 12.3252C254.148 9.85707 250.826 8.46009 247.354 8.44162C240.167 8.38591 234.262 19.3604 234.234 26.686Z" fill="#FFB3B6"/>
<path d="M252.228 16.5767C252.228 16.5767 250.891 21.0055 251.504 21.2005C252.383 21.1657 253.252 21.3935 254.001 21.8548C254.75 22.3162 255.345 22.9902 255.71 23.7909C256.74 26.437 254.261 28.0247 252.144 27.8854C250.027 27.7461 249.86 33.4562 254.93 33.8462C259.999 34.2361 264.901 23.7352 263.759 18.7214C262.617 13.7077 256.295 6.63279 253.453 6.10357C250.612 5.57434 221.672 7.24558 221.672 7.24558L252.228 16.5767Z" fill="#FE958E"/>
<path d="M242.894 98.7734H204.316V186.486H211.976C211.976 186.486 217.742 143.256 219.942 119.358H225.235L238.215 150.693L276.57 164.843L280.72 157.824L249.718 142.56C249.718 142.56 243.368 111.921 243.256 106.071C243.263 103.634 243.142 101.198 242.894 98.7734Z" fill="#FE958E"/>
<path d="M204.21 186.234H211.981V192.223H196.216C195.185 192.223 194.823 189.883 195.742 189.438L204.21 186.234Z" fill="#0E24A5"/>
<path d="M275.43 163.756L279.747 157.266L284.705 160.58L275.959 173.783C275.402 174.647 273.174 173.783 273.341 172.613L275.43 163.756Z" fill="#0E24A5"/>
<path d="M37.3947 141.321C37.8586 141.321 38.2347 140.945 38.2347 140.481C38.2347 140.017 37.8586 139.641 37.3947 139.641C36.9307 139.641 36.5547 140.017 36.5547 140.481C36.5547 140.945 36.9307 141.321 37.3947 141.321Z" fill="white"/>
<path d="M123.765 125.95C123.765 126.124 123.713 126.294 123.617 126.439C123.52 126.584 123.382 126.697 123.222 126.763C123.061 126.83 122.884 126.847 122.713 126.813C122.543 126.779 122.386 126.696 122.263 126.573C122.14 126.449 122.056 126.293 122.022 126.122C121.988 125.951 122.005 125.774 122.072 125.614C122.138 125.453 122.251 125.315 122.396 125.219C122.541 125.122 122.711 125.07 122.885 125.07C123.118 125.07 123.342 125.163 123.507 125.328C123.672 125.493 123.765 125.717 123.765 125.95Z" fill="white"/>
<path d="M100.621 121.233H63.2046C63.2046 121.233 66.5554 112.297 66.3767 107.361C66.1868 99.33 58.5582 78.6335 58.5582 78.6335C58.145 74.5791 62.0653 71.1055 67.0468 71.1055H96.8461C101.828 71.1055 105.781 74.5791 105.335 78.6335C105.335 78.6335 97.5721 101.821 97.4381 109.907C97.3264 114.922 100.621 121.233 100.621 121.233Z" fill="#0E24A5"/>
<path d="M13.0658 68.3912L16.1038 61.8684C16.1038 61.8684 10.374 59.6345 8.19603 62.8512C5.48193 66.861 13.0658 68.3912 13.0658 68.3912Z" fill="#FFAD97"/>
<path d="M74.3172 79.615C72.7311 82.2286 64.5441 82.5748 51.13 83.6471C37.7158 84.7193 35.4931 84.2837 33.963 83.4683C32.4328 82.653 13.0654 68.39 13.0654 68.39L16.1035 61.8672L38.4418 74.6335C38.4418 74.6335 59.8866 70.5568 67.0014 71.1041C69.4809 71.294 74.3172 79.615 74.3172 79.615Z" fill="#0E24A5"/>
<path d="M149.182 68.3912L146.133 61.8684C146.133 61.8684 151.863 59.6345 154.041 62.8512C156.766 66.861 149.182 68.3912 149.182 68.3912Z" fill="#FFAD97"/>
<path d="M87.9209 79.615C89.5069 82.2286 97.6939 82.5748 111.108 83.6471C124.522 84.7193 126.745 84.2837 128.275 83.4683C129.805 82.653 149.184 68.39 149.184 68.39L146.135 61.8672L123.796 74.6335C123.796 74.6335 102.351 70.5568 95.2367 71.1041C92.7571 71.294 87.9209 79.615 87.9209 79.615Z" fill="#0E24A5"/>
<path d="M63.2026 121.234H100.619C100.619 121.234 110.582 140.289 101.245 142.958C91.025 145.874 74.4388 145.695 64.5541 143.316C53.0164 140.546 63.2026 121.234 63.2026 121.234Z" fill="#425AC2"/>
<path d="M35.705 122.238C35.3029 116.442 46.3827 114.576 52.1349 117.313C57.887 120.049 78.6839 135.385 84.168 139.484C89.6521 143.583 101.145 154.004 101.145 154.004L94.0192 163.307C94.0192 163.307 66.9786 146.878 54.0559 141.126C41.1332 135.373 36.2634 130.18 35.705 122.238Z" fill="#8EA8DD"/>
<path d="M129.335 122.238C129.737 116.442 118.657 114.576 112.917 117.313C107.176 120.049 86.3563 135.385 80.8834 139.484C75.4105 143.583 63.9062 154.004 63.9062 154.004L71.021 163.307C71.021 163.307 98.1285 146.878 110.995 141.126C123.862 135.373 128.788 130.18 129.335 122.238Z" fill="#A4B8EA"/>
<path d="M63.9059 154.004L71.0207 163.308C71.0207 163.308 69.1108 176.543 65.4361 177.269C61.7614 177.995 60.8679 164.86 60.1419 160.516C59.4159 156.171 63.9059 154.004 63.9059 154.004Z" fill="#FE958E"/>
<path d="M101.021 154.004L93.9062 163.308C93.9062 163.308 95.8162 176.543 99.4908 177.269C103.165 177.995 104.059 164.86 104.785 160.516C105.511 156.171 101.021 154.004 101.021 154.004Z" fill="#FE958E"/>
<path d="M81.7328 76.3674C88.3673 76.3674 88.3226 71.8997 88.3226 70.7828V63.4558C88.3226 61.7916 85.8431 61.9368 84.3687 61.9368H79.6218C78.1475 61.9368 75.668 63.2771 75.668 64.9413V70.7828C75.6751 71.5554 75.8405 72.3184 76.154 73.0245C76.4676 73.7307 76.9226 74.365 77.491 74.8884C78.0594 75.4118 78.7291 75.8131 79.4586 76.0674C80.1882 76.3218 80.9622 76.4239 81.7328 76.3674Z" fill="#FF9283"/>
<path d="M77.868 67.2195C82.7266 71.1064 86.3008 67.4987 90.1541 62.6401C91.1344 61.4915 91.8738 60.1576 92.3284 58.7176C92.7831 57.2776 92.9438 55.761 92.8009 54.2577C92.6579 52.7544 92.2144 51.2952 91.4965 49.9667C90.7786 48.6382 89.8011 47.4675 88.6219 46.5242C87.4428 45.5809 86.086 44.8842 84.6323 44.4754C83.1786 44.0667 81.6577 43.9542 80.1597 44.1448C78.6617 44.3353 77.2173 44.825 75.9123 45.5846C74.6072 46.3443 73.4681 47.3585 72.5627 48.567C68.6982 53.4256 73.0095 63.2879 77.868 67.2195Z" fill="#FFAD97"/>
<path d="M70.8548 61.5448C70.8548 61.5448 73.5466 51.2356 76.6516 49.4039C79.7567 47.5721 80.7731 51.0793 81.9905 51.1909C83.208 51.3026 84.0345 48.5774 86.0896 49.1358C92.1209 50.7777 93.3049 65.3758 93.3049 65.3758C93.3049 65.3758 100.42 43.6629 85.8215 40.7366C71.2234 37.8103 68.6657 48.0412 68.8444 50.4091C69.0231 52.777 70.8548 61.5448 70.8548 61.5448Z" fill="#03053F"/>
<path d="M81.4996 45.9855C79.7125 45.0249 75.6023 39.0048 78.3499 35.5758C80.405 33.0069 86.4699 33.5319 86.9725 37.4969C87.5198 41.8752 84.9174 46.1195 83.9568 46.6668C82.9963 47.2141 81.4996 45.9855 81.4996 45.9855Z" fill="#03053F"/>
</g>
<defs>
<clipPath id="clip0">
<rect width="332" height="196" rx="4" fill="white"/>
</clipPath>
<clipPath id="clip1">
<rect width="101" height="129.259" fill="white" transform="translate(109 63)"/>
</clipPath>
</defs>
</svg>
