<?xml version="1.0" encoding="utf-8"?>
<!-- Generator: Adobe Illustrator 23.0.4, SVG Export Plug-In . SVG Version: 6.00 Build 0)  -->
<svg version="1.1" id="Layer_1" xmlns="http://www.w3.org/2000/svg" xmlns:xlink="http://www.w3.org/1999/xlink" x="0px" y="0px"
	 viewBox="0 0 84.0056076 31.0579147" style="enable-background:new 0 0 84.0056076 31.0579147;" xml:space="preserve">
<style type="text/css">
	.st0{fill:#FFFFFF;}
	.st1{fill:#D1D2D9;stroke:#000000;stroke-width:0.5;stroke-miterlimit:10;}
	.st2{fill:none;stroke:#FFFFFF;stroke-miterlimit:10;}
	.st3{fill:#EFEFF2;}
	.st4{fill:#0063FF;}
	.st5{opacity:0.6;clip-path:url(#SVGID_2_);}
	.st6{fill:none;stroke:#000000;stroke-width:13;stroke-miterlimit:10;}
	.st7{fill:#008CD6;}
	.st8{fill:#003659;}
	.st9{fill:#B8F3FF;}
	.st10{fill:none;stroke:#000000;stroke-width:3;stroke-miterlimit:10;}
	.st11{fill:#626372;}
	.st12{fill:#4D4E5A;}
	.st13{fill:#001959;}
	.st14{fill:#004ED6;}
	.st15{fill:#D1D2D9;}
	.st16{enable-background:new    ;}
	.st17{fill:#23232A;}
	.st18{fill:none;stroke:#96A3A2;stroke-width:0.3;stroke-miterlimit:10;}
	.st19{fill:#00EFE8;}
	.st20{clip-path:url(#SVGID_4_);}
	.st21{clip-path:url(#SVGID_6_);}
	.st22{opacity:0.6;clip-path:url(#SVGID_8_);}
	.st23{fill:#090A0A;}
	.st24{fill:#191B1B;}
	.st25{fill:#242021;}
	.st26{fill:#E0E1E2;}
	.st27{fill:#DEE0E1;}
	.st28{fill:none;stroke:#FFFFFF;stroke-width:2;stroke-linecap:round;stroke-miterlimit:10;}
	.st29{fill:#454345;}
	.st30{fill:#444243;}
	.st31{fill:#433F41;}
	.st32{fill:#484546;}
	.st33{fill:#434142;}
	.st34{fill:#413E3F;}
	.st35{fill:#413F40;}
	.st36{fill:#454142;}
	.st37{fill:#4A4748;}
	.st38{fill:#423F41;}
	.st39{fill:#494647;}
	.st40{fill:#3F3A3C;}
	.st41{fill:#464343;}
	.st42{fill:#474445;}
	.st43{fill:#201D1C;}
	.st44{fill:#4B4849;}
	.st45{fill:#443D3F;}
	.st46{fill:#413D3E;}
	.st47{fill:#4E494A;}
	.st48{fill:#423C3E;}
	.st49{fill:#413C3E;}
	.st50{fill:#444142;}
	.st51{fill:#4C4647;}
	.st52{fill:#433D41;}
	.st53{fill:#3E3B3B;}
	.st54{fill:#474242;}
	.st55{fill:#4A4747;}
	.st56{fill:#4C494A;}
	.st57{fill:#504C4C;}
	.st58{fill:#3F3938;}
	.st59{fill:#494547;}
	.st60{fill:#5F5857;}
	.st61{fill:#4D4341;}
	.st62{fill:#4B4748;}
	.st63{fill:#534D4D;}
	.st64{fill:#474343;}
	.st65{fill:#544E4D;}
	.st66{fill:#433F3F;}
	.st67{fill:#3D3A3C;}
	.st68{fill:#413E3E;}
	.st69{fill:#4B4646;}
	.st70{fill:#494443;}
	.st71{fill:#4F4B4C;}
	.st72{fill:#4F4C4C;}
	.st73{fill:#464142;}
	.st74{fill:#524945;}
	.st75{fill:#464040;}
	.st76{fill:#565353;}
	.st77{fill:#3C3230;}
	.st78{fill:#5C5653;}
	.st79{fill:#514E4E;}
	.st80{fill:#4F4A4C;}
	.st81{fill:#444040;}
	.st82{fill:#534F4F;}
	.st83{fill:#433D3D;}
	.st84{fill:#5C5452;}
	.st85{fill:#443A37;}
	.st86{fill:#3E393A;}
	.st87{fill:#413D3C;}
	.st88{fill:#61544D;}
	.st89{fill:#433F3E;}
	.st90{fill:#4C4949;}
	.st91{fill:#474446;}
	.st92{fill:#3A3533;}
	.st93{fill:#423C3D;}
	.st94{fill:#454242;}
	.st95{fill:#453F41;}
	.st96{fill:#464244;}
	.st97{fill:#212029;}
	.st98{fill:#3E3A3B;}
	.st99{fill:#423E3F;}
	.st100{fill:#504C4D;}
	.st101{fill:#413F41;}
	.st102{fill:#464141;}
	.st103{fill:#4E4B4C;}
	.st104{fill:#424041;}
	.st105{fill:#423E40;}
	.st106{fill:#423F3F;}
	.st107{fill:#423D3E;}
	.st108{fill:#474141;}
	.st109{fill:#3F3C3E;}
	.st110{fill:#443D3C;}
	.st111{fill:#4F4C4D;}
	.st112{fill:#393434;}
	.st113{fill:#515050;}
	.st114{fill:#403C3C;}
	.st115{fill:#3F3837;}
	.st116{fill:#393232;}
	.st117{fill:#4A4746;}
	.st118{fill:#474547;}
	.st119{fill:#575454;}
	.st120{fill:#474647;}
	.st121{fill:#3F3D3E;}
	.st122{fill:#4C494B;}
	.st123{fill:#464445;}
	.st124{fill:#3E3C3D;}
	.st125{fill:#4A4849;}
	.st126{fill:#3D3B3C;}
	.st127{fill:#4D4B4C;}
	.st128{fill:#525152;}
	.st129{fill:#3C3B3C;}
	.st130{fill:#4E4D4D;}
	.st131{fill:#403D3F;}
	.st132{fill:#4F4D4E;}
	.st133{fill:#4C4A4B;}
	.st134{fill:#3C3A3B;}
	.st135{fill:#3F3D3F;}
	.st136{fill:#3B393A;}
	.st137{fill:#4F4E4E;}
	.st138{fill:#535051;}
	.st139{fill:#3D3B3D;}
	.st140{fill:#504E4E;}
	.st141{fill:#514E4F;}
	.st142{fill:#545152;}
	.st143{fill:#393839;}
	.st144{fill:#3C393A;}
	.st145{fill:#403E3F;}
	.st146{fill:#383537;}
	.st147{fill:#545153;}
	.st148{fill:#4C4C4D;}
	.st149{fill:#4D4C4D;}
	.st150{fill:#514D4F;}
	.st151{fill:#525052;}
	.st152{fill:#565455;}
	.st153{fill:#3B3839;}
	.st154{fill:#524F50;}
	.st155{fill:#353234;}
	.st156{fill:#373435;}
	.st157{fill:#504B4C;}
	.st158{fill:#524D4E;}
	.st159{fill:#3A363A;}
	.st160{fill:#565152;}
	.st161{fill:#525151;}
	.st162{fill:#393738;}
	.st163{fill:#393737;}
	.st164{fill:#393637;}
	.st165{fill:#494648;}
	.st166{fill:#464345;}
	.st167{fill:#3D393B;}
	.st168{fill:#4D494A;}
	.st169{fill:#4F4C4E;}
	.st170{fill:#4E4B4D;}
	.st171{fill:#4D4A4B;}
	.st172{fill:#3B3739;}
	.st173{fill:#4D4A4C;}
	.st174{fill:#3A3638;}
	.st175{fill:#525051;}
	.st176{fill:#5A5658;}
	.st177{fill:#585455;}
	.st178{fill:#424142;}
	.st179{fill:#4B494A;}
	.st180{fill:#4E4A4B;}
	.st181{fill:#423F40;}
	.st182{fill:#403F40;}
	.st183{fill:#403E40;}
	.st184{fill:#3D3A3B;}
	.st185{fill:#3C3939;}
	.st186{fill:#504D50;}
	.st187{fill:#3C393B;}
	.st188{fill:#3A383B;}
	.st189{fill:#383536;}
	.st190{fill:#545252;}
	.st191{fill:#575355;}
	.st192{fill:#494749;}
	.st193{fill:#4F4D4F;}
	.st194{fill:#52504F;}
	.st195{fill:#393537;}
	.st196{fill:#4A4749;}
	.st197{fill:#4A494B;}
	.st198{fill:#3A383A;}
	.st199{fill:#4D4849;}
	.st200{fill:#504D4E;}
	.st201{fill:#3F3C3C;}
	.st202{fill:#4E4A4C;}
	.st203{fill:#504D4D;}
	.st204{fill:#514F4F;}
	.st205{fill:#3F3C3D;}
	.st206{fill:#545050;}
	.st207{fill:#2D2A2B;}
	.st208{fill:#434041;}
	.st209{fill:#535151;}
	.st210{fill:#595656;}
	.st211{fill:#524E4F;}
	.st212{fill:#3B383A;}
	.st213{fill:#2E2A2B;}
	.st214{fill:#494548;}
	.st215{fill:#5A5757;}
	.st216{fill:#514E4D;}
	.st217{fill:#565252;}
	.st218{fill:#3B3939;}
	.st219{fill:#5C5656;}
	.st220{fill:#585656;}
	.st221{fill:#434042;}
	.st222{fill:#1D1B1C;}
	.st223{fill:#2B2929;}
	.st224{fill:#4C494C;}
	.st225{fill:#555354;}
	.st226{fill:#4D484B;}
	.st227{fill:#5A585A;}
	.st228{fill:#4B484A;}
	.st229{fill:#504E50;}
	.st230{fill:#373236;}
	.st231{fill:#474143;}
	.st232{fill:#2B2D3A;}
	.st233{fill:#524C4E;}
	.st234{fill:#3D383C;}
	.st235{fill:#211E21;}
	.st236{fill:#3E3A3C;}
	.st237{fill:#373234;}
	.st238{fill:#464344;}
	.st239{fill:#575353;}
	.st240{fill:#575352;}
	.st241{fill:#605D5F;}
	.st242{fill:#393638;}
	.st243{fill:#3A3536;}
	.st244{fill:#5F5B5C;}
	.st245{fill:#484647;}
	.st246{fill:#454244;}
	.st247{fill:#514D4D;}
	.st248{fill:#595556;}
	.st249{fill:#555150;}
	.st250{fill:#675D5A;}
	.st251{fill:#474243;}
	.st252{fill:#514D4E;}
	.st253{fill:#5B5757;}
	.st254{fill:#524F4F;}
	.st255{fill:#474344;}
	.st256{fill:#454141;}
	.st257{fill:#494345;}
	.st258{fill:#555151;}
	.st259{fill:#3C3738;}
	.st260{fill:#4C4849;}
	.st261{fill:#4B4647;}
	.st262{fill:#E3E2E3;}
	.st263{fill:#434143;}
	.st264{fill:#292B36;}
	.st265{fill:#3E3B3E;}
	.st266{fill:#413E40;}
	.st267{fill:#373436;}
	.st268{fill:#3C383B;}
	.st269{fill:#535050;}
	.st270{fill:#3B3A3C;}
	.st271{fill:#3A393A;}
	.st272{fill:#514E50;}
	.st273{fill:#504D4F;}
	.st274{fill:#4E4C4E;}
	.st275{fill:#585355;}
	.st276{fill:#3D3A3D;}
	.st277{fill:#3B373A;}
	.st278{fill:#403D3E;}
	.st279{fill:#454040;}
	.st280{fill:#53504F;}
	.st281{fill:#585454;}
	.st282{fill:#2C2829;}
	.st283{fill:#4E4C4D;}
	.st284{fill:#4C4A4C;}
	.st285{fill:#4F4E50;}
	.st286{fill:#424042;}
	.st287{fill:#3E3B3D;}
	.st288{fill:#504E4F;}
	.st289{fill:#514F51;}
	.st290{fill:#383638;}
	.st291{fill:#41414B;}
	.st292{fill:#4E4D4F;}
	.st293{fill:#3A393B;}
	.st294{fill:#464243;}
	.st295{fill:#383436;}
	.st296{fill:#525050;}
	.st297{fill:#575555;}
	.st298{fill:#545151;}
	.st299{fill:#444244;}
	.st300{fill:#494849;}
	.st301{fill:#414041;}
	.st302{fill:#555252;}
	.st303{fill:#4D4B4D;}
	.st304{fill:#3D3C3E;}
	.st305{fill:#555455;}
	.st306{fill:#413D40;}
	.st307{fill:#575557;}
	.st308{fill:#3E3D3E;}
	.st309{fill:#4F4E4F;}
	.st310{fill:#525153;}
	.st311{fill:#575757;}
	.st312{fill:#515051;}
	.st313{fill:#3F3E3F;}
	.st314{fill:#515150;}
	.st315{fill:#5B5A5A;}
	.st316{fill:#373536;}
	.st317{fill:#393939;}
	.st318{fill:#3C3A3A;}
	.st319{fill:#5D5B5E;}
	.st320{fill:#393334;}
	.st321{fill:#444344;}
	.st322{fill:#514F50;}
	.st323{fill:#3A373A;}
	.st324{fill:#504F4F;}
	.st325{fill:#484648;}
	.st326{fill:#565454;}
	.st327{fill:#4E4D4E;}
	.st328{fill:#545353;}
	.st329{fill:#373537;}
	.st330{fill:#363537;}
	.st331{fill:#464446;}
	.st332{fill:#3E3C3E;}
	.st333{fill:#3A3739;}
	.st334{fill:#363336;}
	.st335{fill:#565153;}
	.st336{fill:#353436;}
	.st337{fill:#525150;}
	.st338{fill:#413D3F;}
	.st339{fill:#3F3B3D;}
	.st340{fill:#5C5759;}
	.st341{fill:#575455;}
	.st342{fill:#4F4D50;}
	.st343{fill:#5A5657;}
	.st344{fill:#444143;}
	.st345{fill:#403C3D;}
	.st346{fill:#2C292A;}
	.st347{fill:#332E30;}
	.st348{fill:#585556;}
	.st349{fill:#524E50;}
	.st350{fill:#3E3D3D;}
	.st351{fill:#393739;}
	.st352{fill:#39383A;}
	.st353{fill:#656265;}
	.st354{fill:#454344;}
	.st355{fill:#504C4E;}
	.st356{fill:#545254;}
	.st357{fill:#5B5959;}
	.st358{fill:#464546;}
	.st359{fill:#474546;}
	.st360{fill:#2B2A2A;}
	.st361{fill:#2E2C2C;}
	.st362{fill:#5A5858;}
	.st363{fill:#353335;}
	.st364{fill:#484547;}
	.st365{fill:#424141;}
	.st366{fill:#575656;}
	.st367{fill:#403F3F;}
	.st368{fill:#595555;}
	.st369{fill:#605E5E;}
	.st370{fill:#626162;}
	.st371{fill:#636060;}
	.st372{fill:#555353;}
	.st373{fill:#555355;}
	.st374{fill:#5F5C5D;}
	.st375{fill:#5B5556;}
	.st376{fill:#595657;}
	.st377{fill:#5D5B5B;}
	.st378{fill:#403B3C;}
	.st379{fill:#565354;}
	.st380{fill:#3C393C;}
	.st381{fill:#3F3C3F;}
	.st382{fill:#504C4F;}
	.st383{fill:#3E3A3D;}
	.st384{fill:#3A3738;}
	.st385{fill:#524F51;}
	.st386{fill:#5A595A;}
	.st387{fill:#535053;}
	.st388{fill:#555253;}
	.st389{fill:#605E60;}
	.st390{fill:#2B292A;}
	.st391{fill:#403D40;}
	.st392{fill:#504F50;}
	.st393{fill:#474548;}
	.st394{fill:#545354;}
	.st395{fill:#2A2F40;}
	.st396{fill:#595658;}
	.st397{fill:#5B5758;}
	.st398{fill:#545253;}
	.st399{fill:#2B3144;}
	.st400{fill:#37353D;}
	.st401{fill:#2E3447;}
	.st402{fill:#353A4E;}
	.st403{fill:#2F303B;}
	.st404{fill:#393536;}
	.st405{fill:#211F20;}
	.st406{fill:#484748;}
	.st407{fill:#4C4848;}
	.st408{fill:#433E3E;}
	.st409{fill:#2B2B37;}
	.st410{fill:#CCCBCC;}
	.st411{fill:#4A4646;}
	.st412{fill:#48423F;}
	.st413{fill:#3F3B3B;}
	.st414{fill:#3C3735;}
	.st415{fill:#403D3D;}
	.st416{fill:#3D393A;}
	.st417{fill:#393535;}
	.st418{fill:#393332;}
	.st419{fill:#3E3938;}
	.st420{fill:#383637;}
	.st421{fill:#5B5250;}
	.st422{fill:#383434;}
	.st423{fill:#E4E3E4;}
	.st424{fill:#CAC9CB;}
	.st425{fill:#363335;}
	.st426{fill:#524E4E;}
	.st427{fill:#595758;}
	.st428{fill:#4F4B4D;}
	.st429{fill:#5D595A;}
	.st430{fill:#5B595A;}
	.st431{fill:#5A5758;}
	.st432{fill:#3C3A3C;}
	.st433{fill:#514F4E;}
	.st434{fill:#565355;}
	.st435{fill:#383435;}
	.st436{fill:#4E4B4B;}
	.st437{fill:#484545;}
	.st438{fill:#555352;}
	.st439{fill:#555454;}
	.st440{fill:#383738;}
	.st441{fill:#484446;}
	.st442{fill:#4E4E4F;}
	.st443{fill:#454243;}
	.st444{fill:#565456;}
	.st445{fill:#3E3B3C;}
	.st446{fill:#5A5959;}
	.st447{fill:#5D5A5A;}
	.st448{fill:#403C3E;}
	.st449{fill:#444042;}
	.st450{fill:#444242;}
	.st451{fill:#545051;}
	.st452{fill:#413F3F;}
	.st453{fill:#3F3D3D;}
	.st454{fill:#574E4F;}
	.st455{fill:#444141;}
	.st456{fill:#343133;}
	.st457{fill:#555051;}
	.st458{fill:#383739;}
	.st459{fill:#3F3838;}
	.st460{fill:#575357;}
	.st461{fill:#5D5D5B;}
	.st462{fill:#3F3B3E;}
	.st463{fill:#423D3D;}
	.st464{fill:#3E3D3F;}
	.st465{fill:#4C4B4D;}
	.st466{fill:#3D3C3D;}
	.st467{fill:#3E3E3F;}
	.st468{fill:#433F42;}
	.st469{fill:#3D3B3E;}
	.st470{fill:#3B393B;}
	.st471{fill:#505050;}
	.st472{fill:#383538;}
	.st473{fill:#4F4B4B;}
	.st474{fill:#3E3A3A;}
	.st475{fill:#575253;}
	.st476{fill:#3A3737;}
	.st477{fill:#272424;}
	.st478{fill:#363333;}
	.st479{fill:#585256;}
	.st480{fill:#555456;}
	.st481{fill:#5D5B5C;}
	.st482{fill:#3E393B;}
	.st483{fill:#363334;}
	.st484{fill:#4C4A4D;}
	.st485{fill:#4B4A4B;}
	.st486{fill:#595757;}
	.st487{fill:#535252;}
	.st488{fill:#4D4C4E;}
	.st489{fill:#575657;}
	.st490{fill:#535353;}
	.st491{fill:#565554;}
	.st492{fill:#3A3839;}
	.st493{fill:#4A484A;}
	.st494{fill:#373538;}
	.st495{fill:#3F3B3A;}
	.st496{fill:#424040;}
	.st497{fill:#322F2F;}
	.st498{fill:#434244;}
	.st499{fill:#434043;}
	.st500{fill:#585655;}
	.st501{fill:#414042;}
	.st502{fill:#3E3C3C;}
	.st503{fill:#3C3C3D;}
	.st504{fill:#373638;}
	.st505{fill:#595453;}
	.st506{fill:#443D3B;}
	.st507{fill:#5B5858;}
	.st508{fill:#525252;}
	.st509{fill:#5C5A5B;}
	.st510{fill:#535253;}
	.st511{fill:#616060;}
	.st512{fill:#565556;}
	.st513{fill:#5C5858;}
	.st514{fill:#4B4749;}
	.st515{fill:#4D4C4F;}
	.st516{fill:#595858;}
	.st517{fill:#2B2829;}
	.st518{fill:#2D292A;}
	.st519{fill:#4C4A4A;}
	.st520{fill:#545554;}
	.st521{fill:#373535;}
	.st522{fill:#515151;}
	.st523{fill:#504E51;}
	.st524{fill:#555453;}
	.st525{fill:#535052;}
	.st526{fill:#575354;}
	.st527{fill:#595A5B;}
	.st528{fill:#575252;}
	.st529{fill:#3B3738;}
	.st530{fill:#585758;}
	.st531{fill:#585658;}
	.st532{fill:#252323;}
	.st533{fill:#595558;}
	.st534{fill:#504E4D;}
	.st535{fill:#3B383B;}
	.st536{fill:#565555;}
	.st537{fill:#545454;}
	.st538{fill:#3D383A;}
	.st539{fill:#5E5B5B;}
	.st540{fill:#626163;}
	.st541{fill:#403E3E;}
	.st542{fill:#5E5E5E;}
	.st543{fill:#403E41;}
	.st544{fill:#403F41;}
	.st545{fill:#2E2B2D;}
	.st546{fill:#312F30;}
	.st547{fill:#353236;}
	.st548{fill:#3C3945;}
	.st549{fill:#48434F;}
	.st550{fill:#49454F;}
	.st551{fill:#32394D;}
	.st552{fill:#4C4A4E;}
	.st553{fill:#545052;}
	.st554{fill:#59575A;}
	.st555{fill:#5E5A5A;}
	.st556{fill:#585657;}
	.st557{fill:#575556;}
	.st558{fill:#5A5A5A;}
	.st559{fill:#4C4B4C;}
	.st560{fill:#4B494B;}
	.st561{fill:#2C2A2A;}
	.st562{fill:#363435;}
	.st563{fill:#373637;}
	.st564{fill:#3B3A3A;}
	.st565{fill:#444446;}
	.st566{fill:#2F2C2D;}
	.st567{fill:#252222;}
	.st568{fill:#343131;}
	.st569{fill:#555152;}
	.st570{fill:#5B5658;}
	.st571{fill:#5C595B;}
	.st572{fill:#5E5B5D;}
	.st573{fill:#5A575A;}
	.st574{fill:#585859;}
	.st575{fill:#3F3A3F;}
	.st576{fill:#4A4647;}
	.st577{fill:#534F50;}
	.st578{fill:#3A3635;}
	.st579{fill:#524D4D;}
	.st580{fill:#595958;}
	.st581{fill:#3D3C3C;}
	.st582{fill:#3D3B3B;}
	.st583{fill:#383535;}
	.st584{fill:#535153;}
	.st585{fill:#5B595B;}
	.st586{fill:#535152;}
	.st587{fill:#5C5B5B;}
	.st588{fill:#434242;}
	.st589{fill:#565254;}
	.st590{fill:#434343;}
	.st591{fill:#584F4A;}
	.st592{fill:#5B5859;}
	.st593{fill:#272833;}
	.st594{fill:#434551;}
	.st595{fill:#2F313E;}
	.st596{fill:#30333E;}
	.st597{fill:#3B3C4B;}
	.st598{fill:#504C4B;}
	.st599{fill:#434243;}
	.st600{fill:#4E4C4F;}
	.st601{fill:#4C484A;}
	.st602{fill:#5B585A;}
	.st603{fill:#575554;}
	.st604{fill:#565253;}
	.st605{fill:#3C3B3B;}
	.st606{fill:#433D40;}
	.st607{fill:#585555;}
	.st608{fill:#5E5C5D;}
	.st609{fill:#585354;}
	.st610{fill:#545453;}
	.st611{fill:#5D5A5B;}
	.st612{fill:#555254;}
	.st613{fill:#504F4E;}
	.st614{fill:#363436;}
	.st615{fill:#5A595B;}
	.st616{fill:#595959;}
	.st617{fill:#3C3B3A;}
	.st618{fill:#4C4B4B;}
	.st619{fill:#595557;}
	.st620{fill:#4A474A;}
	.st621{fill:#3B3A3B;}
	.st622{fill:#383437;}
	.st623{fill:#585659;}
	.st624{fill:#535254;}
	.st625{fill:#58575A;}
	.st626{fill:#433F40;}
	.st627{fill:#534E4F;}
	.st628{fill:#3B3737;}
	.st629{fill:#5D5859;}
	.st630{fill:#605C5C;}
	.st631{fill:#2E2C2D;}
	.st632{fill:#322F30;}
	.st633{fill:#535355;}
	.st634{fill:#545455;}
	.st635{fill:#4D4D4E;}
	.st636{fill:#373739;}
	.st637{fill:#3D3D3F;}
	.st638{fill:#555556;}
	.st639{fill:#363434;}
	.st640{fill:#383939;}
	.st641{fill:#3F3E40;}
	.st642{fill:#585858;}
	.st643{fill:#5A5A5B;}
	.st644{fill:#353334;}
	.st645{fill:#444445;}
	.st646{fill:#3D3D3E;}
	.st647{fill:#565757;}
	.st648{fill:#585759;}
	.st649{fill:#5A5859;}
	.st650{fill:#575758;}
	.st651{fill:#555655;}
	.st652{fill:#5D5B5D;}
	.st653{fill:#484646;}
	.st654{fill:#585757;}
	.st655{fill:#615D5E;}
	.st656{fill:#494748;}
	.st657{fill:#4F5050;}
	.st658{fill:#534E50;}
	.st659{fill:#515152;}
	.st660{fill:#575558;}
	.st661{fill:#615E5F;}
	.st662{fill:#383737;}
	.st663{fill:#3A3639;}
	.st664{fill:#2E2A2C;}
	.st665{fill:#575153;}
	.st666{fill:#4E4E4E;}
	.st667{fill:#333132;}
	.st668{fill:#5C5B5D;}
	.st669{fill:#423E41;}
	.st670{fill:#565356;}
	.st671{fill:#5B585B;}
	.st672{fill:#5C595C;}
	.st673{fill:#373437;}
	.st674{fill:#555555;}
	.st675{fill:#4D4A55;}
	.st676{fill:#47464A;}
	.st677{fill:#575456;}
	.st678{fill:#454546;}
	.st679{fill:#5D5C5D;}
	.st680{fill:#666466;}
	.st681{fill:#5E5E5F;}
	.st682{fill:#5B5C5C;}
	.st683{fill:#424144;}
	.st684{fill:#5C5B5C;}
	.st685{fill:#545456;}
	.st686{fill:#5E5C5E;}
	.st687{fill:#5A585B;}
	.st688{fill:#515052;}
	.st689{fill:#454346;}
	.st690{fill:#5A5759;}
	.st691{fill:#595A5A;}
	.st692{fill:#433E40;}
	.st693{fill:#505051;}
	.st694{fill:#3C3A3D;}
	.st695{fill:#595859;}
	.st696{fill:#383639;}
	.st697{fill:#4E4949;}
	.st698{fill:#484344;}
	.st699{fill:#484342;}
	.st700{fill:#383336;}
	.st701{fill:#363234;}
	.st702{fill:#545251;}
	.st703{fill:#534E4E;}
	.st704{fill:#4F4949;}
	.st705{fill:#403B39;}
	.st706{fill:#413937;}
	.st707{fill:#3D3939;}
	.st708{fill:#494546;}
	.st709{fill:#413E3D;}
	.st710{fill:#504B4B;}
	.st711{fill:#565656;}
	.st712{fill:#565657;}
	.st713{fill:#5A5354;}
	.st714{fill:#463D3A;}
	.st715{fill:#5F5A5A;}
	.st716{fill:#5E5E5D;}
	.st717{fill:#3B3638;}
	.st718{fill:#3C3B3D;}
	.st719{fill:#4F4D4D;}
	.st720{fill:#4B4649;}
	.st721{fill:#5E5B5C;}
	.st722{fill:#5D585A;}
	.st723{fill:#3E3E3E;}
	.st724{fill:#3A3939;}
	.st725{fill:#3F3F40;}
	.st726{fill:#5D5A5C;}
	.st727{fill:#605E5F;}
	.st728{fill:#5C595A;}
	.st729{fill:#5C5A5A;}
	.st730{fill:#5B5B5B;}
	.st731{fill:#585756;}
	.st732{fill:#575658;}
	.st733{fill:#413E41;}
	.st734{fill:#514E52;}
	.st735{fill:#38373A;}
	.st736{fill:#424143;}
	.st737{fill:#646265;}
	.st738{fill:#39373A;}
	.st739{fill:#5A5555;}
	.st740{fill:#444343;}
	.st741{fill:#5C5C5E;}
	.st742{fill:#3A3A3A;}
	.st743{fill:#5B5A5C;}
	.st744{fill:#2D2B2C;}
	.st745{fill:#555154;}
	.st746{fill:#565557;}
	.st747{fill:#545154;}
	.st748{fill:#545556;}
	.st749{fill:#615D5F;}
	.st750{fill:#5B5A5B;}
	.st751{fill:#555255;}
	.st752{fill:#444345;}
	.st753{fill:#606060;}
	.st754{fill:#575457;}
	.st755{fill:#575756;}
	.st756{fill:#2C2A2B;}
	.st757{fill:#292727;}
	.st758{fill:#504F51;}
	.st759{fill:#545553;}
	.st760{fill:#5F5F5E;}
	.st761{fill:#585557;}
	.st762{fill:#393538;}
	.st763{fill:#5E595C;}
	.st764{fill:#39383B;}
	.st765{fill:#616260;}
	.st766{fill:#545457;}
	.st767{fill:#474648;}
	.st768{fill:#5D5659;}
	.st769{fill:#464547;}
	.st770{fill:#5F5E60;}
	.st771{fill:#403C3F;}
	.st772{fill:#5C5A5C;}
	.st773{fill:#5A5958;}
	.st774{fill:#696667;}
	.st775{fill:#4B4B4C;}
	.st776{fill:#4A4649;}
	.st777{fill:#5F5D5D;}
	.st778{fill:#5B5759;}
	.st779{fill:#4D4B4B;}
	.st780{fill:#4F4D4C;}
	.st781{fill:#605A5B;}
	.st782{fill:#464342;}
	.st783{fill:#5C5958;}
	.st784{fill:#565452;}
	.st785{fill:#3C3839;}
	.st786{fill:#3C383A;}
	.st787{fill:#575453;}
	.st788{fill:#544F4F;}
	.st789{fill:#605B5B;}
	.st790{fill:#5C5C5D;}
	.st791{fill:#373738;}
	.st792{fill:#535354;}
	.st793{fill:#605D5E;}
	.st794{fill:#3D3A3A;}
	.st795{fill:#5D5D5E;}
	.st796{fill:#3A3537;}
	.st797{fill:#363536;}
	.st798{fill:#5A5556;}
	.st799{fill:#414142;}
	.st800{fill:#474345;}
	.st801{fill:#5F5D5F;}
	.st802{fill:#535251;}
	.st803{fill:#454446;}
	.st804{fill:#626363;}
	.st805{fill:#59585A;}
	.st806{fill:#5E5A5D;}
	.st807{fill:#39393A;}
	.st808{fill:#393639;}
	.st809{fill:#363235;}
	.st810{fill:#3A3838;}
	.st811{fill:#4A4A4B;}
	.st812{fill:#484749;}
	.st813{fill:#454445;}
	.st814{fill:#3F3E3E;}
	.st815{fill:#595659;}
	.st816{fill:#535454;}
	.st817{fill:#5E5D5E;}
	.st818{fill:#5E5A5C;}
	.st819{fill:#59595C;}
	.st820{fill:#585554;}
	.st821{fill:#5E5D60;}
	.st822{fill:#353435;}
	.st823{fill:#525253;}
	.st824{fill:#535054;}
	.st825{fill:#5B5B5A;}
	.st826{fill:#525254;}
	.st827{fill:#525259;}
	.st828{fill:#5E5C5F;}
	.st829{fill:#37363A;}
	.st830{fill:#3B393D;}
	.st831{fill:#525251;}
	.st832{fill:#3C3B3E;}
	.st833{fill:#595A59;}
	.st834{fill:#353133;}
	.st835{fill:#5B5657;}
	.st836{fill:#615D5D;}
	.st837{fill:#595456;}
	.st838{fill:#5E5B5A;}
	.st839{fill:#413B3D;}
	.st840{fill:#444041;}
	.st841{fill:#5F5E5E;}
	.st842{fill:#504D4C;}
	.st843{fill:#535352;}
	.st844{fill:#5E5D5D;}
	.st845{fill:#393838;}
	.st846{fill:#635D5E;}
	.st847{fill:#424043;}
	.st848{fill:#5D5C5C;}
	.st849{fill:#59585B;}
	.st850{fill:#434144;}
	.st851{fill:#4A484B;}
	.st852{fill:#575559;}
	.st853{fill:#444144;}
	.st854{fill:#565458;}
	.st855{fill:#434344;}
	.st856{fill:#3B3A3D;}
	.st857{fill:#5C585B;}
	.st858{fill:#413F42;}
	.st859{fill:#373639;}
	.st860{fill:#585456;}
	.st861{fill:#615E5E;}
	.st862{fill:#58585A;}
	.st863{fill:#616161;}
	.st864{fill:#5A5C5D;}
	.st865{fill:#575759;}
	.st866{fill:#3B3B3B;}
	.st867{fill:#5C585A;}
	.st868{fill:#414040;}
	.st869{fill:#3E3E40;}
	.st870{fill:#3F3D40;}
	.st871{fill:#626264;}
	.st872{fill:#555357;}
	.st873{fill:#6D6A6C;}
	.st874{fill:#535154;}
	.st875{fill:#59595A;}
	.st876{fill:#565756;}
	.st877{fill:#524F52;}
	.st878{fill:#565655;}
	.st879{fill:#3A3B3B;}
	.st880{fill:#5E5D5F;}
	.st881{fill:#514F52;}
	.st882{fill:#525355;}
	.st883{fill:#4F4F51;}
	.st884{fill:#56565C;}
	.st885{fill:#535258;}
	.st886{fill:#515155;}
	.st887{fill:#5C5757;}
	.st888{fill:#404040;}
	.st889{fill:#4B4848;}
	.st890{fill:#504B4D;}
	.st891{fill:#565453;}
	.st892{fill:#595756;}
	.st893{fill:#525453;}
	.st894{fill:#5C5B5E;}
	.st895{fill:#615F60;}
	.st896{fill:#605D5D;}
	.st897{fill:#565658;}
	.st898{fill:#595759;}
	.st899{fill:#363637;}
	.st900{fill:#535255;}
	.st901{fill:#605F61;}
	.st902{fill:#454143;}
	.st903{fill:#444043;}
	.st904{fill:#464447;}
	.st905{fill:#5A5B5A;}
	.st906{fill:#565255;}
	.st907{fill:#3D383B;}
	.st908{fill:#3E393C;}
	.st909{fill:#5B5B5D;}
	.st910{fill:#645F60;}
	.st911{fill:#353535;}
	.st912{fill:#5C5758;}
	.st913{fill:#5C5859;}
	.st914{fill:#343334;}
	.st915{fill:#4F4E4D;}
	.st916{fill:#403B3D;}
	.st917{fill:#3E3C3F;}
	.st918{fill:#5C5A5F;}
	.st919{fill:#3B393C;}
	.st920{fill:#555457;}
	.st921{fill:#585558;}
	.st922{fill:#3F3F41;}
	.st923{fill:#545352;}
	.st924{fill:#555557;}
	.st925{fill:#565457;}
	.st926{fill:#605F60;}
	.st927{fill:#4C494D;}
	.st928{fill:#383736;}
	.st929{fill:#625D60;}
	.st930{fill:#5F5A5C;}
	.st931{fill:#3A373B;}
	.st932{fill:#5C5C5C;}
	.st933{fill:#4E4E50;}
	.st934{fill:#3A3637;}
	.st935{fill:#595857;}
	.st936{fill:#605E5D;}
	.st937{fill:#555657;}
	.st938{fill:#626061;}
	.st939{fill:#5B595C;}
	.st940{fill:#3D393C;}
	.st941{fill:#3B3C3C;}
	.st942{fill:#636061;}
	.st943{fill:#50504F;}
	.st944{fill:#5C5A59;}
	.st945{fill:#555654;}
	.st946{fill:#454245;}
	.st947{fill:#5C5E5F;}
	.st948{fill:#313131;}
	.st949{fill:#1BE0E6;}
	.st950{fill:none;stroke:#000000;stroke-miterlimit:10;}
	.st951{fill:#FFFFFF;stroke:#000000;stroke-miterlimit:10;}
	.st952{fill:#663399;}
	.st953{fill:#262B3E;}
</style>
<g>
	<g>
		<g>
			<g class="st16">
				<g>
					<path class="st11" d="M9.2075548,2.0420153C8.5676479,1.4461905,7.8004699,1.0053655,6.927352,0.7294943
						C6.0613441,0.4578892,4.6954975,0.3199537,2.8689177,0.3199537H0v13.2119522h4.2916451
						c1.686511,0,3.0061421-0.261651,3.9233427-0.7764206c0.9150667-0.5161924,1.6502495-1.2911911,2.1856384-2.3036671
						c0.5297012-1.0067873,0.7984619-2.0932074,0.7984619-3.2322421c0-1.1319251-0.1727743-2.1372905-0.5140581-2.989078
						C10.3430347,3.3730223,9.8460398,2.63784,9.2075548,2.0420153z M9.4820042,7.0503564
						c0,0.8077049-0.1322479,1.5343556-0.392477,2.1571984c-0.2588062,0.618577-0.6406183,1.1504107-1.1340575,1.5827036
						c-0.4905958,0.4294491-1.0714893,0.7209625-1.7270389,0.8674307c-0.6754575,0.1493111-1.7874742,0.224678-3.3061874,0.224678
						H1.6637589v-9.878746h0.6889669c1.5101812,0,2.6655695,0.0782108,3.4341691,0.2360547
						c0.7486916,0.1507337,1.4092178,0.4507792,1.9623823,0.890182c0.5496092,0.436559,0.9797688,1.0010996,1.2798147,1.6794014
						C9.3298483,5.4889827,9.4820042,6.242651,9.4820042,7.0503564z"/>
					<rect x="13.0576639" y="0.3199537" class="st11" width="1.7170845" height="13.2119522"/>
					<path class="st11" d="M24.5304909,6.6763659c0.8212128-0.6626596,1.2378635-1.5855479,1.2378635-2.7402251
						c0-0.5759165-0.1151829-1.1091726-0.3412838-1.5869701c-0.2282333-0.4820634-0.5467644-0.8802279-0.9456406-1.1816955
						c-0.3981647-0.3043114-0.8773842-0.5247239-1.4255714-0.6541274c-0.5453434-0.1294035-1.5165787-0.1933942-2.9677467-0.1933942
						h-2.7622662v13.2119522h1.7177944V7.5907226h0.4038525l4.5888462,5.9411836h2.1365795l-4.6044884-5.9383397
						C22.8112717,7.5693922,23.8066845,7.2622366,24.5304909,6.6763659z M21.1425362,5.9070554
						c-0.036972,0-0.0739441,0-0.1116276-0.0014224h-1.9872684V2.0036209h2.0405941
						c1.0195847,0,1.7746754,0.1606877,2.2446518,0.4777973c0.449358,0.3028896,0.6683483,0.7849531,0.6683483,1.4717867
						c0,0.689678-0.2218342,1.1745856-0.6783028,1.484585C22.8589096,5.7492113,22.1279945,5.9070554,21.1425362,5.9070554z"/>
					<polygon class="st11" points="28.0705986,13.5319061 35.7829056,13.5319061 35.7829056,11.8297529 29.7883949,11.8297529 
						29.7883949,7.2494383 35.7829056,7.2494383 35.7829056,5.5686154 29.7883949,5.5686154 29.7883949,2.020685 
						35.8362312,2.020685 35.8362312,0.3199537 28.0705986,0.3199537 					"/>
					<path class="st11" d="M48.5447884,10.1802139c-1.1489906,1.3423834-2.6072655,2.0221071-4.3350182,2.0221071
						c-1.5464401,0-2.8504295-0.5019722-3.8764153-1.4931173c-1.0245628-0.9911451-1.5443077-2.2439413-1.5443077-3.7228384
						s0.5318336-2.7444911,1.5798607-3.7640767c1.0487366-1.0210075,2.317173-1.5386214,3.7704735-1.5386214
						c1.7853432,0,3.2656593,0.7138522,4.4011421,2.1230702l0.133667,0.1663759l1.3331413-1.0252738l-0.1222916-0.1706419
						c-0.6384888-0.8930261-1.4689445-1.5869701-2.4679108-2.0619235C46.4217186,0.2417427,45.2826843,0,44.0327301,0
						c-1.2527962,0-2.4408913,0.3028894-3.5301552,0.8972922c-1.0928192,0.5986689-1.958828,1.4390805-2.5738487,2.4956384
						c-0.6157341,1.0537143-0.9278641,2.2183452-0.9278641,3.4626093c0,2.0064654,0.6740341,3.6929765,2.0043297,5.0111852
						c1.3274536,1.3167868,3.0552025,1.9851351,5.1341896,1.9851351c1.1888046,0,2.2901573-0.2261009,3.2734833-0.6697702
						c0.9883003-0.4450912,1.8187561-1.1049061,2.4686203-1.9609604l0.130825-0.1734858l-1.3331413-1.0252733L48.5447884,10.1802139
						z"/>
					<polygon class="st11" points="50.7873077,2.0036209 53.6512489,2.0036209 53.6512489,13.5319061 55.3868179,13.5319061 
						55.3868179,2.0036209 58.2329826,2.0036209 58.2329826,0.3199537 50.7873077,0.3199537 					"/>
					<path class="st11" d="M69.4974823,0.9086683C68.420311,0.3057335,67.2407455,0,65.9929276,0
						c-1.2463989,0-2.4174271,0.3099995-3.4803848,0.9186224c-1.060112,0.608623-1.9076347,1.4632547-2.5176811,2.5368769
						c-0.609333,1.0693562-0.9179115,2.2553174-0.9179115,3.5237558c0,1.2314658,0.3121338,2.3932538,0.9278679,3.4526553
						c0.6157303,1.0622463,1.472496,1.9055014,2.5461197,2.5098591c1.0743332,0.6029348,2.2503395,0.9100904,3.4953117,0.9100904
						c1.2456894,0,2.4195633-0.3100004,3.4874954-0.9214668c1.0693588-0.6100454,1.9197235-1.4604111,2.5283432-2.5255013
						c0.6093369-1.0665121,0.9179153-2.2396755,0.9179153-3.4882054c0-1.247108-0.3121338-2.4216933-0.9278641-3.4896276
						C71.4342728,2.3577027,70.5746613,1.5101812,69.4974823,0.9086683z M71.2088852,6.9237967
						c0,1.5101814-0.5076599,2.7757759-1.5087585,3.7598104c-1.0025253,0.9854574-2.2347031,1.4845858-3.6631165,1.4845858
						c-1.4255753,0-2.6605949-0.5105038-3.6702232-1.5201359c-1.0082092-1.0067873-1.5194244-2.2567396-1.5194244-3.7143059
						c0-1.4561448,0.496994-2.7103629,1.4774742-3.7256825c0.9783478-1.0124757,2.2154999-1.5244014,3.6766205-1.5244014
						c1.4291306,0,2.6669922,0.5105038,3.6794662,1.5187132C70.6948242,4.2105899,71.2088852,5.4619641,71.2088852,6.9237967z"/>
					<path class="st11" d="M79.4004059,7.5935664c1.2435532-0.0241742,2.2389679-0.3313298,2.962059-0.9172006
						c0.8212128-0.6626596,1.2378693-1.5855479,1.2378693-2.7402251c0-0.5759165-0.1151886-1.1091726-0.3412857-1.5869701
						c-0.2268143-0.4806415-0.5453415-0.878806-0.944931-1.1816955c-0.3988724-0.3043114-0.8788071-0.5247239-1.4262848-0.6541274
						c-0.5453415-0.1294035-1.5165787-0.1933942-2.9677429-0.1933942h-2.7615585v13.2119522h1.7177963V7.5907226h0.4031448
						l4.5241394,5.8558621l0.0654144,0.0853214h2.1365814L79.4004059,7.5935664z M78.8635941,5.905633h-1.9872665V2.0036209
						h2.040596c1.0195847,0,1.7746735,0.1606877,2.2439423,0.4777973c0.4493561,0.3028896,0.6683426,0.7849531,0.6683426,1.4717867
						c0,0.689678-0.2218323,1.1745856-0.6775894,1.484585c-0.460022,0.3114214-1.1909409,0.4692655-2.1763992,0.4692655
						C78.9382477,5.9070554,78.9012756,5.9070554,78.8635941,5.905633z"/>
				</g>
			</g>
		</g>
		<g id="Artboard_129_">
			<g class="st16">
				<path class="st11" d="M0,25.0120049c0-1.1207619,0.2689151-2.154705,0.807873-3.1029549
					s1.2769241-1.6924171,2.2144628-2.2313747c0.9375384-0.5378304,1.958514-0.8073101,3.0634902-0.8073101
					c1.1044126,0,2.1332808,0.2660961,3.0871687,0.7994175c0.9538879,0.5333195,1.7025652,1.2718487,2.2465973,2.2144623
					c0.5440321,0.9437389,0.816329,1.9664059,0.816329,3.0713825s-0.2694788,2.1287708-0.8078728,3.0713825
					c-0.5389576,0.9426136-1.2797432,1.6833992-2.2229195,2.2223568c-0.9426117,0.5389576-1.9664063,0.8084354-3.0708189,0.8084354
					c-1.1049762,0-2.1315894-0.2672234-3.0792758-0.8005428c-0.9488137-0.5333214-1.6946728-1.2684689-2.2387044-2.2065716
					C0.271734,27.1137142,0,26.1011944,0,25.0120049z M11.0238295,24.9635201c0-1.3902397-0.4825811-2.5639954-1.4466162-3.5235214
					c-0.9645996-0.9595242-2.1259522-1.4387245-3.4834943-1.4387245c-1.3902407,0-2.5515935,0.4825821-3.4834943,1.4466171
					c-0.931901,0.9651642-1.3981334,2.1389179-1.3981334,3.5235214c0,1.3857307,0.4791989,2.5572319,1.4387242,3.5156288
					c0.9589617,0.9595261,2.1174955,1.4387245,3.4750381,1.4387245c1.3581057,0,2.5138206-0.4679241,3.467145-1.4060268
					C10.5468864,27.5827656,11.0238295,26.3966064,11.0238295,24.9635201z"/>
				<path class="st11" d="M14.3697662,22.1830387H15.48489v1.5356922c0.8839817-1.1737556,1.9562588-1.761198,3.2168331-1.761198
					c0.646637,0,1.2284412,0.1747665,1.7459755,0.5254288c0.5169716,0.3495331,0.8834171,0.8073082,1.0987759,1.3733273
					c0.2159214,0.5660191,0.3236008,1.3981323,0.3236008,2.4974728v4.4131393h-1.0993404v-4.0895405
					c0-1.0023708-0.0456638-1.6811428-0.137558-2.0374413c-0.0913296-0.3551693-0.2317066-0.6562195-0.4200039-0.9042759
					c-0.1888599-0.2480564-0.4284592-0.4363537-0.7193623-0.5660191c-0.2909012-0.1296654-0.643816-0.1939335-1.0587463-0.1939335
					s-0.8219681,0.1026039-1.2205486,0.3066864c-0.3985806,0.2052097-0.7379665,0.4904747-1.0181561,0.8569202
					c-0.2801905,0.3664474-0.4684877,0.7441692-0.5660191,1.1320381c-0.0969667,0.3878689-0.1454506,1.1692448-0.1454506,2.3430004
					v3.152565h-1.1151237V22.1830387z"/>
				<path class="st11" d="M24.0474663,18.8755245h2.3689175c1.4019413,0,2.3186607,0.0554543,2.7490063,0.1652069
					c0.4309216,0.1109085,0.8254528,0.3038406,1.1841698,0.5799541s0.6377182,0.6203899,0.8364277,1.0351372
					c0.1987095,0.4135933,0.2980652,0.8745537,0.2980652,1.3828793c0,0.8167896-0.2206612,1.4845448-0.6625576,2.0032692
					c-0.4413204,0.5198803-0.9964352,0.8479824-1.6641922,0.9854603c-0.6683331,0.1386356-1.6924953,0.2079525-3.0724869,0.2079525
					h-0.8445148v5.531517h-1.1928349V18.8755245z M25.2403011,20.0342789v4.0573692h2.0038452
					c1.2032318,0.0231075,2.0038471-0.1732922,2.401844-0.5868855c0.397419-0.4147472,0.5961285-0.9034348,0.5961285-1.4660606
					c0-1.3366661-0.9663982-2.0044231-2.8986168-2.0044231H25.2403011z"/>
				<path class="st11" d="M33.3787422,22.1830387h1.1314735v1.2447891c0.3016129-0.506258,0.5953331-0.8783417,0.8805962-1.1151237
					c0.2858276-0.2367802,0.6037903-0.3551712,0.9538879-0.3551712s0.7030144,0.0969677,1.0587463,0.2909031l-0.5818024,0.9369736
					c-0.1618004-0.0969658-0.3292389-0.1454506-0.5011864-0.1454506c-0.3343124,0-0.649456,0.1725121-0.9454308,0.5175362
					c-0.2965393,0.3450222-0.5147171,0.7892685-0.6550941,1.3338642c-0.1398125,0.5434666-0.2097168,1.5323086-0.2097168,2.965395
					v2.9101467h-1.1314735V22.1830387z"/>
				<path class="st11" d="M45.8892212,27.9863148c0.3780174,0,0.7560349,0,1.1340485,0
					c-0.1408081,0.3921986-0.7132339,1.8392868-2.2301598,2.6025181c-0.9121742,0.4588108-1.7653809,0.4690819-2.0716896,0.4690819
					c-1.2932625,0-2.3599052-0.4444904-3.2004852-1.3340969c-0.8405609-0.888361-1.2611237-1.9585037-1.2611237-3.2088699
					c0-1.2491207,0.422821-2.3214417,1.2690239-3.2157173c0.8456383-0.8952084,1.8914223-1.341568,3.1356621-1.341568
					c1.2447815,0,2.2900047,0.4149208,3.1362076,1.2447643c0.8456383,0.8298416,1.2848206,1.96068,1.317524,3.3937626h-7.7269554
					c0.0327034,1.0349674,0.3585625,1.8673,0.9781418,2.4973087c0.6195602,0.6303196,1.3710594,0.9462566,2.255043,0.9462566
					C44.0789795,30.0397549,45.1676025,29.3552761,45.8892212,27.9863148z M45.8892136,25.642292
					c-0.1505241-0.8185844-0.5276794-1.4601479-1.1314735-1.9235611c-0.6032257-0.462286-1.2983437-0.6945572-2.0847969-0.6945572
					c-1.6163063,0-2.672802,0.8727055-3.1683502,2.6181183H45.8892136z"/>
				<path class="st11" d="M49.1708832,22.1830387h1.0993385v1.4872074c0.7650261-1.1421833,1.7448463-1.7127132,2.9422798-1.7127132
					c0.6359253,0,1.2042007,0.1804047,1.7048225,0.541214c0.5006218,0.3608074,0.8377495,0.870451,1.0102615,1.5277977
					c0.3563004-0.668623,0.8084373-1.1805191,1.3575439-1.5356903c0.5502319-0.3562984,1.1827736-0.5333214,1.8987541-0.5333214
					c0.7171059,0,1.3665619,0.2773724,1.9483681,0.8321152c0.5818024,0.5547428,0.8727036,1.6518269,0.8727036,3.2889957v4.6882572
					h-1.130909v-4.6882572c0-0.7858849-0.0484848-1.3654346-0.1454506-1.7375183
					c-0.0969658-0.3709564-0.3066864-0.6844082-0.6314163-0.9369755c-0.3224716-0.2536926-0.7509308-0.3799763-1.2842522-0.3799763
					s-1.0316849,0.1781502-1.4951019,0.5333214c-0.4634132,0.3551693-0.7813759,0.8084354-0.9538841,1.357542
					c-0.1725121,0.5502319-0.2582054,1.3800926-0.2582054,2.4895782v3.3622856h-1.0835533v-4.3973541
					c0-0.9155521-0.0484848-1.5695171-0.1454506-1.9630241c-0.0969696-0.393507-0.3123245-0.7227459-0.6472015-0.9865875
					c-0.3337479-0.2638397-0.7430382-0.3957615-1.2278748-0.3957615s-0.9403572,0.1431961-1.3654366,0.4284611
					c-0.4262047,0.2852631-0.7599525,0.6765156-1.0023727,1.1714993c-0.2424164,0.4961128-0.3636246,1.3316097-0.3636246,2.5053654
					v3.6374016h-1.0993385V22.1830387z"/>
			</g>
		</g>
	</g>
</g>
</svg>
