<?xml version="1.0" encoding="utf-8"?>
<!-- Generator: Adobe Illustrator 23.1.1, SVG Export Plug-In . SVG Version: 6.00 Build 0)  -->
<svg version="1.1" id="Layer_1" xmlns="http://www.w3.org/2000/svg" xmlns:xlink="http://www.w3.org/1999/xlink" x="0px" y="0px"
	 viewBox="0 0 90.1779633 26.1704159" style="enable-background:new 0 0 90.1779633 26.1704159;" xml:space="preserve">
<style type="text/css">
	.st0{fill:#FFFFFF;}
	.st1{fill:#D1D2D9;stroke:#000000;stroke-width:0.5;stroke-miterlimit:10;}
	.st2{fill:none;stroke:#FFFFFF;stroke-miterlimit:10;}
	.st3{fill:#EFEFF2;}
	.st4{fill:#0063FF;}
	.st5{opacity:0.6;clip-path:url(#SVGID_2_);}
	.st6{fill:none;stroke:#000000;stroke-width:13;stroke-miterlimit:10;}
	.st7{fill:#008CD6;}
	.st8{fill:#003659;}
	.st9{fill:#B8F3FF;}
	.st10{fill:none;stroke:#000000;stroke-width:3;stroke-miterlimit:10;}
	.st11{fill:#626372;}
	.st12{fill:#4D4E5A;}
	.st13{fill:#001959;}
	.st14{fill:#004ED6;}
	.st15{fill:#D1D2D9;}
	.st16{enable-background:new    ;}
	.st17{fill:#23232A;}
	.st18{fill:none;stroke:#96A3A2;stroke-width:0.3;stroke-miterlimit:10;}
	.st19{fill:#00EFE8;}
	.st20{clip-path:url(#SVGID_4_);}
	.st21{clip-path:url(#SVGID_6_);}
	.st22{opacity:0.6;clip-path:url(#SVGID_8_);}
	.st23{fill:#090A0A;}
	.st24{fill:#191B1B;}
	.st25{fill:#242021;}
	.st26{fill:#E0E1E2;}
	.st27{fill:#DEE0E1;}
	.st28{fill:none;stroke:#FFFFFF;stroke-width:2;stroke-linecap:round;stroke-miterlimit:10;}
	.st29{fill:#454345;}
	.st30{fill:#444243;}
	.st31{fill:#433F41;}
	.st32{fill:#484546;}
	.st33{fill:#434142;}
	.st34{fill:#413E3F;}
	.st35{fill:#413F40;}
	.st36{fill:#454142;}
	.st37{fill:#4A4748;}
	.st38{fill:#423F41;}
	.st39{fill:#494647;}
	.st40{fill:#3F3A3C;}
	.st41{fill:#464343;}
	.st42{fill:#474445;}
	.st43{fill:#201D1C;}
	.st44{fill:#4B4849;}
	.st45{fill:#443D3F;}
	.st46{fill:#413D3E;}
	.st47{fill:#4E494A;}
	.st48{fill:#423C3E;}
	.st49{fill:#413C3E;}
	.st50{fill:#444142;}
	.st51{fill:#4C4647;}
	.st52{fill:#433D41;}
	.st53{fill:#3E3B3B;}
	.st54{fill:#474242;}
	.st55{fill:#4A4747;}
	.st56{fill:#4C494A;}
	.st57{fill:#504C4C;}
	.st58{fill:#3F3938;}
	.st59{fill:#494547;}
	.st60{fill:#5F5857;}
	.st61{fill:#4D4341;}
	.st62{fill:#4B4748;}
	.st63{fill:#534D4D;}
	.st64{fill:#474343;}
	.st65{fill:#544E4D;}
	.st66{fill:#433F3F;}
	.st67{fill:#3D3A3C;}
	.st68{fill:#413E3E;}
	.st69{fill:#4B4646;}
	.st70{fill:#494443;}
	.st71{fill:#4F4B4C;}
	.st72{fill:#4F4C4C;}
	.st73{fill:#464142;}
	.st74{fill:#524945;}
	.st75{fill:#464040;}
	.st76{fill:#565353;}
	.st77{fill:#3C3230;}
	.st78{fill:#5C5653;}
	.st79{fill:#514E4E;}
	.st80{fill:#4F4A4C;}
	.st81{fill:#444040;}
	.st82{fill:#534F4F;}
	.st83{fill:#433D3D;}
	.st84{fill:#5C5452;}
	.st85{fill:#443A37;}
	.st86{fill:#3E393A;}
	.st87{fill:#413D3C;}
	.st88{fill:#61544D;}
	.st89{fill:#433F3E;}
	.st90{fill:#4C4949;}
	.st91{fill:#474446;}
	.st92{fill:#3A3533;}
	.st93{fill:#423C3D;}
	.st94{fill:#454242;}
	.st95{fill:#453F41;}
	.st96{fill:#464244;}
	.st97{fill:#212029;}
	.st98{fill:#3E3A3B;}
	.st99{fill:#423E3F;}
	.st100{fill:#504C4D;}
	.st101{fill:#413F41;}
	.st102{fill:#464141;}
	.st103{fill:#4E4B4C;}
	.st104{fill:#424041;}
	.st105{fill:#423E40;}
	.st106{fill:#423F3F;}
	.st107{fill:#423D3E;}
	.st108{fill:#474141;}
	.st109{fill:#3F3C3E;}
	.st110{fill:#443D3C;}
	.st111{fill:#4F4C4D;}
	.st112{fill:#393434;}
	.st113{fill:#515050;}
	.st114{fill:#403C3C;}
	.st115{fill:#3F3837;}
	.st116{fill:#393232;}
	.st117{fill:#4A4746;}
	.st118{fill:#474547;}
	.st119{fill:#575454;}
	.st120{fill:#474647;}
	.st121{fill:#3F3D3E;}
	.st122{fill:#4C494B;}
	.st123{fill:#464445;}
	.st124{fill:#3E3C3D;}
	.st125{fill:#4A4849;}
	.st126{fill:#3D3B3C;}
	.st127{fill:#4D4B4C;}
	.st128{fill:#525152;}
	.st129{fill:#3C3B3C;}
	.st130{fill:#4E4D4D;}
	.st131{fill:#403D3F;}
	.st132{fill:#4F4D4E;}
	.st133{fill:#4C4A4B;}
	.st134{fill:#3C3A3B;}
	.st135{fill:#3F3D3F;}
	.st136{fill:#3B393A;}
	.st137{fill:#4F4E4E;}
	.st138{fill:#535051;}
	.st139{fill:#3D3B3D;}
	.st140{fill:#504E4E;}
	.st141{fill:#514E4F;}
	.st142{fill:#545152;}
	.st143{fill:#393839;}
	.st144{fill:#3C393A;}
	.st145{fill:#403E3F;}
	.st146{fill:#383537;}
	.st147{fill:#545153;}
	.st148{fill:#4C4C4D;}
	.st149{fill:#4D4C4D;}
	.st150{fill:#514D4F;}
	.st151{fill:#525052;}
	.st152{fill:#565455;}
	.st153{fill:#3B3839;}
	.st154{fill:#524F50;}
	.st155{fill:#353234;}
	.st156{fill:#373435;}
	.st157{fill:#504B4C;}
	.st158{fill:#524D4E;}
	.st159{fill:#3A363A;}
	.st160{fill:#565152;}
	.st161{fill:#525151;}
	.st162{fill:#393738;}
	.st163{fill:#393737;}
	.st164{fill:#393637;}
	.st165{fill:#494648;}
	.st166{fill:#464345;}
	.st167{fill:#3D393B;}
	.st168{fill:#4D494A;}
	.st169{fill:#4F4C4E;}
	.st170{fill:#4E4B4D;}
	.st171{fill:#4D4A4B;}
	.st172{fill:#3B3739;}
	.st173{fill:#4D4A4C;}
	.st174{fill:#3A3638;}
	.st175{fill:#525051;}
	.st176{fill:#5A5658;}
	.st177{fill:#585455;}
	.st178{fill:#424142;}
	.st179{fill:#4B494A;}
	.st180{fill:#4E4A4B;}
	.st181{fill:#423F40;}
	.st182{fill:#403F40;}
	.st183{fill:#403E40;}
	.st184{fill:#3D3A3B;}
	.st185{fill:#3C3939;}
	.st186{fill:#504D50;}
	.st187{fill:#3C393B;}
	.st188{fill:#3A383B;}
	.st189{fill:#383536;}
	.st190{fill:#545252;}
	.st191{fill:#575355;}
	.st192{fill:#494749;}
	.st193{fill:#4F4D4F;}
	.st194{fill:#52504F;}
	.st195{fill:#393537;}
	.st196{fill:#4A4749;}
	.st197{fill:#4A494B;}
	.st198{fill:#3A383A;}
	.st199{fill:#4D4849;}
	.st200{fill:#504D4E;}
	.st201{fill:#3F3C3C;}
	.st202{fill:#4E4A4C;}
	.st203{fill:#504D4D;}
	.st204{fill:#514F4F;}
	.st205{fill:#3F3C3D;}
	.st206{fill:#545050;}
	.st207{fill:#2D2A2B;}
	.st208{fill:#434041;}
	.st209{fill:#535151;}
	.st210{fill:#595656;}
	.st211{fill:#524E4F;}
	.st212{fill:#3B383A;}
	.st213{fill:#2E2A2B;}
	.st214{fill:#494548;}
	.st215{fill:#5A5757;}
	.st216{fill:#514E4D;}
	.st217{fill:#565252;}
	.st218{fill:#3B3939;}
	.st219{fill:#5C5656;}
	.st220{fill:#585656;}
	.st221{fill:#434042;}
	.st222{fill:#1D1B1C;}
	.st223{fill:#2B2929;}
	.st224{fill:#4C494C;}
	.st225{fill:#555354;}
	.st226{fill:#4D484B;}
	.st227{fill:#5A585A;}
	.st228{fill:#4B484A;}
	.st229{fill:#504E50;}
	.st230{fill:#373236;}
	.st231{fill:#474143;}
	.st232{fill:#2B2D3A;}
	.st233{fill:#524C4E;}
	.st234{fill:#3D383C;}
	.st235{fill:#211E21;}
	.st236{fill:#3E3A3C;}
	.st237{fill:#373234;}
	.st238{fill:#464344;}
	.st239{fill:#575353;}
	.st240{fill:#575352;}
	.st241{fill:#605D5F;}
	.st242{fill:#393638;}
	.st243{fill:#3A3536;}
	.st244{fill:#5F5B5C;}
	.st245{fill:#484647;}
	.st246{fill:#454244;}
	.st247{fill:#514D4D;}
	.st248{fill:#595556;}
	.st249{fill:#555150;}
	.st250{fill:#675D5A;}
	.st251{fill:#474243;}
	.st252{fill:#514D4E;}
	.st253{fill:#5B5757;}
	.st254{fill:#524F4F;}
	.st255{fill:#474344;}
	.st256{fill:#454141;}
	.st257{fill:#494345;}
	.st258{fill:#555151;}
	.st259{fill:#3C3738;}
	.st260{fill:#4C4849;}
	.st261{fill:#4B4647;}
	.st262{fill:#E3E2E3;}
	.st263{fill:#434143;}
	.st264{fill:#292B36;}
	.st265{fill:#3E3B3E;}
	.st266{fill:#413E40;}
	.st267{fill:#373436;}
	.st268{fill:#3C383B;}
	.st269{fill:#535050;}
	.st270{fill:#3B3A3C;}
	.st271{fill:#3A393A;}
	.st272{fill:#514E50;}
	.st273{fill:#504D4F;}
	.st274{fill:#4E4C4E;}
	.st275{fill:#585355;}
	.st276{fill:#3D3A3D;}
	.st277{fill:#3B373A;}
	.st278{fill:#403D3E;}
	.st279{fill:#454040;}
	.st280{fill:#53504F;}
	.st281{fill:#585454;}
	.st282{fill:#2C2829;}
	.st283{fill:#4E4C4D;}
	.st284{fill:#4C4A4C;}
	.st285{fill:#4F4E50;}
	.st286{fill:#424042;}
	.st287{fill:#3E3B3D;}
	.st288{fill:#504E4F;}
	.st289{fill:#514F51;}
	.st290{fill:#383638;}
	.st291{fill:#41414B;}
	.st292{fill:#4E4D4F;}
	.st293{fill:#3A393B;}
	.st294{fill:#464243;}
	.st295{fill:#383436;}
	.st296{fill:#525050;}
	.st297{fill:#575555;}
	.st298{fill:#545151;}
	.st299{fill:#444244;}
	.st300{fill:#494849;}
	.st301{fill:#414041;}
	.st302{fill:#555252;}
	.st303{fill:#4D4B4D;}
	.st304{fill:#3D3C3E;}
	.st305{fill:#555455;}
	.st306{fill:#413D40;}
	.st307{fill:#575557;}
	.st308{fill:#3E3D3E;}
	.st309{fill:#4F4E4F;}
	.st310{fill:#525153;}
	.st311{fill:#575757;}
	.st312{fill:#515051;}
	.st313{fill:#3F3E3F;}
	.st314{fill:#515150;}
	.st315{fill:#5B5A5A;}
	.st316{fill:#373536;}
	.st317{fill:#393939;}
	.st318{fill:#3C3A3A;}
	.st319{fill:#5D5B5E;}
	.st320{fill:#393334;}
	.st321{fill:#444344;}
	.st322{fill:#514F50;}
	.st323{fill:#3A373A;}
	.st324{fill:#504F4F;}
	.st325{fill:#484648;}
	.st326{fill:#565454;}
	.st327{fill:#4E4D4E;}
	.st328{fill:#545353;}
	.st329{fill:#373537;}
	.st330{fill:#363537;}
	.st331{fill:#464446;}
	.st332{fill:#3E3C3E;}
	.st333{fill:#3A3739;}
	.st334{fill:#363336;}
	.st335{fill:#565153;}
	.st336{fill:#353436;}
	.st337{fill:#525150;}
	.st338{fill:#413D3F;}
	.st339{fill:#3F3B3D;}
	.st340{fill:#5C5759;}
	.st341{fill:#575455;}
	.st342{fill:#4F4D50;}
	.st343{fill:#5A5657;}
	.st344{fill:#444143;}
	.st345{fill:#403C3D;}
	.st346{fill:#2C292A;}
	.st347{fill:#332E30;}
	.st348{fill:#585556;}
	.st349{fill:#524E50;}
	.st350{fill:#3E3D3D;}
	.st351{fill:#393739;}
	.st352{fill:#39383A;}
	.st353{fill:#656265;}
	.st354{fill:#454344;}
	.st355{fill:#504C4E;}
	.st356{fill:#545254;}
	.st357{fill:#5B5959;}
	.st358{fill:#464546;}
	.st359{fill:#474546;}
	.st360{fill:#2B2A2A;}
	.st361{fill:#2E2C2C;}
	.st362{fill:#5A5858;}
	.st363{fill:#353335;}
	.st364{fill:#484547;}
	.st365{fill:#424141;}
	.st366{fill:#575656;}
	.st367{fill:#403F3F;}
	.st368{fill:#595555;}
	.st369{fill:#605E5E;}
	.st370{fill:#626162;}
	.st371{fill:#636060;}
	.st372{fill:#555353;}
	.st373{fill:#555355;}
	.st374{fill:#5F5C5D;}
	.st375{fill:#5B5556;}
	.st376{fill:#595657;}
	.st377{fill:#5D5B5B;}
	.st378{fill:#403B3C;}
	.st379{fill:#565354;}
	.st380{fill:#3C393C;}
	.st381{fill:#3F3C3F;}
	.st382{fill:#504C4F;}
	.st383{fill:#3E3A3D;}
	.st384{fill:#3A3738;}
	.st385{fill:#524F51;}
	.st386{fill:#5A595A;}
	.st387{fill:#535053;}
	.st388{fill:#555253;}
	.st389{fill:#605E60;}
	.st390{fill:#2B292A;}
	.st391{fill:#403D40;}
	.st392{fill:#504F50;}
	.st393{fill:#474548;}
	.st394{fill:#545354;}
	.st395{fill:#2A2F40;}
	.st396{fill:#595658;}
	.st397{fill:#5B5758;}
	.st398{fill:#545253;}
	.st399{fill:#2B3144;}
	.st400{fill:#37353D;}
	.st401{fill:#2E3447;}
	.st402{fill:#353A4E;}
	.st403{fill:#2F303B;}
	.st404{fill:#393536;}
	.st405{fill:#211F20;}
	.st406{fill:#484748;}
	.st407{fill:#4C4848;}
	.st408{fill:#433E3E;}
	.st409{fill:#2B2B37;}
	.st410{fill:#CCCBCC;}
	.st411{fill:#4A4646;}
	.st412{fill:#48423F;}
	.st413{fill:#3F3B3B;}
	.st414{fill:#3C3735;}
	.st415{fill:#403D3D;}
	.st416{fill:#3D393A;}
	.st417{fill:#393535;}
	.st418{fill:#393332;}
	.st419{fill:#3E3938;}
	.st420{fill:#383637;}
	.st421{fill:#5B5250;}
	.st422{fill:#383434;}
	.st423{fill:#E4E3E4;}
	.st424{fill:#CAC9CB;}
	.st425{fill:#363335;}
	.st426{fill:#524E4E;}
	.st427{fill:#595758;}
	.st428{fill:#4F4B4D;}
	.st429{fill:#5D595A;}
	.st430{fill:#5B595A;}
	.st431{fill:#5A5758;}
	.st432{fill:#3C3A3C;}
	.st433{fill:#514F4E;}
	.st434{fill:#565355;}
	.st435{fill:#383435;}
	.st436{fill:#4E4B4B;}
	.st437{fill:#484545;}
	.st438{fill:#555352;}
	.st439{fill:#555454;}
	.st440{fill:#383738;}
	.st441{fill:#484446;}
	.st442{fill:#4E4E4F;}
	.st443{fill:#454243;}
	.st444{fill:#565456;}
	.st445{fill:#3E3B3C;}
	.st446{fill:#5A5959;}
	.st447{fill:#5D5A5A;}
	.st448{fill:#403C3E;}
	.st449{fill:#444042;}
	.st450{fill:#444242;}
	.st451{fill:#545051;}
	.st452{fill:#413F3F;}
	.st453{fill:#3F3D3D;}
	.st454{fill:#574E4F;}
	.st455{fill:#444141;}
	.st456{fill:#343133;}
	.st457{fill:#555051;}
	.st458{fill:#383739;}
	.st459{fill:#3F3838;}
	.st460{fill:#575357;}
	.st461{fill:#5D5D5B;}
	.st462{fill:#3F3B3E;}
	.st463{fill:#423D3D;}
	.st464{fill:#3E3D3F;}
	.st465{fill:#4C4B4D;}
	.st466{fill:#3D3C3D;}
	.st467{fill:#3E3E3F;}
	.st468{fill:#433F42;}
	.st469{fill:#3D3B3E;}
	.st470{fill:#3B393B;}
	.st471{fill:#505050;}
	.st472{fill:#383538;}
	.st473{fill:#4F4B4B;}
	.st474{fill:#3E3A3A;}
	.st475{fill:#575253;}
	.st476{fill:#3A3737;}
	.st477{fill:#272424;}
	.st478{fill:#363333;}
	.st479{fill:#585256;}
	.st480{fill:#555456;}
	.st481{fill:#5D5B5C;}
	.st482{fill:#3E393B;}
	.st483{fill:#363334;}
	.st484{fill:#4C4A4D;}
	.st485{fill:#4B4A4B;}
	.st486{fill:#595757;}
	.st487{fill:#535252;}
	.st488{fill:#4D4C4E;}
	.st489{fill:#575657;}
	.st490{fill:#535353;}
	.st491{fill:#565554;}
	.st492{fill:#3A3839;}
	.st493{fill:#4A484A;}
	.st494{fill:#373538;}
	.st495{fill:#3F3B3A;}
	.st496{fill:#424040;}
	.st497{fill:#322F2F;}
	.st498{fill:#434244;}
	.st499{fill:#434043;}
	.st500{fill:#585655;}
	.st501{fill:#414042;}
	.st502{fill:#3E3C3C;}
	.st503{fill:#3C3C3D;}
	.st504{fill:#373638;}
	.st505{fill:#595453;}
	.st506{fill:#443D3B;}
	.st507{fill:#5B5858;}
	.st508{fill:#525252;}
	.st509{fill:#5C5A5B;}
	.st510{fill:#535253;}
	.st511{fill:#616060;}
	.st512{fill:#565556;}
	.st513{fill:#5C5858;}
	.st514{fill:#4B4749;}
	.st515{fill:#4D4C4F;}
	.st516{fill:#595858;}
	.st517{fill:#2B2829;}
	.st518{fill:#2D292A;}
	.st519{fill:#4C4A4A;}
	.st520{fill:#545554;}
	.st521{fill:#373535;}
	.st522{fill:#515151;}
	.st523{fill:#504E51;}
	.st524{fill:#555453;}
	.st525{fill:#535052;}
	.st526{fill:#575354;}
	.st527{fill:#595A5B;}
	.st528{fill:#575252;}
	.st529{fill:#3B3738;}
	.st530{fill:#585758;}
	.st531{fill:#585658;}
	.st532{fill:#252323;}
	.st533{fill:#595558;}
	.st534{fill:#504E4D;}
	.st535{fill:#3B383B;}
	.st536{fill:#565555;}
	.st537{fill:#545454;}
	.st538{fill:#3D383A;}
	.st539{fill:#5E5B5B;}
	.st540{fill:#626163;}
	.st541{fill:#403E3E;}
	.st542{fill:#5E5E5E;}
	.st543{fill:#403E41;}
	.st544{fill:#403F41;}
	.st545{fill:#2E2B2D;}
	.st546{fill:#312F30;}
	.st547{fill:#353236;}
	.st548{fill:#3C3945;}
	.st549{fill:#48434F;}
	.st550{fill:#49454F;}
	.st551{fill:#32394D;}
	.st552{fill:#4C4A4E;}
	.st553{fill:#545052;}
	.st554{fill:#59575A;}
	.st555{fill:#5E5A5A;}
	.st556{fill:#585657;}
	.st557{fill:#575556;}
	.st558{fill:#5A5A5A;}
	.st559{fill:#4C4B4C;}
	.st560{fill:#4B494B;}
	.st561{fill:#2C2A2A;}
	.st562{fill:#363435;}
	.st563{fill:#373637;}
	.st564{fill:#3B3A3A;}
	.st565{fill:#444446;}
	.st566{fill:#2F2C2D;}
	.st567{fill:#252222;}
	.st568{fill:#343131;}
	.st569{fill:#555152;}
	.st570{fill:#5B5658;}
	.st571{fill:#5C595B;}
	.st572{fill:#5E5B5D;}
	.st573{fill:#5A575A;}
	.st574{fill:#585859;}
	.st575{fill:#3F3A3F;}
	.st576{fill:#4A4647;}
	.st577{fill:#534F50;}
	.st578{fill:#3A3635;}
	.st579{fill:#524D4D;}
	.st580{fill:#595958;}
	.st581{fill:#3D3C3C;}
	.st582{fill:#3D3B3B;}
	.st583{fill:#383535;}
	.st584{fill:#535153;}
	.st585{fill:#5B595B;}
	.st586{fill:#535152;}
	.st587{fill:#5C5B5B;}
	.st588{fill:#434242;}
	.st589{fill:#565254;}
	.st590{fill:#434343;}
	.st591{fill:#584F4A;}
	.st592{fill:#5B5859;}
	.st593{fill:#272833;}
	.st594{fill:#434551;}
	.st595{fill:#2F313E;}
	.st596{fill:#30333E;}
	.st597{fill:#3B3C4B;}
	.st598{fill:#504C4B;}
	.st599{fill:#434243;}
	.st600{fill:#4E4C4F;}
	.st601{fill:#4C484A;}
	.st602{fill:#5B585A;}
	.st603{fill:#575554;}
	.st604{fill:#565253;}
	.st605{fill:#3C3B3B;}
	.st606{fill:#433D40;}
	.st607{fill:#585555;}
	.st608{fill:#5E5C5D;}
	.st609{fill:#585354;}
	.st610{fill:#545453;}
	.st611{fill:#5D5A5B;}
	.st612{fill:#555254;}
	.st613{fill:#504F4E;}
	.st614{fill:#363436;}
	.st615{fill:#5A595B;}
	.st616{fill:#595959;}
	.st617{fill:#3C3B3A;}
	.st618{fill:#4C4B4B;}
	.st619{fill:#595557;}
	.st620{fill:#4A474A;}
	.st621{fill:#3B3A3B;}
	.st622{fill:#383437;}
	.st623{fill:#585659;}
	.st624{fill:#535254;}
	.st625{fill:#58575A;}
	.st626{fill:#433F40;}
	.st627{fill:#534E4F;}
	.st628{fill:#3B3737;}
	.st629{fill:#5D5859;}
	.st630{fill:#605C5C;}
	.st631{fill:#2E2C2D;}
	.st632{fill:#322F30;}
	.st633{fill:#535355;}
	.st634{fill:#545455;}
	.st635{fill:#4D4D4E;}
	.st636{fill:#373739;}
	.st637{fill:#3D3D3F;}
	.st638{fill:#555556;}
	.st639{fill:#363434;}
	.st640{fill:#383939;}
	.st641{fill:#3F3E40;}
	.st642{fill:#585858;}
	.st643{fill:#5A5A5B;}
	.st644{fill:#353334;}
	.st645{fill:#444445;}
	.st646{fill:#3D3D3E;}
	.st647{fill:#565757;}
	.st648{fill:#585759;}
	.st649{fill:#5A5859;}
	.st650{fill:#575758;}
	.st651{fill:#555655;}
	.st652{fill:#5D5B5D;}
	.st653{fill:#484646;}
	.st654{fill:#585757;}
	.st655{fill:#615D5E;}
	.st656{fill:#494748;}
	.st657{fill:#4F5050;}
	.st658{fill:#534E50;}
	.st659{fill:#515152;}
	.st660{fill:#575558;}
	.st661{fill:#615E5F;}
	.st662{fill:#383737;}
	.st663{fill:#3A3639;}
	.st664{fill:#2E2A2C;}
	.st665{fill:#575153;}
	.st666{fill:#4E4E4E;}
	.st667{fill:#333132;}
	.st668{fill:#5C5B5D;}
	.st669{fill:#423E41;}
	.st670{fill:#565356;}
	.st671{fill:#5B585B;}
	.st672{fill:#5C595C;}
	.st673{fill:#373437;}
	.st674{fill:#555555;}
	.st675{fill:#4D4A55;}
	.st676{fill:#47464A;}
	.st677{fill:#575456;}
	.st678{fill:#454546;}
	.st679{fill:#5D5C5D;}
	.st680{fill:#666466;}
	.st681{fill:#5E5E5F;}
	.st682{fill:#5B5C5C;}
	.st683{fill:#424144;}
	.st684{fill:#5C5B5C;}
	.st685{fill:#545456;}
	.st686{fill:#5E5C5E;}
	.st687{fill:#5A585B;}
	.st688{fill:#515052;}
	.st689{fill:#454346;}
	.st690{fill:#5A5759;}
	.st691{fill:#595A5A;}
	.st692{fill:#433E40;}
	.st693{fill:#505051;}
	.st694{fill:#3C3A3D;}
	.st695{fill:#595859;}
	.st696{fill:#383639;}
	.st697{fill:#4E4949;}
	.st698{fill:#484344;}
	.st699{fill:#484342;}
	.st700{fill:#383336;}
	.st701{fill:#363234;}
	.st702{fill:#545251;}
	.st703{fill:#534E4E;}
	.st704{fill:#4F4949;}
	.st705{fill:#403B39;}
	.st706{fill:#413937;}
	.st707{fill:#3D3939;}
	.st708{fill:#494546;}
	.st709{fill:#413E3D;}
	.st710{fill:#504B4B;}
	.st711{fill:#565656;}
	.st712{fill:#565657;}
	.st713{fill:#5A5354;}
	.st714{fill:#463D3A;}
	.st715{fill:#5F5A5A;}
	.st716{fill:#5E5E5D;}
	.st717{fill:#3B3638;}
	.st718{fill:#3C3B3D;}
	.st719{fill:#4F4D4D;}
	.st720{fill:#4B4649;}
	.st721{fill:#5E5B5C;}
	.st722{fill:#5D585A;}
	.st723{fill:#3E3E3E;}
	.st724{fill:#3A3939;}
	.st725{fill:#3F3F40;}
	.st726{fill:#5D5A5C;}
	.st727{fill:#605E5F;}
	.st728{fill:#5C595A;}
	.st729{fill:#5C5A5A;}
	.st730{fill:#5B5B5B;}
	.st731{fill:#585756;}
	.st732{fill:#575658;}
	.st733{fill:#413E41;}
	.st734{fill:#514E52;}
	.st735{fill:#38373A;}
	.st736{fill:#424143;}
	.st737{fill:#646265;}
	.st738{fill:#39373A;}
	.st739{fill:#5A5555;}
	.st740{fill:#444343;}
	.st741{fill:#5C5C5E;}
	.st742{fill:#3A3A3A;}
	.st743{fill:#5B5A5C;}
	.st744{fill:#2D2B2C;}
	.st745{fill:#555154;}
	.st746{fill:#565557;}
	.st747{fill:#545154;}
	.st748{fill:#545556;}
	.st749{fill:#615D5F;}
	.st750{fill:#5B5A5B;}
	.st751{fill:#555255;}
	.st752{fill:#444345;}
	.st753{fill:#606060;}
	.st754{fill:#575457;}
	.st755{fill:#575756;}
	.st756{fill:#2C2A2B;}
	.st757{fill:#292727;}
	.st758{fill:#504F51;}
	.st759{fill:#545553;}
	.st760{fill:#5F5F5E;}
	.st761{fill:#585557;}
	.st762{fill:#393538;}
	.st763{fill:#5E595C;}
	.st764{fill:#39383B;}
	.st765{fill:#616260;}
	.st766{fill:#545457;}
	.st767{fill:#474648;}
	.st768{fill:#5D5659;}
	.st769{fill:#464547;}
	.st770{fill:#5F5E60;}
	.st771{fill:#403C3F;}
	.st772{fill:#5C5A5C;}
	.st773{fill:#5A5958;}
	.st774{fill:#696667;}
	.st775{fill:#4B4B4C;}
	.st776{fill:#4A4649;}
	.st777{fill:#5F5D5D;}
	.st778{fill:#5B5759;}
	.st779{fill:#4D4B4B;}
	.st780{fill:#4F4D4C;}
	.st781{fill:#605A5B;}
	.st782{fill:#464342;}
	.st783{fill:#5C5958;}
	.st784{fill:#565452;}
	.st785{fill:#3C3839;}
	.st786{fill:#3C383A;}
	.st787{fill:#575453;}
	.st788{fill:#544F4F;}
	.st789{fill:#605B5B;}
	.st790{fill:#5C5C5D;}
	.st791{fill:#373738;}
	.st792{fill:#535354;}
	.st793{fill:#605D5E;}
	.st794{fill:#3D3A3A;}
	.st795{fill:#5D5D5E;}
	.st796{fill:#3A3537;}
	.st797{fill:#363536;}
	.st798{fill:#5A5556;}
	.st799{fill:#414142;}
	.st800{fill:#474345;}
	.st801{fill:#5F5D5F;}
	.st802{fill:#535251;}
	.st803{fill:#454446;}
	.st804{fill:#626363;}
	.st805{fill:#59585A;}
	.st806{fill:#5E5A5D;}
	.st807{fill:#39393A;}
	.st808{fill:#393639;}
	.st809{fill:#363235;}
	.st810{fill:#3A3838;}
	.st811{fill:#4A4A4B;}
	.st812{fill:#484749;}
	.st813{fill:#454445;}
	.st814{fill:#3F3E3E;}
	.st815{fill:#595659;}
	.st816{fill:#535454;}
	.st817{fill:#5E5D5E;}
	.st818{fill:#5E5A5C;}
	.st819{fill:#59595C;}
	.st820{fill:#585554;}
	.st821{fill:#5E5D60;}
	.st822{fill:#353435;}
	.st823{fill:#525253;}
	.st824{fill:#535054;}
	.st825{fill:#5B5B5A;}
	.st826{fill:#525254;}
	.st827{fill:#525259;}
	.st828{fill:#5E5C5F;}
	.st829{fill:#37363A;}
	.st830{fill:#3B393D;}
	.st831{fill:#525251;}
	.st832{fill:#3C3B3E;}
	.st833{fill:#595A59;}
	.st834{fill:#353133;}
	.st835{fill:#5B5657;}
	.st836{fill:#615D5D;}
	.st837{fill:#595456;}
	.st838{fill:#5E5B5A;}
	.st839{fill:#413B3D;}
	.st840{fill:#444041;}
	.st841{fill:#5F5E5E;}
	.st842{fill:#504D4C;}
	.st843{fill:#535352;}
	.st844{fill:#5E5D5D;}
	.st845{fill:#393838;}
	.st846{fill:#635D5E;}
	.st847{fill:#424043;}
	.st848{fill:#5D5C5C;}
	.st849{fill:#59585B;}
	.st850{fill:#434144;}
	.st851{fill:#4A484B;}
	.st852{fill:#575559;}
	.st853{fill:#444144;}
	.st854{fill:#565458;}
	.st855{fill:#434344;}
	.st856{fill:#3B3A3D;}
	.st857{fill:#5C585B;}
	.st858{fill:#413F42;}
	.st859{fill:#373639;}
	.st860{fill:#585456;}
	.st861{fill:#615E5E;}
	.st862{fill:#58585A;}
	.st863{fill:#616161;}
	.st864{fill:#5A5C5D;}
	.st865{fill:#575759;}
	.st866{fill:#3B3B3B;}
	.st867{fill:#5C585A;}
	.st868{fill:#414040;}
	.st869{fill:#3E3E40;}
	.st870{fill:#3F3D40;}
	.st871{fill:#626264;}
	.st872{fill:#555357;}
	.st873{fill:#6D6A6C;}
	.st874{fill:#535154;}
	.st875{fill:#59595A;}
	.st876{fill:#565756;}
	.st877{fill:#524F52;}
	.st878{fill:#565655;}
	.st879{fill:#3A3B3B;}
	.st880{fill:#5E5D5F;}
	.st881{fill:#514F52;}
	.st882{fill:#525355;}
	.st883{fill:#4F4F51;}
	.st884{fill:#56565C;}
	.st885{fill:#535258;}
	.st886{fill:#515155;}
	.st887{fill:#5C5757;}
	.st888{fill:#404040;}
	.st889{fill:#4B4848;}
	.st890{fill:#504B4D;}
	.st891{fill:#565453;}
	.st892{fill:#595756;}
	.st893{fill:#525453;}
	.st894{fill:#5C5B5E;}
	.st895{fill:#615F60;}
	.st896{fill:#605D5D;}
	.st897{fill:#565658;}
	.st898{fill:#595759;}
	.st899{fill:#363637;}
	.st900{fill:#535255;}
	.st901{fill:#605F61;}
	.st902{fill:#454143;}
	.st903{fill:#444043;}
	.st904{fill:#464447;}
	.st905{fill:#5A5B5A;}
	.st906{fill:#565255;}
	.st907{fill:#3D383B;}
	.st908{fill:#3E393C;}
	.st909{fill:#5B5B5D;}
	.st910{fill:#645F60;}
	.st911{fill:#353535;}
	.st912{fill:#5C5758;}
	.st913{fill:#5C5859;}
	.st914{fill:#343334;}
	.st915{fill:#4F4E4D;}
	.st916{fill:#403B3D;}
	.st917{fill:#3E3C3F;}
	.st918{fill:#5C5A5F;}
	.st919{fill:#3B393C;}
	.st920{fill:#555457;}
	.st921{fill:#585558;}
	.st922{fill:#3F3F41;}
	.st923{fill:#545352;}
	.st924{fill:#555557;}
	.st925{fill:#565457;}
	.st926{fill:#605F60;}
	.st927{fill:#4C494D;}
	.st928{fill:#383736;}
	.st929{fill:#625D60;}
	.st930{fill:#5F5A5C;}
	.st931{fill:#3A373B;}
	.st932{fill:#5C5C5C;}
	.st933{fill:#4E4E50;}
	.st934{fill:#3A3637;}
	.st935{fill:#595857;}
	.st936{fill:#605E5D;}
	.st937{fill:#555657;}
	.st938{fill:#626061;}
	.st939{fill:#5B595C;}
	.st940{fill:#3D393C;}
	.st941{fill:#3B3C3C;}
	.st942{fill:#636061;}
	.st943{fill:#50504F;}
	.st944{fill:#5C5A59;}
	.st945{fill:#555654;}
	.st946{fill:#454245;}
	.st947{fill:#5C5E5F;}
	.st948{fill:#313131;}
	.st949{fill:#1BE0E6;}
	.st950{fill:none;stroke:#000000;stroke-miterlimit:10;}
	.st951{fill:#FFFFFF;stroke:#000000;stroke-miterlimit:10;}
	.st952{fill:none;stroke:#06C6BC;stroke-width:0.2;stroke-miterlimit:10;}
	.st953{fill:#3F5070;}
</style>
<g>
	<g>
		<g>
			<g>
				<path class="st0" d="M4.5515294,9.4051476v12.3725471c0,0.315176,0.1710143,0.5580006,0.4484191,0.7150955L11.1334,26.0373058
					c0.2759714,0.1562824,0.6154842,0.1859779,0.8914557,0.0296936l6.1322432-3.5634422
					c0.2781525-0.1575184,0.4496269-0.4098358,0.4496269-0.7258625V9.3942232l-7.0275974,4.1204395L4.5515294,9.4051476z"/>
				<path class="st0" d="M2.4742091,20.4835052v-11.94347c0-0.1825457,0.0467784-0.4131908,0.4091618-0.5898561l8.4404259-4.948029
					c0.1582775-0.0888209,0.3523836-0.0888205,0.5106611,0.0000014l8.5980768,5.0396023
					c0.1610279,0.0903645,0.2545967,0.1495466,0.2514019,0.3573742l-0.000021,12.0843773
					c0,0.2506504,0.2809219,0.3687172,0.5034904,0.2472l1.7282944-1.0109768
					c0.1639862-0.0895329,0.242445-0.2244377,0.242445-0.4091148V6.9481373c0-0.2178211-0.0739384-0.2923799-0.2328701-0.3833032
					L11.8374119,0.0687247c-0.1597624-0.0913978-0.3569527-0.0916482-0.5169535-0.0006563L0.2536581,6.5583301
					C0.0940771,6.6490831,0,6.803894,0,6.985395v12.3252182c0,0.1781139,0.0762258,0.3110123,0.2311124,0.4029388
					l1.7452499,1.020565C2.19907,20.8662968,2.4742091,20.7396126,2.4742091,20.4835052z"/>
			</g>
		</g>
		<polygon class="st0" points="16.5875378,8.2454491 11.5790691,5.316751 11.5790691,5.3166485 11.5790691,5.316751 
			11.5790691,5.3166485 11.5790691,5.316751 6.5707054,8.2454491 11.5790691,11.1741476 11.5790691,11.1741476 
			11.5790691,11.1741476 		"/>
	</g>
	<g>
		<g>
			<g class="st16">
				<g>
					<path class="st0" d="M36.3787766,4.7036996c-0.4602623-0.4221134-1.0120621-0.7344165-1.6400604-0.929858
						c-0.6228828-0.1924191-1.6052818-0.2901399-2.9190655-0.2901399h-2.0634937v9.3600321h3.0868034
						c1.2130394,0,2.1621971-0.1853676,2.8219032-0.5500565c0.6581688-0.3656979,1.1869545-0.9147472,1.5720406-1.6320372
						c0.3809891-0.7132607,0.5742989-1.4829369,0.5742989-2.2898884c0-0.8019142-0.1242676-1.5141668-0.3697395-2.1176176
						C37.1954803,5.6466541,36.8380127,5.1258125,36.3787766,4.7036996z M36.5761757,8.2518682
						c0,0.5722198-0.0951195,1.0870161-0.2822914,1.5282707c-0.1861496,0.4382324-0.4607735,0.815011-0.8156815,1.1212702
						c-0.3528671,0.3042431-0.7706795,0.510767-1.2421913,0.6145315c-0.4858284,0.1057806-1.285656,0.159174-2.3780041,0.159174
						h-0.9051781V4.6764989h0.4955463c1.0862122,0,1.9172363,0.0554085,2.4700584,0.1672335
						c0.5385017,0.1067877,1.0135918,0.319355,1.4114609,0.630651c0.3953133,0.3092809,0.7047081,0.7092309,0.920517,1.189775
						C36.4667358,7.1457095,36.5761757,7.6796474,36.5761757,8.2518682z"/>
					<rect x="39.1480026" y="3.4837017" class="st0" width="1.235029" height="9.3600321"/>
					<path class="st0" d="M47.3999367,7.9869137c0.5906677-0.4694624,0.8903465-1.1232843,0.8903465-1.9413176
						c0-0.4080091-0.0828476-0.7857952-0.245472-1.1242919c-0.1641579-0.3415184-0.3932648-0.6235991-0.6801605-0.8371739
						c-0.2863846-0.2155902-0.6310654-0.3717418-1.0253563-0.463418c-0.3922424-0.0916762-1.0908127-0.1370106-2.1345787-0.1370106
						h-1.9867859v9.3600321h1.2355423V8.6346912h0.2904739l3.3005676,4.2090425h1.5367546l-3.311821-4.2070274
						C46.1633759,8.6195803,46.8793335,8.4019747,47.3999367,7.9869137z M44.9631195,7.4418941
						c-0.0265923,0-0.0531845,0-0.0802879-0.0010076h-1.4293594V4.6764989h1.4677124
						c0.7333488,0,1.2764549,0.1138396,1.6144905,0.3384967c0.323204,0.2145824,0.4807129,0.5561013,0.4807129,1.0426898
						c0,0.4886036-0.1595573,0.8321371-0.4878731,1.0517569C46.1976395,7.3300695,45.6719208,7.4418941,44.9631195,7.4418941z"/>
					<polygon class="st0" points="49.9461937,12.8437338 55.4933395,12.8437338 55.4933395,11.6378403 51.181736,11.6378403 
						51.181736,8.3929081 55.4933395,8.3929081 55.4933395,7.202126 51.181736,7.202126 51.181736,4.6885881 55.5316963,4.6885881 
						55.5316963,3.4837017 49.9461937,3.4837017 					"/>
					<path class="st0" d="M64.6724472,10.4692211c-0.8264236,0.9510136-1.8753052,1.4325657-3.1180038,1.4325657
						c-1.1122932,0-2.0501976-0.3556232-2.788147-1.0578012c-0.736927-0.702179-1.1107597-1.5897245-1.1107597-2.6374521
						s0.3825264-1.9443398,1.1363297-2.666667c0.7543144-0.7233348,1.6666489-1.0900393,2.7119484-1.0900393
						c1.2841225,0,2.3488579,0.5057297,3.1655579,1.5040927l0.0961456,0.1178694l0.9588776-0.726357l-0.0879669-0.1208916
						c-0.4592361-0.6326661-1.0565491-1.1242919-1.7750626-1.4607735C63.1454048,3.4282932,62.3261452,3.25703,61.4271049,3.25703
						c-0.9010849,0-1.7556343,0.2145827-2.5390968,0.6356883c-0.7860222,0.4241281-1.408905,1.0195193-1.851265,1.7680397
						c-0.4428711,0.7465057-0.6673775,1.5715909-0.6673775,2.4530916c0,1.421484,0.4848099,2.6162958,1.4416351,3.5501833
						c0.9547844,0.9328804,2.1974831,1.4063721,3.6928139,1.4063721c0.8550606,0,1.6472168-0.160181,2.3544807-0.4744987
						c0.7108421-0.3153257,1.3081627-0.782773,1.7755775-1.389246l0.094101-0.1229067l-0.9588776-0.7263575L64.6724472,10.4692211z"
						/>
					<polygon class="st0" points="66.2854004,4.6764989 68.345314,4.6764989 68.345314,12.8437338 69.5936356,12.8437338 
						69.5936356,4.6764989 71.64077,4.6764989 71.64077,3.4837017 66.2854004,3.4837017 					"/>
					<path class="st0" d="M79.7428665,3.9007778C78.9680939,3.4736276,78.1196823,3.25703,77.2221756,3.25703
						c-0.8964767,0-1.7387543,0.2196198-2.5032959,0.6507998c-0.7624969,0.43118-1.3720856,1.0366454-1.8108673,1.797255
						c-0.4382629,0.7575874-0.6602097,1.597784-0.6602097,2.4964113c0,0.8724346,0.2245026,1.6955051,0.6673737,2.4460402
						c0.4428711,0.7525501,1.0591049,1.3499565,1.8313217,1.7781143c0.7727203,0.4271498,1.618576,0.6447544,2.5140381,0.6447544
						c0.8959656,0,1.7402878-0.2196198,2.5084076-0.6528139c0.7691498-0.432188,1.3807831-1.0346308,1.8185349-1.789196
						c0.4382706-0.7555723,0.6602173-1.5867023,0.6602173-2.4712257c0-0.8835158-0.2245026-1.7156529-0.6673737-2.4722328
						C81.1359177,4.9273491,80.5176315,4.3269205,79.7428665,3.9007778z M80.9738007,8.1622066
						c0,1.069891-0.3651352,1.9665031-1.0851898,2.6636448c-0.7210693,0.6981487-1.6073227,1.0517569-2.6347275,1.0517569
						c-1.0253525,0-1.9136505-0.3616676-2.6398392-1.0769424c-0.7251663-0.7132607-1.0928574-1.5987911-1.0928574-2.6314068
						c0-1.0316086,0.3574677-1.9201622,1.0626831-2.6394668c0.7036896-0.7172904,1.5935211-1.0799651,2.6444473-1.0799651
						c1.0279083,0,1.9182587,0.3616672,2.646492,1.0759354C80.6040649,6.2400303,80.9738007,7.1265688,80.9738007,8.1622066z"/>
					<path class="st0" d="M86.8656311,8.6367064c0.8944397-0.0171261,1.6103973-0.2347317,2.1304932-0.6497927
						c0.5906601-0.4694624,0.8903427-1.1232843,0.8903427-1.9413176c0-0.4080091-0.0828476-0.7857952-0.2454681-1.1242919
						c-0.1631393-0.3405113-0.3922424-0.6225915-0.6796494-0.8371739c-0.2868958-0.2155902-0.6320953-0.3717418-1.0258713-0.463418
						c-0.3922424-0.0916762-1.0908127-0.1370106-2.1345749-0.1370106h-1.9862747v9.3600321h1.2355347V8.6346912h0.2899628
						l3.2540359,4.1485968l0.0470505,0.0604458h1.5367508L86.8656311,8.6367064z M86.4795227,7.4408865h-1.4293594V4.6764989
						h1.46772c0.733345,0,1.2764511,0.1138396,1.6139755,0.3384967c0.323204,0.2145824,0.4807129,0.5561013,0.4807129,1.0426898
						c0,0.4886036-0.1595535,0.8321371-0.4873657,1.0517569c-0.3308716,0.2206273-0.8565903,0.3324518-1.5653915,0.3324518
						C86.533226,7.4418941,86.5066299,7.4418941,86.4795227,7.4408865z"/>
				</g>
			</g>
		</g>
		<g id="Artboard_135_">
			<g class="st16">
				<path class="st0" d="M29.7561569,19.6604939c0-0.6015587,0.1465397-1.1565189,0.4402332-1.6654854
					c0.2936954-0.5089664,0.6958351-0.908392,1.206728-1.1976738c0.5108929-0.2886753,1.0672531-0.4333172,1.6693878-0.4333172
					c0.6018295,0,1.1624908,0.1428261,1.6822929,0.429081s0.9277763,0.6826553,1.2242393,1.1885948
					c0.2964592,0.506546,0.4448395,1.0554543,0.4448395,1.6485424c0,0.5930862-0.1468468,1.142601-0.4402313,1.6485405
					c-0.2936974,0.5059395-0.6973724,0.9035511-1.211338,1.192831c-0.5136566,0.2892818-1.0715523,0.4339237-1.6733818,0.4339237
					c-0.6021347,0-1.1615677-0.1434307-1.67799-0.4296875c-0.5170383-0.2862549-0.9234791-0.6808395-1.2199383-1.1843586
					C29.904232,20.7885704,29.7561569,20.2451096,29.7561569,19.6604939z M35.7633743,19.6344719
					c0-0.7462006-0.2629738-1.3762054-0.7883072-1.8912239c-0.5256386-0.5150166-1.158493-0.7722225-1.8982582-0.7722225
					c-0.7575874,0-1.3904419,0.2590218-1.898262,0.7764587c-0.507822,0.5180454-0.7618866,1.1480484-0.7618866,1.8912239
					c0,0.7437801,0.2611313,1.3725739,0.7840061,1.8869858c0.5225658,0.5150185,1.1538868,0.7722244,1.893652,0.7722244
					c0.7400742,0,1.3698578-0.2511539,1.8893509-0.754673C35.5034714,21.0403309,35.7633743,20.4036694,35.7633743,19.6344719z"/>
				<path class="st0" d="M37.5866737,18.1420708h0.607666v0.8242702c0.4817085-0.6300049,1.0660248-0.9453087,1.7529488-0.9453087
					c0.352375,0,0.6694145,0.0938034,0.9514351,0.2820187c0.2817154,0.1876087,0.4814034,0.4333172,0.5987549,0.7371235
					c0.1176643,0.3038044,0.176342,0.7504368,0.176342,1.340498v2.3687191h-0.5990639v-2.1950302
					c0-0.5380135-0.0248833-0.9023399-0.0749588-1.0935802c-0.0497704-0.1906357-0.1262627-0.3522205-0.2288742-0.485363
					c-0.1029167-0.1331425-0.2334785-0.2342091-0.3920021-0.3038063c-0.1585197-0.0695972-0.3508339-0.1040916-0.5769424-0.1040916
					s-0.4479141,0.0550709-0.6651154,0.1646118c-0.2171974,0.1101437-0.4021378,0.263258-0.554821,0.4599438
					c-0.1526871,0.1966877-0.2552948,0.3994274-0.3084412,0.6076126c-0.0528412,0.2081852-0.0792618,0.6275845-0.0792618,1.2575874
					v1.6921158h-0.607666V18.1420708z"/>
				<path class="st0" d="M42.8603477,16.366787h1.2908936c0.763958,0,1.2635078,0.0297642,1.4980164,0.0886745
					c0.2348213,0.0595284,0.4498138,0.163084,0.6452904,0.311285c0.1954765,0.1482029,0.3475113,0.3329887,0.4557953,0.555603
					c0.1082802,0.2219925,0.1624222,0.469408,0.1624222,0.7422485c0,0.438406-0.1202431,0.7968178-0.3610458,1.0752392
					c-0.24049,0.2790413-0.5429878,0.4551468-0.906868,0.5289383c-0.3641968,0.0744114-0.9222946,0.1116161-1.6742935,0.1116161
					h-0.4602013v2.9689999h-0.6500092V16.366787z M43.5103569,16.988739v2.177763h1.0919571
					c0.6556778,0.0124016,1.0919571-0.0930138,1.3088379-0.3150082c0.2165642-0.2226124,0.3248482-0.484911,0.3248482-0.7868958
					c0-0.7174454-0.526619-1.0758591-1.5795441-1.0758591H43.5103569z"/>
				<path class="st0" d="M47.94524,18.1420708h0.6165733v0.6681309c0.16436-0.2717323,0.3244171-0.4714451,0.479866-0.5985355
					c0.1557541-0.1270885,0.3290215-0.1906338,0.5198021-0.1906338c0.1907768,0,0.383091,0.0520458,0.5769424,0.1561394
					l-0.3170433,0.5029125c-0.0881691-0.0520458-0.179409-0.0780697-0.2731094-0.0780697
					c-0.1821785,0-0.3539085,0.0925941-0.5151939,0.2777843c-0.1615944,0.1851883-0.2804871,0.4236336-0.3569794,0.7159405
					c-0.0761909,0.2917023-0.1142845,0.8224545-0.1142845,1.5916519v1.5620003H47.94524V18.1420708z"/>
				<path class="st0" d="M54.7625771,21.2569332c0.2059937,0,0.4119873,0,0.6179771,0
					c-0.0767288,0.2105103-0.3886604,0.9872227-1.2152824,1.3968811c-0.4970703,0.2462635-0.9620094,0.2517757-1.1289253,0.2517757
					c-0.7047386,0-1.2859802-0.2385769-1.7440376-0.7160664c-0.4580498-0.47682-0.6872253-1.0512104-0.6872253-1.7223358
					c0-0.6704559,0.2304039-1.2460155,0.6915283-1.7260113c0.4608154-0.4804955,1.0306931-0.7200756,1.7087173-0.7200756
					c0.678318,0,1.2478905,0.2227058,1.7090149,0.6681175c0.4608116,0.4454117,0.7001343,1.0523796,0.7179565,1.8215752h-4.2106514
					c0.0178223,0.5555115,0.1953926,1.0022602,0.53302,1.3404121c0.337616,0.3383179,0.7471313,0.5078945,1.2288437,0.5078945
					C53.776123,22.3591003,54.3693466,21.9917126,54.7625771,21.2569332z M54.7625732,19.9987965
					c-0.0820236-0.4393692-0.2875481-0.7837219-0.6165733-1.0324554c-0.3287163-0.2481289-0.7075081-0.3727989-1.1360664-0.3727989
					c-0.8807793,0-1.4564934,0.4684181-1.726532,1.4052544H54.7625732z"/>
				<path class="st0" d="M56.5508537,18.1420708h0.5990639v0.7982464c0.4168854-0.6130581,0.9508209-0.9192848,1.6033363-0.9192848
					c0.3465347,0,0.6562042,0.0968304,0.9290085,0.2904911s0.4565163,0.467207,0.5505257,0.820034
					c0.1941566-0.3588791,0.4405403-0.6336346,0.7397652-0.8242702c0.299839-0.1912403,0.6445274-0.2862549,1.034687-0.2862549
					c0.3907738,0,0.7446823,0.1488762,1.0617256,0.4466305c0.3170395,0.2977543,0.475563,0.8866043,0.475563,1.7653427v2.516386
					h-0.6162682v-2.516386c0-0.4218178-0.0264206-0.7328873-0.079258-0.9326
					c-0.0528412-0.1991081-0.1671257-0.3673515-0.3440781-0.5029144c-0.175724-0.1361675-0.4092064-0.203949-0.6998291-0.203949
					s-0.5621986,0.0956211-0.814724,0.2862568c-0.2525291,0.1906338-0.4257965,0.4339218-0.5198021,0.7286491
					c-0.0940094,0.2953339-0.1407051,0.7407551-0.1407051,1.3362617v1.8046818h-0.5904617v-2.3602467
					c0-0.491415-0.0264206-0.8424263-0.079258-1.0536385c-0.0528412-0.2112122-0.1701965-0.387928-0.3526802-0.529541
					c-0.1818695-0.1416149-0.4049034-0.2124233-0.6691055-0.2124233s-0.5124321,0.0768604-0.7440681,0.2299728
					c-0.232254,0.1531143-0.4141197,0.3631153-0.5462227,0.6287937c-0.1320992,0.2662849-0.1981506,0.7147312-0.1981506,1.3447342
					v1.9523487h-0.5990639V18.1420708z"/>
			</g>
		</g>
	</g>
</g>
</svg>
