<svg width="40" height="24" viewBox="0 0 40 24" fill="none" xmlns="http://www.w3.org/2000/svg">
<path d="M11.3686 8.75552C11.3686 9.24343 11.4213 9.63904 11.5134 9.92915C11.6186 10.2193 11.7502 10.5357 11.9344 10.8786C12.0002 10.9841 12.0265 11.0896 12.0265 11.1819C12.0265 11.3138 11.9476 11.4456 11.7765 11.5775L10.9476 12.1313C10.8292 12.2105 10.7107 12.25 10.6055 12.25C10.4739 12.25 10.3423 12.1841 10.2107 12.0654C10.0265 11.8676 9.86863 11.6566 9.73705 11.4456C9.60547 11.2215 9.47389 10.9709 9.32915 10.6676C8.30284 11.8808 7.01336 12.4874 5.46073 12.4874C4.35547 12.4874 3.47389 12.1709 2.82915 11.5379C2.18442 10.905 1.85547 10.061 1.85547 9.00607C1.85547 7.88519 2.25021 6.9753 3.05284 6.28959C3.85547 5.60387 4.92126 5.26102 6.27652 5.26102C6.72389 5.26102 7.18442 5.30058 7.67126 5.36651C8.1581 5.43244 8.6581 5.53794 9.18442 5.65662V4.69398C9.18442 3.69178 8.97389 2.99288 8.56599 2.58409C8.14494 2.1753 7.43442 1.9775 6.42126 1.9775C5.96073 1.9775 5.48705 2.03025 5.00021 2.14893C4.51336 2.26761 4.03968 2.41266 3.57915 2.59728C3.36863 2.68959 3.21073 2.74233 3.11863 2.76871C3.02652 2.79508 2.96073 2.80827 2.9081 2.80827C2.72389 2.80827 2.63178 2.6764 2.63178 2.39948V1.75332C2.63178 1.54233 2.6581 1.38409 2.72389 1.29178C2.78968 1.19948 2.9081 1.10717 3.09231 1.01486C3.55284 0.777498 4.10547 0.579696 4.75021 0.421454C5.39494 0.250026 6.07915 0.170905 6.80284 0.170905C8.36863 0.170905 9.51336 0.526949 10.2502 1.23904C10.9739 1.95112 11.3423 3.03244 11.3423 4.48299V8.75552H11.3686ZM6.02652 10.7599C6.46073 10.7599 6.9081 10.6808 7.38178 10.5226C7.85547 10.3643 8.27652 10.0742 8.63178 9.6786C8.84231 9.42805 9.00021 9.15112 9.07915 8.83464C9.1581 8.51816 9.21073 8.13574 9.21073 7.68739V7.13354C8.82915 7.04123 8.42126 6.96211 8.0002 6.90937C7.57915 6.85662 7.17126 6.83025 6.76336 6.83025C5.88178 6.83025 5.23705 7.00167 4.80284 7.35772C4.36863 7.71376 4.1581 8.21486 4.1581 8.8742C4.1581 9.49398 4.31599 9.95552 4.64494 10.272C4.96073 10.6017 5.42126 10.7599 6.02652 10.7599ZM16.5923 12.1841C16.3555 12.1841 16.1976 12.1445 16.0923 12.0522C15.987 11.9731 15.8949 11.7885 15.816 11.5379L12.7239 1.34453C12.6449 1.08079 12.6055 0.909366 12.6055 0.817059C12.6055 0.60607 12.7107 0.487388 12.9213 0.487388H14.2107C14.4607 0.487388 14.6318 0.526949 14.7239 0.619257C14.8292 0.698377 14.9081 0.882993 14.987 1.13354L17.1976 9.86321L19.2502 1.13354C19.316 0.869806 19.3949 0.698377 19.5002 0.619257C19.6055 0.540136 19.7897 0.487388 20.0265 0.487388H21.0792C21.3292 0.487388 21.5002 0.526949 21.6055 0.619257C21.7107 0.698377 21.8028 0.882993 21.8555 1.13354L23.9344 9.96871L26.2107 1.13354C26.2897 0.869806 26.3818 0.698377 26.4739 0.619257C26.5791 0.540136 26.7502 0.487388 26.987 0.487388H28.2107C28.4213 0.487388 28.5397 0.592883 28.5397 0.817059C28.5397 0.882993 28.5265 0.948927 28.5134 1.02805C28.5002 1.10717 28.4739 1.21266 28.4213 1.35772L25.2502 11.5511C25.1713 11.8149 25.0792 11.9863 24.9739 12.0654C24.8686 12.1445 24.6976 12.1973 24.4739 12.1973H23.3423C23.0923 12.1973 22.9213 12.1577 22.816 12.0654C22.7107 11.9731 22.6186 11.8017 22.566 11.5379L20.5265 3.03244L18.5002 11.5248C18.4344 11.7885 18.3555 11.9599 18.2502 12.0522C18.1449 12.1445 17.9607 12.1841 17.7239 12.1841H16.5923ZM33.5002 12.5401C32.816 12.5401 32.1318 12.461 31.4739 12.3028C30.816 12.1445 30.3028 11.9731 29.9607 11.7753C29.7502 11.6566 29.6055 11.5248 29.5528 11.4061C29.5002 11.2874 29.4739 11.1555 29.4739 11.0368V10.3643C29.4739 10.0874 29.5792 9.95552 29.7765 9.95552C29.8555 9.95552 29.9344 9.96871 30.0134 9.99508C30.0923 10.0215 30.2107 10.0742 30.3423 10.127C30.7897 10.3248 31.2765 10.483 31.7897 10.5885C32.316 10.694 32.8291 10.7467 33.3555 10.7467C34.1844 10.7467 34.8292 10.6017 35.2765 10.3116C35.7239 10.0215 35.9607 9.59948 35.9607 9.05882C35.9607 8.68959 35.8423 8.38629 35.6055 8.13574C35.3686 7.88519 34.9213 7.66102 34.2765 7.45003L32.3686 6.85662C31.4081 6.55332 30.6976 6.10497 30.2634 5.51156C29.8291 4.93134 29.6055 4.28519 29.6055 3.59948C29.6055 3.04563 29.7239 2.55772 29.9607 2.13574C30.1976 1.71376 30.5134 1.34453 30.9081 1.05442C31.3028 0.751125 31.7502 0.526949 32.2765 0.368707C32.8028 0.210465 33.3555 0.144531 33.9344 0.144531C34.2239 0.144531 34.5265 0.157718 34.816 0.197279C35.1186 0.236839 35.3949 0.289586 35.6713 0.342333C35.9344 0.408267 36.1844 0.474202 36.4213 0.553322C36.6581 0.632443 36.8423 0.711564 36.9739 0.790685C37.1581 0.89618 37.2897 1.00167 37.3686 1.12036C37.4476 1.22585 37.487 1.3709 37.487 1.55552V2.1753C37.487 2.45222 37.3818 2.59728 37.1844 2.59728C37.0792 2.59728 36.9081 2.54453 36.6844 2.43904C35.9344 2.09618 35.0923 1.92475 34.1581 1.92475C33.4081 1.92475 32.816 2.04343 32.4081 2.29398C32.0002 2.54453 31.7897 2.92695 31.7897 3.46761C31.7897 3.83684 31.9213 4.15332 32.1844 4.40387C32.4476 4.65442 32.9344 4.90497 33.6318 5.12915L35.5002 5.72255C36.4476 6.02585 37.1318 6.44783 37.5397 6.98849C37.9476 7.52915 38.1449 8.14893 38.1449 8.83464C38.1449 9.40168 38.0265 9.91596 37.8028 10.3643C37.566 10.8127 37.2502 11.2083 36.8423 11.5248C36.4344 11.8544 35.9476 12.0918 35.3818 12.2632C34.7897 12.4478 34.1713 12.5401 33.5002 12.5401Z" fill="#252F3E"/>
<path fill-rule="evenodd" clip-rule="evenodd" d="M35.9871 18.9492C31.6582 22.1536 25.3687 23.8547 19.9608 23.8547C12.3818 23.8547 5.55289 21.0459 0.394992 16.3778C-0.0129028 16.0086 0.355518 15.5075 0.84236 15.7976C6.42131 19.0415 13.3029 21.0064 20.4213 21.0064C25.2239 21.0064 30.5003 20.0042 35.3555 17.947C36.0792 17.6174 36.6976 18.4218 35.9871 18.9492Z" fill="#FF9900"/>
<path fill-rule="evenodd" clip-rule="evenodd" d="M37.79 16.8916C37.2374 16.1796 34.1321 16.5488 32.7242 16.7202C32.3032 16.773 32.2374 16.4037 32.6189 16.1268C35.0926 14.3861 39.1584 14.8872 39.6321 15.4675C40.1058 16.0609 39.5005 20.1356 37.1847 22.0872C36.8295 22.3905 36.4874 22.2323 36.6453 21.8367C37.1716 20.5312 38.3426 17.5905 37.79 16.8916Z" fill="#FF9900"/>
</svg>
