<svg width="45" height="36" viewBox="0 0 45 36" fill="none" xmlns="http://www.w3.org/2000/svg">
<g clip-path="url(#clip0)">
<path d="M20.8194 34.0866L31.4325 32.1496L31.5308 32.126L26.0733 25.4173C24.2442 23.1795 22.425 20.9331 20.6159 18.678C20.6159 18.6449 26.2517 2.61024 26.2837 2.55354C26.2928 2.53465 30.1293 9.37559 35.5799 19.1362L44.9309 35.8843L45.0018 36.0118L27.6555 36.0094L10.3092 36.0071L20.8194 34.089V34.0866ZM0.00244141 32.0457C0.00244141 32.0362 2.57455 27.4228 5.71824 21.7937L11.434 11.5583L18.0941 5.78268C21.7568 2.60787 24.7633 0.00472441 24.777 0C24.7525 0.0971614 24.7164 0.190795 24.6695 0.27874L17.4356 16.3063L10.332 32.0457L5.16724 32.0528C2.32763 32.0575 0.00244141 32.0528 0.00244141 32.0433V32.0457Z" fill="#0089D6"/>
</g>
<defs>
<clipPath id="clip0">
<rect width="45" height="36" fill="white"/>
</clipPath>
</defs>
</svg>
