<svg width="36" height="40" viewBox="0 0 36 40" fill="none" xmlns="http://www.w3.org/2000/svg">
<g clip-path="url(#clip0)">
<path d="M14.209 13.8048H15.8781V18.5911L20.6844 13.8048H22.8878L17.6141 19.0782L23.2213 25.1631H21.0853L15.8781 19.4841V25.1631H14.209V13.8048Z" fill="url(#paint0_linear)"/>
<path d="M19.4371 9.29698L27.6572 13.911C27.7973 13.99 27.8837 14.1355 27.8837 14.2927V23.5209C27.8837 23.6782 27.9707 23.8238 28.1108 23.9025L35.4463 28.0203C35.7486 28.1902 36.1264 27.9777 36.1264 27.6386V9.66559C36.1264 9.50826 36.04 9.36287 35.8999 9.28394L19.8907 0.297693C19.5883 0.128078 19.21 0.340221 19.21 0.679451V8.91532C19.21 9.07247 19.2966 9.21805 19.4371 9.29698Z" fill="url(#paint1_linear)"/>
<path d="M26.5099 25.8341L18.2898 30.4481C18.1497 30.5271 17.9765 30.5271 17.8364 30.4481L8.46927 25.1902C8.32916 25.1112 8.24218 24.9657 8.24218 24.8085V14.2925C8.24218 14.1352 8.32916 13.9898 8.46927 13.9108L16.6894 9.29664C16.8299 9.2179 16.9163 9.07232 16.9163 8.91518V0.679688C16.9163 0.340458 16.5381 0.128315 16.2358 0.297928L0.226554 9.28417C0.0863951 9.3631 0 9.50849 0 9.66583V29.4352C0 29.5924 0.0863951 29.738 0.226554 29.8169L17.8364 39.7015C17.9765 39.7805 18.1497 39.7805 18.2898 39.7015L34.299 30.7156C34.6014 30.5457 34.6014 30.1215 34.299 29.9519L26.9635 25.8341C26.8228 25.7552 26.6501 25.7552 26.5099 25.8341Z" fill="url(#paint2_linear)"/>
</g>
<defs>
<linearGradient id="paint0_linear" x1="21.9114" y1="24.8711" x2="15.0324" y2="13.2125" gradientUnits="userSpaceOnUse">
<stop stop-color="#4F66B9"/>
<stop offset="1" stop-color="#484FAB"/>
</linearGradient>
<linearGradient id="paint1_linear" x1="37.9155" y1="26.4873" x2="22.3368" y2="-1.10243" gradientUnits="userSpaceOnUse">
<stop stop-color="#4F66B9"/>
<stop offset="1" stop-color="#484FAB"/>
</linearGradient>
<linearGradient id="paint2_linear" x1="21.7598" y1="37.6027" x2="4.78255" y2="6.77266" gradientUnits="userSpaceOnUse">
<stop stop-color="#4C68BB"/>
<stop offset="1" stop-color="#5180C9"/>
</linearGradient>
<clipPath id="clip0">
<rect width="36" height="40" fill="white"/>
</clipPath>
</defs>
</svg>
