<svg width="40" height="36" viewBox="0 0 40 36" fill="none" xmlns="http://www.w3.org/2000/svg">
<path d="M12.7435 30.2085L5.72168 17.8645L12.7435 5.52051H26.7866L33.8083 17.8645L26.7866 30.2085H12.7435Z" fill="#CAC9C2"/>
<path d="M19.9995 23.4989C16.9816 23.4989 14.5264 21.0068 14.5264 17.9437C14.5264 14.8807 16.9816 12.3887 19.9995 12.3887C23.0173 12.3887 25.4726 14.8807 25.4726 17.9437C25.4726 21.0068 23.0173 23.4989 19.9995 23.4989Z" fill="white"/>
<path d="M31.0113 1.38217C30.581 0.625739 29.5248 0.00683594 28.6641 0.00683594H11.3606C10.5 0.00683594 9.44374 0.625739 9.01351 1.38217L3.95745 10.2708C3.91775 10.845 4.02159 11.4449 4.27095 11.8832L7.69346 17.8224L13.8031 7.10929H33.1141C33.5708 7.10929 34.0822 7.28477 34.5264 7.56149L31.0113 1.38217Z" fill="#5072AA"/>
<path d="M4.17674 9.88184L3.95551 10.2708C3.91576 10.8451 4.01965 11.445 4.26901 11.8833L7.69152 17.8225L9.51234 14.6297L4.17674 9.88184Z" fill="#4D6796"/>
<path d="M11.806 4.57329C11.2238 4.57329 10.75 4.09243 10.75 3.50146C10.75 2.91044 11.2238 2.42969 11.806 2.42969C12.3884 2.42969 12.862 2.91044 12.862 3.50146C12.862 4.09243 12.3884 4.57329 11.806 4.57329Z" fill="white"/>
<path d="M29.1099 3.50123C29.1099 4.04937 28.6721 4.49368 28.1321 4.49368C27.5921 4.49368 27.1543 4.04937 27.1543 3.50123C27.1543 2.95309 27.5921 2.50879 28.1321 2.50879C28.6721 2.50879 29.1099 2.95309 29.1099 3.50123Z" fill="white"/>
<path d="M39.6624 16.5923L34.5257 7.56157C34.0814 7.28485 33.5701 7.10938 33.1133 7.10938H26.1495L32.1708 17.8816L22.6377 34.9766C22.428 35.3452 22.0692 35.6806 21.6572 35.9281H28.6634C29.524 35.9281 30.5802 35.3092 31.0105 34.5529L39.6624 19.343C40.0928 18.5866 40.0928 17.3488 39.6624 16.5923Z" fill="#CC4232"/>
<path d="M34.7576 7.96663L34.5273 7.56157C34.0832 7.28485 33.572 7.10938 33.1151 7.10938H26.1514L27.9641 10.3522L34.7576 7.96663Z" fill="#B23F33"/>
<path d="M28.1322 33.3008C27.5498 33.3008 27.0762 32.82 27.0762 32.229C27.0762 31.638 27.5498 31.1572 28.1322 31.1572C28.7144 31.1572 29.1882 31.638 29.1882 32.229C29.1882 32.82 28.7144 33.3008 28.1322 33.3008Z" fill="white"/>
<path d="M36.349 19.0157C35.7667 19.0157 35.293 18.5349 35.293 17.9439C35.293 17.3529 35.7667 16.8721 36.349 16.8721C36.9313 16.8721 37.4049 17.3529 37.4049 17.9439C37.4049 18.5349 36.9313 19.0157 36.349 19.0157Z" fill="white"/>
<path d="M13.9354 28.6552L4.27016 11.8829C4.0208 11.4446 3.91696 10.8448 3.95665 10.2705L0.360797 16.5919C-0.0694844 17.3484 -0.0694844 18.5862 0.360797 19.3426L9.01272 34.5525C9.44295 35.3088 10.4992 35.9277 11.3598 35.9277H21.6572C22.0692 35.6803 22.428 35.3449 22.6377 34.9763L26.1625 28.6552H13.9354Z" fill="#ECB02A"/>
<path d="M21.0713 35.9279H21.6701C22.0821 35.6804 22.4408 35.345 22.6505 34.9764L26.1755 28.6553H22.4217L21.0713 35.9279Z" fill="#C79732"/>
<path d="M11.806 33.3008C11.2238 33.3008 10.75 32.82 10.75 32.229C10.75 31.638 11.2238 31.1572 11.806 31.1572C12.3884 31.1572 12.862 31.638 12.862 32.229C12.862 32.82 12.3884 33.3008 11.806 33.3008Z" fill="white"/>
<path d="M3.57261 19.0157C2.99036 19.0157 2.5166 18.5349 2.5166 17.9439C2.5166 17.3529 2.99036 16.8721 3.57261 16.8721C4.15491 16.8721 4.62862 17.3529 4.62862 17.9439C4.62862 18.5349 4.15491 19.0157 3.57261 19.0157Z" fill="white"/>
</svg>
