<svg width="44" height="40" viewBox="0 0 44 40" fill="none" xmlns="http://www.w3.org/2000/svg">
<g clip-path="url(#clip0)">
<path d="M43.4724 17.9501L34.432 2.04468C34.0921 1.43475 33.6005 0.925235 33.0061 0.566599C32.4116 0.207963 31.7348 0.0126488 31.0428 0H12.9586C12.2665 0.0123377 11.5896 0.207522 10.9951 0.56619C10.4006 0.924858 9.90908 1.43454 9.56937 2.04468L0.525592 17.9084C0.181861 18.5136 0.000976563 19.1994 0.000976562 19.8974C0.000976563 20.5954 0.181861 21.2812 0.525592 21.8865L9.56593 37.8823C9.90223 38.5011 10.3911 39.0214 10.985 39.3925C11.5789 39.7636 12.2577 39.9729 12.9552 40H31.0393C31.7367 39.9757 32.416 39.7688 33.0107 39.3995C33.6054 39.0301 34.0951 38.5109 34.432 37.8927L43.4724 21.9873C43.8186 21.3722 44.0006 20.6765 44.0006 19.9687C44.0006 19.2609 43.8186 18.5652 43.4724 17.9501Z" fill="#4285F4"/>
<path opacity="0.07" d="M30.8078 14.5836L21.9978 10.6055L13.5762 15.2338L13.2324 25.4329L27.611 39.9891H31.0484C31.7458 39.9649 32.4251 39.7579 33.0198 39.3886C33.6145 39.0192 34.1042 38.5 34.4411 37.8818L41.5256 25.4155L30.8078 14.5836Z" fill="black"/>
<path d="M30.5914 14.4315L22.462 9.67447C22.3207 9.59278 22.1607 9.5498 21.998 9.5498C21.8352 9.5498 21.6752 9.59278 21.5339 9.67447L13.4045 14.4315C13.2633 14.5139 13.1461 14.6326 13.0646 14.7754C12.9832 14.9183 12.9403 15.0803 12.9404 15.2452V24.7488C12.9406 24.9132 12.9836 25.0746 13.0651 25.2169C13.1465 25.3591 13.2636 25.4771 13.4045 25.559L21.5339 30.316C21.675 30.3985 21.835 30.4418 21.998 30.4418C22.1609 30.4418 22.3209 30.3985 22.462 30.316L30.5914 25.559C30.7329 25.4768 30.8503 25.3583 30.9318 25.2154C31.0133 25.0725 31.0559 24.9103 31.0555 24.7453V15.2452C31.0556 15.0803 31.0128 14.9183 30.9313 14.7754C30.8498 14.6326 30.7326 14.5139 30.5914 14.4315ZM29.4846 23.8377L26.6453 22.179V17.8115L22.4517 20.2456V25.1591L26.1916 22.9754L29.0309 24.634L21.998 28.7408L14.9651 24.634L17.8043 22.9754L21.5442 25.1591V20.2595L17.3506 17.8254V22.179L14.5113 23.8377V15.6242L21.5442 11.5175V14.8314L17.8043 17.0186L21.998 19.4528L26.1916 17.0186L22.4517 14.8314V11.5175L29.4846 15.6242V23.8377Z" fill="white"/>
</g>
<defs>
<clipPath id="clip0">
<rect width="44" height="40" fill="white"/>
</clipPath>
</defs>
</svg>
