<svg width="36" height="40" viewBox="0 0 36 40" fill="none" xmlns="http://www.w3.org/2000/svg">
<g clip-path="url(#clip0)">
<path d="M0 11.708C0 12.2461 0.314282 12.7844 0.942209 13.1927L15.7148 22.7969C16.971 23.6137 19.0271 23.6139 20.2835 22.7969L35.0572 13.1941C35.6855 12.7858 35.9996 12.2473 35.9996 11.709V28.2993C35.9996 28.8376 35.6855 29.3759 35.0572 29.7844L20.2835 39.3872C19.0271 40.204 16.971 40.2038 15.7148 39.3872L0.942209 29.7828C0.31407 29.3745 0 28.8362 0 28.2977V11.708Z" fill="black"/>
<path d="M0 11.709C0 12.2471 0.314282 12.7854 0.942209 13.1937L11.4188 20.0043L15.7162 17.211C16.9727 16.3942 19.0288 16.3944 20.285 17.211L24.5812 20.0047L35.0574 13.1953C35.6857 12.7868 35.9998 12.2485 35.9998 11.7102V11.7026C35.9998 11.1641 35.6857 10.6258 35.0576 10.2175L20.2859 0.613274C19.0288 -0.203089 16.9729 -0.203089 15.7165 0.613074L0.942847 10.2159C0.314495 10.6242 0 11.1627 0 11.7008V28.0922V11.709Z" fill="#0F6FFF"/>
</g>
<defs>
<clipPath id="clip0">
<rect width="36" height="40" fill="white"/>
</clipPath>
</defs>
</svg>
