<svg width="87" height="87" viewBox="0 0 87 87" fill="none" xmlns="http://www.w3.org/2000/svg">
<path d="M62.537 80.0182C64.27 79.0278 63.0569 76.0573 63.2797 74.0769C63.7252 69.9923 62.6114 66.3039 59.3684 63.5808C58.8979 63.1849 58.8733 62.8382 59.1457 62.2936C60.7053 59.125 62.3636 55.9811 63.7252 52.7135C65.9531 47.4408 67.5623 42.0443 67.2899 36.1773C67.0918 32.0927 64.3937 28.3299 60.6309 27.3399C57.9079 26.6219 55.6553 27.3152 53.947 29.6174C53.3034 30.4838 52.7342 31.3998 52.3133 32.3898C50.9271 35.4841 50.2585 38.7767 49.5656 42.0937C48.5505 47.0199 48.1544 51.9709 48.3031 56.9962C48.3278 58.0853 48.3031 59.1994 48.3031 60.2144C46.6444 60.0904 44.9611 59.8923 43.2778 59.8923C41.5698 59.8923 39.8618 60.1151 38.1288 60.2391C38.1288 60.0657 38.1041 59.8677 38.1288 59.6696C38.723 51.4016 37.6832 43.3068 35.381 35.385C34.7621 33.2562 33.9204 31.2017 32.4846 29.4687C31.4201 28.1815 30.1826 27.2655 28.4993 27.1418C23.771 26.7706 19.5379 30.8055 19.2903 35.9049C19.1418 39.3706 19.4884 42.7373 20.4538 46.0792C22.1124 51.7234 24.4641 57.0705 27.3109 62.1946C27.5833 62.6897 27.806 63.1106 27.2368 63.5808C23.9938 66.2792 22.9788 69.8933 23.2263 73.9779C23.3501 76.1067 23.6472 78.2358 23.969 80.3647C23.9937 80.3153 42.8816 91.1329 62.537 80.0182Z" fill="#0063FF"/>
<path fill-rule="evenodd" clip-rule="evenodd" d="M43.1813 85.1664C66.423 85.1664 85.2645 66.3252 85.2645 43.0832C85.2645 19.8413 66.423 1 43.1813 1C19.9393 1 1.09802 19.8413 1.09802 43.0832C1.09802 66.3252 19.9393 85.1664 43.1813 85.1664Z" stroke="#0063FF" stroke-width="2"/>
</svg>
