<?xml version="1.0" encoding="UTF-8"?>
<svg width="85px" height="85px" viewBox="0 0 85 85" version="1.1" xmlns="http://www.w3.org/2000/svg" xmlns:xlink="http://www.w3.org/1999/xlink">
    <g id="Overview" stroke="none" stroke-width="1" fill="none" fill-rule="evenodd">
        <g id="lazy-loader-" transform="translate(-746.000000, -465.000000)">
            <g id="Group-10-Copy-3" transform="translate(747.000000, 466.000000)">
                <circle id="Oval-4" stroke="#6976F4" fill="#6976F4" cx="41.5" cy="41.5" r="41.5"></circle>
                <path d="M60.4223111,76.2370872 C62.0809247,75.2974548 60.9198683,72.4790901 61.1330688,70.6000916 C61.5594697,66.724707 60.4934674,63.2251754 57.3897092,60.6415857 C56.9394105,60.2659989 56.9157813,59.9369945 57.1765088,59.4203298 C58.6691805,56.4140386 60.2563692,53.4311717 61.5594697,50.3309173 C63.6917427,45.3282401 65.2319415,40.2081754 64.971214,34.6417188 C64.7816428,30.7663342 62.1993396,27.1962636 58.5980241,26.2568975 C55.9918231,25.5757305 53.8359208,26.2334732 52.2009365,28.4177857 C51.5849644,29.2397644 51.0401487,30.1088577 50.637377,31.0482239 C49.3106473,33.9839761 48.6707774,37.107921 48.0075468,40.2550239 C47.0360616,44.9289629 46.6569192,49.6263261 46.7992319,54.3942283 C46.8228611,55.4275578 46.7992319,56.4845776 46.7992319,57.4476342 C45.2117746,57.3299806 43.600688,57.1420541 41.9896015,57.1420541 C40.3548857,57.1420541 38.7201699,57.3534048 37.0615563,57.4710585 C37.0615563,57.3065563 37.037927,57.1186298 37.0615563,56.9307033 C37.6302698,49.0862372 36.6351554,41.406007 34.431726,33.8900129 C33.8393832,31.8702026 33.0338399,29.9209313 31.6595831,28.2767077 C30.6408394,27.0554519 29.4564223,26.1863585 27.8453357,26.068971 C23.3199816,25.7168085 19.2685286,29.5450783 19.0315915,34.3832533 C18.8894399,37.6714342 19.2211895,40.8656519 20.1451745,44.0364453 C21.732578,49.3915511 23.9832928,54.4647673 26.7079086,59.3263666 C26.9686361,59.7961828 27.1818366,60.19546 26.6370208,60.6415857 C23.5331821,63.2017511 22.5617506,66.6307438 22.7986609,70.5061284 C22.9171294,72.5259386 23.2014325,74.5460151 23.5094454,76.5658254 C23.5331284,76.5189769 41.6104591,86.7825306 60.4223111,76.2370872 Z" id="Shape" fill="#FFFFFF" fill-rule="nonzero"></path>
                <path d="M41.5000405,82 C63.8673581,82 82,63.86761 82,41.5 C82,19.132471 63.8673581,1 41.5000405,1 C19.1324529,1 1,19.132471 1,41.5 C1,63.86761 19.1324529,82 41.5000405,82 Z" id="Shape" stroke="#FFFFFF" stroke-width="2"></path>
            </g>
        </g>
    </g>
</svg>
