<svg width="42" height="40" viewBox="0 0 42 40" fill="none" xmlns="http://www.w3.org/2000/svg">
<g clip-path="url(#clip0)">
<path d="M39.9848 11.2748C39.5153 10.3043 38.9719 9.36767 38.3414 8.48438L31.6058 10.9373C32.389 11.7395 33.0472 12.6413 33.5855 13.6056L39.9848 11.2748ZM10.2103 18.7297L3.47266 21.1826C3.55877 22.2639 3.74536 23.3318 4.00679 24.3782L10.4072 22.0464C10.1991 20.963 10.1252 19.8469 10.2103 18.7297Z" fill="#C22133"/>
<path d="M25.1632 9.3618C26.5647 10.0163 27.7786 10.9088 28.8027 11.9553L35.5384 9.50234C33.6725 6.88221 31.131 4.69295 28.0174 3.23926C18.3876 -1.25415 6.8991 2.92944 2.4097 12.5646C0.955951 15.6823 0.415665 18.9939 0.669917 22.2009L7.40658 19.7479C7.51833 18.2871 7.87408 16.8231 8.52713 15.4197C11.4449 9.1597 18.9074 6.44313 25.1632 9.3618Z" fill="#DB212E"/>
<path d="M32.3477 21.6822C32.2401 23.142 31.872 24.606 31.2169 26.0104C28.3002 32.2714 20.8367 34.988 14.5819 32.0693C13.1784 31.4138 11.9553 30.5284 10.9352 29.48L4.21289 31.9278C6.07467 34.5479 8.61309 36.7382 11.7287 38.1929C21.3585 42.6853 32.845 38.5017 37.3354 28.8655C38.7901 25.7498 39.3263 22.4382 39.07 19.2344L32.3477 21.6822Z" fill="#DB212E"/>
<path d="M34.0033 13.4531L27.6029 15.784C28.7922 17.9158 29.354 20.3697 29.1695 22.838L35.8918 20.3912C35.699 17.9773 35.0562 15.6208 34.0033 13.4531ZM4.42578 24.2242L-1.97461 26.5571C-1.38716 28.892 -0.367079 31.111 1.03541 33.0859L7.75669 30.6371C6.03126 28.8643 4.88405 26.6207 4.42578 24.2242Z" fill="#EB2126"/>
<path d="M39.0094 9.49898C38.7971 9.15428 38.5767 8.81471 38.3419 8.48438L31.6063 10.9373C31.9026 11.2409 32.1753 11.5631 32.4357 11.8934L39.0094 9.49898ZM10.1847 20.0832C10.1683 19.6339 10.1755 19.1825 10.2103 18.7301L3.47266 21.183C3.50751 21.6149 3.56185 22.0437 3.62644 22.4715L10.1847 20.0832H10.1847Z" fill="#AD213B"/>
<path d="M39.0691 19.2344L32.3468 21.6822C32.276 22.6506 32.0874 23.6211 31.7788 24.5752L39.0957 21.9058C39.1481 21.0112 39.1398 20.1187 39.0691 19.2344ZM4.21289 31.9288C4.73062 32.6582 5.30372 33.3538 5.92602 34.0103L13.244 31.3399C12.389 30.8044 11.6159 30.1796 10.9342 29.48L4.21289 31.9288Z" fill="#BA2133"/>
</g>
<defs>
<clipPath id="clip0">
<rect width="42" height="40" fill="white"/>
</clipPath>
</defs>
</svg>
