<svg width="40" height="40" viewBox="0 0 40 40" fill="none" xmlns="http://www.w3.org/2000/svg">
<path d="M35.7041 8.97305C35.4809 8.22119 34.9452 7.6103 34.2755 7.23437L20.6598 0.373629C20.3026 0.185663 19.9009 0.138672 19.5437 0.138672C19.1866 0.138672 18.7848 0.138672 18.4277 0.232655L4.81194 7.14039C4.14231 7.46933 3.65125 8.08021 3.47269 8.87907L0.124552 24.3392C-0.00937361 25.1381 0.169194 25.9369 0.615612 26.5948L10.035 38.8596C10.5707 39.4235 11.3296 39.7994 12.0886 39.8464H27.0882C27.8918 39.9404 28.6507 39.5644 29.1417 38.8596L38.5611 26.5948C39.0076 25.9369 39.1861 25.1381 39.0968 24.3392L35.7041 8.97305Z" fill="#326DE6"/>
<path d="M33.6067 23.7288C33.5621 23.7288 33.5175 23.7288 33.5175 23.6818C33.5175 23.6348 33.4282 23.6348 33.3389 23.6348C33.1603 23.5878 32.9818 23.5878 32.8032 23.5878C32.7139 23.5878 32.6246 23.5878 32.5353 23.5408H32.4907C31.9996 23.4938 31.4639 23.3999 30.9729 23.2589C30.8389 23.2119 30.705 23.0709 30.6604 22.9299C30.705 22.9299 30.6604 22.9299 30.6604 22.9299L30.3032 22.836C30.4818 21.4732 30.3925 20.0635 30.1247 18.7007C29.8122 17.338 29.2765 16.0222 28.5622 14.8474L28.8301 14.5655V14.5185C28.8301 14.3775 28.8747 14.1896 28.964 14.0956C29.3658 13.7196 29.7675 13.4377 30.214 13.1557C30.3032 13.1087 30.3925 13.0618 30.4818 13.0148C30.6604 12.9208 30.7943 12.8268 30.9729 12.7328C31.0175 12.6858 31.0622 12.6858 31.1068 12.6388C31.1514 12.5918 31.1068 12.5918 31.1068 12.5449C31.5086 12.2159 31.5979 11.652 31.2854 11.2291C31.1514 11.0411 30.8836 10.9002 30.6604 10.9002C30.4372 10.9002 30.214 10.9941 30.0354 11.1351L29.9908 11.1821C29.9461 11.2291 29.9015 11.2761 29.8568 11.2761C29.7229 11.4171 29.589 11.558 29.4997 11.699C29.4551 11.793 29.3658 11.84 29.3211 11.887C29.0086 12.2629 28.6069 12.6388 28.2051 12.9208C28.1158 12.9678 28.0265 13.0148 27.9372 13.0148C27.8926 13.0148 27.8033 13.0148 27.7587 12.9678H27.714L27.3569 13.2027C26.9998 12.8268 26.598 12.4509 26.2408 12.0749C24.5891 10.7122 22.5356 9.86634 20.4374 9.63139L20.3928 9.25546V9.30245C20.2588 9.20846 20.2142 9.06749 20.1696 8.92652C20.1696 8.40961 20.1696 7.89271 20.2588 7.32881V7.28182C20.2588 7.18784 20.3035 7.09385 20.3035 6.99987C20.3481 6.81191 20.3481 6.62394 20.3928 6.43597V6.15403C20.4374 5.68411 20.0803 5.2142 19.6339 5.16721C19.366 5.12022 19.0982 5.26119 18.8749 5.49615C18.6964 5.68411 18.6071 5.91907 18.6071 6.15403V6.38898C18.6071 6.57695 18.6517 6.76491 18.6964 6.95288C18.741 7.04686 18.741 7.14084 18.741 7.23483V7.28182C18.8303 7.79872 18.8303 8.31563 18.8303 8.87953C18.7857 9.0205 18.741 9.16147 18.6071 9.25546V9.34944L18.5624 9.72537C18.0714 9.77236 17.5803 9.86634 17.0446 9.96033C14.9465 10.4302 13.0269 11.605 11.5537 13.2497L11.2858 13.0618H11.2412C11.1966 13.0618 11.1519 13.1087 11.0626 13.1087C10.9733 13.1087 10.8841 13.0618 10.7948 13.0148C10.393 12.6858 9.99122 12.3099 9.67873 11.934C9.63409 11.84 9.54481 11.793 9.50016 11.746C9.36624 11.605 9.27695 11.464 9.14303 11.3231C9.09839 11.2761 9.05375 11.2761 9.0091 11.2291C8.96446 11.1821 8.96446 11.1821 8.96446 11.1821C8.78589 11.0411 8.56269 10.9471 8.33948 10.9471C8.07163 10.9471 7.84842 11.0411 7.71449 11.2761C7.44664 11.699 7.53592 12.2629 7.89306 12.5918C7.9377 12.5918 7.9377 12.6388 7.9377 12.6388C7.9377 12.6388 8.02698 12.7328 8.07163 12.7328C8.20555 12.8268 8.38412 12.9208 8.56269 13.0148C8.65197 13.0618 8.74125 13.1087 8.83054 13.1557C9.27695 13.4377 9.72337 13.7196 10.0805 14.0956C10.1698 14.1896 10.2591 14.3775 10.2144 14.5185V14.4715L10.4823 14.7534C10.4376 14.8474 10.393 14.8944 10.3484 14.9884C8.96446 17.291 8.38412 20.0165 8.78589 22.695L8.42876 22.789C8.42876 22.836 8.38412 22.836 8.38412 22.836C8.33948 22.9769 8.20555 23.0709 8.07163 23.1649C7.58057 23.3059 7.08951 23.3999 6.5538 23.4468C6.46452 23.4468 6.37524 23.4468 6.28595 23.4938C6.10739 23.4938 5.92882 23.5408 5.75025 23.5408C5.70561 23.5408 5.66097 23.5878 5.57168 23.5878C5.52704 23.5878 5.52704 23.5878 5.4824 23.6348C4.99134 23.7288 4.67885 24.1987 4.76813 24.7156C4.85742 25.1385 5.25919 25.4205 5.66097 25.3735C5.75025 25.3735 5.79489 25.3735 5.88418 25.3265C5.92882 25.3265 5.92882 25.3265 5.92882 25.2795C5.92882 25.2325 6.06274 25.2795 6.10739 25.2795C6.28595 25.2325 6.46452 25.1385 6.59845 25.0915C6.68773 25.0446 6.77701 24.9976 6.8663 24.9976H6.91094C7.402 24.8096 7.84842 24.6686 8.38412 24.5746H8.42876C8.56268 24.5746 8.69661 24.6216 8.78589 24.7156C8.83054 24.7156 8.83054 24.7626 8.83054 24.7626L9.23231 24.7156C9.90194 26.8772 11.1519 28.8039 12.8929 30.2136C13.2947 30.5425 13.6519 30.8245 14.0983 31.0595L13.8751 31.3884C13.8751 31.4354 13.9197 31.4354 13.9197 31.4354C14.009 31.5764 14.009 31.7643 13.9643 31.9053C13.7858 32.3752 13.5179 32.8451 13.2501 33.268V33.315C13.2054 33.409 13.1608 33.456 13.0715 33.55C12.9822 33.644 12.8929 33.8319 12.759 34.0199C12.7144 34.0669 12.7144 34.1139 12.6697 34.1609C12.6697 34.1609 12.6697 34.2079 12.6251 34.2079C12.4019 34.6778 12.5804 35.2417 12.9822 35.4766C13.0715 35.5236 13.2054 35.5706 13.2947 35.5706C13.6519 35.5706 13.9643 35.3357 14.1429 35.0067C14.1429 35.0067 14.1429 34.9597 14.1876 34.9597C14.1876 34.9127 14.2322 34.8658 14.2768 34.8188C14.3215 34.6308 14.4108 34.4898 14.4554 34.3019L14.5447 34.0199C14.6786 33.503 14.9018 33.0331 15.125 32.5632C15.2143 32.4222 15.3482 32.3282 15.4822 32.2812C15.5268 32.2812 15.5268 32.2812 15.5268 32.2342L15.7054 31.8583C16.9553 32.3752 18.25 32.6102 19.5892 32.6102C20.3928 32.6102 21.1963 32.5162 21.9999 32.2812C22.4909 32.1872 22.982 31.9993 23.4284 31.8583L23.607 32.1872C23.6516 32.1872 23.6516 32.1872 23.6516 32.2342C23.7855 32.2812 23.9195 32.3752 24.0087 32.5162C24.232 32.9861 24.4552 33.456 24.5891 33.9729V34.0199L24.6784 34.3019C24.723 34.4898 24.7677 34.6778 24.8569 34.8188C24.9016 34.8658 24.9016 34.9127 24.9462 34.9597C24.9462 34.9597 24.9462 35.0067 24.9909 35.0067C25.1694 35.3357 25.4819 35.5706 25.8391 35.5706C25.973 35.5706 26.0623 35.5236 26.1962 35.4766C26.3748 35.3827 26.5533 35.1947 26.598 34.9597C26.6426 34.7248 26.6426 34.4898 26.5533 34.2549C26.5533 34.2079 26.5087 34.2079 26.5087 34.2079C26.5087 34.1609 26.464 34.1139 26.4194 34.0669C26.3301 33.8789 26.2408 33.738 26.1069 33.597C26.0623 33.503 26.0176 33.456 25.9283 33.362V33.268C25.6159 32.8451 25.3926 32.3752 25.2141 31.9053C25.1694 31.7643 25.1694 31.5764 25.2587 31.4354C25.2587 31.3884 25.3034 31.3884 25.3034 31.3884L25.1694 31.0125C27.4462 29.5557 29.1872 27.3001 29.9908 24.6216L30.3479 24.6686C30.3925 24.6686 30.3925 24.6216 30.3925 24.6216C30.4818 24.5277 30.6157 24.4807 30.7497 24.4807H30.7943C31.2854 24.5746 31.7764 24.7156 32.2228 24.9036H32.2675C32.3568 24.9506 32.446 24.9976 32.5353 24.9976C32.7139 25.0915 32.8478 25.1855 33.0264 25.2325C33.071 25.2325 33.1157 25.2795 33.205 25.2795C33.2496 25.2795 33.2496 25.2795 33.2942 25.3265C33.3835 25.3735 33.4282 25.3735 33.5175 25.3735C33.9192 25.3735 34.2764 25.0915 34.4103 24.7156C34.3657 24.1987 34.0085 23.8228 33.6067 23.7288ZM20.7053 22.2721L19.4999 22.883L18.2946 22.2721L17.9821 20.9093L18.8303 19.7815H20.1696L21.0177 20.9093L20.7053 22.2721ZM27.9819 19.2176C28.2051 20.2044 28.2497 21.1913 28.1604 22.1781L23.9195 20.9093C23.5177 20.8153 23.2945 20.3924 23.3838 19.9695C23.4284 19.8285 23.473 19.7345 23.5623 19.6405L26.9105 16.4451C27.4015 17.291 27.7587 18.2308 27.9819 19.2176ZM25.5712 14.7065L21.9106 17.432C21.5981 17.6199 21.1517 17.5729 20.9285 17.244C20.8392 17.15 20.7945 17.056 20.7945 16.915L20.5267 12.1689C22.4909 12.4039 24.232 13.2967 25.5712 14.7065ZM17.491 12.3099L18.3839 12.1219L18.1607 16.8211C18.1607 17.244 17.8035 17.5729 17.4018 17.5729C17.2678 17.5729 17.1786 17.5259 17.0446 17.4789L13.3394 14.7065C14.5 13.5317 15.9286 12.6858 17.491 12.3099ZM12.0447 16.4451L15.3482 19.5466C15.6607 19.8285 15.7054 20.2984 15.4375 20.6274C15.3482 20.7683 15.259 20.8153 15.0804 20.8623L10.7501 22.1781C10.6162 20.2044 11.0626 18.1838 12.0447 16.4451ZM11.2858 24.3867L15.7054 23.5878C16.0625 23.5878 16.4196 23.8228 16.4643 24.1987C16.5089 24.3397 16.5089 24.5277 16.4196 24.6686L14.7233 28.9918C13.1608 27.911 11.9108 26.2663 11.2858 24.3867ZM21.4195 30.2136C20.7945 30.3546 20.1696 30.4486 19.4999 30.4486C18.5624 30.4486 17.5803 30.2606 16.6875 29.9786L18.8749 25.7964C19.0982 25.5145 19.4553 25.4205 19.7678 25.6085C19.9017 25.7024 19.991 25.7964 20.1249 25.9374L22.2677 30.0256C21.9999 30.0726 21.732 30.1196 21.4195 30.2136ZM26.8658 26.1254C26.1962 27.2532 25.2587 28.24 24.1873 28.9448L22.4463 24.5277C22.357 24.1517 22.5356 23.7758 22.8481 23.6348C22.982 23.5878 23.1159 23.5408 23.2498 23.5408L27.714 24.3397C27.4908 24.9976 27.223 25.6085 26.8658 26.1254Z" fill="white"/>
</svg>
