<svg width="48" height="20" viewBox="0 0 48 20" fill="none" xmlns="http://www.w3.org/2000/svg">
<g clip-path="url(#clip0)">
<path fill-rule="evenodd" clip-rule="evenodd" d="M36.598 2.12597H34.198H31.5997H26.6014C26.6014 2.12597 26.6609 0.0742188 26.0063 0.0742188C25.3518 0.0742188 24.7766 3.54927 24.8162 4.73226C24.8559 5.91525 25.808 6.04464 25.808 6.04464H29.9733C29.7551 6.46978 29.398 6.69159 29.1204 6.78402H27.4146H25.0146C25.0146 6.78402 23.8245 6.74705 23.8245 5.67496C23.8245 4.60287 24.36 3.6232 24.2212 2.88383C24.0823 2.14446 23.2295 2.14446 23.2295 2.14446H2.81953C2.81953 2.14446 2.22449 2.23688 2.02614 2.51415C1.82779 2.79141 -1.98047 7.89307 -1.98047 7.89307C-1.98047 7.89307 -2.11931 8.31821 -1.78212 8.63244C-1.44493 8.94668 -1.18708 9.18697 -1.18708 9.18697C-1.18708 9.18697 -1.04824 9.37182 -0.592041 9.00213C-0.116008 8.63244 1.80796 7.13522 1.80796 7.13522V13.8635V19.0761C1.80796 19.5936 2.26416 20.0003 2.7997 20.0003H8.78978C9.34515 20.0003 9.78151 19.5751 9.78151 19.0761V14.8986C9.78151 14.4365 10.1782 14.0483 10.6939 14.0483H25.2724C25.7683 14.0483 26.1848 14.418 26.1848 14.8986V19.0761C26.1848 19.5936 26.641 20.0003 27.1766 20.0003H33.1666C33.722 20.0003 34.1584 19.5751 34.1584 19.0761V14.6029H30.965C30.0724 14.6029 29.3584 13.9374 29.3584 13.1056V10.1297C29.3584 9.66756 29.5964 9.24243 29.9534 8.96516V12.3663C29.9534 13.1981 30.6675 13.8635 31.56 13.8635H36.5584C37.4509 13.8635 38.165 13.1981 38.165 12.3663V3.6232C38.2047 2.79141 37.4906 2.12597 36.598 2.12597Z" fill="#006CA1"/>
<path fill-rule="evenodd" clip-rule="evenodd" d="M38.998 3.99289V6.04464H42.3898C42.3898 6.04464 43.5799 5.65647 43.5799 4.54742C43.5799 3.43836 42.6873 0.0742188 42.1716 0.0742188C41.6559 0.0742188 41.5766 1.86719 41.5766 2.86535C41.5766 3.8635 40.3865 3.9744 40.3865 3.9744H38.998V3.99289Z" fill="#006CA1"/>
<path fill-rule="evenodd" clip-rule="evenodd" d="M46.9093 0C46.2944 0 45.8184 0.462107 45.8184 1.01664C45.8184 1.57116 46.3142 2.03327 46.9093 2.03327C47.5241 2.03327 48.0002 1.57116 48.0002 1.01664C48.0002 0.462107 47.5043 0 46.9093 0ZM46.9093 1.86691C46.4134 1.86691 46.0167 1.49723 46.0167 1.03512C46.0167 0.573013 46.4134 0.203327 46.9093 0.203327C47.4051 0.203327 47.8018 0.573013 47.8018 1.03512C47.8018 1.49723 47.4051 1.86691 46.9093 1.86691Z" fill="#006CA1"/>
<path d="M46.9286 1.16467H46.7898V1.49739H46.5518V0.554688H46.9485C47.0675 0.554688 47.1666 0.573172 47.2261 0.628625C47.2856 0.684078 47.3253 0.73953 47.3253 0.831952C47.3253 0.887405 47.3055 0.942858 47.2856 0.99831C47.2658 1.03528 47.2063 1.07225 47.1468 1.10922L47.3451 1.4789V1.49739H47.0873L46.9286 1.16467ZM46.7898 0.979826H46.9485C46.9881 0.979826 47.0278 0.961342 47.0476 0.942857C47.0675 0.924373 47.0873 0.887405 47.0873 0.850436C47.0873 0.813467 47.0675 0.776499 47.0476 0.758015C47.0278 0.73953 46.9881 0.73953 46.9485 0.73953H46.7898V0.979826Z" fill="#006CA1"/>
</g>
<defs>
<clipPath id="clip0">
<rect width="48" height="20" fill="white"/>
</clipPath>
</defs>
</svg>
