<?xml version="1.0" encoding="UTF-8"?>
<svg width="165px" height="36px" viewBox="0 0 165 36" version="1.1" xmlns="http://www.w3.org/2000/svg" xmlns:xlink="http://www.w3.org/1999/xlink">
    <!-- Generator: Sketch 51.3 (57544) - http://www.bohemiancoding.com/sketch -->
    <title>de-code_logo</title>
    <desc>Created with Sketch.</desc>
    <defs></defs>
    <g id="Maya-light" stroke="none" stroke-width="1" fill="none" fill-rule="evenodd">
        <g id="Branding" transform="translate(-36.000000, -29.000000)" fill="#6C35FF">
            <g id="de-code_logo" transform="translate(36.000000, 29.000000)">
                <path d="M18.7678855,35.127186 C18.163749,35.127186 17.7821948,34.8330713 17.6232114,34.2448331 L17.2416534,31.3116057 C16.2082619,32.5675738 15.0278286,33.5731282 13.700318,34.3282989 C12.3728074,35.0834696 10.850565,35.4610493 9.13354531,35.4610493 C7.75039054,35.4610493 6.49444126,35.1947562 5.36565978,34.6621622 C4.2368783,34.1295681 3.27504372,33.346587 2.48012719,32.3131955 C1.68521065,31.2798041 1.0731341,29.9920586 0.643879173,28.4499205 C0.214624245,26.9077824 0,25.1351452 0,23.1319555 C0,21.3513424 0.238471383,19.6939663 0.715421304,18.1597774 C1.19237122,16.6255885 1.87996371,15.2941233 2.7782194,14.1653418 C3.67647508,13.0365603 4.76946892,12.1502417 6.0572337,11.5063593 C7.34499849,10.8624769 8.80762297,10.5405405 10.445151,10.5405405 C11.9236958,10.5405405 13.1875941,10.7909355 14.2368839,11.2917329 C15.2861738,11.7925303 16.2241612,12.4960209 17.0508744,13.4022258 L17.0508744,0 L21.2957075,0 L21.2957075,35.127186 L18.7678855,35.127186 Z M10.5405405,32.027027 C11.9236953,32.027027 13.1359248,31.7090652 14.1772655,31.073132 C15.2186062,30.4371987 16.1764662,29.5389565 17.0508744,28.3783784 L17.0508744,16.6931638 C16.2718562,15.6438739 15.4173337,14.9085872 14.4872814,14.4872814 C13.5572291,14.0659756 12.5278276,13.8553259 11.3990461,13.8553259 C9.14148315,13.8553259 7.4085911,14.6581796 6.20031797,16.263911 C4.99204483,17.8696424 4.38791733,20.1589676 4.38791733,23.1319555 C4.38791733,24.7058902 4.52305111,26.0532535 4.79332273,27.1740859 C5.06359436,28.2949182 5.46104666,29.2170075 5.98569157,29.9403816 C6.51033649,30.6637556 7.15420922,31.1923672 7.91732909,31.5262321 C8.68044897,31.8600971 9.55484404,32.027027 10.5405405,32.027027 Z M37.9888712,10.5882353 C39.4356193,10.5882353 40.7710591,10.8306812 41.9952305,11.3155803 C43.219402,11.8004794 44.2766251,12.4999954 45.1669316,13.4141494 C46.0572382,14.3283035 46.7527797,15.457068 47.2535771,16.8004769 C47.7543745,18.1438859 48.0047695,19.6740773 48.0047695,21.391097 C48.0047695,22.0588269 47.9332281,22.5039734 47.7901431,22.7265501 C47.6470581,22.9491267 47.3767905,23.0604134 46.9793323,23.0604134 L30.9062003,23.0604134 C30.937997,24.5866531 31.1446722,25.9141438 31.5262321,27.0429253 C31.9077921,28.1717068 32.4324291,29.1136687 33.100159,29.8688394 C33.7678889,30.6240101 34.5627935,31.1883924 35.4848967,31.5620032 C36.4069998,31.935614 37.4403758,32.1224165 38.5850556,32.1224165 C39.6502438,32.1224165 40.5683586,31.9992063 41.3394277,31.7527822 C42.1104967,31.5063581 42.7742421,31.240065 43.3306836,30.9538951 C43.8871252,30.6677251 44.3521444,30.4014321 44.7257552,30.1550079 C45.0993659,29.9085838 45.4213023,29.7853736 45.6915739,29.7853736 C46.0413372,29.7853736 46.3116048,29.9205074 46.5023847,30.190779 L47.6947536,31.7408585 C47.1701087,32.3767917 46.542134,32.9292504 45.8108108,33.3982512 C45.0794876,33.8672519 44.2965066,34.2527807 43.4618442,34.554849 C42.6271818,34.8569172 41.7647103,35.0834651 40.8744038,35.2344992 C39.9840973,35.3855333 39.1017532,35.4610493 38.227345,35.4610493 C36.5580203,35.4610493 35.0198798,35.1788581 33.6128776,34.6144674 C32.2058753,34.0500767 30.9896713,33.2233759 29.9642289,32.1343402 C28.9387866,31.0453046 28.1399075,29.6979413 27.5675676,28.0922099 C26.9952277,26.4864785 26.709062,24.6422998 26.709062,22.5596184 C26.709062,20.8743954 26.967406,19.3004843 27.4841017,17.8378378 C28.0007975,16.3751914 28.7440333,15.1073186 29.7138315,14.0341812 C30.6836297,12.9610439 31.8680375,12.118445 33.2670906,11.5063593 C34.6661437,10.8942736 36.2400548,10.5882353 37.9888712,10.5882353 Z M38.0842607,13.7122417 C36.0333761,13.7122417 34.4197197,14.3044456 33.2432432,15.4888712 C32.0667668,16.6732969 31.3354545,18.3147749 31.0492846,20.4133545 L44.1891892,20.4133545 C44.1891892,19.427658 44.0540554,18.5254413 43.7837838,17.7066773 C43.5135122,16.8879132 43.1160599,16.1804481 42.5914149,15.5842607 C42.06677,14.9880733 41.4268718,14.5270287 40.6717011,14.2011129 C39.9165304,13.8751971 39.0540589,13.7122417 38.0842607,13.7122417 Z M52.3211447,19.0302067 L64.1017488,19.0302067 L64.1017488,22.6311606 L52.3211447,22.6311606 L52.3211447,19.0302067 Z M86.4467409,15.2623211 C86.3195542,15.4372028 86.1923695,15.5723366 86.0651828,15.6677266 C85.9379962,15.7631165 85.7551681,15.8108108 85.5166932,15.8108108 C85.2782182,15.8108108 85.0198742,15.7114477 84.7416534,15.5127186 C84.4634326,15.3139895 84.1097001,15.0953907 83.6804452,14.8569157 C83.2511902,14.6184408 82.7305277,14.399842 82.118442,14.2011129 C81.5063562,14.0023837 80.7551714,13.9030207 79.8648649,13.9030207 C78.6883884,13.9030207 77.6470634,14.1136704 76.7408585,14.5349762 C75.8346537,14.9562819 75.0755198,15.5643839 74.463434,16.3593005 C73.8513483,17.154217 73.3903036,18.1160516 73.0802862,19.2448331 C72.7702687,20.3736145 72.6152623,21.6375129 72.6152623,23.036566 C72.6152623,24.4992124 72.7821923,25.7988814 73.1160572,26.9356121 C73.4499222,28.0723427 73.9189159,29.0262283 74.5230525,29.7972973 C75.127189,30.5683663 75.8624758,31.1565957 76.7289348,31.5620032 C77.5953938,31.9674106 78.569152,32.1701113 79.6502385,32.1701113 C80.68363,32.1701113 81.5341779,32.0469011 82.2019078,31.8004769 C82.8696377,31.5540528 83.4260709,31.2798107 83.8712242,30.9777424 C84.3163774,30.6756742 84.6820335,30.4014321 84.9682035,30.1550079 C85.2543734,29.9085838 85.5405391,29.7853736 85.8267091,29.7853736 C86.1923707,29.7853736 86.4626382,29.9205074 86.6375199,30.190779 L87.8298887,31.7408585 C86.7805989,33.0286233 85.4690063,33.9705853 83.8950715,34.5667727 C82.3211368,35.1629601 80.6597862,35.4610493 78.9109698,35.4610493 C77.4006284,35.4610493 75.9976217,35.1828327 74.7019078,34.6263911 C73.4061938,34.0699495 72.2814038,33.2631213 71.327504,32.2058824 C70.3736041,31.1486434 69.6224193,29.8489743 69.0739269,28.3068362 C68.5254345,26.7646982 68.2511924,25.007959 68.2511924,23.036566 C68.2511924,21.2400546 68.5015873,19.578704 69.0023847,18.0524642 C69.5031822,16.5262245 70.2344944,15.2106574 71.1963434,14.1057234 C72.1581924,13.0007894 73.3465748,12.1383179 74.7615262,11.518283 C76.1764777,10.8982481 77.7980831,10.5882353 79.6263911,10.5882353 C81.3116141,10.5882353 82.8060348,10.8624774 84.1096979,11.4109698 C85.413361,11.9594622 86.5659727,12.7344942 87.5675676,13.736089 L86.4467409,15.2623211 Z M102.019078,10.5882353 C103.783793,10.5882353 105.377576,10.88235 106.800477,11.4705882 C108.223378,12.0588265 109.431633,12.8934763 110.425278,13.9745628 C111.418924,15.0556493 112.182032,16.3632674 112.714626,17.8974563 C113.24722,19.4316452 113.513514,21.1446646 113.513514,23.036566 C113.513514,24.9443657 113.24722,26.6613596 112.714626,28.1875994 C112.182032,29.7138391 111.418924,31.0174827 110.425278,32.0985692 C109.431633,33.1796556 108.223378,34.010331 106.800477,34.59062 C105.377576,35.1709091 103.783793,35.4610493 102.019078,35.4610493 C100.254363,35.4610493 98.6605795,35.1709091 97.2376789,34.59062 C95.8147783,34.010331 94.6025487,33.1796556 93.6009539,32.0985692 C92.5993591,31.0174827 91.8283016,29.7138391 91.2877583,28.1875994 C90.7472151,26.6613596 90.4769475,24.9443657 90.4769475,23.036566 C90.4769475,21.1446646 90.7472151,19.4316452 91.2877583,17.8974563 C91.8283016,16.3632674 92.5993591,15.0556493 93.6009539,13.9745628 C94.6025487,12.8934763 95.8147783,12.0588265 97.2376789,11.4705882 C98.6605795,10.88235 100.254363,10.5882353 102.019078,10.5882353 Z M102.019078,32.1462639 C104.403828,32.1462639 106.184414,31.3473848 107.36089,29.7496025 C108.537367,28.1518203 109.125596,25.9221129 109.125596,23.0604134 C109.125596,20.1828155 108.537367,17.9411845 107.36089,16.3354531 C106.184414,14.7297217 104.403828,13.926868 102.019078,13.926868 C100.810805,13.926868 99.7615307,14.1335432 98.8712242,14.5468998 C97.9809176,14.9602564 97.2376818,15.5564349 96.6414944,16.3354531 C96.045307,17.1144713 95.6001605,18.0723314 95.3060413,19.209062 C95.0119222,20.3457926 94.8648649,21.6295636 94.8648649,23.0604134 C94.8648649,24.4912631 95.0119222,25.7710595 95.3060413,26.899841 C95.6001605,28.0286225 96.045307,28.9785335 96.6414944,29.7496025 C97.2376818,30.5206716 97.9809176,31.1128755 98.8712242,31.5262321 C99.7615307,31.9395887 100.810805,32.1462639 102.019078,32.1462639 Z M135.763116,35.127186 C135.158979,35.127186 134.777425,34.8330713 134.618442,34.2448331 L134.236884,31.3116057 C133.203492,32.5675738 132.023059,33.5731282 130.695548,34.3282989 C129.368038,35.0834696 127.845796,35.4610493 126.128776,35.4610493 C124.745621,35.4610493 123.489672,35.1947562 122.36089,34.6621622 C121.232109,34.1295681 120.270274,33.346587 119.475358,32.3131955 C118.680441,31.2798041 118.068365,29.9920586 117.63911,28.4499205 C117.209855,26.9077824 116.995231,25.1351452 116.995231,23.1319555 C116.995231,21.3513424 117.233702,19.6939663 117.710652,18.1597774 C118.187602,16.6255885 118.875194,15.2941233 119.77345,14.1653418 C120.671706,13.0365603 121.764699,12.1502417 123.052464,11.5063593 C124.340229,10.8624769 125.802853,10.5405405 127.440382,10.5405405 C128.918926,10.5405405 130.182825,10.7909355 131.232114,11.2917329 C132.281404,11.7925303 133.219392,12.4960209 134.046105,13.4022258 L134.046105,0 L138.290938,0 L138.290938,35.127186 L135.763116,35.127186 Z M127.535771,32.027027 C128.918926,32.027027 130.131155,31.7090652 131.172496,31.073132 C132.213837,30.4371987 133.171697,29.5389565 134.046105,28.3783784 L134.046105,16.6931638 C133.267087,15.6438739 132.412564,14.9085872 131.482512,14.4872814 C130.55246,14.0659756 129.523058,13.8553259 128.394277,13.8553259 C126.136714,13.8553259 124.403822,14.6581796 123.195548,16.263911 C121.987275,17.8696424 121.383148,20.1589676 121.383148,23.1319555 C121.383148,24.7058902 121.518282,26.0532535 121.788553,27.1740859 C122.058825,28.2949182 122.456277,29.2170075 122.980922,29.9403816 C123.505567,30.6637556 124.14944,31.1923672 124.91256,31.5262321 C125.675679,31.8600971 126.550075,32.027027 127.535771,32.027027 Z M154.984102,10.5882353 C156.43085,10.5882353 157.76629,10.8306812 158.990461,11.3155803 C160.214633,11.8004794 161.271856,12.4999954 162.162162,13.4141494 C163.052469,14.3283035 163.74801,15.457068 164.248808,16.8004769 C164.749605,18.1438859 165,19.6740773 165,21.391097 C165,22.0588269 164.928459,22.5039734 164.785374,22.7265501 C164.642289,22.9491267 164.372021,23.0604134 163.974563,23.0604134 L147.901431,23.0604134 C147.933228,24.5866531 148.139903,25.9141438 148.521463,27.0429253 C148.903023,28.1717068 149.42766,29.1136687 150.09539,29.8688394 C150.763119,30.6240101 151.558024,31.1883924 152.480127,31.5620032 C153.40223,31.935614 154.435606,32.1224165 155.580286,32.1224165 C156.645474,32.1224165 157.563589,31.9992063 158.334658,31.7527822 C159.105727,31.5063581 159.769473,31.240065 160.325914,30.9538951 C160.882356,30.6677251 161.347375,30.4014321 161.720986,30.1550079 C162.094596,29.9085838 162.416533,29.7853736 162.686804,29.7853736 C163.036568,29.7853736 163.306835,29.9205074 163.497615,30.190779 L164.689984,31.7408585 C164.165339,32.3767917 163.537365,32.9292504 162.806041,33.3982512 C162.074718,33.8672519 161.291737,34.2527807 160.457075,34.554849 C159.622412,34.8569172 158.759941,35.0834651 157.869634,35.2344992 C156.979328,35.3855333 156.096984,35.4610493 155.222576,35.4610493 C153.553251,35.4610493 152.01511,35.1788581 150.608108,34.6144674 C149.201106,34.0500767 147.984902,33.2233759 146.959459,32.1343402 C145.934017,31.0453046 145.135138,29.6979413 144.562798,28.0922099 C143.990458,26.4864785 143.704293,24.6422998 143.704293,22.5596184 C143.704293,20.8743954 143.962637,19.3004843 144.479332,17.8378378 C144.996028,16.3751914 145.739264,15.1073186 146.709062,14.0341812 C147.67886,12.9610439 148.863268,12.118445 150.262321,11.5063593 C151.661374,10.8942736 153.235285,10.5882353 154.984102,10.5882353 Z M155.079491,13.7122417 C153.028607,13.7122417 151.41495,14.3044456 150.238474,15.4888712 C149.061997,16.6732969 148.330685,18.3147749 148.044515,20.4133545 L161.18442,20.4133545 C161.18442,19.427658 161.049286,18.5254413 160.779014,17.7066773 C160.508743,16.8879132 160.11129,16.1804481 159.586645,15.5842607 C159.062001,14.9880733 158.422102,14.5270287 157.666932,14.2011129 C156.911761,13.8751971 156.049289,13.7122417 155.079491,13.7122417 Z" id="de-code"></path>
            </g>
        </g>
    </g>
</svg>