<svg xmlns="http://www.w3.org/2000/svg" width="102" height="36" viewBox="0 0 102 36">
  <path fill="#6C35FF" fill-rule="evenodd" d="M12.9541016,22.8808594 C12.9541016,24.3339916 13.2207005,25.4296838 13.7539062,26.1679688 C14.287112,26.9062537 15.0751901,27.2753906 16.1181641,27.2753906 L19.8974609,27.2753906 L19.8974609,30 L15.8017578,30 C13.8681544,30 12.3710991,29.3818421 11.3105469,28.1455078 C10.2499947,26.9091735 9.71972656,25.1543082 9.71972656,22.8808594 L9.71972656,5.07421875 L4.53417969,5.07421875 L4.53417969,2.54296875 L12.9541016,2.54296875 L12.9541016,22.8808594 Z M27.5439453,10.3828125 L35.8232422,10.3828125 L35.8232422,27.4863281 L42.2392578,27.4863281 L42.2392578,30 L26.1728516,30 L26.1728516,27.4863281 L32.5888672,27.4863281 L32.5888672,12.8964844 L27.5439453,12.8964844 L27.5439453,10.3828125 Z M32.5888672,2.73632812 L35.8232422,2.73632812 L35.8232422,6.81445312 L32.5888672,6.81445312 L32.5888672,2.73632812 Z M58.7451172,19.9980469 C58.7451172,17.5722535 58.3496133,15.7294985 57.5585937,14.4697266 C56.7675742,13.2099546 55.6162185,12.5800781 54.1044922,12.5800781 C52.522453,12.5800781 51.3154338,13.2099546 50.4833984,14.4697266 C49.651363,15.7294985 49.2353516,17.5722535 49.2353516,19.9980469 C49.2353516,22.4238403 49.6542927,24.2724546 50.4921875,25.5439453 C51.3300823,26.815436 52.5458905,27.4511719 54.1396484,27.4511719 C55.6279371,27.4511719 56.7675742,26.8125064 57.5585937,25.5351562 C58.3496133,24.2578061 58.7451172,22.4121214 58.7451172,19.9980469 Z M61.9794922,28.734375 C61.9794922,31.6875148 61.2822335,33.9257736 59.8876953,35.4492188 C58.4931571,36.9726639 56.4423963,37.734375 53.7353516,37.734375 C52.8447221,37.734375 51.9130908,37.6523446 50.9404297,37.4882812 C49.9677686,37.3242179 48.9951221,37.083986 48.0224609,36.7675781 L48.0224609,33.5683594 C49.1709042,34.1074246 50.2138625,34.5058581 51.1513672,34.7636719 C52.0888719,35.0214857 52.9501914,35.1503906 53.7353516,35.1503906 C55.481454,35.1503906 56.7529257,34.675786 57.5498047,33.7265625 C58.3466837,32.777339 58.7451172,31.2714947 58.7451172,29.2089844 L58.7451172,26.8710938 C58.2294896,27.9726618 57.5263716,28.7929661 56.6357422,29.3320312 C55.7451127,29.8710964 54.6611392,30.140625 53.3837891,30.140625 C51.0869026,30.140625 49.2529365,29.2207123 47.8818359,27.3808594 C46.5107353,25.5410064 45.8251953,23.0800935 45.8251953,19.9980469 C45.8251953,16.9042814 46.5107353,14.4375092 47.8818359,12.5976562 C49.2529365,10.7578033 51.0869026,9.83789062 53.3837891,9.83789062 C54.6494204,9.83789062 55.7216753,10.0898412 56.6005859,10.59375 C57.4794966,11.0976588 58.1943332,11.8769479 58.7451172,12.9316406 L58.7451172,10.3828125 L61.9794922,10.3828125 L61.9794922,28.734375 Z M83.8115234,17.8007812 L83.8115234,30 L80.5595703,30 L80.5595703,17.8007812 C80.5595703,16.0312412 80.2490265,14.7304729 79.6279297,13.8984375 C79.0068328,13.0664021 78.0341863,12.6503906 76.7099609,12.6503906 C75.1982346,12.6503906 74.0351603,13.1865181 73.2207031,14.2587891 C72.4062459,15.33106 71.9990234,16.8691306 71.9990234,18.8730469 L71.9990234,30 L68.7646484,30 L68.7646484,2.6484375 L71.9990234,2.6484375 L71.9990234,13.265625 C72.5732451,12.1406194 73.3525341,11.2880888 74.3369141,10.7080078 C75.321294,10.1279268 76.4872979,9.83789062 77.8349609,9.83789062 C79.8388772,9.83789062 81.3359325,10.4970637 82.3261719,11.8154297 C83.3164112,13.1337957 83.8115234,15.1288929 83.8115234,17.8007812 Z M97.8037109,4.72265625 L97.8037109,10.3125 L105.151367,10.3125 L105.151367,12.8261719 L97.8037109,12.8261719 L97.8037109,23.5136719 C97.8037109,24.9668041 98.0790988,25.9804659 98.6298828,26.5546875 C99.1806668,27.1289091 100.141595,27.4160156 101.512695,27.4160156 L105.151367,27.4160156 L105.151367,30 L101.196289,30 C98.7704957,30 97.0595753,29.5136767 96.0634766,28.5410156 C95.0673778,27.5683545 94.5693359,25.89259 94.5693359,23.5136719 L94.5693359,12.8261719 L89.3134766,12.8261719 L89.3134766,10.3125 L94.5693359,10.3125 L94.5693359,4.72265625 L97.8037109,4.72265625 Z" transform="translate(-4 -2)"/>
</svg>
