<?xml version="1.0" encoding="UTF-8"?>
<svg width="20px" height="20px" viewBox="0 0 20 20" version="1.1" xmlns="http://www.w3.org/2000/svg" xmlns:xlink="http://www.w3.org/1999/xlink">
    <!-- Generator: Sketch 52.3 (67297) - http://www.bohemiancoding.com/sketch -->
    <title>Fill 51</title>
    <desc>Created with Sketch.</desc>
    <g id="Page-1" stroke="none" stroke-width="1" fill="none" fill-rule="evenodd">
        <g id="Login-" transform="translate(-981.000000, -485.000000)" fill="#FFFFFE">
            <path d="M990.999079,485 C985.477731,485 981,489.477117 981,495.000307 C981,499.41849 983.865036,503.166303 987.838761,504.488628 C988.339083,504.580712 988.521409,504.271924 988.521409,504.006722 C988.521409,503.769146 988.512815,503.14052 988.507904,502.30624 C985.726357,502.91031 985.139476,500.965499 985.139476,500.965499 C984.684582,499.810154 984.028945,499.502594 984.028945,499.502594 C983.120998,498.882562 984.097701,498.89484 984.097701,498.89484 C985.101415,498.965438 985.629362,499.925566 985.629362,499.925566 C986.521348,501.453544 987.970134,501.012155 988.539826,500.756162 C988.630682,500.110347 988.889131,499.669572 989.174591,499.419718 C986.954142,499.167408 984.619509,498.309187 984.619509,494.477271 C984.619509,493.38577 985.009331,492.492557 985.649007,491.793947 C985.545873,491.541023 985.202707,490.523804 985.74723,489.147457 C985.74723,489.147457 986.586421,488.878572 988.496854,490.172657 C989.2943,489.950428 990.150066,489.839928 991.000307,489.83563 C991.849934,489.839928 992.705086,489.950428 993.50376,490.172657 C995.412965,488.878572 996.250929,489.147457 996.250929,489.147457 C996.796679,490.523804 996.453513,491.541023 996.350993,491.793947 C996.991897,492.492557 997.378649,493.38577 997.378649,494.477271 C997.378649,498.319009 995.040333,499.164339 992.813131,499.411738 C993.171644,499.720525 993.491482,500.330735 993.491482,501.263237 C993.491482,502.600295 993.479204,503.678904 993.479204,504.006722 C993.479204,504.274379 993.659689,504.585623 994.166764,504.488014 C998.13742,503.16262 1001,499.417263 1001,495.000307 C1001,489.477117 996.522269,485 990.999079,485" id="Fill-51"></path>
        </g>
    </g>
</svg>