<svg width="28" height="28" viewBox="0 0 28 28" fill="none" xmlns="http://www.w3.org/2000/svg">
<path d="M12.7169 2.44989C7.35026 3.03323 3.03359 7.34989 2.45025 12.5999C1.86692 18.0832 5.01692 22.9832 9.80025 24.8499C10.1503 24.9666 10.5003 24.7332 10.5003 24.2666V22.3999C10.5003 22.3999 10.0336 22.5166 9.45026 22.5166C7.81692 22.5166 7.11692 21.1166 7.00026 20.2999C6.88359 19.8332 6.65026 19.4832 6.30026 19.1332C5.95026 19.0166 5.83359 19.0166 5.83359 18.8999C5.83359 18.6666 6.18359 18.6666 6.30026 18.6666C7.00026 18.6666 7.58359 19.4832 7.81692 19.8332C8.40025 20.7666 9.10026 20.9999 9.45026 20.9999C9.91692 20.9999 10.2669 20.8832 10.5003 20.7666C10.6169 19.9499 10.9669 19.1332 11.6669 18.6666C8.98359 18.0832 7.00026 16.5666 7.00026 13.9999C7.00026 12.7166 7.58359 11.4332 8.40025 10.4999C8.28359 10.2666 8.16692 9.68322 8.16692 8.86656C8.16692 8.39989 8.16692 7.81656 8.40025 7.34989C8.40025 7.11656 8.63359 6.99989 8.75026 6.99989H8.86692C9.45025 7.11656 10.6169 7.46656 11.6669 8.51656C12.3669 8.28323 13.1836 8.16656 14.0003 8.16656C14.8169 8.16656 15.6336 8.28323 16.3336 8.51656C17.3836 7.46656 18.6669 7.11656 19.2503 6.99989H19.3669C19.6003 6.99989 19.7169 7.11656 19.8336 7.34989C19.8336 7.81656 19.8336 8.39989 19.8336 8.86656C19.8336 9.79989 19.7169 10.2666 19.6003 10.4999C20.4169 11.4332 21.0003 12.5999 21.0003 13.9999C21.0003 16.5666 19.0169 18.0832 16.3336 18.6666C17.0336 19.2499 17.5003 20.2999 17.5003 21.3499V24.3832C17.5003 24.7332 17.8503 25.0832 18.3169 24.9666C22.6336 23.2166 25.6669 19.0166 25.6669 14.1166C25.6669 7.11656 19.7169 1.63323 12.7169 2.44989Z" fill="#24292E"/>
</svg>
