<svg width="28" height="28" viewBox="0 0 28 28" fill="none" xmlns="http://www.w3.org/2000/svg">
<path d="M25.4404 11.7157H24.5007V11.6673H14.0007V16.334H20.5941C19.6322 19.0506 17.0474 21.0007 14.0007 21.0007C10.1349 21.0007 7.00065 17.8664 7.00065 14.0007C7.00065 10.1349 10.1349 7.00065 14.0007 7.00065C15.7851 7.00065 17.4085 7.67382 18.6446 8.7734L21.9445 5.47348C19.8608 3.53157 17.0737 2.33398 14.0007 2.33398C7.55773 2.33398 2.33398 7.55773 2.33398 14.0007C2.33398 20.4436 7.55773 25.6673 14.0007 25.6673C20.4436 25.6673 25.6673 20.4436 25.6673 14.0007C25.6673 13.2184 25.5868 12.4548 25.4404 11.7157Z" fill="#FFC107"/>
<path d="M3.67773 8.5704L7.51082 11.3815C8.54798 8.81365 11.0598 7.00065 13.9992 7.00065C15.7837 7.00065 17.4071 7.67382 18.6432 8.7734L21.9431 5.47348C19.8594 3.53157 17.0722 2.33398 13.9992 2.33398C9.51807 2.33398 5.6319 4.8639 3.67773 8.5704Z" fill="#FF3D00"/>
<path d="M13.9995 25.6671C17.013 25.6671 19.7512 24.5138 21.8214 22.6384L18.2106 19.5829C17.0393 20.4702 15.5833 21.0004 13.9995 21.0004C10.965 21.0004 8.38845 19.0655 7.41778 16.3652L3.61328 19.2965C5.54411 23.0747 9.46528 25.6671 13.9995 25.6671Z" fill="#4CAF50"/>
<path d="M25.4398 11.7144H24.5V11.666H14V16.3327H20.5934C20.1314 17.6376 19.292 18.7628 18.2093 19.5824C18.2099 19.5818 18.2105 19.5818 18.2111 19.5813L21.8219 22.6368C21.5664 22.8689 25.6667 19.8327 25.6667 13.9993C25.6667 13.2171 25.5862 12.4535 25.4398 11.7144Z" fill="#1976D2"/>
</svg>
