<svg width="146" height="42" viewBox="0 0 146 42" fill="none" xmlns="http://www.w3.org/2000/svg">
<path d="M8.25586 15.0937V34.9499C8.25586 35.4557 8.56601 35.8454 9.06911 36.0975L20.1928 41.786C20.6933 42.0368 21.3091 42.0845 21.8096 41.8337L32.9311 36.1148C33.4356 35.862 33.7466 35.4571 33.7466 34.9499V15.0762L21.0012 21.6889L8.25586 15.0937Z" fill="#1263E4"/>
<path d="M4.48727 32.8732V13.7056C4.48727 13.4126 4.57211 13.0425 5.22933 12.7589L20.537 4.81803C20.8241 4.67549 21.1761 4.67549 21.4632 4.81804L37.0568 12.9059C37.3488 13.0509 37.5185 13.1459 37.5127 13.4794V32.8732C37.5127 33.2754 38.0222 33.4649 38.4258 33.2699L41.5603 31.6474C41.8577 31.5037 42 31.2872 42 30.9909V11.1508C42 10.8012 41.8659 10.6816 41.5777 10.5356L21.4685 0.110294C21.1788 -0.0363873 20.8212 -0.036789 20.531 0.10924L0.460039 10.5252C0.17062 10.6709 0 10.9193 0 11.2106V30.9909C0 31.2767 0.138245 31.49 0.419149 31.6375L3.58436 33.2754C3.98827 33.4875 4.48727 33.2842 4.48727 32.8732Z" fill="#1263E4"/>
<path d="M30.0847 13.2335L21.0013 8.5332L11.918 13.2335L21.0013 17.9337L30.0847 13.2335Z" fill="#1263E4"/>
<path d="M57.5113 9.60186H58.3337C58.6643 9.60186 58.9384 9.55751 59.156 9.46871C59.3736 9.3711 59.5607 9.22012 59.7173 9.01598L64.9255 2.29161C65.1431 2.00758 65.3693 1.81225 65.6043 1.70573C65.848 1.59029 66.1525 1.53262 66.518 1.53262H69.5464L63.1894 9.53529C62.8152 10.0236 62.428 10.3698 62.0277 10.5739C62.3149 10.6804 62.5716 10.8313 62.7979 11.0266C63.0328 11.213 63.2547 11.4616 63.4636 11.7723L70.0163 20.787H66.9227C66.505 20.787 66.1917 20.7293 65.9828 20.6138C65.7827 20.4896 65.613 20.312 65.4738 20.0812L60.135 12.9707C59.9696 12.731 59.7782 12.5623 59.5607 12.4647C59.3431 12.3671 59.0298 12.3182 58.6208 12.3182H57.5113V20.787H54V1.53262H57.5113V9.60186ZM82.2643 7.12517V20.787H80.2932C79.8668 20.787 79.597 20.5872 79.4839 20.1878L79.262 19.0959C78.7138 19.664 78.1089 20.1256 77.4477 20.4807C76.7863 20.8269 76.0074 21 75.1111 21C74.3802 21 73.7318 20.8758 73.1662 20.6272C72.6092 20.3698 72.1393 20.0102 71.7565 19.5486C71.3735 19.087 71.082 18.541 70.8819 17.9108C70.6904 17.2716 70.5947 16.5703 70.5947 15.8069V7.12517H73.8189V15.8069C73.8189 16.6414 74.0059 17.2894 74.3802 17.751C74.763 18.2037 75.333 18.4301 76.0901 18.4301C76.647 18.4301 77.1691 18.3058 77.6565 18.0573C78.1438 17.7999 78.605 17.4491 79.0401 17.0053V7.12517H82.2643ZM88.6851 17.245C89.0506 17.6977 89.4467 18.0173 89.873 18.2037C90.3082 18.3901 90.765 18.4834 91.2436 18.4834C91.7396 18.4834 92.1834 18.3945 92.575 18.217C92.9753 18.0306 93.3147 17.7466 93.5931 17.3648C93.8717 16.9743 94.0848 16.4816 94.2327 15.8868C94.3808 15.2832 94.4547 14.5642 94.4547 13.7297C94.4547 12.2294 94.2111 11.1465 93.7237 10.4807C93.2364 9.806 92.5358 9.46871 91.6221 9.46871C91.0043 9.46871 90.4648 9.61518 90.0035 9.90812C89.5423 10.1922 89.1029 10.5961 88.6851 11.1198V17.245ZM88.6851 8.80293C89.2247 8.22595 89.8208 7.76872 90.4734 7.43142C91.1348 7.08522 91.8876 6.91212 92.7316 6.91212C93.5062 6.91212 94.2023 7.0675 94.8201 7.37816C95.4467 7.68883 95.9776 8.13715 96.4126 8.72304C96.8564 9.30001 97.1958 10.0013 97.4308 10.8269C97.6657 11.6525 97.7832 12.5801 97.7832 13.6099C97.7832 14.7195 97.6484 15.727 97.3786 16.6325C97.1089 17.5379 96.7216 18.3147 96.2168 18.9627C95.7208 19.6019 95.1204 20.0989 94.4155 20.4541C93.7106 20.8092 92.9274 20.9867 92.0659 20.9867C91.6482 20.9867 91.2697 20.9423 90.9303 20.8535C90.5909 20.7736 90.2776 20.6582 89.9905 20.5073C89.7033 20.3564 89.4379 20.1744 89.1942 19.9614C88.9593 19.7394 88.733 19.4953 88.5155 19.229L88.3719 20.1478C88.3197 20.3786 88.2283 20.5429 88.0978 20.6405C87.976 20.7381 87.8063 20.787 87.5887 20.787H85.461V1H88.6851V8.80293ZM108.902 12.3848C108.902 11.9587 108.84 11.5593 108.719 11.1864C108.606 10.8047 108.432 10.4718 108.197 10.1877C107.962 9.90372 107.662 9.68176 107.296 9.52197C106.939 9.35327 106.521 9.26897 106.043 9.26897C105.111 9.26897 104.376 9.53969 103.837 10.0812C103.306 10.6228 102.967 11.3906 102.819 12.3848H108.902ZM102.754 14.3688C102.806 15.0702 102.927 15.6782 103.119 16.1931C103.31 16.6991 103.563 17.1208 103.876 17.4581C104.19 17.7865 104.559 18.035 104.986 18.2037C105.421 18.3635 105.899 18.4434 106.422 18.4434C106.944 18.4434 107.392 18.3812 107.766 18.257C108.149 18.1327 108.479 17.9951 108.758 17.8442C109.045 17.6933 109.293 17.5557 109.502 17.4314C109.719 17.3072 109.928 17.245 110.129 17.245C110.398 17.245 110.599 17.3471 110.729 17.5513L111.656 18.7497C111.298 19.1758 110.899 19.5353 110.455 19.8282C110.011 20.1123 109.545 20.3431 109.058 20.5206C108.579 20.6893 108.087 20.8092 107.583 20.8802C107.087 20.9511 106.604 20.9867 106.134 20.9867C105.203 20.9867 104.337 20.8313 103.537 20.5206C102.736 20.2011 102.04 19.735 101.448 19.1225C100.856 18.5011 100.391 17.7377 100.051 16.8322C99.7121 15.9179 99.5424 14.8615 99.5424 13.6631C99.5424 12.731 99.6903 11.8566 99.9862 11.0399C100.282 10.2144 100.704 9.49974 101.253 8.89614C101.809 8.28362 102.484 7.79986 103.276 7.44474C104.076 7.08962 104.977 6.91212 105.978 6.91212C106.821 6.91212 107.6 7.04968 108.314 7.3249C109.027 7.60012 109.641 8.004 110.155 8.53662C110.668 9.06033 111.069 9.70839 111.356 10.4807C111.651 11.2441 111.8 12.1185 111.8 13.1039C111.8 13.6009 111.747 13.9383 111.643 14.1158C111.538 14.2845 111.338 14.3688 111.042 14.3688H102.754ZM117.26 9.49534C117.677 8.67868 118.174 8.03954 118.748 7.5779C119.322 7.10745 120.001 6.87217 120.784 6.87217C121.403 6.87217 121.899 7.00973 122.272 7.28495L122.063 9.74833C122.02 9.90812 121.955 10.0236 121.868 10.0945C121.789 10.1567 121.681 10.1877 121.541 10.1877C121.411 10.1877 121.215 10.1655 120.954 10.1212C120.702 10.0768 120.454 10.0546 120.21 10.0546C119.853 10.0546 119.536 10.1079 119.257 10.2144C118.979 10.3209 118.727 10.4763 118.5 10.6804C118.283 10.8758 118.087 11.1154 117.912 11.3995C117.748 11.6835 117.591 12.0076 117.443 12.3715V20.787H114.218V7.12517H116.111C116.442 7.12517 116.672 7.18734 116.803 7.31158C116.933 7.42702 117.021 7.64007 117.064 7.95073L117.26 9.49534ZM130.854 14.9547C129.923 14.9991 129.14 15.0835 128.505 15.2077C127.869 15.3232 127.36 15.474 126.977 15.6605C126.595 15.8469 126.321 16.0643 126.155 16.3129C125.989 16.5615 125.907 16.8322 125.907 17.1252C125.907 17.7021 126.073 18.1149 126.403 18.3635C126.742 18.6121 127.182 18.7363 127.721 18.7363C128.383 18.7363 128.952 18.6165 129.431 18.3768C129.918 18.1282 130.393 17.7554 130.854 17.2583V14.9547ZM123.466 9.02929C125.006 7.59121 126.86 6.87217 129.027 6.87217C129.81 6.87217 130.511 7.00533 131.128 7.27164C131.746 7.52904 132.268 7.89307 132.695 8.36352C133.121 8.82516 133.443 9.3799 133.661 10.028C133.887 10.676 134 11.3862 134 12.1585V20.787H132.538C132.234 20.787 131.999 20.7426 131.833 20.6538C131.667 20.5562 131.537 20.3653 131.442 20.0812L131.154 19.0959C130.815 19.4065 130.485 19.6818 130.162 19.9214C129.84 20.1522 129.506 20.3475 129.157 20.5073C128.809 20.6671 128.435 20.787 128.035 20.8668C127.643 20.9556 127.208 21 126.729 21C126.164 21 125.642 20.9245 125.163 20.7736C124.684 20.6138 124.271 20.3786 123.923 20.0679C123.575 19.7572 123.305 19.3711 123.114 18.9095C122.922 18.4478 122.826 17.9108 122.826 17.2983C122.826 16.9521 122.883 16.6103 122.996 16.273C123.11 15.9268 123.292 15.5983 123.544 15.2876C123.805 14.977 124.141 14.684 124.55 14.4088C124.958 14.1336 125.459 13.8939 126.051 13.6897C126.651 13.4856 127.347 13.3213 128.139 13.1971C128.931 13.0639 129.836 12.984 130.854 12.9574V12.1585C130.854 11.2441 130.662 10.5695 130.28 10.1345C129.897 9.69067 129.344 9.46871 128.622 9.46871C128.1 9.46871 127.665 9.53088 127.317 9.65513C126.977 9.77937 126.677 9.92144 126.416 10.0812C126.155 10.2321 125.916 10.3698 125.698 10.494C125.489 10.6182 125.254 10.6804 124.993 10.6804C124.767 10.6804 124.576 10.6228 124.419 10.5073C124.262 10.3831 124.136 10.241 124.04 10.0812L123.466 9.02929Z" fill="#1263E4"/>
<path d="M64.329 35.0041C64.329 35.8742 64.1926 36.6764 63.9199 37.4106C63.6471 38.1448 63.2616 38.7783 62.7634 39.3114C62.2703 39.8389 61.675 40.2521 60.9775 40.5513C60.2852 40.8504 59.5142 41 58.6645 41C57.82 41 57.049 40.8504 56.3515 40.5513C55.6592 40.2521 55.0638 39.8389 54.5656 39.3114C54.0673 38.7783 53.6818 38.1448 53.4091 37.4106C53.1363 36.6764 53 35.8742 53 35.0041C53 34.1339 53.1363 33.3317 53.4091 32.5976C53.6818 31.8634 54.0673 31.2297 54.5656 30.6968C55.0638 30.1638 55.6592 29.7478 56.3515 29.4487C57.049 29.1495 57.82 29 58.6645 29C59.5142 29 60.2852 29.1495 60.9775 29.4487C61.675 29.7478 62.2703 30.1638 62.7634 30.6968C63.2616 31.2297 63.6471 31.8634 63.9199 32.5976C64.1926 33.3317 64.329 34.1339 64.329 35.0041ZM62.4487 35.0041C62.4487 34.3296 62.3595 33.7233 62.1812 33.1849C62.0081 32.6465 61.7564 32.1897 61.4259 31.8144C61.1007 31.4392 60.7047 31.1509 60.238 30.9497C59.7711 30.7484 59.2467 30.6479 58.6645 30.6479C58.0875 30.6479 57.5656 30.7484 57.0989 30.9497C56.6321 31.1509 56.2335 31.4392 55.9031 31.8144C55.5726 32.1897 55.3182 32.6465 55.1399 33.1849C54.9615 33.7233 54.8724 34.3296 54.8724 35.0041C54.8724 35.6838 54.9615 36.293 55.1399 36.8314C55.3182 37.3698 55.5726 37.8266 55.9031 38.2019C56.2335 38.5717 56.6321 38.8572 57.0989 39.0585C57.5656 39.2542 58.0875 39.3521 58.6645 39.3521C59.2467 39.3521 59.7711 39.2542 60.238 39.0585C60.7047 38.8572 61.1007 38.5717 61.4259 38.2019C61.7564 37.8266 62.0081 37.3698 62.1812 36.8314C62.3595 36.293 62.4487 35.6838 62.4487 35.0041Z" fill="#1263E4"/>
<path d="M67.4759 33.6576C67.6489 33.4726 67.8272 33.3068 68.0107 33.16C68.1996 33.0076 68.3989 32.8771 68.6088 32.7684C68.8185 32.6596 69.0414 32.5753 69.2774 32.5155C69.5134 32.4557 69.7705 32.4258 70.0484 32.4258C70.489 32.4258 70.8745 32.5019 71.2049 32.6542C71.5406 32.8064 71.8212 33.0213 72.0467 33.2987C72.2775 33.576 72.4506 33.9105 72.5659 34.3021C72.6814 34.6881 72.739 35.1151 72.739 35.5828V40.8772H71.0555V35.5828C71.0555 35.0226 70.9295 34.5876 70.6778 34.2776C70.4313 33.9676 70.0537 33.8126 69.5449 33.8126C69.1673 33.8126 68.8159 33.9023 68.4907 34.0818C68.1708 34.2613 67.8691 34.506 67.5859 34.816V40.8772H65.8945V32.5563H66.9173C67.148 32.5563 67.2949 32.6678 67.3579 32.8908L67.4759 33.6576Z" fill="#1263E4"/>
<path d="M78.3976 35.1186C78.8067 35.1186 79.1661 35.0642 79.4755 34.9555C79.7901 34.8467 80.0498 34.6944 80.2543 34.4986C80.4642 34.2973 80.6215 34.0554 80.7264 33.7726C80.8313 33.4897 80.8837 33.1743 80.8837 32.8263C80.8837 32.4837 80.8313 32.1763 80.7264 31.9045C80.6267 31.6325 80.4746 31.4014 80.2701 31.2111C80.0655 31.0207 79.8059 30.8766 79.4912 30.7787C79.1818 30.6753 78.8172 30.6237 78.3976 30.6237H76.714V35.1186H78.3976ZM78.3976 29.1309C79.1372 29.1309 79.7771 29.2206 80.3173 29.4001C80.8628 29.5795 81.3112 29.8324 81.6626 30.1587C82.0193 30.4795 82.2842 30.8685 82.4573 31.3253C82.6304 31.7766 82.7169 32.277 82.7169 32.8263C82.7169 33.3864 82.625 33.9004 82.4414 34.3681C82.2579 34.8303 81.9851 35.2301 81.6232 35.5673C81.2613 35.899 80.8103 36.1601 80.2701 36.3504C79.7352 36.5353 79.111 36.6278 78.3976 36.6278H76.714V40.878H74.873V29.1309H78.3976Z" fill="#1263E4"/>
<path d="M85.6206 34.0992C85.8724 33.5716 86.1765 33.1583 86.5331 32.8592C86.8898 32.5546 87.3173 32.4023 87.8155 32.4023C87.9886 32.4023 88.1512 32.4241 88.3034 32.4676C88.4554 32.5056 88.5918 32.5655 88.7125 32.6471L88.5944 33.9686C88.5734 34.061 88.5393 34.1263 88.4921 34.1644C88.4502 34.197 88.3925 34.2134 88.319 34.2134C88.2403 34.2134 88.1276 34.1997 87.9807 34.1726C87.8339 34.1399 87.6792 34.1236 87.5165 34.1236C87.2805 34.1236 87.0708 34.1589 86.8871 34.2297C86.7089 34.3003 86.5463 34.4036 86.3994 34.5397C86.2578 34.6756 86.132 34.8415 86.0218 35.0373C85.9117 35.2331 85.8094 35.456 85.715 35.7062V40.8782H84.0234V32.5573H85.0069C85.1852 32.5573 85.3085 32.5926 85.3766 32.6634C85.4449 32.7287 85.4921 32.8455 85.5182 33.0142L85.6206 34.0992Z" fill="#1263E4"/>
<path d="M94.8192 35.7786C94.8192 35.4849 94.7772 35.213 94.6932 34.9628C94.6146 34.7072 94.4966 34.4869 94.3392 34.3021C94.1819 34.1117 93.9852 33.9648 93.7492 33.8615C93.5185 33.7527 93.251 33.6984 92.9468 33.6984C92.3331 33.6984 91.8506 33.8805 91.4992 34.245C91.1477 34.6093 90.9249 35.1205 90.8305 35.7786H94.8192ZM90.7833 36.8554C90.8042 37.3286 90.875 37.7391 90.9957 38.0872C91.1163 38.4299 91.2763 38.7154 91.4755 38.9438C91.68 39.1722 91.9214 39.3435 92.1993 39.4577C92.4825 39.5664 92.7972 39.6209 93.1434 39.6209C93.4738 39.6209 93.7597 39.5828 94.0009 39.5067C94.2422 39.4251 94.452 39.338 94.6303 39.2456C94.8087 39.1477 94.9608 39.0607 95.0867 38.9846C95.2125 38.903 95.3279 38.8622 95.4329 38.8622C95.5692 38.8622 95.6741 38.9166 95.7476 39.0254L96.2274 39.6698C96.0281 39.9146 95.8026 40.1212 95.5509 40.2898C95.299 40.4584 95.0315 40.5971 94.7483 40.7059C94.4651 40.8092 94.174 40.8826 93.875 40.9261C93.5761 40.9751 93.2851 40.9995 93.0019 40.9995C92.4458 40.9995 91.9292 40.9043 91.452 40.714C90.9799 40.5182 90.5682 40.2327 90.2168 39.8575C89.8707 39.4822 89.5979 39.0172 89.3985 38.4625C89.2045 37.9078 89.1074 37.2687 89.1074 36.5454C89.1074 35.9689 89.194 35.4305 89.367 34.9302C89.5454 34.4298 89.7972 33.9947 90.1223 33.625C90.4527 33.2551 90.8514 32.9642 91.3181 32.7521C91.7902 32.5345 92.3226 32.4258 92.9152 32.4258C93.4083 32.4258 93.8646 32.51 94.2841 32.6787C94.7038 32.8418 95.0657 33.0838 95.3698 33.4047C95.6741 33.7255 95.9101 34.1198 96.0779 34.5876C96.251 35.0498 96.3375 35.5773 96.3375 36.1702C96.3375 36.442 96.3087 36.6243 96.251 36.7167C96.1934 36.8091 96.0884 36.8554 95.9363 36.8554H90.7833Z" fill="#1263E4"/>
<path d="M97.9141 40.8772V32.5563H98.9369C99.1676 32.5563 99.3145 32.6678 99.3774 32.8908L99.4875 33.6168C99.6344 33.4427 99.7868 33.285 99.9441 33.1437C100.101 32.9968 100.269 32.8717 100.448 32.7684C100.631 32.6596 100.825 32.5753 101.03 32.5155C101.239 32.4557 101.464 32.4258 101.706 32.4258C101.963 32.4258 102.199 32.4638 102.414 32.54C102.629 32.6161 102.818 32.7249 102.981 32.8663C103.148 33.0076 103.293 33.1789 103.414 33.3802C103.534 33.5814 103.634 33.8071 103.713 34.0573C103.833 33.769 103.985 33.5216 104.169 33.315C104.352 33.1083 104.556 32.9397 104.783 32.8092C105.008 32.6787 105.247 32.5834 105.498 32.5237C105.755 32.4584 106.015 32.4258 106.277 32.4258C106.707 32.4258 107.09 32.4964 107.426 32.6379C107.766 32.7792 108.052 32.9859 108.284 33.2579C108.52 33.5243 108.698 33.8534 108.819 34.245C108.938 34.6365 108.999 35.0824 108.999 35.5828V40.8772H107.308V35.5828C107.308 34.9955 107.184 34.5549 106.938 34.2613C106.696 33.9621 106.337 33.8126 105.86 33.8126C105.645 33.8126 105.443 33.8506 105.255 33.9268C105.066 34.0029 104.901 34.1144 104.759 34.2613C104.617 34.4081 104.504 34.593 104.421 34.816C104.342 35.0335 104.303 35.2891 104.303 35.5828V40.8772H102.611V35.5828C102.611 34.9736 102.493 34.5277 102.257 34.245C102.021 33.9567 101.675 33.8126 101.219 33.8126C100.904 33.8126 100.613 33.8968 100.345 34.0655C100.078 34.2286 99.831 34.4543 99.6058 34.7426V40.8772H97.9141Z" fill="#1263E4"/>
</svg>
