<?xml version="1.0" encoding="utf-8"?>
<!-- Generator: Adobe Illustrator 23.1.1, SVG Export Plug-In . SVG Version: 6.00 Build 0)  -->
<svg version="1.1" id="Layer_1" xmlns="http://www.w3.org/2000/svg" xmlns:xlink="http://www.w3.org/1999/xlink" x="0px" y="0px"
	 viewBox="0 0 100.0253983 24.8181305" style="enable-background:new 0 0 100.0253983 24.8181305;" xml:space="preserve">
<style type="text/css">
	.st0{fill:#FFFFFF;}
	.st1{fill:#D1D2D9;stroke:#000000;stroke-width:0.5;stroke-miterlimit:10;}
	.st2{fill:none;stroke:#FFFFFF;stroke-miterlimit:10;}
	.st3{fill:#EFEFF2;}
	.st4{fill:#0063FF;}
	.st5{opacity:0.6;clip-path:url(#SVGID_2_);}
	.st6{fill:none;stroke:#000000;stroke-width:13;stroke-miterlimit:10;}
	.st7{fill:#008CD6;}
	.st8{fill:#003659;}
	.st9{fill:#B8F3FF;}
	.st10{fill:none;stroke:#000000;stroke-width:3;stroke-miterlimit:10;}
	.st11{fill:#626372;}
	.st12{fill:#4D4E5A;}
	.st13{fill:#001959;}
	.st14{fill:#004ED6;}
	.st15{fill:#D1D2D9;}
	.st16{enable-background:new    ;}
	.st17{fill:#23232A;}
	.st18{fill:none;stroke:#96A3A2;stroke-width:0.3;stroke-miterlimit:10;}
	.st19{fill:#00EFE8;}
	.st20{clip-path:url(#SVGID_4_);}
	.st21{clip-path:url(#SVGID_6_);}
	.st22{opacity:0.6;clip-path:url(#SVGID_8_);}
	.st23{fill:#090A0A;}
	.st24{fill:#191B1B;}
	.st25{fill:#242021;}
	.st26{fill:#E0E1E2;}
	.st27{fill:#DEE0E1;}
	.st28{fill:none;stroke:#FFFFFF;stroke-width:2;stroke-linecap:round;stroke-miterlimit:10;}
	.st29{fill:#454345;}
	.st30{fill:#444243;}
	.st31{fill:#433F41;}
	.st32{fill:#484546;}
	.st33{fill:#434142;}
	.st34{fill:#413E3F;}
	.st35{fill:#413F40;}
	.st36{fill:#454142;}
	.st37{fill:#4A4748;}
	.st38{fill:#423F41;}
	.st39{fill:#494647;}
	.st40{fill:#3F3A3C;}
	.st41{fill:#464343;}
	.st42{fill:#474445;}
	.st43{fill:#201D1C;}
	.st44{fill:#4B4849;}
	.st45{fill:#443D3F;}
	.st46{fill:#413D3E;}
	.st47{fill:#4E494A;}
	.st48{fill:#423C3E;}
	.st49{fill:#413C3E;}
	.st50{fill:#444142;}
	.st51{fill:#4C4647;}
	.st52{fill:#433D41;}
	.st53{fill:#3E3B3B;}
	.st54{fill:#474242;}
	.st55{fill:#4A4747;}
	.st56{fill:#4C494A;}
	.st57{fill:#504C4C;}
	.st58{fill:#3F3938;}
	.st59{fill:#494547;}
	.st60{fill:#5F5857;}
	.st61{fill:#4D4341;}
	.st62{fill:#4B4748;}
	.st63{fill:#534D4D;}
	.st64{fill:#474343;}
	.st65{fill:#544E4D;}
	.st66{fill:#433F3F;}
	.st67{fill:#3D3A3C;}
	.st68{fill:#413E3E;}
	.st69{fill:#4B4646;}
	.st70{fill:#494443;}
	.st71{fill:#4F4B4C;}
	.st72{fill:#4F4C4C;}
	.st73{fill:#464142;}
	.st74{fill:#524945;}
	.st75{fill:#464040;}
	.st76{fill:#565353;}
	.st77{fill:#3C3230;}
	.st78{fill:#5C5653;}
	.st79{fill:#514E4E;}
	.st80{fill:#4F4A4C;}
	.st81{fill:#444040;}
	.st82{fill:#534F4F;}
	.st83{fill:#433D3D;}
	.st84{fill:#5C5452;}
	.st85{fill:#443A37;}
	.st86{fill:#3E393A;}
	.st87{fill:#413D3C;}
	.st88{fill:#61544D;}
	.st89{fill:#433F3E;}
	.st90{fill:#4C4949;}
	.st91{fill:#474446;}
	.st92{fill:#3A3533;}
	.st93{fill:#423C3D;}
	.st94{fill:#454242;}
	.st95{fill:#453F41;}
	.st96{fill:#464244;}
	.st97{fill:#212029;}
	.st98{fill:#3E3A3B;}
	.st99{fill:#423E3F;}
	.st100{fill:#504C4D;}
	.st101{fill:#413F41;}
	.st102{fill:#464141;}
	.st103{fill:#4E4B4C;}
	.st104{fill:#424041;}
	.st105{fill:#423E40;}
	.st106{fill:#423F3F;}
	.st107{fill:#423D3E;}
	.st108{fill:#474141;}
	.st109{fill:#3F3C3E;}
	.st110{fill:#443D3C;}
	.st111{fill:#4F4C4D;}
	.st112{fill:#393434;}
	.st113{fill:#515050;}
	.st114{fill:#403C3C;}
	.st115{fill:#3F3837;}
	.st116{fill:#393232;}
	.st117{fill:#4A4746;}
	.st118{fill:#474547;}
	.st119{fill:#575454;}
	.st120{fill:#474647;}
	.st121{fill:#3F3D3E;}
	.st122{fill:#4C494B;}
	.st123{fill:#464445;}
	.st124{fill:#3E3C3D;}
	.st125{fill:#4A4849;}
	.st126{fill:#3D3B3C;}
	.st127{fill:#4D4B4C;}
	.st128{fill:#525152;}
	.st129{fill:#3C3B3C;}
	.st130{fill:#4E4D4D;}
	.st131{fill:#403D3F;}
	.st132{fill:#4F4D4E;}
	.st133{fill:#4C4A4B;}
	.st134{fill:#3C3A3B;}
	.st135{fill:#3F3D3F;}
	.st136{fill:#3B393A;}
	.st137{fill:#4F4E4E;}
	.st138{fill:#535051;}
	.st139{fill:#3D3B3D;}
	.st140{fill:#504E4E;}
	.st141{fill:#514E4F;}
	.st142{fill:#545152;}
	.st143{fill:#393839;}
	.st144{fill:#3C393A;}
	.st145{fill:#403E3F;}
	.st146{fill:#383537;}
	.st147{fill:#545153;}
	.st148{fill:#4C4C4D;}
	.st149{fill:#4D4C4D;}
	.st150{fill:#514D4F;}
	.st151{fill:#525052;}
	.st152{fill:#565455;}
	.st153{fill:#3B3839;}
	.st154{fill:#524F50;}
	.st155{fill:#353234;}
	.st156{fill:#373435;}
	.st157{fill:#504B4C;}
	.st158{fill:#524D4E;}
	.st159{fill:#3A363A;}
	.st160{fill:#565152;}
	.st161{fill:#525151;}
	.st162{fill:#393738;}
	.st163{fill:#393737;}
	.st164{fill:#393637;}
	.st165{fill:#494648;}
	.st166{fill:#464345;}
	.st167{fill:#3D393B;}
	.st168{fill:#4D494A;}
	.st169{fill:#4F4C4E;}
	.st170{fill:#4E4B4D;}
	.st171{fill:#4D4A4B;}
	.st172{fill:#3B3739;}
	.st173{fill:#4D4A4C;}
	.st174{fill:#3A3638;}
	.st175{fill:#525051;}
	.st176{fill:#5A5658;}
	.st177{fill:#585455;}
	.st178{fill:#424142;}
	.st179{fill:#4B494A;}
	.st180{fill:#4E4A4B;}
	.st181{fill:#423F40;}
	.st182{fill:#403F40;}
	.st183{fill:#403E40;}
	.st184{fill:#3D3A3B;}
	.st185{fill:#3C3939;}
	.st186{fill:#504D50;}
	.st187{fill:#3C393B;}
	.st188{fill:#3A383B;}
	.st189{fill:#383536;}
	.st190{fill:#545252;}
	.st191{fill:#575355;}
	.st192{fill:#494749;}
	.st193{fill:#4F4D4F;}
	.st194{fill:#52504F;}
	.st195{fill:#393537;}
	.st196{fill:#4A4749;}
	.st197{fill:#4A494B;}
	.st198{fill:#3A383A;}
	.st199{fill:#4D4849;}
	.st200{fill:#504D4E;}
	.st201{fill:#3F3C3C;}
	.st202{fill:#4E4A4C;}
	.st203{fill:#504D4D;}
	.st204{fill:#514F4F;}
	.st205{fill:#3F3C3D;}
	.st206{fill:#545050;}
	.st207{fill:#2D2A2B;}
	.st208{fill:#434041;}
	.st209{fill:#535151;}
	.st210{fill:#595656;}
	.st211{fill:#524E4F;}
	.st212{fill:#3B383A;}
	.st213{fill:#2E2A2B;}
	.st214{fill:#494548;}
	.st215{fill:#5A5757;}
	.st216{fill:#514E4D;}
	.st217{fill:#565252;}
	.st218{fill:#3B3939;}
	.st219{fill:#5C5656;}
	.st220{fill:#585656;}
	.st221{fill:#434042;}
	.st222{fill:#1D1B1C;}
	.st223{fill:#2B2929;}
	.st224{fill:#4C494C;}
	.st225{fill:#555354;}
	.st226{fill:#4D484B;}
	.st227{fill:#5A585A;}
	.st228{fill:#4B484A;}
	.st229{fill:#504E50;}
	.st230{fill:#373236;}
	.st231{fill:#474143;}
	.st232{fill:#2B2D3A;}
	.st233{fill:#524C4E;}
	.st234{fill:#3D383C;}
	.st235{fill:#211E21;}
	.st236{fill:#3E3A3C;}
	.st237{fill:#373234;}
	.st238{fill:#464344;}
	.st239{fill:#575353;}
	.st240{fill:#575352;}
	.st241{fill:#605D5F;}
	.st242{fill:#393638;}
	.st243{fill:#3A3536;}
	.st244{fill:#5F5B5C;}
	.st245{fill:#484647;}
	.st246{fill:#454244;}
	.st247{fill:#514D4D;}
	.st248{fill:#595556;}
	.st249{fill:#555150;}
	.st250{fill:#675D5A;}
	.st251{fill:#474243;}
	.st252{fill:#514D4E;}
	.st253{fill:#5B5757;}
	.st254{fill:#524F4F;}
	.st255{fill:#474344;}
	.st256{fill:#454141;}
	.st257{fill:#494345;}
	.st258{fill:#555151;}
	.st259{fill:#3C3738;}
	.st260{fill:#4C4849;}
	.st261{fill:#4B4647;}
	.st262{fill:#E3E2E3;}
	.st263{fill:#434143;}
	.st264{fill:#292B36;}
	.st265{fill:#3E3B3E;}
	.st266{fill:#413E40;}
	.st267{fill:#373436;}
	.st268{fill:#3C383B;}
	.st269{fill:#535050;}
	.st270{fill:#3B3A3C;}
	.st271{fill:#3A393A;}
	.st272{fill:#514E50;}
	.st273{fill:#504D4F;}
	.st274{fill:#4E4C4E;}
	.st275{fill:#585355;}
	.st276{fill:#3D3A3D;}
	.st277{fill:#3B373A;}
	.st278{fill:#403D3E;}
	.st279{fill:#454040;}
	.st280{fill:#53504F;}
	.st281{fill:#585454;}
	.st282{fill:#2C2829;}
	.st283{fill:#4E4C4D;}
	.st284{fill:#4C4A4C;}
	.st285{fill:#4F4E50;}
	.st286{fill:#424042;}
	.st287{fill:#3E3B3D;}
	.st288{fill:#504E4F;}
	.st289{fill:#514F51;}
	.st290{fill:#383638;}
	.st291{fill:#41414B;}
	.st292{fill:#4E4D4F;}
	.st293{fill:#3A393B;}
	.st294{fill:#464243;}
	.st295{fill:#383436;}
	.st296{fill:#525050;}
	.st297{fill:#575555;}
	.st298{fill:#545151;}
	.st299{fill:#444244;}
	.st300{fill:#494849;}
	.st301{fill:#414041;}
	.st302{fill:#555252;}
	.st303{fill:#4D4B4D;}
	.st304{fill:#3D3C3E;}
	.st305{fill:#555455;}
	.st306{fill:#413D40;}
	.st307{fill:#575557;}
	.st308{fill:#3E3D3E;}
	.st309{fill:#4F4E4F;}
	.st310{fill:#525153;}
	.st311{fill:#575757;}
	.st312{fill:#515051;}
	.st313{fill:#3F3E3F;}
	.st314{fill:#515150;}
	.st315{fill:#5B5A5A;}
	.st316{fill:#373536;}
	.st317{fill:#393939;}
	.st318{fill:#3C3A3A;}
	.st319{fill:#5D5B5E;}
	.st320{fill:#393334;}
	.st321{fill:#444344;}
	.st322{fill:#514F50;}
	.st323{fill:#3A373A;}
	.st324{fill:#504F4F;}
	.st325{fill:#484648;}
	.st326{fill:#565454;}
	.st327{fill:#4E4D4E;}
	.st328{fill:#545353;}
	.st329{fill:#373537;}
	.st330{fill:#363537;}
	.st331{fill:#464446;}
	.st332{fill:#3E3C3E;}
	.st333{fill:#3A3739;}
	.st334{fill:#363336;}
	.st335{fill:#565153;}
	.st336{fill:#353436;}
	.st337{fill:#525150;}
	.st338{fill:#413D3F;}
	.st339{fill:#3F3B3D;}
	.st340{fill:#5C5759;}
	.st341{fill:#575455;}
	.st342{fill:#4F4D50;}
	.st343{fill:#5A5657;}
	.st344{fill:#444143;}
	.st345{fill:#403C3D;}
	.st346{fill:#2C292A;}
	.st347{fill:#332E30;}
	.st348{fill:#585556;}
	.st349{fill:#524E50;}
	.st350{fill:#3E3D3D;}
	.st351{fill:#393739;}
	.st352{fill:#39383A;}
	.st353{fill:#656265;}
	.st354{fill:#454344;}
	.st355{fill:#504C4E;}
	.st356{fill:#545254;}
	.st357{fill:#5B5959;}
	.st358{fill:#464546;}
	.st359{fill:#474546;}
	.st360{fill:#2B2A2A;}
	.st361{fill:#2E2C2C;}
	.st362{fill:#5A5858;}
	.st363{fill:#353335;}
	.st364{fill:#484547;}
	.st365{fill:#424141;}
	.st366{fill:#575656;}
	.st367{fill:#403F3F;}
	.st368{fill:#595555;}
	.st369{fill:#605E5E;}
	.st370{fill:#626162;}
	.st371{fill:#636060;}
	.st372{fill:#555353;}
	.st373{fill:#555355;}
	.st374{fill:#5F5C5D;}
	.st375{fill:#5B5556;}
	.st376{fill:#595657;}
	.st377{fill:#5D5B5B;}
	.st378{fill:#403B3C;}
	.st379{fill:#565354;}
	.st380{fill:#3C393C;}
	.st381{fill:#3F3C3F;}
	.st382{fill:#504C4F;}
	.st383{fill:#3E3A3D;}
	.st384{fill:#3A3738;}
	.st385{fill:#524F51;}
	.st386{fill:#5A595A;}
	.st387{fill:#535053;}
	.st388{fill:#555253;}
	.st389{fill:#605E60;}
	.st390{fill:#2B292A;}
	.st391{fill:#403D40;}
	.st392{fill:#504F50;}
	.st393{fill:#474548;}
	.st394{fill:#545354;}
	.st395{fill:#2A2F40;}
	.st396{fill:#595658;}
	.st397{fill:#5B5758;}
	.st398{fill:#545253;}
	.st399{fill:#2B3144;}
	.st400{fill:#37353D;}
	.st401{fill:#2E3447;}
	.st402{fill:#353A4E;}
	.st403{fill:#2F303B;}
	.st404{fill:#393536;}
	.st405{fill:#211F20;}
	.st406{fill:#484748;}
	.st407{fill:#4C4848;}
	.st408{fill:#433E3E;}
	.st409{fill:#2B2B37;}
	.st410{fill:#CCCBCC;}
	.st411{fill:#4A4646;}
	.st412{fill:#48423F;}
	.st413{fill:#3F3B3B;}
	.st414{fill:#3C3735;}
	.st415{fill:#403D3D;}
	.st416{fill:#3D393A;}
	.st417{fill:#393535;}
	.st418{fill:#393332;}
	.st419{fill:#3E3938;}
	.st420{fill:#383637;}
	.st421{fill:#5B5250;}
	.st422{fill:#383434;}
	.st423{fill:#E4E3E4;}
	.st424{fill:#CAC9CB;}
	.st425{fill:#363335;}
	.st426{fill:#524E4E;}
	.st427{fill:#595758;}
	.st428{fill:#4F4B4D;}
	.st429{fill:#5D595A;}
	.st430{fill:#5B595A;}
	.st431{fill:#5A5758;}
	.st432{fill:#3C3A3C;}
	.st433{fill:#514F4E;}
	.st434{fill:#565355;}
	.st435{fill:#383435;}
	.st436{fill:#4E4B4B;}
	.st437{fill:#484545;}
	.st438{fill:#555352;}
	.st439{fill:#555454;}
	.st440{fill:#383738;}
	.st441{fill:#484446;}
	.st442{fill:#4E4E4F;}
	.st443{fill:#454243;}
	.st444{fill:#565456;}
	.st445{fill:#3E3B3C;}
	.st446{fill:#5A5959;}
	.st447{fill:#5D5A5A;}
	.st448{fill:#403C3E;}
	.st449{fill:#444042;}
	.st450{fill:#444242;}
	.st451{fill:#545051;}
	.st452{fill:#413F3F;}
	.st453{fill:#3F3D3D;}
	.st454{fill:#574E4F;}
	.st455{fill:#444141;}
	.st456{fill:#343133;}
	.st457{fill:#555051;}
	.st458{fill:#383739;}
	.st459{fill:#3F3838;}
	.st460{fill:#575357;}
	.st461{fill:#5D5D5B;}
	.st462{fill:#3F3B3E;}
	.st463{fill:#423D3D;}
	.st464{fill:#3E3D3F;}
	.st465{fill:#4C4B4D;}
	.st466{fill:#3D3C3D;}
	.st467{fill:#3E3E3F;}
	.st468{fill:#433F42;}
	.st469{fill:#3D3B3E;}
	.st470{fill:#3B393B;}
	.st471{fill:#505050;}
	.st472{fill:#383538;}
	.st473{fill:#4F4B4B;}
	.st474{fill:#3E3A3A;}
	.st475{fill:#575253;}
	.st476{fill:#3A3737;}
	.st477{fill:#272424;}
	.st478{fill:#363333;}
	.st479{fill:#585256;}
	.st480{fill:#555456;}
	.st481{fill:#5D5B5C;}
	.st482{fill:#3E393B;}
	.st483{fill:#363334;}
	.st484{fill:#4C4A4D;}
	.st485{fill:#4B4A4B;}
	.st486{fill:#595757;}
	.st487{fill:#535252;}
	.st488{fill:#4D4C4E;}
	.st489{fill:#575657;}
	.st490{fill:#535353;}
	.st491{fill:#565554;}
	.st492{fill:#3A3839;}
	.st493{fill:#4A484A;}
	.st494{fill:#373538;}
	.st495{fill:#3F3B3A;}
	.st496{fill:#424040;}
	.st497{fill:#322F2F;}
	.st498{fill:#434244;}
	.st499{fill:#434043;}
	.st500{fill:#585655;}
	.st501{fill:#414042;}
	.st502{fill:#3E3C3C;}
	.st503{fill:#3C3C3D;}
	.st504{fill:#373638;}
	.st505{fill:#595453;}
	.st506{fill:#443D3B;}
	.st507{fill:#5B5858;}
	.st508{fill:#525252;}
	.st509{fill:#5C5A5B;}
	.st510{fill:#535253;}
	.st511{fill:#616060;}
	.st512{fill:#565556;}
	.st513{fill:#5C5858;}
	.st514{fill:#4B4749;}
	.st515{fill:#4D4C4F;}
	.st516{fill:#595858;}
	.st517{fill:#2B2829;}
	.st518{fill:#2D292A;}
	.st519{fill:#4C4A4A;}
	.st520{fill:#545554;}
	.st521{fill:#373535;}
	.st522{fill:#515151;}
	.st523{fill:#504E51;}
	.st524{fill:#555453;}
	.st525{fill:#535052;}
	.st526{fill:#575354;}
	.st527{fill:#595A5B;}
	.st528{fill:#575252;}
	.st529{fill:#3B3738;}
	.st530{fill:#585758;}
	.st531{fill:#585658;}
	.st532{fill:#252323;}
	.st533{fill:#595558;}
	.st534{fill:#504E4D;}
	.st535{fill:#3B383B;}
	.st536{fill:#565555;}
	.st537{fill:#545454;}
	.st538{fill:#3D383A;}
	.st539{fill:#5E5B5B;}
	.st540{fill:#626163;}
	.st541{fill:#403E3E;}
	.st542{fill:#5E5E5E;}
	.st543{fill:#403E41;}
	.st544{fill:#403F41;}
	.st545{fill:#2E2B2D;}
	.st546{fill:#312F30;}
	.st547{fill:#353236;}
	.st548{fill:#3C3945;}
	.st549{fill:#48434F;}
	.st550{fill:#49454F;}
	.st551{fill:#32394D;}
	.st552{fill:#4C4A4E;}
	.st553{fill:#545052;}
	.st554{fill:#59575A;}
	.st555{fill:#5E5A5A;}
	.st556{fill:#585657;}
	.st557{fill:#575556;}
	.st558{fill:#5A5A5A;}
	.st559{fill:#4C4B4C;}
	.st560{fill:#4B494B;}
	.st561{fill:#2C2A2A;}
	.st562{fill:#363435;}
	.st563{fill:#373637;}
	.st564{fill:#3B3A3A;}
	.st565{fill:#444446;}
	.st566{fill:#2F2C2D;}
	.st567{fill:#252222;}
	.st568{fill:#343131;}
	.st569{fill:#555152;}
	.st570{fill:#5B5658;}
	.st571{fill:#5C595B;}
	.st572{fill:#5E5B5D;}
	.st573{fill:#5A575A;}
	.st574{fill:#585859;}
	.st575{fill:#3F3A3F;}
	.st576{fill:#4A4647;}
	.st577{fill:#534F50;}
	.st578{fill:#3A3635;}
	.st579{fill:#524D4D;}
	.st580{fill:#595958;}
	.st581{fill:#3D3C3C;}
	.st582{fill:#3D3B3B;}
	.st583{fill:#383535;}
	.st584{fill:#535153;}
	.st585{fill:#5B595B;}
	.st586{fill:#535152;}
	.st587{fill:#5C5B5B;}
	.st588{fill:#434242;}
	.st589{fill:#565254;}
	.st590{fill:#434343;}
	.st591{fill:#584F4A;}
	.st592{fill:#5B5859;}
	.st593{fill:#272833;}
	.st594{fill:#434551;}
	.st595{fill:#2F313E;}
	.st596{fill:#30333E;}
	.st597{fill:#3B3C4B;}
	.st598{fill:#504C4B;}
	.st599{fill:#434243;}
	.st600{fill:#4E4C4F;}
	.st601{fill:#4C484A;}
	.st602{fill:#5B585A;}
	.st603{fill:#575554;}
	.st604{fill:#565253;}
	.st605{fill:#3C3B3B;}
	.st606{fill:#433D40;}
	.st607{fill:#585555;}
	.st608{fill:#5E5C5D;}
	.st609{fill:#585354;}
	.st610{fill:#545453;}
	.st611{fill:#5D5A5B;}
	.st612{fill:#555254;}
	.st613{fill:#504F4E;}
	.st614{fill:#363436;}
	.st615{fill:#5A595B;}
	.st616{fill:#595959;}
	.st617{fill:#3C3B3A;}
	.st618{fill:#4C4B4B;}
	.st619{fill:#595557;}
	.st620{fill:#4A474A;}
	.st621{fill:#3B3A3B;}
	.st622{fill:#383437;}
	.st623{fill:#585659;}
	.st624{fill:#535254;}
	.st625{fill:#58575A;}
	.st626{fill:#433F40;}
	.st627{fill:#534E4F;}
	.st628{fill:#3B3737;}
	.st629{fill:#5D5859;}
	.st630{fill:#605C5C;}
	.st631{fill:#2E2C2D;}
	.st632{fill:#322F30;}
	.st633{fill:#535355;}
	.st634{fill:#545455;}
	.st635{fill:#4D4D4E;}
	.st636{fill:#373739;}
	.st637{fill:#3D3D3F;}
	.st638{fill:#555556;}
	.st639{fill:#363434;}
	.st640{fill:#383939;}
	.st641{fill:#3F3E40;}
	.st642{fill:#585858;}
	.st643{fill:#5A5A5B;}
	.st644{fill:#353334;}
	.st645{fill:#444445;}
	.st646{fill:#3D3D3E;}
	.st647{fill:#565757;}
	.st648{fill:#585759;}
	.st649{fill:#5A5859;}
	.st650{fill:#575758;}
	.st651{fill:#555655;}
	.st652{fill:#5D5B5D;}
	.st653{fill:#484646;}
	.st654{fill:#585757;}
	.st655{fill:#615D5E;}
	.st656{fill:#494748;}
	.st657{fill:#4F5050;}
	.st658{fill:#534E50;}
	.st659{fill:#515152;}
	.st660{fill:#575558;}
	.st661{fill:#615E5F;}
	.st662{fill:#383737;}
	.st663{fill:#3A3639;}
	.st664{fill:#2E2A2C;}
	.st665{fill:#575153;}
	.st666{fill:#4E4E4E;}
	.st667{fill:#333132;}
	.st668{fill:#5C5B5D;}
	.st669{fill:#423E41;}
	.st670{fill:#565356;}
	.st671{fill:#5B585B;}
	.st672{fill:#5C595C;}
	.st673{fill:#373437;}
	.st674{fill:#555555;}
	.st675{fill:#4D4A55;}
	.st676{fill:#47464A;}
	.st677{fill:#575456;}
	.st678{fill:#454546;}
	.st679{fill:#5D5C5D;}
	.st680{fill:#666466;}
	.st681{fill:#5E5E5F;}
	.st682{fill:#5B5C5C;}
	.st683{fill:#424144;}
	.st684{fill:#5C5B5C;}
	.st685{fill:#545456;}
	.st686{fill:#5E5C5E;}
	.st687{fill:#5A585B;}
	.st688{fill:#515052;}
	.st689{fill:#454346;}
	.st690{fill:#5A5759;}
	.st691{fill:#595A5A;}
	.st692{fill:#433E40;}
	.st693{fill:#505051;}
	.st694{fill:#3C3A3D;}
	.st695{fill:#595859;}
	.st696{fill:#383639;}
	.st697{fill:#4E4949;}
	.st698{fill:#484344;}
	.st699{fill:#484342;}
	.st700{fill:#383336;}
	.st701{fill:#363234;}
	.st702{fill:#545251;}
	.st703{fill:#534E4E;}
	.st704{fill:#4F4949;}
	.st705{fill:#403B39;}
	.st706{fill:#413937;}
	.st707{fill:#3D3939;}
	.st708{fill:#494546;}
	.st709{fill:#413E3D;}
	.st710{fill:#504B4B;}
	.st711{fill:#565656;}
	.st712{fill:#565657;}
	.st713{fill:#5A5354;}
	.st714{fill:#463D3A;}
	.st715{fill:#5F5A5A;}
	.st716{fill:#5E5E5D;}
	.st717{fill:#3B3638;}
	.st718{fill:#3C3B3D;}
	.st719{fill:#4F4D4D;}
	.st720{fill:#4B4649;}
	.st721{fill:#5E5B5C;}
	.st722{fill:#5D585A;}
	.st723{fill:#3E3E3E;}
	.st724{fill:#3A3939;}
	.st725{fill:#3F3F40;}
	.st726{fill:#5D5A5C;}
	.st727{fill:#605E5F;}
	.st728{fill:#5C595A;}
	.st729{fill:#5C5A5A;}
	.st730{fill:#5B5B5B;}
	.st731{fill:#585756;}
	.st732{fill:#575658;}
	.st733{fill:#413E41;}
	.st734{fill:#514E52;}
	.st735{fill:#38373A;}
	.st736{fill:#424143;}
	.st737{fill:#646265;}
	.st738{fill:#39373A;}
	.st739{fill:#5A5555;}
	.st740{fill:#444343;}
	.st741{fill:#5C5C5E;}
	.st742{fill:#3A3A3A;}
	.st743{fill:#5B5A5C;}
	.st744{fill:#2D2B2C;}
	.st745{fill:#555154;}
	.st746{fill:#565557;}
	.st747{fill:#545154;}
	.st748{fill:#545556;}
	.st749{fill:#615D5F;}
	.st750{fill:#5B5A5B;}
	.st751{fill:#555255;}
	.st752{fill:#444345;}
	.st753{fill:#606060;}
	.st754{fill:#575457;}
	.st755{fill:#575756;}
	.st756{fill:#2C2A2B;}
	.st757{fill:#292727;}
	.st758{fill:#504F51;}
	.st759{fill:#545553;}
	.st760{fill:#5F5F5E;}
	.st761{fill:#585557;}
	.st762{fill:#393538;}
	.st763{fill:#5E595C;}
	.st764{fill:#39383B;}
	.st765{fill:#616260;}
	.st766{fill:#545457;}
	.st767{fill:#474648;}
	.st768{fill:#5D5659;}
	.st769{fill:#464547;}
	.st770{fill:#5F5E60;}
	.st771{fill:#403C3F;}
	.st772{fill:#5C5A5C;}
	.st773{fill:#5A5958;}
	.st774{fill:#696667;}
	.st775{fill:#4B4B4C;}
	.st776{fill:#4A4649;}
	.st777{fill:#5F5D5D;}
	.st778{fill:#5B5759;}
	.st779{fill:#4D4B4B;}
	.st780{fill:#4F4D4C;}
	.st781{fill:#605A5B;}
	.st782{fill:#464342;}
	.st783{fill:#5C5958;}
	.st784{fill:#565452;}
	.st785{fill:#3C3839;}
	.st786{fill:#3C383A;}
	.st787{fill:#575453;}
	.st788{fill:#544F4F;}
	.st789{fill:#605B5B;}
	.st790{fill:#5C5C5D;}
	.st791{fill:#373738;}
	.st792{fill:#535354;}
	.st793{fill:#605D5E;}
	.st794{fill:#3D3A3A;}
	.st795{fill:#5D5D5E;}
	.st796{fill:#3A3537;}
	.st797{fill:#363536;}
	.st798{fill:#5A5556;}
	.st799{fill:#414142;}
	.st800{fill:#474345;}
	.st801{fill:#5F5D5F;}
	.st802{fill:#535251;}
	.st803{fill:#454446;}
	.st804{fill:#626363;}
	.st805{fill:#59585A;}
	.st806{fill:#5E5A5D;}
	.st807{fill:#39393A;}
	.st808{fill:#393639;}
	.st809{fill:#363235;}
	.st810{fill:#3A3838;}
	.st811{fill:#4A4A4B;}
	.st812{fill:#484749;}
	.st813{fill:#454445;}
	.st814{fill:#3F3E3E;}
	.st815{fill:#595659;}
	.st816{fill:#535454;}
	.st817{fill:#5E5D5E;}
	.st818{fill:#5E5A5C;}
	.st819{fill:#59595C;}
	.st820{fill:#585554;}
	.st821{fill:#5E5D60;}
	.st822{fill:#353435;}
	.st823{fill:#525253;}
	.st824{fill:#535054;}
	.st825{fill:#5B5B5A;}
	.st826{fill:#525254;}
	.st827{fill:#525259;}
	.st828{fill:#5E5C5F;}
	.st829{fill:#37363A;}
	.st830{fill:#3B393D;}
	.st831{fill:#525251;}
	.st832{fill:#3C3B3E;}
	.st833{fill:#595A59;}
	.st834{fill:#353133;}
	.st835{fill:#5B5657;}
	.st836{fill:#615D5D;}
	.st837{fill:#595456;}
	.st838{fill:#5E5B5A;}
	.st839{fill:#413B3D;}
	.st840{fill:#444041;}
	.st841{fill:#5F5E5E;}
	.st842{fill:#504D4C;}
	.st843{fill:#535352;}
	.st844{fill:#5E5D5D;}
	.st845{fill:#393838;}
	.st846{fill:#635D5E;}
	.st847{fill:#424043;}
	.st848{fill:#5D5C5C;}
	.st849{fill:#59585B;}
	.st850{fill:#434144;}
	.st851{fill:#4A484B;}
	.st852{fill:#575559;}
	.st853{fill:#444144;}
	.st854{fill:#565458;}
	.st855{fill:#434344;}
	.st856{fill:#3B3A3D;}
	.st857{fill:#5C585B;}
	.st858{fill:#413F42;}
	.st859{fill:#373639;}
	.st860{fill:#585456;}
	.st861{fill:#615E5E;}
	.st862{fill:#58585A;}
	.st863{fill:#616161;}
	.st864{fill:#5A5C5D;}
	.st865{fill:#575759;}
	.st866{fill:#3B3B3B;}
	.st867{fill:#5C585A;}
	.st868{fill:#414040;}
	.st869{fill:#3E3E40;}
	.st870{fill:#3F3D40;}
	.st871{fill:#626264;}
	.st872{fill:#555357;}
	.st873{fill:#6D6A6C;}
	.st874{fill:#535154;}
	.st875{fill:#59595A;}
	.st876{fill:#565756;}
	.st877{fill:#524F52;}
	.st878{fill:#565655;}
	.st879{fill:#3A3B3B;}
	.st880{fill:#5E5D5F;}
	.st881{fill:#514F52;}
	.st882{fill:#525355;}
	.st883{fill:#4F4F51;}
	.st884{fill:#56565C;}
	.st885{fill:#535258;}
	.st886{fill:#515155;}
	.st887{fill:#5C5757;}
	.st888{fill:#404040;}
	.st889{fill:#4B4848;}
	.st890{fill:#504B4D;}
	.st891{fill:#565453;}
	.st892{fill:#595756;}
	.st893{fill:#525453;}
	.st894{fill:#5C5B5E;}
	.st895{fill:#615F60;}
	.st896{fill:#605D5D;}
	.st897{fill:#565658;}
	.st898{fill:#595759;}
	.st899{fill:#363637;}
	.st900{fill:#535255;}
	.st901{fill:#605F61;}
	.st902{fill:#454143;}
	.st903{fill:#444043;}
	.st904{fill:#464447;}
	.st905{fill:#5A5B5A;}
	.st906{fill:#565255;}
	.st907{fill:#3D383B;}
	.st908{fill:#3E393C;}
	.st909{fill:#5B5B5D;}
	.st910{fill:#645F60;}
	.st911{fill:#353535;}
	.st912{fill:#5C5758;}
	.st913{fill:#5C5859;}
	.st914{fill:#343334;}
	.st915{fill:#4F4E4D;}
	.st916{fill:#403B3D;}
	.st917{fill:#3E3C3F;}
	.st918{fill:#5C5A5F;}
	.st919{fill:#3B393C;}
	.st920{fill:#555457;}
	.st921{fill:#585558;}
	.st922{fill:#3F3F41;}
	.st923{fill:#545352;}
	.st924{fill:#555557;}
	.st925{fill:#565457;}
	.st926{fill:#605F60;}
	.st927{fill:#4C494D;}
	.st928{fill:#383736;}
	.st929{fill:#625D60;}
	.st930{fill:#5F5A5C;}
	.st931{fill:#3A373B;}
	.st932{fill:#5C5C5C;}
	.st933{fill:#4E4E50;}
	.st934{fill:#3A3637;}
	.st935{fill:#595857;}
	.st936{fill:#605E5D;}
	.st937{fill:#555657;}
	.st938{fill:#626061;}
	.st939{fill:#5B595C;}
	.st940{fill:#3D393C;}
	.st941{fill:#3B3C3C;}
	.st942{fill:#636061;}
	.st943{fill:#50504F;}
	.st944{fill:#5C5A59;}
	.st945{fill:#555654;}
	.st946{fill:#454245;}
	.st947{fill:#5C5E5F;}
	.st948{fill:#313131;}
	.st949{fill:#1BE0E6;}
	.st950{fill:none;stroke:#000000;stroke-miterlimit:10;}
	.st951{fill:#FFFFFF;stroke:#000000;stroke-miterlimit:10;}
	.st952{fill:none;stroke:#06C6BC;stroke-width:0.2;stroke-miterlimit:10;}
	.st953{fill:#3F5070;}
</style>
<g>
	<g>
		<g>
			<path class="st13" d="M30.8620949,19.9266415c-0.3417282,0.3987465-0.7749977,0.6008358-1.2881718,0.6008358
				c-0.4596462,0-0.8475342-0.1493359-1.1524124-0.4441299c-0.304491-0.2944069-0.4588699-0.6663895-0.4588699-1.1062527
				s0.1578693-0.8165016,0.4693432-1.119442c0.311861-0.3037148,0.6888866-0.4573174,1.1206055-0.4573174
				c0.5306282,0,0.9708786,0.2121735,1.3083401,0.6310902l0.03685,0.0453835l0.3867226-0.2967339l-0.0333576-0.0469341
				c-0.1877365-0.2637634-0.4332695-0.4689541-0.7292271-0.6101456c-0.2947941-0.1400261-0.6314793-0.21101-1.0007477-0.21101
				c-0.3704319,0-0.7214699,0.0896015-1.0434151,0.2657013c-0.3227215,0.176878-0.5787277,0.424736-0.7606468,0.7365971
				c-0.1819172,0.311861-0.2742348,0.6563053-0.2742348,1.0232468c0,0.5942421,0.1993732,1.092289,0.5923023,1.4813385
				c0.3925419,0.3894386,0.9029999,0.5868721,1.5174141,0.5868721c0.3510361,0,0.6768608-0.0667152,0.9681644-0.1982098
				c0.2924671-0.1314926,0.537611-0.3262119,0.7292271-0.5795021l0.0360737-0.0473232l-0.3871117-0.2967319L30.8620949,19.9266415z"
				/>
			<path class="st13" d="M33.2293663,17.9185505c-0.4208565,0-0.7831421,0.1536045-1.0759964,0.4557667
				c-0.2928562,0.3021641-0.4414158,0.6706562-0.4414158,1.0957813c0,0.4181423,0.1477852,0.7823677,0.4386997,1.0822029
				c0.2913017,0.3006134,0.6551399,0.4534397,1.0810394,0.4534397s0.7889633-0.1528263,1.0787125-0.4534397
				c0.2889786-0.2998352,0.4359856-0.6656132,0.4359856-1.0876331c0-0.4216328-0.1485596-0.788187-0.4414139-1.0903511
				C34.0121231,18.072155,33.6502228,17.9185505,33.2293663,17.9185505z M34.2630844,19.4751415
				c0,0.2955685-0.1016273,0.5500221-0.3017769,0.7571545c-0.2001495,0.206356-0.4480095,0.3110847-0.7373695,0.3110847
				c-0.2936325,0-0.5321808-0.100462-0.729229-0.3079815c-0.1951065-0.2055798-0.2940178-0.459259-0.2940178-0.7548275
				c0-0.2955704,0.1024017-0.5542908,0.3048782-0.7680168c0.2044182-0.2164402,0.4410286-0.321558,0.7237968-0.321558
				c0.282383,0,0.5197678,0.1051178,0.7261238,0.321558C34.1595192,18.9266682,34.2630844,19.1834507,34.2630844,19.4751415z"/>
			<path class="st13" d="M37.3712196,18.1004696c-0.1784248-0.1206322-0.3812904-0.1819191-0.6027756-0.1819191
				c-0.3789635,0-0.7109947,0.1574821-0.989109,0.4677925v-0.3940926h-0.4833069v2.9184589h0.4833069v-1.087635
				c0-0.3774128,0.0151253-0.6295395,0.0453835-0.7497845c0.0298653-0.1183052,0.0884361-0.2350597,0.17416-0.3471584
				c0.0853348-0.1120987,0.1904526-0.2005367,0.3118591-0.2625999c0.2420425-0.1245117,0.5209312-0.1113224,0.6919899-0.0356846
				c0.086113,0.0384007,0.1555443,0.093092,0.2113991,0.1664028c0.0562439,0.0740871,0.0989113,0.1664028,0.1264496,0.2738476
				c0.0283165,0.1101608,0.0426712,0.3285408,0.0426712,0.6493225v1.3932896h0.4778748v-1.4987946
				c0-0.3700428-0.0360718-0.643116-0.1093826-0.8355083C37.6772652,18.3813,37.549263,18.2211037,37.3712196,18.1004696z"/>
			<path class="st13" d="M39.3106537,16.9119854h-0.4829178v1.080265H38.332016v0.4255104h0.4957199v2.0484295
				c0,0.1803684,0.0430565,0.3165169,0.1272278,0.4049549c0.0849457,0.0892143,0.2168274,0.1345959,0.3909874,0.1345959
				c0.0868874,0,0.2075195-0.0128002,0.3576317-0.0384007l0.0500374-0.0081444v-0.4158154h-0.2757874
				c-0.1179161,0-0.1489487-0.0120239-0.1516609-0.0120239c0,0-0.0003891,0,0,0.0003872
				c-0.0007782-0.0011635-0.0155182-0.0232735-0.0155182-0.1237354v-1.9902477h0.5694199v-0.4255104h-0.5694199V16.9119854z"/>
			<path class="st13" d="M42.7329788,18.3944874c-0.2796669-0.3161278-0.6330299-0.4759369-1.0523376-0.4759369
				c-0.4119339,0-0.77034,0.152441-1.065136,0.4526653c-0.2944069,0.3009987-0.4441299,0.6660004-0.4441299,1.0853062
				c0,0.419693,0.1485596,0.7866344,0.4410286,1.0907383c0.2936287,0.3041019,0.6582413,0.4584808,1.0841408,0.4584808
				c0.3828468,0,0.7311668-0.1609726,1.0364342-0.478651v0.3836193h0.4728355v-2.9184589h-0.4728355V18.3944874z
				 M42.4498215,18.6970406c0.2017021,0.2075195,0.3041039,0.4658508,0.3041039,0.7676277
				c0,0.3169022-0.1008492,0.5721321-0.3091469,0.7800388c-0.2079048,0.2082958-0.4499474,0.3091469-0.7404747,0.3091469
				c-0.289753,0-0.5317917-0.1051178-0.7397003-0.3211708c-0.2059669-0.2141132-0.3099213-0.4708939-0.3099213-0.7625847
				c0-0.2920799,0.1024017-0.5488605,0.3052673-0.7629738c0.201313-0.2133369,0.451889-0.3211708,0.7443542-0.3211708
				C42.0014267,18.3859539,42.245018,18.4875813,42.4498215,18.6970406z"/>
			<path class="st13" d="M43.8334122,17.0194302c-0.0690422,0.070982-0.1039505,0.1563187-0.1039505,0.2529011
				c0,0.0930939,0.0349083,0.1761017,0.1039505,0.2466965c0.069046,0.0713711,0.1543808,0.107832,0.2532921,0.107832
				c0.0981331,0,0.1834717-0.0352974,0.2532883-0.1047287c0.069046-0.0694313,0.1043434-0.1547661,0.1043434-0.252903
				c0-0.098135-0.0352974-0.1830826-0.1047287-0.2529011C44.1999664,16.8778515,43.9718895,16.8770752,43.8334122,17.0194302z"/>
			<rect x="43.8454399" y="17.9922504" class="st13" width="0.482919" height="2.9184597"/>
			<path class="st13" d="M47.0272713,18.1004696c-0.1788139-0.1206322-0.3816795-0.1819191-0.6027756-0.1819191
				c-0.3785744,0-0.7109947,0.1574821-0.9894981,0.4677925v-0.3940926h-0.4829178v2.9184589h0.4829178v-1.087635
				c0-0.3762493,0.0151291-0.628376,0.0457726-0.7497845c0.0290909-0.1175289,0.0876617-0.2342834,0.1737709-0.3471584
				c0.0857239-0.1120987,0.1908417-0.2005367,0.3122482-0.2625999c0.2416534-0.1245117,0.5213203-0.1113224,0.6916046-0.0356846
				c0.0857201,0.0384007,0.1567039,0.0942554,0.2113991,0.1664028c0.0562401,0.0733109,0.0985222,0.1656284,0.1264496,0.2738476
				c0.0287018,0.1113243,0.0430565,0.3297043,0.0430565,0.6493225v1.3932896h0.4778748v-1.4987946
				c0-0.3638382-0.03685-0.6450558-0.1093826-0.8355083C47.3333168,18.3813,47.2053146,18.2211037,47.0272713,18.1004696z"/>
			<path class="st13" d="M51.0434532,19.4898796c-0.0108604-0.4813671-0.1617508-0.8673134-0.4476204-1.1481438
				c-0.2862625-0.2808304-0.6442833-0.4231853-1.0643616-0.4231853c-0.4208603,0-0.7796555,0.1536045-1.0659142,0.4561558
				c-0.2850952,0.301775-0.4301682,0.6683292-0.4301682,1.089962s0.1439095,0.7874088,0.4274521,1.0872459
				c0.2847099,0.3010006,0.650486,0.4538269,1.0868607,0.4538269c0.6113091,0,1.0794868-0.294405,1.3913498-0.8750725
				l0.0287018-0.0535278l-0.4119339-0.2129498l-0.0275421,0.0519772c-0.2261353,0.42939-0.5573921,0.6376858-1.0119972,0.6376858
				c-0.2742348,0-0.5007591-0.0950317-0.6927643-0.2905273c-0.1776505-0.1807556-0.2781143-0.4204693-0.2986717-0.7125473h2.5177727
				L51.0434532,19.4898796z M48.5815353,19.120224c0.1625252-0.4937801,0.4747734-0.7342701,0.9526482-0.7342701
				c0.2416534,0,0.4580956,0.0717602,0.6435051,0.2141151c0.1664047,0.1276131,0.277729,0.3025513,0.3316422,0.520155H48.5815353z"
				/>
			<path class="st13" d="M52.1341896,18.0484924c-0.0628357,0.0519772-0.1256752,0.1210213-0.1896782,0.2094593v-0.2657013
				h-0.4883461v2.9184589h0.4883461v-1.0085049c0-0.4600334,0.0224991-0.7804279,0.0667191-0.9522629
				c0.0426674-0.1675663,0.1101608-0.3056545,0.2009239-0.4107723c0.1276169-0.1493359,0.262989-0.1892872,0.3956451-0.1089954
				l0.0504265,0.0302544l0.2544518-0.409996L52.856823,18.020565
				C52.6004295,17.8824768,52.3374405,17.8797626,52.1341896,18.0484924z"/>
			<path class="st13" d="M56.2031212,16.8538017h-0.1714439l-1.8028984,3.9727364l-0.0380135,0.0841713h0.5523491
				l0.5903664-1.291275h1.5573654l0.5957909,1.291275h0.5356712l-1.8032837-4.0216103L56.2031212,16.8538017z M56.6678085,19.115181
				h-1.1062508l0.5554543-1.2195148L56.6678085,19.115181z"/>
			<path class="st13" d="M59.1972198,16.9119854H58.713913v1.080265h-0.4953308v0.4255104h0.4953308v2.0484295
				c0,0.1807556,0.0430565,0.3169041,0.1276131,0.4049549c0.0849495,0.0892143,0.2164421,0.1345959,0.3906021,0.1345959
				c0.0876617,0,0.2079086-0.0128002,0.3580208-0.0384007l0.0496483-0.0081444v-0.4158154h-0.2757874
				c-0.1186943,0-0.1493378-0.0120239-0.1516647-0.0120239c-0.0007744-0.0007763-0.0151253-0.0224972-0.0151253-0.1233482
				v-1.9902477h0.569416v-0.4255104h-0.569416V16.9119854z"/>
			<path class="st13" d="M60.9838257,16.9119854h-0.4829178v1.080265H60.005188v0.4255104h0.4957199v2.0484295
				c0,0.1807556,0.0430527,0.3172913,0.127224,0.4049549c0.0849495,0.0892143,0.2168312,0.1345959,0.3909912,0.1345959
				c0.0868874,0,0.2075195-0.0128002,0.3576317-0.0384007l0.0500374-0.0081444v-0.4158154h-0.2761765
				c-0.1183052,0-0.149334-0.0120239-0.1516647-0.0120239c-0.0007744-0.0007763-0.0151253-0.0224972-0.0151253-0.1233482v-1.9902477
				h0.569416v-0.4255104h-0.569416V16.9119854z"/>
			<path class="st13" d="M64.4065399,18.3944874c-0.2800598-0.3157387-0.6334229-0.4759369-1.0527267-0.4759369
				c-0.4119339,0-0.7703438,0.152441-1.065136,0.4526653c-0.2944069,0.3002243-0.4437447,0.6652241-0.4437447,1.0853062
				s0.1485634,0.7870216,0.4406395,1.0907383c0.2936325,0.3041019,0.6582451,0.4584808,1.0841446,0.4584808
				c0.382843,0,0.7311668-0.1609726,1.0368233-0.478651v0.3836193h0.4724426v-2.9184589h-0.4724426V18.3944874z
				 M64.1229935,18.6970406c0.2051926,0.2102337,0.3044891,0.4611969,0.3044891,0.7676277
				c0,0.316515-0.1012344,0.5717449-0.3095322,0.7800388c-0.2048035,0.2051926-0.4538269,0.3091469-0.7404747,0.3091469
				c-0.2858734,0-0.5345078-0.1078339-0.739315-0.321558c-0.2059669-0.213726-0.3103065-0.4701195-0.3103065-0.7621975
				c0-0.2920799,0.1024017-0.5488605,0.3052635-0.7629738c0.2044182-0.2164402,0.4480095-0.3211708,0.7443581-0.3211708
				C63.6745949,18.3859539,63.91819,18.4875813,64.1229935,18.6970406z"/>
			<path class="st13" d="M68.0352173,20.0860615c-0.2540665,0.3149643-0.5698013,0.4677925-0.9654465,0.4677925
				c-0.3266068,0-0.5992889-0.1089973-0.8110733-0.3242741c-0.2129517-0.216053-0.3203964-0.4790401-0.3203964-0.7808151
				c0-0.3013878,0.1090012-0.5570049,0.3238831-0.7602577c0.2160568-0.2044163,0.4875793-0.3079834,0.8075867-0.3079834
				c0.4127121,0,0.7280579,0.1524391,0.9642868,0.4662399l0.0329666,0.0438309l0.3805161-0.2393246l-0.0302505-0.0500374
				c-0.128006-0.2125626-0.3141937-0.3812943-0.5539093-0.5019264c-0.237381-0.1198559-0.4992065-0.1807556-0.77771-0.1807556
				c-0.473999,0-0.868866,0.1539917-1.172966,0.4577065c-0.3033295,0.3041039-0.4573212,0.6737595-0.4573212,1.0988846
				c0,0.4258995,0.1524429,0.7912884,0.4522781,1.0860825c0.3002243,0.2947941,0.6788025,0.4445171,1.1252594,0.4445171
				c0.2808304,0,0.5473022-0.0570183,0.7916718-0.1691189c0.2459259-0.112875,0.444519-0.2777252,0.5907516-0.4899006
				l0.034523-0.0496483l-0.3805161-0.2536793L68.0352173,20.0860615z"/>
			<path class="st13" d="M71.056076,18.1004696c-0.1780396-0.1206322-0.3805161-0.1819191-0.6023865-0.1819191
				c-0.3789597,0-0.71138,0.157095-0.9891129,0.4674034v-1.4739685h-0.4833069v3.998724h0.4833069v-1.087635
				c0-0.3774128,0.0151291-0.6295395,0.0453873-0.7497845c0.0298691-0.117918,0.0880508-0.2350597,0.1737747-0.3471584
				c0.0861053-0.1124878,0.1912231-0.2009258,0.3122482-0.2625999c0.2408752-0.1241226,0.5364456-0.1159782,0.7175903-0.0236607
				c0.0899887,0.0457706,0.1629105,0.1140385,0.2164383,0.2017021c0.0550842,0.0915413,0.0915451,0.1889,0.1078339,0.289362
				c0.017067,0.1062813,0.0255966,0.3037167,0.0255966,0.5864849v1.3932896h0.4829254v-1.4987946
				c0-0.3638382-0.03685-0.6450558-0.1093903-0.8355083C71.3625107,18.3809128,71.2345047,18.2207146,71.056076,18.1004696z"/>
			<path class="st13" d="M75.0726471,19.4898796c-0.0108643-0.4813671-0.1617508-0.8673134-0.4476242-1.1481438
				c-0.2862549-0.2808304-0.6442795-0.4231853-1.0643616-0.4231853c-0.4208527,0-0.7796478,0.1536045-1.0659103,0.4561558
				c-0.2850952,0.3021641-0.4301682,0.6687164-0.4301682,1.089962c0,0.4212437,0.1439056,0.7870216,0.4274521,1.0872459
				c0.2847137,0.3010006,0.6504898,0.4538269,1.0872498,0.4538269c0.6109161,0,1.0791016-0.294405,1.3909607-0.8750725
				l0.0287018-0.0535278l-0.4119339-0.2129498l-0.0275421,0.0519772c-0.2261353,0.42939-0.5573883,0.6376858-1.0119934,0.6376858
				c-0.2742386,0-0.5007629-0.0950317-0.6927643-0.2905273c-0.1776581-0.1807556-0.2781143-0.4204693-0.2986755-0.7125473h2.5177689
				L75.0726471,19.4898796z M72.610733,19.120224c0.1625214-0.4937801,0.4747696-0.7342701,0.9526443-0.7342701
				c0.2416534,0,0.4580994,0.0717602,0.6435089,0.2141151c0.1663971,0.1276131,0.2777252,0.3025513,0.3316422,0.520155H72.610733z"
				/>
			<path class="st13" d="M78.0628662,18.3944874c-0.2800522-0.3157387-0.6334229-0.4759369-1.0527267-0.4759369
				c-0.4119339,0-0.77034,0.152441-1.0647507,0.4526653c-0.2944031,0.3002243-0.4441299,0.6660004-0.4441299,1.0880222
				c0,0.42202,0.147789,0.7889614,0.4383163,1.0907364c0.2912979,0.3021641,0.6559143,0.4557667,1.0841446,0.4557667
				c0.3843918,0,0.73349-0.1609726,1.0391464-0.478651v0.3836193h0.4724426v-3.998724h-0.4724426V18.3944874z
				 M77.7843628,18.6993675c0.1986008,0.2090702,0.2994461,0.4685669,0.2994461,0.770731
				c0,0.3122482-0.1070557,0.5732956-0.3192291,0.7761612c-0.2117844,0.2044163-0.4608078,0.3075943-0.74086,0.3075943
				c-0.2788925,0-0.5244293-0.1086082-0.7292328-0.3234978c-0.2059631-0.2164402-0.3103027-0.4728336-0.3103027-0.7629738
				c0-0.294405,0.0989075-0.5434284,0.3029327-0.7606449c0.199379-0.2129498,0.451889-0.3207836,0.7497864-0.3207836
				C77.3386841,18.3859539,77.5834351,18.4883575,77.7843628,18.6993675z"/>
			<path class="st13" d="M81.6601257,18.6582508c-0.2986679-0.2218704-0.4922256-0.3843956-0.5744629-0.4836941
				c-0.0775757-0.0930939-0.1151962-0.2005386-0.1151962-0.3281517c0-0.1241245,0.0411148-0.2238121,0.1256714-0.304491
				c0.0865021-0.0814571,0.1958847-0.1206341,0.3339691-0.1206341c0.1373138,0,0.2548447,0.0395641,0.3490982,0.117918
				c0.1020203,0.0853348,0.2017059,0.1935558,0.2959595,0.321558l0.0364609,0.0492611l0.3983612-0.3099213l-0.0329742-0.046545
				c-0.1481705-0.2094593-0.3041-0.3696575-0.4635239-0.476326c-0.1636887-0.1093845-0.3572388-0.1652393-0.5756226-0.1652393
				c-0.2785034,0-0.5135574,0.0919285-0.6981964,0.2726841c-0.1850204,0.1815319-0.2788849,0.4057293-0.2788849,0.6671658
				c0,0.1225719,0.0236588,0.2459202,0.0702057,0.3665524c0.0461578,0.1210213,0.1194687,0.2354469,0.2176056,0.3409519
				c0.0950317,0.1024017,0.2804413,0.2571697,0.5504074,0.4600334c0.2622147,0.1966591,0.4526672,0.3696575,0.5659256,0.5139503
				c0.1070557,0.1357613,0.1613617,0.2703571,0.1613617,0.4006882c0,0.16679-0.0605087,0.3021622-0.1857986,0.4142628
				c-0.1264496,0.1136494-0.2753983,0.1687298-0.4553757,0.1687298c-0.2738495,0-0.520546-0.198597-0.7327194-0.5903625
				l-0.02948-0.0543041l-0.4231873,0.2497978l0.0259933,0.0500374c0.2870331,0.5531273,0.6950912,0.8335686,1.2121429,0.8335686
				c0.2955704,0,0.5585556-0.107832,0.7815933-0.3200054c0.2238083-0.2121754,0.3374634-0.4670162,0.3374634-0.7571564
				c0-0.2226467-0.0740891-0.4367599-0.2199326-0.6361332C82.1950226,19.0985031,81.9673309,18.8847771,81.6601257,18.6582508z"/>
			<path class="st13" d="M83.9746475,16.9119854h-0.4829178v1.080265h-0.4957199v0.4255104h0.4957199v2.0484295
				c0,0.1803684,0.0430527,0.3165169,0.1272278,0.4049549c0.0857239,0.0892143,0.2172165,0.1345959,0.3909836,0.1345959
				c0.0868912,0,0.2075195-0.0128002,0.3576355-0.0384007l0.0500336-0.0081444v-0.4158154h-0.2757874
				c-0.1179123,0-0.1489487-0.0120239-0.1516571-0.0120239c0,0-0.0003891,0,0,0.0003872
				c-0.0007782-0.0011635-0.0155182-0.0232735-0.0155182-0.1237354v-1.9902477h0.5694199v-0.4255104h-0.5694199V16.9119854z"/>
			<path class="st13" d="M86.3473511,17.9185505c-0.4208603,0-0.782753,0.1536045-1.0756073,0.4557667
				c-0.2928619,0.3021641-0.4414215,0.6706562-0.4414215,1.0957813c0,0.4181423,0.147789,0.7823677,0.4387054,1.0822029
				c0.2909088,0.3006134,0.654747,0.4534397,1.0810394,0.4534397c0.4258957,0,0.7889633-0.1528263,1.0787125-0.4534397
				c0.2889709-0.3002243,0.4355927-0.6660004,0.4355927-1.0876331s-0.1485596-0.7885742-0.4410248-1.0903511
				C87.1301041,18.072155,86.7678223,17.9185505,86.3473511,17.9185505z M87.3814545,19.4751415
				c0,0.2998352-0.0989075,0.547308-0.3021622,0.7571545c-0.1997604,0.2067432-0.4476242,0.3110847-0.7369843,0.3110847
				c-0.2936325,0-0.5321808-0.100462-0.7292252-0.3079815c-0.1954956-0.2051926-0.2944107-0.459259-0.2944107-0.7548275
				c0-0.2955704,0.1024017-0.5539036,0.3052673-0.7680168c0.2044144-0.2164402,0.4410324-0.321558,0.7234116-0.321558
				c0.2827682,0,0.5201569,0.1051178,0.7265091,0.321558C87.2778931,18.9266682,87.3814545,19.1834507,87.3814545,19.4751415z"/>
			<path class="st13" d="M88.9551086,18.0484924c-0.0624466,0.0519772-0.1256714,0.1221848-0.1892853,0.2098484v-0.2660904
				h-0.4883499v2.9184589h0.4883499v-1.0085049c0-0.4600334,0.0224991-0.7804279,0.0667191-0.9522629
				c0.0426636-0.1675663,0.1101608-0.3056545,0.2009201-0.4107723c0.128006-0.1493359,0.2626038-0.1892872,0.3956451-0.1089954
				l0.0504303,0.0302544l0.2536774-0.4096069L89.677742,18.020565
				C89.4236832,17.8828659,89.1591415,17.8793755,88.9551086,18.0484924z"/>
			<path class="st13" d="M92.4360046,18.3944874c-0.2800522-0.3157387-0.6334152-0.4759369-1.05233-0.4759369
				c-0.4123306,0-0.7707367,0.152441-1.0651398,0.4526653c-0.2944031,0.3006115-0.4441299,0.6656132-0.4441299,1.0853062
				s0.1485596,0.7866344,0.4410248,1.0907383c0.2936325,0.3041019,0.6582489,0.4584808,1.0841446,0.4584808
				c0.382843,0,0.731163-0.1609726,1.0364304-0.478651v0.3836193h0.4728394v-2.9184589h-0.4728394V18.3944874z
				 M92.1524658,18.6970406c0.2051926,0.2102337,0.3044891,0.4611969,0.3044891,0.7676277
				c0,0.316515-0.100853,0.5717449-0.3091507,0.7800388c-0.207901,0.2082958-0.4499435,0.3091469-0.7404709,0.3091469
				c-0.2897491,0-0.5317917-0.1051178-0.7397003-0.321558c-0.2059708-0.2133389-0.3099213-0.4701195-0.3099213-0.7621975
				c0-0.2920799,0.1024017-0.5488605,0.3048782-0.7629738c0.2044144-0.2164402,0.4480057-0.3211708,0.7447433-0.3211708
				C91.7044525,18.3859539,91.9480438,18.4875813,92.1524658,18.6970406z"/>
			<path class="st13" d="M96.0518875,18.3809128c-0.2963486-0.3068199-0.6384583-0.4623623-1.0182037-0.4623623
				c-0.4235687,0-0.7893448,0.1477852-1.0876312,0.4386997c-0.2990646,0.2916908-0.4507294,0.6446686-0.4507294,1.0496216
				c0,0.3906021,0.1423569,0.7342701,0.4231873,1.0216942c0.2808304,0.2885876,0.6372986,0.4348221,1.0597076,0.4348221
				c0.2245865,0,0.4421921-0.0461597,0.6466064-0.1373119c0.1578674-0.0705967,0.3010025-0.1706715,0.427063-0.2982864
				c-0.0027161,0.2734604-0.03685,0.4767132-0.1016235,0.6047153c-0.0655518,0.1299419-0.1811447,0.2393265-0.3432846,0.3242741
				c-0.1652374,0.0864983-0.3626709,0.1303291-0.5864792,0.1303291c-0.4693451,0-0.7920685-0.169117-0.9863968-0.517828
				l-0.017067-0.0306435h-0.5123978l0.0321884,0.0818443c0.2404938,0.6054916,0.7447433,0.9126968,1.4991837,0.9126968
				c0.2207108,0,0.4262924-0.0329704,0.6105347-0.098135c0.1861877-0.0659409,0.3475494-0.1625233,0.4794312-0.287035
				c0.1326523-0.125288,0.235054-0.2835464,0.3048782-0.4705067c0.0698166-0.1877384,0.1039505-0.4705067,0.1039505-0.864212
				v-2.2210388h-0.4829178V18.3809128z M95.7741623,18.6795845c0.1951065,0.1943321,0.2936325,0.4390888,0.2936325,0.7272873
				c0,0.2978973-0.0950394,0.5337334-0.2901459,0.7210827c-0.193161,0.1850224-0.4460678,0.2785015-0.7517242,0.2785015
				c-0.3060379,0-0.5597153-0.0961952-0.7544403-0.2858715c-0.1970444-0.1920052-0.2928543-0.4185295-0.2928543-0.6927662
				c0-0.2711334,0.1024017-0.5151138,0.3048859-0.7257366c0.2013092-0.2098465,0.4584808-0.3161278,0.7633591-0.3161278
				C95.3389511,18.3859539,95.5767288,18.4817619,95.7741623,18.6795845z"/>
			<path class="st13" d="M99.5110626,19.9161682c-0.2261353,0.42939-0.5573959,0.6376858-1.012001,0.6376858
				c-0.2703552,0-0.5034714-0.0977478-0.6923752-0.2905273c-0.1784286-0.1811428-0.2788925-0.4208565-0.2994461-0.7125473h2.518158
				l-0.0011597-0.0608997c-0.0108643-0.4813671-0.1617508-0.8673134-0.4476242-1.1481438
				c-0.2862625-0.2808304-0.6442795-0.4231853-1.0643616-0.4231853c-0.4208603,0-0.7796555,0.1536045-1.0659103,0.4561558
				c-0.2850952,0.3021641-0.4301682,0.6687164-0.4301682,1.089962c0,0.4212437,0.1439056,0.7870216,0.4274521,1.0872459
				c0.2847061,0.3010006,0.6504822,0.4538269,1.0872421,0.4538269c0.6113129,0,1.0791016-0.294405,1.3909683-0.8750725
				l0.0287018-0.0535278l-0.4119339-0.2129498L99.5110626,19.9161682z M97.5623169,19.120224
				c0.162529-0.4937801,0.4747772-0.7342701,0.952652-0.7342701c0.2416534,0,0.4580917,0.0717602,0.6435013,0.2141151
				c0.1664047,0.1276131,0.2777328,0.3025513,0.3316422,0.520155H97.5623169z"/>
		</g>
		<g>
			<g>
				<g>
					<g>
						<g>
							<polygon class="st13" points="59.8695145,12.9205275 65.2362061,12.9205275 65.2362061,11.5492439 61.2515106,11.5492439 
								61.2515106,8.74716 65.2362061,8.74716 65.2362061,7.3877797 61.2515106,7.3877797 61.2515106,5.271337 65.2713242,5.271337 
								65.2713242,3.9000533 59.8695145,3.9000533 							"/>
							<path class="st13" d="M70.7134552,7.959589c0.519043-0.4292665,0.7812424-1.001225,0.7812424-1.705174
								c0-0.749135-0.2639847-1.3365521-0.7842102-1.7444143c-0.5065613-0.3983498-1.2455902-0.6004972-2.197464-0.6004972
								h-1.9424057v9.0110245h2.6035461c0.8858795,0,1.6165848-0.2568464,2.172493-0.7622147
								c0.5606613-0.5101252,0.8448563-1.1617537,0.8448563-1.9358606c0-0.5576887-0.1533966-1.0464106-0.4554291-1.4542732
								C71.491127,8.4364195,71.1480713,8.1653042,70.7134552,7.959589z M70.0903702,6.254415
								c0,0.4161863-0.1444778,0.7098947-0.4399719,0.896584c-0.3204651,0.2009583-0.8222656,0.302032-1.4917297,0.302032
								h-0.2193909V5.2674594h0.7152481C69.9411316,5.2674594,70.0903702,5.8310943,70.0903702,6.254415z M70.7752914,10.2807188
								c0,0.2140379-0.0731277,0.4304552-0.2170105,0.6421156c-0.1474533,0.2176056-0.3377075,0.3733788-0.5820694,0.4780197
								c-0.2520905,0.1070194-0.6730347,0.1617174-1.2509384,0.1617174h-0.7859955V8.8347692h0.2074966
								c0.7140579,0,1.208725,0.0344839,1.4703293,0.104641c0.2556534,0.0689678,0.4720764,0.1712303,0.643898,0.30441
								c0.170639,0.1331797,0.3008423,0.2853851,0.3858643,0.4530487
								C70.7318878,9.8633432,70.7752914,10.0595455,70.7752914,10.2807188z"/>
							<path class="st13" d="M77.8692856,9.0588226c-0.3105469-0.4348822-0.8039093-0.901557-1.4653091-1.3875346
								c-0.6358643-0.4666748-1.0457611-0.8050423-1.2172165-1.0048833
								c-0.1538544-0.1794033-0.2287979-0.3837862-0.2287979-0.6256394c0-0.23277,0.0760803-0.41785,0.2333374-0.5654602
								c0.1595306-0.1510162,0.352562-0.2236857,0.5904388-0.2236857c0.2481003,0,0.4581604,0.0590439,0.6421051,0.1794028
								c0.1924591,0.1271715,0.4360199,0.3883281,0.7232895,0.7766557l0.1067352,0.1430683l1.0503006-0.8209391
								l-0.0959473-0.1362553c-0.3406372-0.4791646-0.6966019-0.8493252-1.0593872-1.0979915
								c-0.3747025-0.2554789-0.8175278-0.3860569-1.3165665-0.3860569c-0.6466446,0-1.1831512,0.2089248-1.5947571,0.6210976
								c-0.4116058,0.411037-0.6205292,0.9208593-0.6205292,1.5158415c0,0.2759171,0.052803,0.5552406,0.1578293,0.8300223
								c0.1055984,0.2759175,0.2759171,0.538209,0.504715,0.7789268c0.2219849,0.2339053,0.6142807,0.5631886,1.1996155,1.0071545
								c0.555809,0.4189854,0.9515152,0.7766562,1.1746368,1.061657c0.2077866,0.2634268,0.3128204,0.5438862,0.3128204,0.8334284
								c0,0.2815952-0.1175232,0.523448-0.359375,0.7380505c-0.2469635,0.2214155-0.5370789,0.3281488-0.8873672,0.3281488
								c-0.5370712,0-1.0395126-0.4280691-1.4925613-1.2728529l-0.0851593-0.1578293l-1.122406,0.6460781l0.0749435,0.1476097
								c0.6534576,1.2830715,1.5743179,1.933691,2.7375946,1.933691c0.6676559,0,1.2603607-0.2418528,1.761673-0.719882
								c0.5035706-0.4791651,0.7584839-1.0548449,0.7584839-1.7100058
								C78.3524246,9.9887657,78.1900558,9.5073299,77.8692856,9.0588226z"/>
							<path class="st13" d="M57.4107437,6.5493202c-0.3932343-0.2498736-0.8371353-0.3765378-1.3190346-0.3765378
								c-0.7576828,0-1.4353371,0.2798123-2.0191422,0.8302259V6.1727824l-1.3023376-0.0016747v6.7494197h1.3023376v-2.4872236
								c0-0.8048925,0.0345459-1.343791,0.1030579-1.6017256c0.0662117-0.2498741,0.1882706-0.4905357,0.3627205-0.7139254
								c0.1744499-0.2222381,0.3857498-0.3984165,0.6275635-0.5227776c0.4893837-0.2521768,1.0386467-0.2222381,1.3760338-0.0759983
								c0.1669655,0.0725436,0.2999649,0.1784811,0.4076271,0.3258719c0.1116943,0.1519971,0.1986351,0.3431449,0.2579346,0.5688376
								c0.0604553,0.2326012,0.0915451,0.689744,0.0915451,1.3564577v3.1504831h1.2913971V9.5408974
								c0-0.8797398-0.0949974-1.5176668-0.2901764-1.9529309C58.1039429,7.1503992,57.804554,6.8003454,57.4107437,6.5493202z"/>
							<path class="st13" d="M34.2805557,4.4927645c-0.6994438-0.3928699-1.4755325-0.5927112-2.3072586-0.5927112
								c-0.7942562,0-1.5464993,0.2021124-2.235157,0.5995238c-0.6897926,0.3974118-1.2410583,0.9526525-1.6379032,1.6486907
								c-0.396843,0.6960378-0.5978203,1.461339-0.5978203,2.2743301c0,0.814126,0.2009773,1.5748854,0.5983887,2.2641106
								c0.396843,0.6880894,0.9537868,1.2376528,1.6555023,1.6327934c0.7000122,0.3917341,1.4664497,0.5915756,2.2788715,0.5915756
								c0.8118553,0,1.5754547-0.2009764,2.2692223-0.5983877c0.6926308-0.3974123,1.2456017-0.9503822,1.6435776-1.6441488
								c0.3968468-0.6926317,0.5978241-1.4556618,0.5978241-2.2686529c0-0.8118548-0.2032509-1.5760207-0.6040688-2.2697878
								C35.5397835,5.4363332,34.9811363,4.8856339,34.2805557,4.4927645z M35.1934662,8.4282751
								c0,0.9095049-0.3105469,1.6759415-0.92313,2.2777357c-0.6148529,0.6029301-1.3761787,0.9083691-2.2635422,0.9083691
								c-0.857275,0-1.6049767-0.3122511-2.2220993-0.9299431c-0.6171227-0.6165552-0.9305115-1.3818569-0.9305115-2.2731943
								c0-0.8924727,0.3043041-1.6589093,0.9043961-2.2800069c0.6057682-0.629046,1.341547-0.9333496,2.2482147-0.9333496
								c0.8726006,0,1.6299553,0.312252,2.2510529,0.9299431S35.1934662,7.5187697,35.1934662,8.4282751z"/>
							<path class="st13" d="M40.9572411,6.1727824c-0.7867126,0-1.4744568,0.2750969-2.0498123,0.8163452V6.1727824h-1.2535934
								v8.6968746h1.2535934v-2.7889938c0.6212082,0.5613775,1.327961,0.8454208,2.1057243,0.8454208
								c0.9035721,0,1.6852493-0.3354845,2.32267-0.9963894c0.635746-0.6597862,0.9583702-1.4627123,0.9583702-2.385294
								c0-0.924819-0.3265381-1.7255087-0.9706688-2.3808217C42.6782761,6.5071483,41.882618,6.1727824,40.9572411,6.1727824z
								 M39.4537086,8.025775c0.403141-0.4171195,0.8873596-0.6195283,1.4817238-0.6195283
								c0.594368,0,1.0824966,0.2057638,1.4923477,0.6307111c0.4120865,0.4260654,0.6128197,0.9259367,0.6128197,1.529809
								c0,0.6027536-0.2040863,1.1015072-0.6228828,1.5275726c-0.4176788,0.4260654-0.8951874,0.6318293-1.4604759,0.6318293
								c-0.587101,0-1.0741119-0.2024097-1.4884338-0.6206465c-0.4148827-0.4182377-0.6167336-0.921464-0.6167336-1.5387554
								C38.8520737,8.9472389,39.048893,8.442894,39.4537086,8.025775z"/>
							<path class="st13" d="M51.785656,9.6815767c-0.0229111-1.0774107-0.3498268-1.9401927-0.9712296-2.5649629
								c-0.623085-0.6270013-1.4071083-0.9455476-2.3308372-0.9455476c-0.9254036,0-1.7122231,0.3364964-2.3392181,0.9981375
								c-0.6241989,0.6582451-0.9404907,1.4596081-0.9404907,2.3827419c0,0.9209995,0.3146172,1.7211981,0.935463,2.3772106
								c0.623085,0.6571779,1.4233131,0.9913464,2.3777733,0.9913464c0.6901436,0,1.2931137-0.1642704,1.7915764-0.488348
								c0.4962311-0.3219414,0.9304352-0.8226118,1.2897568-1.4887161c-0.4849014,0-0.9698029,0-1.4547081,0
								c-0.1220665,0.1501045-0.3501778,0.389184-0.7083702,0.5646124
								c-0.0887718,0.0434685-0.4661942,0.2132692-0.9847488,0.2132692c-0.5280876,0-0.9701157-0.181056-1.3506699-0.5554905
								c-0.3447914-0.3386316-0.5437317-0.7677908-0.6051979-1.3087282h5.2948112L51.785656,9.6815767z M46.6601639,8.7025595
								c0.3369675-0.8728757,0.935463-1.298696,1.8234253-1.298696c0.4710846,0,0.892437,0.1341166,1.2528725,0.3989968
								c0.3067932,0.2246456,0.5152321,0.5208197,0.6342621,0.8996992H46.6601639z"/>
						</g>
					</g>
				</g>
			</g>
		</g>
	</g>
	<g>
		<g>
			<g>
				<g>
					<g>
						<path class="st13" d="M4.2514853,8.9191628v11.7332287c0,0.2988911,0.1597409,0.5291691,0.4188585,0.6781445
							l5.7291245,3.3613625c0.2577791,0.1482067,0.5749102,0.1763687,0.8326893,0.0281601l5.7279959-3.3793125
							c0.2598171-0.1493778,0.4199867-0.3886566,0.4199867-0.6883545V8.908802L10.8158131,12.81633L4.2514853,8.9191628z"/>
						<path class="st13" d="M2.3111053,19.4250755V8.098752c0-0.1731129,0.0436947-0.39184,0.382189-0.5593767l7.8840199-4.6923532
							c0.1478434-0.0842314,0.329154-0.0842309,0.4769974,0.0000012l8.0312767,4.7791944
							c0.1504135,0.0856957,0.2378139,0.141819,0.2348309,0.3389087l-0.000021,11.4599495
							c0,0.2376995,0.2624035,0.3496647,0.4703007,0.2344265l1.6143627-0.9587364
							c0.1531754-0.0849056,0.2264633-0.212841,0.2264633-0.3879757V6.5891113c0-0.2065659-0.0690651-0.2772722-0.2175217-0.3634973
							L11.0570707,0.0651736c-0.14923-0.0866751-0.3334217-0.0869125-0.4828749-0.0006224L0.2369366,6.2194462
							C0.0878754,6.30551,0,6.4523211,0,6.624444v11.6883459c0,0.168911,0.0712009,0.2949429,0.2158771,0.3821182
							l1.6302001,0.9678307C2.0541039,19.7880878,2.3111053,19.6679497,2.3111053,19.4250755z"/>
					</g>
				</g>
				<polygon class="st4" points="15.4940815,7.8193774 10.8157797,5.0420117 10.8157797,5.0419145 10.8157797,5.0420117 
					10.8157797,5.0419145 10.8157797,5.0420117 6.1374784,7.8193774 10.8157797,10.5967436 10.8157797,10.5967436 
					10.8157797,10.5967436 				"/>
			</g>
		</g>
	</g>
</g>
</svg>
