<?xml version="1.0" encoding="UTF-8"?>
<svg width="22px" height="26px" viewBox="0 0 22 26" version="1.1" xmlns="http://www.w3.org/2000/svg" xmlns:xlink="http://www.w3.org/1999/xlink">
    <!-- Generator: Sketch 58 (84663) - https://sketch.com -->
    <title>disks</title>
    <desc>Created with Sketch.</desc>
    <g id="Cluster-Overview" stroke="none" stroke-width="1" fill="none" fill-rule="evenodd">
        <g id="02-Overview-Mix-content-pools-on-hover" transform="translate(-305.000000, -233.000000)" fill="#FFFFFF" fill-rule="nonzero">
            <g id="card" transform="translate(276.000000, 203.000000)">
                <g id="Icon-/-Active-/-Application" transform="translate(29.000000, 30.000000)">
                    <g id="disks" transform="translate(0.920000, 0.760000)">
                        <path d="M20.8296,5.04 C20.8296,6.77951605 19.444909,8.27004332 17.1196806,9.30677556 C14.8820585,10.2185045 12.4822828,10.6652712 10.093528,10.6198729 C7.67771723,10.6652712 5.27794154,10.2185045 3.01673388,9.29667185 C0.709378939,8.25919211 -0.6696,6.77700933 -0.6696,5.04 C-0.6696,1.80184002 4.19467358,-0.5688 10.08,-0.5688 C15.9808262,-0.5688 20.8296,1.78707422 20.8296,5.04 Z M19.3896,5.04 C19.3896,2.86544299 15.2851223,0.8712 10.08,0.8712 C4.89008573,0.8712 0.7704,2.87895958 0.7704,5.04 C0.7704,6.0886913 1.76059046,7.15298838 3.58368062,7.97322444 C5.64033859,8.81121873 7.84603618,9.22185392 10.093528,9.1801271 C12.3139638,9.22185392 14.5196614,8.81121873 16.5547027,7.98244642 C18.3956412,7.1613084 19.3896,6.09137822 19.3896,5.04 Z" id="Path"></path>
                        <path d="M19.3896,5.04 L20.8296,5.04 L20.8296,12.24 C20.8296,13.980533 19.4414444,15.4793868 17.1290256,16.5058976 C14.8906842,17.426332 12.4881955,17.8807879 10.0913944,17.8415098 C7.67403322,17.8797708 5.27420454,17.4253349 3.01584801,16.4962728 C0.714391036,15.4577092 -0.6624,13.9755179 -0.6624,12.24 L-0.6624,5.04 L0.7776,5.04 C0.7776,6.09137822 1.77155881,7.1613084 3.59086738,7.97321905 C5.64538317,8.81029293 7.84864045,9.22091063 10.093528,9.1801271 C12.3139638,9.22185392 14.5196614,8.81121873 16.54882,7.98510205 C18.4071529,7.1361514 19.3896,6.08330603 19.3896,5.04 Z M19.1855293,8.05924247 C18.6246158,8.51893762 17.9305813,8.93656528 17.1196806,9.30677556 C14.8820585,10.2185045 12.4822828,10.6652712 10.0932378,10.6198783 C7.67994477,10.6642562 5.28282411,10.2175085 3.02590272,9.29755358 C2.12748931,8.89682242 1.36884524,8.42566561 0.7776,7.8967793 L0.7776,12.24 C0.7776,13.2880228 1.76654598,14.3526775 3.58581367,15.1740975 C5.64099836,16.0191728 7.84674465,16.4368569 10.0916865,16.4016948 C12.3158642,16.4378007 14.5240554,16.0200982 16.5630007,15.1819578 C18.3931627,14.3692866 19.3896,13.2933885 19.3896,12.24 L19.3896,7.88489533 L19.1855293,8.05924247 Z M0.618679646,7.74934225 C-0.205993657,6.95529794 -0.6624,6.03868342 -0.6624,5.04 C-0.6624,4.08 0.7776,4.08 0.7776,5.04 L0.7776,7.8967793 L0.618679646,7.74934225 Z M19.3896,5.04 C19.3896,4.08 20.8296,4.08 20.8296,5.04 C20.8296,6.03532624 20.3780672,6.94255994 19.5493804,7.73722147 L19.3896,7.88489533 L19.3896,5.04 Z" id="Path"></path>
                        <path d="M19.3896,12.24 L20.8296,12.24 L20.8296,19.44 C20.8296,22.67816 15.9653264,25.0488 10.08,25.0488 C4.17398535,25.0488 -0.6696,22.6978481 -0.6696,19.44 L-0.6696,12.24 L0.7704,12.24 C0.7704,13.2933885 1.76683734,14.3692866 3.57862555,15.1741024 C5.63594456,16.0200982 7.84413579,16.4378007 10.0913944,16.4016902 C12.3132568,16.4368569 14.5190074,16.0191722 16.5547027,15.1824464 C18.3956412,14.3613084 19.3896,13.2913782 19.3896,12.24 Z M19.185101,15.2698213 C18.6231641,15.7310062 17.9291578,16.1459109 17.1218142,16.5059022 C14.8858017,17.4253343 12.4859684,17.8797708 10.0916865,17.8415052 C7.67180455,17.8807879 5.26931581,17.426332 3.01260074,16.4980422 C2.11785603,16.1007368 1.36091779,15.6303823 0.7704,15.1011305 L0.7704,19.44 C0.7704,21.6190622 4.86978829,23.6088 10.08,23.6088 C15.2699143,23.6088 19.3896,21.6010404 19.3896,19.44 L19.3896,15.0947244 L19.185101,15.2698213 Z M0.611673981,14.9535811 C-0.212092424,14.1587931 -0.6696,13.2392228 -0.6696,12.24 C-0.6696,11.28 0.7704,11.28 0.7704,12.24 L0.7704,15.1011305 L0.611673981,14.9535811 Z M19.3896,12.24 C19.3896,11.28 20.8296,11.28 20.8296,12.24 C20.8296,13.237098 20.3746416,14.1523874 19.5487759,14.9471319 L19.3896,15.0947244 L19.3896,12.24 Z" id="Path"></path>
                    </g>
                </g>
            </g>
        </g>
    </g>
</svg>