<?xml version="1.0" encoding="UTF-8"?>
<svg width="14px" height="24px" viewBox="0 0 14 24" version="1.1" xmlns="http://www.w3.org/2000/svg" xmlns:xlink="http://www.w3.org/1999/xlink">
    <!-- Generator: Sketch 58 (84663) - https://sketch.com -->
    <title>openebs-icon-white</title>
    <desc>Created with Sketch.</desc>
    <g id="Cluster-Overview" stroke="none" stroke-width="1" fill="none" fill-rule="evenodd">
        <g id="02-Overview-Mix-content-pools-on-hover" transform="translate(-682.000000, -148.000000)">
            <g id="card" transform="translate(649.000000, 117.000000)">
                <g id="openebs-icon-white" transform="translate(33.000000, 31.000000)">
                    <path d="M2.19663493,14.3439278 C2.26131389,14.6434091 2.43749049,14.874931 2.65103032,15.0805964 C3.32679769,15.731446 4.15584069,15.9810052 5.07258744,15.9896334 C5.36550098,16.0079803 5.63759641,15.8378212 5.74931758,15.5664297 C5.87253904,15.3172171 5.93637108,15.0428533 5.93581438,14.7648422 C5.93223843,14.4904027 5.88720577,14.2180794 5.80223862,13.9570997 C5.58098213,13.1942082 5.12888991,12.6176922 4.41627527,12.2543716 C4.26427225,12.1733635 4.09328272,12.1347193 3.92121614,12.1424867 C3.66195256,12.1630669 3.41354229,12.2554396 3.20382225,12.4092533 C2.72828623,12.7398072 2.38136994,13.224318 2.2216385,13.7809923 C2.16418665,13.9632165 2.15556492,14.1573277 2.19663493,14.3439278 L2.19663493,14.3439278 Z M3.42495839,14.6266783 C3.45921931,14.3131116 3.62016647,14.0271765 3.87045993,13.8352103 C4.12075339,13.643244 4.43863879,13.5619315 4.75036634,13.6101372 C4.84894301,13.6244837 4.93005007,13.6950968 4.95783147,13.7907597 C4.98536174,13.8803962 4.95174215,13.9775448 4.87469602,14.0309914 C4.85604726,14.0475707 4.83865037,14.0656427 4.82141464,14.0837298 C4.6823004,14.2297522 4.6681238,14.391941 4.7814121,14.5385118 C4.91438732,14.7105545 5.07650006,14.7483963 5.25807424,14.6485584 C5.2907336,14.6306027 5.32093072,14.6081796 5.3523638,14.5879656 C5.50980519,14.486714 5.65314536,14.5450063 5.68085879,14.7334617 C5.7248202,15.0027344 5.64743251,15.2776628 5.46946375,15.4844659 C5.26974496,15.7446871 4.95661895,15.8923976 4.62878732,15.8810372 C4.42501625,15.8651239 4.22867965,15.871312 4.04417014,15.7812373 C3.62068798,15.5596225 3.37528587,15.1020549 3.42495839,14.6266783 Z" id="Shape"></path>
                    <path d="M7.89913452,15.9711444 C8.0208203,15.9838756 8.14341119,15.9855239 8.26539527,15.9760689 C8.43609734,15.9746137 8.60659266,15.9638401 8.77612012,15.9437962 C9.49369242,15.8329219 10.1526615,15.4825809 10.645891,14.9497321 C10.9474209,14.6497175 11.0614151,14.2091835 10.943253,13.8005678 C10.7681139,13.1358301 10.363635,12.6454119 9.77557072,12.3006764 C9.59999989,12.1967401 9.39736601,12.1476635 9.19369522,12.1597501 C8.83534859,12.1801894 8.49615171,12.3282129 8.23747228,12.5770402 C7.78035942,13.0060834 7.45593295,13.5572632 7.30269441,14.165168 C7.16864081,14.6437381 7.21728295,15.1550537 7.43916934,15.5997628 C7.5182987,15.7945114 7.69208467,15.9348284 7.89913452,15.9711444 Z M7.77445418,13.928032 C8.03639293,13.6678066 8.40838138,13.5509769 8.7720664,13.6147138 C8.86053047,13.621332 8.9371624,13.6785706 8.9686127,13.7615198 C9.000063,13.844469 8.9806432,13.9381257 8.91880461,14.0017314 C8.88545153,14.0428745 8.84586813,14.0789187 8.81175769,14.1194981 C8.70946002,14.2290843 8.70052059,14.3962693 8.79054916,14.5161393 C8.86646599,14.6550693 9.02581567,14.7261955 9.17992738,14.6899394 C9.2538202,14.6656249 9.32498774,14.6337013 9.3922845,14.5946822 C9.59517441,14.494753 9.74915343,14.5905213 9.75157764,14.8164692 C9.75729268,15.3490471 9.25500311,15.8650831 8.72138697,15.8746133 C8.67454063,15.8754432 8.62766179,15.8747205 8.56268265,15.8747205 C8.26919101,15.8691133 7.97921291,15.8043866 7.75671147,15.5641923 C7.59766833,15.3813442 7.50145304,15.1523128 7.4821985,14.9107401 C7.4367396,14.5434363 7.48645695,14.1937522 7.77445418,13.92803 L7.77445418,13.928032 Z" id="Shape"></path>
                    <path d="M8.91508427,7.25815885 C8.93590271,7.32735839 8.95680207,7.39655654 8.97572542,7.46627412 C9.05735447,7.7665985 9.12857844,8.1236113 9.03791516,8.49480899 L9.01381418,8.59349602 C9.07771584,8.85255706 9.17128517,9.10338299 9.2926672,9.34100127 C9.40361153,9.54834813 9.47163942,9.55884173 9.64820818,9.40862594 C9.96087078,9.14261602 10.2051562,8.81873983 10.4365065,8.48469718 C11.01922,7.64027347 11.4978292,6.72857134 11.8619405,5.76938974 C12.1734499,4.96410871 12.383075,4.12304609 12.4859405,3.265763 C12.5568777,2.76756703 12.4776507,2.25953407 12.2583852,1.80659481 C11.9539055,1.19826882 11.3047435,0.96274098 10.7794658,1.02477994 C10.5249877,1.05483182 10.3180662,1.19240922 10.1330614,1.36194605 C9.81184599,1.65631954 9.61999331,2.03445095 9.45144761,2.42696784 C9.19566787,3.04572346 9.02458219,3.69617445 8.94282467,4.36070248 C8.88902179,4.75024115 8.84354075,5.14052265 8.82621994,5.53407769 C8.81470409,5.79576484 8.78257729,6.05752738 8.79539343,6.31903677 C8.80545752,6.52445879 8.80182571,6.73062847 8.82435942,6.93576553 C8.83268666,6.98845335 8.83543476,7.04187241 8.83255816,7.0951366 L8.8638204,7.09442697 L8.91508427,7.25815885 Z" id="Path"></path>
                    <path d="M4.26403228,8.19108726 L4.24940957,8.04860196 C4.24270063,7.98765925 4.23616323,7.92671723 4.2322928,7.865603 C4.21392959,7.46995237 4.26095196,7.07398207 4.37146651,6.69363597 L4.41111977,6.54680715 L4.43403735,6.56966594 L4.43432784,6.56731435 C4.45407854,6.37786663 4.45396681,6.18687301 4.43399447,5.99744853 C4.41728092,5.83602882 4.42477487,5.67355228 4.41439401,5.51131366 C4.37911271,4.95050712 4.31034945,4.39231011 4.20847193,3.83970744 C4.09926116,3.22683524 3.90289191,2.6327493 3.62533764,2.07552138 C3.47039681,1.74996983 3.24326918,1.46403028 2.96122236,1.23944161 C2.71325273,1.046294 2.39374873,0.970085458 2.08529568,1.03051435 C1.50267251,1.12742732 1.09695147,1.44789026 0.891696138,2.013923 C0.775632526,2.32155803 0.721288384,2.6490384 0.731765533,2.97767239 C0.752734785,3.36443476 0.806926141,3.74867738 0.893740634,4.12615331 C1.06164826,4.90874986 1.31119862,5.67157095 1.63829395,6.40209061 C2.02130166,7.2720764 2.50295472,8.09519816 3.07378651,8.85527793 C3.23504787,9.07036929 3.42033356,9.26635083 3.62604588,9.43941718 C3.75810744,9.54887239 3.8315004,9.54037349 3.9175698,9.39140473 C4.07885538,9.09443982 4.1946197,8.77493303 4.26098836,8.44357764 C4.27316473,8.39057568 4.28282006,8.33692634 4.29406686,8.28365256 C4.28637902,8.25361729 4.27915182,8.22338813 4.27238524,8.19296507 L4.26403228,8.19108726 Z" id="Path"></path>
                    <path d="M7.44481452,23.1548424 C8.07231193,23.00435 8.62826553,22.64105 9.01804496,22.1267806 L9.04264599,22.0959866 C8.8964189,22.1977439 8.75561429,22.2886624 8.6171253,22.3708074 C7.80788749,22.8507763 6.94893303,22.994853 6.06443135,22.7996825 C5.52106859,22.6796908 4.96437372,22.4590596 4.31641591,22.1065667 C4.72722451,22.5349755 5.23391621,22.8596802 5.79477164,23.0539456 C6.32247198,23.2511155 6.89702244,23.2862481 7.44481452,23.1548424 L7.44481452,23.1548424 Z" id="Path" fill="#FFFFFF" fill-rule="nonzero"></path>
                    <path d="M2.45582248,9.78642951 C2.53078548,9.91883965 2.51976484,9.96815378 2.41791631,10.0652175 C1.88010832,10.5697068 1.48817576,11.2097921 1.28333464,11.9181614 C1.12394144,12.4663622 1.14996657,13.0227776 1.19947435,13.5813482 C1.24383723,14.0818905 1.28547597,14.5826716 1.32439055,15.0836915 C1.34967424,15.4103474 1.35371135,15.7391972 1.39171988,16.0642029 C1.46319908,16.6753833 1.50529867,17.2885425 1.54731735,17.9019486 C1.57653579,18.3285123 1.60293164,18.7556023 1.71035481,19.1720535 C1.85403942,19.7290603 2.07786882,20.2574027 2.29312876,20.7886098 C2.37339251,20.9866776 2.45862847,21.1834603 2.54726248,21.390581 L2.56994836,21.3628731 C2.60519913,21.3088835 2.62495491,21.2462542 2.62706282,21.18181 C2.63033153,21.1583274 2.63368599,21.1349312 2.63790086,21.1119652 C2.75914991,20.4877113 3.00729845,19.8950058 3.36697107,19.3705729 C3.67031531,18.9186134 4.02522431,18.5034899 4.42453695,18.1335783 C4.74469983,17.8251113 5.11463211,17.5728968 5.51874536,17.3875629 C5.90618054,17.2160246 6.33195802,17.1495417 6.75324519,17.1948021 C7.26161534,17.2526189 7.75074396,17.4228604 8.18515297,17.6931783 C8.77313762,18.0413645 9.29560488,18.4898299 9.72888069,19.0182536 C10.1009429,19.4572281 10.4030042,19.9510119 10.6243919,20.4821582 C10.6268002,20.4883511 10.629037,20.4948885 10.6311009,20.5016832 L10.6375573,20.5020436 C10.8791544,19.919641 11.0912535,19.3270506 11.2029399,18.704326 C11.311422,18.0994409 11.4028081,17.4914912 11.5021674,16.88496 C11.6000051,16.2877307 11.7010305,15.6910541 11.7849178,15.0915666 C11.8774762,14.4300505 11.963309,13.7676874 12.0424164,13.1044772 C12.0987624,12.6345344 12.1214711,12.1661671 12.0311537,11.6967769 C11.8899693,10.9629918 11.5694255,10.3365054 10.9675781,9.87197118 C10.8438384,9.77646156 10.8342211,9.71367009 10.9165971,9.5748996 C11.3293989,8.86972914 11.6981346,8.13967137 12.020687,7.38891804 C12.5336535,6.21506213 12.9849676,5.02024461 13.1443767,3.73757533 C13.22488,3.18329176 13.2158194,2.61967484 13.117541,2.06826536 C12.9175975,1.05552553 12.1417072,0.263093256 11.1525621,0.085507781 C10.5779454,-0.0176576369 10.0675573,0.121736715 9.65395504,0.550601499 C9.34235955,0.880785349 9.09847498,1.26882048 8.93608254,1.69278017 C8.43970029,2.93629971 8.21618352,4.24009176 8.09251919,5.56492496 C8.04594744,6.06386559 8.00639101,6.56346744 7.96433983,7.06283274 L7.96830709,7.06131112 L7.99394006,7.07924542 L7.99781326,7.07756818 C8.00796311,7.07343908 8.0180272,7.06944 8.0280913,7.06642928 C8.12337692,7.03635212 8.22225037,7.01912594 8.32209337,7.01520692 L8.44896692,7.01159378 L8.40793729,7.1317155 C8.38824646,7.1868851 8.36245375,7.23968218 8.33103908,7.28912438 C8.27254576,7.38671748 8.23063277,7.49333088 8.20700403,7.60463032 C8.17782378,7.72425571 8.1803141,7.84941973 8.21422963,7.96778974 C8.21654043,7.97618813 8.21989231,7.98426461 8.22420726,7.99183124 C8.22644334,7.99045487 8.23599147,7.98912138 8.2527645,7.98331573 C8.28026869,7.97271784 8.30547238,7.95691795 8.32699643,7.93678063 C8.41044673,7.86180286 8.47048037,7.76433037 8.49988841,7.65606778 C8.55833455,7.42487037 8.58293145,7.1864169 8.57291066,6.948157 L8.57695331,6.37185061 L8.74485648,6.87968853 C8.75904899,6.92248184 8.7769404,6.96699458 8.79517556,7.01253994 C8.79706305,7.01724311 8.79890144,7.02208807 8.80078824,7.02681337 C8.79677671,6.83678801 8.78089176,6.64721983 8.77258582,6.45735562 C8.76426398,6.26709441 8.77518778,6.07728899 8.78249914,5.88715643 C8.8178732,4.96724888 8.91363458,4.05522744 9.16399608,3.16666167 C9.32615723,2.59112922 9.54171873,2.03474075 9.91409222,1.55736346 C10.1166702,1.29767101 10.366477,1.08466859 10.700272,1.0156302 C11.1351901,0.925673775 11.5297072,1.04940726 11.8783567,1.30580473 C12.205384,1.54630548 12.3656957,1.89902663 12.4591788,2.28289176 C12.5448656,2.67617423 12.553301,3.08236145 12.4840157,3.47886225 C12.3512561,4.38832324 12.1035248,5.27724023 11.7467682,6.12427573 C11.3533142,7.08379766 10.8414288,7.99035855 10.2230234,8.82286271 C10.0519941,9.0538881 9.85608051,9.2654072 9.63881429,9.45360692 C9.48520599,9.5843834 9.39552415,9.57363112 9.2961434,9.39918017 C9.1562754,9.14273657 9.05191928,8.86846869 8.98594167,8.58391055 L8.97107689,8.57759931 C8.96522767,8.58929775 8.95955066,8.60349026 8.95292749,8.6204355 C8.94175626,8.65166132 8.92734153,8.68162967 8.90991977,8.70984899 C8.89302058,8.73136143 8.89377867,8.76184366 8.91172634,8.78248945 C9.088403,9.08057706 9.08676865,9.3973736 9.06190963,9.66798017 C9.03541551,9.89498205 8.98584339,10.1186908 8.91396242,10.3356353 L9.08633844,10.7999488 L8.75792991,10.4069422 C8.73991862,10.3852862 8.73169578,10.35713 8.73522121,10.3291843 C8.72193572,10.1482483 8.68737725,9.9695078 8.63226052,9.7966596 C8.60508733,9.71394628 8.56423664,9.63637502 8.51140772,9.56717256 C8.51563902,9.83678439 8.47723231,10.1053708 8.39760899,10.3629918 C8.32860829,10.5919499 8.2470555,10.8169359 8.15332081,11.0369284 L8.11237556,11.1382541 L8.03634813,11.1114654 C8.02575216,11.1339797 8.01519908,11.1565107 8.0044468,11.1789877 C8.00738767,11.1539896 8.01122075,11.1289535 8.01495977,11.1039278 L7.94636749,11.0797632 C8.01913729,10.8405531 7.99539666,10.5757957 7.87179182,10.2465268 C7.74170302,9.91713643 7.54031007,9.62062813 7.28206686,9.37828219 C7.30117218,9.54670827 7.29975687,9.71683106 7.27785199,9.88491597 C7.21807124,10.2712994 7.05851135,10.640566 6.77569107,11.0470769 C6.7562239,11.0810862 6.72608013,11.1077229 6.6899336,11.1228567 L6.54654501,11.1792837 L6.57071516,11.0270352 C6.58281343,10.9672249 6.58752232,10.9061554 6.58473614,10.8451975 C6.54078486,10.4625108 6.43553131,10.0893916 6.2730128,9.7401517 C6.27150734,9.73663543 6.26978363,9.73321666 6.26785176,9.72991539 C6.2619859,9.7320602 6.25631639,9.73470798 6.25090651,9.73782916 C6.19147499,9.7733119 6.1428275,9.82430855 6.1101849,9.88534617 C6.04562515,9.99989855 6.00029492,10.1242661 5.976,10.2534944 C5.92797615,10.4913845 5.89622004,10.7322709 5.88095239,10.9744793 C5.86744807,11.1584673 5.86753452,11.3368648 5.86951262,11.4871345 L5.87054455,11.5678174 L5.85200853,11.5697201 L5.85222363,11.5703979 L5.80044795,11.575532 C5.79995274,11.6297056 5.79942571,11.6838829 5.79886686,11.7380639 C5.77908588,11.6859603 5.76171873,11.6335172 5.7437796,11.581155 L5.6518928,11.5902674 L5.62978651,11.5223149 C5.47338811,11.0454464 5.39100222,10.5474239 5.38549833,10.0455935 C5.31199129,10.2517904 5.28046468,10.470606 5.29277326,10.689167 L5.30060058,10.8405552 L5.33277026,11.1810916 L5.31617084,11.1404922 L5.31857914,11.1859947 L5.08263769,10.6326543 C5.05201591,10.561949 5.02139412,10.491158 4.99283689,10.4195931 C4.88201616,10.1474574 4.8054765,9.86259359 4.76498075,9.57156242 C4.74419538,9.44841312 4.7487908,9.32231553 4.77848507,9.20100588 C4.78056227,9.19484688 4.78169352,9.18840851 4.78184023,9.18191032 C4.78132357,9.18182455 4.77814133,9.17838294 4.77031401,9.17330905 C4.6633727,9.10252976 4.5773783,9.00435643 4.52129775,8.88902594 C4.43140155,8.71358376 4.35980793,8.52935197 4.30764934,8.33924473 C4.24374638,8.71184566 4.11947853,9.07152417 3.93974317,9.40410536 C3.84158801,9.57883573 3.75295954,9.58533579 3.59793337,9.45082305 C3.19009937,9.09695378 2.88041568,8.66382017 2.59148818,8.21360784 C1.98685169,7.28446808 1.50657551,6.28010297 1.16292519,5.22616254 C0.975992676,4.65864989 0.840128273,4.07557339 0.7569517,3.48388427 C0.723270338,3.26849509 0.706562337,3.05079271 0.706981902,2.8327864 C0.710908819,2.4382788 0.814269164,2.05113329 1.00750063,1.70716634 C1.23118478,1.31741741 1.58610813,1.10454432 2.01721452,1.01465222 C2.6178045,0.889418559 3.04584622,1.17263654 3.38020081,1.6287147 C3.73319931,2.11023147 3.93620196,2.66469579 4.09534271,3.2347781 C4.22165872,3.70971586 4.31091817,4.19374214 4.36231677,4.68249545 C4.41228173,5.10655885 4.44356957,5.53128415 4.45995597,5.95818674 C4.4673102,6.14973303 4.46465429,6.34042997 4.46082121,6.53121268 C4.48479285,6.4665185 4.50912484,6.40202767 4.53497775,6.33487055 L4.78709049,5.67491412 L4.74528692,6.26777844 C4.73424572,6.4803158 4.73976742,6.69339021 4.76180196,6.90507043 C4.77404318,7.059039 4.79735627,7.21192616 4.83156035,7.36254571 C4.90406732,7.0670618 4.99904745,6.77755042 5.11567124,6.49653994 L5.18801014,6.12112323 L5.20945107,6.19982248 C5.16211573,5.55518732 5.10624277,4.91147135 4.99685741,4.27351816 C4.87348911,3.55398432 4.74292288,2.83599354 4.50873337,2.14201383 C4.33998589,1.60503143 4.07431728,1.10349558 3.72487608,0.662228473 C3.26988934,0.108499366 2.60745406,-0.0864103746 1.92300865,0.128462248 C1.346317,0.309504553 0.855303977,0.611721268 0.522975908,1.13189187 C0.155160346,1.70760138 0.0414051873,2.35269925 0.0478402305,3.01985429 C0.0535767147,3.61454179 0.16237072,4.19842859 0.302608876,4.77583124 C0.534598963,5.73098974 0.89539781,6.63952184 1.29834467,7.53293118 C1.64599885,8.30372334 2.03943009,9.05093948 2.45582248,9.78642951 Z M7.30269441,14.1651707 C7.45593295,13.557266 7.78035942,13.0060862 8.23747228,12.577043 C8.49615171,12.3282157 8.83534859,12.1801922 9.19369522,12.1597529 C9.39736601,12.1476663 9.59999989,12.1967429 9.77557072,12.3006792 C10.363635,12.6454146 10.7681139,13.1358377 10.943253,13.8005706 C11.0614151,14.2091863 10.9474209,14.6497203 10.645891,14.9497349 C10.1526615,15.4825836 9.49369242,15.8329247 8.77612012,15.943799 C8.60659266,15.9638428 8.43609734,15.9746164 8.26539527,15.9760717 C8.14341119,15.9855267 8.0208203,15.9838784 7.89913452,15.9711472 C7.69208529,15.9348317 7.51829946,15.7945159 7.43916934,15.5997683 C7.21728225,15.1550584 7.1686401,14.6437417 7.30269441,14.1651707 L7.30269441,14.1651707 Z M3.20382225,12.4092526 C3.41354229,12.2554389 3.66195256,12.1630663 3.92121614,12.142486 C4.09328272,12.1347186 4.26427225,12.1733628 4.41627527,12.254371 C5.12888991,12.6176908 5.58098421,13.1942075 5.80223862,13.957099 C5.88720577,14.2180787 5.93223843,14.490402 5.93581438,14.7648415 C5.93637108,15.0428526 5.87253904,15.3172164 5.74931758,15.566429 C5.63759641,15.8378205 5.36550098,16.0079796 5.07258744,15.9896327 C4.15584069,15.9810045 3.32679769,15.7314425 2.65103032,15.0805957 C2.43749049,14.8749316 2.26131389,14.6434084 2.19663493,14.3439271 C2.1555648,14.1573268 2.16418652,13.9632153 2.2216385,13.7809909 C2.38137008,13.2243168 2.72828636,12.7398063 3.20382225,12.4092526 L3.20382225,12.4092526 Z" id="Shape" fill="#FFFFFF" fill-rule="nonzero"></path>
                    <path d="M10.6019578,20.5883163 C10.7328581,21.0528235 10.7571147,21.515713 10.5746379,21.9735382 C10.4026112,22.4051502 10.111523,22.7498642 9.76133049,23.0441678 C9.16876023,23.5421916 8.430636,23.834571 7.65776369,23.8774146 C7.31881254,23.9053464 6.97850213,23.9131319 6.63862824,23.9007299 C5.84738421,23.8631627 5.05553775,23.8182169 4.2932438,23.5716602 C3.86904553,23.434459 3.4809683,23.2355371 3.17236772,22.9029109 C2.86693072,22.5736848 2.7186287,22.1785383 2.67105614,21.7381805 C2.65955689,21.6317367 2.67477648,21.5224364 2.63804265,21.4187066 C2.62954859,21.4482474 2.62104899,21.4777937 2.60632945,21.5289842 C2.58640599,21.4820037 2.56684288,21.4363504 2.54725764,21.3905865 L2.53846271,21.4013277 L2.55506213,21.4481208 C2.57201771,21.5075363 2.57956365,21.5692407 2.57742571,21.6309911 C2.57837187,21.6699562 2.57931804,21.7090084 2.58353291,21.7476284 C2.63703493,22.2427359 2.80846478,22.6402153 3.10779804,22.9627753 C3.39534916,23.2727765 3.76341095,23.4928911 4.26617429,23.655461 C5.00737314,23.8951878 5.74599147,23.9465388 6.63444934,23.9887726 C6.73345383,23.9934176 6.83228611,23.9953957 6.92939827,23.9953957 C7.19931597,23.9953957 7.45598732,23.9801713 7.6640611,23.9652041 C8.45520806,23.9199546 9.21062465,23.6205757 9.81798571,23.1115829 C10.2205397,22.7732818 10.4948445,22.411671 10.6564682,22.0061063 C10.8285863,21.5743926 10.8384782,21.1027677 10.6867463,20.5643938 L10.6696288,20.5038391 L10.6375504,20.5020484 C10.6256265,20.5307889 10.614009,20.5596256 10.6019502,20.588317 L10.6019578,20.5883163 Z" id="Path" fill="#FFFFFF" fill-rule="nonzero"></path>
                    <path d="M5.76554213,23.1370264 C6.30954511,23.3386674 6.90108893,23.374641 7.46551746,23.2404069 C8.11146831,23.0838839 8.68397814,22.7100613 9.08707366,22.1816051 C9.19422032,22.0635999 9.28189782,21.9292897 9.34681452,21.7837169 C9.32008199,21.7852805 9.29500912,21.7971931 9.27691089,21.8169296 C9.05109628,21.9893067 8.81582729,22.148933 8.5722038,22.2950621 C7.79645326,22.7551428 6.97044795,22.9095278 6.08344115,22.7136533 C5.45290167,22.5744097 4.8728272,22.3123407 4.31103769,22.0032318 C4.20056092,21.9424454 4.09074951,21.8804604 3.97524746,21.816045 C3.97446254,21.8419337 3.98553302,21.8667766 4.00533718,21.8834711 C4.45918084,22.4620398 5.07037804,22.8973127 5.76554213,23.1370264 Z M6.06443135,22.7996825 C6.94893303,22.994853 7.80788749,22.8507763 8.6171253,22.3708074 C8.75561084,22.2886624 8.8964189,22.1977439 9.04264599,22.0959866 L9.01804496,22.1267806 C8.62826553,22.64105 8.07231193,23.00435 7.44481452,23.1548424 C6.89702244,23.2862481 6.32247198,23.2511155 5.79477164,23.0539456 C5.23391621,22.8596802 4.72722451,22.5349755 4.31641591,22.1065667 C4.96437372,22.4590596 5.52106859,22.6796908 6.06443135,22.7996825 L6.06443135,22.7996825 Z" id="Shape" fill="#FFFFFF" fill-rule="nonzero"></path>
                    <path d="M10.6243919,20.4821568 C10.4030042,19.9510105 10.1009429,19.4572267 9.72888069,19.0182522 C9.29560488,18.4898285 8.77313762,18.0413631 8.18515297,17.6931769 C7.75074396,17.422859 7.26161534,17.2526175 6.75324519,17.1948007 C6.33195802,17.1495403 5.90618054,17.2160233 5.51874536,17.3875615 C5.11463211,17.5728954 4.74469983,17.8251099 4.42453695,18.1335769 C4.02522431,18.5034885 3.67031531,18.918612 3.36697107,19.3705715 C3.00729845,19.8950044 2.75914991,20.4877099 2.63790086,21.1119638 C2.63368599,21.1349263 2.63033153,21.158326 2.62706282,21.1818086 C2.62495491,21.2462528 2.60519913,21.3088821 2.56994836,21.3628717 L2.54726248,21.3905796 C2.56684772,21.4363456 2.58640945,21.4819988 2.60633429,21.5289773 C2.62105383,21.4777867 2.62955343,21.4482405 2.63804749,21.4186997 C2.70699942,21.113058 2.75869003,20.8033577 2.86520991,20.5068076 C3.0632331,19.9605098 3.35039865,19.450795 3.71504161,18.9983682 C4.10533556,18.5091202 4.53139159,18.0549565 5.05826006,17.707662 C5.40788329,17.4650334 5.81105938,17.3106735 6.23332357,17.2577775 C6.52179033,17.2283054 6.81315962,17.2475583 7.09524035,17.3147308 C7.72848415,17.4622803 8.27474974,17.7804207 8.77834582,18.1767548 C9.49933138,18.7444349 10.0803071,19.4701194 10.4764717,20.2978478 C10.5225061,20.3926264 10.5603265,20.4913944 10.6019578,20.5883073 C10.6140166,20.5596159 10.6256341,20.5307793 10.637558,20.5020387 L10.6311016,20.5016784 C10.629037,20.4948871 10.6268002,20.4883497 10.6243919,20.4821568 Z" id="Path" fill="#FFFFFF" fill-rule="nonzero"></path>
                    <path d="M3.17237256,22.9029074 C3.48097037,23.2355364 3.86904761,23.4344583 4.29324865,23.5716567 C5.05554259,23.8182156 5.84738905,23.8631592 6.63863308,23.9007265 C6.97850697,23.9131284 7.31881738,23.9053429 7.65776853,23.8774112 C8.43064084,23.8345676 9.16876507,23.5421881 9.76133533,23.0441644 C10.1115278,22.7498607 10.402616,22.4051467 10.5746428,21.9735348 C10.7571202,21.5157102 10.7328636,21.0528201 10.6019627,20.5883129 L10.6019627,20.5883073 C10.555541,20.5857109 10.5540519,20.54352 10.5426066,20.5149628 C10.3244025,19.9922295 10.0269771,19.5062285 9.66079331,19.0740567 C9.23438501,18.5531877 8.71965053,18.1114123 8.14013395,17.7689374 C7.71651194,17.505795 7.23991199,17.339648 6.74450974,17.2824104 C6.33842377,17.2383216 5.92789912,17.3023586 5.55453372,17.4680327 C5.15943699,17.6494844 4.79775342,17.8962382 4.48468427,18.1979232 C4.09010103,18.5629093 3.7396135,18.9728441 3.44038133,19.4193538 C3.08811854,19.9343312 2.84454846,20.5157218 2.72455193,21.1280058 C2.70618744,21.226661 2.70741856,21.3340516 2.63805233,21.4186969 C2.67478617,21.5224267 2.65956657,21.6317229 2.67106582,21.7381708 C2.71863354,22.1785349 2.86693556,22.5736814 3.17237256,22.9029074 Z M2.80159055,21.2061524 C2.80442628,21.1852503 2.80735331,21.1645203 2.81113522,21.1441349 C2.92812858,20.5432577 3.16725968,19.9728039 3.51371343,19.4681153 C3.80949066,19.0275476 4.15550624,18.6228765 4.54478594,18.2622584 C4.85068245,17.9672673 5.20414917,17.7259908 5.59030893,17.5485842 C5.9497841,17.3894621 6.34484998,17.3279001 6.73569683,17.3701017 C7.21846715,17.4254556 7.68285998,17.5875891 8.09517787,17.8447373 C8.66554097,18.182401 9.17234955,18.6173614 9.59262847,19.1299006 C9.95324012,19.5550162 10.2460739,20.0332457 10.4607873,20.5476989 C10.462163,20.5510534 10.4631956,20.554838 10.4643147,20.5586227 C10.473659,20.5975546 10.4965974,20.6318707 10.5289985,20.6553904 C10.6574199,21.1369072 10.6454635,21.5578693 10.4928719,21.9408982 C10.3422578,22.3187661 10.084468,22.6575825 9.70462202,22.9767022 C9.1255628,23.4615451 8.40552352,23.7466166 7.65150847,23.7895525 C7.31604485,23.8170194 6.97925831,23.8247741 6.64288599,23.8127765 C5.76767447,23.7712309 5.04092611,23.7209118 4.32037072,23.4878946 C3.84745522,23.3349586 3.50321983,23.1299827 3.23700035,22.8429476 C2.96441637,22.5492035 2.80795366,22.1847541 2.75866651,21.7286974 C2.75505337,21.6949791 2.75436519,21.6610029 2.75359124,21.6270259 C2.75443874,21.5623506 2.74806288,21.4977829 2.73458213,21.4345224 C2.77267825,21.3639373 2.7955082,21.286131 2.80159055,21.2061524 L2.80159055,21.2061524 Z" id="Shape" fill="#FFFFFF" fill-rule="nonzero"></path>
                    <path d="M5.73628081,23.2201286 C6.07698039,23.3426978 6.43607526,23.4063138 6.79814663,23.4082451 C7.02997505,23.4082736 7.26098049,23.3806686 7.48627435,23.3260143 C8.15081307,23.1638001 8.73995265,22.7793356 9.15601452,22.2363645 L9.18629256,22.198432 C9.28757975,22.0845623 9.36965168,21.9549611 9.42928738,21.8147149 L9.47332703,21.6972173 L9.34791631,21.6956687 L9.345683,21.6956687 C9.30011849,21.6967715 9.25663754,21.7149806 9.22388473,21.746676 C9.00069375,21.9170666 8.76814479,22.0748371 8.52732795,22.2192477 C7.75782986,22.6756482 6.94188311,22.8131011 6.10245372,22.627651 C5.56261833,22.5084332 5.00686963,22.2854801 4.35357856,21.9261054 C4.28046501,21.8858518 4.20760945,21.8450787 4.13329037,21.8034467 L3.89408023,21.6700357 L3.88728484,21.8118764 C3.88483852,21.8590383 3.90268249,21.9049942 3.93631401,21.9381476 C4.40106691,22.5291215 5.02584598,22.9741047 5.73628081,23.2201286 L5.73628081,23.2201286 Z M4.31104046,22.0032346 C4.87282651,22.3123435 5.45290098,22.5744124 6.08344392,22.713656 C6.97045072,22.9095292 7.79645602,22.7551484 8.57220657,22.2950649 C8.81583006,22.1489358 9.05109904,21.9893095 9.27691366,21.8169323 C9.29501189,21.7971959 9.32008475,21.7852832 9.34681729,21.7837197 C9.28190059,21.9292925 9.19422309,22.0636027 9.08707643,22.1816078 C8.6839809,22.710064 8.11147107,23.0838867 7.46552023,23.2404097 C6.9010917,23.3746437 6.30954788,23.3386702 5.7655449,23.1370292 C5.07038215,22.8973157 4.45918601,22.4620439 4.00534271,21.8834767 C3.98553855,21.8667822 3.97446807,21.8419392 3.97525299,21.8160505 C4.09075366,21.8804611 4.20056369,21.9424482 4.31104046,22.0032346 L4.31104046,22.0032346 Z" id="Shape" fill="#FFFFFF" fill-rule="nonzero"></path>
                    <path d="M7.4304498,21.7963076 C7.46937111,21.8144863 7.51178564,21.8239672 7.55474282,21.8240908 C7.59889215,21.8236442 7.64250299,21.8143429 7.68299274,21.7967378 C8.0611971,21.6434695 8.42386006,21.4543465 8.76601867,21.2319569 C8.90988794,21.1372583 9.04782863,21.0338462 9.17906767,20.9223002 C9.38608862,20.7521885 9.53133636,20.5186432 9.59237395,20.2577409 L9.59581487,20.2425164 C9.62574847,20.1105676 9.65972265,19.9609861 9.60002974,19.8098566 C9.48416576,19.5169722 9.05494617,19.2259802 8.73341948,19.2224535 C8.73006432,19.2224535 8.72671055,19.2223677 8.72335539,19.2223677 C8.28441614,19.2223677 7.9737268,19.5327133 7.94895424,19.9973706 C7.9315435,20.3204627 7.8352366,20.6343684 7.66845648,20.9116337 L7.65796219,20.9297831 C7.65383378,20.9370944 7.64970467,20.9444058 7.64514605,20.9517171 C7.58158409,21.0537344 7.51225176,21.1555746 7.44515896,21.2540632 C7.40473176,21.3134144 7.36430594,21.372765 7.32473706,21.4326322 C7.27993528,21.4917745 7.26428414,21.5680059 7.28215885,21.6400164 C7.30542011,21.7118524 7.35993395,21.7693072 7.4304498,21.7963076 Z M7.39818813,21.4811952 C7.5048747,21.3198667 7.61765256,21.1623984 7.71987735,20.9983235 C7.72845718,20.9845501 7.73598363,20.9704378 7.74423009,20.9565572 C7.91868631,20.6672781 8.01920853,20.3394836 8.03691527,20.0021353 C8.05941441,19.5800175 8.33898744,19.3063152 8.73250997,19.3105618 C9.01421602,19.3135988 9.41464807,19.5806732 9.51810398,19.8423175 C9.5698264,19.9731154 9.53596288,20.1077782 9.50641107,20.2383237 C9.44957894,20.4807259 9.31438926,20.6976187 9.12178859,20.8553962 C8.99319724,20.964564 8.85809535,21.0658224 8.71722882,21.1586123 C8.37944562,21.3774816 8.02173765,21.5639451 7.64887401,21.7155168 C7.59132592,21.7423069 7.52493277,21.7425546 7.4671864,21.7161946 C7.35877141,21.6662511 7.33221441,21.5809508 7.39818813,21.4811938 L7.39818813,21.4811952 Z" id="Shape" fill="#FFFFFF" fill-rule="nonzero"></path>
                    <path d="M4.47545983,21.021046 C4.53687769,21.0704189 4.60405349,21.1199647 4.68680092,21.176907 C5.02161246,21.3955185 5.37289673,21.587797 5.73748496,21.7520078 C5.80121481,21.7808135 5.86831939,21.8014767 5.93721406,21.8135094 C5.95546206,21.8170883 5.9740121,21.8189284 5.99260772,21.8189284 C6.08250082,21.817519 6.16683973,21.7751752 6.22166801,21.7039248 C6.28729867,21.6236722 6.27878317,21.5293127 6.19637948,21.4236021 C6.17237503,21.390269 6.15139007,21.3548622 6.13367378,21.3178022 C6.11034349,21.2685671 6.08154798,21.2221131 6.04783055,21.1793167 C5.97046045,21.0875476 5.90197145,20.9886449 5.84328415,20.8839382 C5.68843445,20.6029865 5.60158716,20.2896529 5.58970928,19.9690734 C5.56570928,19.5368431 5.24452772,19.2227993 4.82597464,19.2223691 L4.8252,19.2223691 C4.59483195,19.222897 4.37359377,19.3124957 4.20777821,19.4724173 C3.884554,19.753891 3.82424176,20.2332049 4.06765833,20.5859793 C4.17985335,20.7515555 4.31748073,20.8983845 4.47545983,21.021046 L4.47545983,21.021046 Z M4.26732795,19.5372609 C4.41718227,19.3922937 4.61735826,19.3109984 4.82585637,19.3104301 C5.19470779,19.3096066 5.49582446,19.6052034 5.50182294,19.9740069 C5.51487065,20.3079889 5.60551682,20.6343434 5.7665796,20.9272136 C5.82800562,21.0366624 5.89962712,21.1400678 5.98049084,21.2360535 C6.03850305,21.3047965 6.06785014,21.4019564 6.12688392,21.4776885 C6.16455908,21.526024 6.20335262,21.5871756 6.15342017,21.6481667 C6.10770912,21.7105948 6.03024572,21.7412749 5.95418559,21.7270755 C5.89259763,21.716477 5.83258391,21.6981883 5.77555228,21.6726384 C5.41503689,21.510575 5.06773395,21.3205934 4.7368136,21.1044277 C4.66671078,21.0561033 4.59752161,21.0062082 4.53058513,20.9524433 C4.37985717,20.8354444 4.24849012,20.6954434 4.14130928,20.5375829 C3.92063528,20.2211488 3.97506693,19.7890765 4.26732795,19.5372609 Z" id="Shape" fill="#FFFFFF" fill-rule="nonzero"></path>
                    <path d="M3.44037648,19.41936 C3.73960887,18.9728503 4.09009664,18.5629155 4.48468012,18.1979295 C4.79774927,17.8962444 5.15943284,17.6494907 5.55452957,17.468039 C5.92789497,17.3023648 6.33841962,17.2383278 6.74450559,17.2824166 C7.23990784,17.3396542 7.71650779,17.5058012 8.1401298,17.7689436 C8.71964638,18.1114185 9.23438086,18.553194 9.66078916,19.0740629 C10.0269729,19.5062347 10.3243984,19.9922358 10.5426024,20.514969 C10.5540477,20.5435262 10.5555361,20.5857171 10.6019585,20.5883135 C10.5603271,20.4914006 10.5225067,20.3926326 10.4764724,20.2978541 C10.0803078,19.4701256 9.49933207,18.7444411 8.77834651,18.176761 C8.27475043,17.780427 7.72848484,17.4622866 7.09524104,17.3147371 C6.81316031,17.2475646 6.52179103,17.2283116 6.23332427,17.2577837 C5.81106007,17.3106798 5.40788398,17.4650396 5.05826075,17.7076682 C4.53139228,18.0549628 4.10533418,18.5091265 3.71504231,18.9983744 C3.35039934,19.4508012 3.06323379,19.960516 2.86521061,20.5068138 C2.75869072,20.8033639 2.70700012,21.1130642 2.63804818,21.4187059 C2.70741441,21.3340606 2.70618329,21.22667 2.72454778,21.1280148 C2.84454374,20.5157299 3.08811359,19.9343383 3.44037648,19.41936 L3.44037648,19.41936 Z" id="Path" fill="#FFFFFF" fill-rule="nonzero"></path>
                    <path d="M8.8013464,7.1854264 C8.82402199,7.19665062 8.84026521,7.21768665 8.84538951,7.24246063 C8.94055055,7.55187597 9.03063562,7.86293326 9.01692173,8.19116749 C9.01290536,8.28730098 9.02369499,8.39125141 8.95243643,8.47393383 C9.00264277,8.49464784 9.00096,8.54578444 9.012083,8.58742133 C9.01262594,8.5894589 9.01326571,8.59145844 9.0138121,8.59349602 L9.03791308,8.49480899 C9.1285736,8.12360438 9.05735239,7.7665985 8.97572334,7.46627412 C8.9568,7.39655654 8.93589787,7.32735839 8.91508219,7.25815885 L8.86381625,7.09442697 L8.83255401,7.0951366 C8.82979728,7.12596849 8.82136588,7.15602535 8.80768461,7.18379274 C8.80557899,7.18394585 8.80346664,7.18398533 8.80135677,7.18391101 L8.8013464,7.18541049 L8.8013464,7.1854264 Z" id="Path" fill="#FFFFFF" fill-rule="nonzero"></path>
                    <path d="M4.37146651,6.69363597 C4.26095196,7.07398207 4.21392959,7.46995237 4.2322928,7.865603 C4.23616599,7.92671723 4.24270063,7.98765925 4.24940957,8.04860196 L4.26403228,8.19108726 L4.27238663,8.19296853 C4.26828519,8.17460957 4.26308127,8.15671816 4.25930144,8.13823055 L4.25775354,8.12747827 L4.24734571,8.00748588 L4.3032664,8.0197162 C4.29891735,7.98889591 4.29863239,7.95726086 4.2971004,7.92684104 C4.27251761,7.55735103 4.30756191,7.18631269 4.40088899,6.82795919 C4.41207631,6.78735977 4.41601176,6.74249153 4.45550939,6.71558524 C4.41419481,6.67228841 4.42852703,6.61927401 4.43403735,6.56966455 L4.41111977,6.54680576 L4.37146651,6.69363597 Z" id="Path" fill="#FFFFFF" fill-rule="nonzero"></path>
                    <path d="M7.13302824,6.66965948 L7.13303931,6.66966432 C7.17824467,6.66944811 7.22179765,6.68664585 7.25465983,6.71768853 C7.23918778,6.69252865 7.22507066,6.6667781 7.20861441,6.64206986 L7.01258421,6.34759401 L7.03758294,6.59836841 C7.04083366,6.59962651 7.04414179,6.60062594 7.04738836,6.60190548 C7.08269235,6.61430716 7.11283673,6.63815589 7.13302824,6.66965948 L7.13302824,6.66965948 Z" id="Path" fill="#FFFFFF" fill-rule="nonzero"></path>
                    <path d="M7.65823055,7.36793637 C7.74334912,7.28027675 7.84450711,7.20977562 7.95621095,7.16026167 L7.95621648,7.16026167 C7.95897476,7.12779043 7.961603,7.09530882 7.96433983,7.06283274 L7.92469695,7.07799839 C7.81464457,7.12486101 7.71437325,7.19197727 7.62909787,7.2758566 C7.63192599,7.28654386 7.6353019,7.29689775 7.63781256,7.30777383 C7.64256484,7.32840138 7.63950571,7.35195873 7.65823055,7.36793637 Z" id="Path" fill="#FFFFFF" fill-rule="nonzero"></path>
                    <path d="M5.22165856,6.4698121 L5.22165303,6.46982317 L5.22165856,6.46981764 C5.24662314,6.68159608 5.25945861,6.89462869 5.26010213,7.10787251 C5.30182375,7.27825281 5.36747738,7.44186176 5.45510524,7.59382063 C5.56412542,7.30296899 5.65353752,7.02353014 5.57269971,6.70748058 C5.67677395,6.77310017 5.72645879,6.87037902 5.80356104,6.94027228 C5.82210813,6.9168166 5.84160692,6.8950762 5.86115965,6.87343746 C5.83580877,6.84888463 5.81210804,6.82268346 5.79021233,6.79500519 C5.74270215,6.73194427 5.68506391,6.67719804 5.61964288,6.63299412 L5.43247262,6.51498052 L5.48735032,6.72933233 C5.53483342,6.94285643 5.5186251,7.16561986 5.4407336,7.37002167 C5.40135716,7.27819861 5.36951229,7.18332577 5.34551378,7.08634098 L5.34172911,7.07124519 L5.33295562,7.05834259 C5.29899434,6.99594907 5.28205518,6.92571518 5.28384069,6.85470017 C5.28151816,6.82317579 5.2790234,6.79173648 5.27472277,6.76090029 C5.26249777,6.69898968 5.26532979,6.63504781 5.28298029,6.5744604 C5.29356941,6.54652265 5.29522246,6.51598619 5.28771112,6.48706859 L5.20945245,6.19981556 C5.21262986,6.24310824 5.21581141,6.28639746 5.21899712,6.32968323 C5.22234674,6.37621625 5.22088392,6.42309441 5.22165856,6.4698121 Z" id="Path" fill="#FFFFFF" fill-rule="nonzero"></path>
                    <polygon id="Path" fill="#FFFFFF" fill-rule="nonzero" points="8.81690448 7.20115907 8.81691948 7.19899107 8.81600248 7.19901407 8.81690248 7.20118207"></polygon>
                    <path d="M7.93940611,10.2465607 C7.78453175,9.85962162 7.54079436,9.5145476 7.22789326,9.23922813 C7.22417844,9.23581487 7.21670594,9.23649199 7.200083,9.23291135 C7.33576254,9.95589095 7.06158156,10.5542068 6.64962951,11.1152563 C6.62944887,11.1033226 6.62066625,11.0786816 6.62874951,11.0566741 C6.68372957,10.6648717 6.5496415,10.3078091 6.42541833,9.94921937 C6.39891458,9.87271401 6.36094409,9.80013233 6.33538651,9.72337383 C6.30883504,9.64361084 6.26885049,9.64833614 6.2091313,9.68734963 C6.1140811,9.75460404 6.04218752,9.84964019 6.00332749,9.95940173 C5.91641268,10.1960317 5.86222384,10.4434239 5.84226329,10.6947195 C5.81617834,10.9317022 5.80291245,11.1699207 5.80252357,11.4083343 C5.80836173,11.4276609 5.81337268,11.4471057 5.81945775,11.4664005 L5.85201476,11.569716 L5.87055078,11.5678133 L5.86951885,11.4871304 C5.86754006,11.3368606 5.86745429,11.1584618 5.88095862,10.9744752 C5.89622627,10.7322668 5.92798237,10.4913804 5.97600622,10.2534903 C6.00030115,10.1242619 6.04563137,9.9998944 6.11019112,9.88534202 C6.14283373,9.8243044 6.19148121,9.77330775 6.25091274,9.73782501 C6.25632261,9.73470383 6.26199212,9.73205605 6.26785798,9.72991124 C6.26978986,9.73321251 6.27151356,9.73663128 6.27301902,9.74014755 C6.43553754,10.0893874 6.54079109,10.4625067 6.58474236,10.8451933 C6.58752855,10.9061513 6.58281966,10.9672207 6.57072138,11.027031 L6.54655124,11.1792795 L6.68993983,11.1228526 C6.72608635,11.1077187 6.75623013,11.0810821 6.77569729,11.0470727 C7.05851758,10.6405618 7.21807746,10.2712952 7.27785821,9.88491182 C7.29976309,9.71682691 7.30117841,9.54670412 7.28207308,9.37827804 C7.5403163,9.62062398 7.74170925,9.91713228 7.87179804,10.2465227 C7.99540288,10.5757916 8.01914352,10.8405489 7.94637372,11.0797591 L8.01496599,11.1039237 C8.03602748,10.9952225 8.04708741,10.8848204 8.04800715,10.7741014 C8.04107435,10.5934775 8.00438101,10.4152359 7.93940611,10.2465607 L7.93940611,10.2465607 Z" id="Path" fill="#FFFFFF" fill-rule="nonzero"></path>
                    <path d="M8.95229671,8.47410605 C8.91608922,8.5493381 8.88119585,8.62524657 8.84308634,8.69950548 C8.82504442,8.72875693 8.82670907,8.76606274 8.84728461,8.79359101 C9.01576876,9.06650282 9.02968115,9.36518248 8.99822663,9.67449545 C8.97043813,9.90525467 8.91804675,10.1323796 8.84194651,10.3519947 L8.84194098,10.3519947 C8.84021187,10.3692678 8.83876911,10.3932712 8.81887262,10.3922711 C8.79438501,10.39104 8.80813695,10.3658697 8.80521752,10.3510914 C8.76151055,10.069153 8.74432392,9.77954282 8.56617406,9.53687585 C8.54085188,9.49121857 8.49851909,9.45741255 8.44839147,9.44281729 C8.48586744,10.046483 8.28406893,10.5851461 8.03635366,11.1114612 L8.1123811,11.1382499 L8.15332634,11.0369243 C8.24706103,10.8169317 8.32861382,10.5919458 8.39761452,10.3629877 C8.47723785,10.1053667 8.51564456,9.83678024 8.51141326,9.56716841 C8.56424218,9.63637087 8.60509287,9.71394213 8.63226605,9.79665545 C8.68738278,9.96950365 8.72194125,10.1482441 8.73522674,10.3291802 C8.73170131,10.3571259 8.73992415,10.3852821 8.75793545,10.4069381 L9.08634398,10.7999447 L8.91396795,10.3356311 C8.98584892,10.1186866 9.03542105,9.8949779 9.06191516,9.66797602 C9.08677418,9.39736945 9.08840507,9.08057291 8.91173187,8.7824853 C8.8937842,8.76183951 8.89302611,8.73135728 8.9099253,8.70984484 C8.92734707,8.68162552 8.94176179,8.65165717 8.95293303,8.62043135 C8.9595562,8.60348611 8.9652332,8.5892936 8.97108242,8.57759516 L8.9859472,8.5839064 C8.98185061,8.56769775 8.97754444,8.5515645 8.97358271,8.53530744 C8.96848392,8.51442052 8.95948427,8.49448669 8.95229671,8.47410605 Z" id="Path" fill="#FFFFFF" fill-rule="nonzero"></path>
                    <path d="M5.11567608,6.49653026 C4.99905229,6.77754074 4.90407216,7.06705212 4.83156519,7.36253602 C4.79736111,7.21191648 4.77404802,7.05902932 4.7618068,6.90506075 C4.73977226,6.69338053 4.73425056,6.48030612 4.74529176,6.26776876 L4.78709533,5.67490444 L4.53498259,6.33486086 C4.50912968,6.40201937 4.48479769,6.46650882 4.46082605,6.531203 C4.45960046,6.59223124 4.45834974,6.65328023 4.45707389,6.71434997 C4.52432231,6.53814617 4.59157418,6.36194259 4.65882951,6.18573925 C4.67372058,6.65907389 4.68858536,7.12765625 4.83776922,7.58261049 C4.91976293,7.20734029 5.03603721,6.84039043 5.18512807,6.4863811 L5.1851502,6.48638663 C5.19732311,6.48085349 5.20949072,6.47533233 5.22165856,6.46982317 L5.22165856,6.4698121 C5.22088392,6.42309441 5.2223502,6.37621625 5.21900265,6.32968115 C5.2158898,6.28638432 5.21270824,6.2430951 5.20945798,6.19981349 L5.18801706,6.12111424 L5.11567608,6.49653026 Z" id="Path" fill="#FFFFFF" fill-rule="nonzero"></path>
                    <path d="M7.95621372,7.16026167 C8.06262113,7.11659432 8.17427091,7.08701962 8.28833499,7.07228888 C8.31123666,7.06828357 8.34426674,7.05784876 8.35740035,7.08094409 C8.36897983,7.10131366 8.35295931,7.12855954 8.3394121,7.15023562 C8.24509578,7.28995984 8.17805472,7.44626063 8.14182294,7.61089867 C8.11717325,7.73657185 8.12070022,7.86614754 8.15214986,7.99029372 C8.16885856,8.05475481 8.20445326,8.07543493 8.27015308,8.04516657 C8.43125533,7.97095331 8.50513245,7.8321102 8.55994029,7.67478709 C8.6213879,7.49838501 8.61894225,7.31412795 8.6323283,7.13207032 C8.63979043,7.03052818 8.63367216,6.92799216 8.65015539,6.8215366 C8.70034513,6.94233014 8.75053533,7.06312692 8.80072599,7.18392692 L8.80136023,7.18391101 C8.80255954,7.13148934 8.8018928,7.07914305 8.80079032,7.02681337 C8.79890352,7.02208807 8.79706513,7.0172445 8.79517764,7.01253994 C8.77694248,6.96699458 8.75905107,6.92248184 8.74485856,6.87968853 L8.57695539,6.37185061 L8.57291274,6.948157 C8.58293194,7.18641713 8.55833342,7.42487061 8.49988565,7.65606778 C8.4704776,7.76433037 8.41044397,7.86180286 8.32699366,7.93678063 C8.30546961,7.95691795 8.28026592,7.97271784 8.25276173,7.98331573 C8.2359887,7.98912138 8.22644058,7.99045487 8.2242045,7.99183124 C8.21988954,7.98426461 8.21653766,7.97618813 8.21422686,7.96778974 C8.18031134,7.84941973 8.17782101,7.72425571 8.20700127,7.60463032 C8.23063001,7.49333088 8.272543,7.38671748 8.33103631,7.28912438 C8.36245099,7.23968218 8.38824369,7.1868851 8.40793452,7.1317155 L8.44896415,7.01159378 L8.32209061,7.01520692 C8.2222476,7.01912594 8.12337415,7.03635212 8.02808853,7.06642928 C8.01802444,7.06944 8.00796173,7.07343908 7.99781049,7.07756818 L7.99393729,7.07924542 L7.96830432,7.06131112 L7.96433706,7.06283274 C7.96160023,7.09530882 7.95897199,7.12779043 7.95621372,7.16026167 L7.95621372,7.16026167 Z" id="Path" fill="#FFFFFF" fill-rule="nonzero"></path>
                    <path d="M5.20015401,6.54437741 C5.20447718,6.53351368 5.20536292,6.52158505 5.20269164,6.51020196 C5.202,6.51377153 5.20136369,6.51736254 5.20074536,6.52095908 C5.06565805,6.83986259 4.96188493,7.17114046 4.89088945,7.51012081 C4.884637,7.54396772 4.87845994,7.58969084 4.84112922,7.59179274 C4.7969547,7.59428265 4.78827251,7.54484957 4.7785902,7.51047562 C4.72476559,7.31490089 4.68977689,7.11462489 4.67410236,6.91238524 C4.65161565,6.6962085 4.64605267,6.47860531 4.65746421,6.26156196 C4.60560692,6.39749948 4.5562928,6.52185683 4.51154836,6.64795089 C4.50149533,6.67628265 4.49521107,6.70983424 4.45747712,6.71774732 L4.45646594,6.71664069 C4.34849012,7.08771535 4.30245608,7.47405818 4.32021718,7.86011481 C4.32370098,7.91576715 4.3295336,7.97128461 4.33557164,8.02678133 L4.36475896,8.03316242 C4.39020688,8.03846585 4.41354311,8.0511096 4.43188357,8.06953107 C4.43047539,8.06811735 4.42974432,8.06644012 4.42823931,8.06507412 L4.42445395,8.02950709 C4.41817522,7.97127424 4.41181003,7.9129985 4.40811112,7.85459066 C4.3911748,7.49213399 4.43258889,7.12931051 4.5307698,6.77999378 C4.54783998,6.76724135 4.56197764,6.75097729 4.57222963,6.7322981 C4.57627228,6.79590709 4.58117533,6.85844058 4.58633914,6.91972703 C4.60230265,7.12761525 4.63830986,7.33347542 4.69385914,7.53443965 L4.69626744,7.54334248 C4.70572911,7.57860865 4.73626444,7.68728991 4.84610697,7.67976346 C4.95070202,7.67382847 4.97014202,7.56665222 4.97753914,7.52609568 C5.01272236,7.3434287 5.06078187,7.16347904 5.12135793,6.98759378 C5.13017607,7.04277065 5.14950677,7.09574113 5.17830017,7.14362836 C5.22185635,7.31691684 5.28936995,7.4832832 5.37888968,7.63791908 L5.47213072,7.79924127 L5.53758847,7.6247585 C5.62971638,7.41166736 5.68201775,7.18349835 5.69190156,6.95155504 C5.70205141,6.96312415 5.71263078,6.97460749 5.72372749,6.98579135 C5.73359442,7.01213908 5.74823216,7.036443 5.76690744,7.05748565 C5.77051988,7.06191216 5.77421879,7.06630202 5.77748957,7.07098997 C5.88727386,7.21893637 5.981393,7.37788664 6.05833176,7.54528184 C6.07820127,7.59173049 6.09755481,7.63848 6.11983331,7.69249798 L6.26270524,8.03703424 L6.32111032,7.75847239 C6.36784845,7.52773237 6.43666232,7.30202032 6.52660219,7.08445141 C6.57298072,7.33663233 6.6535767,7.58129944 6.76615677,7.81167285 C6.78246882,7.85985949 6.82444946,7.8948104 6.87479447,7.90211896 C6.92332466,7.90219337 6.96773749,7.87486034 6.98953798,7.83150225 C7.14146155,7.61432221 7.2347316,7.36159254 7.26031608,7.09778697 C7.33506398,7.25794859 7.39759746,7.42245372 7.45625844,7.58205648 L7.5168996,7.7472498 L7.72600461,7.42524934 C7.79397518,7.35720235 7.87194536,7.299942 7.95721522,7.25545107 C7.99388758,7.26183338 8.03163798,7.25656935 8.06516542,7.24039816 C8.06951205,7.23843606 8.07396273,7.23671314 8.07849752,7.23523712 C8.11221579,7.22517372 8.14326778,7.21700196 8.17285695,7.21059389 C8.10796843,7.32156893 8.06129984,7.44223348 8.03462939,7.56798986 C7.99955547,7.71701794 8.00343608,7.87256575 8.04589764,8.01965948 C8.05857246,8.07454602 8.09379888,8.12154597 8.14292334,8.14911354 C8.1962147,8.17283097 8.25702245,8.17304934 8.31048277,8.14971527 C8.3591959,8.13194748 8.40398338,8.10486465 8.44234513,8.06997856 C8.55106922,7.9734943 8.62954735,7.84760683 8.66830893,7.70750801 C8.70835147,7.57084322 8.73242437,7.42999908 8.74004611,7.28779297 L8.74640922,7.30899597 C8.7667947,7.37664761 8.78718086,7.44429925 8.80575977,7.51246686 C8.87870179,7.78087954 8.94304115,8.09664346 8.87508865,8.4164936 C8.83517492,8.45520269 8.80552536,8.50323912 8.78881452,8.55626974 C8.78195734,8.5760365 8.77320031,8.59509205 8.76266628,8.61316911 C8.70886436,8.69092832 8.70790987,8.79363237 8.76025729,8.8723781 C8.91121522,9.12711424 8.90880692,9.4093321 8.88644265,9.65181095 C8.87812693,9.73781897 8.86477165,9.82326495 8.84644565,9.90770836 C8.83285487,9.8524 8.81737199,9.79752184 8.799997,9.74307389 C8.7669317,9.64150413 8.71697246,9.54623858 8.65222133,9.46128553 L8.64611481,9.45311447 C8.61489061,9.41045049 8.54134686,9.31075781 8.42565579,9.35307804 C8.3214045,9.39126916 8.33009222,9.50050928 8.33379043,9.54712945 L8.3351668,9.56639723 C8.33949666,9.82002957 8.30337584,10.0727312 8.22816346,10.3149939 C8.20339089,10.4023857 8.17500519,10.4885734 8.14464207,10.5735576 C8.12140872,10.4407067 8.08528315,10.3104363 8.03677764,10.1845937 C7.89638342,9.82808448 7.67832672,9.50733147 7.39845372,9.2456438 C7.3914832,9.23847122 7.38488105,9.23094963 7.37867274,9.22310801 C7.34925579,9.18775539 7.27106697,9.09416991 7.16328899,9.15016599 C7.06806986,9.19988334 7.09051988,9.30697314 7.10015378,9.3527336 C7.10258632,9.36303172 7.10445264,9.37345542 7.10574432,9.38395781 C7.12421231,9.54144131 7.12354812,9.70058139 7.10376622,9.85790524 C7.04937244,10.1795195 6.93002071,10.486679 6.75299343,10.7606421 C6.70130852,10.3833204 6.59399911,10.0157395 6.43456115,9.66987458 C6.41596186,9.61927475 6.37623268,9.57929405 6.32575124,9.56037579 C6.27140966,9.54447153 6.21283469,9.55304589 6.16533164,9.58385844 C6.0782129,9.63436805 6.00660519,9.70779044 5.95829118,9.79614571 C5.88437262,9.92714564 5.83214499,10.0692464 5.80363435,10.2169356 C5.75395781,10.4626227 5.72110936,10.7114142 5.70531804,10.9615753 C5.70390432,10.9807892 5.7025819,11.000003 5.70149049,11.0192161 C5.72437625,11.1253867 5.75143885,11.2310898 5.7815502,11.336427 C5.78186697,11.2137628 5.78404427,11.0910557 5.79310063,10.9679889 C5.80872311,10.7218206 5.84104461,10.4769973 5.88984207,10.2352088 C5.91637287,10.0967857 5.9651386,9.96357072 6.03424669,9.84073383 C6.07480254,9.76610055 6.13489315,9.70390269 6.20808484,9.66079954 C6.27495631,9.62362997 6.3235449,9.63554836 6.35377937,9.7050868 C6.51970145,10.0629796 6.62728405,10.4451178 6.6724468,10.8370077 C6.67607909,10.9053127 6.67112863,10.9738036 6.65771135,11.0408763 C6.67746012,11.0317245 6.69353252,11.0161615 6.7033155,10.9967177 C6.94152069,10.6544341 7.12629925,10.2882322 7.19079493,9.87142548 C7.2117805,9.70704567 7.21268304,9.54072283 7.19348265,9.37612496 C7.18891781,9.32516542 7.15578052,9.25342755 7.2040302,9.22826905 C7.26192069,9.19808784 7.29886271,9.27142755 7.33688715,9.30863793 C7.60719065,9.56160634 7.81805469,9.87135029 7.95430409,10.2155786 C8.06429671,10.5087313 8.12036749,10.8102391 8.03063239,11.1053595 C8.13829879,10.8551261 8.23251476,10.5993174 8.31287723,10.3390278 C8.39048609,10.0878467 8.42772332,9.82593658 8.42319839,9.56307804 C8.42146928,9.51810259 8.40658651,9.45387527 8.45596496,9.43582824 C8.51349856,9.41479746 8.54994813,9.47142294 8.58160738,9.51394167 C8.64040513,9.59113144 8.68587234,9.67761572 8.71612565,9.7698121 C8.77425562,9.9511662 8.81024384,10.1388838 8.82330674,10.3288779 C8.82428473,10.3357944 8.81988726,10.3436348 8.8255698,10.3504572 C8.82355282,10.341925 8.82344819,10.3330523 8.8252634,10.3244749 C8.89765192,10.1086602 8.94755364,9.88594509 8.97417406,9.6598755 C9.00087147,9.37027089 8.98968899,9.0866981 8.83599977,8.82749464 C8.80095059,8.77767132 8.80108191,8.71117384 8.83632761,8.66148934 C8.8765404,8.60016553 8.88069026,8.51777291 8.94713775,8.47178144 C8.94899274,8.47241568 8.95061602,8.47318409 8.9523472,8.47389925 C9.03404611,8.13934548 8.97870571,7.81319516 8.89070594,7.48939366 C8.86301948,7.38749671 8.83125303,7.28670778 8.80135193,7.18542916 L8.80072945,7.18392968 C8.76413533,7.18475205 8.75523804,7.15259274 8.74553637,7.12702478 C8.71683873,7.05134663 8.68426029,6.97707666 8.66121337,6.90735078 C8.65945037,7.16271078 8.66217061,7.42595689 8.58407378,7.68178928 C8.54993267,7.80596412 8.48066265,7.91763963 8.38458674,8.00339758 C8.35462145,8.03087228 8.31963417,8.05230413 8.28154513,8.06651689 C8.20042098,8.09466674 8.15547804,8.07619988 8.13005464,7.99367793 C8.09196779,7.86094402 8.0887791,7.72062744 8.120797,7.5863004 C8.1460532,7.46689203 8.1908053,7.35245912 8.25325625,7.24759677 C8.28236145,7.20229591 8.30628421,7.15386806 8.32457429,7.10322467 C8.23241213,7.10680208 8.1411556,7.12281314 8.05328023,7.15082352 C8.02208715,7.16012957 7.99114444,7.18471401 7.95622202,7.16026375 L7.95621095,7.16026375 C7.84450711,7.2097777 7.74334912,7.28027883 7.65823055,7.36793844 C7.62144277,7.42459089 7.58464945,7.48123781 7.53888899,7.55168991 C7.43887522,7.24980636 7.30341282,6.960849 7.13533971,6.69087147 C7.15796495,6.81382728 7.17099994,6.93835556 7.17432692,7.06333141 C7.15403801,7.32222364 7.06469528,7.57093858 6.91560692,7.7835638 C6.87750709,7.84227527 6.86133095,7.8049819 6.84290213,7.76821556 C6.71849761,7.50997382 6.63386495,7.23440229 6.59187527,6.95084957 C6.58399055,6.90337937 6.57609683,6.8559147 6.56578582,6.79386536 C6.41173413,7.09233911 6.30035297,7.41096443 6.23490398,7.74041084 C6.19668104,7.64841683 6.16871378,7.57918478 6.13925948,7.51059251 C6.06008939,7.33743682 5.96296145,7.17307013 5.84947228,7.02019435 C5.8318015,6.99516934 5.80645902,6.97399262 5.80356104,6.94027988 L5.80356104,6.94027504 C5.72645879,6.87038179 5.67677395,6.77310501 5.57269971,6.70748334 C5.6535389,7.02353291 5.56412334,7.30297176 5.45510524,7.5938234 C5.36747738,7.44186453 5.30182375,7.27825558 5.26010213,7.10787527 C5.19100703,7.00632277 5.20328853,6.88576599 5.18748865,6.77310156 C5.17294053,6.69697176 5.1772894,6.61843551 5.20015401,6.54437741 L5.20015401,6.54437741 Z" id="Path" fill="#FFFFFF" fill-rule="nonzero"></path>
                    <path d="M5.80531527,11.6873001 C5.80422727,11.650598 5.80350427,11.6139444 5.80261027,11.5772694 L5.77221027,11.5793554 C5.7906969,11.6140479 5.80184685,11.6504043 5.80531527,11.6873001 L5.80531527,11.6873001 Z" id="Path" fill="#FFFFFF" fill-rule="nonzero"></path>
                    <path d="M4.45747712,6.71774732 C4.49521107,6.70983424 4.50149533,6.67628265 4.51154836,6.64795089 C4.5562928,6.52185683 4.60560692,6.39749948 4.65746421,6.26156196 C4.64605267,6.47860531 4.65161565,6.6962085 4.67410236,6.91238524 C4.68977689,7.11462489 4.72476559,7.31490089 4.7785902,7.51047562 C4.7882732,7.54485026 4.7969547,7.59428196 4.84112922,7.59179274 C4.87845994,7.58969084 4.88463354,7.54396772 4.89088945,7.51012081 C4.96188493,7.17114046 5.06565805,6.83986259 5.20074536,6.52095908 C5.20136369,6.51736254 5.20199793,6.51377153 5.20269164,6.51020196 C5.19998187,6.50036856 5.19372261,6.49188899 5.18512392,6.48640254 L5.18515089,6.48638663 L5.18512876,6.4863811 C5.0360379,6.84039043 4.91976362,7.20734029 4.83776991,7.58261049 C4.68858605,7.12765625 4.67372127,6.65907389 4.6588302,6.18573925 C4.59157625,6.36194305 4.52432438,6.53814663 4.45707458,6.71434997 L4.45646663,6.71664 L4.45747712,6.71774732 Z" id="Path" fill="#FFFFFF" fill-rule="nonzero"></path>
                    <path d="M4.32397698,8.200521 L4.27996698,8.19297061 C4.28979964,8.22650554 4.30024898,8.25983887 4.31131498,8.29297061 C4.31717598,8.27179595 4.32404698,8.25079518 4.33080098,8.22978373 C4.33041298,8.228385 4.32982998,8.22696187 4.32944898,8.22556314 C4.32720798,8.21773589 4.32559398,8.20924666 4.32397698,8.200521 Z" id="Path" fill="#FFFFFF" fill-rule="nonzero"></path>
                    <path d="M4.88635781,10.0200429 C4.8212438,9.77025268 4.74735562,9.48726086 4.80455654,9.18672069 C4.80593291,9.17958156 4.80748081,9.17149625 4.77548334,9.14775562 C4.65713812,9.05619207 4.56435977,8.93570168 4.50608161,8.79788611 C4.42627423,8.63083189 4.3638288,8.45602539 4.31972749,8.27621602 C4.31595942,8.29730075 4.31166916,8.31822916 4.30765902,8.3392385 C4.35981761,8.52934575 4.43141124,8.71357753 4.52130744,8.88901971 C4.57738799,9.00435021 4.66338238,9.10252353 4.77032369,9.17330282 C4.77815101,9.17837741 4.78133326,9.18181833 4.78184991,9.18190409 C4.7817032,9.18840228 4.78057196,9.19484066 4.77849476,9.20099965 C4.74880049,9.3223093 4.74420507,9.4484069 4.76499043,9.5715562 C4.80548619,9.86258737 4.88202584,10.1474512 4.99284657,10.4195869 C5.0214038,10.4911518 5.05202559,10.5619428 5.08264738,10.6326481 L5.31858882,11.1859885 L5.31618052,11.140486 L5.33277994,11.1810854 L5.08316196,10.5701146 C5.00522165,10.391409 4.93946992,10.2076315 4.88635781,10.0200429 L4.88635781,10.0200429 Z" id="Path" fill="#FFFFFF" fill-rule="nonzero"></path>
                    <polygon id="Path" fill="#FFFFFF" fill-rule="nonzero" points="5.8043464 11.5922519 5.8791464 11.5848519 5.8788464 11.5838519 5.8043464 11.5914519"></polygon>
                    <path d="M5.67306052,11.588113 L5.65138444,11.5193858 C5.48300259,10.9895342 5.40433311,10.4352724 5.41862524,9.8794928 C5.32201708,10.1030248 5.2736556,10.344424 5.27670017,10.5879202 L5.33278271,11.1810854 L5.30061303,10.8405489 L5.29278571,10.6891608 C5.28047713,10.4705998 5.31200374,10.2517842 5.38551078,10.0455873 C5.39101467,10.5474177 5.47340056,11.0454402 5.62979896,11.5223087 L5.65190524,11.5902612 L5.74379205,11.5811488 L5.74368968,11.5808528 L5.67306052,11.588113 Z" id="Path" fill="#FFFFFF" fill-rule="nonzero"></path>
                    <path d="M5.72423634,11.0211818 L5.72442234,11.0192141 C5.70682234,10.962729 5.69029234,10.9061623 5.67566434,10.849485 C5.69045534,10.9068021 5.70640534,10.9640576 5.72423634,11.0211818 Z" id="Path" fill="#FFFFFF" fill-rule="nonzero"></path>
                    <path d="M5.6036438,9.27910202 L5.44073014,9.54274098 C5.43973003,9.54317602 5.43861164,9.54403089 5.43760115,9.5444936 C5.45431147,9.53652227 5.47253782,9.53222966 5.49104922,9.53190571 C5.5069652,9.53187941 5.52269669,9.53531315 5.53715412,9.54196911 C5.55954238,9.5531541 5.57766578,9.57134405 5.58876865,9.59377314 C5.58631048,9.58828191 5.58349284,9.58295877 5.58033406,9.57783839 L5.6036438,9.27910202 Z" id="Path" fill="#FFFFFF" fill-rule="nonzero"></path>
                    <path d="M4.34734571,8.11882305 C4.32351367,8.09052111 4.30883031,8.0560492 4.30513098,8.0197162 L4.24734571,8.00748588 L4.25810058,8.12747827 L4.25970009,8.13823055 C4.26360594,8.15671816 4.26898338,8.17461095 4.27322158,8.19296853 L4.30467571,8.19981579 C4.30583139,8.20772888 4.30698635,8.21542755 4.30858658,8.2225238 C4.30885888,8.22379228 4.30927555,8.22508288 4.30955286,8.22635135 C4.31842245,8.18959506 4.32955842,8.15338571 4.34290096,8.11791769 C4.34448975,8.11815078 4.34586484,8.1185215 4.34734571,8.11882305 Z" id="Path" fill="#FFFFFF" fill-rule="nonzero"></path>
                    <path d="M5.34981095,10.0680401 C5.36837964,10.0036815 5.39137201,9.94068241 5.41862386,9.8794928 C5.40433173,10.4352724 5.48300121,10.9895342 5.65138305,11.5193858 L5.67305914,11.588113 L5.74368346,11.5808549 C5.73387251,11.5522174 5.72288922,11.5237404 5.71355066,11.4950331 C5.5156436,10.8959634 5.4388509,10.2635169 5.48764081,9.63449291 C5.28479131,9.94923243 5.18586188,10.3197092 5.20480461,10.6936745 C5.16128576,10.5914711 5.11586421,10.490032 5.07460841,10.3869199 C4.96633381,10.1216142 4.89164154,9.84381637 4.85226813,9.55998501 C4.83290313,9.44882353 4.83662721,9.33486575 4.86320853,9.22520576 C4.88334382,9.17792199 4.86372379,9.12310514 4.81815769,9.09933718 C4.72431492,9.03674395 4.64888089,8.95023596 4.59964496,8.84874605 C4.48191263,8.61885581 4.39641703,8.37384011 4.34557003,8.12060058 L4.34555965,8.12060058 C4.33764035,8.17268818 4.32902963,8.22455931 4.31972749,8.27621395 C4.3638288,8.45602331 4.42627423,8.63082981 4.50608161,8.79788403 C4.56435977,8.93569961 4.65713812,9.05618999 4.77548334,9.14775354 C4.80748081,9.17149418 4.80593291,9.17957948 4.80455654,9.18671862 C4.74735769,9.48725879 4.8212438,9.77025061 4.88635781,10.0200408 C4.93946992,10.2076294 5.00522165,10.3914069 5.08316196,10.5701125 L5.33277994,11.1810833 L5.27669741,10.5879182 C5.26948794,10.4116329 5.29425872,10.2354989 5.34981095,10.0680401 Z" id="Path" fill="#FFFFFF" fill-rule="nonzero"></path>
                    <path d="M5.80736926,11.4083343 C5.80684826,11.4343165 5.80602426,11.4602877 5.80562826,11.4862824 C5.80517692,11.5158501 5.80476226,11.5454294 5.80438426,11.5750202 L5.87892526,11.5697194 L5.83185326,11.4664039 C5.82305526,11.4471057 5.81581026,11.4276609 5.80736926,11.4083343 Z" id="Path" fill="#FFFFFF" fill-rule="nonzero"></path>
                    <path d="M5.70135839,11.0211818 C5.68902571,10.9640569 5.67799401,10.9068021 5.66776392,10.8494836 C5.66494133,10.8336941 5.66258144,10.8178672 5.65992,10.8020673 C5.65178628,10.7537478 5.64438709,10.7053745 5.63772242,10.6569476 C5.63499666,10.637078 5.63232761,10.6171975 5.62985222,10.597312 C5.62327193,10.5443783 5.6175751,10.4914015 5.61276173,10.4383816 C5.61179343,10.4276507 5.61047931,10.4169406 5.60958432,10.4062167 C5.60433199,10.3434467 5.60057429,10.2806144 5.59783262,10.2177614 C5.59705314,10.1998644 5.59667135,10.1819682 5.59609591,10.1640712 C5.59455816,10.1163544 5.59373579,10.0686262 5.59362882,10.0208867 C5.59359078,10.0020228 5.59348357,9.9831638 5.5936717,9.96429925 C5.59431147,9.90076012 5.59578467,9.83721614 5.59899735,9.7736936 C5.59951331,9.7623396 5.60088968,9.75115712 5.60209383,9.73988888 C5.60650705,9.70953269 5.60754554,9.67878118 5.60519032,9.64819643 C5.60379216,9.63369662 5.60042086,9.6194556 5.5951698,9.6058679 C5.59328372,9.60170921 5.59114532,9.59766964 5.58876657,9.59377176 C5.57766371,9.57134266 5.5595403,9.55315271 5.53715205,9.54196772 C5.52269461,9.53531177 5.50696313,9.53187803 5.49104715,9.53190432 C5.47253574,9.53222828 5.4543094,9.53652088 5.43759908,9.54449222 C5.42807838,9.54875277 5.41896291,9.55386643 5.41036427,9.55977061 C5.37399281,9.58738142 5.345201,9.62374836 5.32667066,9.66548403 C5.2657158,9.77814653 5.21667949,9.89686018 5.18035781,10.0196978 C5.16298236,10.0806827 5.14577568,10.1454529 5.13158663,10.212545 C5.10354536,10.1350451 5.07791516,10.0561681 5.05683873,9.97548519 C4.9963698,9.74384438 4.92781487,9.48123735 4.97761867,9.21974939 C4.99244148,9.13537151 4.95385649,9.05056355 4.88050651,9.00630156 C4.78598773,8.93199455 4.71209869,8.83469506 4.66589671,8.72369637 C4.58298221,8.55237041 4.52025744,8.37198971 4.47898444,8.18618352 C4.47812403,8.18218375 4.47760807,8.17792599 4.4770921,8.17358179 C4.47649522,8.16907159 4.47553314,8.16283573 4.47427988,8.15595389 C4.47394167,8.15407262 4.47357579,8.15248669 4.47315666,8.15047055 C4.47159404,8.14298806 4.46961986,8.13559747 4.46724311,8.12833245 C4.46675896,8.12683781 4.46648231,8.12555274 4.46594213,8.12403666 C4.4625772,8.11462887 4.45835157,8.10555157 4.45331896,8.09692012 C4.45207401,8.09476427 4.45055239,8.09278063 4.44916911,8.09064692 C4.44415462,8.08302631 4.43835963,8.07594901 4.43187804,8.06952968 C4.41353758,8.05110822 4.39020135,8.03846446 4.36475343,8.03316104 L4.33556611,8.02677994 C4.3389102,8.05754628 4.34234006,8.08830294 4.34540403,8.11909072 C4.39086916,8.12930559 4.38612726,8.17284035 4.39275043,8.20445671 C4.4356505,8.39668398 4.50047191,8.58335219 4.58594213,8.76079677 C4.63838566,8.885082 4.72168545,8.99392394 4.82795343,9.07701579 C4.87344008,9.10162893 4.89866958,9.15206859 4.8910838,9.20322813 C4.8391034,9.47607562 4.90352369,9.73709118 4.9716,9.9977872 C5.03071751,10.2018523 5.10334803,10.4017577 5.18901026,10.5961784 C5.18039271,10.4089648 5.20618326,10.2217581 5.26510202,10.0438485 C5.29976757,9.92688468 5.34651108,9.81384589 5.40457729,9.70655862 C5.41675652,9.67762502 5.43586906,9.65213331 5.46022893,9.63233222 C5.49209844,9.61032277 5.51349441,9.61722052 5.51758063,9.65708888 C5.5182393,9.69456918 5.5160323,9.73204502 5.5109789,9.76918893 C5.48188756,10.3525502 5.55789956,10.9363905 5.73538859,11.4928565 C5.75068911,11.4912657 5.76605326,11.4897814 5.78140703,11.4882702 C5.7807728,11.4376606 5.78141256,11.3870407 5.7815419,11.3364256 C5.75143055,11.2310884 5.72436795,11.1253854 5.70148219,11.0192148 L5.70135839,11.0211818 Z" id="Path" fill="#FFFFFF" fill-rule="nonzero"></path>
                    <polygon id="Path" fill="#FFFFFF" fill-rule="nonzero" points="5.77261369 11.5953159 5.80301369 11.5923159 5.80301369 11.5917159 5.77251369 11.5948159"></polygon>
                    <path d="M5.74021737,11.4933249 C5.75179137,11.5213185 5.76197337,11.5494607 5.77413837,11.5773955 C5.77570837,11.5809986 5.77683837,11.5846611 5.77838237,11.5882695 L5.80892937,11.5858817 C5.80821437,11.5533481 5.80728937,11.5207917 5.80675237,11.4882695 C5.78455337,11.4899353 5.76233937,11.4915707 5.74021737,11.4933249 Z" id="Path" fill="#FFFFFF" fill-rule="nonzero"></path>
                    <path d="M5.51098375,9.76918824 C5.51603714,9.73204433 5.51824415,9.69456849 5.51758548,9.65708818 C5.51349925,9.61721983 5.49210329,9.61032207 5.46023378,9.63233153 C5.4358739,9.65213262 5.41676136,9.67762433 5.40458213,9.70655793 C5.34651593,9.8138452 5.29977241,9.92688398 5.26510686,10.0438478 C5.2061881,10.2217574 5.18039755,10.4089641 5.1890151,10.5961778 C5.10335287,10.401757 5.03072235,10.2018516 4.97160484,9.99778651 C4.90352853,9.73708841 4.83910824,9.47607285 4.89108865,9.20322744 C4.89867442,9.1520679 4.87344492,9.10162824 4.82795827,9.0770151 C4.72169029,8.99392324 4.6383905,8.8850813 4.58594697,8.76079608 C4.50047675,8.5833515 4.43565534,8.39668329 4.39275527,8.20445602 C4.3861321,8.17283965 4.39087401,8.1293049 4.34540888,8.11909003 L4.34556519,8.12058467 L4.34555965,8.12060127 L4.34557003,8.12061164 C4.39641703,8.3738408 4.48191263,8.6188565 4.59964496,8.84874674 C4.64888089,8.95023665 4.72431492,9.03674464 4.81815769,9.09933787 C4.86372379,9.12310583 4.88334382,9.17792268 4.86320853,9.22520646 C4.83662721,9.33486644 4.83290313,9.44882422 4.85226813,9.55998571 C4.89164154,9.84381707 4.96633381,10.1216149 5.07460841,10.3869206 C5.11586421,10.4900327 5.16128576,10.5914718 5.20480461,10.6936752 C5.18586188,10.3197098 5.28479131,9.94923312 5.48764081,9.6344936 C5.4388509,10.2635176 5.5156436,10.8959641 5.71355066,11.4950338 C5.72080323,11.4942591 5.72813049,11.493609 5.73539343,11.4928565 C5.55790432,10.9363903 5.48189232,10.3525498 5.51098375,9.76918824 L5.51098375,9.76918824 Z" id="Path" fill="#FFFFFF" fill-rule="nonzero"></path>
                    <path d="M8.01276163,11.2039223 C8.02830763,11.1739756 8.04356163,11.1439606 8.05888563,11.113966 L8.02795763,11.1039223 C8.02255363,11.1372645 8.01701363,11.1706151 8.01276163,11.2039223 Z" id="Path" fill="#FFFFFF" fill-rule="nonzero"></path>
                    <path d="M8.44839424,9.44281729 C8.49852186,9.45741255 8.54085464,9.49121857 8.56617683,9.53687585 C8.74432669,9.77954282 8.76151331,10.069153 8.80522029,10.3510914 L8.84194651,10.3519905 L8.84194651,10.3519961 L8.84195205,10.3519961 C8.91805229,10.132381 8.97044366,9.90525605 8.99823216,9.67449683 C9.02968669,9.36518386 9.0157736,9.06650421 8.84729014,8.79359239 C8.8267146,8.76606412 8.82504995,8.72875831 8.84309187,8.69950686 C8.88119654,8.62524795 8.91609199,8.54933948 8.95230225,8.47410744 L8.95235066,8.47389994 C8.95062156,8.47318478 8.9489962,8.47241637 8.94714121,8.47178213 C8.88069372,8.51777637 8.87654386,8.60016622 8.83633107,8.66149003 C8.80108537,8.71117453 8.80095405,8.77767201 8.83600323,8.82749533 C8.98969245,9.08669879 9.00087424,9.37027159 8.97417752,9.6598762 C8.94755709,9.88594578 8.89765538,10.1086609 8.82526686,10.3244756 C8.82345165,10.333053 8.82355628,10.3419257 8.82557326,10.3504579 C8.81989072,10.3436355 8.82428818,10.3357916 8.8233102,10.3288786 C8.81024729,10.1388845 8.77425908,9.95116689 8.71612911,9.7698128 C8.6858758,9.67761641 8.64040858,9.59113213 8.58161084,9.51394236 C8.54995159,9.47142363 8.51350202,9.41479816 8.45596841,9.43582893 C8.40658997,9.45387597 8.4214762,9.51810329 8.42320184,9.56307873 C8.42772678,9.82593727 8.39048955,10.0878474 8.31288069,10.3390285 C8.23251822,10.5993181 8.13830224,10.8551268 8.03063585,11.1053602 C8.12037164,10.8102363 8.06430017,10.508732 7.95430755,10.2155793 C7.81805814,9.87135098 7.60719411,9.56160703 7.33689061,9.30863862 C7.29886617,9.27142824 7.26192761,9.19808646 7.20403366,9.22826974 C7.15578398,9.25342893 7.18892196,9.32516888 7.19348611,9.37612565 C7.2126865,9.54072352 7.21178396,9.70704637 7.19079839,9.87142617 C7.12630271,10.2882329 6.94152415,10.6544348 6.70331896,10.9967184 C6.69353598,11.0161622 6.67746358,11.0317252 6.65771481,11.040877 C6.67113209,10.9738043 6.67608255,10.9053134 6.67245026,10.8370084 C6.62728751,10.4451185 6.51970491,10.0629803 6.35378282,9.70508749 C6.32354836,9.63554905 6.27495977,9.62363066 6.2080883,9.66080023 C6.13489661,9.70390338 6.074806,9.76610124 6.03425014,9.84073452 C5.96514205,9.96357141 5.91637633,10.0967864 5.88984553,10.2352095 C5.84104807,10.476998 5.80872657,10.7218213 5.79310409,10.9679896 C5.78404357,11.0910564 5.78186836,11.2137635 5.78155366,11.3364277 C5.78841337,11.3604152 5.79529452,11.3843979 5.80253049,11.4083371 C5.80291936,11.1699235 5.81618526,10.9317049 5.8422702,10.6947223 C5.86223076,10.4434266 5.91641959,10.1960345 6.00333441,9.9594045 C6.04219443,9.84964296 6.11408801,9.75460681 6.20913821,9.68735239 C6.26886017,9.6483389 6.30884196,9.6436136 6.33539343,9.7233766 C6.36095101,9.8001351 6.3989215,9.87271677 6.42542524,9.94922213 C6.54964841,10.3078119 6.68373648,10.6648745 6.62875643,11.0566769 C6.62067316,11.0786844 6.62945578,11.1033254 6.64963643,11.115259 C7.06158847,10.5542096 7.33576945,9.95589372 7.20008991,9.23291412 C7.21671285,9.23649476 7.22418536,9.23581902 7.22790017,9.23923089 C7.54080128,9.51455036 7.78453866,9.85962439 7.93941303,10.2465635 C8.00438769,10.4152387 8.0410808,10.5934804 8.04801337,10.7741042 C8.04709363,10.8848232 8.0360337,10.9952252 8.01497222,11.1039265 L8.03636334,11.1114654 C8.2840717,10.5851461 8.4858702,10.0464823 8.44839424,9.44281729 Z" id="Path" fill="#FFFFFF" fill-rule="nonzero"></path>
                    <path d="M5.82096811,11.486281 C5.82136811,11.4602877 5.82218811,11.4343165 5.82270911,11.4083329 C5.81224711,11.3843938 5.80229811,11.3604111 5.79238011,11.3364235 C5.79219311,11.3870386 5.79126811,11.4376586 5.79218511,11.4882681 C5.80178511,11.4876138 5.81135311,11.4869201 5.82096811,11.486281 Z" id="Path" fill="#FFFFFF" fill-rule="nonzero"></path>
                    <path d="M5.80586013,11.6873001 C5.80239333,11.6504044 5.79124506,11.6140481 5.77276013,11.5793554 L5.74657413,11.5811537 C5.77251113,11.6335159 5.79761713,11.685959 5.82622113,11.7380625 C5.82713113,11.6838677 5.82789313,11.6296904 5.82850713,11.5755306 L5.80315913,11.5772722 C5.80404913,11.6139444 5.80477213,11.650598 5.80586013,11.6873001 Z" id="Path" fill="#FFFFFF" fill-rule="nonzero"></path>
                    <polygon id="Path" fill="#FFFFFF" fill-rule="nonzero" points="5.7812402 11.593937 5.7550402 11.596637 5.7552402 11.597037 5.7813402 11.594437"></polygon>
                    <polygon id="Path" fill="#FFFFFF" fill-rule="nonzero" points="5.7943951 11.5925947 5.7943951 11.5931947 5.8197951 11.5906947 5.8197951 11.5898947"></polygon>
                    <path d="M5.74979618,11.4928558 C5.73929618,11.4937109 5.72870118,11.4944497 5.71821518,11.49533 C5.73171518,11.5279523 5.74759718,11.5603129 5.76178218,11.5928558 L5.78796118,11.5907337 C5.78641418,11.5870137 5.78528718,11.5832379 5.78371718,11.5795235 C5.77155218,11.5507272 5.76137318,11.5217149 5.74979618,11.4928558 Z" id="Path" fill="#FFFFFF" fill-rule="nonzero"></path>
                    <path d="M5.79456902,11.586279 L5.81993102,11.5842837 C5.82032035,11.5516221 5.82073502,11.5189538 5.82117502,11.486279 C5.81156002,11.4869848 5.80199202,11.4877509 5.79239202,11.4884751 C5.79293402,11.5210626 5.79385402,11.5536823 5.79456902,11.586279 Z" id="Path" fill="#FFFFFF" fill-rule="nonzero"></path>
                    <path d="M8.05327954,7.15082421 C8.14115491,7.12281383 8.23241144,7.10680277 8.3245736,7.10322536 C8.30628352,7.15386875 8.28236075,7.2022966 8.25325556,7.24759746 C8.1908046,7.35245981 8.14605251,7.46689273 8.12079631,7.5863011 C8.08877841,7.72062813 8.0919671,7.86094471 8.13005395,7.99367862 C8.15547735,8.07619988 8.20042029,8.09466674 8.28154444,8.06651758 C8.31963348,8.05230482 8.35462076,8.03087297 8.38458605,8.00339827 C8.48066196,7.91764032 8.54993198,7.80596481 8.58407308,7.68178997 C8.66216991,7.42595758 8.65944968,7.16271216 8.66121268,6.90735147 C8.6842596,6.97707804 8.71683804,7.05134732 8.74553568,7.12702548 C8.75523389,7.15259343 8.76413118,7.18475274 8.80072876,7.18393037 C8.75053856,7.0631313 8.70034836,6.94233452 8.65015816,6.82154006 C8.63367493,6.92799562 8.6397932,7.03053164 8.63233107,7.13207378 C8.61894501,7.31413141 8.62139066,7.49838847 8.55994305,7.67479055 C8.50513522,7.83211366 8.4312581,7.97095193 8.27015585,8.04517003 C8.20445602,8.075437 8.16886133,8.0547555 8.15215262,7.99029718 C8.12070299,7.866151 8.11717601,7.7365753 8.14182571,7.61090213 C8.17805748,7.44626409 8.24509855,7.2899633 8.33941487,7.15023908 C8.35296207,7.128563 8.36898259,7.10131712 8.35740311,7.08094755 C8.34426951,7.05785222 8.31123942,7.06829049 8.28833775,7.07229233 C8.17427367,7.08702308 8.0626239,7.11659778 7.95622478,7.16026513 C7.99114444,7.1847147 8.02208646,7.16012749 8.05327954,7.15082421 Z" id="Path" fill="#FFFFFF" fill-rule="nonzero"></path>
                    <path d="M5.88827066,6.89826813 L5.89128138,6.93267458 L5.89136715,6.9326317 C5.89589383,6.93676261 5.89998655,6.94134526 5.90358156,6.94630824 C5.90977452,6.95392046 5.91588173,6.96157556 5.92147297,6.96948934 C6.03434544,7.12230415 6.13179026,7.28593244 6.21237787,7.45797372 C6.27851196,7.21379356 6.37082622,6.97747068 6.48771458,6.75311654 L6.60799124,6.52248069 L6.55645695,6.52243781 L6.55645695,6.52241084 C6.28760174,6.54362565 6.03786895,6.66970458 5.86115827,6.87343608 C5.86169014,6.87392576 5.8621902,6.87456 5.86272277,6.87504346 L5.88827066,6.89826813 Z" id="Path" fill="#FFFFFF" fill-rule="nonzero"></path>
                    <path d="M6.6103366,6.52248069 L6.67875666,6.93632991 C6.71588409,7.18569988 6.78639005,7.42894183 6.88837764,7.65951147 C7.00315352,7.47873318 7.07116888,7.27224849 7.08630017,7.05864761 C7.08756606,6.98247745 7.08076154,6.9063874 7.06600046,6.83165049 C7.05903285,6.78778236 7.05206594,6.74391493 7.04767885,6.69961591 L7.03758086,6.5983698 C6.93644177,6.55774944 6.82988491,6.5322042 6.72132173,6.52255193 L6.72132173,6.5225789 C6.6843313,6.52254063 6.64733625,6.5225079 6.6103366,6.52248069 Z" id="Path" fill="#FFFFFF" fill-rule="nonzero"></path>
                    <path d="M5.80356104,6.94027573 C5.82506369,6.95306739 5.84381069,6.97000366 5.85871331,6.99010098 C6.01523136,7.19786154 6.13968962,7.42793125 6.22793153,7.6726264 C6.28552377,7.39353531 6.37646826,7.12238238 6.49880646,6.86500703 C6.49956035,6.86350021 6.50018954,6.86193417 6.50068772,6.86032461 C6.50108542,6.8597381 6.50172519,6.85875458 6.50299435,6.85664715 C6.51867597,6.83070225 6.52799239,6.7893932 6.56254963,6.7923555 C6.60000899,6.79557026 6.5982619,6.8389819 6.60305222,6.86758755 C6.63065732,7.049688 6.67125643,7.22957992 6.72453856,7.40588542 C6.75688923,7.51352493 6.79848047,7.61816775 6.84884818,7.71864622 C6.8752385,7.76923435 6.8998015,7.76700311 6.9272189,7.72123712 C7.09535723,7.44058859 7.19731435,7.1456189 7.12894755,6.81196841 C7.12083043,6.77234767 7.08962282,6.73018928 7.12666513,6.6886596 C7.12965994,6.68884219 7.13242305,6.68926133 7.13521314,6.68965971 L7.13303032,6.66966571 L7.13304138,6.66966571 L7.13303032,6.66966086 C7.1128388,6.63815727 7.08269443,6.61430854 7.04739043,6.60190686 C7.04414386,6.60062732 7.04083712,6.5996279 7.03758501,6.5983698 L7.047683,6.69961591 C7.05207009,6.74391424 7.059037,6.78778167 7.06600461,6.83165049 C7.08076569,6.9063874 7.08757021,6.98247745 7.08630432,7.05864761 C7.07117303,7.27224849 7.00315767,7.47873318 6.88838179,7.65951147 C6.7863942,7.42894183 6.71588823,7.18569988 6.67876081,6.93632991 L6.61034075,6.52248069 L6.60799677,6.52248069 L6.48772012,6.75311654 C6.37083175,6.97747068 6.27851749,7.21379356 6.2123834,7.45797372 C6.13179579,7.28593244 6.03435098,7.12230415 5.9214785,6.96948934 C5.91588726,6.96157556 5.90978006,6.95392046 5.90358709,6.94630824 C5.89999209,6.94134526 5.89589936,6.93676261 5.89137268,6.9326317 L5.89128692,6.93267458 L5.8882762,6.89826813 L5.86272968,6.87504346 C5.86219712,6.87455931 5.86169706,6.87392576 5.86116519,6.87343608 C5.84161245,6.89507481 5.82211366,6.91681522 5.80356104,6.94027089 L5.80356104,6.94027573 Z" id="Path" fill="#FFFFFF" fill-rule="nonzero"></path>
                    <path d="M6.13925948,7.51058836 C6.16871447,7.57918063 6.19668104,7.64841268 6.23490398,7.74040669 C6.30035297,7.41096028 6.41173413,7.09233496 6.56578582,6.79386121 C6.57609683,6.85591055 6.58398847,6.90337522 6.59187527,6.95084542 C6.63386495,7.23439814 6.71849761,7.50996967 6.84290213,7.76821141 C6.86133095,7.80497775 6.87750709,7.84227112 6.91560692,7.78355965 C7.06469528,7.57093443 7.15403801,7.32221949 7.17432692,7.06332726 C7.17099994,6.93835141 7.15796495,6.81382313 7.13533971,6.69086732 L7.13521107,6.68965833 C7.13242098,6.68925994 7.12965787,6.68884081 7.12666305,6.68865821 C7.08962282,6.7301879 7.12083043,6.77234697 7.12894548,6.81196703 C7.19731228,7.14561545 7.09535654,7.4405872 6.92721683,7.72123573 C6.89979942,7.76700173 6.87523643,7.76923573 6.84884611,7.71864484 C6.79847839,7.61816636 6.75688716,7.51352355 6.72453648,7.40588403 C6.67125435,7.22957854 6.63065525,7.04968661 6.60305014,6.86758617 C6.59825983,6.83898052 6.60000692,6.79556888 6.56254755,6.79235412 C6.52799032,6.78939182 6.51867389,6.83070086 6.50299228,6.85664576 C6.50172311,6.8587532 6.50108334,6.85973671 6.50068565,6.86032323 C6.50018747,6.86193278 6.49955827,6.86349883 6.49880438,6.86500565 C6.37646618,7.12238099 6.28552169,7.39353393 6.22792945,7.67262501 C6.13968755,7.42792987 6.01522928,7.19786016 5.85871124,6.9900996 C5.84380861,6.97000227 5.82506162,6.95306601 5.80355896,6.94027435 C5.80645695,6.97398778 5.83179942,6.9951638 5.8494702,7.02018882 C5.96296017,7.17306494 6.06008882,7.3374321 6.13925948,7.51058836 L6.13925948,7.51058836 Z" id="Path" fill="#FFFFFF" fill-rule="nonzero"></path>
                    <path d="M6.7185932,5.35492772 L6.71871631,5.35487931 C6.75913314,5.33947159 6.79981902,5.32472369 6.83992392,5.30854893 C7.05874116,5.21676473 7.1773498,4.97858235 7.11874056,4.74864696 C7.06013133,4.51871157 6.84197969,4.36636749 6.60592541,4.39052748 C6.36987114,4.41468746 6.18710389,4.6080653 6.17628934,4.84510617 C6.16960184,5.08991308 6.28758363,5.24415562 6.55747435,5.34344991 C6.61136527,5.33523043 6.66641166,5.33915183 6.7185932,5.35492772 Z" id="Path" fill="#FFFFFF" fill-rule="nonzero"></path>
                    <path d="M6.7213238,6.52255055 C6.72045833,6.13334432 6.71959285,5.74415285 6.71872738,5.35497614 L6.7185932,5.35492772 C6.6671601,5.38246081 6.60448357,5.37799451 6.55747435,5.34344646 L6.55645833,6.52240738 C6.60660551,6.48984543 6.67123325,6.48990155 6.7213238,6.52255055 L6.7213238,6.52255055 Z" id="Path" fill="#FFFFFF" fill-rule="nonzero"></path>
                    <path d="M6.60799262,6.54332806 L6.60977222,6.53839206 L6.6103366,6.54332806 C6.64732841,6.54336739 6.68432415,6.54341406 6.7213238,6.54346806 L6.7213238,6.54342906 C6.67123229,6.49622618 6.60660455,6.49614778 6.55645833,6.54322906 L6.55645833,6.54326806 L6.60799262,6.54332806 Z" id="Path" fill="#FFFFFF" fill-rule="nonzero"></path>
                    <polygon id="Path" fill="#FFFFFF" fill-rule="nonzero" points="6.62288798 6.53865959 6.62627698 6.53865959 6.62546098 6.53372359"></polygon>
                    <path d="M6.7185932,5.36984212 C6.66641193,5.34703113 6.61136553,5.34135973 6.55747435,5.35324212 C6.60448357,5.40319284 6.6671601,5.40965037 6.7185932,5.36984212 Z" id="Path" fill="#FFFFFF" fill-rule="nonzero"></path>
                    <path d="M7.59861095,7.3030589 C7.60869648,7.29379089 7.61896945,7.28497937 7.62909787,7.2758566 C7.57624456,7.0784749 7.46531875,6.90152072 7.31069948,6.76793222 C7.29224369,6.75151401 7.27407839,6.73366063 7.25465983,6.71768853 C7.37598387,6.9209909 7.47825305,7.13507421 7.56016184,7.35720553 L7.59861095,7.3030589 Z" id="Path" fill="#FFFFFF" fill-rule="nonzero"></path>
                    <path d="M7.13887746,6.68332496 C7.13864618,6.68566099 7.13780441,6.68789506 7.13643666,6.68980288 C7.19531481,6.6988883 7.20780865,6.75491689 7.22911331,6.79677441 C7.35280452,7.01840958 7.45583634,7.2509577 7.53690536,7.49147689 C7.59098213,7.45250628 7.60407285,7.38818767 7.65823055,7.36793637 C7.63950571,7.35195942 7.64256484,7.32840138 7.63781256,7.30777383 C7.6353019,7.29689775 7.63192599,7.2865404 7.62909787,7.2758566 C7.61896945,7.28497937 7.60869441,7.29379089 7.59861095,7.3030589 L7.56016184,7.35720553 C7.47825305,7.13507421 7.37598387,6.9209909 7.25465983,6.71768853 C7.22179765,6.68664585 7.17824467,6.66944811 7.13303931,6.66966231 C7.13738472,6.67276952 7.13963645,6.6780383 7.13887746,6.68332496 Z" id="Path" fill="#FFFFFF" fill-rule="nonzero"></path>
                    <path d="M7.53888899,7.55168784 C7.58464945,7.48123573 7.62144277,7.42458882 7.65823055,7.36793637 C7.60407493,7.38818767 7.59098213,7.45250628 7.53690536,7.49147689 C7.45583646,7.25095699 7.35280464,7.01840817 7.22911331,6.79677233 C7.20781072,6.75491481 7.19531481,6.69888622 7.13643666,6.68980081 C7.13607631,6.69019919 7.1357381,6.69086524 7.13533971,6.69086524 C7.30341311,6.96084408 7.43887552,7.24980285 7.53888899,7.55168784 L7.53888899,7.55168784 Z" id="Path" fill="#FFFFFF" fill-rule="nonzero"></path>
                    <path d="M7.15556681,6.70034397 C7.15666417,6.69270034 7.15340855,6.68508256 7.14712581,6.68059297 L7.14710981,6.68059297 L7.15026581,6.70950097 L7.15203781,6.70970997 C7.15401535,6.70695158 7.15523242,6.70372148 7.15556681,6.70034397 L7.15556681,6.70034397 Z" id="Path" fill="#FFFFFF" fill-rule="nonzero"></path>
                    <path d="M7.15212911,6.70501569 L7.15035711,6.70480669 L7.15054311,6.70655469 C7.15111711,6.70655469 7.15160611,6.70559169 7.15212911,6.70501569 Z" id="Path" fill="#FFFFFF" fill-rule="nonzero"></path>
                    <path d="M5.21740899,6.57089706 C5.21177527,6.75113964 5.23532179,6.93125221 5.28760899,7.10787251 C5.28667856,6.89462869 5.26812061,6.68159608 5.23202599,6.46981764 L5.23201799,6.46981764 C5.22102061,6.47728892 5.21314317,6.48667064 5.20921799,6.49697706 C5.24043199,6.51598686 5.21785199,6.54803827 5.21740899,6.57089706 Z" id="Path" fill="#FFFFFF" fill-rule="nonzero"></path>
                    <path d="M5.24520798,6.47918798 C5.22761798,6.48716198 5.21002565,6.49514465 5.19243098,6.50313598 C5.20342394,6.50598505 5.21365767,6.511212 5.22240998,6.51844798 C5.2263346,6.50354684 5.23421134,6.48998245 5.24520798,6.47918798 L5.24520798,6.47918798 Z" id="Path" fill="#FFFFFF" fill-rule="nonzero"></path>
                    <path d="M5.21216124,6.49697706 C5.21056945,6.5012936 5.20929516,6.5057132 5.20822059,6.51020196 C5.21151703,6.52158505 5.21042399,6.53351368 5.20508906,6.54437741 C5.17687393,6.61843464 5.17150729,6.69696989 5.18945958,6.77309879 C5.20895717,6.88576323 5.1938048,7.00632069 5.27906704,7.10787251 C5.23443939,6.93125221 5.2143422,6.75113964 5.21915064,6.57089706 C5.21953215,6.54803827 5.23880441,6.51598686 5.21216124,6.49697706 Z" id="Path" fill="#FFFFFF" fill-rule="nonzero"></path>
                    <path d="M5.22131396,6.53092866 C5.22257296,6.52443866 5.22406596,6.51804866 5.22593096,6.51180766 C5.21717865,6.50457168 5.20694492,6.49934473 5.19595196,6.49649566 L5.19591296,6.49651866 C5.20834561,6.50445097 5.21739583,6.51671104 5.22131396,6.53092866 L5.22131396,6.53092866 Z" id="Path" fill="#FFFFFF" fill-rule="nonzero"></path>
                    <path d="M4.26098974,8.4435811 C4.19462109,8.77493649 4.07885676,9.09444328 3.91757118,9.39140818 C3.83150179,9.54037695 3.75810882,9.54887585 3.62604726,9.43942063 C3.42033494,9.26635429 3.23504925,9.07037275 3.0737879,8.85528138 C2.5029561,8.09520162 2.02130304,7.27207985 1.63829533,6.40209406 C1.3111993,5.67157335 1.06164847,4.90875109 0.893740634,4.12615331 C0.806926957,3.748678 0.752736296,3.36443607 0.731767608,2.97767447 C0.721290679,2.64904043 0.775635057,2.32156005 0.891698905,2.01392507 C1.09695424,1.44789233 1.50267527,1.12742939 2.08529844,1.03051643 C2.3937515,0.970087533 2.7132555,1.04629608 2.96122513,1.23944369 C3.24327194,1.46403236 3.47039958,1.7499719 3.6253404,2.07552346 C3.90289468,2.63275137 4.09926393,3.22683731 4.2084747,3.83970951 C4.31035222,4.39231218 4.37911547,4.9505092 4.41439677,5.51131573 C4.42477764,5.67355228 4.41728369,5.83603089 4.43399723,5.99745061 C4.45396958,6.18687508 4.45408131,6.37786871 4.43433061,6.56731643 L4.43404012,6.56966801 L4.44294847,6.5785487 C4.4485985,6.56296392 4.45505222,6.54680922 4.46082882,6.53120784 C4.4646619,6.34042444 4.46731781,6.14972749 4.45996357,5.9581819 C4.44357718,5.53127931 4.41228934,5.10655401 4.36232438,4.68249061 C4.31092578,4.1937373 4.22166633,3.70971102 4.09535032,3.23477326 C3.93620957,2.66469233 3.73320622,2.11022801 3.38020841,1.62870986 C3.04585383,1.1726317 2.61781072,0.889413026 2.01722213,1.01464738 C1.58611573,1.10453948 1.23119239,1.31741256 1.00750824,1.7071615 C0.814276772,2.05112845 0.710916427,2.43827396 0.706981801,2.83278156 C0.706569945,3.05078787 0.723277946,3.26849025 0.756959308,3.48387942 C0.840135881,4.07556855 0.976000284,4.65864505 1.1629328,5.22615769 C1.50658339,6.28009793 1.9868598,7.2844628 2.59149648,8.21360231 C2.88042398,8.66381464 3.19010767,9.09694824 3.59794167,9.45081752 C3.75296922,9.58533026 3.84159769,9.5788302 3.93975147,9.40409983 C4.11948683,9.07151864 4.24375468,8.71184013 4.30765764,8.33923919 C4.3026038,8.32093971 4.29878663,8.30210697 4.29406686,8.28365671 C4.28282144,8.33693256 4.27316611,8.39057914 4.26098974,8.4435811 Z" id="Path" fill="#FFFFFF" fill-rule="nonzero"></path>
                    <path d="M4.44502822,6.56966594 C4.43706122,6.61927539 4.41633922,6.67228841 4.47607322,6.71558663 C4.47689722,6.71519931 4.47748822,6.71473176 4.47833522,6.71434997 C4.48003722,6.65327285 4.48184555,6.59222386 4.48376022,6.531203 C4.47540422,6.54680438 4.46607722,6.56295908 4.45790822,6.57854386 L4.44502822,6.56966594 Z" id="Path" fill="#FFFFFF" fill-rule="nonzero"></path>
                    <path d="M4.32325223,8.22635343 C4.31649823,8.24540611 4.30962723,8.26445326 4.30376623,8.28365602 C4.31059023,8.30210628 4.31610923,8.32093902 4.32341623,8.3392385 C4.32921623,8.31822916 4.33541623,8.29730075 4.34086523,8.27621602 C4.33518423,8.25963112 4.32830523,8.24288991 4.32325223,8.22635343 Z" id="Path" fill="#FFFFFF" fill-rule="nonzero"></path>
                    <path d="M4.36114949,8.11791977 C4.34248087,8.15338778 4.32689965,8.18959713 4.31448949,8.22635343 C4.31954249,8.24288991 4.32642149,8.25963112 4.33210249,8.27621602 C4.34544849,8.22453648 4.35789816,8.17266536 4.36945149,8.12060265 L4.36736849,8.11882305 C4.36529649,8.1185215 4.36337249,8.11815078 4.36114949,8.11791977 Z" id="Path" fill="#FFFFFF" fill-rule="nonzero"></path>
                    <path d="M4.40088899,6.82796058 C4.30756191,7.18631408 4.27251761,7.55735242 4.2971004,7.92684242 C4.29863239,7.95725948 4.29891735,7.98889729 4.3032664,8.01971758 L4.33557095,8.02678202 C4.3295336,7.9712853 4.32370098,7.91576784 4.32021648,7.8601155 C4.30245539,7.47405887 4.34848943,7.08771605 4.45646524,6.71664138 L4.4555087,6.71558801 C4.41601176,6.74249291 4.41207631,6.78736115 4.40088899,6.82796058 Z" id="Path" fill="#FFFFFF" fill-rule="nonzero"></path>
                    <path d="M4.368356,8.11944615 L4.370221,8.1197162 C4.365791,8.08873485 4.360832,8.05778482 4.355997,8.02682505 L4.30929,8.0197162 C4.31446603,8.05627763 4.3350107,8.09096627 4.368356,8.11944615 Z" id="Path" fill="#FFFFFF" fill-rule="nonzero"></path>
                    <polygon id="Path" fill="#FFFFFF" fill-rule="nonzero" points="4.36107944 8.13423222 4.35921444 8.13384422 4.36129744 8.13641722 4.36130544 8.13639322"></polygon>
                    <path d="M4.47196151,6.73256835 L4.47284051,6.72925735 C4.47199351,6.72980935 4.47140251,6.73048535 4.47057851,6.73104535 L4.47196151,6.73256835 Z" id="Path" fill="#FFFFFF" fill-rule="nonzero"></path>
                    <path d="M8.83255746,7.0951366 C8.83543407,7.04187241 8.83268597,6.98845335 8.82435873,6.93576553 C8.80182778,6.73062847 8.80545683,6.52445879 8.79539274,6.31903677 C8.7825766,6.05752669 8.8147034,5.79576484 8.82621925,5.53407769 C8.84354006,5.14052265 8.8890204,4.75023908 8.94282398,4.36070248 C9.0245815,3.69617445 9.19566718,3.04572346 9.45144692,2.42696784 C9.61999539,2.03445095 9.81184807,1.65631954 10.1330607,1.36194605 C10.3180655,1.19240922 10.524987,1.05483182 10.7794651,1.02477994 C11.3047428,0.962739597 11.9539048,1.19826882 12.2583846,1.80659481 C12.47765,2.25953407 12.5568771,2.76756703 12.4859398,3.265763 C12.3830743,4.12304609 12.1734492,4.96410871 11.8619398,5.76938974 C11.4978285,6.72857134 11.0192193,7.64027347 10.4365058,8.48469718 C10.2051555,8.81873983 9.96087009,9.14261602 9.64820749,9.40862594 C9.47163873,9.55884173 9.40361084,9.54834813 9.29266651,9.34100127 C9.17128448,9.10338299 9.07771514,8.85255706 9.01381349,8.59349602 L9.01331343,8.5955336 L8.98594444,8.58391401 C9.05192205,8.86847215 9.15627816,9.14274003 9.29614617,9.39918363 C9.39552692,9.57363458 9.48520876,9.58438686 9.63881706,9.45361037 C9.85608328,9.26541066 10.0519969,9.05389156 10.2230262,8.82286617 C10.8414315,7.990362 11.353317,7.08380112 11.746771,6.12427919 C12.1035275,5.27724369 12.3512589,4.3883267 12.4840184,3.47886571 C12.5533037,3.08236491 12.5448684,2.67617768 12.4591816,2.28289522 C12.3656984,1.89902732 12.2053867,1.54630893 11.8783594,1.30581164 C11.52971,1.04941418 11.1351929,0.925680692 10.7002748,1.01563712 C10.3664798,1.0846755 10.116673,1.29767793 9.91409499,1.55737037 C9.5417215,2.03474767 9.32616,2.59113614 9.16399885,3.16666859 C8.91363873,4.05523435 8.81787597,4.96725579 8.7825019,5.88716334 C8.77519055,6.07729591 8.76426674,6.26710133 8.77258859,6.45736254 C8.78089452,6.64722674 8.79678086,6.83679769 8.80079101,7.02682029 C8.80983908,7.04947988 8.8189404,7.07222594 8.82769245,7.09525141 L8.83255746,7.0951366 Z" id="Path" fill="#FFFFFF" fill-rule="nonzero"></path>
                    <path d="M8.81909976,7.18379274 C8.83888059,7.15602535 8.851071,7.12596849 8.85505676,7.0951366 L8.84802176,7.0952445 C8.83536776,7.07221902 8.82220876,7.04947297 8.80912676,7.02681337 C8.81072076,7.07914305 8.81168476,7.13148934 8.80995076,7.18391101 C8.81300128,7.18398533 8.81605538,7.18394742 8.81909976,7.18379274 Z" id="Path" fill="#FFFFFF" fill-rule="nonzero"></path>
                    <path d="M9.04294454,8.59349602 C9.04215154,8.59145844 9.04122654,8.5894589 9.04044454,8.58742133 C9.02436254,8.54578444 9.02679554,8.49464784 8.95420554,8.47393383 L8.95400554,8.47410605 C8.96439754,8.49448669 8.97740554,8.51442052 8.98477854,8.53531159 C8.99050654,8.55156865 8.99673254,8.5677019 9.00265554,8.58391055 L9.04222654,8.59553014 L9.04294454,8.59349602 Z" id="Path" fill="#FFFFFF" fill-rule="nonzero"></path>
                    <path d="M8.84538951,7.24246063 C8.84026521,7.21768665 8.82402199,7.19665062 8.80134986,7.1854264 C8.83125095,7.28670501 8.86301741,7.38749395 8.89070386,7.48939089 C8.97870363,7.81319239 9.03404403,8.13934271 8.95234513,8.47389648 L8.95243643,8.47393383 C9.02369499,8.39125141 9.01290536,8.28730098 9.01692173,8.19116749 C9.03063562,7.86293948 8.94055055,7.55187597 8.84538951,7.24246063 Z" id="Path" fill="#FFFFFF" fill-rule="nonzero"></path>
                    <polygon id="Path" fill="#FFFFFF" fill-rule="nonzero" points="8.96766369 8.48953905 8.96786369 8.48933905 8.96776369 8.48923905"></polygon>
                    <path d="M8.81273288,10.3573229 C8.81695388,10.3786899 8.79707088,10.4150819 8.83247588,10.4168619 C8.86124288,10.4183079 8.86332588,10.3836029 8.86582888,10.3586289 C8.85904038,10.3662954 8.84921417,10.3705748 8.83897718,10.370323 C8.82874019,10.3700712 8.81913626,10.3653139 8.81273288,10.3573229 Z" id="Path" fill="#FFFFFF" fill-rule="nonzero"></path>
                    <path d="M8.81245127,10.364503 C8.81885462,10.3724954 8.82845946,10.3772536 8.83869753,10.3775054 C8.84893561,10.3777572 8.85876274,10.3734769 8.86555127,10.365809 L8.86555127,10.365801 L8.81245127,10.364503 Z" id="Path" fill="#FFFFFF" fill-rule="nonzero"></path>
                    <path d="M7.50407931,21.6362317 C7.53936291,21.6522531 7.57998084,21.6515582 7.61469579,21.6343394 C7.98267022,21.4853353 8.33553918,21.3014551 8.66847631,21.0852138 C8.80640794,20.9944608 8.93866055,20.8953575 9.0644936,20.788459 C9.24251229,20.6428546 9.36762901,20.4426797 9.4205132,20.2188616 L9.42404058,20.2035514 C9.45070548,20.086053 9.47590824,19.9750928 9.43625499,19.8746262 C9.34757256,19.6504689 8.97873337,19.4013669 8.73152715,19.3986142 C8.72886017,19.3986142 8.72610813,19.3985284 8.72344115,19.3985284 C8.37920576,19.3985284 8.14464069,19.636448 8.12494271,20.0067465 C8.10604029,20.3582719 8.00131715,20.6998159 7.8199283,21.0015202 L7.81124058,21.0167454 C7.80582156,21.026207 7.80040254,21.0356687 7.79455331,21.0450446 C7.72918133,21.1498976 7.65882052,21.2532892 7.59078225,21.3532406 C7.55078455,21.4119036 7.51078755,21.4705667 7.47165026,21.5298315 C7.45713696,21.5470989 7.44994503,21.5693538 7.45160853,21.591849 C7.46267633,21.612892 7.48149209,21.6288074 7.50407931,21.6362317 L7.50407931,21.6362317 Z" id="Path" fill="#FFFFFF" fill-rule="nonzero"></path>
                    <path d="M7.46718156,21.716196 C7.52492792,21.742556 7.59132108,21.7423083 7.64886916,21.7155182 C8.02173281,21.5639465 8.37944078,21.377483 8.71722398,21.1586137 C8.85809051,21.0658238 8.9931924,20.9645654 9.12178375,20.8553976 C9.31438441,20.6976201 9.4495741,20.4807273 9.50640622,20.2383251 C9.53595804,20.1077796 9.56982156,19.9731168 9.51809914,19.8423188 C9.41464323,19.5806746 9.01421256,19.3136002 8.73250513,19.3105632 C8.33898259,19.3063159 8.05940957,19.5800182 8.03691043,20.0021367 C8.01920369,20.339485 7.91868147,20.6672795 7.74422524,20.9565586 C7.73597879,20.9704392 7.72845579,20.9845515 7.71987251,20.9983248 C7.61764772,21.1623998 7.50486986,21.3198695 7.39818329,21.4811965 C7.33221441,21.5809508 7.35877141,21.6662511 7.46718156,21.716196 Z M7.47164957,21.5298315 C7.51078686,21.4705667 7.55078386,21.4119064 7.59078156,21.3532406 C7.65881983,21.2532906 7.72917925,21.1498976 7.79455262,21.0450446 C7.80040184,21.0356687 7.80582086,21.026207 7.81123988,21.0167454 L7.81992761,21.0015202 C8.00131646,20.6998159 8.1060396,20.3582719 8.12494202,20.0067465 C8.14464,19.636448 8.37920507,19.3985284 8.72344046,19.3985284 C8.72610744,19.3985284 8.72885948,19.3986142 8.73152646,19.3986142 C8.97873614,19.4013669 9.34757256,19.6504689 9.43625429,19.8746262 C9.47590755,19.9750928 9.45070478,20.086053 9.42403988,20.2035514 L9.42051251,20.2188616 C9.36762832,20.4426797 9.2425116,20.6428546 9.06449291,20.788459 C8.93865985,20.8953575 8.80640725,20.9944608 8.66847562,21.0852138 C8.33553849,21.3014551 7.98266953,21.4853353 7.6146951,21.6343394 C7.57998015,21.6515582 7.53936222,21.6522531 7.50407862,21.6362317 C7.48149168,21.6288067 7.46267642,21.6128908 7.45160922,21.5918476 C7.44994591,21.5693523 7.4571381,21.5470974 7.47165164,21.5298301 L7.47164957,21.5298315 Z" id="Shape" fill="#FFFFFF" fill-rule="nonzero"></path>
                    <path d="M4.58572911,20.8837646 C4.64378974,20.930299 4.70761383,20.9773501 4.78674813,21.031884 C5.11412327,21.2451183 5.45745599,21.4327872 5.81369222,21.5932212 C5.86404598,21.615425 5.91694254,21.6313431 5.97118755,21.640616 C6.0154092,21.6483335 6.06005534,21.6294589 6.08533072,21.5923608 C6.08920392,21.5845335 6.08868519,21.5719753 6.05737522,21.5318054 C6.02658327,21.4900934 5.99974496,21.445603 5.9772083,21.3989111 C5.95969025,21.3614203 5.93823794,21.325897 5.91321268,21.2929397 C5.82885865,21.1926496 5.75407172,21.084688 5.68982939,20.9704662 C5.52157409,20.6660615 5.42706332,20.3264355 5.41389026,19.9788747 C5.409662,19.6571052 5.14759694,19.3984899 4.82579965,19.3985256 L4.82519723,19.3985256 C4.63903051,19.3995742 4.46046999,19.4725209 4.32682167,19.6021252 C4.06587517,19.8244285 4.01735939,20.2089709 4.21491389,20.4891209 C4.31700441,20.6393442 4.4421466,20.772528 4.58572911,20.8837646 L4.58572911,20.8837646 Z" id="Path" fill="#FFFFFF" fill-rule="nonzero"></path>
                    <path d="M4.53058513,20.9524433 C4.59752161,21.0062082 4.66671078,21.0561033 4.7368136,21.1044277 C5.06773395,21.3205934 5.41503689,21.510575 5.77555228,21.6726384 C5.83258391,21.6981883 5.89259763,21.716477 5.95418559,21.7270755 C6.03024572,21.7412749 6.10770912,21.7105948 6.15342017,21.6481667 C6.20335262,21.5871756 6.16455908,21.5260226 6.12688392,21.4776885 C6.06785014,21.4019537 6.03850305,21.3047965 5.98049084,21.2360535 C5.89962712,21.1400678 5.82800562,21.0366624 5.7665796,20.9272136 C5.60551682,20.6343434 5.51487065,20.3079889 5.50182294,19.9740069 C5.49582446,19.6052034 5.19470779,19.3096066 4.82585637,19.3104301 C4.61735826,19.3109984 4.41718227,19.3922937 4.26732795,19.5372609 C3.97506698,19.7890769 3.92063591,20.2211497 4.14131066,20.5375836 C4.24849114,20.6954438 4.37985772,20.8354445 4.53058513,20.9524433 L4.53058513,20.9524433 Z M4.3268272,19.602128 C4.46047552,19.4725237 4.63903604,19.399577 4.82520277,19.3985284 L4.82580519,19.3985284 C5.14760248,19.3984927 5.40966754,19.657108 5.41389579,19.9788775 C5.42706885,20.3264383 5.52157962,20.6660642 5.68983493,20.9704689 C5.75407725,21.0846908 5.82886418,21.1926524 5.91321821,21.2929425 C5.93824348,21.3258998 5.95969579,21.361423 5.97721383,21.3989139 C5.9997505,21.4456058 6.02658881,21.4900962 6.05738075,21.5318082 C6.08869072,21.5719781 6.08920669,21.5845363 6.08533625,21.5923636 C6.06006088,21.6294617 6.01541473,21.6483363 5.97119308,21.6406188 C5.91694808,21.6313458 5.86405151,21.6154278 5.81369775,21.593224 C5.45746152,21.4327899 5.1141288,21.2451211 4.78675366,21.0318868 C4.70761937,20.9773529 4.64379527,20.9303018 4.58573464,20.8837674 C4.44215259,20.7725316 4.31701065,20.6393487 4.21492012,20.4891265 C4.01736308,20.2089767 4.06587744,19.8244325 4.32682444,19.602128 L4.3268272,19.602128 Z" id="Shape" fill="#FFFFFF" fill-rule="nonzero"></path>
                    <path d="M4.04417291,15.7812373 C4.22868242,15.871312 4.42501902,15.8651239 4.62879009,15.8810372 C4.95662172,15.8923976 5.26974772,15.7446871 5.46946651,15.4844659 C5.64743527,15.2776628 5.72482296,15.0027344 5.68086156,14.7334617 C5.65314813,14.5450063 5.50980795,14.486714 5.35236657,14.5879656 C5.32093349,14.6081796 5.29073637,14.6306027 5.258077,14.6485584 C5.07650282,14.7483963 4.91439009,14.7105545 4.78141487,14.5385118 C4.6681238,14.391941 4.68230248,14.2297522 4.82141741,14.0837298 C4.83865314,14.0656392 4.85605003,14.0475707 4.87469879,14.0309914 C4.95174491,13.9775448 4.98536451,13.8803962 4.95783424,13.7907597 C4.93005284,13.6950968 4.84894578,13.6244837 4.75036911,13.6101372 C4.43864155,13.5619315 4.12075616,13.643244 3.8704627,13.8352103 C3.62016923,14.0271765 3.45922208,14.3131116 3.42496115,14.6266783 C3.37528864,15.1020549 3.62069075,15.5596225 4.04417291,15.7812373 L4.04417291,15.7812373 Z" id="Path" fill="#FFFFFF" fill-rule="nonzero"></path>
                    <path d="M7.75671354,15.5641867 C7.97921499,15.8043811 8.26919101,15.8691078 8.56268473,15.8747149 C8.62766386,15.8747149 8.67454271,15.8754405 8.72138905,15.8746077 C9.25500519,15.865081 9.75729476,15.3490451 9.75157971,14.8164636 C9.74915896,14.5905157 9.59517648,14.4947474 9.39228657,14.5946767 C9.32498982,14.6336957 9.25382228,14.6656194 9.17992945,14.6899338 C9.02581774,14.72619 8.86646807,14.6550638 8.79055124,14.5161337 C8.70052267,14.3962637 8.7094621,14.2290788 8.81175977,14.1194926 C8.8458702,14.0789146 8.8854536,14.0428689 8.91880669,14.0017259 C8.98064527,13.9381202 9.00006507,13.8444635 8.96861477,13.7615143 C8.93716448,13.6785651 8.86053255,13.6213265 8.77206847,13.6147082 C8.40838346,13.5509713 8.036395,13.6678011 7.77445625,13.9280265 C7.48645625,14.1937515 7.43674167,14.5434329 7.48220127,14.9107311 C7.50145489,15.1523049 7.59766998,15.3813377 7.75671354,15.5641867 L7.75671354,15.5641867 Z" id="Path" fill="#FFFFFF" fill-rule="nonzero"></path>
                </g>
            </g>
        </g>
    </g>
</svg>