<?xml version="1.0" encoding="UTF-8"?>
<svg width="28px" height="26px" viewBox="0 0 28 26" version="1.1" xmlns="http://www.w3.org/2000/svg" xmlns:xlink="http://www.w3.org/1999/xlink">
    <!-- Generator: Sketch 58 (84663) - https://sketch.com -->
    <title>Shape</title>
    <desc>Created with Sketch.</desc>
    <g id="Cluster-Overview" stroke="none" stroke-width="1" fill="none" fill-rule="evenodd">
        <g id="02-Overview-Mix-content-pools-on-hover" transform="translate(-675.000000, -233.000000)" fill="#FFFFFF" fill-rule="nonzero">
            <g id="card" transform="translate(649.000000, 203.000000)">
                <g id="Icon-/-Active-/-Application" transform="translate(25.000000, 30.000000)">
                    <g id="management" transform="translate(0.600000, 0.040000)">
                        <path d="M25.5096,18.72 L25.5096,13.9824 C25.5096,13.584755 25.187245,13.2624 24.7896,13.2624 L15.12,13.2624 L15.12,7.092 C16.7970253,6.72436652 17.9277371,5.15234994 17.7428451,3.4454864 C17.557953,1.73862286 16.1168483,0.445192327 14.4,0.445192327 C12.6831517,0.445192327 11.242047,1.73862286 11.0571549,3.4454864 C10.8722629,5.15234994 12.0029747,6.72436652 13.68,7.092 L13.68,13.2624 L4.0104,13.2624 C3.61275498,13.2624 3.2904,13.584755 3.2904,13.9824 L3.2904,18.72 C1.61743316,19.0875687 0.48993397,20.6562862 0.674798158,22.3591515 C0.859662346,24.0620167 2.29752965,25.3522363 4.0104,25.3522363 C5.72327035,25.3522363 7.16113765,24.0620167 7.34600184,22.3591515 C7.53086603,20.6562862 6.40336684,19.0875687 4.7304,18.72 L4.7304,14.76 L13.68,14.76 L13.68,18.7344 C12.0029747,19.1020335 10.8722629,20.6740501 11.0571549,22.3809136 C11.242047,24.0877771 12.6831517,25.3812077 14.4,25.3812077 C16.1168483,25.3812077 17.557953,24.0877771 17.7428451,22.3809136 C17.9277371,20.6740501 16.7970253,19.1020335 15.12,18.7344 L15.12,14.7024 L24.0696,14.7024 L24.0696,18.6624 C22.3885166,19.0300979 21.2545922,20.6054133 21.4395119,22.316275 C21.6244317,24.0271367 23.0687737,25.3237783 24.7896,25.3237783 C26.5104263,25.3237783 27.9547683,24.0271367 28.1396881,22.316275 C28.3246078,20.6054133 27.1906834,19.0300979 25.5096,18.6624 L25.5096,18.72 Z M12.4776,3.816 C12.4894976,2.75718117 13.3553822,1.90734409 14.4142384,1.91525364 C15.4730945,1.92316318 16.3261868,2.78584083 16.3222789,3.84471924 C16.3183441,4.90359765 15.4588857,5.75993316 14.4,5.76 C13.8869825,5.75810005 13.3958402,5.55198429 13.0351118,5.18720277 C12.6743834,4.82242126 12.473768,4.32900666 12.4776,3.816 Z M5.9976,21.9528 C6.00051458,22.7309868 5.53398929,23.4341703 4.81587328,23.7339912 C4.09775727,24.0338121 3.2697206,23.8711217 2.71842416,23.32189 C2.16712772,22.7726584 2.00133137,21.945238 2.29845556,21.226002 C2.59557974,20.506766 3.29700775,20.0375864 4.0752,20.0375864 C4.58505326,20.0356869 5.07478387,20.2363923 5.43665484,20.5955628 C5.79852582,20.9547332 6.00289401,21.4429467 6.0048,21.9528 L5.9976,21.9528 Z M16.3152,21.9528 C16.3181116,22.7316409 15.8508044,23.4352783 15.1318025,23.7346744 C14.4128007,24.0340705 13.5841989,23.8700562 13.0334714,23.3193286 C12.4827438,22.7686011 12.3187295,21.9399993 12.6181256,21.2209975 C12.9175217,20.5019956 13.6211591,20.0346884 14.4,20.0375865 C15.4589068,20.0375865 16.3184341,20.8939007 16.3224,21.9528 L16.3152,21.9528 Z M24.7104,23.8752 C23.6496341,23.8712271 22.7925598,23.008788 22.7951999,21.948018 C22.7978521,20.887248 23.6592185,20.0290956 24.719991,20.0304135 C25.7807635,20.0317343 26.64,20.8920267 26.64,21.9528 C26.64,23.0145122 25.7793122,23.8752 24.7176,23.8752 L24.7104,23.8752 Z" id="Shape"></path>
                    </g>
                </g>
            </g>
        </g>
    </g>
</svg>