<?xml version="1.0" encoding="UTF-8"?>
<svg width="374px" height="59px" viewBox="0 0 374 59" version="1.1" xmlns="http://www.w3.org/2000/svg" xmlns:xlink="http://www.w3.org/1999/xlink">
    <g id="Logos" stroke="none" stroke-width="1" fill="none" fill-rule="evenodd">
        <g id="MayaData-Logo-White" transform="translate(-47.000000, -60.000000)" fill="#FEFEFE" fill-rule="nonzero">
            <g id="Group" transform="translate(47.000000, 60.000000)">
                <polygon id="Shape" points="107 2 131 59 124.945946 59 107 15.6447876 89.0540541 59 83 59"></polygon>
                <path d="M145.042553,32.1505792 L141.553191,26.6486486 L152.457447,9.7027027 L159,9.7027027 L145.042553,32.1505792 Z M143.734043,34.1312741 L143.734043,59 L137.845745,59 L137.845745,34.1312741 L118,2 L124.760638,2 L143.734043,34.1312741 Z" id="Shape"></path>
                <polygon id="Shape" points="176.891403 2 201 59 194.918552 59 177.108597 15.6447876 159.081448 59 153 59"></polygon>
                <polygon id="Shape" points="157.191489 2 154 8 160.808511 8 164 2"></polygon>
                <path d="M80.6976275,29.1454898 C80.4806984,26.9340446 79.8299111,24.5014549 79.1791238,22.2900097 C77.4436909,16.7613967 74.4066834,12.1173618 70.2850304,8.13676043 C67.6818812,5.70417071 64.8618028,3.71387003 61.6078662,2.16585839 C61.174008,1.94471387 60.9570789,1.94471387 60.5232206,2.16585839 C59.221646,2.82929195 58.1370005,3.27158099 57.0523549,3.93501455 C54.6661348,5.04073715 52.4968437,6.36760427 50.1106235,7.91561591 C47.7244034,9.68477207 45.3381832,11.4539282 42.951963,13.2230844 C42.3011757,13.6653734 41.6503884,14.328807 40.9996011,14.771096 C40.5657429,15.2133851 40.3488138,15.2133851 39.9149556,14.771096 C39.0472391,14.1076625 38.1795227,13.4442289 37.3118063,12.7807953 C32.9732242,9.24248303 28.4177129,6.14645975 23.4283435,3.71387003 C22.3436979,3.27158099 21.4759815,2.82929195 20.391336,2.16585839 C19.9574778,1.94471387 19.5236196,1.94471387 19.3066905,2.16585839 C19.0897614,2.38700291 18.8728322,2.38700291 18.8728322,2.38700291 C17.5712576,3.05043647 16.4866121,3.71387003 15.1850374,4.59844811 C13.0157464,6.14645975 11.0633844,7.69447139 9.32795157,9.68477207 C7.15866051,12.1173618 5.20629855,14.771096 3.68779481,17.6459748 C1.30157464,22.5111542 0.216929106,27.8186227 0,33.3472357 C0,35.1163919 0,36.6644035 0.216929106,38.4335597 C0.433858213,39.9815713 0.433858213,41.5295829 0.867716425,43.0775946 C1.51850374,46.1736178 2.38622017,49.0484966 4.12165302,51.7022308 C5.42322766,54.1348206 6.9417314,56.5674103 8.46023514,58.7788555 L18.6559031,58.7788555 C18.438974,58.1154219 18.2220449,57.4519884 18.0051158,57.0096993 C16.7035412,53.471387 15.6188957,49.9330747 14.7511792,46.3947624 C14.317321,44.4044617 13.8834628,42.1930165 13.4496046,40.2027158 C13.2326755,38.8758487 13.2326755,37.7701261 13.0157464,36.443259 C13.0157464,35.7798254 12.7988173,35.1163919 13.0157464,34.2318138 C13.0157464,32.9049467 13.2326755,31.5780795 13.4496046,30.2512124 C13.6665337,28.9243453 13.8834628,27.5974782 14.1003919,26.2706111 C14.7511792,24.2803104 15.8358248,22.2900097 17.3543285,20.9631426 C19.0897614,19.4151309 21.2590524,18.3094083 23.8622017,18.0882638 C25.8145636,17.8671193 27.3330674,18.3094083 28.8515711,19.4151309 C29.9362167,20.299709 30.8039331,21.4054316 31.2377913,22.7322987 C32.1055077,24.5014549 32.5393659,26.2706111 32.9732242,28.2609117 C33.6240115,30.914646 33.8409406,33.5683802 33.8409406,36.2221145 C33.8409406,38.2124151 33.8409406,39.9815713 33.8409406,41.971872 C33.8409406,43.9621726 33.8409406,45.9524733 33.6240115,47.7216295 C33.6240115,49.7119302 33.6240115,56.5674103 33.1901533,58.3365664 C33.1901533,58.7788555 33.1901533,58.7788555 33.6240115,58.7788555 C38.1795227,58.7788555 42.7350339,58.7788555 47.2905452,58.7788555 C47.2905452,58.7788555 47.5074743,58.7788555 47.5074743,58.7788555 C47.7244034,58.7788555 47.7244034,58.7788555 47.7244034,58.557711 C47.7244034,58.557711 47.7244034,58.3365664 47.7244034,58.3365664 C47.5074743,57.2308438 47.5074743,51.2599418 47.5074743,50.1542192 C47.2905452,48.1639185 47.2905452,46.1736178 47.2905452,43.9621726 C47.2905452,41.3084384 47.2905452,38.8758487 47.2905452,36.2221145 C47.2905452,33.7895247 47.5074743,31.356935 47.9413325,28.9243453 C48.1582616,27.1551891 48.5921198,25.386033 49.2429071,23.8380213 C49.8936944,22.2900097 50.7614109,20.7419981 51.8460564,19.6362755 C53.147631,18.3094083 54.8830639,17.6459748 56.6184967,17.6459748 C57.4862132,17.6459748 58.5708587,17.8671193 59.4385751,18.0882638 C61.6078662,18.7516974 63.5602281,20.0785645 65.0787319,22.0688652 C66.3803065,23.8380213 67.2480229,26.0494665 67.464952,28.4820563 C67.6818812,30.2512124 67.8988103,32.0203686 67.8988103,33.7895247 C67.8988103,34.4529583 67.8988103,35.3375364 67.8988103,36.0009699 C67.8988103,37.7701261 67.6818812,39.3181377 67.2480229,40.8661494 C66.8141647,43.9621726 65.9464483,47.0581959 65.0787319,50.1542192 C64.2110155,53.029098 63.1263699,56.1251212 62.0417244,59 L72.2373924,59 C73.538967,57.0096993 74.8405417,54.7982541 75.9251872,52.8079534 C77.66062,49.9330747 78.9621947,46.8370514 79.612982,43.2987391 C80.0468402,40.8661494 80.4806984,38.2124151 80.4806984,35.5586809 C81.1314857,33.3472357 81.1314857,31.1357905 80.6976275,29.1454898 Z" id="Shape"></path>
                <path d="M209,2 L224.576923,2 C225.658654,2 226.740385,2 228.254808,2.22134387 C229.769231,2.22134387 231.067308,2.44268775 232.365385,2.66403162 C235.394231,3.32806324 238.206731,4.21343874 240.802885,5.76284585 C243.399038,7.31225296 245.778846,9.08300395 247.725962,11.5177866 C249.673077,13.9525692 251.1875,16.6086957 252.269231,19.7075099 C253.350962,22.8063241 254,26.1264822 254,29.8893281 C254,33.43083 253.567308,36.5296443 252.485577,39.6284585 C251.403846,42.5059289 250.105769,45.1620553 248.158654,47.5968379 C246.427885,50.0316206 244.264423,52.0237154 241.668269,53.5731225 C239.288462,55.1225296 236.475962,56.4505929 233.663462,57.1146245 C232.365385,57.5573123 231.067308,57.7786561 229.552885,57.7786561 C228.038462,57.7786561 226.524038,58 224.793269,58 L209.216346,58 L209.216346,2 L209,2 Z M224.360577,53.3517787 C225.875,53.3517787 227.389423,53.3517787 228.6875,53.1304348 C229.985577,53.1304348 231.283654,52.9090909 232.365385,52.4664032 C234.745192,51.8023715 236.908654,50.916996 238.639423,49.5889328 C240.586538,48.2608696 242.317308,46.4901186 243.615385,44.7193676 C244.913462,42.7272727 245.995192,40.7351779 246.860577,38.3003953 C247.725962,35.8656126 247.942308,33.2094862 247.942308,30.5533597 C247.942308,27.4545455 247.509615,24.798419 246.644231,22.1422925 C245.778846,19.7075099 244.697115,17.4940711 243.182692,15.5019763 C241.668269,13.5098814 239.9375,11.9604743 237.990385,10.6324111 C236.043269,9.30434783 233.663462,8.41897233 231.283654,7.75494071 C230.201923,7.53359684 229.120192,7.31225296 227.605769,7.31225296 C226.307692,7.31225296 225.009615,7.09090909 223.927885,7.09090909 L214.408654,7.09090909 L214.408654,53.3517787 L224.360577,53.3517787 Z" id="Shape"></path>
                <polygon id="Shape" points="278.60793 0 303 58 296.740088 58 278.60793 13.9548872 260.259912 58 254 58"></polygon>
                <polygon id="Shape" points="310.691358 7.07086614 296 7.07086614 296 2 331 2 331 7.07086614 316.524691 7.07086614 316.524691 58 310.907407 58 310.907407 7.07086614"></polygon>
                <polygon id="Shape" points="349.60793 0 374 58 367.740088 58 349.60793 13.9548872 331.259912 58 325 58"></polygon>
            </g>
        </g>
    </g>
</svg>
