
<svg width="226px" height="57px" viewBox="0 0 226 57" version="1.1" xmlns="http://www.w3.org/2000/svg" xmlns:xlink="http://www.w3.org/1999/xlink">
    <g id="Logos" stroke="none" stroke-width="1" fill="none" fill-rule="evenodd">
        <g id="MDAP-Logo-Purple" transform="translate(-121.000000, -61.000000)">
            <g id="MDAP-New-Lgog-17" transform="translate(121.000000, 61.000000)">
                <polygon id="Path" fill="#262B3E" points="159.550936 0 184 57 177.785863 57 159.550936 13.6921708 141.214137 57 135 57"></polygon>
                <path d="M89.3065217,0 L105.45,0 C106.471739,0 107.8,0.1 109.230435,0.1 C110.763043,0.2 112.193478,0.4 113.521739,0.6 C116.68913,1.2 119.652174,2.2 122.308696,3.7 C125.067391,5.2 127.417391,7.1 129.46087,9.5 C131.504348,11.8 133.13913,14.6 134.263043,17.7 C135.386957,20.8 136,24.2 136,27.9 C136,31.4 135.48913,34.6 134.365217,37.6 C133.343478,40.6 131.81087,43.2 129.971739,45.6 C128.132609,48 125.884783,50 123.228261,51.6 C120.673913,53.2 117.813043,54.4 114.85,55.2 C113.521739,55.6 112.091304,55.8 110.456522,55.9 C108.923913,56 107.186957,56 105.347826,56 L89,56 L89,0 L89.3065217,0 Z M105.347826,51.1 C106.982609,51.1 108.515217,51.1 109.945652,50.9 C111.376087,50.8 112.602174,50.6 113.828261,50.3 C116.280435,49.7 118.426087,48.7 120.469565,47.3 C122.513043,45.9 124.147826,44.3 125.680435,42.4 C127.11087,40.5 128.234783,38.3 129.052174,35.9 C129.869565,33.5 130.278261,30.9 130.278261,28.2 C130.278261,25.2 129.869565,22.4 129.052174,19.9 C128.234783,17.4 127.008696,15.2 125.578261,13.2 C124.045652,11.3 122.206522,9.7 120.163043,8.4 C118.017391,7.1 115.667391,6.2 113.113043,5.6 C111.98913,5.4 110.763043,5.2 109.332609,5.1 C107.902174,5 106.676087,5 105.45,5 L95.4369565,5 L95.4369565,51.1 L105.347826,51.1 Z" id="Shape" fill="#262B3E" fill-rule="nonzero"></path>
                <path d="M194.964481,35.3582888 L194.964481,57 L189,57 L189,7.10542736e-15 L194.964481,7.10542736e-15 L194.964481,5.0802139 L194.964481,30.2780749 L194.964481,35.3582888 Z M197.087432,30.2780749 L206.79235,30.2780749 C208.308743,30.2780749 209.521858,30.2780749 210.431694,30.1764706 C211.34153,30.0748663 212.352459,29.8716578 213.363388,29.5668449 C214.273224,29.2620321 215.18306,28.7540107 215.991803,28.0427807 C216.800546,27.3315508 217.508197,26.4171123 218.114754,25.4010695 C218.721311,24.3850267 219.226776,23.1657754 219.631148,21.8449198 C220.035519,20.5240642 220.136612,19.1016043 220.136612,17.5775401 C220.136612,14.7326203 219.631148,12.4973262 218.519126,10.6684492 C217.407104,8.83957219 216.092896,7.51871658 214.47541,6.60427807 C212.655738,5.58823529 210.128415,5.0802139 206.994536,5.0802139 L197.087432,5.0802139 L197.087432,0 L206.994536,0 C208.915301,0 210.63388,0.203208556 212.352459,0.50802139 C214.071038,0.812834225 215.587432,1.32085561 216.901639,1.93048128 C219.428962,3.2513369 221.551913,5.28342246 223.371585,7.82352941 C225.090164,10.4652406 226,13.6149733 226,17.3743316 C226,19.6096257 225.696721,21.540107 225.191257,23.368984 C224.584699,25.197861 223.877049,26.8235294 222.86612,28.2459893 C221.855191,29.6684492 220.844262,30.8877005 219.530055,31.9037433 C218.31694,32.9197861 217.002732,33.7326203 215.587432,34.1390374 C214.374317,34.5454545 213.060109,34.8502674 211.745902,34.9518717 C210.330601,35.0534759 208.612022,35.1550802 206.691257,35.1550802 L197.087432,35.1550802 L197.087432,30.2780749 Z" id="Shape" fill="#262B3E" fill-rule="nonzero"></path>
                <path d="M82.7564837,26.7261374 C82.4511092,24.4281891 81.9421518,22.2301517 81.1278198,20.0321142 C79.295573,14.6369313 76.2418282,9.941124 71.9665855,6.14451383 C69.3200067,3.74665477 66.3680534,1.84834969 63.1107256,0.149866191 C62.8053511,-0.049955397 62.3981851,-0.049955397 62.0928107,0.149866191 C60.8713127,0.649420161 59.6498148,1.24888492 58.4283169,1.84834969 C55.9853211,2.94736842 53.6441168,4.24620874 51.4047039,5.74487065 C48.8599166,7.44335415 46.4169208,9.24174844 44.0757164,11.0401427 C43.363176,11.5396967 42.752427,12.0392507 42.0398866,12.5388046 C41.5309291,12.838537 41.3273461,12.838537 40.9201801,12.5388046 C40.1058482,11.8394291 39.1897248,11.2399643 38.2736013,10.5405888 C33.7947756,7.14362177 29.112367,4.04638715 24.0227923,1.6485281 C23.0048774,1.14897413 21.885171,0.649420161 20.867256,0.249776985 C20.4600901,-0.049955397 20.1547156,-0.049955397 19.7475496,0.249776985 C19.5439666,0.349687779 19.3403836,0.449598573 19.2385922,0.549509367 C18.0170942,1.24888492 16.6938048,1.94826048 15.4723069,2.74754683 C13.3346856,4.24620874 11.2988557,5.84478145 9.46660884,7.74308653 C7.1254045,10.0410348 5.19136614,12.7386262 3.66449374,15.6360393 C1.22149791,20.3318466 0.101791493,25.5272079 0,30.9223907 C0,32.6208742 0.101791493,34.2194469 0.305374479,35.9179304 C0.407165972,37.4165923 0.610748957,38.9152542 0.916123436,40.4139161 C1.52687239,43.41124 2.54478732,46.308653 4.17345121,48.9063336 C5.59853211,51.3041927 7.02361301,53.6021409 8.5504854,56 L19.0350092,56 C18.8314262,55.4005352 18.6278432,54.8010705 18.4242602,54.2016057 C17.2027623,50.7047279 15.9812644,47.2078501 15.0651409,43.6110616 C14.5561835,41.6128457 14.1490175,39.514719 13.843643,37.5165031 C13.64006,36.2176628 13.5382686,35.0187333 13.4364771,33.719893 C13.4364771,33.0205174 13.3346856,32.3211418 13.3346856,31.6217663 C13.4364771,30.322926 13.5382686,29.0240856 13.64006,27.8251561 C13.7418515,26.5263158 13.9454345,25.2274755 14.3526005,23.9286351 C14.9633495,21.9304193 16.0830559,20.0321142 17.7117198,18.6333631 C19.5439666,17.0347904 21.7833795,16.0356824 24.3281668,15.73595 C26.2622052,15.5361285 27.9926605,15.9357716 29.5195329,17.1347012 C30.6392394,18.0338983 31.4535713,19.132917 32.0643203,20.3318466 C32.9804437,22.0303301 33.4894012,23.9286351 33.8965671,25.8269402 C34.5073161,28.4246209 34.7108991,31.0223015 34.8126906,33.6199822 C34.8126906,35.5182872 34.8126906,37.3166815 34.8126906,39.2149866 C34.7108991,41.1132917 34.7108991,43.0115968 34.7108991,45.0098127 C34.7108991,46.9081178 34.6091076,53.7020517 34.3037331,55.6003568 C34.2019416,56 34.2019416,56 34.7108991,56 C39.3933077,56 44.0757164,56 48.6563336,56 C48.7581251,56 48.8599166,56 48.9617081,56 C49.0634996,56 49.1652911,55.9000892 49.1652911,55.8001784 C49.1652911,55.7002676 49.1652911,55.7002676 49.1652911,55.6003568 C49.0634996,54.5013381 48.9617081,48.5066905 48.8599166,47.4076717 C48.7581251,45.4094558 48.6563336,43.41124 48.5545421,41.4130241 C48.4527506,38.9152542 48.4527506,36.3175736 48.5545421,33.8198037 C48.6563336,31.4219447 48.8599166,29.0240856 49.3688741,26.6262266 C49.6742485,24.9277431 50.0814145,23.2292596 50.793955,21.6306869 C51.4047039,20.132025 52.3208273,18.6333631 53.5423253,17.4344335 C54.9674062,16.1355932 56.59607,15.5361285 58.4283169,15.4362177 C59.4462318,15.4362177 60.3623553,15.6360393 61.2784787,15.9357716 C63.6196831,16.6351472 65.5537214,17.9339875 66.9788023,19.8322926 C68.4038832,21.6306869 69.1164237,23.8287244 69.5235896,26.0267618 C69.8289641,27.7252453 69.9307556,29.5236396 70.0325471,31.2221231 C70.1343386,31.9214987 70.0325471,32.6208742 69.9307556,33.3202498 C69.8289641,34.9188225 69.6253811,36.617306 69.3200067,38.2158787 C68.8110492,41.3131133 67.9967172,44.3104371 67.0805938,47.3077609 C66.1644704,50.205174 65.1465554,53.102587 64.026849,56 L74.5113728,56 C75.8346622,53.9018733 77.0561601,51.9036574 78.3794495,49.8055308 C80.1099049,46.9081178 81.4331943,43.8108831 82.0439433,40.5138269 C82.5529007,38.0160571 82.8582752,35.5182872 82.9600667,33.0205174 C83.0618582,30.9223907 82.9600667,28.824264 82.7564837,26.7261374 Z" id="Path" fill="#663399"></path>
            </g>
        </g>
    </g>
</svg>
