<?xml version="1.0" encoding="utf-8"?>
<!-- Generator: Adobe Illustrator 23.1.1, SVG Export Plug-In . SVG Version: 6.00 Build 0)  -->
<svg version="1.1" id="Layer_1" xmlns="http://www.w3.org/2000/svg" xmlns:xlink="http://www.w3.org/1999/xlink" x="0px" y="0px"
	 viewBox="0 0 89.2647629 26.5658779" style="enable-background:new 0 0 89.2647629 26.5658779;" xml:space="preserve">
<style type="text/css">
	.st0{fill:#FFFFFF;}
	.st1{fill:#D1D2D9;stroke:#000000;stroke-width:0.5;stroke-miterlimit:10;}
	.st2{fill:none;stroke:#FFFFFF;stroke-miterlimit:10;}
	.st3{fill:#EFEFF2;}
	.st4{fill:#0063FF;}
	.st5{opacity:0.6;clip-path:url(#SVGID_2_);}
	.st6{fill:none;stroke:#000000;stroke-width:13;stroke-miterlimit:10;}
	.st7{fill:#008CD6;}
	.st8{fill:#003659;}
	.st9{fill:#B8F3FF;}
	.st10{fill:none;stroke:#000000;stroke-width:3;stroke-miterlimit:10;}
	.st11{fill:#626372;}
	.st12{fill:#4D4E5A;}
	.st13{fill:#001959;}
	.st14{fill:#004ED6;}
	.st15{fill:#D1D2D9;}
	.st16{enable-background:new    ;}
	.st17{fill:#23232A;}
	.st18{fill:none;stroke:#96A3A2;stroke-width:0.3;stroke-miterlimit:10;}
	.st19{fill:#00EFE8;}
	.st20{clip-path:url(#SVGID_4_);}
	.st21{clip-path:url(#SVGID_6_);}
	.st22{opacity:0.6;clip-path:url(#SVGID_8_);}
	.st23{fill:#090A0A;}
	.st24{fill:#191B1B;}
	.st25{fill:#242021;}
	.st26{fill:#E0E1E2;}
	.st27{fill:#DEE0E1;}
	.st28{fill:none;stroke:#FFFFFF;stroke-width:2;stroke-linecap:round;stroke-miterlimit:10;}
	.st29{fill:#454345;}
	.st30{fill:#444243;}
	.st31{fill:#433F41;}
	.st32{fill:#484546;}
	.st33{fill:#434142;}
	.st34{fill:#413E3F;}
	.st35{fill:#413F40;}
	.st36{fill:#454142;}
	.st37{fill:#4A4748;}
	.st38{fill:#423F41;}
	.st39{fill:#494647;}
	.st40{fill:#3F3A3C;}
	.st41{fill:#464343;}
	.st42{fill:#474445;}
	.st43{fill:#201D1C;}
	.st44{fill:#4B4849;}
	.st45{fill:#443D3F;}
	.st46{fill:#413D3E;}
	.st47{fill:#4E494A;}
	.st48{fill:#423C3E;}
	.st49{fill:#413C3E;}
	.st50{fill:#444142;}
	.st51{fill:#4C4647;}
	.st52{fill:#433D41;}
	.st53{fill:#3E3B3B;}
	.st54{fill:#474242;}
	.st55{fill:#4A4747;}
	.st56{fill:#4C494A;}
	.st57{fill:#504C4C;}
	.st58{fill:#3F3938;}
	.st59{fill:#494547;}
	.st60{fill:#5F5857;}
	.st61{fill:#4D4341;}
	.st62{fill:#4B4748;}
	.st63{fill:#534D4D;}
	.st64{fill:#474343;}
	.st65{fill:#544E4D;}
	.st66{fill:#433F3F;}
	.st67{fill:#3D3A3C;}
	.st68{fill:#413E3E;}
	.st69{fill:#4B4646;}
	.st70{fill:#494443;}
	.st71{fill:#4F4B4C;}
	.st72{fill:#4F4C4C;}
	.st73{fill:#464142;}
	.st74{fill:#524945;}
	.st75{fill:#464040;}
	.st76{fill:#565353;}
	.st77{fill:#3C3230;}
	.st78{fill:#5C5653;}
	.st79{fill:#514E4E;}
	.st80{fill:#4F4A4C;}
	.st81{fill:#444040;}
	.st82{fill:#534F4F;}
	.st83{fill:#433D3D;}
	.st84{fill:#5C5452;}
	.st85{fill:#443A37;}
	.st86{fill:#3E393A;}
	.st87{fill:#413D3C;}
	.st88{fill:#61544D;}
	.st89{fill:#433F3E;}
	.st90{fill:#4C4949;}
	.st91{fill:#474446;}
	.st92{fill:#3A3533;}
	.st93{fill:#423C3D;}
	.st94{fill:#454242;}
	.st95{fill:#453F41;}
	.st96{fill:#464244;}
	.st97{fill:#212029;}
	.st98{fill:#3E3A3B;}
	.st99{fill:#423E3F;}
	.st100{fill:#504C4D;}
	.st101{fill:#413F41;}
	.st102{fill:#464141;}
	.st103{fill:#4E4B4C;}
	.st104{fill:#424041;}
	.st105{fill:#423E40;}
	.st106{fill:#423F3F;}
	.st107{fill:#423D3E;}
	.st108{fill:#474141;}
	.st109{fill:#3F3C3E;}
	.st110{fill:#443D3C;}
	.st111{fill:#4F4C4D;}
	.st112{fill:#393434;}
	.st113{fill:#515050;}
	.st114{fill:#403C3C;}
	.st115{fill:#3F3837;}
	.st116{fill:#393232;}
	.st117{fill:#4A4746;}
	.st118{fill:#474547;}
	.st119{fill:#575454;}
	.st120{fill:#474647;}
	.st121{fill:#3F3D3E;}
	.st122{fill:#4C494B;}
	.st123{fill:#464445;}
	.st124{fill:#3E3C3D;}
	.st125{fill:#4A4849;}
	.st126{fill:#3D3B3C;}
	.st127{fill:#4D4B4C;}
	.st128{fill:#525152;}
	.st129{fill:#3C3B3C;}
	.st130{fill:#4E4D4D;}
	.st131{fill:#403D3F;}
	.st132{fill:#4F4D4E;}
	.st133{fill:#4C4A4B;}
	.st134{fill:#3C3A3B;}
	.st135{fill:#3F3D3F;}
	.st136{fill:#3B393A;}
	.st137{fill:#4F4E4E;}
	.st138{fill:#535051;}
	.st139{fill:#3D3B3D;}
	.st140{fill:#504E4E;}
	.st141{fill:#514E4F;}
	.st142{fill:#545152;}
	.st143{fill:#393839;}
	.st144{fill:#3C393A;}
	.st145{fill:#403E3F;}
	.st146{fill:#383537;}
	.st147{fill:#545153;}
	.st148{fill:#4C4C4D;}
	.st149{fill:#4D4C4D;}
	.st150{fill:#514D4F;}
	.st151{fill:#525052;}
	.st152{fill:#565455;}
	.st153{fill:#3B3839;}
	.st154{fill:#524F50;}
	.st155{fill:#353234;}
	.st156{fill:#373435;}
	.st157{fill:#504B4C;}
	.st158{fill:#524D4E;}
	.st159{fill:#3A363A;}
	.st160{fill:#565152;}
	.st161{fill:#525151;}
	.st162{fill:#393738;}
	.st163{fill:#393737;}
	.st164{fill:#393637;}
	.st165{fill:#494648;}
	.st166{fill:#464345;}
	.st167{fill:#3D393B;}
	.st168{fill:#4D494A;}
	.st169{fill:#4F4C4E;}
	.st170{fill:#4E4B4D;}
	.st171{fill:#4D4A4B;}
	.st172{fill:#3B3739;}
	.st173{fill:#4D4A4C;}
	.st174{fill:#3A3638;}
	.st175{fill:#525051;}
	.st176{fill:#5A5658;}
	.st177{fill:#585455;}
	.st178{fill:#424142;}
	.st179{fill:#4B494A;}
	.st180{fill:#4E4A4B;}
	.st181{fill:#423F40;}
	.st182{fill:#403F40;}
	.st183{fill:#403E40;}
	.st184{fill:#3D3A3B;}
	.st185{fill:#3C3939;}
	.st186{fill:#504D50;}
	.st187{fill:#3C393B;}
	.st188{fill:#3A383B;}
	.st189{fill:#383536;}
	.st190{fill:#545252;}
	.st191{fill:#575355;}
	.st192{fill:#494749;}
	.st193{fill:#4F4D4F;}
	.st194{fill:#52504F;}
	.st195{fill:#393537;}
	.st196{fill:#4A4749;}
	.st197{fill:#4A494B;}
	.st198{fill:#3A383A;}
	.st199{fill:#4D4849;}
	.st200{fill:#504D4E;}
	.st201{fill:#3F3C3C;}
	.st202{fill:#4E4A4C;}
	.st203{fill:#504D4D;}
	.st204{fill:#514F4F;}
	.st205{fill:#3F3C3D;}
	.st206{fill:#545050;}
	.st207{fill:#2D2A2B;}
	.st208{fill:#434041;}
	.st209{fill:#535151;}
	.st210{fill:#595656;}
	.st211{fill:#524E4F;}
	.st212{fill:#3B383A;}
	.st213{fill:#2E2A2B;}
	.st214{fill:#494548;}
	.st215{fill:#5A5757;}
	.st216{fill:#514E4D;}
	.st217{fill:#565252;}
	.st218{fill:#3B3939;}
	.st219{fill:#5C5656;}
	.st220{fill:#585656;}
	.st221{fill:#434042;}
	.st222{fill:#1D1B1C;}
	.st223{fill:#2B2929;}
	.st224{fill:#4C494C;}
	.st225{fill:#555354;}
	.st226{fill:#4D484B;}
	.st227{fill:#5A585A;}
	.st228{fill:#4B484A;}
	.st229{fill:#504E50;}
	.st230{fill:#373236;}
	.st231{fill:#474143;}
	.st232{fill:#2B2D3A;}
	.st233{fill:#524C4E;}
	.st234{fill:#3D383C;}
	.st235{fill:#211E21;}
	.st236{fill:#3E3A3C;}
	.st237{fill:#373234;}
	.st238{fill:#464344;}
	.st239{fill:#575353;}
	.st240{fill:#575352;}
	.st241{fill:#605D5F;}
	.st242{fill:#393638;}
	.st243{fill:#3A3536;}
	.st244{fill:#5F5B5C;}
	.st245{fill:#484647;}
	.st246{fill:#454244;}
	.st247{fill:#514D4D;}
	.st248{fill:#595556;}
	.st249{fill:#555150;}
	.st250{fill:#675D5A;}
	.st251{fill:#474243;}
	.st252{fill:#514D4E;}
	.st253{fill:#5B5757;}
	.st254{fill:#524F4F;}
	.st255{fill:#474344;}
	.st256{fill:#454141;}
	.st257{fill:#494345;}
	.st258{fill:#555151;}
	.st259{fill:#3C3738;}
	.st260{fill:#4C4849;}
	.st261{fill:#4B4647;}
	.st262{fill:#E3E2E3;}
	.st263{fill:#434143;}
	.st264{fill:#292B36;}
	.st265{fill:#3E3B3E;}
	.st266{fill:#413E40;}
	.st267{fill:#373436;}
	.st268{fill:#3C383B;}
	.st269{fill:#535050;}
	.st270{fill:#3B3A3C;}
	.st271{fill:#3A393A;}
	.st272{fill:#514E50;}
	.st273{fill:#504D4F;}
	.st274{fill:#4E4C4E;}
	.st275{fill:#585355;}
	.st276{fill:#3D3A3D;}
	.st277{fill:#3B373A;}
	.st278{fill:#403D3E;}
	.st279{fill:#454040;}
	.st280{fill:#53504F;}
	.st281{fill:#585454;}
	.st282{fill:#2C2829;}
	.st283{fill:#4E4C4D;}
	.st284{fill:#4C4A4C;}
	.st285{fill:#4F4E50;}
	.st286{fill:#424042;}
	.st287{fill:#3E3B3D;}
	.st288{fill:#504E4F;}
	.st289{fill:#514F51;}
	.st290{fill:#383638;}
	.st291{fill:#41414B;}
	.st292{fill:#4E4D4F;}
	.st293{fill:#3A393B;}
	.st294{fill:#464243;}
	.st295{fill:#383436;}
	.st296{fill:#525050;}
	.st297{fill:#575555;}
	.st298{fill:#545151;}
	.st299{fill:#444244;}
	.st300{fill:#494849;}
	.st301{fill:#414041;}
	.st302{fill:#555252;}
	.st303{fill:#4D4B4D;}
	.st304{fill:#3D3C3E;}
	.st305{fill:#555455;}
	.st306{fill:#413D40;}
	.st307{fill:#575557;}
	.st308{fill:#3E3D3E;}
	.st309{fill:#4F4E4F;}
	.st310{fill:#525153;}
	.st311{fill:#575757;}
	.st312{fill:#515051;}
	.st313{fill:#3F3E3F;}
	.st314{fill:#515150;}
	.st315{fill:#5B5A5A;}
	.st316{fill:#373536;}
	.st317{fill:#393939;}
	.st318{fill:#3C3A3A;}
	.st319{fill:#5D5B5E;}
	.st320{fill:#393334;}
	.st321{fill:#444344;}
	.st322{fill:#514F50;}
	.st323{fill:#3A373A;}
	.st324{fill:#504F4F;}
	.st325{fill:#484648;}
	.st326{fill:#565454;}
	.st327{fill:#4E4D4E;}
	.st328{fill:#545353;}
	.st329{fill:#373537;}
	.st330{fill:#363537;}
	.st331{fill:#464446;}
	.st332{fill:#3E3C3E;}
	.st333{fill:#3A3739;}
	.st334{fill:#363336;}
	.st335{fill:#565153;}
	.st336{fill:#353436;}
	.st337{fill:#525150;}
	.st338{fill:#413D3F;}
	.st339{fill:#3F3B3D;}
	.st340{fill:#5C5759;}
	.st341{fill:#575455;}
	.st342{fill:#4F4D50;}
	.st343{fill:#5A5657;}
	.st344{fill:#444143;}
	.st345{fill:#403C3D;}
	.st346{fill:#2C292A;}
	.st347{fill:#332E30;}
	.st348{fill:#585556;}
	.st349{fill:#524E50;}
	.st350{fill:#3E3D3D;}
	.st351{fill:#393739;}
	.st352{fill:#39383A;}
	.st353{fill:#656265;}
	.st354{fill:#454344;}
	.st355{fill:#504C4E;}
	.st356{fill:#545254;}
	.st357{fill:#5B5959;}
	.st358{fill:#464546;}
	.st359{fill:#474546;}
	.st360{fill:#2B2A2A;}
	.st361{fill:#2E2C2C;}
	.st362{fill:#5A5858;}
	.st363{fill:#353335;}
	.st364{fill:#484547;}
	.st365{fill:#424141;}
	.st366{fill:#575656;}
	.st367{fill:#403F3F;}
	.st368{fill:#595555;}
	.st369{fill:#605E5E;}
	.st370{fill:#626162;}
	.st371{fill:#636060;}
	.st372{fill:#555353;}
	.st373{fill:#555355;}
	.st374{fill:#5F5C5D;}
	.st375{fill:#5B5556;}
	.st376{fill:#595657;}
	.st377{fill:#5D5B5B;}
	.st378{fill:#403B3C;}
	.st379{fill:#565354;}
	.st380{fill:#3C393C;}
	.st381{fill:#3F3C3F;}
	.st382{fill:#504C4F;}
	.st383{fill:#3E3A3D;}
	.st384{fill:#3A3738;}
	.st385{fill:#524F51;}
	.st386{fill:#5A595A;}
	.st387{fill:#535053;}
	.st388{fill:#555253;}
	.st389{fill:#605E60;}
	.st390{fill:#2B292A;}
	.st391{fill:#403D40;}
	.st392{fill:#504F50;}
	.st393{fill:#474548;}
	.st394{fill:#545354;}
	.st395{fill:#2A2F40;}
	.st396{fill:#595658;}
	.st397{fill:#5B5758;}
	.st398{fill:#545253;}
	.st399{fill:#2B3144;}
	.st400{fill:#37353D;}
	.st401{fill:#2E3447;}
	.st402{fill:#353A4E;}
	.st403{fill:#2F303B;}
	.st404{fill:#393536;}
	.st405{fill:#211F20;}
	.st406{fill:#484748;}
	.st407{fill:#4C4848;}
	.st408{fill:#433E3E;}
	.st409{fill:#2B2B37;}
	.st410{fill:#CCCBCC;}
	.st411{fill:#4A4646;}
	.st412{fill:#48423F;}
	.st413{fill:#3F3B3B;}
	.st414{fill:#3C3735;}
	.st415{fill:#403D3D;}
	.st416{fill:#3D393A;}
	.st417{fill:#393535;}
	.st418{fill:#393332;}
	.st419{fill:#3E3938;}
	.st420{fill:#383637;}
	.st421{fill:#5B5250;}
	.st422{fill:#383434;}
	.st423{fill:#E4E3E4;}
	.st424{fill:#CAC9CB;}
	.st425{fill:#363335;}
	.st426{fill:#524E4E;}
	.st427{fill:#595758;}
	.st428{fill:#4F4B4D;}
	.st429{fill:#5D595A;}
	.st430{fill:#5B595A;}
	.st431{fill:#5A5758;}
	.st432{fill:#3C3A3C;}
	.st433{fill:#514F4E;}
	.st434{fill:#565355;}
	.st435{fill:#383435;}
	.st436{fill:#4E4B4B;}
	.st437{fill:#484545;}
	.st438{fill:#555352;}
	.st439{fill:#555454;}
	.st440{fill:#383738;}
	.st441{fill:#484446;}
	.st442{fill:#4E4E4F;}
	.st443{fill:#454243;}
	.st444{fill:#565456;}
	.st445{fill:#3E3B3C;}
	.st446{fill:#5A5959;}
	.st447{fill:#5D5A5A;}
	.st448{fill:#403C3E;}
	.st449{fill:#444042;}
	.st450{fill:#444242;}
	.st451{fill:#545051;}
	.st452{fill:#413F3F;}
	.st453{fill:#3F3D3D;}
	.st454{fill:#574E4F;}
	.st455{fill:#444141;}
	.st456{fill:#343133;}
	.st457{fill:#555051;}
	.st458{fill:#383739;}
	.st459{fill:#3F3838;}
	.st460{fill:#575357;}
	.st461{fill:#5D5D5B;}
	.st462{fill:#3F3B3E;}
	.st463{fill:#423D3D;}
	.st464{fill:#3E3D3F;}
	.st465{fill:#4C4B4D;}
	.st466{fill:#3D3C3D;}
	.st467{fill:#3E3E3F;}
	.st468{fill:#433F42;}
	.st469{fill:#3D3B3E;}
	.st470{fill:#3B393B;}
	.st471{fill:#505050;}
	.st472{fill:#383538;}
	.st473{fill:#4F4B4B;}
	.st474{fill:#3E3A3A;}
	.st475{fill:#575253;}
	.st476{fill:#3A3737;}
	.st477{fill:#272424;}
	.st478{fill:#363333;}
	.st479{fill:#585256;}
	.st480{fill:#555456;}
	.st481{fill:#5D5B5C;}
	.st482{fill:#3E393B;}
	.st483{fill:#363334;}
	.st484{fill:#4C4A4D;}
	.st485{fill:#4B4A4B;}
	.st486{fill:#595757;}
	.st487{fill:#535252;}
	.st488{fill:#4D4C4E;}
	.st489{fill:#575657;}
	.st490{fill:#535353;}
	.st491{fill:#565554;}
	.st492{fill:#3A3839;}
	.st493{fill:#4A484A;}
	.st494{fill:#373538;}
	.st495{fill:#3F3B3A;}
	.st496{fill:#424040;}
	.st497{fill:#322F2F;}
	.st498{fill:#434244;}
	.st499{fill:#434043;}
	.st500{fill:#585655;}
	.st501{fill:#414042;}
	.st502{fill:#3E3C3C;}
	.st503{fill:#3C3C3D;}
	.st504{fill:#373638;}
	.st505{fill:#595453;}
	.st506{fill:#443D3B;}
	.st507{fill:#5B5858;}
	.st508{fill:#525252;}
	.st509{fill:#5C5A5B;}
	.st510{fill:#535253;}
	.st511{fill:#616060;}
	.st512{fill:#565556;}
	.st513{fill:#5C5858;}
	.st514{fill:#4B4749;}
	.st515{fill:#4D4C4F;}
	.st516{fill:#595858;}
	.st517{fill:#2B2829;}
	.st518{fill:#2D292A;}
	.st519{fill:#4C4A4A;}
	.st520{fill:#545554;}
	.st521{fill:#373535;}
	.st522{fill:#515151;}
	.st523{fill:#504E51;}
	.st524{fill:#555453;}
	.st525{fill:#535052;}
	.st526{fill:#575354;}
	.st527{fill:#595A5B;}
	.st528{fill:#575252;}
	.st529{fill:#3B3738;}
	.st530{fill:#585758;}
	.st531{fill:#585658;}
	.st532{fill:#252323;}
	.st533{fill:#595558;}
	.st534{fill:#504E4D;}
	.st535{fill:#3B383B;}
	.st536{fill:#565555;}
	.st537{fill:#545454;}
	.st538{fill:#3D383A;}
	.st539{fill:#5E5B5B;}
	.st540{fill:#626163;}
	.st541{fill:#403E3E;}
	.st542{fill:#5E5E5E;}
	.st543{fill:#403E41;}
	.st544{fill:#403F41;}
	.st545{fill:#2E2B2D;}
	.st546{fill:#312F30;}
	.st547{fill:#353236;}
	.st548{fill:#3C3945;}
	.st549{fill:#48434F;}
	.st550{fill:#49454F;}
	.st551{fill:#32394D;}
	.st552{fill:#4C4A4E;}
	.st553{fill:#545052;}
	.st554{fill:#59575A;}
	.st555{fill:#5E5A5A;}
	.st556{fill:#585657;}
	.st557{fill:#575556;}
	.st558{fill:#5A5A5A;}
	.st559{fill:#4C4B4C;}
	.st560{fill:#4B494B;}
	.st561{fill:#2C2A2A;}
	.st562{fill:#363435;}
	.st563{fill:#373637;}
	.st564{fill:#3B3A3A;}
	.st565{fill:#444446;}
	.st566{fill:#2F2C2D;}
	.st567{fill:#252222;}
	.st568{fill:#343131;}
	.st569{fill:#555152;}
	.st570{fill:#5B5658;}
	.st571{fill:#5C595B;}
	.st572{fill:#5E5B5D;}
	.st573{fill:#5A575A;}
	.st574{fill:#585859;}
	.st575{fill:#3F3A3F;}
	.st576{fill:#4A4647;}
	.st577{fill:#534F50;}
	.st578{fill:#3A3635;}
	.st579{fill:#524D4D;}
	.st580{fill:#595958;}
	.st581{fill:#3D3C3C;}
	.st582{fill:#3D3B3B;}
	.st583{fill:#383535;}
	.st584{fill:#535153;}
	.st585{fill:#5B595B;}
	.st586{fill:#535152;}
	.st587{fill:#5C5B5B;}
	.st588{fill:#434242;}
	.st589{fill:#565254;}
	.st590{fill:#434343;}
	.st591{fill:#584F4A;}
	.st592{fill:#5B5859;}
	.st593{fill:#272833;}
	.st594{fill:#434551;}
	.st595{fill:#2F313E;}
	.st596{fill:#30333E;}
	.st597{fill:#3B3C4B;}
	.st598{fill:#504C4B;}
	.st599{fill:#434243;}
	.st600{fill:#4E4C4F;}
	.st601{fill:#4C484A;}
	.st602{fill:#5B585A;}
	.st603{fill:#575554;}
	.st604{fill:#565253;}
	.st605{fill:#3C3B3B;}
	.st606{fill:#433D40;}
	.st607{fill:#585555;}
	.st608{fill:#5E5C5D;}
	.st609{fill:#585354;}
	.st610{fill:#545453;}
	.st611{fill:#5D5A5B;}
	.st612{fill:#555254;}
	.st613{fill:#504F4E;}
	.st614{fill:#363436;}
	.st615{fill:#5A595B;}
	.st616{fill:#595959;}
	.st617{fill:#3C3B3A;}
	.st618{fill:#4C4B4B;}
	.st619{fill:#595557;}
	.st620{fill:#4A474A;}
	.st621{fill:#3B3A3B;}
	.st622{fill:#383437;}
	.st623{fill:#585659;}
	.st624{fill:#535254;}
	.st625{fill:#58575A;}
	.st626{fill:#433F40;}
	.st627{fill:#534E4F;}
	.st628{fill:#3B3737;}
	.st629{fill:#5D5859;}
	.st630{fill:#605C5C;}
	.st631{fill:#2E2C2D;}
	.st632{fill:#322F30;}
	.st633{fill:#535355;}
	.st634{fill:#545455;}
	.st635{fill:#4D4D4E;}
	.st636{fill:#373739;}
	.st637{fill:#3D3D3F;}
	.st638{fill:#555556;}
	.st639{fill:#363434;}
	.st640{fill:#383939;}
	.st641{fill:#3F3E40;}
	.st642{fill:#585858;}
	.st643{fill:#5A5A5B;}
	.st644{fill:#353334;}
	.st645{fill:#444445;}
	.st646{fill:#3D3D3E;}
	.st647{fill:#565757;}
	.st648{fill:#585759;}
	.st649{fill:#5A5859;}
	.st650{fill:#575758;}
	.st651{fill:#555655;}
	.st652{fill:#5D5B5D;}
	.st653{fill:#484646;}
	.st654{fill:#585757;}
	.st655{fill:#615D5E;}
	.st656{fill:#494748;}
	.st657{fill:#4F5050;}
	.st658{fill:#534E50;}
	.st659{fill:#515152;}
	.st660{fill:#575558;}
	.st661{fill:#615E5F;}
	.st662{fill:#383737;}
	.st663{fill:#3A3639;}
	.st664{fill:#2E2A2C;}
	.st665{fill:#575153;}
	.st666{fill:#4E4E4E;}
	.st667{fill:#333132;}
	.st668{fill:#5C5B5D;}
	.st669{fill:#423E41;}
	.st670{fill:#565356;}
	.st671{fill:#5B585B;}
	.st672{fill:#5C595C;}
	.st673{fill:#373437;}
	.st674{fill:#555555;}
	.st675{fill:#4D4A55;}
	.st676{fill:#47464A;}
	.st677{fill:#575456;}
	.st678{fill:#454546;}
	.st679{fill:#5D5C5D;}
	.st680{fill:#666466;}
	.st681{fill:#5E5E5F;}
	.st682{fill:#5B5C5C;}
	.st683{fill:#424144;}
	.st684{fill:#5C5B5C;}
	.st685{fill:#545456;}
	.st686{fill:#5E5C5E;}
	.st687{fill:#5A585B;}
	.st688{fill:#515052;}
	.st689{fill:#454346;}
	.st690{fill:#5A5759;}
	.st691{fill:#595A5A;}
	.st692{fill:#433E40;}
	.st693{fill:#505051;}
	.st694{fill:#3C3A3D;}
	.st695{fill:#595859;}
	.st696{fill:#383639;}
	.st697{fill:#4E4949;}
	.st698{fill:#484344;}
	.st699{fill:#484342;}
	.st700{fill:#383336;}
	.st701{fill:#363234;}
	.st702{fill:#545251;}
	.st703{fill:#534E4E;}
	.st704{fill:#4F4949;}
	.st705{fill:#403B39;}
	.st706{fill:#413937;}
	.st707{fill:#3D3939;}
	.st708{fill:#494546;}
	.st709{fill:#413E3D;}
	.st710{fill:#504B4B;}
	.st711{fill:#565656;}
	.st712{fill:#565657;}
	.st713{fill:#5A5354;}
	.st714{fill:#463D3A;}
	.st715{fill:#5F5A5A;}
	.st716{fill:#5E5E5D;}
	.st717{fill:#3B3638;}
	.st718{fill:#3C3B3D;}
	.st719{fill:#4F4D4D;}
	.st720{fill:#4B4649;}
	.st721{fill:#5E5B5C;}
	.st722{fill:#5D585A;}
	.st723{fill:#3E3E3E;}
	.st724{fill:#3A3939;}
	.st725{fill:#3F3F40;}
	.st726{fill:#5D5A5C;}
	.st727{fill:#605E5F;}
	.st728{fill:#5C595A;}
	.st729{fill:#5C5A5A;}
	.st730{fill:#5B5B5B;}
	.st731{fill:#585756;}
	.st732{fill:#575658;}
	.st733{fill:#413E41;}
	.st734{fill:#514E52;}
	.st735{fill:#38373A;}
	.st736{fill:#424143;}
	.st737{fill:#646265;}
	.st738{fill:#39373A;}
	.st739{fill:#5A5555;}
	.st740{fill:#444343;}
	.st741{fill:#5C5C5E;}
	.st742{fill:#3A3A3A;}
	.st743{fill:#5B5A5C;}
	.st744{fill:#2D2B2C;}
	.st745{fill:#555154;}
	.st746{fill:#565557;}
	.st747{fill:#545154;}
	.st748{fill:#545556;}
	.st749{fill:#615D5F;}
	.st750{fill:#5B5A5B;}
	.st751{fill:#555255;}
	.st752{fill:#444345;}
	.st753{fill:#606060;}
	.st754{fill:#575457;}
	.st755{fill:#575756;}
	.st756{fill:#2C2A2B;}
	.st757{fill:#292727;}
	.st758{fill:#504F51;}
	.st759{fill:#545553;}
	.st760{fill:#5F5F5E;}
	.st761{fill:#585557;}
	.st762{fill:#393538;}
	.st763{fill:#5E595C;}
	.st764{fill:#39383B;}
	.st765{fill:#616260;}
	.st766{fill:#545457;}
	.st767{fill:#474648;}
	.st768{fill:#5D5659;}
	.st769{fill:#464547;}
	.st770{fill:#5F5E60;}
	.st771{fill:#403C3F;}
	.st772{fill:#5C5A5C;}
	.st773{fill:#5A5958;}
	.st774{fill:#696667;}
	.st775{fill:#4B4B4C;}
	.st776{fill:#4A4649;}
	.st777{fill:#5F5D5D;}
	.st778{fill:#5B5759;}
	.st779{fill:#4D4B4B;}
	.st780{fill:#4F4D4C;}
	.st781{fill:#605A5B;}
	.st782{fill:#464342;}
	.st783{fill:#5C5958;}
	.st784{fill:#565452;}
	.st785{fill:#3C3839;}
	.st786{fill:#3C383A;}
	.st787{fill:#575453;}
	.st788{fill:#544F4F;}
	.st789{fill:#605B5B;}
	.st790{fill:#5C5C5D;}
	.st791{fill:#373738;}
	.st792{fill:#535354;}
	.st793{fill:#605D5E;}
	.st794{fill:#3D3A3A;}
	.st795{fill:#5D5D5E;}
	.st796{fill:#3A3537;}
	.st797{fill:#363536;}
	.st798{fill:#5A5556;}
	.st799{fill:#414142;}
	.st800{fill:#474345;}
	.st801{fill:#5F5D5F;}
	.st802{fill:#535251;}
	.st803{fill:#454446;}
	.st804{fill:#626363;}
	.st805{fill:#59585A;}
	.st806{fill:#5E5A5D;}
	.st807{fill:#39393A;}
	.st808{fill:#393639;}
	.st809{fill:#363235;}
	.st810{fill:#3A3838;}
	.st811{fill:#4A4A4B;}
	.st812{fill:#484749;}
	.st813{fill:#454445;}
	.st814{fill:#3F3E3E;}
	.st815{fill:#595659;}
	.st816{fill:#535454;}
	.st817{fill:#5E5D5E;}
	.st818{fill:#5E5A5C;}
	.st819{fill:#59595C;}
	.st820{fill:#585554;}
	.st821{fill:#5E5D60;}
	.st822{fill:#353435;}
	.st823{fill:#525253;}
	.st824{fill:#535054;}
	.st825{fill:#5B5B5A;}
	.st826{fill:#525254;}
	.st827{fill:#525259;}
	.st828{fill:#5E5C5F;}
	.st829{fill:#37363A;}
	.st830{fill:#3B393D;}
	.st831{fill:#525251;}
	.st832{fill:#3C3B3E;}
	.st833{fill:#595A59;}
	.st834{fill:#353133;}
	.st835{fill:#5B5657;}
	.st836{fill:#615D5D;}
	.st837{fill:#595456;}
	.st838{fill:#5E5B5A;}
	.st839{fill:#413B3D;}
	.st840{fill:#444041;}
	.st841{fill:#5F5E5E;}
	.st842{fill:#504D4C;}
	.st843{fill:#535352;}
	.st844{fill:#5E5D5D;}
	.st845{fill:#393838;}
	.st846{fill:#635D5E;}
	.st847{fill:#424043;}
	.st848{fill:#5D5C5C;}
	.st849{fill:#59585B;}
	.st850{fill:#434144;}
	.st851{fill:#4A484B;}
	.st852{fill:#575559;}
	.st853{fill:#444144;}
	.st854{fill:#565458;}
	.st855{fill:#434344;}
	.st856{fill:#3B3A3D;}
	.st857{fill:#5C585B;}
	.st858{fill:#413F42;}
	.st859{fill:#373639;}
	.st860{fill:#585456;}
	.st861{fill:#615E5E;}
	.st862{fill:#58585A;}
	.st863{fill:#616161;}
	.st864{fill:#5A5C5D;}
	.st865{fill:#575759;}
	.st866{fill:#3B3B3B;}
	.st867{fill:#5C585A;}
	.st868{fill:#414040;}
	.st869{fill:#3E3E40;}
	.st870{fill:#3F3D40;}
	.st871{fill:#626264;}
	.st872{fill:#555357;}
	.st873{fill:#6D6A6C;}
	.st874{fill:#535154;}
	.st875{fill:#59595A;}
	.st876{fill:#565756;}
	.st877{fill:#524F52;}
	.st878{fill:#565655;}
	.st879{fill:#3A3B3B;}
	.st880{fill:#5E5D5F;}
	.st881{fill:#514F52;}
	.st882{fill:#525355;}
	.st883{fill:#4F4F51;}
	.st884{fill:#56565C;}
	.st885{fill:#535258;}
	.st886{fill:#515155;}
	.st887{fill:#5C5757;}
	.st888{fill:#404040;}
	.st889{fill:#4B4848;}
	.st890{fill:#504B4D;}
	.st891{fill:#565453;}
	.st892{fill:#595756;}
	.st893{fill:#525453;}
	.st894{fill:#5C5B5E;}
	.st895{fill:#615F60;}
	.st896{fill:#605D5D;}
	.st897{fill:#565658;}
	.st898{fill:#595759;}
	.st899{fill:#363637;}
	.st900{fill:#535255;}
	.st901{fill:#605F61;}
	.st902{fill:#454143;}
	.st903{fill:#444043;}
	.st904{fill:#464447;}
	.st905{fill:#5A5B5A;}
	.st906{fill:#565255;}
	.st907{fill:#3D383B;}
	.st908{fill:#3E393C;}
	.st909{fill:#5B5B5D;}
	.st910{fill:#645F60;}
	.st911{fill:#353535;}
	.st912{fill:#5C5758;}
	.st913{fill:#5C5859;}
	.st914{fill:#343334;}
	.st915{fill:#4F4E4D;}
	.st916{fill:#403B3D;}
	.st917{fill:#3E3C3F;}
	.st918{fill:#5C5A5F;}
	.st919{fill:#3B393C;}
	.st920{fill:#555457;}
	.st921{fill:#585558;}
	.st922{fill:#3F3F41;}
	.st923{fill:#545352;}
	.st924{fill:#555557;}
	.st925{fill:#565457;}
	.st926{fill:#605F60;}
	.st927{fill:#4C494D;}
	.st928{fill:#383736;}
	.st929{fill:#625D60;}
	.st930{fill:#5F5A5C;}
	.st931{fill:#3A373B;}
	.st932{fill:#5C5C5C;}
	.st933{fill:#4E4E50;}
	.st934{fill:#3A3637;}
	.st935{fill:#595857;}
	.st936{fill:#605E5D;}
	.st937{fill:#555657;}
	.st938{fill:#626061;}
	.st939{fill:#5B595C;}
	.st940{fill:#3D393C;}
	.st941{fill:#3B3C3C;}
	.st942{fill:#636061;}
	.st943{fill:#50504F;}
	.st944{fill:#5C5A59;}
	.st945{fill:#555654;}
	.st946{fill:#454245;}
	.st947{fill:#5C5E5F;}
	.st948{fill:#313131;}
	.st949{fill:#1BE0E6;}
	.st950{fill:none;stroke:#000000;stroke-miterlimit:10;}
	.st951{fill:#FFFFFF;stroke:#000000;stroke-miterlimit:10;}
	.st952{fill:none;stroke:#06C6BC;stroke-width:0.2;stroke-miterlimit:10;}
	.st953{fill:#3F5070;}
</style>
<g>
	<g>
		<g>
			<g>
				<g>
					<path class="st13" d="M4.5508842,9.5472698v12.5595074c0,0.3199406,0.17099,0.5664349,0.4483557,0.7259026l6.1325817,3.5980759
						c0.2759323,0.1586437,0.6153965,0.1887894,0.8913288,0.0301437l6.1313753-3.6172905
						c0.2781124-0.1598988,0.4495621-0.416029,0.4495621-0.7368317V9.5361795l-7.0266008,4.182704L4.5508842,9.5472698z"/>
					<path class="st13" d="M2.4738584,20.7930317V8.6690836c0-0.1853037,0.0467718-0.4194345,0.4091036-0.5987692l8.43923-5.0227985
						c0.1582546-0.090163,0.352334-0.0901625,0.5105877,0.0000014l8.596858,5.115756
						c0.161005,0.0917301,0.2545605,0.1518059,0.2513676,0.3627748l-0.0000229,12.266984
						c0,0.2544384,0.2808838,0.3742905,0.5034199,0.2509365l1.7280502-1.0262527
						c0.1639614-0.0908871,0.2424107-0.2278309,0.2424107-0.4152985V7.0531311c0-0.2211127-0.0739288-0.2967982-0.2328377-0.3890958
						L11.8357334,0.0697632c-0.1597385-0.092779-0.3569021-0.0930331-0.51688-0.0006662L0.2536221,6.657433
						C0.0940638,6.7495575,0,6.9067078,0,7.0909519V19.602417c0,0.1808071,0.076215,0.315712,0.2310796,0.4090271
						l1.7450025,1.0359879C2.1987581,21.1816082,2.4738584,21.053009,2.4738584,20.7930317z"/>
				</g>
			</g>
			<polygon class="st4" points="16.585186,8.3701029 11.5774279,5.3970451 11.5774279,5.3970451 11.5774279,5.3970451 
				11.5774279,5.3970451 11.5774279,5.3970451 6.5697737,8.3701029 11.5774279,11.3430567 11.5774279,11.3430567 
				11.5774279,11.3430567 			"/>
		</g>
		<g>
			<g>
				<path class="st13" d="M44.9938202,16.5680161c-0.1388016,0-0.2566299,0.0499687-0.3537903,0.1499062
					c-0.0974693,0.1005554-0.1458969,0.2183838-0.1458969,0.3541012c0,0.129549,0.0484276,0.2442913,0.1458969,0.3448467
					c0.0971603,0.0999374,0.2149887,0.1505222,0.3537903,0.1505222c0.1381874,0,0.256321-0.0487347,0.3534851-0.146204
					c0.0974693-0.0974693,0.1462021-0.2152977,0.1462021-0.3534832c0-0.1388035-0.0487328-0.2566299-0.1462021-0.3541012
					C45.2501411,16.6161346,45.1320076,16.5680161,44.9938202,16.5680161z"/>
				<path class="st13" d="M34.7707214,17.0053978c-0.5218964-0.2917938-1.084816-0.4373817-1.6890717-0.4373817
					c-0.6045609,0-1.1631622,0.14744-1.6761131,0.4417c-0.5129528,0.294878-0.9167137,0.7020321-1.2115917,1.2208443
					c-0.2948761,0.5188122-0.4420071,1.0845089-0.4420071,1.6977062c0,0.5959244,0.1486721,1.1499004,0.4466343,1.6625443
					c0.2976551,0.5132599,0.7057323,0.9154778,1.2248535,1.2072716c0.5185032,0.2917919,1.0801907,0.4379978,1.6847515,0.4379978
					c0.6042519,0,1.1643982-0.147438,1.6801262-0.4423161c0.516037-0.294878,0.9213371-0.700182,1.216217-1.21591
					c0.2945671-0.5157261,0.442009-1.0758705,0.442009-1.6804333c0-0.6045609-0.148983-1.1640873-0.4466362-1.6804333
					C35.70224,17.7012596,35.2926178,17.2971916,34.7707214,17.0053978z M35.000515,21.8474407
					c-0.5215874,0.5132599-1.1539078,0.7692719-1.896965,0.7692719c-0.7427444,0-1.3766098-0.2621822-1.9012833-0.7871628
					c-0.5249805-0.5243645-0.7871628-1.1653233-0.7871628-1.9234924c0-0.7575512,0.2550888-1.399744,0.7649555-1.9278088
					c0.5098667-0.5274487,1.1452732-0.7914829,1.9059086-0.7914829c0.7427483,0,1.3781548,0.2621822,1.9059105,0.7871647
					c0.5274506,0.5249805,0.791481,1.1671734,0.791481,1.9278088C35.7833595,20.6858196,35.5224113,21.3347969,35.000515,21.8474407
					z"/>
				<path class="st13" d="M40.9394035,18.5445614c-0.2831535-0.1918545-0.6014748-0.2874756-0.9552689-0.2874756
					c-0.6896935,0-1.2763634,0.3214054-1.7600136,0.9635983v-0.8402176h-0.6101112v4.6964531h0.6101112v-1.7248497
					c0-0.6421928,0.0265274-1.0697041,0.0795822-1.2819157c0.05336-0.2122135,0.1563835-0.4188747,0.3096848-0.6193676
					c0.1532974-0.2004929,0.3389854-0.3565674,0.5570564-0.4688435c0.2180748-0.1116581,0.4407768-0.1677971,0.6677971-0.1677971
					c0.2270164,0,0.420105,0.0351639,0.5792656,0.1061077s0.2902527,0.1739655,0.3935814,0.3096828
					c0.1030235,0.1357174,0.1798286,0.3004303,0.2297974,0.4947529c0.0502777,0.1949406,0.0752602,0.5663147,0.0752602,1.1147366
					v2.2374935h0.6014786v-2.4145432c0-0.6014767-0.0589142-1.0567474-0.1770515-1.3664322
					C41.4227448,18.9862614,41.2222519,18.7357998,40.9394035,18.5445614z"/>
				<rect x="42.91996" y="16.5680161" class="st13" width="0.6014767" height="6.5089035"/>
				<rect x="44.6886101" y="18.3804665" class="st13" width="0.6104218" height="4.6964536"/>
				<path class="st13" d="M49.8714867,18.5445614c-0.2831535-0.1918545-0.6014748-0.2874756-0.955265-0.2874756
					c-0.6896935,0-1.2763672,0.3214054-1.7600136,0.9635983v-0.8402176H46.546093v4.6964531h0.6101151v-1.7248497
					c0-0.6421928,0.0265236-1.0697041,0.0795784-1.2819157c0.0533638-0.2122135,0.1563835-0.4188747,0.3096848-0.6193676
					c0.1532974-0.2004929,0.3389854-0.3565674,0.5570602-0.4688435c0.218071-0.1116581,0.440773-0.1677971,0.6677933-0.1677971
					c0.2270164,0,0.4201088,0.0351639,0.5792656,0.1061077c0.1591606,0.0709438,0.2902527,0.1739655,0.3935814,0.3096828
					c0.1030235,0.1357174,0.1798286,0.3004303,0.2297974,0.4947529c0.0502777,0.1949406,0.0752602,0.5663147,0.0752602,1.1147366
					v2.2374935h0.6014786v-2.4145432c0-0.6014767-0.0589142-1.0567474-0.1770515-1.3664322
					C50.3548279,18.9862614,50.154335,18.7357998,49.8714867,18.5445614z"/>
				<path class="st13" d="M54.1074219,22.6789551c-0.4836388,0-0.8948097-0.1726437-1.2337914-0.5175915
					c-0.3389893-0.3447742-0.5172691-0.8000355-0.5351562-1.366293h4.2276077
					c-0.0178986-0.7841549-0.2581749-1.4028397-0.7208557-1.856905c-0.4629745-0.4540653-1.0348358-0.6810112-1.7159042-0.6810112
					c-0.6807442,0-1.2529144,0.244194-1.7155952,0.7341194c-0.4629745,0.4890728-0.6943207,1.0758228-0.6943207,1.7593975
					c0,0.6840858,0.2301064,1.2694702,0.6900101,1.75564c0.4598923,0.486681,1.0434837,0.7298508,1.7510605,0.7298508
					c0.16782,0,0.6344261-0.0056343,1.1332092-0.2566605c0.8297386-0.4175224,1.1427727-1.2091904,1.2197914-1.4238415
					c-0.2066078,0-0.4132118,0-0.6198158,0C55.4988403,22.304636,54.9032326,22.6789551,54.1074219,22.6789551z
					 M54.1339531,18.8406734c0.4302864,0,0.8106079,0.1270809,1.1406479,0.3800106
					c0.330349,0.2535439,0.5367012,0.6045609,0.6190567,1.0524292h-3.4931908
					C52.6715927,19.3181534,53.24963,18.8406734,54.1339531,18.8406734z"/>
			</g>
			<g class="st16">
				<g>
					<path class="st13" d="M36.2749252,4.7763591c-0.4533348-0.4221058-0.9968338-0.7344031-1.6153831-0.9298408
						c-0.6135139-0.1924157-1.581131-0.2901347-2.8751526-0.2901347h-2.0324516v9.3598595h3.0403671
						c1.1947899,0,2.1296692-0.1853638,2.7794495-0.5500469c0.6482697-0.3656902,1.1690979-0.9147291,1.5483894-1.6320057
						c0.3752594-0.7132473,0.5656624-1.4829102,0.5656624-2.2898464c0-0.8018994-0.1224022-1.5141392-0.3641815-2.1175785
						C37.0793457,5.719296,36.727253,5.1984644,36.2749252,4.7763591z M36.4693565,8.3244619
						c0,0.5722094-0.093689,1.086997-0.2780457,1.5282431c-0.1833496,0.4382238-0.4538383,0.8149958-0.8034096,1.1212482
						c-0.3475571,0.3042383-0.7590866,0.5107574-1.2235031,0.614521c-0.4785194,0.1057787-1.2663155,0.1591711-2.3422298,0.1591711
						h-0.8915596V4.7491589h0.4880905c1.0698719,0,1.8883915,0.0554075,2.4328976,0.1672301
						C34.382,5.0231748,34.8499413,5.2357383,35.2418251,5.5470285c0.3893661,0.3092752,0.6941071,0.7092175,0.9066696,1.1897531
						C36.3615646,7.2183242,36.4693565,7.7522521,36.4693565,8.3244619z"/>
					<rect x="39.002491" y="3.5563836" class="st13" width="1.2164493" height="9.3598585"/>
					<path class="st13" d="M47.1302872,8.0595121c0.5817795-0.4694533,0.8769531-1.1232634,0.8769531-1.9412813
						c0-0.4080014-0.0816002-0.7857809-0.2417793-1.1242709c-0.1616898-0.3415127-0.387352-0.6235876-0.6699295-0.8371592
						c-0.282074-0.2155859-0.6215744-0.3717346-1.0099297-0.4634092c-0.3863411-0.0916743-1.0744057-0.137008-2.1024666-0.137008
						h-1.9568977v9.3598595h1.2169533V8.7072783h0.2861061l3.2509155,4.2089643h1.5136337l-3.2619972-4.2069502
						C45.9123268,8.6921673,46.6175156,8.4745665,47.1302872,8.0595121z M44.7301292,7.514503
						c-0.0261917,0-0.0523834,0-0.0790825-0.0010076h-1.407856V4.7491589h1.4456367
						c0.7223129,0,1.2572479,0.1138372,1.5901985,0.33849c0.3183403,0.2145786,0.4734802,0.5560913,0.4734802,1.0426707
						c0,0.4885945-0.1571541,0.8321218-0.4805336,1.0517378C45.9460754,7.4026804,45.4282646,7.514503,44.7301292,7.514503z"/>
					<polygon class="st13" points="49.638237,12.9162426 55.1019325,12.9162426 55.1019325,11.710371 50.8551903,11.710371 
						50.8551903,8.4654989 55.1019325,8.4654989 55.1019325,7.2747393 50.8551903,7.2747393 50.8551903,4.7612476 
						55.1397095,4.7612476 55.1397095,3.5563836 49.638237,3.5563836 					"/>
					<path class="st13" d="M64.1429443,10.5417738c-0.8139877,0.9509964-1.8470879,1.432539-3.0710907,1.432539
						c-1.095562,0-2.0193558-0.3556156-2.7462044-1.0577812c-0.7258377-0.7021666-1.0940475-1.5896959-1.0940475-2.6374035
						s0.37677-1.944304,1.1192322-2.6666179c0.7429657-0.7233214,1.6415787-1.0900192,2.671154-1.0900192
						c1.2648048,0,2.3135185,0.5057206,3.1179352,1.5040655l0.094696,0.117867l0.9444504-0.7263436l-0.0866394-0.1208892
						c-0.4523239-0.6326547-1.040657-1.1242714-1.7483597-1.4607465c-0.7051888-0.3354681-1.5121269-0.5067279-2.3976402-0.5067279
						c-0.8875275,0-1.7292213,0.2145786-2.5009003,0.6356766c-0.7741928,0.4241202-1.3877068,1.0195-1.8234138,1.768007
						c-0.4362068,0.7464914-0.6573334,1.5715613-0.6573334,2.4530463c0,1.4214573,0.4775124,2.6162472,1.4199448,3.5501175
						c0.9404182,0.9328632,2.1644249,1.4063463,3.6372604,1.4063463c0.8421936,0,1.6224327-0.1601782,2.3190575-0.4744902
						c0.7001534-0.31532,1.2884789-0.7827587,1.748867-1.3892202l0.0926819-0.1229048l-0.9444504-0.7263432L64.1429443,10.5417738z"
						/>
					<polygon class="st13" points="65.731636,4.7491589 67.7605591,4.7491589 67.7605591,12.9162426 68.9901047,12.9162426 
						68.9901047,4.7491589 71.0064392,4.7491589 71.0064392,3.5563836 65.731636,3.5563836 					"/>
					<path class="st13" d="M78.9866486,3.9734521c-0.7631149-0.4271424-1.5987625-0.6437359-2.4827652-0.6437359
						c-0.8829956,0-1.7126007,0.2196157-2.4656372,0.6507876c-0.75103,0.4311721-1.3514404,1.0366266-1.7836227,1.7972219
						c-0.4316788,0.7575736-0.6502838,1.5977545-0.6502838,2.4963651c0,0.8724184,0.2211227,1.6954737,0.6573334,2.4459953
						c0.4362106,0.7525358,1.0431747,1.3499308,1.803772,1.7780809c0.7611008,0.4271421,1.5942307,0.644743,2.4762192,0.644743
						c0.8824921,0,1.7141113-0.219615,2.4706726-0.6528025c0.757576-0.4321795,1.3600082-1.0346117,1.7911758-1.7891626
						c0.4316788-0.755558,0.6502838-1.5866728,0.6502838-2.47118c0-0.8834996-0.2211227-1.7156215-0.6573334-2.4721875
						C80.3587418,5.0000043,79.7497635,4.3995872,78.9866486,3.9734521z M80.1990662,8.2348022
						c0,1.0698709-0.359642,1.9664669-1.0688629,2.6635952c-0.7102203,0.6981363-1.5831451,1.0517378-2.5950928,1.0517378
						c-1.0099258,0-1.8848648-0.361661-2.6001282-1.0769224c-0.7142487-0.7132473-1.076416-1.5987625-1.076416-2.6313591
						c0-1.031589,0.3520889-1.920126,1.0466995-2.6394176c0.6931-0.7172766,1.5695496-1.0799451,2.60466-1.0799451
						c1.0124512,0,1.8894043,0.361661,2.6066818,1.0759153C79.8348923,6.3126612,80.1990662,7.199183,80.1990662,8.2348022z"/>
					<path class="st13" d="M86.0022659,8.7092924c0.8809738-0.0171251,1.5861664-0.234726,2.0984344-0.6497803
						c0.5817795-0.4694533,0.8769531-1.1232634,0.8769531-1.9412813c0-0.4080014-0.081604-0.7857809-0.2417831-1.1242709
						c-0.1606827-0.3405051-0.3863373-0.6225805-0.669426-0.8371592c-0.2825775-0.2155859-0.6225739-0.3717346-1.0104294-0.4634092
						c-0.3863449-0.0916743-1.0744019-0.137008-2.1024704-0.137008h-1.9563904v9.3598595h1.2169495V8.7072783h0.2856064
						l3.2050781,4.1485195l0.0463409,0.0604448h1.5136337L86.0022659,8.7092924z M85.6219635,7.5134954h-1.4078598V4.7491589
						h1.4456406c0.7223129,0,1.2572479,0.1138372,1.5896912,0.33849c0.3183441,0.2145786,0.4734879,0.5560913,0.4734879,1.0426707
						c0,0.4885945-0.1571579,0.8321218-0.4800339,1.0517378c-0.3258972,0.220623-0.8437042,0.3324456-1.5418396,0.3324456
						C85.6748505,7.514503,85.6486588,7.514503,85.6219635,7.5134954z"/>
				</g>
			</g>
		</g>
	</g>
</g>
</svg>
