<?xml version="1.0" encoding="utf-8"?>
<!-- Generator: Adobe Illustrator 23.0.3, SVG Export Plug-In . SVG Version: 6.00 Build 0)  -->
<svg version="1.1" id="Layer_1" xmlns="http://www.w3.org/2000/svg" xmlns:xlink="http://www.w3.org/1999/xlink" x="0px" y="0px"
	 viewBox="0 0 117.6660843 77.3374786" style="enable-background:new 0 0 117.6660843 77.3374786;" xml:space="preserve">
<style type="text/css">
	.st0{fill:#001959;}
	.st1{fill:#0063FF;}
	.st2{enable-background:new    ;}
	.st3{fill:#9FB2DC;}
	.st4{fill:#8EA0C5;}
	.st5{fill:#636F89;}
	.st6{fill:#23232A;}
	.st7{fill:#FFFFFF;}
	.st8{fill:#14BBC4;}
	.st9{fill:#8AFFFF;}
	.st10{fill:#231F20;}
	.st11{fill:#1BE0E6;}
	.st12{fill:#262B3E;}
	.st13{fill:#F26D00;}
	.st14{fill:#744729;stroke:#FEFEFE;stroke-miterlimit:10;}
	.st15{fill:#2D1D0D;stroke:#FEFEFE;stroke-miterlimit:10;}
	.st16{fill:#060707;stroke:#FEFEFE;stroke-miterlimit:10;}
	.st17{fill:#FFFFFF;stroke:#FEFEFE;stroke-miterlimit:10;}
	.st18{fill:#4B3938;stroke:#FEFEFE;stroke-miterlimit:10;}
	.st19{fill:#C5875D;stroke:#FEFEFE;stroke-miterlimit:10;}
	.st20{fill:#663399;}
	.st21{fill:#F05A2B;}
	.st22{fill:#020202;}
	.st23{fill:#060707;}
	.st24{fill:#AF8070;}
	.st25{fill:#4B3938;}
	.st26{fill:#563A39;}
	.st27{opacity:0.27;fill:#F05A2B;enable-background:new    ;}
	.st28{fill:none;stroke:#262B3E;stroke-width:0.5;stroke-miterlimit:10;}
	.st29{fill:#6976F4;stroke:#6976F4;stroke-width:0.3;}
	.st30{fill:#6976F4;stroke:#6976F4;}
	.st31{fill:none;stroke:#FFFFFF;stroke-width:2;}
	.st32{fill:none;stroke:#6976F4;stroke-width:2;}
	.st33{fill:url(#Path_1_);}
	.st34{fill:#EFEDED;}
	.st35{fill:#6666FF;}
	.st36{clip-path:url(#Path_7_);}
	.st37{fill:#684FF1;}
	.st38{opacity:0.24;enable-background:new    ;}
	.st39{fill:#C48C62;}
	.st40{fill:#FEFEFE;}
	.st41{opacity:0.1;fill:#262B3E;}
	.st42{fill:#454745;}
	.st43{fill:#75451D;}
	.st44{fill:#684FF1;stroke:#21201F;stroke-width:0.75;}
	.st45{fill:#6466AD;}
	.st46{fill:#C5875D;}
	.st47{clip-path:url(#Path_8_);}
	.st48{fill:#6445FF;}
	.st49{fill:#744729;}
	.st50{fill:#7A5DFF;}
	.st51{fill:#F15A29;}
	.st52{fill:#348FC0;}
	.st53{fill:#51331A;}
	.st54{fill:#895F3D;}
	.st55{fill:#5333FF;}
	.st56{fill:#4C3520;}
	.st57{fill:#2D1D0D;}
	.st58{fill:#2B83FF;}
	.st59{fill:#212127;}
	.st60{fill:#579BFF;}
	.st61{fill:#626372;}
	.st62{fill:none;stroke:#F26D00;stroke-width:2;stroke-miterlimit:10;}
	.st63{opacity:0.4;fill:#F26D00;}
	.st64{fill:#744729;stroke:#FFFFFF;stroke-width:2;stroke-miterlimit:10;}
	.st65{fill:#C5875D;stroke:#FFFFFF;stroke-width:2;stroke-miterlimit:10;}
	.st66{fill:none;stroke:#5333FF;stroke-width:2;stroke-miterlimit:10;}
	.st67{fill:none;stroke:#262B3E;stroke-width:2;stroke-miterlimit:10;}
	.st68{fill:none;stroke:#FFFFFF;stroke-width:0.25;stroke-miterlimit:10;}
	.st69{fill:none;stroke:#262B3E;stroke-width:0.25;stroke-miterlimit:10;}
	.st70{stroke:#000000;}
	.st71{fill:#0063FF;stroke:#0063FF;stroke-miterlimit:10;}
	.st72{fill:#03A678;}
	.st73{fill:none;stroke:#000000;stroke-linecap:round;stroke-miterlimit:10;}
	.st74{fill:none;stroke:#23232A;stroke-width:1.3;stroke-linecap:round;stroke-miterlimit:10;}
	.st75{fill:none;stroke:#23232A;stroke-width:2;stroke-linecap:round;stroke-miterlimit:10;}
	.st76{fill:#BDBDBD;}
	.st77{fill:#6E6E6E;}
	.st78{fill:none;stroke:#6E6E6E;stroke-width:2;stroke-linecap:round;stroke-miterlimit:10;}
	.st79{fill:none;stroke:#FFFFFF;stroke-width:0.75;stroke-linecap:round;stroke-miterlimit:10;}
	.st80{fill:none;stroke:#FFFFFF;stroke-width:0.5;stroke-linecap:round;stroke-miterlimit:10;}
	.st81{fill:none;stroke:#23232A;stroke-width:0.5;stroke-linecap:round;stroke-miterlimit:10;}
	.st82{fill:#7D7E8D;}
	.st83{fill:#383842;}
	.st84{fill:#D1D2D9;}
	.st85{fill:url(#SVGID_1_);}
	.st86{fill:url(#SVGID_2_);}
	.st87{fill:url(#SVGID_3_);}
	.st88{fill:url(#SVGID_4_);}
	.st89{fill:url(#SVGID_5_);}
	.st90{fill:url(#SVGID_6_);}
	.st91{fill:url(#SVGID_7_);}
	.st92{fill:url(#SVGID_8_);}
	.st93{fill:url(#SVGID_9_);}
	.st94{fill:url(#SVGID_10_);}
	.st95{fill:url(#SVGID_11_);}
	.st96{fill:url(#SVGID_12_);}
	.st97{fill:url(#SVGID_13_);}
	.st98{fill:url(#SVGID_14_);}
	.st99{fill:url(#SVGID_15_);}
	.st100{fill:url(#SVGID_16_);}
	.st101{fill:url(#SVGID_17_);}
	.st102{fill:url(#SVGID_18_);}
	.st103{fill:url(#SVGID_19_);}
	.st104{fill:url(#SVGID_20_);}
	.st105{fill:url(#SVGID_21_);}
	.st106{fill:url(#SVGID_22_);}
	.st107{fill:url(#SVGID_23_);}
	.st108{fill:url(#SVGID_24_);}
	.st109{fill:url(#SVGID_25_);}
	.st110{fill:url(#SVGID_26_);}
	.st111{fill:url(#SVGID_27_);}
	.st112{fill:url(#SVGID_28_);}
	.st113{fill:url(#SVGID_29_);}
	.st114{fill:url(#SVGID_30_);}
	.st115{fill:url(#SVGID_31_);}
	.st116{fill:url(#SVGID_32_);}
	.st117{fill:url(#SVGID_33_);}
	.st118{fill:url(#SVGID_34_);}
	.st119{fill:url(#SVGID_35_);}
	.st120{fill:url(#SVGID_36_);}
	.st121{fill:url(#SVGID_37_);}
	.st122{stroke:#000000;stroke-miterlimit:10;}
	.st123{fill:#1BE0E6;stroke:#1BE0E6;stroke-width:0.5;stroke-miterlimit:10;}
	.st124{fill:#1BE0E6;stroke:#FFFFFF;stroke-linecap:round;stroke-linejoin:round;stroke-miterlimit:10;}
	.st125{fill:#1BE0E6;stroke:#23232A;stroke-linecap:round;stroke-linejoin:round;stroke-miterlimit:10;}
	.st126{fill:none;stroke:#23232A;stroke-width:2;stroke-miterlimit:10;}
	.st127{fill:none;stroke:#23232A;stroke-width:4;stroke-miterlimit:10;}
	.st128{fill:none;stroke:#FFFFFF;stroke-width:2;stroke-linecap:round;stroke-miterlimit:10;}
	.st129{fill:none;stroke:#FFFFFF;stroke-width:2;stroke-miterlimit:10;}
	.st130{fill:#898989;}
	.st131{fill:url(#SVGID_38_);}
	.st132{fill:url(#SVGID_39_);}
	.st133{fill:url(#SVGID_40_);}
	.st134{fill:url(#SVGID_41_);}
	.st135{fill:url(#SVGID_42_);}
	.st136{fill:url(#SVGID_43_);}
	.st137{fill:url(#SVGID_44_);}
	.st138{fill:url(#SVGID_45_);}
	.st139{fill:none;stroke:#6E6E6E;stroke-miterlimit:10;}
	.st140{fill:url(#SVGID_46_);}
	.st141{fill:#BDBDBD;stroke:#FFFFFF;stroke-linecap:round;stroke-linejoin:round;stroke-miterlimit:10;}
	.st142{fill:#FFFFFF;stroke:#FFFFFF;stroke-width:0.3;stroke-miterlimit:10;}
	.st143{fill:#23232A;stroke:#23232A;stroke-width:0.4;stroke-miterlimit:10;}
	.st144{fill:none;stroke:#FFFFFF;stroke-miterlimit:10;}
	.st145{fill:none;stroke:#23232A;stroke-miterlimit:10;}
	.st146{fill:none;stroke:#FFFFFF;stroke-width:0.75;stroke-miterlimit:10;}
	.st147{fill:none;stroke:#000000;stroke-width:0.05;stroke-miterlimit:10;}
	.st148{fill:none;stroke:#6E6E6E;stroke-width:0.05;stroke-miterlimit:10;}
	.st149{fill:none;stroke:#000000;stroke-width:3;stroke-miterlimit:10;}
	.st150{fill:none;stroke:#606060;stroke-width:3;stroke-miterlimit:10;}
	.st151{fill:none;stroke:#000000;stroke-miterlimit:10;}
	.st152{fill:#606060;}
	.st153{fill:#382F32;}
	.st154{fill:#544C4F;}
	.st155{fill:none;stroke:#000000;stroke-width:4;stroke-linecap:round;stroke-linejoin:round;stroke-miterlimit:10;}
	.st156{fill:none;stroke:#BDBDBD;stroke-width:4;stroke-linecap:round;stroke-linejoin:round;stroke-miterlimit:10;}
	.st157{fill:none;stroke:#000000;stroke-width:3;stroke-linecap:round;stroke-linejoin:round;stroke-miterlimit:10;}
	.st158{fill:#4D4E5A;}
	.st159{fill:#B5B5C0;}
	.st160{fill:#E3147C;}
	.st161{fill:none;stroke:#E3147C;}
	.st162{fill:#001959;stroke:#001959;stroke-width:0.25;}
	.st163{fill:#23232A;stroke:#03A678;}
	.st164{fill-rule:evenodd;clip-rule:evenodd;fill:#23232A;}
	.st165{fill:#00ABFF;}
	.st166{fill:#003E31;}
	.st167{fill:#2EC396;}
	.st168{fill:#FFFFFF;stroke:#231F20;stroke-miterlimit:10;}
	.st169{fill:none;stroke:#FFFFFF;stroke-width:0.5;stroke-linecap:round;stroke-linejoin:round;stroke-miterlimit:10;}
	.st170{fill:none;stroke:#FFFFFF;stroke-width:4;stroke-miterlimit:10;}
	.st171{fill:#005183;}
	.st172{fill:none;stroke:#001959;stroke-miterlimit:10;}
	.st173{fill:none;stroke:#06C6BC;stroke-width:0.2;stroke-miterlimit:10;}
	.st174{fill:none;stroke:#0F9FEF;stroke-width:0.2;stroke-miterlimit:10;}
	.st175{fill:none;stroke:#FFFFFF;stroke-width:0.2;stroke-miterlimit:10;}
	.st176{fill:none;stroke:#1296E0;stroke-width:0.2;stroke-miterlimit:10;}
	.st177{fill:#00EFE8;}
	.st178{fill:#EFEFF2;}
	.st179{fill:#003659;}
	.st180{fill:#008CD6;}
	.st181{fill:#454345;}
	.st182{fill:#444243;}
	.st183{fill:#433F41;}
	.st184{fill:#484546;}
	.st185{fill:#434142;}
	.st186{fill:#413E3F;}
	.st187{fill:#413F40;}
	.st188{fill:#454142;}
	.st189{fill:#4A4748;}
	.st190{fill:#423F41;}
	.st191{fill:#494647;}
	.st192{fill:#3F3A3C;}
	.st193{fill:#464343;}
	.st194{fill:#474445;}
	.st195{fill:#201D1C;}
	.st196{fill:#4B4849;}
	.st197{fill:#443D3F;}
	.st198{fill:#413D3E;}
	.st199{fill:#4E494A;}
	.st200{fill:#423C3E;}
	.st201{fill:#413C3E;}
	.st202{fill:#444142;}
	.st203{fill:#4C4647;}
	.st204{fill:#433D41;}
	.st205{fill:#3E3B3B;}
	.st206{fill:#474242;}
	.st207{fill:#4A4747;}
	.st208{fill:#4C494A;}
	.st209{fill:#504C4C;}
	.st210{fill:#3F3938;}
	.st211{fill:#494547;}
	.st212{fill:#5F5857;}
	.st213{fill:#4D4341;}
	.st214{fill:#4B4748;}
	.st215{fill:#534D4D;}
	.st216{fill:#474343;}
	.st217{fill:#544E4D;}
	.st218{fill:#433F3F;}
	.st219{fill:#3D3A3C;}
	.st220{fill:#413E3E;}
	.st221{fill:#4B4646;}
	.st222{fill:#494443;}
	.st223{fill:#4F4B4C;}
	.st224{fill:#4F4C4C;}
	.st225{fill:#464142;}
	.st226{fill:#524945;}
	.st227{fill:#464040;}
	.st228{fill:#565353;}
	.st229{fill:#3C3230;}
	.st230{fill:#5C5653;}
	.st231{fill:#514E4E;}
	.st232{fill:#4F4A4C;}
	.st233{fill:#444040;}
	.st234{fill:#534F4F;}
	.st235{fill:#433D3D;}
	.st236{fill:#5C5452;}
	.st237{fill:#443A37;}
	.st238{fill:#3E393A;}
	.st239{fill:#413D3C;}
	.st240{fill:#61544D;}
	.st241{fill:#433F3E;}
	.st242{fill:#4C4949;}
	.st243{fill:#474446;}
	.st244{fill:#3A3533;}
	.st245{fill:#423C3D;}
	.st246{fill:#454242;}
	.st247{fill:#453F41;}
	.st248{fill:#464244;}
	.st249{fill:#212029;}
	.st250{fill:#3E3A3B;}
	.st251{fill:#423E3F;}
	.st252{fill:#504C4D;}
	.st253{fill:#413F41;}
	.st254{fill:#464141;}
	.st255{fill:#4E4B4C;}
	.st256{fill:#424041;}
	.st257{fill:#423E40;}
	.st258{fill:#423F3F;}
	.st259{fill:#423D3E;}
	.st260{fill:#474141;}
	.st261{fill:#3F3C3E;}
	.st262{fill:#443D3C;}
	.st263{fill:#4F4C4D;}
	.st264{fill:#393434;}
	.st265{fill:#515050;}
	.st266{fill:#403C3C;}
	.st267{fill:#3F3837;}
	.st268{fill:#393232;}
	.st269{fill:#4A4746;}
	.st270{fill:#474547;}
	.st271{fill:#575454;}
	.st272{fill:#474647;}
	.st273{fill:#3F3D3E;}
	.st274{fill:#4C494B;}
	.st275{fill:#464445;}
	.st276{fill:#3E3C3D;}
	.st277{fill:#4A4849;}
	.st278{fill:#3D3B3C;}
	.st279{fill:#4D4B4C;}
	.st280{fill:#525152;}
	.st281{fill:#3C3B3C;}
	.st282{fill:#4E4D4D;}
	.st283{fill:#403D3F;}
	.st284{fill:#4F4D4E;}
	.st285{fill:#4C4A4B;}
	.st286{fill:#3C3A3B;}
	.st287{fill:#3F3D3F;}
	.st288{fill:#3B393A;}
	.st289{fill:#4F4E4E;}
	.st290{fill:#535051;}
	.st291{fill:#3D3B3D;}
	.st292{fill:#504E4E;}
	.st293{fill:#514E4F;}
	.st294{fill:#545152;}
	.st295{fill:#393839;}
	.st296{fill:#3C393A;}
	.st297{fill:#403E3F;}
	.st298{fill:#383537;}
	.st299{fill:#545153;}
	.st300{fill:#4C4C4D;}
	.st301{fill:#4D4C4D;}
	.st302{fill:#514D4F;}
	.st303{fill:#525052;}
	.st304{fill:#565455;}
	.st305{fill:#3B3839;}
	.st306{fill:#524F50;}
	.st307{fill:#353234;}
	.st308{fill:#373435;}
	.st309{fill:#504B4C;}
	.st310{fill:#524D4E;}
	.st311{fill:#3A363A;}
	.st312{fill:#565152;}
	.st313{fill:#525151;}
	.st314{fill:#393738;}
	.st315{fill:#393737;}
	.st316{fill:#393637;}
	.st317{fill:#494648;}
	.st318{fill:#464345;}
	.st319{fill:#3D393B;}
	.st320{fill:#4D494A;}
	.st321{fill:#4F4C4E;}
	.st322{fill:#4E4B4D;}
	.st323{fill:#4D4A4B;}
	.st324{fill:#3B3739;}
	.st325{fill:#4D4A4C;}
	.st326{fill:#3A3638;}
	.st327{fill:#525051;}
	.st328{fill:#5A5658;}
	.st329{fill:#585455;}
	.st330{fill:#424142;}
	.st331{fill:#4B494A;}
	.st332{fill:#4E4A4B;}
	.st333{fill:#423F40;}
	.st334{fill:#403F40;}
	.st335{fill:#403E40;}
	.st336{fill:#3D3A3B;}
	.st337{fill:#3C3939;}
	.st338{fill:#504D50;}
	.st339{fill:#3C393B;}
	.st340{fill:#3A383B;}
	.st341{fill:#383536;}
	.st342{fill:#545252;}
	.st343{fill:#575355;}
	.st344{fill:#494749;}
	.st345{fill:#4F4D4F;}
	.st346{fill:#52504F;}
	.st347{fill:#393537;}
	.st348{fill:#4A4749;}
	.st349{fill:#4A494B;}
	.st350{fill:#3A383A;}
	.st351{fill:#4D4849;}
	.st352{fill:#504D4E;}
	.st353{fill:#3F3C3C;}
	.st354{fill:#4E4A4C;}
	.st355{fill:#504D4D;}
	.st356{fill:#514F4F;}
	.st357{fill:#3F3C3D;}
	.st358{fill:#545050;}
	.st359{fill:#2D2A2B;}
	.st360{fill:#434041;}
	.st361{fill:#535151;}
	.st362{fill:#595656;}
	.st363{fill:#524E4F;}
	.st364{fill:#3B383A;}
	.st365{fill:#2E2A2B;}
	.st366{fill:#494548;}
	.st367{fill:#5A5757;}
	.st368{fill:#514E4D;}
	.st369{fill:#565252;}
	.st370{fill:#3B3939;}
	.st371{fill:#5C5656;}
	.st372{fill:#585656;}
	.st373{fill:#434042;}
	.st374{fill:#1D1B1C;}
	.st375{fill:#2B2929;}
	.st376{fill:#4C494C;}
	.st377{fill:#555354;}
	.st378{fill:#4D484B;}
	.st379{fill:#5A585A;}
	.st380{fill:#4B484A;}
	.st381{fill:#504E50;}
	.st382{fill:#373236;}
	.st383{fill:#474143;}
	.st384{fill:#2B2D3A;}
	.st385{fill:#524C4E;}
	.st386{fill:#3D383C;}
	.st387{fill:#211E21;}
	.st388{fill:#3E3A3C;}
	.st389{fill:#373234;}
	.st390{fill:#464344;}
	.st391{fill:#575353;}
	.st392{fill:#575352;}
	.st393{fill:#605D5F;}
	.st394{fill:#393638;}
	.st395{fill:#3A3536;}
	.st396{fill:#5F5B5C;}
	.st397{fill:#484647;}
	.st398{fill:#454244;}
	.st399{fill:#514D4D;}
	.st400{fill:#595556;}
	.st401{fill:#555150;}
	.st402{fill:#675D5A;}
	.st403{fill:#474243;}
	.st404{fill:#514D4E;}
	.st405{fill:#5B5757;}
	.st406{fill:#524F4F;}
	.st407{fill:#474344;}
	.st408{fill:#454141;}
	.st409{fill:#494345;}
	.st410{fill:#555151;}
	.st411{fill:#3C3738;}
	.st412{fill:#4C4849;}
	.st413{fill:#4B4647;}
	.st414{fill:#E3E2E3;}
	.st415{fill:#434143;}
	.st416{fill:#292B36;}
	.st417{fill:#3E3B3E;}
	.st418{fill:#413E40;}
	.st419{fill:#373436;}
	.st420{fill:#3C383B;}
	.st421{fill:#535050;}
	.st422{fill:#3B3A3C;}
	.st423{fill:#3A393A;}
	.st424{fill:#514E50;}
	.st425{fill:#504D4F;}
	.st426{fill:#4E4C4E;}
	.st427{fill:#585355;}
	.st428{fill:#3D3A3D;}
	.st429{fill:#3B373A;}
	.st430{fill:#403D3E;}
	.st431{fill:#454040;}
	.st432{fill:#53504F;}
	.st433{fill:#585454;}
	.st434{fill:#2C2829;}
	.st435{fill:#4E4C4D;}
	.st436{fill:#4C4A4C;}
	.st437{fill:#4F4E50;}
	.st438{fill:#424042;}
	.st439{fill:#3E3B3D;}
	.st440{fill:#504E4F;}
	.st441{fill:#514F51;}
	.st442{fill:#383638;}
	.st443{fill:#41414B;}
	.st444{fill:#4E4D4F;}
	.st445{fill:#3A393B;}
	.st446{fill:#464243;}
	.st447{fill:#383436;}
	.st448{fill:#525050;}
	.st449{fill:#575555;}
	.st450{fill:#545151;}
	.st451{fill:#444244;}
	.st452{fill:#494849;}
	.st453{fill:#414041;}
	.st454{fill:#555252;}
	.st455{fill:#4D4B4D;}
	.st456{fill:#3D3C3E;}
	.st457{fill:#555455;}
	.st458{fill:#413D40;}
	.st459{fill:#575557;}
	.st460{fill:#3E3D3E;}
	.st461{fill:#4F4E4F;}
	.st462{fill:#525153;}
	.st463{fill:#575757;}
	.st464{fill:#515051;}
	.st465{fill:#3F3E3F;}
	.st466{fill:#515150;}
	.st467{fill:#5B5A5A;}
	.st468{fill:#373536;}
	.st469{fill:#393939;}
	.st470{fill:#3C3A3A;}
	.st471{fill:#5D5B5E;}
	.st472{fill:#393334;}
	.st473{fill:#444344;}
	.st474{fill:#514F50;}
	.st475{fill:#3A373A;}
	.st476{fill:#504F4F;}
	.st477{fill:#484648;}
	.st478{fill:#565454;}
	.st479{fill:#4E4D4E;}
	.st480{fill:#545353;}
	.st481{fill:#373537;}
	.st482{fill:#363537;}
	.st483{fill:#464446;}
	.st484{fill:#3E3C3E;}
	.st485{fill:#3A3739;}
	.st486{fill:#363336;}
	.st487{fill:#565153;}
	.st488{fill:#353436;}
	.st489{fill:#525150;}
	.st490{fill:#413D3F;}
	.st491{fill:#3F3B3D;}
	.st492{fill:#5C5759;}
	.st493{fill:#575455;}
	.st494{fill:#4F4D50;}
	.st495{fill:#5A5657;}
	.st496{fill:#444143;}
	.st497{fill:#403C3D;}
	.st498{fill:#2C292A;}
	.st499{fill:#332E30;}
	.st500{fill:#585556;}
	.st501{fill:#524E50;}
	.st502{fill:#3E3D3D;}
	.st503{fill:#393739;}
	.st504{fill:#39383A;}
	.st505{fill:#656265;}
	.st506{fill:#454344;}
	.st507{fill:#504C4E;}
	.st508{fill:#545254;}
	.st509{fill:#5B5959;}
	.st510{fill:#464546;}
	.st511{fill:#474546;}
	.st512{fill:#2B2A2A;}
	.st513{fill:#2E2C2C;}
	.st514{fill:#5A5858;}
	.st515{fill:#353335;}
	.st516{fill:#484547;}
	.st517{fill:#424141;}
	.st518{fill:#575656;}
	.st519{fill:#403F3F;}
	.st520{fill:#595555;}
	.st521{fill:#605E5E;}
	.st522{fill:#626162;}
	.st523{fill:#636060;}
	.st524{fill:#555353;}
	.st525{fill:#555355;}
	.st526{fill:#5F5C5D;}
	.st527{fill:#5B5556;}
	.st528{fill:#595657;}
	.st529{fill:#5D5B5B;}
	.st530{fill:#403B3C;}
	.st531{fill:#565354;}
	.st532{fill:#3C393C;}
	.st533{fill:#3F3C3F;}
	.st534{fill:#504C4F;}
	.st535{fill:#3E3A3D;}
	.st536{fill:#3A3738;}
	.st537{fill:#524F51;}
	.st538{fill:#5A595A;}
	.st539{fill:#535053;}
	.st540{fill:#555253;}
	.st541{fill:#605E60;}
	.st542{fill:#2B292A;}
	.st543{fill:#403D40;}
	.st544{fill:#504F50;}
	.st545{fill:#474548;}
	.st546{fill:#545354;}
	.st547{fill:#2A2F40;}
	.st548{fill:#595658;}
	.st549{fill:#5B5758;}
	.st550{fill:#545253;}
	.st551{fill:#2B3144;}
	.st552{fill:#37353D;}
	.st553{fill:#2E3447;}
	.st554{fill:#353A4E;}
	.st555{fill:#2F303B;}
	.st556{fill:#393536;}
	.st557{fill:#211F20;}
	.st558{fill:#484748;}
	.st559{fill:#4C4848;}
	.st560{fill:#433E3E;}
	.st561{fill:#2B2B37;}
	.st562{fill:#CCCBCC;}
	.st563{fill:#4A4646;}
	.st564{fill:#48423F;}
	.st565{fill:#3F3B3B;}
	.st566{fill:#3C3735;}
	.st567{fill:#403D3D;}
	.st568{fill:#3D393A;}
	.st569{fill:#393535;}
	.st570{fill:#393332;}
	.st571{fill:#3E3938;}
	.st572{fill:#383637;}
	.st573{fill:#5B5250;}
	.st574{fill:#383434;}
	.st575{fill:#E4E3E4;}
	.st576{fill:#CAC9CB;}
	.st577{fill:#363335;}
	.st578{fill:#524E4E;}
	.st579{fill:#595758;}
	.st580{fill:#4F4B4D;}
	.st581{fill:#5D595A;}
	.st582{fill:#5B595A;}
	.st583{fill:#5A5758;}
	.st584{fill:#3C3A3C;}
	.st585{fill:#514F4E;}
	.st586{fill:#565355;}
	.st587{fill:#383435;}
	.st588{fill:#4E4B4B;}
	.st589{fill:#484545;}
	.st590{fill:#555352;}
	.st591{fill:#555454;}
	.st592{fill:#383738;}
	.st593{fill:#484446;}
	.st594{fill:#4E4E4F;}
	.st595{fill:#454243;}
	.st596{fill:#565456;}
	.st597{fill:#3E3B3C;}
	.st598{fill:#5A5959;}
	.st599{fill:#5D5A5A;}
	.st600{fill:#403C3E;}
	.st601{fill:#444042;}
	.st602{fill:#444242;}
	.st603{fill:#545051;}
	.st604{fill:#413F3F;}
	.st605{fill:#3F3D3D;}
	.st606{fill:#574E4F;}
	.st607{fill:#444141;}
	.st608{fill:#343133;}
	.st609{fill:#555051;}
	.st610{fill:#383739;}
	.st611{fill:#3F3838;}
	.st612{fill:#575357;}
	.st613{fill:#5D5D5B;}
	.st614{fill:#3F3B3E;}
	.st615{fill:#423D3D;}
	.st616{fill:#3E3D3F;}
	.st617{fill:#4C4B4D;}
	.st618{fill:#3D3C3D;}
	.st619{fill:#3E3E3F;}
	.st620{fill:#433F42;}
	.st621{fill:#3D3B3E;}
	.st622{fill:#3B393B;}
	.st623{fill:#505050;}
	.st624{fill:#383538;}
	.st625{fill:#4F4B4B;}
	.st626{fill:#3E3A3A;}
	.st627{fill:#575253;}
	.st628{fill:#3A3737;}
	.st629{fill:#272424;}
	.st630{fill:#363333;}
	.st631{fill:#585256;}
	.st632{fill:#555456;}
	.st633{fill:#5D5B5C;}
	.st634{fill:#3E393B;}
	.st635{fill:#363334;}
	.st636{fill:#4C4A4D;}
	.st637{fill:#4B4A4B;}
	.st638{fill:#595757;}
	.st639{fill:#535252;}
	.st640{fill:#4D4C4E;}
	.st641{fill:#575657;}
	.st642{fill:#535353;}
	.st643{fill:#565554;}
	.st644{fill:#3A3839;}
	.st645{fill:#4A484A;}
	.st646{fill:#373538;}
	.st647{fill:#3F3B3A;}
	.st648{fill:#424040;}
	.st649{fill:#322F2F;}
	.st650{fill:#434244;}
	.st651{fill:#434043;}
	.st652{fill:#585655;}
	.st653{fill:#414042;}
	.st654{fill:#3E3C3C;}
	.st655{fill:#3C3C3D;}
	.st656{fill:#373638;}
	.st657{fill:#595453;}
	.st658{fill:#443D3B;}
	.st659{fill:#5B5858;}
	.st660{fill:#525252;}
	.st661{fill:#5C5A5B;}
	.st662{fill:#535253;}
	.st663{fill:#616060;}
	.st664{fill:#565556;}
	.st665{fill:#5C5858;}
	.st666{fill:#4B4749;}
	.st667{fill:#4D4C4F;}
	.st668{fill:#595858;}
	.st669{fill:#2B2829;}
	.st670{fill:#2D292A;}
	.st671{fill:#4C4A4A;}
	.st672{fill:#545554;}
	.st673{fill:#373535;}
	.st674{fill:#515151;}
	.st675{fill:#504E51;}
	.st676{fill:#555453;}
	.st677{fill:#535052;}
	.st678{fill:#575354;}
	.st679{fill:#595A5B;}
	.st680{fill:#575252;}
	.st681{fill:#3B3738;}
	.st682{fill:#585758;}
	.st683{fill:#585658;}
	.st684{fill:#252323;}
	.st685{fill:#595558;}
	.st686{fill:#504E4D;}
	.st687{fill:#3B383B;}
	.st688{fill:#565555;}
	.st689{fill:#545454;}
	.st690{fill:#3D383A;}
	.st691{fill:#5E5B5B;}
	.st692{fill:#626163;}
	.st693{fill:#403E3E;}
	.st694{fill:#5E5E5E;}
	.st695{fill:#403E41;}
	.st696{fill:#403F41;}
	.st697{fill:#2E2B2D;}
	.st698{fill:#312F30;}
	.st699{fill:#353236;}
	.st700{fill:#3C3945;}
	.st701{fill:#48434F;}
	.st702{fill:#49454F;}
	.st703{fill:#32394D;}
	.st704{fill:#4C4A4E;}
	.st705{fill:#545052;}
	.st706{fill:#59575A;}
	.st707{fill:#5E5A5A;}
	.st708{fill:#585657;}
	.st709{fill:#575556;}
	.st710{fill:#5A5A5A;}
	.st711{fill:#4C4B4C;}
	.st712{fill:#4B494B;}
	.st713{fill:#2C2A2A;}
	.st714{fill:#363435;}
	.st715{fill:#373637;}
	.st716{fill:#3B3A3A;}
	.st717{fill:#444446;}
	.st718{fill:#2F2C2D;}
	.st719{fill:#252222;}
	.st720{fill:#343131;}
	.st721{fill:#555152;}
	.st722{fill:#5B5658;}
	.st723{fill:#5C595B;}
	.st724{fill:#5E5B5D;}
	.st725{fill:#5A575A;}
	.st726{fill:#585859;}
	.st727{fill:#3F3A3F;}
	.st728{fill:#4A4647;}
	.st729{fill:#534F50;}
	.st730{fill:#3A3635;}
	.st731{fill:#524D4D;}
	.st732{fill:#595958;}
	.st733{fill:#3D3C3C;}
	.st734{fill:#3D3B3B;}
	.st735{fill:#383535;}
	.st736{fill:#535153;}
	.st737{fill:#5B595B;}
	.st738{fill:#535152;}
	.st739{fill:#5C5B5B;}
	.st740{fill:#434242;}
	.st741{fill:#565254;}
	.st742{fill:#434343;}
	.st743{fill:#584F4A;}
	.st744{fill:#5B5859;}
	.st745{fill:#272833;}
	.st746{fill:#434551;}
	.st747{fill:#2F313E;}
	.st748{fill:#30333E;}
	.st749{fill:#3B3C4B;}
	.st750{fill:#504C4B;}
	.st751{fill:#434243;}
	.st752{fill:#4E4C4F;}
	.st753{fill:#4C484A;}
	.st754{fill:#5B585A;}
	.st755{fill:#575554;}
	.st756{fill:#565253;}
	.st757{fill:#3C3B3B;}
	.st758{fill:#433D40;}
	.st759{fill:#585555;}
	.st760{fill:#5E5C5D;}
	.st761{fill:#585354;}
	.st762{fill:#545453;}
	.st763{fill:#5D5A5B;}
	.st764{fill:#555254;}
	.st765{fill:#504F4E;}
	.st766{fill:#363436;}
	.st767{fill:#5A595B;}
	.st768{fill:#595959;}
	.st769{fill:#3C3B3A;}
	.st770{fill:#4C4B4B;}
	.st771{fill:#595557;}
	.st772{fill:#4A474A;}
	.st773{fill:#3B3A3B;}
	.st774{fill:#383437;}
	.st775{fill:#585659;}
	.st776{fill:#535254;}
	.st777{fill:#58575A;}
	.st778{fill:#433F40;}
	.st779{fill:#534E4F;}
	.st780{fill:#3B3737;}
	.st781{fill:#5D5859;}
	.st782{fill:#605C5C;}
	.st783{fill:#2E2C2D;}
	.st784{fill:#322F30;}
	.st785{fill:#535355;}
	.st786{fill:#545455;}
	.st787{fill:#4D4D4E;}
	.st788{fill:#373739;}
	.st789{fill:#3D3D3F;}
	.st790{fill:#555556;}
	.st791{fill:#363434;}
	.st792{fill:#383939;}
	.st793{fill:#3F3E40;}
	.st794{fill:#585858;}
	.st795{fill:#5A5A5B;}
	.st796{fill:#353334;}
	.st797{fill:#444445;}
	.st798{fill:#3D3D3E;}
	.st799{fill:#565757;}
	.st800{fill:#585759;}
	.st801{fill:#5A5859;}
	.st802{fill:#575758;}
	.st803{fill:#555655;}
	.st804{fill:#5D5B5D;}
	.st805{fill:#484646;}
	.st806{fill:#585757;}
	.st807{fill:#615D5E;}
	.st808{fill:#494748;}
	.st809{fill:#4F5050;}
	.st810{fill:#534E50;}
	.st811{fill:#515152;}
	.st812{fill:#575558;}
	.st813{fill:#615E5F;}
	.st814{fill:#383737;}
	.st815{fill:#3A3639;}
	.st816{fill:#2E2A2C;}
	.st817{fill:#575153;}
	.st818{fill:#4E4E4E;}
	.st819{fill:#333132;}
	.st820{fill:#5C5B5D;}
	.st821{fill:#423E41;}
	.st822{fill:#565356;}
	.st823{fill:#5B585B;}
	.st824{fill:#5C595C;}
	.st825{fill:#373437;}
	.st826{fill:#555555;}
	.st827{fill:#4D4A55;}
	.st828{fill:#47464A;}
	.st829{fill:#575456;}
	.st830{fill:#454546;}
	.st831{fill:#5D5C5D;}
	.st832{fill:#666466;}
	.st833{fill:#5E5E5F;}
	.st834{fill:#5B5C5C;}
	.st835{fill:#424144;}
	.st836{fill:#5C5B5C;}
	.st837{fill:#545456;}
	.st838{fill:#5E5C5E;}
	.st839{fill:#5A585B;}
	.st840{fill:#515052;}
	.st841{fill:#454346;}
	.st842{fill:#5A5759;}
	.st843{fill:#595A5A;}
	.st844{fill:#433E40;}
	.st845{fill:#505051;}
	.st846{fill:#3C3A3D;}
	.st847{fill:#595859;}
	.st848{fill:#383639;}
	.st849{fill:#4E4949;}
	.st850{fill:#484344;}
	.st851{fill:#484342;}
	.st852{fill:#383336;}
	.st853{fill:#363234;}
	.st854{fill:#545251;}
	.st855{fill:#534E4E;}
	.st856{fill:#4F4949;}
	.st857{fill:#403B39;}
	.st858{fill:#413937;}
	.st859{fill:#3D3939;}
	.st860{fill:#494546;}
	.st861{fill:#413E3D;}
	.st862{fill:#504B4B;}
	.st863{fill:#565656;}
	.st864{fill:#565657;}
	.st865{fill:#5A5354;}
	.st866{fill:#463D3A;}
	.st867{fill:#5F5A5A;}
	.st868{fill:#5E5E5D;}
	.st869{fill:#3B3638;}
	.st870{fill:#3C3B3D;}
	.st871{fill:#4F4D4D;}
	.st872{fill:#4B4649;}
	.st873{fill:#5E5B5C;}
	.st874{fill:#5D585A;}
	.st875{fill:#3E3E3E;}
	.st876{fill:#3A3939;}
	.st877{fill:#3F3F40;}
	.st878{fill:#5D5A5C;}
	.st879{fill:#605E5F;}
	.st880{fill:#5C595A;}
	.st881{fill:#5C5A5A;}
	.st882{fill:#5B5B5B;}
	.st883{fill:#585756;}
	.st884{fill:#575658;}
	.st885{fill:#413E41;}
	.st886{fill:#514E52;}
	.st887{fill:#38373A;}
	.st888{fill:#424143;}
	.st889{fill:#646265;}
	.st890{fill:#39373A;}
	.st891{fill:#5A5555;}
	.st892{fill:#444343;}
	.st893{fill:#5C5C5E;}
	.st894{fill:#3A3A3A;}
	.st895{fill:#5B5A5C;}
	.st896{fill:#2D2B2C;}
	.st897{fill:#555154;}
	.st898{fill:#565557;}
	.st899{fill:#545154;}
	.st900{fill:#545556;}
	.st901{fill:#615D5F;}
	.st902{fill:#5B5A5B;}
	.st903{fill:#555255;}
	.st904{fill:#444345;}
	.st905{fill:#575457;}
	.st906{fill:#575756;}
	.st907{fill:#2C2A2B;}
	.st908{fill:#292727;}
	.st909{fill:#504F51;}
	.st910{fill:#545553;}
	.st911{fill:#5F5F5E;}
	.st912{fill:#585557;}
	.st913{fill:#393538;}
	.st914{fill:#5E595C;}
	.st915{fill:#39383B;}
	.st916{fill:#616260;}
	.st917{fill:#545457;}
	.st918{fill:#474648;}
	.st919{fill:#5D5659;}
	.st920{fill:#464547;}
	.st921{fill:#5F5E60;}
	.st922{fill:#403C3F;}
	.st923{fill:#5C5A5C;}
	.st924{fill:#5A5958;}
	.st925{fill:#696667;}
	.st926{fill:#4B4B4C;}
	.st927{fill:#4A4649;}
	.st928{fill:#5F5D5D;}
	.st929{fill:#5B5759;}
	.st930{fill:#4D4B4B;}
	.st931{fill:#4F4D4C;}
	.st932{fill:#605A5B;}
	.st933{fill:#464342;}
	.st934{fill:#5C5958;}
	.st935{fill:#565452;}
	.st936{fill:#3C3839;}
	.st937{fill:#3C383A;}
	.st938{fill:#575453;}
	.st939{fill:#544F4F;}
	.st940{fill:#605B5B;}
	.st941{fill:#5C5C5D;}
	.st942{fill:#373738;}
	.st943{fill:#535354;}
	.st944{fill:#605D5E;}
	.st945{fill:#3D3A3A;}
	.st946{fill:#5D5D5E;}
	.st947{fill:#3A3537;}
	.st948{fill:#363536;}
	.st949{fill:#5A5556;}
	.st950{fill:#414142;}
	.st951{fill:#474345;}
	.st952{fill:#5F5D5F;}
	.st953{fill:#535251;}
	.st954{fill:#454446;}
	.st955{fill:#626363;}
	.st956{fill:#59585A;}
	.st957{fill:#5E5A5D;}
	.st958{fill:#39393A;}
	.st959{fill:#393639;}
	.st960{fill:#363235;}
	.st961{fill:#3A3838;}
	.st962{fill:#4A4A4B;}
	.st963{fill:#484749;}
	.st964{fill:#454445;}
	.st965{fill:#3F3E3E;}
	.st966{fill:#595659;}
	.st967{fill:#535454;}
	.st968{fill:#5E5D5E;}
	.st969{fill:#5E5A5C;}
	.st970{fill:#59595C;}
	.st971{fill:#585554;}
	.st972{fill:#5E5D60;}
	.st973{fill:#353435;}
	.st974{fill:#525253;}
	.st975{fill:#535054;}
	.st976{fill:#5B5B5A;}
	.st977{fill:#525254;}
	.st978{fill:#525259;}
	.st979{fill:#5E5C5F;}
	.st980{fill:#37363A;}
	.st981{fill:#3B393D;}
	.st982{fill:#525251;}
	.st983{fill:#3C3B3E;}
	.st984{fill:#595A59;}
	.st985{fill:#353133;}
	.st986{fill:#5B5657;}
	.st987{fill:#615D5D;}
	.st988{fill:#595456;}
	.st989{fill:#5E5B5A;}
	.st990{fill:#413B3D;}
	.st991{fill:#444041;}
	.st992{fill:#5F5E5E;}
	.st993{fill:#504D4C;}
	.st994{fill:#535352;}
	.st995{fill:#5E5D5D;}
	.st996{fill:#393838;}
	.st997{fill:#635D5E;}
	.st998{fill:#424043;}
	.st999{fill:#5D5C5C;}
	.st1000{fill:#59585B;}
	.st1001{fill:#434144;}
	.st1002{fill:#4A484B;}
	.st1003{fill:#575559;}
	.st1004{fill:#444144;}
	.st1005{fill:#565458;}
	.st1006{fill:#434344;}
	.st1007{fill:#3B3A3D;}
	.st1008{fill:#5C585B;}
	.st1009{fill:#413F42;}
	.st1010{fill:#373639;}
	.st1011{fill:#585456;}
	.st1012{fill:#615E5E;}
	.st1013{fill:#58585A;}
	.st1014{fill:#616161;}
	.st1015{fill:#5A5C5D;}
	.st1016{fill:#575759;}
	.st1017{fill:#3B3B3B;}
	.st1018{fill:#5C585A;}
	.st1019{fill:#414040;}
	.st1020{fill:#3E3E40;}
	.st1021{fill:#3F3D40;}
	.st1022{fill:#626264;}
	.st1023{fill:#555357;}
	.st1024{fill:#6D6A6C;}
	.st1025{fill:#535154;}
	.st1026{fill:#59595A;}
	.st1027{fill:#565756;}
	.st1028{fill:#524F52;}
	.st1029{fill:#565655;}
	.st1030{fill:#3A3B3B;}
	.st1031{fill:#5E5D5F;}
	.st1032{fill:#514F52;}
	.st1033{fill:#525355;}
	.st1034{fill:#4F4F51;}
	.st1035{fill:#56565C;}
	.st1036{fill:#535258;}
	.st1037{fill:#515155;}
	.st1038{fill:#5C5757;}
	.st1039{fill:#404040;}
	.st1040{fill:#4B4848;}
	.st1041{fill:#504B4D;}
	.st1042{fill:#565453;}
	.st1043{fill:#595756;}
	.st1044{fill:#525453;}
	.st1045{fill:#5C5B5E;}
	.st1046{fill:#615F60;}
	.st1047{fill:#605D5D;}
	.st1048{fill:#565658;}
	.st1049{fill:#595759;}
	.st1050{fill:#363637;}
	.st1051{fill:#535255;}
	.st1052{fill:#605F61;}
	.st1053{fill:#454143;}
	.st1054{fill:#444043;}
	.st1055{fill:#464447;}
	.st1056{fill:#5A5B5A;}
	.st1057{fill:#565255;}
	.st1058{fill:#3D383B;}
	.st1059{fill:#3E393C;}
	.st1060{fill:#5B5B5D;}
	.st1061{fill:#645F60;}
	.st1062{fill:#353535;}
	.st1063{fill:#5C5758;}
	.st1064{fill:#5C5859;}
	.st1065{fill:#343334;}
	.st1066{fill:#4F4E4D;}
	.st1067{fill:#403B3D;}
	.st1068{fill:#3E3C3F;}
	.st1069{fill:#5C5A5F;}
	.st1070{fill:#3B393C;}
	.st1071{fill:#555457;}
	.st1072{fill:#585558;}
	.st1073{fill:#3F3F41;}
	.st1074{fill:#545352;}
	.st1075{fill:#555557;}
	.st1076{fill:#565457;}
	.st1077{fill:#605F60;}
	.st1078{fill:#4C494D;}
	.st1079{fill:#383736;}
	.st1080{fill:#625D60;}
	.st1081{fill:#5F5A5C;}
	.st1082{fill:#3A373B;}
	.st1083{fill:#5C5C5C;}
	.st1084{fill:#4E4E50;}
	.st1085{fill:#3A3637;}
	.st1086{fill:#595857;}
	.st1087{fill:#605E5D;}
	.st1088{fill:#555657;}
	.st1089{fill:#626061;}
	.st1090{fill:#5B595C;}
	.st1091{fill:#3D393C;}
	.st1092{fill:#3B3C3C;}
	.st1093{fill:#636061;}
	.st1094{fill:#50504F;}
	.st1095{fill:#5C5A59;}
	.st1096{fill:#555654;}
	.st1097{fill:#454245;}
	.st1098{fill:#5C5E5F;}
	.st1099{fill:#313131;}
</style>
<g>
	<g>
		<g>
			<g>
				<path class="st179" d="M2.4053965,18.9424973c0-1.4828205,0.1992261-2.9195385,0.5669947-4.2878428l-2.3174918-0.652441
					C0.2303141,15.5778189,0,17.2329979,0,18.9424973c0,10.006237,7.7600241,18.1946259,17.5894604,18.8890572v-2.4118576
					C9.1019382,34.7284966,2.4053965,27.6050949,2.4053965,18.9424973z"/>
			</g>
			<g>
				<path class="st179" d="M18.9424973,2.4053965c6.5445881,0,12.212883,3.8218551,14.8917961,9.3502731l2.3476982-0.6606617
					C33.1982193,4.5512261,26.6039352,0,18.9424973,0C11.2538242,0,4.6399384,4.5835252,1.671401,11.1648912l2.3463774,0.6603689
					C6.6827779,6.2592573,12.3705997,2.4053965,18.9424973,2.4053965z"/>
			</g>
			<g>
				<path class="st179" d="M37.8849945,18.9424973c0-1.7362194-0.2382088-3.4157696-0.6756401-5.0131025l-2.3175278,0.6524401
					c0.3805771,1.3903255,0.5877686,2.8514156,0.5877686,4.3606625c0,8.5604153-6.5383854,15.6218605-14.8833885,16.4542961
					v2.4118576C30.282793,36.9703445,37.8849945,28.8465519,37.8849945,18.9424973z"/>
			</g>
		</g>
		<path class="st180" d="M18.9424744,9.0672903c-5.4391975,0-9.8485336,4.4094734-9.8485336,9.84867
			s4.4093361,9.8483028,9.8485336,9.8483028c5.4392414,0,9.8485775-4.4091072,9.8485775-9.8483028
			S24.3817158,9.0672903,18.9424744,9.0672903z M24.9515438,19.6609745
			c-0.0186901,0.374712-0.0626812,0.7457504-0.1364765,1.1134815c-0.0979481,0.4882278-0.2792416,0.9441261-0.5342846,1.3702698
			c-0.1822586,0.3045444-0.3682365,0.6068859-0.5537109,0.9095936h-1.5231838
			c0.1493797-0.4265099,0.3017902-0.8522854,0.4360619-1.2839394c0.137394-0.4419384,0.250864-0.889389,0.3258972-1.3460217
			c0.039217-0.2387867,0.0677795-0.4786758,0.0819683-0.7204018c0.0062447-0.1058006,0.016716-0.2116013,0.0075779-0.3166676
			c-0.0221348-0.2553196-0.0351753-0.5113716-0.0747128-0.7644863c-0.052166-0.334301-0.1586094-0.6469288-0.3668137-0.9184093
			c-0.215414-0.2814026-0.4989719-0.4639816-0.8332748-0.571619c-0.1352348-0.0437164-0.2733192-0.0709019-0.4169121-0.0683308
			c-0.2764416,0.0044079-0.5132084,0.1028614-0.7133293,0.291687c-0.1822128,0.1722946-0.3034897,0.384264-0.3990955,0.6127644
			c-0.1001072,0.2391548-0.1595745,0.4900646-0.2065964,0.7439117c-0.0653458,0.3530388-0.097168,0.7093811-0.1119556,1.0679283
			c-0.0154285,0.3725071-0.0138206,0.7453823-0.0029831,1.1178894c0.0086327,0.2971992,0.0251179,0.5940285,0.0428429,0.8908596
			c0.0096893,0.1623745,0.0170822,1.0414772,0.0382061,1.2031174c0.0011482,0.0088177,0.0007801,0.0180016,0.001791,0.0268173
			c0.0023422,0.021307-0.0076237,0.0297565-0.0278282,0.0290222c-0.0125828-0.0003662-0.0251179,0.0003681-0.0376549,0.0003681
			c-0.6757202,0-1.3514404,0-2.0271168,0c-0.0668602,0-0.068697-0.0007343-0.058548-0.066494
			c0.0431652-0.2784615,0.0525322-1.2754879,0.0589619-1.5568886c0.0065212-0.2828712,0.0129948-0.5657425,0.021904-0.8486118
			c0.0085869-0.2740536,0.0092297-0.5484753,0.0028934-0.8225288c-0.008955-0.3853664-0.043808-0.7685261-0.1268787-1.1461773
			c-0.0613499-0.2788296-0.1404705-0.5517807-0.2692318-0.808569c-0.0918407-0.1829472-0.2057705-0.348629-0.3692474-0.4757366
			c-0.2219334-0.1722946-0.4750481-0.2380524-0.7520866-0.208662c-0.3619461,0.0389404-0.6795778,0.182579-0.9519329,0.4232025
			c-0.238924,0.2108669-0.3911505,0.4775734-0.4852419,0.7795467c-0.0578146,0.1855202-0.0887642,0.3761826-0.1074543,0.5690479
			c-0.0183678,0.1888256-0.035634,0.3780174-0.0504208,0.5672112c-0.0081282,0.1039639,0.0038118,0.2079277,0.0105619,0.3111572
			c0.0121689,0.1858864,0.0323734,0.3710384,0.0589619,0.5554543c0.043992,0.3052807,0.1062145,0.6068859,0.1814318,0.90592
			c0.1329861,0.5286388,0.3117552,1.0429478,0.4915333,1.5568905c0.0315475,0.0903721,0.0632792,0.1803761,0.0950098,0.2707481
			h-1.5165253c-0.2119694-0.3471603-0.4230661-0.6950531-0.6297083-1.0455189
			c-0.2310266-0.3919773-0.3827019-0.8122425-0.4694462-1.2571201c-0.0432568-0.2218895-0.0664015-0.4463482-0.0884428-0.6708088
			c-0.0241547-0.2465-0.043211-0.4930019-0.0382061-0.7402382c0.016118-0.7953434,0.1740389-1.5572567,0.5369949-2.2706795
			c0.2186737-0.4294491,0.4986515-0.8151817,0.8335037-1.161973c0.2649612-0.2740536,0.5556841-0.5176163,0.869092-0.7339935
			c0.1727533-0.1193933,0.3594198-0.2156429,0.5407143-0.3207092c0.0263586-0.0154295,0.053957-0.0290222,0.0788918-0.0462885
			c0.0540485-0.0374708,0.1073618-0.0374708,0.1671963-0.0110207c0.1540632,0.0679626,0.3077135,0.1366596,0.4589758,0.2108669
			c0.7353725,0.3603849,1.4152718,0.8078346,2.059124,1.3118591c0.1269703,0.0991879,0.2581196,0.1932335,0.3811398,0.2979317
			c0.061121,0.0517979,0.1017132,0.052166,0.1689873,0.0025711c0.0979023-0.0727386,0.1940155-0.1476803,0.2913208-0.2211533
			c0.3520718-0.2652359,0.702446-0.5330458,1.0679741-0.7795467c0.3228664-0.218214,0.6649742-0.4026318,1.0147057-0.5734558
			c0.1755085-0.0855961,0.353405-0.166049,0.5311165-0.2468691c0.0511093-0.0235109,0.0988674-0.0242453,0.1491508,0.0018368
			c0.4634304,0.2406244,0.8947144,0.5279026,1.2801723,0.8816748c0.6206169,0.5694141,1.0603046,1.2563858,1.3284817,2.053566
			c0.1075916,0.3199749,0.1870346,0.6469288,0.2290058,0.9823322
			C24.9536552,19.0305767,24.9672947,19.3450413,24.9515438,19.6609745z"/>
	</g>
	<g>
		<g>
			<g>
				<path class="st180" d="M16.4122677,56.991993c-1.1184053-1.0545273-2.4613647-1.8416557-3.9919806-2.3415489
					c-1.5175238-0.4951286-3.9594479-0.7466583-7.2575326-0.7466583H0v23.4059677h7.6542706
					c3.094955,0,5.4900641-0.5022736,7.1186748-1.4925308c1.6301975-0.9910507,2.9049168-2.3835983,3.7888489-4.140358
					c0.8791733-1.7480316,1.3251057-3.6333313,1.3251057-5.6027374c0-1.9598846-0.3007259-3.7158508-0.8934536-5.2194901
					C18.3983383,59.346241,17.5298786,58.046524,16.4122677,56.991993z M3.1941395,57.1292648h1.065639
					c2.5240488,0,4.4855227,0.1293373,5.8292747,0.3832512c1.3159809,0.2491493,2.4776306,0.7538033,3.4528131,1.5004616
					c0.9720087,0.7434883,1.7317619,1.7202606,2.258234,2.9025383c0.5304394,1.1910095,0.7990303,2.5065956,0.7990303,3.9094582
					c0,1.4052505-0.2277279,2.6597366-0.6768351,3.7277527c-0.4467268,1.0616684-1.1053123,1.97258-1.9579029,2.7057571
					c-0.8502102,0.7315826-1.8638763,1.2330627-3.0132275,1.4901505c-1.1795025,0.2642212-3.0953512,0.3983231-5.6947803,0.3983231
					H3.1941395V57.1292648z"/>
				<path class="st180" d="M24.5109386,53.9037857c-0.5459843,0-1.0192394,0.201828-1.4068909,0.5999184
					c-0.3855648,0.3960037-0.581131,0.8678703-0.581131,1.4023705c0,0.533802,0.1955662,1.0056686,0.581131,1.4016724
					c0.3876514,0.3980904,0.865778,0.5999184,1.4208107,0.5999184c0.5536385,0,1.0307217-0.1962624,1.418026-0.5832176
					c0.3873043-0.3876495,0.5835667-0.8643875,0.5835667-1.4183731c0-0.5539894-0.1962624-1.0307236-0.5832176-1.4176788
					C25.5559292,54.1007423,25.0743217,53.9037857,24.5109386,53.9037857z"/>
				<rect x="22.8608513" y="59.727108" class="st180" width="3.1945362" height="17.5826454"/>
				<path class="st180" d="M33.273304,60.3259506c-0.3577652,0.252449-0.7143707,0.5939522-1.0659409,1.0183144v-1.617157
					h-3.1478748v17.5826454h3.1478748v-5.9813461c0-2.5771561,0.1246758-4.377594,0.3709297-5.3517761
					c0.2408333-0.9555893,0.6047935-1.7346191,1.0814285-2.3161812c0.6802979-0.8293648,1.4488716-1.0492897,2.3355446-0.5792389
					l0.2466393,0.1308708l1.6180763-2.6344566l-0.2780037-0.1486816
					C35.8229637,59.4849701,34.3919029,59.5360794,33.273304,60.3259506z"/>
				<path class="st180" d="M55.7158623,68.8683777c-0.0603676-2.8106232-0.9103775-5.060318-2.5267868-6.6875992
					c-1.6182823-1.6280327-3.6576309-2.4536705-6.0614357-2.4536705c-2.4060516,0-4.4521484,0.8721313-6.0809326,2.5916519
					c-1.624279,1.7150154-2.4480438,3.8019905-2.4480438,6.2024193c0,2.4004211,0.8188896,4.4821472,2.4334221,6.1874161
					c1.6186562,1.7097702,3.6992531,2.5766525,6.1840439,2.5766525c1.7945099,0,3.3621712-0.4266968,4.659874-1.267334
					c1.2913246-0.8376312,2.422924-2.1454544,3.3636703-3.8874741l0.1394844-0.2579651l-2.5736542-1.3235703L52.67202,70.7986221
					c-1.311573,2.4521713-3.1540756,3.6445084-5.6324921,3.6445084c-1.4259338,0-2.6700172-0.5121841-3.6981277-1.5215454
					c-0.9681206-0.9508743-1.5301704-2.2144547-1.6722755-3.7592468h14.053112L55.7158623,68.8683777z M42.0523224,66.4379578
					c0.9017563-2.5429115,2.565033-3.7802429,5.0753174-3.7802429c1.2849541,0,2.4356728,0.3674507,3.4202919,1.0911026
					c0.8875046,0.6539154,1.4937973,1.5567932,1.8053818,2.6891403H42.0523224z"/>
				<path class="st180" d="M73.0611877,71.76297c-1.4695435,1.8085556-3.2999039,2.7256165-5.4407043,2.7256165
					c-1.7792435,0-3.2687149-0.5960922-4.4259377-1.7717285c-1.1587257-1.1778946-1.7461662-2.609108-1.7461662-4.2530441
					c0-1.6401825,0.5949593-3.0338058,1.7679672-4.1417923c1.1778946-1.1124992,2.6594696-1.6762657,4.4041367-1.6762657
					c2.2471619,0,4.0155106,0.8794746,5.4061279,2.6895332l0.1604843,0.2089691l2.3798447-1.5011139l-0.1462021-0.2420464
					c-0.7727356-1.2808723-1.858551-2.2896385-3.2269974-2.9984779c-1.3628082-0.7065849-2.8718185-1.0651398-4.4845581-1.0651398
					c-2.7229919,0-4.9754219,0.8772163-6.6952782,2.6076012c-1.7198601,1.7296333-2.5918198,3.8381157-2.5918198,6.2660637
					c0,2.429451,0.8678246,4.5138779,2.5794144,6.1954041c1.7093353,1.6792679,3.867054,2.5309296,6.4126396,2.5309296
					c1.6300354,0,3.1657333-0.3367538,4.5638733-1.0012436c1.4075317-0.668251,2.5628738-1.653717,3.4337006-2.9308319
					l0.1623688-0.2375336l-2.3448868-1.611618L73.0611877,71.76297z"/>
				<path class="st180" d="M84.0643997,53.9037857h-3.0951233v5.8277016H78.132843v2.7630119h2.8364334v11.5632935
					c0,1.1008987,0.2617645,1.9265747,0.778389,2.4547272c0.5177765,0.5289307,1.3092422,0.7972336,2.3532562,0.7972336
					c0.5196991,0,1.2773361-0.0822601,2.2513809-0.2452393l0.2463989-0.0415192v-2.6869049h-1.7436066
					c-0.5738983,0-0.7103577-0.0668793-0.716507-0.0668793c-0.0030746-0.0038452-0.0741882-0.1014786-0.0741882-0.5435333
					V62.4944992h3.2584991v-2.7630119h-3.2584991V53.9037857z"/>
				<path class="st180" d="M97.6988144,59.7121696c-2.4088593,0-4.4770813,0.8728065-6.147583,2.5936356
					c-1.6678772,1.717823-2.5136414,3.8089561-2.5136414,6.2148094c0,2.4051056,0.8408813,4.4909821,2.4989929,6.199791
					c1.6599884,1.7110596,3.7334671,2.5786133,6.1622314,2.5786133c2.4291382,0,4.4977341-0.8675537,6.1472092-2.5786133
					c1.6479645-1.7088089,2.4839706-3.7946854,2.4839706-6.199791c0-2.4058533-0.8457642-4.4969864-2.5132675-6.2148094
					C102.146225,60.5849762,100.0873947,59.7121696,97.6988144,59.7121696z M103.3067169,68.594223
					c0,1.5946426-0.5528336,2.9752121-1.6442184,4.1034012c-1.0876236,1.1251831-2.4216232,1.6960373-3.9636841,1.6960373
					c-1.6002731,0-2.9485397-0.5648422-4.0068817-1.6787643c-1.0624619-1.1191711-1.6010208-2.5004959-1.6010208-4.1063995
					s0.5588379-3.012764,1.6603622-4.1792603c1.0981445-1.1627426,2.421257-1.7523766,3.932518-1.7523766
					c1.5120163,0,2.840004,0.5896339,3.9479141,1.7531242C102.7433701,65.5972366,103.3067169,66.998085,103.3067169,68.594223z"/>
				<path class="st180" d="M117.3887024,60.4236946c-1.7565231-0.9421806-3.1907196-0.8941422-4.3111115-0.1030502
					c-0.3579636,0.252594-0.7151566,0.5935135-1.066925,1.0188904V59.727108l-3.1496506-0.0050812v17.5920067h3.1496506v-5.9847183
					c0-2.580162,0.1247406-4.3816223,0.3703613-5.3555679c0.241745-0.956131,0.6059113-1.7356033,1.082428-2.3174934
					c0.6810684-0.8290596,1.4450378-1.0506592,2.3368607-0.5787926l0.2471695,0.1309433l1.6185989-2.6359406L117.3887024,60.4236946
					z"/>
			</g>
		</g>
		<g>
			<g>
				<g>
					<path class="st179" d="M19.2412949,45.7215042c-0.20788-0.1959953-0.4574718-0.3423576-0.7418575-0.4351959
						c-0.2835655-0.0925407-0.7174149-0.1375427-1.3263283-0.1375427h-0.9902897v4.3374519h1.4392376
						c0.5686245,0,1.0106602-0.0934372,1.3138828-0.2776222c0.3035984-0.1844826,0.5408173-0.4438667,0.7051182-0.7705231
						c0.1626568-0.3232193,0.2451439-0.6720047,0.2451439-1.036335c0-0.3608971-0.0555401-0.6847115-0.165123-0.962635
						C19.6105232,46.1589394,19.4491005,45.9174957,19.2412949,45.7215042z M19.1739445,47.3567352
						c0,0.2453308-0.0394669,0.4634514-0.1172829,0.6485329c-0.0768433,0.1826897-0.1900902,0.3392143-0.3366375,0.4653931
						c-0.1457253,0.1254311-0.3196678,0.2113953-0.517046,0.2556458c-0.2073193,0.0464935-0.5481415,0.0701141-1.0130501,0.0701141
						h-0.3116703v-2.9466476h0.132082c0.4511166,0,0.8007984,0.0228729,1.0392895,0.0681725
						c0.2279129,0.0432053,0.4287663,0.1302147,0.5969906,0.258934c0.166954,0.1276741,0.2976933,0.2958603,0.3885517,0.4997787
						C19.127264,46.883419,19.1739445,47.1123047,19.1739445,47.3567352z"/>
				</g>
				<g>
					<path class="st179" d="M25.2520676,45.1424789h-0.6670227v1.0963516h-0.5059853v0.6149788h0.5059853v2.0052986
						c0,0.2120895,0.0522327,0.3728409,0.1552296,0.478096c0.1036072,0.1059723,0.2586937,0.1596031,0.460886,0.1596031
						c0.0966873,0,0.2311249-0.0146255,0.4110565-0.0444527l0.0920258-0.0153427V48.851223h-0.368536
						c-0.0403309,0-0.066431-0.0020065-0.0813808-0.0031548c-0.0012188-0.0110435-0.0022583-0.0265274-0.0022583-0.0481834
						v-1.9460754h0.5813427v-0.6149788h-0.5813427V45.1424789z"/>
				</g>
				<g>
					<polygon class="st179" points="3.9949715,45.1468773 2.4566476,48.2718773 0.9076039,45.1468773 0.6180133,45.1468773 
						0,49.4968071 0.7003626,49.4968071 1.0461396,46.943943 2.3124521,49.4968071 2.6017427,49.4968071 3.8514504,46.9670334 
						4.1968904,49.4968071 4.9086099,49.4968071 4.284637,45.1468773 					"/>
				</g>
				<g>
					<path class="st179" d="M7.8164387,46.5858002c-0.2693739-0.2354736-0.5881214-0.3546181-0.9506507-0.3546181
						c-0.4488277,0-0.8344965,0.1610641-1.1462812,0.4785423c-0.3113627,0.3169212-0.4692593,0.7030449-0.4692593,1.1475487
						c0,0.4442215,0.1567717,0.8317528,0.4659185,1.15205c0.3102021,0.3215599,0.6889782,0.4845886,1.1258845,0.4845886
						c0.3582392,0,0.68504-0.1243477,0.9743881-0.3702278v0.3731232l0.643755-0.0028954v-3.2550812h-0.643755V46.5858002z
						 M7.5567355,47.1564789c0.1889839,0.1938362,0.2808385,0.4281845,0.2808385,0.7165489
						c0,0.287941-0.0932612,0.5211639-0.2851992,0.7130318c-0.1918674,0.192009-0.4138722,0.2852707-0.6786747,0.2852707
						c-0.2674747,0-0.4907107-0.0970612-0.6824021-0.2969437c-0.1929226-0.2008705-0.2867107-0.4311409-0.2867107-0.7038918
						c0-0.2731705,0.0922761-0.5037231,0.2820687-0.704731c0.1881046-0.1991844,0.4119735-0.2961006,0.6844068-0.2961006
						C7.1441998,46.8696632,7.3684902,46.9634857,7.5567355,47.1564789z"/>
				</g>
				<g>
					<path class="st179" d="M14.9542437,46.5858002c-0.2693739-0.2354736-0.5881214-0.3546181-0.9506502-0.3546181
						c-0.4488277,0-0.8344965,0.1610641-1.1462812,0.4785423c-0.3113632,0.3169212-0.4692593,0.7030449-0.4692593,1.1475487
						c0,0.4442215,0.1567707,0.8317528,0.4659185,1.15205c0.3102016,0.3215599,0.6889782,0.4845886,1.1258841,0.4845886
						c0.3582392,0,0.6850405-0.1243477,0.9743881-0.3702278v0.3731232l0.643755-0.0028954v-3.2550812h-0.643755V46.5858002z
						 M14.694541,47.1564789c0.1889839,0.1938362,0.280838,0.4281845,0.280838,0.7165489
						c0,0.287941-0.0932608,0.5211639-0.2851992,0.7130318c-0.1918669,0.192009-0.4138718,0.2852707-0.6786747,0.2852707
						c-0.2674742,0-0.4907103-0.0970612-0.6824017-0.2969437c-0.1929226-0.2008705-0.2867107-0.4311409-0.2867107-0.7038918
						c0-0.2731705,0.0922756-0.5037231,0.2820683-0.704731c0.1881046-0.1991844,0.411974-0.2961006,0.6844072-0.2961006
						C14.2820053,46.8696632,14.5062952,46.9634857,14.694541,47.1564789z"/>
				</g>
				<g>
					<path class="st179" d="M22.8814201,46.5858002c-0.2693729-0.2354736-0.5881214-0.3546181-0.9506512-0.3546181
						c-0.4488277,0-0.8344955,0.1610641-1.1462803,0.4785423c-0.3113632,0.3169212-0.4692593,0.7030449-0.4692593,1.1475487
						c0,0.4442215,0.1567707,0.8317528,0.4659176,1.15205c0.3102036,0.3215599,0.6889782,0.4845886,1.125885,0.4845886
						c0.3582401,0,0.6850395-0.1243477,0.9743881-0.3702278v0.3731232l0.643755-0.0028954v-3.2550812h-0.643755V46.5858002z
						 M22.6217175,47.1564789c0.1889839,0.1938362,0.280838,0.4281845,0.280838,0.7165489
						c0,0.287941-0.0932617,0.5211639-0.2851982,0.7130318c-0.1918678,0.192009-0.4138737,0.2852707-0.6786747,0.2852707
						c-0.2674751,0-0.4907112-0.0970612-0.6824036-0.2969437c-0.1929226-0.2008705-0.2867107-0.4311409-0.2867107-0.7038918
						c0-0.2731705,0.0922775-0.5037231,0.2820702-0.704731c0.1881046-0.1991844,0.411972-0.2961006,0.6844063-0.2961006
						C22.2091808,46.8696632,22.4334717,46.9634857,22.6217175,47.1564789z"/>
				</g>
				<g>
					<path class="st179" d="M28.6418381,46.5858002c-0.2693729-0.2354736-0.5881214-0.3546181-0.9506512-0.3546181
						c-0.4488277,0-0.8344955,0.1610641-1.1462803,0.4785423c-0.3113632,0.3169212-0.4692593,0.7030449-0.4692593,1.1475487
						c0,0.4442215,0.1567707,0.8317528,0.4659176,1.15205c0.3102036,0.3215599,0.6889801,0.4845886,1.125885,0.4845886
						c0.3582401,0,0.6850395-0.1243477,0.9743881-0.3702278v0.3731232l0.643755-0.0028954v-3.2550812h-0.643755V46.5858002z
						 M28.3821354,47.1564789c0.1889839,0.1938362,0.280838,0.4281845,0.280838,0.7165489
						c0,0.287941-0.0932617,0.5211639-0.2851982,0.7130318c-0.1918678,0.192009-0.4138737,0.2852707-0.6786747,0.2852707
						c-0.2674751,0-0.4907112-0.0970612-0.6824036-0.2969437c-0.1929207-0.2008705-0.2867107-0.4311409-0.2867107-0.7038918
						c0-0.2731705,0.0922775-0.5037231,0.2820702-0.704731c0.1881046-0.1991844,0.411972-0.2961006,0.6844063-0.2961006
						C27.9695988,46.8696632,28.1938896,46.9634857,28.3821354,47.1564789z"/>
				</g>
				<g>
					<polygon class="st179" points="10.6336164,48.2936592 9.7118158,46.2388306 8.9941349,46.2388306 10.2709551,49.1160583 
						9.6452694,50.5462189 10.3628731,50.5462189 12.2480459,46.2388306 11.5245419,46.2388306 					"/>
				</g>
			</g>
			<g>
				<g>
					<polygon class="st179" points="47.7925224,49.4939117 50.3813896,49.4939117 50.3813896,48.8324127 48.4591904,48.8324127 
						48.4591904,47.4807014 50.3813896,47.4807014 50.3813896,46.8249397 48.4591904,46.8249397 48.4591904,45.803978 
						50.3983307,45.803978 50.3983307,45.1424789 47.7925224,45.1424789 					"/>
				</g>
				<g>
					<path class="st179" d="M53.0235901,47.1007805c0.2503853-0.207077,0.3768654-0.4829865,0.3768654-0.8225708
						c0-0.3613777-0.1273422-0.6447449-0.3782997-0.8414955c-0.2443619-0.1921616-0.6008644-0.2896767-1.0600471-0.2896767
						h-0.9370041v4.3468742h1.2559357c0.4273453,0,0.7798347-0.1239014,1.0480003-0.3676872
						c0.270462-0.2460823,0.4075546-0.5604248,0.4075546-0.9338493c0-0.2690277-0.0739937-0.5047836-0.2196922-0.7015343
						C53.398735,47.3307991,53.2332458,47.200016,53.0235901,47.1007805z M52.7230148,46.2782097
						c0,0.2007675-0.0696945,0.342453-0.2122383,0.4325104c-0.1545906,0.0969391-0.3966599,0.1456985-0.7196045,0.1456985h-0.105835
						v-1.0543098h0.3450317C52.6510239,45.8021088,52.7230148,46.0740051,52.7230148,46.2782097z M53.0534172,48.2204819
						c0,0.1032524-0.0352783,0.2076492-0.1046829,0.3097534c-0.0711288,0.1049728-0.1629105,0.1801147-0.2807884,0.2305946
						c-0.1216049,0.0516243-0.3246689,0.0780106-0.603447,0.0780106h-0.3791618v-1.3158798h0.1000977
						c0.3444595,0,0.5830841,0.0166359,0.7092781,0.0504799c0.1233292,0.0332718,0.227726,0.0825996,0.3106155,0.1468468
						c0.0823135,0.0642433,0.1451263,0.1376686,0.1861382,0.2185478
						C53.0324821,48.0191422,53.0534172,48.1137886,53.0534172,48.2204819z"/>
				</g>
				<g>
					<path class="st179" d="M56.4755287,47.6310463c-0.149807-0.2097855-0.3878021-0.4349098-0.7068596-0.669342
						c-0.306736-0.2251205-0.5044708-0.3883476-0.5871773-0.4847527c-0.0742226-0.0865402-0.1103706-0.1851349-0.1103706-0.3018036
						c0-0.1122894,0.0366974-0.2015686,0.1125603-0.2727776c0.0769577-0.0728493,0.1700745-0.1079025,0.2848244-0.1079025
						c0.1196823,0,0.2210159,0.0284805,0.3097496,0.086544c0.0928421,0.0613441,0.210331,0.1873245,0.3489113,0.3746529
						l0.051487,0.0690155l0.5066605-0.3960152l-0.0462837-0.065731c-0.1643219-0.2311478-0.3360405-0.4097099-0.5110435-0.5296669
						c-0.1807556-0.1232414-0.3943748-0.1862297-0.6351051-0.1862297c-0.3119392,0-0.5707474,0.1007843-0.7693024,0.299614
						c-0.1985588,0.1982803-0.2993431,0.4442177-0.2993431,0.7312355c0,0.1330986,0.0254707,0.2678452,0.0761375,0.4003983
						c0.0509377,0.1331024,0.1331024,0.2596283,0.2434692,0.3757515c0.1070862,0.1128349,0.2963295,0.2716789,0.5786896,0.4858475
						c0.2681198,0.2021141,0.4590073,0.3746529,0.5666389,0.5121384c0.1002388,0.1270752,0.1509018,0.2623672,0.1509018,0.4020424
						c0,0.1358376-0.0566902,0.2525063-0.1733589,0.3560295c-0.119133,0.1068115-0.2590828,0.1582985-0.4280586,0.1582985
						c-0.2590828,0-0.5014572-0.2064972-0.7200089-0.6140175l-0.0410805-0.0761375l-0.5414429,0.3116646l0.0361519,0.071209
						c0.3152275,0.6189461,0.7594452,0.9328003,1.3206062,0.9328003c0.3220711,0,0.6079941-0.1166687,0.8498192-0.3472672
						c0.2429237-0.2311478,0.3658943-0.5088501,0.3658943-0.8248978
						C56.7085953,48.0796432,56.6302681,47.8474007,56.4755287,47.6310463z"/>
				</g>
				<g>
					<path class="st179" d="M46.6064224,46.4204712c-0.1896973-0.1205368-0.4038315-0.1816406-0.6362953-0.1816406
						c-0.3655052,0-0.6924019,0.1349831-0.9740257,0.4004974v-0.4004974l-0.6282425-0.0008049v3.2558861h0.6282425v-1.1998253
						c0-0.3882751,0.0166626-0.6482353,0.0497131-0.7726631c0.0319405-0.1205368,0.0908203-0.2366333,0.1749763-0.3443947
						c0.0841522-0.1072083,0.1860847-0.1921959,0.3027344-0.2521858c0.2360764-0.1216469,0.5010376-0.1072044,0.6637917-0.0366592
						c0.0805435,0.0349922,0.1446991,0.0860977,0.1966362,0.157196c0.0538826,0.0733223,0.0958214,0.1655312,0.1244278,0.2744064
						c0.0291634,0.1122055,0.0441589,0.3327293,0.0441589,0.6543503v1.5197754h0.6229668v-1.6303177
						c0-0.4243813-0.0458298-0.7321129-0.1399803-0.9420853C46.9408188,46.7104301,46.7963943,46.5415649,46.6064224,46.4204712z"/>
				</g>
				<g>
					<path class="st179" d="M35.4485245,45.4283981c-0.33741-0.189518-0.711792-0.2859192-1.1130104-0.2859192
						c-0.3831444,0-0.7460251,0.097496-1.078228,0.2892075c-0.332756,0.1917076-0.5986824,0.4595528-0.7901192,0.7953186
						s-0.2883873,0.7049446-0.2883873,1.097126c0,0.3927307,0.0969505,0.7597198,0.288662,1.0921974
						c0.1914368,0.3319321,0.4601021,0.5970383,0.7986069,0.7876549c0.3376808,0.1889687,0.7074089,0.2853699,1.0993156,0.2853699
						c0.3916359,0,0.7599945-0.0969467,1.0946617-0.2886581c0.3341217-0.1917076,0.600872-0.4584579,0.7928581-0.793129
						c0.191433-0.3341217,0.2883835-0.7022057,0.2883835-1.0943871c0-0.3916359-0.0980453-0.7602654-0.2913971-1.0949364
						C36.0559692,45.8835716,35.7864799,45.6179161,35.4485245,45.4283981z M35.8889084,47.32687
						c0,0.4387436-0.149807,0.8084679-0.4453125,1.0987701c-0.2966042,0.2908516-0.6638641,0.4381943-1.0919228,0.4381943
						c-0.4135475,0-0.7742348-0.150631-1.0719299-0.4486008c-0.297699-0.2974243-0.4488754-0.6666031-0.4488754-1.0965767
						c0-0.4305267,0.1467934-0.800251,0.4362755-1.0998688c0.2922211-0.3034477,0.6471558-0.4502411,1.0845299-0.4502411
						c0.4209366,0,0.7862816,0.1506271,1.0858955,0.4486008C35.7371826,46.5151176,35.8889084,46.8881302,35.8889084,47.32687z"/>
				</g>
				<g>
					<path class="st179" d="M38.6693268,46.2388306c-0.3795052,0-0.7112694,0.1327057-0.9888191,0.3938026v-0.3938026H37.075779
						v4.1953354h0.6047287V49.088768c0.2996674,0.2708054,0.6406021,0.4078255,1.0157928,0.4078255
						c0.4358788,0,0.8129539-0.1618347,1.1204453-0.4806519c0.3066788-0.3182793,0.4623108-0.7056084,0.4623108-1.1506577
						c0-0.446125-0.1575203-0.8323746-0.4682465-1.1484947C39.4995461,46.4001274,39.1157227,46.2388306,38.6693268,46.2388306z
						 M37.9440308,47.1327057c0.1944733-0.2012138,0.4280548-0.2988548,0.7147751-0.2988548s0.5221939,0.0992584,0.719902,0.3042488
						c0.1987877,0.2055321,0.29562,0.4466705,0.29562,0.7379761c0,0.2907639-0.0984497,0.5313606-0.3004761,0.7368927
						c-0.2014847,0.2055321-0.4318314,0.3047905-0.704525,0.3047905c-0.2832146,0-0.5181465-0.097641-0.7180138-0.2993965
						c-0.2001381-0.2017555-0.2975082-0.4445076-0.2975082-0.7422867
						C37.6538048,47.5772171,37.7487488,47.3339233,37.9440308,47.1327057z"/>
				</g>
				<g>
					<path class="st179" d="M43.8929024,47.9314766c-0.0110512-0.5197372-0.1687508-0.935955-0.4685135-1.2373352
						c-0.3005753-0.3024597-0.6787834-0.4561157-1.1243858-0.4561157c-0.4464111,0-0.8259697,0.162281-1.1284294,0.4814529
						c-0.3011093,0.3175583-0.4536858,0.7041245-0.4536858,1.149456c0,0.4442558,0.1517677,0.8302803,0.4512596,1.146759
						c0.3005753,0.3170166,0.6865997,0.4782181,1.1470299,0.4782181c0.3329201,0,0.6237907-0.0792542,0.8642464-0.2356033
						c0.2393799-0.1552734,0.4488373-0.3968086,0.6221733-0.7181396l0.0401649-0.0744019l-0.5221596-0.2690315l-0.0385475,0.0722427
						c-0.2329102,0.4350891-0.5593643,0.6464348-0.9979553,0.6464348c-0.2547455,0-0.4679794-0.0873413-0.6515579-0.2679558
						c-0.1663246-0.1633606-0.262291-0.3703918-0.2919464-0.6313362h2.5541954L43.8929024,47.9314766z M41.4203911,47.4591866
						c0.1625519-0.4210739,0.4512634-0.6264877,0.879612-0.6264877c0.2272491,0,0.4305077,0.0646973,0.6043816,0.1924744
						c0.147995,0.1083679,0.2485428,0.2512436,0.3059616,0.4340134H41.4203911z"/>
				</g>
			</g>
		</g>
	</g>
</g>
</svg>
