<?xml version="1.0" encoding="utf-8"?>
<!-- Generator: Adobe Illustrator 23.0.3, SVG Export Plug-In . SVG Version: 6.00 Build 0)  -->
<svg version="1.1" id="Layer_1" xmlns="http://www.w3.org/2000/svg" xmlns:xlink="http://www.w3.org/1999/xlink" x="0px" y="0px"
	 viewBox="0 0 158.8696289 37.3140068" style="enable-background:new 0 0 158.8696289 37.3140068;" xml:space="preserve">
<style type="text/css">
	.st0{fill:#001959;}
	.st1{fill:#0063FF;}
	.st2{enable-background:new    ;}
	.st3{fill:#9FB2DC;}
	.st4{fill:#8EA0C5;}
	.st5{fill:#636F89;}
	.st6{fill:#23232A;}
	.st7{fill:#FFFFFF;}
	.st8{fill:#14BBC4;}
	.st9{fill:#8AFFFF;}
	.st10{fill:#231F20;}
	.st11{fill:#1BE0E6;}
	.st12{fill:#262B3E;}
	.st13{fill:#F26D00;}
	.st14{fill:#744729;stroke:#FEFEFE;stroke-miterlimit:10;}
	.st15{fill:#2D1D0D;stroke:#FEFEFE;stroke-miterlimit:10;}
	.st16{fill:#060707;stroke:#FEFEFE;stroke-miterlimit:10;}
	.st17{fill:#FFFFFF;stroke:#FEFEFE;stroke-miterlimit:10;}
	.st18{fill:#4B3938;stroke:#FEFEFE;stroke-miterlimit:10;}
	.st19{fill:#C5875D;stroke:#FEFEFE;stroke-miterlimit:10;}
	.st20{fill:#663399;}
	.st21{fill:#F05A2B;}
	.st22{fill:#020202;}
	.st23{fill:#060707;}
	.st24{fill:#AF8070;}
	.st25{fill:#4B3938;}
	.st26{fill:#563A39;}
	.st27{opacity:0.27;fill:#F05A2B;enable-background:new    ;}
	.st28{fill:none;stroke:#262B3E;stroke-width:0.5;stroke-miterlimit:10;}
	.st29{fill:#6976F4;stroke:#6976F4;stroke-width:0.3;}
	.st30{fill:#6976F4;stroke:#6976F4;}
	.st31{fill:none;stroke:#FFFFFF;stroke-width:2;}
	.st32{fill:none;stroke:#6976F4;stroke-width:2;}
	.st33{fill:url(#Path_1_);}
	.st34{fill:#EFEDED;}
	.st35{fill:#6666FF;}
	.st36{clip-path:url(#Path_7_);}
	.st37{fill:#684FF1;}
	.st38{opacity:0.24;enable-background:new    ;}
	.st39{fill:#C48C62;}
	.st40{fill:#FEFEFE;}
	.st41{opacity:0.1;fill:#262B3E;}
	.st42{fill:#454745;}
	.st43{fill:#75451D;}
	.st44{fill:#684FF1;stroke:#21201F;stroke-width:0.75;}
	.st45{fill:#6466AD;}
	.st46{fill:#C5875D;}
	.st47{clip-path:url(#Path_8_);}
	.st48{fill:#6445FF;}
	.st49{fill:#744729;}
	.st50{fill:#7A5DFF;}
	.st51{fill:#F15A29;}
	.st52{fill:#348FC0;}
	.st53{fill:#51331A;}
	.st54{fill:#895F3D;}
	.st55{fill:#5333FF;}
	.st56{fill:#4C3520;}
	.st57{fill:#2D1D0D;}
	.st58{fill:#2B83FF;}
	.st59{fill:#212127;}
	.st60{fill:#579BFF;}
	.st61{fill:#626372;}
	.st62{fill:none;stroke:#F26D00;stroke-width:2;stroke-miterlimit:10;}
	.st63{opacity:0.4;fill:#F26D00;}
	.st64{fill:#744729;stroke:#FFFFFF;stroke-width:2;stroke-miterlimit:10;}
	.st65{fill:#C5875D;stroke:#FFFFFF;stroke-width:2;stroke-miterlimit:10;}
	.st66{fill:none;stroke:#5333FF;stroke-width:2;stroke-miterlimit:10;}
	.st67{fill:none;stroke:#262B3E;stroke-width:2;stroke-miterlimit:10;}
	.st68{fill:none;stroke:#FFFFFF;stroke-width:0.25;stroke-miterlimit:10;}
	.st69{fill:none;stroke:#262B3E;stroke-width:0.25;stroke-miterlimit:10;}
	.st70{stroke:#000000;}
	.st71{fill:#0063FF;stroke:#0063FF;stroke-miterlimit:10;}
	.st72{fill:#03A678;}
	.st73{fill:none;stroke:#000000;stroke-linecap:round;stroke-miterlimit:10;}
	.st74{fill:none;stroke:#23232A;stroke-width:1.3;stroke-linecap:round;stroke-miterlimit:10;}
	.st75{fill:none;stroke:#23232A;stroke-width:2;stroke-linecap:round;stroke-miterlimit:10;}
	.st76{fill:#BDBDBD;}
	.st77{fill:#6E6E6E;}
	.st78{fill:none;stroke:#6E6E6E;stroke-width:2;stroke-linecap:round;stroke-miterlimit:10;}
	.st79{fill:none;stroke:#FFFFFF;stroke-width:0.75;stroke-linecap:round;stroke-miterlimit:10;}
	.st80{fill:none;stroke:#FFFFFF;stroke-width:0.5;stroke-linecap:round;stroke-miterlimit:10;}
	.st81{fill:none;stroke:#23232A;stroke-width:0.5;stroke-linecap:round;stroke-miterlimit:10;}
	.st82{fill:#7D7E8D;}
	.st83{fill:#383842;}
	.st84{fill:#D1D2D9;}
	.st85{fill:url(#SVGID_1_);}
	.st86{fill:url(#SVGID_2_);}
	.st87{fill:url(#SVGID_3_);}
	.st88{fill:url(#SVGID_4_);}
	.st89{fill:url(#SVGID_5_);}
	.st90{fill:url(#SVGID_6_);}
	.st91{fill:url(#SVGID_7_);}
	.st92{fill:url(#SVGID_8_);}
	.st93{fill:url(#SVGID_9_);}
	.st94{fill:url(#SVGID_10_);}
	.st95{fill:url(#SVGID_11_);}
	.st96{fill:url(#SVGID_12_);}
	.st97{fill:url(#SVGID_13_);}
	.st98{fill:url(#SVGID_14_);}
	.st99{fill:url(#SVGID_15_);}
	.st100{fill:url(#SVGID_16_);}
	.st101{fill:url(#SVGID_17_);}
	.st102{fill:url(#SVGID_18_);}
	.st103{fill:url(#SVGID_19_);}
	.st104{fill:url(#SVGID_20_);}
	.st105{fill:url(#SVGID_21_);}
	.st106{fill:url(#SVGID_22_);}
	.st107{fill:url(#SVGID_23_);}
	.st108{fill:url(#SVGID_24_);}
	.st109{fill:url(#SVGID_25_);}
	.st110{fill:url(#SVGID_26_);}
	.st111{fill:url(#SVGID_27_);}
	.st112{fill:url(#SVGID_28_);}
	.st113{fill:url(#SVGID_29_);}
	.st114{fill:url(#SVGID_30_);}
	.st115{fill:url(#SVGID_31_);}
	.st116{fill:url(#SVGID_32_);}
	.st117{fill:url(#SVGID_33_);}
	.st118{fill:url(#SVGID_34_);}
	.st119{fill:url(#SVGID_35_);}
	.st120{fill:url(#SVGID_36_);}
	.st121{fill:url(#SVGID_37_);}
	.st122{stroke:#000000;stroke-miterlimit:10;}
	.st123{fill:#1BE0E6;stroke:#1BE0E6;stroke-width:0.5;stroke-miterlimit:10;}
	.st124{fill:#1BE0E6;stroke:#FFFFFF;stroke-linecap:round;stroke-linejoin:round;stroke-miterlimit:10;}
	.st125{fill:#1BE0E6;stroke:#23232A;stroke-linecap:round;stroke-linejoin:round;stroke-miterlimit:10;}
	.st126{fill:none;stroke:#23232A;stroke-width:2;stroke-miterlimit:10;}
	.st127{fill:none;stroke:#23232A;stroke-width:4;stroke-miterlimit:10;}
	.st128{fill:none;stroke:#FFFFFF;stroke-width:2;stroke-linecap:round;stroke-miterlimit:10;}
	.st129{fill:none;stroke:#FFFFFF;stroke-width:2;stroke-miterlimit:10;}
	.st130{fill:#898989;}
	.st131{fill:url(#SVGID_38_);}
	.st132{fill:url(#SVGID_39_);}
	.st133{fill:url(#SVGID_40_);}
	.st134{fill:url(#SVGID_41_);}
	.st135{fill:url(#SVGID_42_);}
	.st136{fill:url(#SVGID_43_);}
	.st137{fill:url(#SVGID_44_);}
	.st138{fill:url(#SVGID_45_);}
	.st139{fill:none;stroke:#6E6E6E;stroke-miterlimit:10;}
	.st140{fill:url(#SVGID_46_);}
	.st141{fill:#BDBDBD;stroke:#FFFFFF;stroke-linecap:round;stroke-linejoin:round;stroke-miterlimit:10;}
	.st142{fill:#FFFFFF;stroke:#FFFFFF;stroke-width:0.3;stroke-miterlimit:10;}
	.st143{fill:#23232A;stroke:#23232A;stroke-width:0.4;stroke-miterlimit:10;}
	.st144{fill:none;stroke:#FFFFFF;stroke-miterlimit:10;}
	.st145{fill:none;stroke:#23232A;stroke-miterlimit:10;}
	.st146{fill:none;stroke:#FFFFFF;stroke-width:0.75;stroke-miterlimit:10;}
	.st147{fill:none;stroke:#000000;stroke-width:0.05;stroke-miterlimit:10;}
	.st148{fill:none;stroke:#6E6E6E;stroke-width:0.05;stroke-miterlimit:10;}
	.st149{fill:none;stroke:#000000;stroke-width:3;stroke-miterlimit:10;}
	.st150{fill:none;stroke:#606060;stroke-width:3;stroke-miterlimit:10;}
	.st151{fill:none;stroke:#000000;stroke-miterlimit:10;}
	.st152{fill:#606060;}
	.st153{fill:#382F32;}
	.st154{fill:#544C4F;}
	.st155{fill:none;stroke:#000000;stroke-width:4;stroke-linecap:round;stroke-linejoin:round;stroke-miterlimit:10;}
	.st156{fill:none;stroke:#BDBDBD;stroke-width:4;stroke-linecap:round;stroke-linejoin:round;stroke-miterlimit:10;}
	.st157{fill:none;stroke:#000000;stroke-width:3;stroke-linecap:round;stroke-linejoin:round;stroke-miterlimit:10;}
	.st158{fill:#4D4E5A;}
	.st159{fill:#B5B5C0;}
	.st160{fill:#E3147C;}
	.st161{fill:none;stroke:#E3147C;}
	.st162{fill:#001959;stroke:#001959;stroke-width:0.25;}
	.st163{fill:#23232A;stroke:#03A678;}
	.st164{fill-rule:evenodd;clip-rule:evenodd;fill:#23232A;}
	.st165{fill:#00ABFF;}
	.st166{fill:#003E31;}
	.st167{fill:#2EC396;}
	.st168{fill:#FFFFFF;stroke:#231F20;stroke-miterlimit:10;}
	.st169{fill:none;stroke:#FFFFFF;stroke-width:0.5;stroke-linecap:round;stroke-linejoin:round;stroke-miterlimit:10;}
	.st170{fill:none;stroke:#FFFFFF;stroke-width:4;stroke-miterlimit:10;}
	.st171{fill:#005183;}
	.st172{fill:none;stroke:#001959;stroke-miterlimit:10;}
	.st173{fill:none;stroke:#06C6BC;stroke-width:0.2;stroke-miterlimit:10;}
	.st174{fill:none;stroke:#0F9FEF;stroke-width:0.2;stroke-miterlimit:10;}
	.st175{fill:none;stroke:#FFFFFF;stroke-width:0.2;stroke-miterlimit:10;}
	.st176{fill:none;stroke:#1296E0;stroke-width:0.2;stroke-miterlimit:10;}
	.st177{fill:#00EFE8;}
	.st178{fill:#EFEFF2;}
	.st179{fill:#003659;}
	.st180{fill:#008CD6;}
	.st181{fill:#454345;}
	.st182{fill:#444243;}
	.st183{fill:#433F41;}
	.st184{fill:#484546;}
	.st185{fill:#434142;}
	.st186{fill:#413E3F;}
	.st187{fill:#413F40;}
	.st188{fill:#454142;}
	.st189{fill:#4A4748;}
	.st190{fill:#423F41;}
	.st191{fill:#494647;}
	.st192{fill:#3F3A3C;}
	.st193{fill:#464343;}
	.st194{fill:#474445;}
	.st195{fill:#201D1C;}
	.st196{fill:#4B4849;}
	.st197{fill:#443D3F;}
	.st198{fill:#413D3E;}
	.st199{fill:#4E494A;}
	.st200{fill:#423C3E;}
	.st201{fill:#413C3E;}
	.st202{fill:#444142;}
	.st203{fill:#4C4647;}
	.st204{fill:#433D41;}
	.st205{fill:#3E3B3B;}
	.st206{fill:#474242;}
	.st207{fill:#4A4747;}
	.st208{fill:#4C494A;}
	.st209{fill:#504C4C;}
	.st210{fill:#3F3938;}
	.st211{fill:#494547;}
	.st212{fill:#5F5857;}
	.st213{fill:#4D4341;}
	.st214{fill:#4B4748;}
	.st215{fill:#534D4D;}
	.st216{fill:#474343;}
	.st217{fill:#544E4D;}
	.st218{fill:#433F3F;}
	.st219{fill:#3D3A3C;}
	.st220{fill:#413E3E;}
	.st221{fill:#4B4646;}
	.st222{fill:#494443;}
	.st223{fill:#4F4B4C;}
	.st224{fill:#4F4C4C;}
	.st225{fill:#464142;}
	.st226{fill:#524945;}
	.st227{fill:#464040;}
	.st228{fill:#565353;}
	.st229{fill:#3C3230;}
	.st230{fill:#5C5653;}
	.st231{fill:#514E4E;}
	.st232{fill:#4F4A4C;}
	.st233{fill:#444040;}
	.st234{fill:#534F4F;}
	.st235{fill:#433D3D;}
	.st236{fill:#5C5452;}
	.st237{fill:#443A37;}
	.st238{fill:#3E393A;}
	.st239{fill:#413D3C;}
	.st240{fill:#61544D;}
	.st241{fill:#433F3E;}
	.st242{fill:#4C4949;}
	.st243{fill:#474446;}
	.st244{fill:#3A3533;}
	.st245{fill:#423C3D;}
	.st246{fill:#454242;}
	.st247{fill:#453F41;}
	.st248{fill:#464244;}
	.st249{fill:#212029;}
	.st250{fill:#3E3A3B;}
	.st251{fill:#423E3F;}
	.st252{fill:#504C4D;}
	.st253{fill:#413F41;}
	.st254{fill:#464141;}
	.st255{fill:#4E4B4C;}
	.st256{fill:#424041;}
	.st257{fill:#423E40;}
	.st258{fill:#423F3F;}
	.st259{fill:#423D3E;}
	.st260{fill:#474141;}
	.st261{fill:#3F3C3E;}
	.st262{fill:#443D3C;}
	.st263{fill:#4F4C4D;}
	.st264{fill:#393434;}
	.st265{fill:#515050;}
	.st266{fill:#403C3C;}
	.st267{fill:#3F3837;}
	.st268{fill:#393232;}
	.st269{fill:#4A4746;}
	.st270{fill:#474547;}
	.st271{fill:#575454;}
	.st272{fill:#474647;}
	.st273{fill:#3F3D3E;}
	.st274{fill:#4C494B;}
	.st275{fill:#464445;}
	.st276{fill:#3E3C3D;}
	.st277{fill:#4A4849;}
	.st278{fill:#3D3B3C;}
	.st279{fill:#4D4B4C;}
	.st280{fill:#525152;}
	.st281{fill:#3C3B3C;}
	.st282{fill:#4E4D4D;}
	.st283{fill:#403D3F;}
	.st284{fill:#4F4D4E;}
	.st285{fill:#4C4A4B;}
	.st286{fill:#3C3A3B;}
	.st287{fill:#3F3D3F;}
	.st288{fill:#3B393A;}
	.st289{fill:#4F4E4E;}
	.st290{fill:#535051;}
	.st291{fill:#3D3B3D;}
	.st292{fill:#504E4E;}
	.st293{fill:#514E4F;}
	.st294{fill:#545152;}
	.st295{fill:#393839;}
	.st296{fill:#3C393A;}
	.st297{fill:#403E3F;}
	.st298{fill:#383537;}
	.st299{fill:#545153;}
	.st300{fill:#4C4C4D;}
	.st301{fill:#4D4C4D;}
	.st302{fill:#514D4F;}
	.st303{fill:#525052;}
	.st304{fill:#565455;}
	.st305{fill:#3B3839;}
	.st306{fill:#524F50;}
	.st307{fill:#353234;}
	.st308{fill:#373435;}
	.st309{fill:#504B4C;}
	.st310{fill:#524D4E;}
	.st311{fill:#3A363A;}
	.st312{fill:#565152;}
	.st313{fill:#525151;}
	.st314{fill:#393738;}
	.st315{fill:#393737;}
	.st316{fill:#393637;}
	.st317{fill:#494648;}
	.st318{fill:#464345;}
	.st319{fill:#3D393B;}
	.st320{fill:#4D494A;}
	.st321{fill:#4F4C4E;}
	.st322{fill:#4E4B4D;}
	.st323{fill:#4D4A4B;}
	.st324{fill:#3B3739;}
	.st325{fill:#4D4A4C;}
	.st326{fill:#3A3638;}
	.st327{fill:#525051;}
	.st328{fill:#5A5658;}
	.st329{fill:#585455;}
	.st330{fill:#424142;}
	.st331{fill:#4B494A;}
	.st332{fill:#4E4A4B;}
	.st333{fill:#423F40;}
	.st334{fill:#403F40;}
	.st335{fill:#403E40;}
	.st336{fill:#3D3A3B;}
	.st337{fill:#3C3939;}
	.st338{fill:#504D50;}
	.st339{fill:#3C393B;}
	.st340{fill:#3A383B;}
	.st341{fill:#383536;}
	.st342{fill:#545252;}
	.st343{fill:#575355;}
	.st344{fill:#494749;}
	.st345{fill:#4F4D4F;}
	.st346{fill:#52504F;}
	.st347{fill:#393537;}
	.st348{fill:#4A4749;}
	.st349{fill:#4A494B;}
	.st350{fill:#3A383A;}
	.st351{fill:#4D4849;}
	.st352{fill:#504D4E;}
	.st353{fill:#3F3C3C;}
	.st354{fill:#4E4A4C;}
	.st355{fill:#504D4D;}
	.st356{fill:#514F4F;}
	.st357{fill:#3F3C3D;}
	.st358{fill:#545050;}
	.st359{fill:#2D2A2B;}
	.st360{fill:#434041;}
	.st361{fill:#535151;}
	.st362{fill:#595656;}
	.st363{fill:#524E4F;}
	.st364{fill:#3B383A;}
	.st365{fill:#2E2A2B;}
	.st366{fill:#494548;}
	.st367{fill:#5A5757;}
	.st368{fill:#514E4D;}
	.st369{fill:#565252;}
	.st370{fill:#3B3939;}
	.st371{fill:#5C5656;}
	.st372{fill:#585656;}
	.st373{fill:#434042;}
	.st374{fill:#1D1B1C;}
	.st375{fill:#2B2929;}
	.st376{fill:#4C494C;}
	.st377{fill:#555354;}
	.st378{fill:#4D484B;}
	.st379{fill:#5A585A;}
	.st380{fill:#4B484A;}
	.st381{fill:#504E50;}
	.st382{fill:#373236;}
	.st383{fill:#474143;}
	.st384{fill:#2B2D3A;}
	.st385{fill:#524C4E;}
	.st386{fill:#3D383C;}
	.st387{fill:#211E21;}
	.st388{fill:#3E3A3C;}
	.st389{fill:#373234;}
	.st390{fill:#464344;}
	.st391{fill:#575353;}
	.st392{fill:#575352;}
	.st393{fill:#605D5F;}
	.st394{fill:#393638;}
	.st395{fill:#3A3536;}
	.st396{fill:#5F5B5C;}
	.st397{fill:#484647;}
	.st398{fill:#454244;}
	.st399{fill:#514D4D;}
	.st400{fill:#595556;}
	.st401{fill:#555150;}
	.st402{fill:#675D5A;}
	.st403{fill:#474243;}
	.st404{fill:#514D4E;}
	.st405{fill:#5B5757;}
	.st406{fill:#524F4F;}
	.st407{fill:#474344;}
	.st408{fill:#454141;}
	.st409{fill:#494345;}
	.st410{fill:#555151;}
	.st411{fill:#3C3738;}
	.st412{fill:#4C4849;}
	.st413{fill:#4B4647;}
	.st414{fill:#E3E2E3;}
	.st415{fill:#434143;}
	.st416{fill:#292B36;}
	.st417{fill:#3E3B3E;}
	.st418{fill:#413E40;}
	.st419{fill:#373436;}
	.st420{fill:#3C383B;}
	.st421{fill:#535050;}
	.st422{fill:#3B3A3C;}
	.st423{fill:#3A393A;}
	.st424{fill:#514E50;}
	.st425{fill:#504D4F;}
	.st426{fill:#4E4C4E;}
	.st427{fill:#585355;}
	.st428{fill:#3D3A3D;}
	.st429{fill:#3B373A;}
	.st430{fill:#403D3E;}
	.st431{fill:#454040;}
	.st432{fill:#53504F;}
	.st433{fill:#585454;}
	.st434{fill:#2C2829;}
	.st435{fill:#4E4C4D;}
	.st436{fill:#4C4A4C;}
	.st437{fill:#4F4E50;}
	.st438{fill:#424042;}
	.st439{fill:#3E3B3D;}
	.st440{fill:#504E4F;}
	.st441{fill:#514F51;}
	.st442{fill:#383638;}
	.st443{fill:#41414B;}
	.st444{fill:#4E4D4F;}
	.st445{fill:#3A393B;}
	.st446{fill:#464243;}
	.st447{fill:#383436;}
	.st448{fill:#525050;}
	.st449{fill:#575555;}
	.st450{fill:#545151;}
	.st451{fill:#444244;}
	.st452{fill:#494849;}
	.st453{fill:#414041;}
	.st454{fill:#555252;}
	.st455{fill:#4D4B4D;}
	.st456{fill:#3D3C3E;}
	.st457{fill:#555455;}
	.st458{fill:#413D40;}
	.st459{fill:#575557;}
	.st460{fill:#3E3D3E;}
	.st461{fill:#4F4E4F;}
	.st462{fill:#525153;}
	.st463{fill:#575757;}
	.st464{fill:#515051;}
	.st465{fill:#3F3E3F;}
	.st466{fill:#515150;}
	.st467{fill:#5B5A5A;}
	.st468{fill:#373536;}
	.st469{fill:#393939;}
	.st470{fill:#3C3A3A;}
	.st471{fill:#5D5B5E;}
	.st472{fill:#393334;}
	.st473{fill:#444344;}
	.st474{fill:#514F50;}
	.st475{fill:#3A373A;}
	.st476{fill:#504F4F;}
	.st477{fill:#484648;}
	.st478{fill:#565454;}
	.st479{fill:#4E4D4E;}
	.st480{fill:#545353;}
	.st481{fill:#373537;}
	.st482{fill:#363537;}
	.st483{fill:#464446;}
	.st484{fill:#3E3C3E;}
	.st485{fill:#3A3739;}
	.st486{fill:#363336;}
	.st487{fill:#565153;}
	.st488{fill:#353436;}
	.st489{fill:#525150;}
	.st490{fill:#413D3F;}
	.st491{fill:#3F3B3D;}
	.st492{fill:#5C5759;}
	.st493{fill:#575455;}
	.st494{fill:#4F4D50;}
	.st495{fill:#5A5657;}
	.st496{fill:#444143;}
	.st497{fill:#403C3D;}
	.st498{fill:#2C292A;}
	.st499{fill:#332E30;}
	.st500{fill:#585556;}
	.st501{fill:#524E50;}
	.st502{fill:#3E3D3D;}
	.st503{fill:#393739;}
	.st504{fill:#39383A;}
	.st505{fill:#656265;}
	.st506{fill:#454344;}
	.st507{fill:#504C4E;}
	.st508{fill:#545254;}
	.st509{fill:#5B5959;}
	.st510{fill:#464546;}
	.st511{fill:#474546;}
	.st512{fill:#2B2A2A;}
	.st513{fill:#2E2C2C;}
	.st514{fill:#5A5858;}
	.st515{fill:#353335;}
	.st516{fill:#484547;}
	.st517{fill:#424141;}
	.st518{fill:#575656;}
	.st519{fill:#403F3F;}
	.st520{fill:#595555;}
	.st521{fill:#605E5E;}
	.st522{fill:#626162;}
	.st523{fill:#636060;}
	.st524{fill:#555353;}
	.st525{fill:#555355;}
	.st526{fill:#5F5C5D;}
	.st527{fill:#5B5556;}
	.st528{fill:#595657;}
	.st529{fill:#5D5B5B;}
	.st530{fill:#403B3C;}
	.st531{fill:#565354;}
	.st532{fill:#3C393C;}
	.st533{fill:#3F3C3F;}
	.st534{fill:#504C4F;}
	.st535{fill:#3E3A3D;}
	.st536{fill:#3A3738;}
	.st537{fill:#524F51;}
	.st538{fill:#5A595A;}
	.st539{fill:#535053;}
	.st540{fill:#555253;}
	.st541{fill:#605E60;}
	.st542{fill:#2B292A;}
	.st543{fill:#403D40;}
	.st544{fill:#504F50;}
	.st545{fill:#474548;}
	.st546{fill:#545354;}
	.st547{fill:#2A2F40;}
	.st548{fill:#595658;}
	.st549{fill:#5B5758;}
	.st550{fill:#545253;}
	.st551{fill:#2B3144;}
	.st552{fill:#37353D;}
	.st553{fill:#2E3447;}
	.st554{fill:#353A4E;}
	.st555{fill:#2F303B;}
	.st556{fill:#393536;}
	.st557{fill:#211F20;}
	.st558{fill:#484748;}
	.st559{fill:#4C4848;}
	.st560{fill:#433E3E;}
	.st561{fill:#2B2B37;}
	.st562{fill:#CCCBCC;}
	.st563{fill:#4A4646;}
	.st564{fill:#48423F;}
	.st565{fill:#3F3B3B;}
	.st566{fill:#3C3735;}
	.st567{fill:#403D3D;}
	.st568{fill:#3D393A;}
	.st569{fill:#393535;}
	.st570{fill:#393332;}
	.st571{fill:#3E3938;}
	.st572{fill:#383637;}
	.st573{fill:#5B5250;}
	.st574{fill:#383434;}
	.st575{fill:#E4E3E4;}
	.st576{fill:#CAC9CB;}
	.st577{fill:#363335;}
	.st578{fill:#524E4E;}
	.st579{fill:#595758;}
	.st580{fill:#4F4B4D;}
	.st581{fill:#5D595A;}
	.st582{fill:#5B595A;}
	.st583{fill:#5A5758;}
	.st584{fill:#3C3A3C;}
	.st585{fill:#514F4E;}
	.st586{fill:#565355;}
	.st587{fill:#383435;}
	.st588{fill:#4E4B4B;}
	.st589{fill:#484545;}
	.st590{fill:#555352;}
	.st591{fill:#555454;}
	.st592{fill:#383738;}
	.st593{fill:#484446;}
	.st594{fill:#4E4E4F;}
	.st595{fill:#454243;}
	.st596{fill:#565456;}
	.st597{fill:#3E3B3C;}
	.st598{fill:#5A5959;}
	.st599{fill:#5D5A5A;}
	.st600{fill:#403C3E;}
	.st601{fill:#444042;}
	.st602{fill:#444242;}
	.st603{fill:#545051;}
	.st604{fill:#413F3F;}
	.st605{fill:#3F3D3D;}
	.st606{fill:#574E4F;}
	.st607{fill:#444141;}
	.st608{fill:#343133;}
	.st609{fill:#555051;}
	.st610{fill:#383739;}
	.st611{fill:#3F3838;}
	.st612{fill:#575357;}
	.st613{fill:#5D5D5B;}
	.st614{fill:#3F3B3E;}
	.st615{fill:#423D3D;}
	.st616{fill:#3E3D3F;}
	.st617{fill:#4C4B4D;}
	.st618{fill:#3D3C3D;}
	.st619{fill:#3E3E3F;}
	.st620{fill:#433F42;}
	.st621{fill:#3D3B3E;}
	.st622{fill:#3B393B;}
	.st623{fill:#505050;}
	.st624{fill:#383538;}
	.st625{fill:#4F4B4B;}
	.st626{fill:#3E3A3A;}
	.st627{fill:#575253;}
	.st628{fill:#3A3737;}
	.st629{fill:#272424;}
	.st630{fill:#363333;}
	.st631{fill:#585256;}
	.st632{fill:#555456;}
	.st633{fill:#5D5B5C;}
	.st634{fill:#3E393B;}
	.st635{fill:#363334;}
	.st636{fill:#4C4A4D;}
	.st637{fill:#4B4A4B;}
	.st638{fill:#595757;}
	.st639{fill:#535252;}
	.st640{fill:#4D4C4E;}
	.st641{fill:#575657;}
	.st642{fill:#535353;}
	.st643{fill:#565554;}
	.st644{fill:#3A3839;}
	.st645{fill:#4A484A;}
	.st646{fill:#373538;}
	.st647{fill:#3F3B3A;}
	.st648{fill:#424040;}
	.st649{fill:#322F2F;}
	.st650{fill:#434244;}
	.st651{fill:#434043;}
	.st652{fill:#585655;}
	.st653{fill:#414042;}
	.st654{fill:#3E3C3C;}
	.st655{fill:#3C3C3D;}
	.st656{fill:#373638;}
	.st657{fill:#595453;}
	.st658{fill:#443D3B;}
	.st659{fill:#5B5858;}
	.st660{fill:#525252;}
	.st661{fill:#5C5A5B;}
	.st662{fill:#535253;}
	.st663{fill:#616060;}
	.st664{fill:#565556;}
	.st665{fill:#5C5858;}
	.st666{fill:#4B4749;}
	.st667{fill:#4D4C4F;}
	.st668{fill:#595858;}
	.st669{fill:#2B2829;}
	.st670{fill:#2D292A;}
	.st671{fill:#4C4A4A;}
	.st672{fill:#545554;}
	.st673{fill:#373535;}
	.st674{fill:#515151;}
	.st675{fill:#504E51;}
	.st676{fill:#555453;}
	.st677{fill:#535052;}
	.st678{fill:#575354;}
	.st679{fill:#595A5B;}
	.st680{fill:#575252;}
	.st681{fill:#3B3738;}
	.st682{fill:#585758;}
	.st683{fill:#585658;}
	.st684{fill:#252323;}
	.st685{fill:#595558;}
	.st686{fill:#504E4D;}
	.st687{fill:#3B383B;}
	.st688{fill:#565555;}
	.st689{fill:#545454;}
	.st690{fill:#3D383A;}
	.st691{fill:#5E5B5B;}
	.st692{fill:#626163;}
	.st693{fill:#403E3E;}
	.st694{fill:#5E5E5E;}
	.st695{fill:#403E41;}
	.st696{fill:#403F41;}
	.st697{fill:#2E2B2D;}
	.st698{fill:#312F30;}
	.st699{fill:#353236;}
	.st700{fill:#3C3945;}
	.st701{fill:#48434F;}
	.st702{fill:#49454F;}
	.st703{fill:#32394D;}
	.st704{fill:#4C4A4E;}
	.st705{fill:#545052;}
	.st706{fill:#59575A;}
	.st707{fill:#5E5A5A;}
	.st708{fill:#585657;}
	.st709{fill:#575556;}
	.st710{fill:#5A5A5A;}
	.st711{fill:#4C4B4C;}
	.st712{fill:#4B494B;}
	.st713{fill:#2C2A2A;}
	.st714{fill:#363435;}
	.st715{fill:#373637;}
	.st716{fill:#3B3A3A;}
	.st717{fill:#444446;}
	.st718{fill:#2F2C2D;}
	.st719{fill:#252222;}
	.st720{fill:#343131;}
	.st721{fill:#555152;}
	.st722{fill:#5B5658;}
	.st723{fill:#5C595B;}
	.st724{fill:#5E5B5D;}
	.st725{fill:#5A575A;}
	.st726{fill:#585859;}
	.st727{fill:#3F3A3F;}
	.st728{fill:#4A4647;}
	.st729{fill:#534F50;}
	.st730{fill:#3A3635;}
	.st731{fill:#524D4D;}
	.st732{fill:#595958;}
	.st733{fill:#3D3C3C;}
	.st734{fill:#3D3B3B;}
	.st735{fill:#383535;}
	.st736{fill:#535153;}
	.st737{fill:#5B595B;}
	.st738{fill:#535152;}
	.st739{fill:#5C5B5B;}
	.st740{fill:#434242;}
	.st741{fill:#565254;}
	.st742{fill:#434343;}
	.st743{fill:#584F4A;}
	.st744{fill:#5B5859;}
	.st745{fill:#272833;}
	.st746{fill:#434551;}
	.st747{fill:#2F313E;}
	.st748{fill:#30333E;}
	.st749{fill:#3B3C4B;}
	.st750{fill:#504C4B;}
	.st751{fill:#434243;}
	.st752{fill:#4E4C4F;}
	.st753{fill:#4C484A;}
	.st754{fill:#5B585A;}
	.st755{fill:#575554;}
	.st756{fill:#565253;}
	.st757{fill:#3C3B3B;}
	.st758{fill:#433D40;}
	.st759{fill:#585555;}
	.st760{fill:#5E5C5D;}
	.st761{fill:#585354;}
	.st762{fill:#545453;}
	.st763{fill:#5D5A5B;}
	.st764{fill:#555254;}
	.st765{fill:#504F4E;}
	.st766{fill:#363436;}
	.st767{fill:#5A595B;}
	.st768{fill:#595959;}
	.st769{fill:#3C3B3A;}
	.st770{fill:#4C4B4B;}
	.st771{fill:#595557;}
	.st772{fill:#4A474A;}
	.st773{fill:#3B3A3B;}
	.st774{fill:#383437;}
	.st775{fill:#585659;}
	.st776{fill:#535254;}
	.st777{fill:#58575A;}
	.st778{fill:#433F40;}
	.st779{fill:#534E4F;}
	.st780{fill:#3B3737;}
	.st781{fill:#5D5859;}
	.st782{fill:#605C5C;}
	.st783{fill:#2E2C2D;}
	.st784{fill:#322F30;}
	.st785{fill:#535355;}
	.st786{fill:#545455;}
	.st787{fill:#4D4D4E;}
	.st788{fill:#373739;}
	.st789{fill:#3D3D3F;}
	.st790{fill:#555556;}
	.st791{fill:#363434;}
	.st792{fill:#383939;}
	.st793{fill:#3F3E40;}
	.st794{fill:#585858;}
	.st795{fill:#5A5A5B;}
	.st796{fill:#353334;}
	.st797{fill:#444445;}
	.st798{fill:#3D3D3E;}
	.st799{fill:#565757;}
	.st800{fill:#585759;}
	.st801{fill:#5A5859;}
	.st802{fill:#575758;}
	.st803{fill:#555655;}
	.st804{fill:#5D5B5D;}
	.st805{fill:#484646;}
	.st806{fill:#585757;}
	.st807{fill:#615D5E;}
	.st808{fill:#494748;}
	.st809{fill:#4F5050;}
	.st810{fill:#534E50;}
	.st811{fill:#515152;}
	.st812{fill:#575558;}
	.st813{fill:#615E5F;}
	.st814{fill:#383737;}
	.st815{fill:#3A3639;}
	.st816{fill:#2E2A2C;}
	.st817{fill:#575153;}
	.st818{fill:#4E4E4E;}
	.st819{fill:#333132;}
	.st820{fill:#5C5B5D;}
	.st821{fill:#423E41;}
	.st822{fill:#565356;}
	.st823{fill:#5B585B;}
	.st824{fill:#5C595C;}
	.st825{fill:#373437;}
	.st826{fill:#555555;}
	.st827{fill:#4D4A55;}
	.st828{fill:#47464A;}
	.st829{fill:#575456;}
	.st830{fill:#454546;}
	.st831{fill:#5D5C5D;}
	.st832{fill:#666466;}
	.st833{fill:#5E5E5F;}
	.st834{fill:#5B5C5C;}
	.st835{fill:#424144;}
	.st836{fill:#5C5B5C;}
	.st837{fill:#545456;}
	.st838{fill:#5E5C5E;}
	.st839{fill:#5A585B;}
	.st840{fill:#515052;}
	.st841{fill:#454346;}
	.st842{fill:#5A5759;}
	.st843{fill:#595A5A;}
	.st844{fill:#433E40;}
	.st845{fill:#505051;}
	.st846{fill:#3C3A3D;}
	.st847{fill:#595859;}
	.st848{fill:#383639;}
	.st849{fill:#4E4949;}
	.st850{fill:#484344;}
	.st851{fill:#484342;}
	.st852{fill:#383336;}
	.st853{fill:#363234;}
	.st854{fill:#545251;}
	.st855{fill:#534E4E;}
	.st856{fill:#4F4949;}
	.st857{fill:#403B39;}
	.st858{fill:#413937;}
	.st859{fill:#3D3939;}
	.st860{fill:#494546;}
	.st861{fill:#413E3D;}
	.st862{fill:#504B4B;}
	.st863{fill:#565656;}
	.st864{fill:#565657;}
	.st865{fill:#5A5354;}
	.st866{fill:#463D3A;}
	.st867{fill:#5F5A5A;}
	.st868{fill:#5E5E5D;}
	.st869{fill:#3B3638;}
	.st870{fill:#3C3B3D;}
	.st871{fill:#4F4D4D;}
	.st872{fill:#4B4649;}
	.st873{fill:#5E5B5C;}
	.st874{fill:#5D585A;}
	.st875{fill:#3E3E3E;}
	.st876{fill:#3A3939;}
	.st877{fill:#3F3F40;}
	.st878{fill:#5D5A5C;}
	.st879{fill:#605E5F;}
	.st880{fill:#5C595A;}
	.st881{fill:#5C5A5A;}
	.st882{fill:#5B5B5B;}
	.st883{fill:#585756;}
	.st884{fill:#575658;}
	.st885{fill:#413E41;}
	.st886{fill:#514E52;}
	.st887{fill:#38373A;}
	.st888{fill:#424143;}
	.st889{fill:#646265;}
	.st890{fill:#39373A;}
	.st891{fill:#5A5555;}
	.st892{fill:#444343;}
	.st893{fill:#5C5C5E;}
	.st894{fill:#3A3A3A;}
	.st895{fill:#5B5A5C;}
	.st896{fill:#2D2B2C;}
	.st897{fill:#555154;}
	.st898{fill:#565557;}
	.st899{fill:#545154;}
	.st900{fill:#545556;}
	.st901{fill:#615D5F;}
	.st902{fill:#5B5A5B;}
	.st903{fill:#555255;}
	.st904{fill:#444345;}
	.st905{fill:#575457;}
	.st906{fill:#575756;}
	.st907{fill:#2C2A2B;}
	.st908{fill:#292727;}
	.st909{fill:#504F51;}
	.st910{fill:#545553;}
	.st911{fill:#5F5F5E;}
	.st912{fill:#585557;}
	.st913{fill:#393538;}
	.st914{fill:#5E595C;}
	.st915{fill:#39383B;}
	.st916{fill:#616260;}
	.st917{fill:#545457;}
	.st918{fill:#474648;}
	.st919{fill:#5D5659;}
	.st920{fill:#464547;}
	.st921{fill:#5F5E60;}
	.st922{fill:#403C3F;}
	.st923{fill:#5C5A5C;}
	.st924{fill:#5A5958;}
	.st925{fill:#696667;}
	.st926{fill:#4B4B4C;}
	.st927{fill:#4A4649;}
	.st928{fill:#5F5D5D;}
	.st929{fill:#5B5759;}
	.st930{fill:#4D4B4B;}
	.st931{fill:#4F4D4C;}
	.st932{fill:#605A5B;}
	.st933{fill:#464342;}
	.st934{fill:#5C5958;}
	.st935{fill:#565452;}
	.st936{fill:#3C3839;}
	.st937{fill:#3C383A;}
	.st938{fill:#575453;}
	.st939{fill:#544F4F;}
	.st940{fill:#605B5B;}
	.st941{fill:#5C5C5D;}
	.st942{fill:#373738;}
	.st943{fill:#535354;}
	.st944{fill:#605D5E;}
	.st945{fill:#3D3A3A;}
	.st946{fill:#5D5D5E;}
	.st947{fill:#3A3537;}
	.st948{fill:#363536;}
	.st949{fill:#5A5556;}
	.st950{fill:#414142;}
	.st951{fill:#474345;}
	.st952{fill:#5F5D5F;}
	.st953{fill:#535251;}
	.st954{fill:#454446;}
	.st955{fill:#626363;}
	.st956{fill:#59585A;}
	.st957{fill:#5E5A5D;}
	.st958{fill:#39393A;}
	.st959{fill:#393639;}
	.st960{fill:#363235;}
	.st961{fill:#3A3838;}
	.st962{fill:#4A4A4B;}
	.st963{fill:#484749;}
	.st964{fill:#454445;}
	.st965{fill:#3F3E3E;}
	.st966{fill:#595659;}
	.st967{fill:#535454;}
	.st968{fill:#5E5D5E;}
	.st969{fill:#5E5A5C;}
	.st970{fill:#59595C;}
	.st971{fill:#585554;}
	.st972{fill:#5E5D60;}
	.st973{fill:#353435;}
	.st974{fill:#525253;}
	.st975{fill:#535054;}
	.st976{fill:#5B5B5A;}
	.st977{fill:#525254;}
	.st978{fill:#525259;}
	.st979{fill:#5E5C5F;}
	.st980{fill:#37363A;}
	.st981{fill:#3B393D;}
	.st982{fill:#525251;}
	.st983{fill:#3C3B3E;}
	.st984{fill:#595A59;}
	.st985{fill:#353133;}
	.st986{fill:#5B5657;}
	.st987{fill:#615D5D;}
	.st988{fill:#595456;}
	.st989{fill:#5E5B5A;}
	.st990{fill:#413B3D;}
	.st991{fill:#444041;}
	.st992{fill:#5F5E5E;}
	.st993{fill:#504D4C;}
	.st994{fill:#535352;}
	.st995{fill:#5E5D5D;}
	.st996{fill:#393838;}
	.st997{fill:#635D5E;}
	.st998{fill:#424043;}
	.st999{fill:#5D5C5C;}
	.st1000{fill:#59585B;}
	.st1001{fill:#434144;}
	.st1002{fill:#4A484B;}
	.st1003{fill:#575559;}
	.st1004{fill:#444144;}
	.st1005{fill:#565458;}
	.st1006{fill:#434344;}
	.st1007{fill:#3B3A3D;}
	.st1008{fill:#5C585B;}
	.st1009{fill:#413F42;}
	.st1010{fill:#373639;}
	.st1011{fill:#585456;}
	.st1012{fill:#615E5E;}
	.st1013{fill:#58585A;}
	.st1014{fill:#616161;}
	.st1015{fill:#5A5C5D;}
	.st1016{fill:#575759;}
	.st1017{fill:#3B3B3B;}
	.st1018{fill:#5C585A;}
	.st1019{fill:#414040;}
	.st1020{fill:#3E3E40;}
	.st1021{fill:#3F3D40;}
	.st1022{fill:#626264;}
	.st1023{fill:#555357;}
	.st1024{fill:#6D6A6C;}
	.st1025{fill:#535154;}
	.st1026{fill:#59595A;}
	.st1027{fill:#565756;}
	.st1028{fill:#524F52;}
	.st1029{fill:#565655;}
	.st1030{fill:#3A3B3B;}
	.st1031{fill:#5E5D5F;}
	.st1032{fill:#514F52;}
	.st1033{fill:#525355;}
	.st1034{fill:#4F4F51;}
	.st1035{fill:#56565C;}
	.st1036{fill:#535258;}
	.st1037{fill:#515155;}
	.st1038{fill:#5C5757;}
	.st1039{fill:#404040;}
	.st1040{fill:#4B4848;}
	.st1041{fill:#504B4D;}
	.st1042{fill:#565453;}
	.st1043{fill:#595756;}
	.st1044{fill:#525453;}
	.st1045{fill:#5C5B5E;}
	.st1046{fill:#615F60;}
	.st1047{fill:#605D5D;}
	.st1048{fill:#565658;}
	.st1049{fill:#595759;}
	.st1050{fill:#363637;}
	.st1051{fill:#535255;}
	.st1052{fill:#605F61;}
	.st1053{fill:#454143;}
	.st1054{fill:#444043;}
	.st1055{fill:#464447;}
	.st1056{fill:#5A5B5A;}
	.st1057{fill:#565255;}
	.st1058{fill:#3D383B;}
	.st1059{fill:#3E393C;}
	.st1060{fill:#5B5B5D;}
	.st1061{fill:#645F60;}
	.st1062{fill:#353535;}
	.st1063{fill:#5C5758;}
	.st1064{fill:#5C5859;}
	.st1065{fill:#343334;}
	.st1066{fill:#4F4E4D;}
	.st1067{fill:#403B3D;}
	.st1068{fill:#3E3C3F;}
	.st1069{fill:#5C5A5F;}
	.st1070{fill:#3B393C;}
	.st1071{fill:#555457;}
	.st1072{fill:#585558;}
	.st1073{fill:#3F3F41;}
	.st1074{fill:#545352;}
	.st1075{fill:#555557;}
	.st1076{fill:#565457;}
	.st1077{fill:#605F60;}
	.st1078{fill:#4C494D;}
	.st1079{fill:#383736;}
	.st1080{fill:#625D60;}
	.st1081{fill:#5F5A5C;}
	.st1082{fill:#3A373B;}
	.st1083{fill:#5C5C5C;}
	.st1084{fill:#4E4E50;}
	.st1085{fill:#3A3637;}
	.st1086{fill:#595857;}
	.st1087{fill:#605E5D;}
	.st1088{fill:#555657;}
	.st1089{fill:#626061;}
	.st1090{fill:#5B595C;}
	.st1091{fill:#3D393C;}
	.st1092{fill:#3B3C3C;}
	.st1093{fill:#636061;}
	.st1094{fill:#50504F;}
	.st1095{fill:#5C5A59;}
	.st1096{fill:#555654;}
	.st1097{fill:#454245;}
	.st1098{fill:#5C5E5F;}
	.st1099{fill:#313131;}
</style>
<g>
	<g>
		<g>
			<path class="st7" d="M2.3709888,18.6715374c0-1.461607,0.1963766-2.8777761,0.5588844-4.2265072l-2.2843418-0.6431074
				C0.2270196,15.35499,0,16.9864922,0,18.6715374c0,9.8631058,7.6490226,17.9343662,17.3378563,18.6188641V34.913044
				C8.9717417,34.2317314,2.3709888,27.2102242,2.3709888,18.6715374z"/>
			<path class="st7" d="M18.6715374,2.3709888c6.4509754,0,12.0381889,3.7671866,14.6787777,9.2165251l2.3141174-0.6512117
				C32.7233429,4.486124,26.2233849,0,18.6715374,0c-7.5786915,0-14.09797,4.517961-17.024044,11.0051861l2.312814,0.6509218
				C6.5871859,6.169723,12.1936474,2.3709888,18.6715374,2.3709888z"/>
			<path class="st7" d="M37.3430748,18.6715374c0-1.7113838-0.2347984-3.3669081-0.6659698-4.9413929l-2.2843781,0.6431074
				c0.3751335,1.3704386,0.579361,2.8106298,0.579361,4.2982855c0,8.4379654-6.4448605,15.3984051-14.670496,16.2189312v2.3773575
				C29.8496208,36.4415092,37.3430748,28.4339218,37.3430748,18.6715374z"/>
		</g>
		<path class="st7" d="M18.6715145,8.9375887c-5.361392,0-9.7076559,4.3464003-9.7076559,9.7077932
			s4.3462639,9.7074299,9.7076559,9.7074299c5.3614388,0,9.7077026-4.3460388,9.7077026-9.7074299
			S24.0329533,8.9375887,18.6715145,8.9375887z M24.5946293,19.3797398
			c-0.0184212,0.3693504-0.0617847,0.7350807-0.1345234,1.0975533c-0.0965462,0.4812431-0.2752476,0.9306202-0.5266418,1.350668
			c-0.1796532,0.3001881-0.3629704,0.5982056-0.5457897,0.8965836h-1.5013962
			c0.1472416-0.4204102,0.297472-0.8400936,0.4298229-1.2655735c0.1354294-0.4356174,0.2472763-0.876667,0.3212376-1.3267689
			c0.0386543-0.2353706,0.0668087-0.4718285,0.0807953-0.7100964c0.006155-0.1042881,0.0164757-0.2085743,0.0074673-0.3121376
			c-0.0218163-0.251667-0.0346718-0.5040569-0.0736427-0.7535496c-0.0514202-0.3295212-0.1563416-0.6376762-0.3615665-0.9052753
			c-0.2123318-0.2773743-0.4918346-0.4573441-0.8213558-0.5634422c-0.1333008-0.0430908-0.2694092-0.0698872-0.4109478-0.0673523
			c-0.2724876,0.0043468-0.505867,0.1013908-0.7031269,0.2875156c-0.1796055,0.1698284-0.2991467,0.378767-0.3933868,0.6039982
			c-0.0986748,0.235733-0.1572895,0.4830551-0.20364,0.7332726c-0.0644112,0.3479862-0.0957775,0.6992321-0.1103535,1.0526524
			c-0.0152092,0.367178-0.0136242,0.7347183-0.0029411,1.1018982c0.0085087,0.2929459,0.0247593,0.5855312,0.0422306,0.8781147
			c0.0095501,0.1600533,0.0168381,1.0265808,0.0376587,1.1859093c0.0011311,0.0086899,0.0007706,0.0177441,0.0017662,0.0264339
			c0.0023079,0.0210018-0.007515,0.0293312-0.0274296,0.0286064c-0.0124035-0.0003624-0.0247593,0.0003624-0.037117,0.0003624
			c-0.6660557,0-1.3321095,0-1.9981194,0c-0.0659046,0-0.0677147-0.0007248-0.0577126-0.0655422
			c0.0425491-0.2744789,0.0517826-1.2572441,0.0581188-1.5346203c0.0064278-0.2788239,0.0128098-0.5576477,0.0215912-0.8364716
			c0.0084648-0.270134,0.0090981-0.5406303,0.0028515-0.8107643c-0.0088272-0.3798523-0.0431805-0.7575321-0.1250629-1.1297798
			c-0.0604725-0.2748413-0.1384621-0.54389-0.2653809-0.7970047c-0.0905285-0.1803303-0.2028275-0.3436413-0.363966-0.4689312
			c-0.2187595-0.1698284-0.4682522-0.2346458-0.7413292-0.205677c-0.3567677,0.0383835-0.6698561,0.1799679-0.9383154,0.4171486
			c-0.235507,0.2078514-0.3855562,0.4707432-0.478301,0.7683964c-0.0569868,0.1828651-0.0874949,0.3708-0.105917,0.5609074
			c-0.0181055,0.1861248-0.0351248,0.372612-0.0496998,0.5590973c-0.0080118,0.102478,0.0037565,0.2049541,0.0104103,0.3067074
			c0.0119953,0.1832275,0.0319109,0.3657303,0.0581188,0.5475101c0.0433626,0.3009129,0.1046953,0.5982037,0.1788368,0.8929615
			c0.1310835,0.5210743,0.3072948,1.0280285,0.4845028,1.5346203c0.0310955,0.0890789,0.0623732,0.1777954,0.0936499,0.2668743
			h-1.494833c-0.2089367-0.3421936-0.4170141-0.685112-0.6207008-1.0305634
			c-0.2277212-0.3863716-0.3772268-0.8006248-0.4627304-1.2391396c-0.0426378-0.2187138-0.0654507-0.4399624-0.0871773-0.661211
			c-0.0238094-0.2429752-0.042594-0.4859505-0.0376596-0.7296505c0.0158873-0.783968,0.1715488-1.5349827,0.5293131-2.2381992
			c0.2155457-0.4233055,0.491519-0.8035202,0.8215809-1.1453524c0.2611723-0.270133,0.5477362-0.5102119,0.8566608-0.7234945
			c0.1702824-0.1176853,0.3542786-0.2125578,0.53298-0.3161211c0.0259809-0.0152092,0.0531845-0.0286064,0.0777626-0.0456257
			c0.0532761-0.0369358,0.1058264-0.0369358,0.1648054-0.0108633c0.1518593,0.0669899,0.3033123,0.1347046,0.4524097,0.2078505
			c0.7248535,0.3552294,1.3950272,0.796279,2.0296688,1.2930937c0.1251545,0.0977688,0.254427,0.1904697,0.3756886,0.2936707
			c0.0602474,0.0510559,0.1002598,0.0514183,0.1665707,0.0025349c0.0965023-0.0716991,0.1912384-0.1455688,0.2871532-0.2179909
			c0.3470364-0.2614431,0.6923981-0.5254202,1.0526981-0.7683964c0.3182487-0.2150927,0.6554623-0.3968716,1.0001907-0.5652523
			c0.1729984-0.0843716,0.3483486-0.1636734,0.5235195-0.2433376c0.0503788-0.0231752,0.0974522-0.0238991,0.1470165,0.0018101
			c0.4568005,0.2371817,0.881918,0.5203514,1.2618618,0.8690634c0.6117382,0.5612688,1.0451374,1.2384138,1.3094769,2.0241919
			c0.1060524,0.3153973,0.1843586,0.6376743,0.2257309,0.9682808C24.5967121,18.7583599,24.6101551,19.068325,24.5946293,19.3797398
			z"/>
	</g>
	<g>
		<g>
			<g>
				<path class="st7" d="M59.0641785,17.259552c-1.1024094-1.0394459-2.4261551-1.8153162-3.9348793-2.3080559
					c-1.4958153-0.4880466-3.9028091-0.735981-7.153717-0.735981h-5.0889053v23.0711632h7.5447807
					c3.0506859,0,5.4115334-0.4950867,7.0168457-1.47118c1.6068802-0.9768753,2.8633652-2.3495064,3.7346535-4.0811348
					c0.8665962-1.7230244,1.3061523-3.581356,1.3061523-5.5225945c0-1.9318523-0.2964249-3.6626968-0.8806763-5.1448269
					C61.0218391,19.5801201,60.165802,18.2989979,59.0641785,17.259552z M46.0351257,17.3948593h1.050396
					c2.4879417,0,4.42136,0.1274872,5.7458916,0.3777676c1.2971573,0.2455864,2.4421883,0.7430191,3.4034233,1.4790001
					c0.9581032,0.7328529,1.7069893,1.6956501,2.2259293,2.8610191c0.5228539,1.1739712,0.7876015,2.4707375,0.7876015,3.8535366
					c0,1.3851452-0.2244682,2.6216869-0.6671524,3.6744289c-0.4403381,1.0464859-1.0895042,1.9443665-1.9298973,2.6670513
					c-0.838047,0.7211189-1.8372154,1.2154236-2.9701233,1.4688339c-1.162632,0.2604485-3.051075,0.3926277-5.6133232,0.3926277
					h-2.0327454V17.3948593z"/>
				<path class="st7" d="M67.0470047,14.2155151c-0.5381775,0-1.0046616,0.1989431-1.3867722,0.5913401
					c-0.380043,0.3903389-0.5728149,0.8554535-0.5728149,1.382308c0,0.5261688,0.1927719,0.9912834,0.5728149,1.3816223
					c0.3821106,0.3923969,0.8534012,0.5913391,1.4004898,0.5913391c0.545723,0,1.0159836-0.1934547,1.3977432-0.5748749
					c0.3817673-0.3821068,0.5752182-0.8520241,0.5752182-1.3980865c0-0.5460634-0.1934509-1.0159788-0.5748749-1.3973999
					C68.0770493,14.4096556,67.6023254,14.2155151,67.0470047,14.2155151z"/>
				<rect x="65.420517" y="19.9555416" class="st7" width="3.1488409" height="17.3311386"/>
				<path class="st7" d="M75.6840286,20.5458164c-0.3526459,0.2488384-0.704155,0.5854568-1.0506897,1.0037498v-1.5940247
					h-3.1028519v17.3311367h3.1028519V31.390892c0-2.5402889,0.1228867-4.3149796,0.3656235-5.275219
					c0.2373886-0.9419231,0.596138-1.7098103,1.0659561-2.2830544c0.6705627-0.8175011,1.4281464-1.0342808,2.3021393-0.5709534
					l0.2431107,0.1289997l1.5949326-2.5967731l-0.2740326-0.1465549
					C78.1972198,19.7168636,76.7866287,19.7672424,75.6840286,20.5458164z"/>
				<path class="st7" d="M97.8055649,28.966053c-0.0595093-2.7704182-0.8973541-4.987936-2.4906464-6.5919399
					c-1.5951309-1.604744-3.6053085-2.4185715-5.9747314-2.4185715c-2.3716278,0-4.3884659,0.8596573-5.9939423,2.5545788
					c-1.6010513,1.6904869-2.4130325,3.7476044-2.4130325,6.1136951s0.8071747,4.4180317,2.398613,6.0989132
					c1.5955048,1.6853104,3.6463394,2.5397949,6.0955887,2.5397949c1.768837,0,3.3140793-0.4205894,4.5932159-1.2492027
					c1.2728577-0.8256531,2.3882675-2.1147728,3.3155594-3.8318672l0.1374817-0.2542763l-2.5368347-1.3046398l-0.1315765,0.2461452
					c-1.2928085,2.4170914-3.1089554,3.5923767-5.5519257,3.5923767c-1.4055328,0-2.6318207-0.5048561-3.6452255-1.4997787
					c-0.9542694-0.9372711-1.5082779-2.1827774-1.6483536-3.7054729h13.8520889L97.8055649,28.966053z M84.337471,26.5703945
					c0.888855-2.5065327,2.5283432-3.7261677,5.0027161-3.7261677c1.2665787,0,2.4008331,0.3621941,3.3713684,1.0754948
					c0.8748093,0.6445599,1.472435,1.534523,1.7795563,2.6506729H84.337471z"/>
				<path class="st7" d="M114.9027786,31.8192368c-1.4485245,1.7826881-3.2527008,2.6866302-5.3628845,2.6866302
					c-1.7537918,0-3.2219543-0.5875626-4.3626251-1.7463837c-1.1421509-1.1610451-1.7211914-2.571785-1.7211914-4.1922092
					c0-1.6167183,0.5864487-2.9904118,1.7426834-4.08255c1.1610413-1.0965824,2.6214218-1.6522846,4.3411331-1.6522846
					c2.2150269,0,3.9580765,0.8668938,5.328804,2.6510658l0.1581879,0.2059784l2.3458023-1.4796467l-0.1441116-0.2385807
					c-0.7616806-1.2625523-1.8319626-2.2568874-3.1808395-2.9555874c-1.3433075-0.6964798-2.8307343-1.0499058-4.4204102-1.0499058
					c-2.6840363,0-4.9042511,0.8646717-6.5995102,2.570303c-1.6952591,1.7048912-2.5547409,3.7832127-2.5547409,6.1764317
					c0,2.394701,0.8554077,4.4493141,2.5425186,6.1067848c1.6848831,1.6552467,3.8117371,2.4947243,6.3209152,2.4947243
					c1.6067123,0,3.1204453-0.3319359,4.4985809-0.9869232c1.3874054-0.6586914,2.5262222-1.6300545,3.3845901-2.8889046
					l0.1600418-0.2341347l-2.311348-1.5885639L114.9027786,31.8192368z"/>
				<path class="st7" d="M125.7485962,14.2155151h-3.0508499v5.7443428h-2.7958603v2.7234898h2.7958603v11.3978901
					c0,1.0851517,0.2580261,1.8990135,0.7672577,2.4196167c0.5103683,0.5213585,1.2905121,0.7858238,2.3195877,0.7858238
					c0.5122681,0,1.2590637-0.0810814,2.2191772-0.2417336l0.2428741-0.0409203v-2.648468h-1.7186584
					c-0.5656891,0-0.7001953-0.0659294-0.7062607-0.0659294c-0.0030289-0.003788-0.0731277-0.100029-0.0731277-0.5357552V22.6833477
					h3.2118835v-2.7234898h-3.2118835V14.2155151z"/>
				<path class="st7" d="M139.187973,19.9408169c-2.3743896,0-4.4130402,0.860323-6.0596466,2.5565357
					c-1.6440125,1.6932507-2.4776764,3.7544708-2.4776764,6.1259117c0,2.3706989,0.8288574,4.4267349,2.4632416,6.1111031
					c1.6362457,1.6865883,3.680069,2.541729,6.0740814,2.541729c2.3943939,0,4.4334106-0.8551407,6.0592804-2.541729
					c1.6244049-1.6843681,2.4484406-3.7404041,2.4484406-6.1111031c0-2.3714409-0.8336639-4.4326611-2.4773102-6.1259117
					C143.5717773,20.8011398,141.5423889,19.9408169,139.187973,19.9408169z M144.7156677,28.6958218
					c0,1.5718269-0.5449219,2.9326477-1.620697,4.0446987c-1.0720673,1.1090927-2.3869934,1.6717834-3.9069977,1.6717834
					c-1.5773773,0-2.9063568-0.5567665-3.9495544-1.6547546c-1.0472717-1.1031666-1.578125-2.4647274-1.578125-4.0476608
					c0-1.5829353,0.5508423-2.9696674,1.6366119-4.1194801c1.0824432-1.1461086,2.3866272-1.7273083,3.8762665-1.7273083
					c1.490387,0,2.7993774,0.5811996,3.891449,1.7280483C144.1603851,25.7417011,144.7156677,27.1225109,144.7156677,28.6958218z"/>
				<path class="st7" d="M158.5962219,20.6421642c-1.7313995-0.9287052-3.1450806-0.8813534-4.2494507-0.1015759
					c-0.3528442,0.2489777-0.7049255,0.585022-1.0516663,1.0043144v-1.5893612l-3.104599-0.0050087v17.3403683h3.104599v-5.8991165
					c0-2.5432491,0.1229706-4.3189411,0.3650665-5.2789612c0.2382965-0.9424534,0.5972443-1.7107735,1.0669403-2.2843418
					c0.6713257-0.8171997,1.4243774-1.0356293,2.3034363-0.5705128l0.2436371,0.1290722l1.5954437-2.598238L158.5962219,20.6421642z
					"/>
			</g>
		</g>
		<g>
			<g>
				<path class="st7" d="M61.8527374,6.1502752c-0.2049065-0.1931915-0.4509277-0.3374586-0.7312469-0.4289703
					c-0.2795067-0.0912166-0.7071495-0.1355724-1.307354-0.1355724h-0.9761238v4.2754059h1.4186516
					c0.5604897,0,0.9962006-0.0921011,1.2950859-0.2736511c0.2992554-0.1818447,0.5330811-0.4375172,0.695034-0.7595024
					c0.1603279-0.3185959,0.2416344-0.6623907,0.2416344-1.0215116c0-0.355731-0.0547447-0.6749167-0.1627617-0.9488621
					C62.2166824,6.5814552,62.0575714,6.3434663,61.8527374,6.1502752z M61.7863503,7.7621174
					c0,0.2418203-0.0389023,0.4568214-0.1156044,0.6392555c-0.0757446,0.1800756-0.1873703,0.3343639-0.3318214,0.4587364
					c-0.1436424,0.1236372-0.3150978,0.2083702-0.5096512,0.2519894c-0.2043533,0.0458288-0.5403023,0.0691118-0.998558,0.0691118
					h-0.3072128V6.2767115h0.1301918c0.444664,0,0.7893448,0.0225463,1.0244217,0.0671968
					C60.902771,6.3864961,61.10075,6.4722605,61.266571,6.5991387c0.164566,0.1258469,0.2934341,0.2916288,0.3829918,0.4926305
					C61.7403374,7.2955704,61.7863503,7.5211811,61.7863503,7.7621174z"/>
				<path class="st7" d="M67.7775345,5.5795331h-0.657486v1.0806713h-0.4987488v0.6061807h0.4987488V9.243001
					c0,0.2090549,0.0514832,0.367506,0.1530075,0.4712563c0.1021271,0.1044559,0.2549973,0.15732,0.4542999,0.15732
					c0.0952988,0,0.2278137-0.0144167,0.4051743-0.0438175l0.0907059-0.0151243V9.2352266h-0.363266
					c-0.0397491,0-0.0654755-0.0019789-0.0802155-0.003109c-0.0011978-0.0108843-0.0022202-0.0261497-0.0022202-0.047493V7.2663851
					h0.5730209V6.6602044h-0.5730209V5.5795331z"/>
				<polygon class="st7" points="46.824501,5.5838685 45.3081818,8.6641674 43.7812958,5.5838685 43.4958496,5.5838685 
					42.8866768,9.8715773 43.5770187,9.8715773 43.9178505,7.3552289 45.16605,9.8715773 45.4512024,9.8715773 46.683033,7.3779879 
					47.0235329,9.8715773 47.725071,9.8715773 47.1100235,5.5838685 				"/>
				<path class="st7" d="M50.5913048,7.0022097c-0.2655182-0.2321057-0.5797081-0.3495445-0.9370499-0.3495445
					c-0.4424095,0-0.8225594,0.1587577-1.1298866,0.4716978c-0.3069077,0.3123856-0.4625473,0.6929884-0.4625473,1.1311321
					c0,0.4378672,0.1545296,0.8198566,0.4592552,1.1355696c0.3057632,0.3169613,0.6791229,0.4776602,1.1097794,0.4776602
					c0.3531151,0,0.6752396-0.12257,0.9604492-0.3649349v0.3677874l0.6345482-0.0028524V6.6602044h-0.6345482V7.0022097z
					 M50.3353195,7.5647254c0.1862793,0.1910639,0.2768173,0.42206,0.2768173,0.7062993
					c0,0.283823-0.0919266,0.51371-0.2811165,0.7028322c-0.1891251,0.1892614-0.4079514,0.281189-0.6689682,0.281189
					c-0.263649,0-0.4836922-0.0956707-0.6726418-0.292697c-0.1901627-0.1979971-0.282608-0.4249716-0.282608-0.69382
					c0-0.2692647,0.0909576-0.4965172,0.2780342-0.6946526c0.1854134-0.1963329,0.4060783-0.2918649,0.6746178-0.2918649
					C49.9286842,7.2820115,50.149765,7.3744931,50.3353195,7.5647254z"/>
				<path class="st7" d="M57.6270103,7.0022097c-0.265522-0.2321057-0.5797081-0.3495445-0.9370537-0.3495445
					c-0.4424057,0-0.8225594,0.1587577-1.1298828,0.4716978c-0.3069077,0.3123856-0.4625473,0.6929884-0.4625473,1.1311321
					c0,0.4378672,0.1545296,0.8198566,0.4592552,1.1355696c0.3057632,0.3169613,0.6791229,0.4776602,1.1097794,0.4776602
					c0.3531151,0,0.6752396-0.12257,0.9604492-0.3649349v0.3677874l0.6345444-0.0028524V6.6602044h-0.6345444V7.0022097z
					 M57.3710213,7.5647254c0.1862793,0.1910639,0.2768211,0.42206,0.2768211,0.7062993
					c0,0.283823-0.0919266,0.51371-0.2811203,0.7028322c-0.1891212,0.1892614-0.4079514,0.281189-0.6689644,0.281189
					c-0.263649,0-0.4836922-0.0956707-0.6726418-0.292697c-0.1901627-0.1979971-0.2826118-0.4249716-0.2826118-0.69382
					c0-0.2692647,0.0909576-0.4965172,0.2780342-0.6946526c0.1854172-0.1963329,0.4060822-0.2918649,0.6746178-0.2918649
					C56.964386,7.2820115,57.1854706,7.3744931,57.3710213,7.5647254z"/>
				<path class="st7" d="M65.4407959,7.0022097c-0.2655258-0.2321057-0.5797119-0.3495445-0.9370575-0.3495445
					c-0.4424057,0-0.8225555,0.1587577-1.1298828,0.4716978c-0.3069077,0.3123856-0.4625435,0.6929884-0.4625435,1.1311321
					c0,0.4378672,0.1545258,0.8198566,0.4592514,1.1355696c0.3057671,0.3169613,0.6791267,0.4776602,1.1097832,0.4776602
					c0.3531113,0,0.6752396-0.12257,0.9604492-0.3649349v0.3677874l0.6345444-0.0028524V6.6602044h-0.6345444V7.0022097z
					 M65.1848068,7.5647254c0.1862793,0.1910639,0.2768173,0.42206,0.2768173,0.7062993
					c0,0.283823-0.0919266,0.51371-0.2811203,0.7028322c-0.1891174,0.1892614-0.4079514,0.281189-0.6689606,0.281189
					c-0.263649,0-0.483696-0.0956707-0.6726418-0.292697c-0.1901627-0.1979971-0.2826118-0.4249716-0.2826118-0.69382
					c0-0.2692647,0.0909576-0.4965172,0.2780342-0.6946526c0.1854134-0.1963329,0.4060783-0.2918649,0.6746178-0.2918649
					C64.7781677,7.2820115,64.9992523,7.3744931,65.1848068,7.5647254z"/>
				<path class="st7" d="M71.1188126,7.0022097c-0.2655182-0.2321057-0.5797043-0.3495445-0.9370499-0.3495445
					c-0.4424057,0-0.8225632,0.1587577-1.1298828,0.4716978c-0.3069153,0.3123856-0.4625473,0.6929884-0.4625473,1.1311321
					c0,0.4378672,0.1545258,0.8198566,0.4592514,1.1355696c0.3057632,0.3169613,0.6791229,0.4776602,1.1097794,0.4776602
					c0.3531113,0,0.6752396-0.12257,0.9604492-0.3649349v0.3677874l0.6345444-0.0028524V6.6602044h-0.6345444V7.0022097z
					 M70.8628235,7.5647254c0.1862793,0.1910639,0.276825,0.42206,0.276825,0.7062993
					c0,0.283823-0.0919266,0.51371-0.2811203,0.7028322c-0.1891251,0.1892614-0.4079514,0.281189-0.6689682,0.281189
					c-0.263649,0-0.4836884-0.0956707-0.6726379-0.292697c-0.1901627-0.1979971-0.2826157-0.4249716-0.2826157-0.69382
					c0-0.2692647,0.0909576-0.4965172,0.278038-0.6946526c0.1854095-0.1963329,0.4060822-0.2918649,0.674614-0.2918649
					C70.456192,7.2820115,70.6772766,7.3744931,70.8628235,7.5647254z"/>
				<polygon class="st7" points="53.368187,8.6856403 52.4595718,6.6602044 51.7521553,6.6602044 53.0107117,9.496273 
					52.3939781,10.9059772 53.1013145,10.9059772 54.9595222,6.6602044 54.2463684,6.6602044 				"/>
			</g>
			<g>
				<polygon class="st7" points="89.9955597,9.8687248 92.5473938,9.8687248 92.5473938,9.2166862 90.6526947,9.2166862 
					90.6526947,7.8843083 92.5473938,7.8843083 92.5473938,7.2379298 90.6526947,7.2379298 90.6526947,6.2315717 
					92.5640945,6.2315717 92.5640945,5.5795331 89.9955597,5.5795331 				"/>
				<path class="st7" d="M95.1518021,7.5098224c0.2468033-0.204114,0.3714752-0.4760776,0.3714752-0.810802
					c0-0.3562098-0.1255188-0.6355238-0.3728867-0.8294606c-0.2408676-0.1894131-0.5922699-0.2855334-1.0448837-0.2855334H93.1819
					v4.2846985h1.2379761c0.4212341,0,0.7686768-0.1221294,1.0330048-0.3624296
					c0.2665939-0.2425623,0.4017258-0.5524082,0.4017258-0.9204922c0-0.2651787-0.072937-0.4975634-0.2165527-0.6914997
					C95.5215836,7.7365527,95.3584595,7.6076388,95.1518021,7.5098224z M94.8555222,6.6990204
					c0,0.1978946-0.0686951,0.3375516-0.209198,0.4263215c-0.1523819,0.0955544-0.3909836,0.1436148-0.7093124,0.1436148H93.832695
					V6.2297277h0.3400955C94.7845688,6.2297277,94.8555222,6.4977336,94.8555222,6.6990204z M95.1812057,8.6135082
					c0,0.1017742-0.0347748,0.2046795-0.1031876,0.3053226c-0.0701141,0.1034708-0.1605835,0.1775398-0.2767715,0.2272959
					c-0.1198654,0.0508871-0.3200226,0.0768967-0.5948181,0.0768967H93.832695V7.9259663h0.0986633
					c0.3395309,0,0.5747452,0.016397,0.6991348,0.0497561c0.1215591,0.032794,0.2244644,0.0814199,0.3061676,0.1447458
					c0.0811386,0.0633259,0.1430511,0.1356993,0.1834793,0.2154226C95.1605682,8.4150486,95.1812057,8.5083418,95.1812057,8.6135082
					z"/>
				<path class="st7" d="M98.5543671,8.0325022c-0.1476669-0.2067838-0.3822556-0.4286857-0.6967545-0.6597652
					c-0.3023453-0.2219019-0.4972534-0.3827939-0.5787811-0.4778175c-0.0731506-0.0853052-0.1087875-0.1824884-0.1087875-0.2974882
					c0-0.1106811,0.036171-0.1986856,0.1109543-0.2688737c0.0758514-0.0718074,0.1676407-0.1063614,0.2807465-0.1063614
					c0.1179733,0,0.2178497,0.0280752,0.3053207,0.0853052c0.0915146,0.0604696,0.2073212,0.184648,0.3439178,0.3692961
					l0.0507507,0.068028l0.4994125-0.3903522l-0.0456238-0.0647888c-0.161972-0.2278404-0.3312302-0.4038501-0.5037308-0.5220895
					c-0.1781693-0.121479-0.3887329-0.1835685-0.6260223-0.1835685c-0.3074722,0-0.5625839,0.0993428-0.7582932,0.2953291
					c-0.1957169,0.195446-0.2950592,0.4378643-0.2950592,0.7207751c0,0.1311975,0.0251007,0.2640142,0.0750427,0.3946714
					c0.050209,0.1311975,0.1311951,0.2559156,0.2399902,0.3703761c0.1055527,0.1112208,0.2920914,0.2677937,0.5704117,0.4788971
					c0.2642822,0.1992254,0.4524384,0.3692961,0.5585327,0.5048122c0.0988007,0.1252584,0.1487427,0.2586155,0.1487427,0.3962917
					c0,0.1338968-0.0558777,0.2488966-0.1708832,0.3509388c-0.117424,0.1052818-0.2553711,0.1560335-0.421936,0.1560335
					c-0.2553711,0-0.494278-0.2035446-0.7097015-0.6052351l-0.0404968-0.0750475l-0.533699,0.3072071l0.0356369,0.0701876
					c0.3107147,0.610095,0.7485809,0.9194613,1.301712,0.9194613c0.3174667,0,0.5992966-0.1150007,0.8376694-0.3423014
					c0.2394485-0.2278404,0.3606567-0.5015726,0.3606567-0.8130989C98.7840958,8.4746857,98.7068863,8.2457657,98.5543671,8.0325022
					z"/>
				<path class="st7" d="M88.8264236,6.8392463c-0.1869812-0.1188135-0.3980484-0.1790419-0.6271896-0.1790419
					c-0.3602753,0-0.6824951,0.1330495-0.9600906,0.3947687V6.6602044l-0.6192627-0.0007963v3.2093167h0.6192627v-1.182663
					c0-0.3827229,0.0164261-0.6389666,0.0490036-0.7616129c0.0314789-0.118814,0.0895157-0.2332473,0.1724701-0.339468
					c0.0829468-0.1056733,0.1834183-0.189445,0.2984009-0.2485781c0.2327042-0.1199088,0.4938736-0.1056733,0.6542969-0.0361371
					c0.0793915,0.0344944,0.1426315,0.084867,0.1938248,0.1549506c0.0531082,0.0722742,0.0944519,0.1631637,0.1226501,0.2704797
					c0.0287399,0.1106009,0.0435257,0.32797,0.0435257,0.6449895v1.4980392h0.6140518V8.2617273
					c0-0.4183125-0.045166-0.7216439-0.1379776-0.9286098C89.1560364,7.1250567,89.0136795,6.9586077,88.8264236,6.8392463z"/>
				<path class="st7" d="M77.8281326,5.8613644c-0.3325806-0.1868076-0.7016068-0.2818313-1.0970917-0.2818313
					c-0.3776627,0-0.7353516,0.0961032-1.0628052,0.2850704c-0.3279877,0.1889672-0.5901184,0.4529815-0.7788086,0.7839441
					c-0.1886978,0.3309631-0.2842636,0.69486-0.2842636,1.0814328c0,0.3871136,0.0955658,0.7488508,0.2845306,1.0765734
					c0.1886978,0.3271837,0.4535217,0.5884981,0.7871857,0.7763863c0.3328476,0.1862679,0.6972885,0.281291,1.0835876,0.281291
					c0.3860321,0,0.7491226-0.0955639,1.0790024-0.2845306c0.3293457-0.1889677,0.5922775-0.4519014,0.781517-0.781785
					c0.1886978-0.3293428,0.2842636-0.6921597,0.2842636-1.078733c0-0.3860331-0.0966492-0.7493901-0.2872314-1.0792732
					C78.4268875,6.3100266,78.1612549,6.048172,77.8281326,5.8613644z M78.2622223,7.7326803
					c0,0.4324646-0.1476669,0.7969017-0.4389496,1.0830526c-0.2923584,0.2866898-0.6543655,0.4319248-1.0763016,0.4319248
					c-0.4076309,0-0.7631607-0.1484747-1.0565948-0.4421835c-0.2934418-0.293169-0.4424515-0.6570663-0.4424515-1.0808926
					c0-0.4243665,0.1446915-0.7888036,0.4300308-1.0841327c0.2880402-0.299108,0.6379013-0.4438028,1.0690155-0.4438028
					c0.414917,0,0.7750397,0.1484742,1.0703659,0.4421835C78.1126633,6.9325385,78.2622223,7.3002152,78.2622223,7.7326803z"/>
				<path class="st7" d="M81.0028687,6.6602044c-0.3740768,0-0.7010956,0.1308074-0.974678,0.3881683V6.6602044h-0.596077v4.1353221
					h0.596077V9.4693727c0.2953796,0.2669325,0.6314392,0.4019938,1.0012589,0.4019938
					c0.4296494,0,0.8013306-0.1595211,1.1044235-0.4737778c0.3022919-0.3137255,0.4556961-0.6955128,0.4556961-1.1341963
					c0-0.4397464-0.1552658-0.8204703-0.4615479-1.1320686C81.8212128,6.8191938,81.4428787,6.6602044,81.0028687,6.6602044z
					 M80.287941,7.5412931c0.1916962-0.198338,0.421936-0.2945824,0.7045593-0.2945824
					c0.2826157,0,0.5147171,0.0978398,0.7096024,0.2999001c0.1959457,0.2025919,0.2913895,0.4402785,0.2913895,0.727417
					c0,0.2866058-0.0970383,0.5237608-0.2961807,0.7263527c-0.1986008,0.2025919-0.4256516,0.3004322-0.6944427,0.3004322
					c-0.2791672,0-0.5107346-0.0962448-0.7077484-0.2951145c-0.1972733-0.1988697-0.293251-0.4381514-0.293251-0.7316704
					C80.0018692,7.979445,80.095459,7.7396312,80.287941,7.5412931z"/>
				<path class="st7" d="M86.1517258,8.3286352c-0.0108948-0.5123-0.1663437-0.9225655-0.4618149-1.2196355
					c-0.2962723-0.2981334-0.669075-0.4495916-1.1082993-0.4495916c-0.4400253,0-0.8141556,0.1599612-1.1122894,0.4745688
					c-0.2968063,0.3130131-0.447197,0.6940498-0.447197,1.1330128c0,0.4378996,0.1495972,0.8184042,0.444809,1.1303549
					c0.2962723,0.3124819,0.6767731,0.4713802,1.1306152,0.4713802c0.3281631,0,0.6148682-0.0781212,0.8518906-0.2322359
					c0.2359543-0.1530523,0.4424133-0.3911333,0.613266-0.7078667l0.0395966-0.0733376l-0.5146942-0.2651854L85.549614,8.6613121
					c-0.2295837,0.4288654-0.5513611,0.6371861-0.9836807,0.6371861c-0.2511063,0-0.4612885-0.086092-0.6422348-0.2641211
					c-0.1639481-0.1610241-0.2585449-0.3650942-0.2877731-0.6223068h2.517662L86.1517258,8.3286352z M83.7145767,7.863101
					c0.1602249-0.4150481,0.444809-0.6175237,0.8670349-0.6175237c0.223999,0,0.4243469,0.0637717,0.5957336,0.1897211
					c0.145874,0.1068177,0.2449875,0.2476473,0.3015823,0.4278026H83.7145767z"/>
			</g>
		</g>
	</g>
</g>
</svg>
